<?xml version="1.0" encoding="UTF-8" standalone="no"?>
<svg
   id="Layer_1"
   data-name="Layer 1"
   viewBox="0 0 93.86 122.88"
   version="1.1"
   sodipodi:docname="bong-icon.svg"
   inkscape:version="1.2.1 (9c6d41e410, 2022-07-14, custom)"
   xmlns:inkscape="http://www.inkscape.org/namespaces/inkscape"
   xmlns:sodipodi="http://sodipodi.sourceforge.net/DTD/sodipodi-0.dtd"
   xmlns="http://www.w3.org/2000/svg"
   xmlns:svg="http://www.w3.org/2000/svg">
  <sodipodi:namedview
     id="namedview1085"
     pagecolor="#ffffff"
     bordercolor="#666666"
     borderopacity="1.0"
     inkscape:showpageshadow="2"
     inkscape:pageopacity="0.0"
     inkscape:pagecheckerboard="0"
     inkscape:deskcolor="#d1d1d1"
     showgrid="false"
     inkscape:zoom="5.3485615"
     inkscape:cx="8.8808926"
     inkscape:cy="91.706902"
     inkscape:window-width="2560"
     inkscape:window-height="1380"
     inkscape:window-x="1920"
     inkscape:window-y="32"
     inkscape:window-maximized="1"
     inkscape:current-layer="Layer_1" />
  <defs
     id="defs1078">
    <style
       id="style1076">.cls-1{fill-rule:evenodd;}</style>
  </defs>
  <title
     id="title1080">bong</title>
  <path
     id="path1082"
     class="cls-1"
     d="M 23 0 A 6.08 6.08 0 0 0 18.710938 1.7890625 A 6.06 6.06 0 0 0 16.919922 6.0800781 L 16.919922 15.259766 A 6 6 0 0 0 18.710938 19.550781 A 6 6 0 0 0 23 21.339844 L 23 51.109375 A 37.32 37.32 0 1 0 70.689453 68.849609 L 82.349609 58.310547 C 82.589609 58.660547 82.829612 59.010547 83.099609 59.310547 A 3.29 3.29 0 0 0 85.269531 60.390625 A 3.36 3.36 0 0 0 87.570312 59.75 L 87.810547 59.560547 L 92.710938 55.160156 A 3.53 3.53 0 0 0 93.849609 52.900391 A 3.36 3.36 0 0 0 93.080078 50.439453 L 80.800781 35.689453 A 3.44 3.44 0 0 0 78.599609 34.580078 A 3.31 3.31 0 0 0 76.140625 35.330078 L 71.140625 39.800781 A 3.48 3.48 0 0 0 70 42.060547 A 3.32 3.32 0 0 0 70.75 44.509766 L 71 44.820312 L 58.970703 55.119141 A 37.9 37.9 0 0 0 52.310547 51.339844 L 52.310547 21.339844 L 53 21.339844 A 6.08 6.08 0 0 0 57.109375 19.689453 L 57.279297 19.539062 A 6.1 6.1 0 0 0 59.060547 15.25 L 59.060547 6.0605469 A 6.08 6.08 0 0 0 57.289062 1.7792969 A 6.12 6.12 0 0 0 53 0 L 23 0 z M 23.25 5.3007812 L 52.490234 5.3007812 A 1.15 1.15 0 0 1 53.330078 5.640625 A 1.19 1.19 0 0 1 53.669922 6.4804688 L 53.669922 14.089844 A 1.17 1.17 0 0 1 53.320312 14.929688 L 53.25 15 A 1.21 1.21 0 0 1 52.480469 15.279297 L 49.560547 15.279297 A 2.26 2.26 0 0 0 47.310547 17.539062 L 47.310547 53 A 2.26 2.26 0 0 0 48.910156 55.130859 A 27.38 27.38 0 0 1 58.210938 61.210938 L 59.359375 60.210938 A 2.09 2.09 0 0 0 60 59.830078 L 75.259766 46.689453 A 2.12 2.12 0 0 0 75.490234 43.689453 L 74.490234 42.439453 L 78.130859 39.179688 L 89.330078 52.519531 L 85.740234 55.740234 L 84.390625 53.939453 A 2.12 2.12 0 0 0 81.390625 53.5 L 81.179688 53.679688 L 62.960938 70.140625 C 61.490941 71.460622 62.700697 70.970315 60.220703 71.320312 A 33.25 33.25 0 0 0 52.369141 73.320312 C 39.679177 78.410297 45.929561 87.660135 29.849609 79.910156 L 29.859375 79.910156 C 24.139393 77.150165 13.229357 78.720394 6.859375 80.150391 A 30.29 30.29 0 0 1 12.179688 66.060547 A 29.41 29.41 0 0 1 26.289062 54.839844 A 2.25 2.25 0 0 0 27.779297 52.720703 L 27.779297 17.519531 A 2.26 2.26 0 0 0 25.519531 15.259766 L 23.259766 15.259766 A 1.15 1.15 0 0 1 22.419922 14.919922 A 1.17 1.17 0 0 1 22.070312 14.080078 L 22.070312 6.4804688 A 1.15 1.15 0 0 1 22.410156 5.640625 A 1.19 1.19 0 0 1 23.25 5.3007812 z M 61.658203 95.888672 C 61.814209 95.880557 61.94728 95.928343 62.054688 96.033203 C 62.162094 96.138063 62.216802 96.271272 62.21875 96.433594 C 62.22055 96.583431 62.165715 96.716352 62.054688 96.830078 C 61.937491 96.950122 61.800537 97.01337 61.644531 97.021484 C 61.482209 97.023434 61.347642 96.972046 61.240234 96.867188 C 61.132827 96.762328 61.081569 96.632718 61.085938 96.476562 C 61.090309 96.320413 61.150382 96.182543 61.267578 96.0625 C 61.378606 95.948774 61.508371 95.890473 61.658203 95.888672 z M 63.736328 97.964844 C 63.807746 97.965155 63.866673 97.986937 63.914062 98.033203 L 67.921875 101.94727 C 67.985053 102.00894 68.011136 102.09646 68 102.20898 C 67.988864 102.32151 67.943468 102.41982 67.863281 102.50195 C 67.783094 102.58409 67.686447 102.6307 67.574219 102.64453 C 67.468159 102.65205 67.38349 102.62613 67.320312 102.56445 L 63.3125 98.650391 C 63.249318 98.588707 63.223086 98.508242 63.234375 98.408203 C 63.245668 98.308169 63.294504 98.213453 63.380859 98.125 C 63.467215 98.036547 63.560422 97.984394 63.660156 97.970703 C 63.686632 97.965701 63.712522 97.96474 63.736328 97.964844 z M 61.919922 100.47461 C 62.550554 100.47328 63.134839 100.73547 63.671875 101.25977 L 66.191406 103.7207 C 66.254584 103.78238 66.280668 103.86794 66.269531 103.98047 C 66.264563 104.08668 66.219168 104.18498 66.132812 104.27344 C 66.052628 104.35557 65.955978 104.40413 65.84375 104.41797 C 65.73769 104.42548 65.653021 104.39762 65.589844 104.33594 L 63.070312 101.875 C 62.697546 101.51107 62.295937 101.33429 61.865234 101.3457 C 61.440702 101.3508 61.09007 101.49694 60.8125 101.78125 C 60.528761 102.07188 60.385691 102.43752 60.384766 102.88086 C 60.383693 103.31171 60.553354 103.69426 60.894531 104.02734 L 63.462891 106.53516 C 63.620842 106.68936 63.598083 106.86965 63.394531 107.07812 C 63.197148 107.2803 63.019281 107.3046 62.861328 107.15039 L 60.302734 104.65234 C 59.967877 104.32543 59.585145 104.16123 59.154297 104.16016 C 58.723294 104.1466 58.36217 104.28899 58.072266 104.58594 C 57.782359 104.88289 57.637644 105.25198 57.636719 105.69531 C 57.635646 106.12617 57.819094 106.52115 58.185547 106.87891 L 60.705078 109.33984 C 60.768256 109.40152 60.79434 109.48903 60.783203 109.60156 C 60.772067 109.71409 60.726671 109.81044 60.646484 109.89258 C 60.566297 109.97471 60.46965 110.02328 60.357422 110.03711 C 60.251362 110.04463 60.166693 110.01871 60.103516 109.95703 L 56.095703 106.04297 C 56.032521 105.98129 56.006289 105.89887 56.017578 105.79883 C 56.028872 105.69879 56.077709 105.60603 56.164062 105.51758 C 56.244249 105.43544 56.333859 105.38674 56.433594 105.37305 C 56.533328 105.35936 56.614547 105.38362 56.677734 105.44531 L 57.113281 105.87109 C 57.015815 105.55382 57.006945 105.22325 57.083984 104.87891 C 57.160876 104.52207 57.341262 104.19883 57.625 103.9082 C 57.921075 103.60493 58.274248 103.41894 58.685547 103.35156 C 59.090527 103.27802 59.491377 103.32248 59.886719 103.48633 C 59.731338 103.02613 59.699978 102.58903 59.794922 102.17578 C 59.88355 101.75637 60.06618 101.40541 60.34375 101.12109 C 60.763189 100.69146 61.28929 100.47593 61.919922 100.47461 z M 55.003906 107.70312 C 55.625133 107.70226 56.166899 107.9259 56.628906 108.37695 C 56.805812 108.54966 56.926003 108.71029 56.990234 108.85938 C 57.060632 109.00214 57.07173 109.1433 57.023438 109.28125 C 56.981303 109.41287 56.930518 109.52317 56.869141 109.61133 C 56.807763 109.69949 56.711564 109.80873 56.582031 109.94141 L 54.492188 112.08398 L 54.841797 112.42578 C 55.214565 112.78971 55.644343 112.95151 56.130859 112.9082 C 56.617224 112.85241 57.067198 112.61276 57.480469 112.18945 C 57.690188 111.97464 57.840612 111.75674 57.931641 111.53711 C 58.028832 111.31116 58.086511 111.12624 58.103516 110.98242 C 58.126693 110.83229 58.161592 110.73219 58.210938 110.68164 C 58.278788 110.61214 58.373343 110.58621 58.492188 110.60352 C 58.610879 110.60833 58.70049 110.64144 58.763672 110.70312 C 58.896352 110.83266 58.90312 111.10403 58.783203 111.51758 C 58.656966 111.92496 58.39672 112.33002 58.001953 112.73438 C 57.415972 113.33459 56.772851 113.66432 56.074219 113.72266 C 55.369266 113.77483 54.749928 113.53797 54.212891 113.01367 L 53.150391 111.97852 C 52.676535 111.5159 52.44302 110.9408 52.447266 110.25391 C 52.445191 109.56084 52.686538 108.96397 53.173828 108.46484 C 53.642613 107.98467 54.211115 107.73183 54.878906 107.70508 C 54.921029 107.70301 54.962491 107.70318 55.003906 107.70312 z M 54.775391 108.48242 C 54.355114 108.49076 53.988048 108.65476 53.675781 108.97461 C 53.355034 109.30315 53.194132 109.69456 53.193359 110.15039 C 53.198755 110.5999 53.359879 110.98065 53.675781 111.28906 L 54.037109 111.64062 L 55.886719 109.74414 C 56.071766 109.5546 56.17546 109.41075 56.199219 109.31055 C 56.216681 109.20419 56.160029 109.08462 56.027344 108.95508 C 55.711442 108.64667 55.321519 108.48936 54.859375 108.48242 C 54.830876 108.48159 54.803409 108.48187 54.775391 108.48242 z " />
  <g
     aria-label="emi"
     transform="rotate(-45.687632)"
     id="text1709"
     style="font-size:13.2447px;line-height:1.25;fill:#f9f9f9;stroke-width:0.331117" />
</svg>
