<?xml version="1.0" encoding="UTF-8" standalone="no"?>
<!-- Created with Inkscape (http://www.inkscape.org/) -->

<svg
   version="1.1"
   id="svg1"
   width="315.53897"
   height="119.41908"
   viewBox="0 0 315.53897 119.41908"
   sodipodi:docname="daisy.svg"
   inkscape:version="1.3 (0e150ed6c4, 2023-07-21)"
   xmlns:inkscape="http://www.inkscape.org/namespaces/inkscape"
   xmlns:sodipodi="http://sodipodi.sourceforge.net/DTD/sodipodi-0.dtd"
   xmlns="http://www.w3.org/2000/svg"
   xmlns:svg="http://www.w3.org/2000/svg">
  <defs
     id="defs1">
    <rect
       x="214.55534"
       y="433.79825"
       width="249.51901"
       height="57.865501"
       id="rect1" />
  </defs>
  <sodipodi:namedview
     id="namedview1"
     pagecolor="#ffffff"
     bordercolor="#666666"
     borderopacity="1.0"
     inkscape:showpageshadow="2"
     inkscape:pageopacity="0.0"
     inkscape:pagecheckerboard="0"
     inkscape:deskcolor="#d1d1d1"
     inkscape:zoom="5.7457245"
     inkscape:cx="157.76949"
     inkscape:cy="66.223154"
     inkscape:window-width="2560"
     inkscape:window-height="1380"
     inkscape:window-x="1920"
     inkscape:window-y="32"
     inkscape:window-maximized="0"
     inkscape:current-layer="g1">
    <inkscape:page
       x="0"
       y="0"
       inkscape:label="1"
       id="page1"
       width="315.53897"
       height="119.41908"
       margin="0"
       bleed="0" />
  </sodipodi:namedview>
  <g
     id="g1"
     inkscape:groupmode="layer"
     inkscape:label="1"
     transform="translate(-250.23051,-500.93049)">
    <path
       d="m 540.20317,500.93049 -265.36133,0.0156 -0.89649,0.46093 -0.89648,0.45899 -1.51953,0.57422 -1.51758,0.57617 -0.002,0.20117 -0.002,0.20117 -8.45703,8.41211 -8.45703,8.41211 -0.83203,1.52734 -0.83203,1.52735 -0.49414,1.53906 -0.49219,1.53906 -0.10742,37.4375 -0.10547,37.43946 0.20898,2.46484 0.20899,2.46484 0.32031,0.32032 0.32031,0.32031 2.24024,0.32226 2.23828,0.32227 7.04101,0.81055 7.03907,0.81054 8.48047,0.95703 8.48046,0.95508 6.24024,0.65625 6.24023,0.6543 12.16016,1.25 12.1582,1.25 8.48047,0.81836 8.48047,0.81836 1.75977,0.1582 1.75976,0.1582 9.59961,0.78907 9.60156,0.78906 3.03907,0.18359 3.04101,0.1836 1.59961,0.14843 1.59961,0.14649 10.55859,0.66211 10.5586,0.66211 12.16211,0.01 12.16015,0.0117 6.72071,-0.35547 6.7207,-0.35351 7.67969,-0.47852 7.67968,-0.47851 4,-0.32227 4,-0.32227 1.59961,-0.13671 1.59961,-0.13672 1.28125,-0.17188 1.2793,-0.17383 5.2793,-0.48828 5.28125,-0.49023 5.11914,-0.48633 5.12109,-0.48828 0.95899,-0.125 0.96093,-0.12695 2.39844,-0.20704 2.40039,-0.20898 9.28125,-0.91602 9.2793,-0.91796 2.24023,-0.19336 2.24024,-0.19141 6.08008,-0.62109 6.08007,-0.62305 2.87891,-0.32617 2.88086,-0.32617 4.63867,-0.47071 4.64063,-0.46875 0.80078,-0.14843 0.79883,-0.14844 3.52148,-0.32422 3.51953,-0.32422 7.03906,-0.8125 7.04102,-0.8125 1.35742,-0.19727 1.35938,-0.19726 0.60546,-1.09375 0.96094,-1.0957 v -1.35743 -1.35742 l 0.0156,-2.71094 c -0.12972,-1.03356 0.56842,-67.21235 0.39453,-68.76367 -0.17389,-1.55131 -0.20703,-2.2539 -0.20703,-2.2539 l -0.20508,-1.45313 -0.51563,-1.88476 -0.51562,-1.88477 -1.78516,-1.91992 -1.78515,-1.91992 -0.80078,-0.86133 -0.79883,-0.86133 -2.56055,-2.80664 -2.56055,-2.80469 -3.69726,-3.76367 -3.69922,-3.76562 -1.10156,-0.51563 -1.10157,-0.51562 -1.43945,-0.56836 z m -16.29883,24.44141 c 2.40312,0.27728 3.60547,1.38714 3.60547,3.32812 0,2.40312 -1.24861,5.59201 -3.74414,9.56641 -0.83185,1.29399 -2.03225,3.1418 -3.60352,5.54492 -1.57127,2.31069 -2.68115,3.97548 -3.32812,4.99219 -0.55457,0.92427 -1.52572,2.30964 -2.91211,4.1582 -1.29399,1.84856 -2.4019,3.55959 -3.32618,5.13086 v 12.06055 c 0,8.31848 -0.27746,13.6789 -0.83203,16.08203 -0.55456,2.40312 -2.26559,3.60547 -5.13086,3.60547 -0.83185,0 -1.43302,-0.18498 -1.80273,-0.55469 -1.01671,-1.01671 -1.52344,-4.06688 -1.52344,-9.15039 l 0.13867,-14.97266 c 0,-2.40312 -0.13873,-4.85212 -0.41601,-7.34765 -3.78954,-4.89868 -8.96695,-13.31121 -15.5293,-25.23438 -0.27728,-0.46214 -0.41601,-1.01511 -0.41601,-1.66211 0,-0.64699 0.27746,-1.34065 0.83203,-2.08008 1.29399,-1.94096 2.86628,-2.91211 4.71484,-2.91211 1.38642,0 4.7603,4.66872 10.12109,14.00391 2.40313,4.15925 4.20471,7.11692 5.40625,8.87305 1.57128,-2.3107 3.32855,-4.9909 5.26954,-8.04102 1.94096,-3.14254 3.37259,-5.45475 4.29687,-6.93359 2.77283,-4.34411 4.89813,-6.93184 6.37695,-7.76367 0.647,-0.46214 1.24817,-0.69336 1.80274,-0.69336 z m -69.875,0.27734 c 6.46992,0 11.36791,0.83241 14.69531,2.49609 3.3274,1.6637 4.99219,3.78898 4.99219,6.37696 0,1.20156 -0.4162,2.21893 -1.24805,3.05078 -0.73942,0.73942 -1.6643,1.10937 -2.77344,1.10937 -1.10913,0 -3.32691,-0.7399 -6.65429,-2.21875 -3.23498,-1.47884 -6.19264,-2.21875 -8.87305,-2.21875 -2.58798,0 -5.36067,0.73991 -8.31836,2.21875 -2.86526,1.38642 -4.29883,3.14174 -4.29883,5.26758 0,2.12584 1.7573,4.02185 5.26953,5.68555 3.51226,1.6637 7.67032,3.09531 12.47657,4.29687 4.80622,1.20156 7.99513,2.40391 9.5664,3.60547 1.6637,1.10914 2.8198,2.03402 3.4668,2.77344 0.73942,0.64699 1.47933,1.98612 2.21875,4.01953 0.73942,1.94098 1.10937,4.48246 1.10937,7.625 0,6.74721 -2.21971,11.7859 -6.65625,15.11328 -4.34408,3.23497 -9.5658,4.85156 -15.66601,4.85156 -6.00781,0 -11.18324,-0.97112 -15.52735,-2.91211 -4.34408,-1.94096 -6.51757,-4.34372 -6.51757,-7.20898 0,-1.47884 0.60117,-2.77173 1.80273,-3.88086 1.29399,-1.20156 2.63507,-1.52527 4.02149,-0.9707 8.68819,3.41981 14.1411,5.1289 16.35937,5.1289 3.9744,0 7.02455,-0.96917 9.15039,-2.91015 2.12584,-2.03341 3.18945,-4.57684 3.18945,-7.62696 0,-3.05009 -1.20236,-5.36036 -3.60546,-6.93164 -2.40313,-1.66368 -5.31455,-2.86409 -8.73438,-3.60351 -3.3274,-0.73942 -6.70128,-1.57182 -10.12109,-2.4961 -3.3274,-0.92425 -6.19258,-2.54282 -8.59571,-4.85351 -2.4031,-2.3107 -3.60546,-5.63834 -3.60547,-9.98242 0,-4.34411 2.21974,-8.03973 6.65625,-11.08985 4.43654,-3.14252 9.84319,-4.71484 16.22071,-4.71484 z m -39.375,0.13867 c 1.38642,0 2.54254,0.32373 3.46679,0.9707 1.01671,0.647 1.57164,1.75686 1.66407,3.32813 0.0924,1.47884 0.13867,4.85273 0.13867,10.12109 0,24.67819 -0.18498,39.69779 -0.55469,45.0586 -0.0924,1.20156 -0.83233,2.26322 -2.21875,3.1875 -1.29399,0.92428 -2.58882,1.38672 -3.88281,1.38672 -2.58798,0 -3.88086,-1.10986 -3.88086,-3.32813 l 0.55469,-56.42578 c 0,-1.29399 0.46244,-2.31136 1.38672,-3.05078 0.92427,-0.83185 2.03218,-1.24805 3.32617,-1.24805 z m -40.20508,0.13867 c 1.47884,0 2.77173,0.87864 3.88086,2.63477 1.10913,1.75613 3.09763,5.77743 5.96289,12.0625 2.95769,6.19264 5.40667,12.79973 7.34766,19.82422 1.94096,6.93206 4.06625,15.43711 6.37695,25.51172 0,1.20156 -0.4162,2.17073 -1.24805,2.91015 -0.83185,0.647 -1.84726,0.97071 -3.04883,0.97071 -2.95767,0 -4.80745,-1.2929 -5.54687,-3.88086 l -4.85156,-18.99414 c -8.13363,0 -14.65018,-0.64742 -19.54883,-1.94141 -2.77284,10.16704 -4.34513,17.1903 -4.71485,21.07227 -0.36969,2.31067 -2.03254,3.46679 -4.99023,3.46679 -2.86526,0 -4.29883,-1.20041 -4.29883,-3.60351 0,-5.45324 2.68218,-16.546 8.04297,-33.27539 2.40312,-7.67151 5.08333,-14.04929 8.04102,-19.13282 2.95767,-5.08351 5.82287,-7.625 8.5957,-7.625 z m -78.88867,0.13868 c 9.52004,0 18.67055,4.29876 27.45117,12.89453 8.87305,8.59576 13.31055,17.93125 13.31055,28.00586 0,7.57906 -2.3565,13.30946 -7.07032,17.1914 -4.71379,3.78954 -11.13785,5.6836 -19.27148,5.6836 -1.57127,0 -3.78904,-0.18498 -6.6543,-0.55469 0,1.47884 -0.60117,2.77368 -1.80273,3.88281 -1.20156,1.10913 -2.58888,1.66406 -4.16016,1.66406 -2.40312,0 -3.83473,-1.20234 -4.29687,-3.60547 l -1.24805,-4.99218 c -1.20156,-0.92428 -1.80273,-1.84721 -1.80273,-2.77149 0,-1.0167 0.3237,-1.9416 0.9707,-2.77343 -0.92428,-7.11694 -1.5717,-15.34255 -1.94141,-24.67774 -0.36971,-9.33519 -0.55468,-14.60312 -0.55468,-15.80469 v -4.02148 c 0.0924,-1.47885 0.32366,-3.09544 0.69335,-4.85156 0.647,-3.51226 2.77227,-5.26953 6.37696,-5.26953 z m 3.32812,10.25976 c -0.0924,1.01671 -0.13867,2.77203 -0.13867,5.26758 0,2.49555 0.23122,8.04291 0.69336,16.63867 0.55457,8.50334 1.24823,15.75782 2.08008,21.76563 0.73942,0.18485 3.60462,0.27734 8.5957,0.27734 10.81403,0 16.2207,-3.05018 16.2207,-9.15039 0,-7.76392 -2.49524,-14.69664 -7.48632,-20.79688 -4.89868,-6.10021 -11.55394,-10.76698 -19.96485,-14.00195 z m 75.14453,2.35742 c -3.05009,5.17596 -5.54536,10.95258 -7.48632,17.33008 4.0668,1.10913 8.87232,1.66406 14.41796,1.66406 -1.7561,-6.37749 -4.06637,-12.70905 -6.93164,-18.99414 z"
       id="path3"
       style="" />
  </g>
</svg>
