<?xml version="1.0" encoding="UTF-8" standalone="no"?>
<!-- Created with Inkscape (http://www.inkscape.org/) -->

<svg
   version="1.1"
   id="svg1"
   width="387.99747"
   height="422.79343"
   viewBox="0 0 387.99747 422.79343"
   sodipodi:docname="inkscape-clipboard-import.svg"
   inkscape:export-filename="inkscape-clipboard-import.png"
   inkscape:export-xdpi="96"
   inkscape:export-ydpi="96"
   inkscape:version="1.4 (e7c3feb100, 2024-10-09)"
   xmlns:inkscape="http://www.inkscape.org/namespaces/inkscape"
   xmlns:sodipodi="http://sodipodi.sourceforge.net/DTD/sodipodi-0.dtd"
   xmlns="http://www.w3.org/2000/svg"
   xmlns:svg="http://www.w3.org/2000/svg">
  <defs
     id="defs1" />
  <sodipodi:namedview
     id="namedview1"
     pagecolor="#ffffff"
     bordercolor="#666666"
     borderopacity="1.0"
     inkscape:showpageshadow="2"
     inkscape:pageopacity="0.0"
     inkscape:pagecheckerboard="0"
     inkscape:deskcolor="#d1d1d1"
     inkscape:zoom="1.9420838"
     inkscape:cx="172.49513"
     inkscape:cy="287.32025"
     inkscape:window-width="2560"
     inkscape:window-height="1405"
     inkscape:window-x="1440"
     inkscape:window-y="493"
     inkscape:window-maximized="0"
     inkscape:current-layer="g1" />
  <g
     inkscape:groupmode="layer"
     inkscape:label="Image"
     id="g1"
     transform="translate(571.31587,-243.81475)">
    <path
       style="fill:#000000"
       d="m -557.47166,665.4063 c -7.23558,-2.07563 -13.2993,-5.78953 -13.66827,-8.37152 -0.3347,-2.34224 5.24266,-15.4946 7.29175,-17.1952 0.80464,-0.66779 3.02862,0.18643 7.07509,2.71751 4.80441,3.00518 7.0758,3.76622 12.21786,4.09364 7.24912,0.46147 10.23683,-1.24178 10.23683,-5.83598 0,-3.73282 -2.4058,-5.56504 -12.52184,-9.53642 -11.06706,-4.34475 -15.08473,-7.42236 -18.076,-13.84655 -6.08227,-13.06257 -0.8146,-28.182 11.69343,-33.56281 9.81061,-4.22041 25.81951,-3.51006 36.64279,1.62592 3.08333,1.46314 3.41413,1.9909 2.96684,4.7333 -0.78296,4.80055 -5.42206,14.54067 -7.26178,15.24664 -0.91062,0.34944 -3.73318,-0.37399 -6.27236,-1.60762 -2.53917,-1.23362 -6.93435,-2.48216 -9.76707,-2.77452 -4.34622,-0.44857 -5.48245,-0.1995 -7.2772,1.59525 -1.16974,1.16974 -2.12681,2.5983 -2.12681,3.17456 0,2.13125 5.01397,5.5911 10.67267,7.36459 15.68881,4.917 22.79444,12.0243 24.03459,24.04024 1.17072,11.34319 -5.06239,22.10474 -15.55093,26.84889 -5.82201,2.63339 -23.0678,3.36737 -30.30959,1.28996 z m 137.285,0.39434 c -10.10544,-2.13271 -16.36474,-7.0042 -20.5399,-15.98589 -1.98294,-4.26574 -2.09184,-6.13984 -2.09184,-36 v -31.5 h 10.5 10.5 l 0.5,28.54697 c 0.56255,32.11805 0.73544,32.89466 7.79403,35.00947 5.02857,1.50659 10.73411,-0.70119 12.29619,-4.75807 0.66986,-1.7397 1.08742,-12.8238 1.10371,-29.29837 0.0145,-14.62423 0.44905,-27.29966 0.96974,-28.28439 0.82738,-1.56477 2.19848,-1.74939 11.13992,-1.5 l 10.19641,0.28439 0.26541,29.44109 c 0.21995,24.3983 -0.004,30.36848 -1.3086,34.85549 -2.1595,7.4284 -8.76595,14.42131 -16.31394,17.26827 -6.39456,2.4119 -18.33795,3.32918 -25.01113,1.92092 z m 180.97267,-1.1595 c -4.65549,-1.60244 -8.00629,-3.69262 -12.31562,-7.6823 -9.42917,-8.72975 -12.77393,-17.29171 -12.75248,-32.64397 0.007,-4.95 0.46753,-10.9734 1.02358,-13.38534 2.69759,-11.7011 10.88767,-21.85654 21.72204,-26.9346 5.163,-2.4199 6.83441,-2.68006 17.21807,-2.68006 10.34984,0 12.05008,0.26257 17,2.62539 8.49138,4.0533 13.45237,8.98761 17.72207,17.62676 l 3.77793,7.644 v 14.10373 14.10373 l -3.77871,7.6457 c -6.97443,14.1118 -17.57493,20.74564 -34.22129,21.41587 -7.32726,0.29501 -10.18868,-0.0468 -15.39559,-1.83903 z m 23.45444,-20.86264 c 5.3238,-3.29029 7.8786,-9.81584 7.81592,-19.96363 -0.064,-10.36329 -2.51864,-16.86843 -7.55674,-20.02657 -2.71263,-1.70042 -4.56932,-2.01751 -10.17597,-1.73788 -6.5537,0.32685 -7.02611,0.52231 -10.64847,4.40567 -2.87247,3.07943 -4.08601,5.48699 -5.01055,9.94047 -1.56227,7.52544 -0.62868,16.50943 2.26556,21.80159 4.46177,8.1584 15.04101,10.69102 23.31025,5.58035 z m -273.52367,20.10199 c -0.64662,-1.20822 -1.03518,-13.03193 -1.03518,-31.5 v -29.56574 h -8.3 c -5.12222,0 -8.75944,-0.45944 -9.5,-1.2 -1.61252,-1.61252 -1.61252,-16.98748 0,-18.6 0.87783,-0.87783 8.93883,-1.2 30.02475,-1.2 h 28.82475 l 1.07014,2.75 c 1.43956,3.69935 0.54179,16.21686 -1.24424,17.34817 -0.75647,0.47916 -5.0879,0.8781 -9.6254,0.88652 l -8.25,0.0153 v 30.3 c 0,22.23333 -0.31947,30.61947 -1.2,31.5 -0.76064,0.76064 -4.59218,1.2 -10.46482,1.2 -8.13639,0 -9.39089,-0.23559 -10.3,-1.93426 z m 121.16482,0.73426 c -0.89254,-0.89254 -1.2,-11.24849 -1.2,-40.41821 0,-21.57002 0.27314,-39.93002 0.60699,-40.8 0.52025,-1.35576 3.01393,-1.58179 17.45078,-1.58179 9.26408,0 19.22844,0.49892 22.14301,1.1087 11.0009,2.30162 20.44667,9.27738 25.17473,18.59172 4.39749,8.6631 5.71097,23.06573 3.10975,34.09916 -1.91805,8.13565 -3.66766,11.41202 -9.32243,17.45743 -8.97481,9.5948 -19.26941,12.69825 -42.21283,12.72563 -10.00419,0.0119 -14.92491,-0.35755 -15.75,-1.18264 z m 32.96773,-19.82987 c 4.61023,-1.28049 9.39513,-6.63864 10.90101,-12.207 1.57067,-5.80792 0.70035,-17.52462 -1.65803,-22.32129 -2.44656,-4.97602 -6.88482,-7.49313 -14.41634,-8.17607 l -5.99437,-0.54355 v 22.13889 22.13889 l 3.75,-0.006 c 2.0625,-0.003 5.40048,-0.46399 7.41773,-1.02429 z m 43.03227,19.82987 c -0.8931,-0.8931 -1.2,-11.36996 -1.2,-40.96482 0,-38.29085 0.0717,-39.80318 1.93426,-40.8 2.07756,-1.11188 15.86968,-1.43138 18.48395,-0.42819 1.40661,0.53976 1.58179,5.12398 1.58179,41.39301 0,36.26903 -0.17518,40.85325 -1.58179,41.39301 -2.9288,1.12389 -17.96529,0.65991 -19.21821,-0.59301 z m -140.36065,-92.81072 c -10.62012,-1.6792 -19.61243,-7.6662 -23.72453,-15.79557 -3.56172,-7.04128 -4.11482,-13.38684 -4.11482,-47.20775 0,-38.40694 -1.27116,-34.98596 13,-34.98596 14.21189,0 12.99599,-3.01413 13.02386,32.28518 0.0131,16.61815 0.43956,32.01482 0.94764,34.21482 1.3683,5.92468 4.89799,8.5 11.65001,8.5 6.53885,0 8.83759,-1.05332 10.86814,-4.97998 1.25476,-2.42644 1.51035,-8.3323 1.51035,-34.89893 0,-27.73779 0.20838,-32.18661 1.57143,-33.54966 1.21893,-1.21893 3.81333,-1.57143 11.56574,-1.57143 5.49687,0 10.86473,0.46583 11.92857,1.03518 1.85105,0.99066 1.93426,2.42456 1.93426,33.33322 0,20.28393 -0.42617,34.4201 -1.14569,38.00287 -2.34172,11.66025 -10.65572,20.71047 -22.16578,24.12859 -6.49594,1.92908 -19.50456,2.65072 -26.84918,1.48942 z m 76.16065,-0.0953 c -7.65903,-1.21459 -20.40264,-7.70933 -20.81486,-10.60823 -0.39979,-2.81145 7.17365,-19.10248 9.25103,-19.89965 0.88537,-0.33975 3.71105,0.78326 6.54244,2.60015 11.99515,7.69727 25.76845,7.85404 27.66067,0.31484 1.18204,-4.70966 -1.3961,-7.48567 -10.16729,-10.9476 -4.38459,-1.73057 -9.82852,-3.88949 -12.09762,-4.79761 -5.56016,-2.22525 -11.9617,-7.86728 -14.65169,-12.91335 -3.04187,-5.70614 -3.18627,-20.19725 -0.26009,-26.09958 2.85771,-5.76419 8.8825,-11.13696 15.36316,-13.70052 8.39942,-3.32257 24.79476,-3.28555 35.06801,0.0792 4.06657,1.33189 8.56418,3.42837 9.99468,4.65883 l 2.6009,2.23721 -3.96776,8.13807 c -5.63019,11.54778 -6.12167,11.87627 -12.84635,8.58619 -9.57009,-4.68221 -21.63087,-4.40777 -23.19738,0.52784 -1.34422,4.23529 3.12319,7.75191 14.52215,11.43142 12.72044,4.10608 19.10612,8.63023 23.52361,16.66609 2.56821,4.67183 2.92677,6.32417 2.89319,13.33272 -0.0445,9.28653 -1.52071,13.3955 -6.98599,19.4449 -9.02109,9.98527 -24.05129,13.86375 -42.43081,10.9491 z m 129.58007,0.043 c -8.58265,-1.3158 -17.72183,-5.97681 -24.61941,-12.55598 -9.74738,-9.29743 -13.93692,-20.23385 -13.93692,-36.38107 0,-18.9617 6.58883,-32.43982 20.55918,-42.05584 13.87448,-9.55002 35.63722,-9.91941 53.48896,-0.90788 3.12204,1.57601 5.97673,3.64801 6.34375,4.60446 0.71784,1.87064 -7.90472,17.00362 -10.6892,18.76003 -1.08145,0.68216 -3.26581,0.18153 -7.50114,-1.71918 -11.30123,-5.07169 -24.89649,-3.16519 -30.16212,4.2297 -7.39568,10.38627 -6.76222,27.20847 1.34187,35.63518 7.16829,7.45366 17.86071,8.37696 29.42237,2.54065 3.36356,-1.69786 6.34797,-3.08707 6.63204,-3.08707 1.23278,0 12.54055,15.30775 12.54055,16.97662 0,2.11238 -4.57385,6.25516 -9.91363,8.97932 -8.88298,4.53176 -22.87215,6.61141 -33.5063,4.98111 z m -341.38007,-2.137 c -0.89875,-0.89875 -1.2,-12.8144 -1.2,-47.46482 0,-44.71721 0.0647,-46.29944 1.93426,-47.3 1.06384,-0.56935 7.81384,-1.03518 15,-1.03518 11.25541,0 13.3155,0.24976 14.86832,1.80258 0.99142,0.99142 5.3692,12.22863 9.7284,24.97159 4.3592,12.74296 8.21684,22.84431 8.57252,22.44743 0.35569,-0.39688 4.11704,-11.18921 8.35857,-23.98296 5.36482,-16.18196 8.27407,-23.56224 9.55915,-24.25 2.45252,-1.31255 26.57727,-1.27389 29.04452,0.0465 1.86956,1.00056 1.93426,2.58279 1.93426,47.3 0,34.65042 -0.30125,46.56607 -1.2,47.46482 -1.64034,1.64034 -20.95966,1.64034 -22.6,0 -0.85541,-0.85541 -1.21613,-7.38826 -1.25615,-22.75 l -0.0562,-21.55 -7.46989,21.5 c -4.10845,11.825 -8.21918,22.0625 -9.13498,22.75 -1.96109,1.47222 -12.62138,1.67436 -15.211,0.28843 -1.19977,-0.64209 -4.25114,-8.17674 -9.18426,-22.67843 l -7.38752,-21.71682 -0.5,21.42843 c -0.275,11.78564 -0.86406,21.99093 -1.30902,22.67843 -1.09952,1.69886 -20.79833,1.74265 -22.49098,0.05 z m 270.37143,-0.37143 c -1.38292,-1.38292 -1.57143,-7.07689 -1.57143,-47.46481 0,-53.33843 -1.45674,-47.96376 13,-47.96376 14.46061,0 13,-5.4307 13,48.33518 0,34.65042 -0.30125,46.56607 -1.2,47.46482 -1.92452,1.92452 -21.24151,1.61564 -23.22857,-0.37143 z m -272.36888,-110.626 c -1.25748,-1.25748 -1.64161,-8.49479 -0.59556,-11.22076 0.53128,-1.38449 3.86789,-1.58898 26.75,-1.6394 l 26.14301,-0.0576 -5.21655,-2.37104 c -7.05062,-3.20465 -14.66828,-10.56059 -18.006,-17.38736 -2.34437,-4.79502 -2.75073,-6.88237 -2.75011,-14.12639 7.7e-4,-9.14268 0.46784,-10.38163 9.03095,-23.95576 4.12186,-6.53393 4.20269,-8.18913 0.87126,-17.84115 -2.30572,-6.68027 -2.45211,-7.94056 -1.42142,-12.23699 2.00705,-8.3663 9.05179,-14.81943 19.62671,-17.97847 4.09601,-1.2236 4.14037,-1.28803 4.72392,-6.86141 0.9553,-9.12397 1.05926,-57.64084 0.12673,-59.14969 -0.47074,-0.76168 -1.46054,-5.4555 -2.19956,-10.4307 -0.73901,-4.97521 -1.61434,-10.72902 -1.94518,-12.78626 -0.92206,-5.7336 0.53909,-6.75957 9.62671,-6.75957 8.94109,0 11.69149,1.71871 10.73869,6.71055 -0.29283,1.5342 -1.20649,6.90676 -2.03035,11.93902 -0.82386,5.03226 -1.98707,10.06353 -2.58491,11.1806 -0.75743,1.41527 -0.88791,11.55917 -0.43039,33.45867 l 0.65659,31.42764 5.94668,1.78131 c 15.42136,4.61943 22.04272,16.78131 16.73673,30.74148 -3.05018,8.02511 -2.66947,12.62019 1.52458,18.40154 6.69682,9.23134 8.90571,15.03524 8.8902,23.35919 -0.0244,13.09166 -6.60121,22.95299 -19.66766,29.48987 l -7.01633,3.51013 49.38435,-0.0545 49.38436,-0.0545 -4.8068,-1.95108 c -13.15538,-5.33975 -24.23741,-15.60136 -31.04095,-28.74295 l -4.34943,-8.40127 -7.81539,11.85218 c -7.63716,11.58188 -8.85912,13.98247 -9.97801,19.60218 -0.42088,2.11391 -1.12138,2.75 -3.02847,2.75 -2.3553,0 -2.48095,-0.29292 -2.48095,-5.78386 0,-5.64954 0.24384,-6.15999 10.5,-21.98072 10.47923,-16.16482 10.50003,-16.20926 10.51562,-22.46614 0.009,-3.4481 0.66756,-8.96928 1.46438,-12.26928 0.92812,-3.84377 1.46156,-11.48041 1.48438,-21.25 l 0.0356,-15.25006 h -10.04545 c -9.33222,0 -10.21974,-0.17428 -12.5,-2.45455 -2.32081,-2.3208 -2.45455,-3.07967 -2.45455,-13.92742 0,-16.53988 -1.85809,-15.61803 31.47987,-15.61803 23.71365,0 26.35561,0.16669 27.73721,1.75 1.06518,1.22069 1.6897,4.87336 2.06482,12.0765 0.29577,5.67957 0.73829,10.52703 0.98338,10.77211 0.24509,0.24509 3.32316,-0.23268 6.84017,-1.06171 8.05425,-1.89856 14.49776,-1.90394 23.39418,-0.0195 3.84979,0.81545 7.11229,1.48264 7.25,1.48264 0.1377,0 0.25037,-4.20526 0.25037,-9.34501 0,-7.65166 0.31711,-9.6217 1.75,-10.87194 1.44157,-1.25781 6.54768,-1.62287 28.97147,-2.07135 34.23586,-0.68476 32.27853,-1.54501 32.27853,14.18653 0,9.94712 -0.17348,10.91607 -2.31445,12.92742 -2.07613,1.95042 -3.40717,2.17431 -12.92623,2.17431 h -10.61177 l -0.32662,14.75 c -0.20982,9.47487 0.11719,16.53818 0.91435,19.75 0.68254,2.75 1.24632,8.12581 1.25285,11.94625 0.01,5.66195 0.45501,7.60331 2.40861,10.5 11.23877,16.66418 19.88213,30.99737 20.32018,33.69673 0.84771,5.22387 -0.35835,8.35702 -3.21692,8.35702 -2.4553,0 -2.58236,-0.2319 -3.96132,-7.22975 -0.43519,-2.2085 -16.78827,-27.71639 -17.78868,-27.74717 -0.4125,-0.0127 -0.75,0.59146 -0.75,1.34256 0,3.17376 -7.58556,16.15283 -12.61605,21.58636 -6.11186,6.60154 -12.72106,11.17581 -21.16535,14.64866 l -5.7186,2.35187 41.88817,0.0237 41.88817,0.0237 4.26421,-3.93061 c 3.89599,-3.5912 6.94903,-4.94859 14.72548,-6.547 l 2.76603,-0.56854 -0.41127,-57.22693 c -0.2262,-31.4748 -0.72254,-59.7709 -1.10297,-62.88021 -0.42071,-3.4384 -0.2769,-6.42836 0.36705,-7.6316 0.91127,-1.70272 0.29024,-2.70515 -4.45811,-7.19593 l -5.51687,-5.21763 4.19293,-5.43482 c 2.30611,-2.98915 4.49929,-5.307 4.87373,-5.15077 1.72784,0.72088 31.88511,28.4062 31.95,29.33109 0.0404,0.57588 -1.66989,2.74938 -3.80064,4.83 l -3.87409,3.78295 -3.50792,-3.08 c -4.13396,-3.62966 -5.57307,-3.78882 -9.10904,-1.00742 l -2.63486,2.07265 v 57.79859 57.79859 l 4.82111,0.63954 c 5.02002,0.66593 13.80381,5.4771 14.81619,8.11532 0.48807,1.27189 3.84494,1.5028 21.84724,1.5028 24.71448,0 24.32942,-0.13901 22.90306,8.26826 l -0.8876,5.23174 -191.54745,0.25255 c -148.155,0.19534 -191.81987,-0.0199 -192.75,-0.95 z m 77.79745,-51.30255 c 0,-1.25641 -2.11111,-1.5 -13,-1.5 -10.88889,0 -13,0.24359 -13,1.5 0,1.25641 2.11111,1.5 13,1.5 10.88889,0 13,-0.24359 13,-1.5 z m -5.75,-26.55147 c 3.43964,-3.72742 3.6063,-8.37791 0.4677,-13.05065 -3.68994,-5.49356 -11.28335,-5.29841 -14.74498,0.37896 -2.56188,4.20169 -2.49962,8.7836 0.1654,12.17162 4.19816,5.3371 9.47573,5.52411 14.11188,0.50007 z m 170.75,-29.94853 v -9 h -9.16411 -9.16411 l 4.61798,3.59783 c 2.53989,1.97881 6.49346,6.02881 8.78572,9 2.29226,2.9712 4.33801,5.40217 4.54613,5.40217 0.20811,0 0.37839,-4.05 0.37839,-9 z m -84.54417,-7.13614 3.04417,-1.85638 -9.25,-0.004 -9.25,-0.003 v 8.73612 8.73612 l 6.20583,-6.876 c 3.41321,-3.78179 7.57571,-7.71136 9.25,-8.73238 z m 160.84699,-31.35016 c 0.10845,-0.54247 -0.59032,-1.13797 -1.55282,-1.32333 -1.0946,-0.2108 -1.75,0.27967 -1.75,1.30963 0,1.73979 2.9553,1.75204 3.30282,0.0137 z m -32.58056,-27.78796 c -3.5837,-3.24132 -5.7672,-6.019 -5.75,-7.31471 0.062,-4.67253 9.13827,-13.1455 12.82724,-11.97467 0.97658,0.30996 3.96587,2.78727 6.64287,5.50513 l 4.86727,4.94158 -6.2578,7.05846 c -3.4418,3.88216 -6.32397,7.04755 -6.40482,7.03421 -0.0809,-0.0133 -2.747,-2.37585 -5.92476,-5.25 z M -519.3184,269.81475 c 0,-1.64634 0.51831,-2.06549 2.25,-1.81955 1.2375,0.17575 2.25,0.99455 2.25,1.81955 0,0.825 -1.0125,1.6438 -2.25,1.81955 -1.73169,0.24594 -2.25,-0.17321 -2.25,-1.81955 z m 24.44615,0.91287 c -0.94503,-1.52909 1.1059,-3.29874 2.98663,-2.57704 0.86197,0.33077 1.56722,1.29052 1.56722,2.13279 0,1.74768 -3.53514,2.09255 -4.55385,0.44425 z m -24.36814,-7.31888 c -1.40987,-1.69878 -0.66001,-3.59399 1.42199,-3.59399 2.16523,0 2.88426,2.04431 1.28242,3.64615 -1.2723,1.2723 -1.61062,1.26578 -2.70441,-0.0522 z m 25.09672,-1.26278 c 0.42391,-2.20119 4.32527,-2.49994 4.32527,-0.33121 0,0.825 -1.05253,1.64904 -2.33896,1.83121 -1.81382,0.25684 -2.25979,-0.0799 -1.98631,-1.5 z m -26.73404,-7.42717 c -0.37254,-0.60278 -0.0616,-1.71151 0.69099,-2.46384 1.73476,-1.73419 4.39794,-0.26276 3.54542,1.95888 -0.7028,1.83148 -3.23038,2.13275 -4.23641,0.50496 z m 27.69043,-0.24605 c -1.32112,-1.59185 -0.50464,-2.65799 2.03555,-2.65799 1.16666,0 1.83333,0.72727 1.83333,2 0,2.28027 -2.2105,2.65622 -3.86888,0.65799 z"
       id="path1"
       sodipodi:nodetypes="sssssssssssssssssssssssscccsssssscscssscssssssscccssccsssssssssscsssscssscssssssssssssssscsssccccccssssssssssssssssssssssssssssssssssscssssssssssssssssssssssssssssssssssssssscsssscsssssssssssscsssssssssssssssscssssscccsscssssscsscsssssssssssssssscsscsssssssscccsscsssscsssscsscccsssscsssssssssssssscccssssccccccsccsssssssscsssssssssssssssssssssssssssss" />
  </g>
</svg>
