<?xml version="1.0" encoding="UTF-8" standalone="no"?>
<svg
   id="Layer_1"
   data-name="Layer 1"
   viewBox="0 0 513 128"
   version="1.1"
   sodipodi:docname="pkmdlogo.svg"
   inkscape:version="1.3 (0e150ed6c4, 2023-07-21)"
   xmlns:inkscape="http://www.inkscape.org/namespaces/inkscape"
   xmlns:sodipodi="http://sodipodi.sourceforge.net/DTD/sodipodi-0.dtd"
   xmlns="http://www.w3.org/2000/svg"
   xmlns:svg="http://www.w3.org/2000/svg">
  <sodipodi:namedview
     id="namedview10"
     pagecolor="#ffffff"
     bordercolor="#666666"
     borderopacity="1.0"
     inkscape:showpageshadow="2"
     inkscape:pageopacity="0.0"
     inkscape:pagecheckerboard="0"
     inkscape:deskcolor="#d1d1d1"
     inkscape:zoom="1.4357717"
     inkscape:cx="301.92823"
     inkscape:cy="143.12861"
     inkscape:window-width="2560"
     inkscape:window-height="1380"
     inkscape:window-x="1920"
     inkscape:window-y="32"
     inkscape:window-maximized="0"
     inkscape:current-layer="HOME_1" />
  <defs
     id="defs1">
    <style
       id="style1">.cls-1{fill:#cd271b;}.cls-2{fill:#1e1f20;fill-rule:evenodd;}.cls-3{fill:#b30616;}</style>
  </defs>
  <g
     id="Layer_2"
     data-name="Layer 2">
    <g
       id="HOME_1"
       data-name="HOME 1">
      <g
         id="Texts">
        <path
           d="M182.14,46q-4.53-3.87-14.53-3.88H152.29V85.46H162V73.37h5.76q9.61,0,14.29-3.72T186.7,57.9Q186.7,49.88,182.14,46Zm-7.11,17c-1.15,1.31-3.33,2-6.56,2H162V50.43h5.51c3.19,0,5.53.53,7,1.58s2.26,2.83,2.26,5.33A8.3,8.3,0,0,1,175,63.05Z"
           id="path1" />
        <path
           id="path2"
           d="m 212.91016,41.185547 c -5.4434,0.37476 -10.58878,2.624095 -14.56055,6.365234 -4.34283,4.171959 -6.72786,9.979983 -6.57031,16 -0.16131,6.020706 2.22433,11.830187 6.57031,16 0.94286,0.872073 1.95534,1.665724 3.02734,2.373047 l 4.60743,-7.980469 c -0.19424,-0.181293 -0.38249,-0.368894 -0.56446,-0.5625 -2.47018,-2.68143 -3.80396,-6.21648 -3.7207,-9.861328 -0.0702,-3.647861 1.26151,-7.183685 3.7207,-9.878906 3.53674,-3.931232 9.19426,-5.154352 14.03906,-3.035156 l 4.3418,-7.519531 c -3.42854,-1.486789 -7.16115,-2.138121 -10.89062,-1.900391 z m 15.52539,4.5 -4.63282,8.023437 c 2.42776,2.686759 3.7365,6.200016 3.65821,9.820313 0.0879,3.648558 -1.24634,7.188337 -3.72071,9.871094 l -0.0293,-0.01953 c -3.32679,3.674093 -8.53021,4.998991 -13.20899,3.363282 l -4.40625,7.634765 c 8.45194,3.245396 18.0155,1.369563 24.61524,-4.828125 4.34361,-4.172026 6.73115,-9.97926 6.57812,-16 0.15928,-6.02189 -2.22926,-11.831551 -6.57812,-16 -0.71893,-0.668464 -1.47887,-1.291419 -2.27539,-1.865234 z m 179.1737,-4.445552 c -5.4434,0.37476 -10.58878,2.624095 -14.56055,6.365234 -4.34283,4.171959 -6.72786,9.979983 -6.57031,16 -0.16131,6.020706 2.22433,11.830187 6.57031,16 0.94286,0.872073 1.95534,1.665724 3.02734,2.373047 l 4.60743,-7.980469 c -0.19424,-0.181293 -0.38249,-0.368894 -0.56446,-0.5625 -2.47018,-2.68143 -3.80396,-6.21648 -3.7207,-9.861328 -0.0702,-3.647861 1.26151,-7.183685 3.7207,-9.878906 3.53674,-3.931232 9.19426,-5.154352 14.03906,-3.035156 l 4.3418,-7.519531 c -3.42854,-1.486789 -7.16115,-2.138121 -10.89062,-1.900391 z m 15.52539,4.5 -4.63282,8.023437 c 2.42776,2.686759 3.7365,6.200016 3.65821,9.820313 0.0879,3.648558 -1.24634,7.188337 -3.72071,9.871094 l -0.0293,-0.01953 c -3.32679,3.674093 -8.53021,4.998991 -13.20899,3.363282 l -4.40625,7.634765 c 8.45194,3.245396 18.0155,1.369563 24.61524,-4.828125 4.34361,-4.172026 6.73115,-9.97926 6.57812,-16 0.15928,-6.02189 -2.22926,-11.831551 -6.57812,-16 -0.71893,-0.668464 -3.23801,-1.67271 -2.27539,-1.865234 z"
           sodipodi:nodetypes="ccccccccccccccccccccccccccccccccccccccccccccccsc" />
        <path
           d="M266.24,61.28l17.23-19.16h-12l-16.37,17.8V42.12h-9.67V85.46h9.67V73.18l4.34-4.83,12.71,17.11h11.28q-3-4.14-9-12.62T266.24,61.28Z"
           id="path3" />
        <path
           d="M299.15,76.89v-9h19.4V59.65h-19.4V50.74h21.56V42.12H289.48V85.46H321.4V76.89Z"
           id="path4" />
        <path
           d="M365.48,42.12l-11.2,23.81L343.1,42.12H330V85.46h9.68V58.18l11.65,23.68h5.77l11.71-23.68V85.46h9.67V42.12Z"
           id="path6" />
        <path
           id="path8"
           d="m 453.30273,42.109375 v 8.429687 H 453.75 c 4.91333,0 8.55946,1.151175 10.93945,3.451172 2.38,2.299998 3.56722,5.570551 3.56055,9.810547 0,4.259996 -1.18722,7.501851 -3.56055,9.728516 -2.37999,2.239998 -5.76969,3.351328 -10.17968,3.361328 h -1.20704 v 8.570313 h 0.20704 c 8.26665,-10e-7 14.41784,-1.963963 18.45117,-5.890626 4.03333,-3.926662 6.03333,-9.260006 6,-16 0.0267,-6.733326 -2.03188,-11.989535 -6.17188,-15.769531 -4.13999,-3.793329 -10.07217,-5.691406 -17.79883,-5.691406 z"
           sodipodi:nodetypes="ccsscccccssccsc" />
      </g>
      <rect
         style="fill:#000000;stroke-width:104.005;stroke-linecap:round;stroke-linejoin:round"
         id="rect1"
         width="9.2911482"
         height="43.47876"
         x="438.67804"
         y="42.004108" />
    </g>
  </g>
  <path
     id="path864"
     class="cls-2"
     d="M66.24,78.73c-4.15-3.67-5.55-5.92-6.85-8.92-1.45-3.32-.73-3.28-11.12-3.46-8.74-.16-9.34-.12-10.13.66-1.13,1.14-1.09,2.92.1,7.51A41.36,41.36,0,0,0,64.69,103.1c9.42,3.26,25.42,2.58,34.7-1.47a10.16,10.16,0,0,1,2.52-.89c.33.35-5.83,4.57-8.85,6.06a44.21,44.21,0,0,1-12.66,3.68c-2.29.37-9.08-.2-9.08-.2h0a70,70,0,0,1-7.83-1.83c-13.66-4-23.62-12.76-29.56-25.91-2.8-6.22-3.69-13.43-3.91-17.91s0-5.87.27-5.95c.84-.27.47-.06,13.44.33,4.82.14,14,.11,14.48-.28a7.49,7.49,0,0,0,1.68-2.27c2.43-5,3.12-5.51,6.89-8.63l3.58,4.73c-4.31,3.88-5.66,6.5-5.77,11-.11,4,3.32,8.91,5.56,10.26Z" />
  <path
     id="path877"
     class="cls-2"
     d="M88.6,48c4.15,3.67,5.55,5.92,6.87,8.92,1.44,3.32.72,3.29,11.12,3.46,8.72.16,9.32.12,10.11-.67,1.13-1.13,1.1-2.93-.09-7.52A41.35,41.35,0,0,0,90.15,23.61c-9.43-3.26-25.42-2.58-34.7,1.46a10.44,10.44,0,0,1-2.52.9c-.33-.35,5.83-4.58,8.84-6.06a44.27,44.27,0,0,1,12.67-3.68c2.28-.37,9.08.2,9.08.2h0a69.85,69.85,0,0,1,7.82,1.83C105,22.28,115,31,120.9,44.16a51.9,51.9,0,0,1,3.91,17.91c.21,4.48,0,5.87-.27,5.95-.83.27-.47.07-13.43-.32-4.83-.15-14-.12-14.49.28A7.5,7.5,0,0,0,95,70.25c-2.43,5-3.11,5.51-6.88,8.63l-3.58-4.72c4.3-3.87,5.64-6.48,5.76-11,.11-4-3.32-8.91-5.56-10.27Z" />
  <path
     class="cls-3"
     d="M82.67,58.29c5.51,5.71-.51,14.74-8,11.95a8.88,8.88,0,0,1-2.64-2C65.51,61.17,76,51.35,82.67,58.29Z"
     id="path10" />
</svg>
