<?xml version="1.0" encoding="UTF-8" standalone="no"?>
<svg
   inkscape:version="1.1.2 (0a00cf5339, 2022-02-04, custom)"
   inkscape:export-ydpi="6"
   inkscape:export-xdpi="6"
   inkscape:export-filename="/home/esauvisky/Coding/Pokemod/pokemod-meta/img/logos/PokemodGroupLogo-rev4-32.png"
   sodipodi:docname="pokemod.svg"
   viewBox="0 0 512 512"
   height="512"
   width="512"
   id="svg851"
   version="1.1"
   xmlns:inkscape="http://www.inkscape.org/namespaces/inkscape"
   xmlns:sodipodi="http://sodipodi.sourceforge.net/DTD/sodipodi-0.dtd"
   xmlns="http://www.w3.org/2000/svg"
   xmlns:svg="http://www.w3.org/2000/svg"
   xmlns:rdf="http://www.w3.org/1999/02/22-rdf-syntax-ns#"
   xmlns:cc="http://creativecommons.org/ns#"
   xmlns:dc="http://purl.org/dc/elements/1.1/">
  <metadata
     id="metadata857">
    <rdf:RDF>
      <cc:Work
         rdf:about="">
        <dc:format>image/svg+xml</dc:format>
        <dc:type
           rdf:resource="http://purl.org/dc/dcmitype/StillImage" />
        <dc:title />
      </cc:Work>
    </rdf:RDF>
  </metadata>
  <defs
     id="defs855">
    <linearGradient
       id="linearGradient2916"
       inkscape:swatch="solid">
      <stop
         id="stop2914"
         offset="0"
         style="stop-color:#e9b96e;stop-opacity:1;" />
    </linearGradient>
    <filter
       style="color-interpolation-filters:sRGB"
       inkscape:label="Invert"
       id="filter935"
       x="-0.055718611"
       y="-0.064893103"
       width="1.111542"
       height="1.1137543">
      <feColorMatrix
         type="hueRotate"
         values="180"
         result="color1"
         id="feColorMatrix931" />
      <feColorMatrix
         values="-1 0 0 0 1 0 -1 0 0 1 0 0 -1 0 1 -0.21 -0.72 -0.07 2 0 "
         result="color2"
         id="feColorMatrix933" />
    </filter>
    <filter
       style="color-interpolation-filters:sRGB"
       inkscape:label="Invert"
       id="filter941"
       x="-0.055823413"
       y="-0.048861177"
       width="1.111542"
       height="1.1137543">
      <feColorMatrix
         type="hueRotate"
         values="180"
         result="color1"
         id="feColorMatrix937" />
      <feColorMatrix
         values="-1 0 0 0 1 0 -1 0 0 1 0 0 -1 0 1 -0.21 -0.72 -0.07 2 0 "
         result="color2"
         id="feColorMatrix939" />
    </filter>
    <filter
       style="color-interpolation-filters:sRGB"
       inkscape:label="Invert"
       id="filter947"
       x="-0.26122852"
       y="-0.26122852"
       width="1.522457"
       height="1.522457">
      <feColorMatrix
         type="hueRotate"
         values="180"
         result="color1"
         id="feColorMatrix943" />
      <feColorMatrix
         values="-1 0 0 0 1 0 -1 0 0 1 0 0 -1 0 1 -0.21 -0.72 -0.07 2 0 "
         result="color2"
         id="feColorMatrix945" />
    </filter>
  </defs>
  <sodipodi:namedview
     fit-margin-bottom="0"
     fit-margin-right="0"
     fit-margin-left="0"
     fit-margin-top="0"
     inkscape:current-layer="g857"
     inkscape:window-maximized="0"
     inkscape:window-y="36"
     inkscape:window-x="1282"
     inkscape:cy="242.79872"
     inkscape:cx="208.49603"
     inkscape:zoom="0.93287146"
     showgrid="false"
     id="namedview853"
     inkscape:window-height="1400"
     inkscape:window-width="1274"
     inkscape:pageshadow="2"
     inkscape:pageopacity="0"
     guidetolerance="10"
     gridtolerance="10"
     objecttolerance="10"
     borderopacity="1"
     bordercolor="#666666"
     pagecolor="#ffffff"
     inkscape:document-rotation="0"
     inkscape:pagecheckerboard="0" />
  <g
     transform="translate(37.851572,32.625647)"
     id="g859"
     inkscape:label="Image"
     inkscape:groupmode="layer">
    <g
       transform="matrix(0.87117032,0,0,0.86618315,-4.8714088,1.6300927)"
       id="g857">
      <circle
         style="fill:#ffffff;fill-opacity:1;fill-rule:evenodd;stroke:#ffffff;stroke-width:43.5092;stroke-linecap:square;stroke-linejoin:bevel;stroke-miterlimit:4;stroke-dasharray:none;stroke-opacity:0.352204;paint-order:markers stroke fill;filter:url(#filter947)"
         id="circle875"
         cx="256"
         cy="256"
         r="41.639023"
         transform="matrix(2.4803918,0,0,2.4803918,-378.9803,-378.9803)" />
      <path
         sodipodi:nodetypes="csssssscsscscssssssccscc"
         d="m 197.456,340 c -22.57742,-19.38369 -30.32468,-31.42164 -37.63576,-47.49686 -8.07612,-17.75734 -4.17972,-17.62219 -59.994491,-17.62219 -46.796285,0 -50.017816,0.27405 -54.190723,4.60967 -5.948751,6.18072 -5.655509,15.85782 1.228446,40.53921 19.937143,71.48153 74.426588,128.60902 144.594968,151.59539 50.87332,16.6655 136.58438,11.5147 185.96566,-11.17558 7.00406,-3.2183 13.06368,-5.5096 13.46582,-5.09182 1.80843,1.87894 -30.86749,25.24105 -46.88899,33.52393 -22.03963,11.39416 -44.43855,16.77801 -67.60099,21.04128 -12.19374,2.24438 -48.68535,-0.22499 -48.68535,-0.22499 l -3e-5,9e-5 C 218.66084,508.60776 199.69409,504.51181 185.56623,500.596 111.88782,480.17476 57.646764,434.01984 24.58902,363.617 8.9632756,330.33896 3.47687,291.51432 1.9131666,267.39025 c -1.56370353,-24.12407 -0.513877,-31.68 0.8147939,-32.13968 4.4525954,-1.54049 2.5230443,-0.41 72.1013735,0.44827 25.913356,0.31963 75.070836,-0.7056 77.696056,-2.88106 1.91218,-1.58456 6.06361,-6.48434 8.80701,-12.3872 12.55694,-27.01827 16.17695,-30.05328 36.1236,-47.19958 l 19.61202,25.17222 c -22.74331,21.34258 -29.67406,35.50862 -29.89259,60.04468 -0.18963,21.29067 18.61202,47.74056 30.8712,54.87729 z"
         style="fill:#ffffff;fill-opacity:1;fill-rule:evenodd;stroke:#ffffff;stroke-width:43.50920174;stroke-linecap:square;stroke-linejoin:bevel;stroke-miterlimit:4;stroke-dasharray:none;stroke-opacity:0.35220361;paint-order:markers stroke fill;filter:url(#filter941)"
         id="path864" />
      <path
         inkscape:transform-center-y="-87.856898"
         inkscape:transform-center-x="-58.855175"
         id="path877"
         style="fill:#ffffff;fill-opacity:1;fill-rule:evenodd;stroke:#ffffff;stroke-width:43.50920174;stroke-linecap:square;stroke-linejoin:bevel;stroke-miterlimit:4;stroke-dasharray:none;stroke-opacity:0.35220361;paint-order:markers stroke fill;filter:url(#filter935)"
         d="m 314.54453,172.00316 c 22.57742,19.38369 30.32468,31.42164 37.63576,47.49686 8.07612,17.75734 4.17972,17.62219 59.99449,17.62219 46.79628,0 50.01781,-0.27405 54.19072,-4.60967 5.94875,-6.18072 5.65551,-15.85782 -1.22844,-40.53921 C 445.19991,120.4918 390.71047,63.364308 320.54209,40.377938 c -50.87332,-16.6655 -136.58438,-11.5147 -185.96566,11.17558 -7.00406,3.2183 -13.06368,5.5096 -13.46582,5.09182 -1.80843,-1.87894 30.86749,-25.24105 46.88899,-33.52393 22.03963,-11.39416 44.43855,-16.7780099 67.60099,-21.0412799 12.19374,-2.24437997 48.68535,0.22499 48.68535,0.22499 l 3e-5,-9e-5 c 9.05372,1.0903701 28.02047,5.18632 42.14833,9.1021299 73.67841,20.42124 127.91946,66.57616 160.97721,136.979002 15.62574,33.27804 21.11215,72.10268 22.67585,96.22675 1.5637,24.12407 0.51388,31.68 -0.81479,32.13968 -4.4526,1.54049 -2.52305,0.41 -72.10138,-0.44827 -25.91335,-0.31963 -75.07083,0.7056 -77.69605,2.88106 -1.91218,1.58456 -6.06361,6.48434 -8.80701,12.3872 -12.55694,27.01827 -16.17695,30.05328 -36.1236,47.19958 l -19.61202,-25.17222 c 22.74331,-21.34258 29.67406,-35.50862 29.89259,-60.04468 0.18963,-21.29067 -18.61202,-47.74056 -30.8712,-54.87729 z"
         sodipodi:nodetypes="csssssscsscscssssssccscc" />
    </g>
  </g>
</svg>
