999
"DXF R12 Output" (www.mydxf.blogspot.com)
 0 
SECTION
 2 
HEADER
 9 
$ACADVER
 1 
AC1009
 9 
$EXTMIN
 10 
 0 
 20 
 0 
 9 
$EXTMAX
 10 
 8.5 
 20 
 11 
 0 
ENDSEC
 0 
SECTION
 2 
ENTITIES
0
LINE
8
Layer 1
10
52.372300
20
0.128080
11
51.191983
21
0.384455
0
LINE
8
Layer 1
10
51.191983
20
0.384455
11
50.340370
21
0.730170
0
LINE
8
Layer 1
10
50.340370
20
0.730170
11
49.989972
21
0.930740
0
LINE
8
Layer 1
10
49.989972
20
0.930740
11
49.641151
21
1.537950
0
LINE
8
Layer 1
10
49.641151
20
1.537950
11
49.292331
21
2.145160
0
LINE
8
Layer 1
10
49.292331
20
2.145160
11
49.189445
21
1.952920
0
LINE
8
Layer 1
10
49.189445
20
1.952920
11
48.809714
21
1.589923
0
LINE
8
Layer 1
10
48.809714
20
1.589923
11
48.129873
21
1.187957
0
LINE
8
Layer 1
10
48.129873
20
1.187957
11
46.625135
21
0.650680
0
LINE
8
Layer 1
10
46.625135
20
0.650680
11
46.226104
21
0.595980
0
LINE
8
Layer 1
10
46.226104
20
0.595980
11
45.991381
21
0.749770
0
LINE
8
Layer 1
10
45.991381
20
0.749770
11
45.756657
21
0.903570
0
LINE
8
Layer 1
10
45.756657
20
0.903570
11
45.701417
21
0.816970
0
LINE
8
Layer 1
10
45.701417
20
0.816970
11
45.117069
21
0.622851
0
LINE
8
Layer 1
10
45.117069
20
0.622851
11
44.086667
21
0.530860
0
LINE
8
Layer 1
10
44.086667
20
0.530860
11
43.465100
21
0.530860
0
LINE
8
Layer 1
10
43.465100
20
0.530860
11
43.525440
21
1.013840
0
LINE
8
Layer 1
10
43.525440
20
1.013840
11
43.585780
21
1.496820
0
LINE
8
Layer 1
10
43.585780
20
1.496820
11
43.391684
21
1.897770
0
LINE
8
Layer 1
10
43.391684
20
1.897770
11
43.197588
21
2.298720
0
LINE
8
Layer 1
10
43.197588
20
2.298720
11
42.622769
21
2.825440
0
LINE
8
Layer 1
10
42.622769
20
2.825440
11
42.047951
21
3.352150
0
LINE
8
Layer 1
10
42.047951
20
3.352150
11
41.280485
21
3.746860
0
LINE
8
Layer 1
10
41.280485
20
3.746860
11
39.865424
21
4.329033
0
LINE
8
Layer 1
10
39.865424
20
4.329033
11
38.047065
21
4.688680
0
LINE
8
Layer 1
10
38.047065
20
4.688680
11
35.838444
21
5.136620
0
LINE
8
Layer 1
10
35.838444
20
5.136620
11
35.213594
21
5.476973
0
LINE
8
Layer 1
10
35.213594
20
5.476973
11
34.569535
21
6.025140
0
LINE
8
Layer 1
10
34.569535
20
6.025140
11
33.637035
21
6.779080
0
LINE
8
Layer 1
10
33.637035
20
6.779080
11
33.367123
21
6.918650
0
LINE
8
Layer 1
10
33.367123
20
6.918650
11
33.076084
21
6.864050
0
LINE
8
Layer 1
10
33.076084
20
6.864050
11
32.785046
21
6.809450
0
LINE
8
Layer 1
10
32.785046
20
6.809450
11
32.002689
21
6.224050
0
LINE
8
Layer 1
10
32.002689
20
6.224050
11
30.777819
21
5.430910
0
LINE
8
Layer 1
10
30.777819
20
5.430910
11
30.335310
21
5.223180
0
LINE
8
Layer 1
10
30.335310
20
5.223180
11
29.804300
21
5.223180
0
LINE
8
Layer 1
10
29.804300
20
5.223180
11
29.273300
21
5.223180
0
LINE
8
Layer 1
10
29.273300
20
5.223180
11
29.036111
21
5.377600
0
LINE
8
Layer 1
10
29.036111
20
5.377600
11
28.231144
21
6.039700
0
LINE
8
Layer 1
10
28.231144
20
6.039700
11
27.330768
21
6.686350
0
LINE
8
Layer 1
10
27.330768
20
6.686350
11
26.998170
21
6.825320
0
LINE
8
Layer 1
10
26.998170
20
6.825320
11
26.719707
21
6.765120
0
LINE
8
Layer 1
10
26.719707
20
6.765120
11
26.036667
21
6.501110
0
LINE
8
Layer 1
10
26.036667
20
6.501110
11
25.094625
21
6.158010
0
LINE
8
Layer 1
10
25.094625
20
6.158010
11
24.557158
21
6.018740
0
LINE
8
Layer 1
10
24.557158
20
6.018740
11
23.767400
21
6.018740
0
LINE
8
Layer 1
10
23.767400
20
6.018740
11
22.977600
21
6.018740
0
LINE
8
Layer 1
10
22.977600
20
6.018740
11
22.496902
21
6.161250
0
LINE
8
Layer 1
10
22.496902
20
6.161250
11
21.603950
21
6.524933
0
LINE
8
Layer 1
10
21.603950
20
6.524933
11
20.935061
21
7.026251
0
LINE
8
Layer 1
10
20.935061
20
7.026251
11
20.477497
21
7.678246
0
LINE
8
Layer 1
10
20.477497
20
7.678246
11
20.218522
21
8.493960
0
LINE
8
Layer 1
10
20.218522
20
8.493960
11
20.132452
21
8.967490
0
LINE
8
Layer 1
10
20.132452
20
8.967490
11
20.222262
21
9.225110
0
LINE
8
Layer 1
10
20.222262
20
9.225110
11
20.312072
21
9.482730
0
LINE
8
Layer 1
10
20.312072
20
9.482730
11
20.135906
21
9.606120
0
LINE
8
Layer 1
10
20.135906
20
9.606120
11
19.959742
21
9.729510
0
LINE
8
Layer 1
10
19.959742
20
9.729510
11
19.899982
21
10.507050
0
LINE
8
Layer 1
10
19.899982
20
10.507050
11
19.840222
21
11.284590
0
LINE
8
Layer 1
10
19.840222
20
11.284590
11
19.929362
21
11.904100
0
LINE
8
Layer 1
10
19.929362
20
11.904100
11
20.018502
21
12.523610
0
LINE
8
Layer 1
10
20.018502
20
12.523610
11
19.933212
21
12.553110
0
LINE
8
Layer 1
10
19.933212
20
12.553110
11
19.771684
21
12.869837
0
LINE
8
Layer 1
10
19.771684
20
12.869837
11
19.932163
21
13.536040
0
LINE
8
Layer 1
10
19.932163
20
13.536040
11
21.031019
21
15.616836
0
LINE
8
Layer 1
10
21.031019
20
15.616836
11
22.853536
21
18.195417
0
LINE
8
Layer 1
10
22.853536
20
18.195417
11
25.023472
21
20.671700
0
LINE
8
Layer 1
10
25.023472
20
20.671700
11
26.352802
21
22.005160
0
LINE
8
Layer 1
10
26.352802
20
22.005160
11
27.240895
21
22.593060
0
LINE
8
Layer 1
10
27.240895
20
22.593060
11
28.530220
21
23.349064
0
LINE
8
Layer 1
10
28.530220
20
23.349064
11
29.760115
21
23.824920
0
LINE
8
Layer 1
10
29.760115
20
23.824920
11
30.335376
21
23.997810
0
LINE
8
Layer 1
10
30.335376
20
23.997810
11
31.316089
21
24.047110
0
LINE
8
Layer 1
10
31.316089
20
24.047110
11
32.296800
21
24.096410
0
LINE
8
Layer 1
10
32.296800
20
24.096410
11
32.909120
21
23.989900
0
LINE
8
Layer 1
10
32.909120
20
23.989900
11
34.583460
21
23.538530
0
LINE
8
Layer 1
10
34.583460
20
23.538530
11
36.452733
21
23.056201
0
LINE
8
Layer 1
10
36.452733
20
23.056201
11
38.438968
21
22.743454
0
LINE
8
Layer 1
10
38.438968
20
22.743454
11
40.248333
21
22.633047
0
LINE
8
Layer 1
10
40.248333
20
22.633047
11
41.587000
21
22.757740
0
LINE
8
Layer 1
10
41.587000
20
22.757740
11
41.987037
21
22.858470
0
LINE
8
Layer 1
10
41.987037
20
22.858470
11
42.062217
21
23.056200
0
LINE
8
Layer 1
10
42.062217
20
23.056200
11
42.393539
21
25.414554
0
LINE
8
Layer 1
10
42.393539
20
25.414554
11
42.686606
21
30.102445
0
LINE
8
Layer 1
10
42.686606
20
30.102445
11
42.983857
21
42.746900
0
LINE
8
Layer 1
10
42.983857
20
42.746900
11
42.991157
21
48.101260
0
LINE
8
Layer 1
10
42.991157
20
48.101260
11
42.876405
21
49.119030
0
LINE
8
Layer 1
10
42.876405
20
49.119030
11
42.761655
21
50.136800
0
LINE
8
Layer 1
10
42.761655
20
50.136800
11
42.459732
21
50.756310
0
LINE
8
Layer 1
10
42.459732
20
50.756310
11
42.157810
21
51.375820
0
LINE
8
Layer 1
10
42.157810
20
51.375820
11
41.525273
21
52.083830
0
LINE
8
Layer 1
10
41.525273
20
52.083830
11
36.853093
21
56.900250
0
LINE
8
Layer 1
10
36.853093
20
56.900250
11
32.353685
21
61.527052
0
LINE
8
Layer 1
10
32.353685
20
61.527052
11
29.749067
21
64.408786
0
LINE
8
Layer 1
10
29.749067
20
64.408786
11
28.422297
21
66.293428
0
LINE
8
Layer 1
10
28.422297
20
66.293428
11
27.756433
21
67.928950
0
LINE
8
Layer 1
10
27.756433
20
67.928950
11
27.512621
21
68.722170
0
LINE
8
Layer 1
10
27.512621
20
68.722170
11
27.512886
21
70.403710
0
LINE
8
Layer 1
10
27.512886
20
70.403710
11
27.513152
21
72.085240
0
LINE
8
Layer 1
10
27.513152
20
72.085240
11
27.749466
21
74.165030
0
LINE
8
Layer 1
10
27.749466
20
74.165030
11
28.097774
21
78.323136
0
LINE
8
Layer 1
10
28.097774
20
78.323136
11
28.251036
21
85.095030
0
LINE
8
Layer 1
10
28.251036
20
85.095030
11
28.489997
21
96.629142
0
LINE
8
Layer 1
10
28.489997
20
96.629142
11
28.656293
21
98.509713
0
LINE
8
Layer 1
10
28.656293
20
98.509713
11
28.768991
21
98.854486
0
LINE
8
Layer 1
10
28.768991
20
98.854486
11
28.908185
21
98.945530
0
LINE
8
Layer 1
10
28.908185
20
98.945530
11
29.034100
21
98.945500
0
LINE
8
Layer 1
10
29.034100
20
98.945500
11
29.092350
21
99.587140
0
LINE
8
Layer 1
10
29.092350
20
99.587140
11
29.288125
21
101.335050
0
LINE
8
Layer 1
10
29.288125
20
101.335050
11
29.444779
21
103.149330
0
LINE
8
Layer 1
10
29.444779
20
103.149330
11
29.463909
21
103.857350
0
LINE
8
Layer 1
10
29.463909
20
103.857350
11
29.833250
21
105.335150
0
LINE
8
Layer 1
10
29.833250
20
105.335150
11
30.202591
21
106.812960
0
LINE
8
Layer 1
10
30.202591
20
106.812960
11
30.202600
21
107.257000
0
LINE
8
Layer 1
10
30.202600
20
107.257000
11
30.202600
21
107.701000
0
LINE
8
Layer 1
10
30.202600
20
107.701000
11
30.023274
21
108.180290
0
LINE
8
Layer 1
10
30.023274
20
108.180290
11
29.693792
21
108.916227
0
LINE
8
Layer 1
10
29.693792
20
108.916227
11
28.983302
21
110.041018
0
LINE
8
Layer 1
10
28.983302
20
110.041018
11
24.725234
21
115.937510
0
LINE
8
Layer 1
10
24.725234
20
115.937510
11
18.725079
21
124.276064
0
LINE
8
Layer 1
10
18.725079
20
124.276064
11
14.668200
21
130.407000
0
LINE
8
Layer 1
10
14.668200
20
130.407000
11
11.805318
21
135.116639
0
LINE
8
Layer 1
10
11.805318
20
135.116639
11
9.226818
21
139.783234
0
LINE
8
Layer 1
10
9.226818
20
139.783234
11
6.942574
21
144.382682
0
LINE
8
Layer 1
10
6.942574
20
144.382682
11
4.962460
21
148.890875
0
LINE
8
Layer 1
10
4.962460
20
148.890875
11
3.296350
21
153.283709
0
LINE
8
Layer 1
10
3.296350
20
153.283709
11
1.954119
21
157.537078
0
LINE
8
Layer 1
10
1.954119
20
157.537078
11
0.945641
21
161.626877
0
LINE
8
Layer 1
10
0.945641
20
161.626877
11
0.280790
21
165.529000
0
LINE
8
Layer 1
10
0.280790
20
165.529000
11
0.096531
21
166.958710
0
LINE
8
Layer 1
10
0.096531
20
166.958710
11
0.048251
21
169.177250
0
LINE
8
Layer 1
10
0.048251
20
169.177250
11
-0.000029
21
171.395780
0
LINE
8
Layer 1
10
-0.000029
20
171.395780
11
0.106981
21
172.433700
0
LINE
8
Layer 1
10
0.106981
20
172.433700
11
0.542568
21
174.590045
0
LINE
8
Layer 1
10
0.542568
20
174.590045
11
0.892476
21
175.332974
0
LINE
8
Layer 1
10
0.892476
20
175.332974
11
1.338861
21
175.875880
0
LINE
8
Layer 1
10
1.338861
20
175.875880
11
1.694470
21
176.197151
0
LINE
8
Layer 1
10
1.694470
20
176.197151
11
2.158315
21
176.334898
0
LINE
8
Layer 1
10
2.158315
20
176.334898
11
3.518297
21
176.416330
0
LINE
8
Layer 1
10
3.518297
20
176.416330
11
5.362855
21
176.041360
0
LINE
8
Layer 1
10
5.362855
20
176.041360
11
7.577898
21
175.242963
0
LINE
8
Layer 1
10
7.577898
20
175.242963
11
10.049335
21
174.054118
0
LINE
8
Layer 1
10
10.049335
20
174.054118
11
10.738250
21
173.684842
0
LINE
8
Layer 1
10
10.738250
20
173.684842
11
10.787780
21
173.490869
0
LINE
8
Layer 1
10
10.787780
20
173.490869
11
10.837310
21
173.296894
0
LINE
8
Layer 1
10
10.837310
20
173.296894
11
11.447197
21
172.934567
0
LINE
8
Layer 1
10
11.447197
20
172.934567
11
14.629307
21
170.783425
0
LINE
8
Layer 1
10
14.629307
20
170.783425
11
18.652733
21
167.741649
0
LINE
8
Layer 1
10
18.652733
20
167.741649
11
22.489892
21
164.615532
0
LINE
8
Layer 1
10
22.489892
20
164.615532
11
25.113197
21
162.211367
0
LINE
8
Layer 1
10
25.113197
20
162.211367
11
25.705593
21
161.583397
0
LINE
8
Layer 1
10
25.705593
20
161.583397
11
25.672883
21
161.240370
0
LINE
8
Layer 1
10
25.672883
20
161.240370
11
25.640173
21
160.897343
0
LINE
8
Layer 1
10
25.640173
20
160.897343
11
26.066339
21
160.755793
0
LINE
8
Layer 1
10
26.066339
20
160.755793
11
26.939658
21
160.274560
0
LINE
8
Layer 1
10
26.939658
20
160.274560
11
28.176056
21
159.285369
0
LINE
8
Layer 1
10
28.176056
20
159.285369
11
31.793589
21
155.734453
0
LINE
8
Layer 1
10
31.793589
20
155.734453
11
34.607560
21
152.919409
0
LINE
8
Layer 1
10
34.607560
20
152.919409
11
35.370075
21
152.331822
0
LINE
8
Layer 1
10
35.370075
20
152.331822
11
35.924209
21
152.095953
0
LINE
8
Layer 1
10
35.924209
20
152.095953
11
36.202970
21
152.035963
0
LINE
8
Layer 1
10
36.202970
20
152.035963
11
36.517735
21
152.312331
0
LINE
8
Layer 1
10
36.517735
20
152.312331
11
37.649635
21
153.667071
0
LINE
8
Layer 1
10
37.649635
20
153.667071
11
39.356535
21
155.630451
0
LINE
8
Layer 1
10
39.356535
20
155.630451
11
40.246301
21
156.515469
0
LINE
8
Layer 1
10
40.246301
20
156.515469
11
39.776163
21
156.125969
0
LINE
8
Layer 1
10
39.776163
20
156.125969
11
38.675733
21
155.041819
0
LINE
8
Layer 1
10
38.675733
20
155.041819
11
38.068647
21
154.412708
0
LINE
8
Layer 1
10
38.068647
20
154.412708
11
37.821321
21
154.429114
0
LINE
8
Layer 1
10
37.821321
20
154.429114
11
37.696154
21
154.508344
0
LINE
8
Layer 1
10
37.696154
20
154.508344
11
38.398404
21
155.556154
0
LINE
8
Layer 1
10
38.398404
20
155.556154
11
39.262643
21
157.002224
0
LINE
8
Layer 1
10
39.262643
20
157.002224
11
39.537277
21
157.665987
0
LINE
8
Layer 1
10
39.537277
20
157.665987
11
40.768736
21
159.178525
0
LINE
8
Layer 1
10
40.768736
20
159.178525
11
43.909367
21
162.219497
0
LINE
8
Layer 1
10
43.909367
20
162.219497
11
45.092797
21
163.321437
0
LINE
8
Layer 1
10
45.092797
20
163.321437
11
45.709629
21
164.119562
0
LINE
8
Layer 1
10
45.709629
20
164.119562
11
47.112968
21
166.253952
0
LINE
8
Layer 1
10
47.112968
20
166.253952
11
49.031549
21
169.785652
0
LINE
8
Layer 1
10
49.031549
20
169.785652
11
51.042369
21
173.525459
0
LINE
8
Layer 1
10
51.042369
20
173.525459
11
52.804605
21
176.421216
0
LINE
8
Layer 1
10
52.804605
20
176.421216
11
54.578259
21
178.865590
0
LINE
8
Layer 1
10
54.578259
20
178.865590
11
56.623329
21
181.251252
0
LINE
8
Layer 1
10
56.623329
20
181.251252
11
58.463159
21
183.150891
0
LINE
8
Layer 1
10
58.463159
20
183.150891
11
60.230723
21
184.743404
0
LINE
8
Layer 1
10
60.230723
20
184.743404
11
61.874414
21
185.985904
0
LINE
8
Layer 1
10
61.874414
20
185.985904
11
63.342629
21
186.835502
0
LINE
8
Layer 1
10
63.342629
20
186.835502
11
64.115627
21
187.197741
0
LINE
8
Layer 1
10
64.115627
20
187.197741
11
65.102837
21
187.446098
0
LINE
8
Layer 1
10
65.102837
20
187.446098
11
67.417567
21
187.857445
0
LINE
8
Layer 1
10
67.417567
20
187.857445
11
68.745097
21
188.020436
0
LINE
8
Layer 1
10
68.745097
20
188.020436
11
74.586217
21
188.019466
0
LINE
8
Layer 1
10
74.586217
20
188.019466
11
80.427337
21
188.018497
0
LINE
8
Layer 1
10
80.427337
20
188.018497
11
81.618967
21
187.864183
0
LINE
8
Layer 1
10
81.618967
20
187.864183
11
84.130366
21
187.439185
0
LINE
8
Layer 1
10
84.130366
20
187.439185
11
87.875267
21
186.605183
0
LINE
8
Layer 1
10
87.875267
20
186.605183
11
94.062264
21
185.325639
0
LINE
8
Layer 1
10
94.062264
20
185.325639
11
96.489136
21
185.043043
0
LINE
8
Layer 1
10
96.489136
20
185.043043
11
99.189767
21
184.889673
0
LINE
8
Layer 1
10
99.189767
20
184.889673
11
100.959857
21
184.821633
0
LINE
8
Layer 1
10
100.959857
20
184.821633
11
101.181057
21
184.705053
0
LINE
8
Layer 1
10
101.181057
20
184.705053
11
101.652437
21
184.380368
0
LINE
8
Layer 1
10
101.652437
20
184.380368
11
101.902607
21
184.172262
0
LINE
8
Layer 1
10
101.902607
20
184.172262
11
102.165000
21
184.172000
0
LINE
8
Layer 1
10
102.165000
20
184.172000
11
102.799840
21
184.368109
0
LINE
8
Layer 1
10
102.799840
20
184.368109
11
103.172450
21
184.564218
0
LINE
8
Layer 1
10
103.172450
20
184.564218
11
104.101720
21
184.556618
0
LINE
8
Layer 1
10
104.101720
20
184.556618
11
106.194870
21
184.372769
0
LINE
8
Layer 1
10
106.194870
20
184.372769
11
108.891624
21
183.896668
0
LINE
8
Layer 1
10
108.891624
20
183.896668
11
111.844275
21
183.200464
0
LINE
8
Layer 1
10
111.844275
20
183.200464
11
114.705120
21
182.356308
0
LINE
8
Layer 1
10
114.705120
20
182.356308
11
116.182210
21
181.867012
0
LINE
8
Layer 1
10
116.182210
20
181.867012
11
117.244230
21
181.338470
0
LINE
8
Layer 1
10
117.244230
20
181.338470
11
119.528206
21
179.909627
0
LINE
8
Layer 1
10
119.528206
20
179.909627
11
121.711729
21
177.937809
0
LINE
8
Layer 1
10
121.711729
20
177.937809
11
123.805382
21
175.404778
0
LINE
8
Layer 1
10
123.805382
20
175.404778
11
125.819749
21
172.292299
0
LINE
8
Layer 1
10
125.819749
20
172.292299
11
127.765413
21
168.582135
0
LINE
8
Layer 1
10
127.765413
20
168.582135
11
129.652959
21
164.256050
0
LINE
8
Layer 1
10
129.652959
20
164.256050
11
131.492970
21
159.295807
0
LINE
8
Layer 1
10
131.492970
20
159.295807
11
133.296030
21
153.683170
0
LINE
8
Layer 1
10
133.296030
20
153.683170
11
134.862326
21
148.881531
0
LINE
8
Layer 1
10
134.862326
20
148.881531
11
135.413416
21
147.658214
0
LINE
8
Layer 1
10
135.413416
20
147.658214
11
135.929730
21
146.911540
0
LINE
8
Layer 1
10
135.929730
20
146.911540
11
136.247270
21
146.560064
0
LINE
8
Layer 1
10
136.247270
20
146.560064
11
136.580650
21
146.460184
0
LINE
8
Layer 1
10
136.580650
20
146.460184
11
136.914020
21
146.360304
0
LINE
8
Layer 1
10
136.914020
20
146.360304
11
137.358850
21
146.508053
0
LINE
8
Layer 1
10
137.358850
20
146.508053
11
138.087553
21
146.863909
0
LINE
8
Layer 1
10
138.087553
20
146.863909
11
139.113534
21
147.631635
0
LINE
8
Layer 1
10
139.113534
20
147.631635
11
143.089920
21
151.258613
0
LINE
8
Layer 1
10
143.089920
20
151.258613
11
150.695697
21
158.336240
0
LINE
8
Layer 1
10
150.695697
20
158.336240
11
156.889682
21
163.877951
0
LINE
8
Layer 1
10
156.889682
20
163.877951
11
161.812887
21
168.006418
0
LINE
8
Layer 1
10
161.812887
20
168.006418
11
165.606320
21
170.844313
0
LINE
8
Layer 1
10
165.606320
20
170.844313
11
166.089020
21
171.173455
0
LINE
8
Layer 1
10
166.089020
20
171.173455
11
166.253200
21
171.130525
0
LINE
8
Layer 1
10
166.253200
20
171.130525
11
166.417380
21
171.087595
0
LINE
8
Layer 1
10
166.417380
20
171.087595
11
167.496270
21
171.777595
0
LINE
8
Layer 1
10
167.496270
20
171.777595
11
170.103210
21
173.370421
0
LINE
8
Layer 1
10
170.103210
20
173.370421
11
172.257080
21
174.514916
0
LINE
8
Layer 1
10
172.257080
20
174.514916
11
174.048183
21
175.254204
0
LINE
8
Layer 1
10
174.048183
20
175.254204
11
175.566820
21
175.631405
0
LINE
8
Layer 1
10
175.566820
20
175.631405
11
176.451840
21
175.763315
0
LINE
8
Layer 1
10
176.451840
20
175.763315
11
177.575880
21
175.763846
0
LINE
8
Layer 1
10
177.575880
20
175.763846
11
179.140120
21
175.669956
0
LINE
8
Layer 1
10
179.140120
20
175.669956
11
179.580320
21
175.575546
0
LINE
8
Layer 1
10
179.580320
20
175.575546
11
180.042810
21
175.249568
0
LINE
8
Layer 1
10
180.042810
20
175.249568
11
180.505310
21
174.923591
0
LINE
8
Layer 1
10
180.505310
20
174.923591
11
180.760040
21
174.469564
0
LINE
8
Layer 1
10
180.760040
20
174.469564
11
181.154440
21
173.363294
0
LINE
8
Layer 1
10
181.154440
20
173.363294
11
181.294100
21
172.711050
0
LINE
8
Layer 1
10
181.294100
20
172.711050
11
181.243500
21
170.675510
0
LINE
8
Layer 1
10
181.243500
20
170.675510
11
181.192900
21
168.639970
0
LINE
8
Layer 1
10
181.192900
20
168.639970
11
180.970400
21
166.515930
0
LINE
8
Layer 1
10
180.970400
20
166.515930
11
180.494113
21
163.156369
0
LINE
8
Layer 1
10
180.494113
20
163.156369
11
179.763226
21
159.668114
0
LINE
8
Layer 1
10
179.763226
20
159.668114
11
178.793898
21
156.096187
0
LINE
8
Layer 1
10
178.793898
20
156.096187
11
177.602287
21
152.485610
0
LINE
8
Layer 1
10
177.602287
20
152.485610
11
176.204554
21
148.881404
0
LINE
8
Layer 1
10
176.204554
20
148.881404
11
174.616856
21
145.328591
0
LINE
8
Layer 1
10
174.616856
20
145.328591
11
172.855351
21
141.872193
0
LINE
8
Layer 1
10
172.855351
20
141.872193
11
170.936200
21
138.557230
0
LINE
8
Layer 1
10
170.936200
20
138.557230
11
170.449550
21
137.768551
0
LINE
8
Layer 1
10
170.449550
20
137.768551
11
170.429750
21
137.516719
0
LINE
8
Layer 1
10
170.429750
20
137.516719
11
170.409950
21
137.264887
0
LINE
8
Layer 1
10
170.409950
20
137.264887
11
168.509890
21
134.411317
0
LINE
8
Layer 1
10
168.509890
20
134.411317
11
164.714377
21
128.921275
0
LINE
8
Layer 1
10
164.714377
20
128.921275
11
160.177280
21
122.884617
0
LINE
8
Layer 1
10
160.177280
20
122.884617
11
157.627713
21
119.281853
0
LINE
8
Layer 1
10
157.627713
20
119.281853
11
156.858184
21
117.886139
0
LINE
8
Layer 1
10
156.858184
20
117.886139
11
156.354660
21
116.645247
0
LINE
8
Layer 1
10
156.354660
20
116.645247
11
156.109720
21
115.892987
0
LINE
8
Layer 1
10
156.109720
20
115.892987
11
156.113720
21
114.919467
0
LINE
8
Layer 1
10
156.113720
20
114.919467
11
156.117720
21
113.945947
0
LINE
8
Layer 1
10
156.117720
20
113.945947
11
156.362400
21
113.149427
0
LINE
8
Layer 1
10
156.362400
20
113.149427
11
157.320360
21
108.624967
0
LINE
8
Layer 1
10
157.320360
20
108.624967
11
159.150600
21
96.732327
0
LINE
8
Layer 1
10
159.150600
20
96.732327
11
161.145443
21
84.362611
0
LINE
8
Layer 1
10
161.145443
20
84.362611
11
163.091914
21
74.325452
0
LINE
8
Layer 1
10
163.091914
20
74.325452
11
164.862665
21
67.208530
0
LINE
8
Layer 1
10
164.862665
20
67.208530
11
165.642350
21
64.928809
0
LINE
8
Layer 1
10
165.642350
20
64.928809
11
166.330350
21
63.599527
0
LINE
8
Layer 1
10
166.330350
20
63.599527
11
166.618050
21
63.224747
0
LINE
8
Layer 1
10
166.618050
20
63.224747
11
167.385830
21
63.120187
0
LINE
8
Layer 1
10
167.385830
20
63.120187
11
168.153620
21
63.015617
0
LINE
8
Layer 1
10
168.153620
20
63.015617
11
169.072890
21
62.700187
0
LINE
8
Layer 1
10
169.072890
20
62.700187
11
170.776289
21
62.018127
0
LINE
8
Layer 1
10
170.776289
20
62.018127
11
172.311861
21
61.200662
0
LINE
8
Layer 1
10
172.311861
20
61.200662
11
173.674983
21
60.252579
0
LINE
8
Layer 1
10
173.674983
20
60.252579
11
174.861034
21
59.178666
0
LINE
8
Layer 1
10
174.861034
20
59.178666
11
175.865391
21
57.983709
0
LINE
8
Layer 1
10
175.865391
20
57.983709
11
176.683432
21
56.672497
0
LINE
8
Layer 1
10
176.683432
20
56.672497
11
177.310536
21
55.249818
0
LINE
8
Layer 1
10
177.310536
20
55.249818
11
177.742080
21
53.720457
0
LINE
8
Layer 1
10
177.742080
20
53.720457
11
177.937340
21
52.791187
0
LINE
8
Layer 1
10
177.937340
20
52.791187
11
177.940340
21
51.463667
0
LINE
8
Layer 1
10
177.940340
20
51.463667
11
177.943340
21
50.136137
0
LINE
8
Layer 1
10
177.943340
20
50.136137
11
177.784490
21
49.295367
0
LINE
8
Layer 1
10
177.784490
20
49.295367
11
177.312096
21
47.472807
0
LINE
8
Layer 1
10
177.312096
20
47.472807
11
176.615243
21
45.772304
0
LINE
8
Layer 1
10
176.615243
20
45.772304
11
175.710143
21
44.211837
0
LINE
8
Layer 1
10
175.710143
20
44.211837
11
174.613005
21
42.809388
0
LINE
8
Layer 1
10
174.613005
20
42.809388
11
173.340041
21
41.582936
0
LINE
8
Layer 1
10
173.340041
20
41.582936
11
171.907462
21
40.550462
0
LINE
8
Layer 1
10
171.907462
20
40.550462
11
170.331478
21
39.729946
0
LINE
8
Layer 1
10
170.331478
20
39.729946
11
168.628300
21
39.139367
0
LINE
8
Layer 1
10
168.628300
20
39.139367
11
167.780010
21
38.913207
0
LINE
8
Layer 1
10
167.780010
20
38.913207
11
166.142720
21
38.905207
0
LINE
8
Layer 1
10
166.142720
20
38.905207
11
164.505440
21
38.897207
0
LINE
8
Layer 1
10
164.505440
20
38.897207
11
163.767700
21
39.056307
0
LINE
8
Layer 1
10
163.767700
20
39.056307
11
161.646655
21
39.693250
0
LINE
8
Layer 1
10
161.646655
20
39.693250
11
159.734331
21
40.629056
0
LINE
8
Layer 1
10
159.734331
20
40.629056
11
158.053489
21
41.836176
0
LINE
8
Layer 1
10
158.053489
20
41.836176
11
156.626894
21
43.287058
0
LINE
8
Layer 1
10
156.626894
20
43.287058
11
155.477306
21
44.954153
0
LINE
8
Layer 1
10
155.477306
20
44.954153
11
154.627490
21
46.809910
0
LINE
8
Layer 1
10
154.627490
20
46.809910
11
154.100207
21
48.826778
0
LINE
8
Layer 1
10
154.100207
20
48.826778
11
153.918220
21
50.977207
0
LINE
8
Layer 1
10
153.918220
20
50.977207
11
153.917240
21
52.172457
0
LINE
8
Layer 1
10
153.917240
20
52.172457
11
154.059780
21
53.057257
0
LINE
8
Layer 1
10
154.059780
20
53.057257
11
154.412336
21
54.536284
0
LINE
8
Layer 1
10
154.412336
20
54.536284
11
154.974896
21
55.985940
0
LINE
8
Layer 1
10
154.974896
20
55.985940
11
155.721363
21
57.373202
0
LINE
8
Layer 1
10
155.721363
20
57.373202
11
156.625641
21
58.665048
0
LINE
8
Layer 1
10
156.625641
20
58.665048
11
157.661635
21
59.828455
0
LINE
8
Layer 1
10
157.661635
20
59.828455
11
158.803248
21
60.830401
0
LINE
8
Layer 1
10
158.803248
20
60.830401
11
160.024385
21
61.637862
0
LINE
8
Layer 1
10
160.024385
20
61.637862
11
161.298950
21
62.217817
0
LINE
8
Layer 1
10
161.298950
20
62.217817
11
161.743430
21
62.374347
0
LINE
8
Layer 1
10
161.743430
20
62.374347
11
161.553520
21
62.475997
0
LINE
8
Layer 1
10
161.553520
20
62.475997
11
161.363600
21
62.718637
0
LINE
8
Layer 1
10
161.363600
20
62.718637
11
160.494145
21
64.302288
0
LINE
8
Layer 1
10
160.494145
20
64.302288
11
158.755500
21
66.686737
0
LINE
8
Layer 1
10
158.755500
20
66.686737
11
155.611660
21
70.979077
0
LINE
8
Layer 1
10
155.611660
20
70.979077
11
148.148350
21
81.510777
0
LINE
8
Layer 1
10
148.148350
20
81.510777
11
141.414260
21
90.972367
0
LINE
8
Layer 1
10
141.414260
20
90.972367
11
140.325610
21
92.366277
0
LINE
8
Layer 1
10
140.325610
20
92.366277
11
139.952780
21
92.750497
0
LINE
8
Layer 1
10
139.952780
20
92.750497
11
139.699000
21
92.750600
0
LINE
8
Layer 1
10
139.699000
20
92.750600
11
139.445000
21
92.750600
0
LINE
8
Layer 1
10
139.445000
20
92.750600
11
139.032460
21
92.477340
0
LINE
8
Layer 1
10
139.032460
20
92.477340
11
137.708631
21
91.285715
0
LINE
8
Layer 1
10
137.708631
20
91.285715
11
135.757002
21
89.253429
0
LINE
8
Layer 1
10
135.757002
20
89.253429
11
133.908271
21
87.171521
0
LINE
8
Layer 1
10
133.908271
20
87.171521
11
132.893130
21
85.831030
0
LINE
8
Layer 1
10
132.893130
20
85.831030
11
132.656820
21
85.360700
0
LINE
8
Layer 1
10
132.656820
20
85.360700
11
132.620820
21
84.696940
0
LINE
8
Layer 1
10
132.620820
20
84.696940
11
132.584820
21
84.033180
0
LINE
8
Layer 1
10
132.584820
20
84.033180
11
132.853690
21
81.599380
0
LINE
8
Layer 1
10
132.853690
20
81.599380
11
133.235920
21
77.882300
0
LINE
8
Layer 1
10
133.235920
20
77.882300
11
133.349270
21
76.599030
0
LINE
8
Layer 1
10
133.349270
20
76.599030
11
133.351270
21
73.766970
0
LINE
8
Layer 1
10
133.351270
20
73.766970
11
133.353270
21
70.934920
0
LINE
8
Layer 1
10
133.353270
20
70.934920
11
133.237270
21
70.094150
0
LINE
8
Layer 1
10
133.237270
20
70.094150
11
132.856143
21
68.116520
0
LINE
8
Layer 1
10
132.856143
20
68.116520
11
132.275435
21
66.307623
0
LINE
8
Layer 1
10
132.275435
20
66.307623
11
131.480557
21
64.630489
0
LINE
8
Layer 1
10
131.480557
20
64.630489
11
130.456920
21
63.048150
0
LINE
8
Layer 1
10
130.456920
20
63.048150
11
129.745310
21
62.084740
0
LINE
8
Layer 1
10
129.745310
20
62.084740
11
127.796450
21
60.137700
0
LINE
8
Layer 1
10
127.796450
20
60.137700
11
125.730961
21
58.006771
0
LINE
8
Layer 1
10
125.730961
20
58.006771
11
125.115350
21
57.131260
0
LINE
8
Layer 1
10
125.115350
20
57.131260
11
125.064750
21
56.929650
0
LINE
8
Layer 1
10
125.064750
20
56.929650
11
125.333840
21
56.297300
0
LINE
8
Layer 1
10
125.333840
20
56.297300
11
126.154180
21
54.715270
0
LINE
8
Layer 1
10
126.154180
20
54.715270
11
129.712250
21
48.234220
0
LINE
8
Layer 1
10
129.712250
20
48.234220
11
131.089874
21
45.236102
0
LINE
8
Layer 1
10
131.089874
20
45.236102
11
132.084969
21
42.475884
0
LINE
8
Layer 1
10
132.084969
20
42.475884
11
132.752229
21
39.773833
0
LINE
8
Layer 1
10
132.752229
20
39.773833
11
133.146350
21
36.950220
0
LINE
8
Layer 1
10
133.146350
20
36.950220
11
133.254110
21
35.799690
0
LINE
8
Layer 1
10
133.254110
20
35.799690
11
133.254000
21
33.454400
0
LINE
8
Layer 1
10
133.254000
20
33.454400
11
133.254000
21
31.109100
0
LINE
8
Layer 1
10
133.254000
20
31.109100
11
133.144420
21
30.268340
0
LINE
8
Layer 1
10
133.144420
20
30.268340
11
132.724070
21
27.923040
0
LINE
8
Layer 1
10
132.724070
20
27.923040
11
132.362280
21
25.613810
0
LINE
8
Layer 1
10
132.362280
20
25.613810
11
132.311280
21
24.809110
0
LINE
8
Layer 1
10
132.311280
20
24.809110
11
132.420760
21
24.352760
0
LINE
8
Layer 1
10
132.420760
20
24.352760
11
132.530230
21
23.896410
0
LINE
8
Layer 1
10
132.530230
20
23.896410
11
132.885090
21
23.347380
0
LINE
8
Layer 1
10
132.885090
20
23.347380
11
133.239950
21
22.798350
0
LINE
8
Layer 1
10
133.239950
20
22.798350
11
134.803980
21
21.201110
0
LINE
8
Layer 1
10
134.803980
20
21.201110
11
137.401500
21
18.412781
0
LINE
8
Layer 1
10
137.401500
20
18.412781
11
139.332180
21
15.888190
0
LINE
8
Layer 1
10
139.332180
20
15.888190
11
140.614450
21
14.250910
0
LINE
8
Layer 1
10
140.614450
20
14.250910
11
141.584490
21
13.115280
0
LINE
8
Layer 1
10
141.584490
20
13.115280
11
142.017600
21
12.556310
0
LINE
8
Layer 1
10
142.017600
20
12.556310
11
141.914050
21
12.390510
0
LINE
8
Layer 1
10
141.914050
20
12.390510
11
141.810520
21
12.224710
0
LINE
8
Layer 1
10
141.810520
20
12.224710
11
141.989100
21
11.821000
0
LINE
8
Layer 1
10
141.989100
20
11.821000
11
142.221010
21
10.952740
0
LINE
8
Layer 1
10
142.221010
20
10.952740
11
142.274310
21
10.488200
0
LINE
8
Layer 1
10
142.274310
20
10.488200
11
142.393790
21
10.417400
0
LINE
8
Layer 1
10
142.393790
20
10.417400
11
142.513290
21
10.346600
0
LINE
8
Layer 1
10
142.513290
20
10.346600
11
142.514000
21
9.834470
0
LINE
8
Layer 1
10
142.514000
20
9.834470
11
142.514000
21
9.322360
0
LINE
8
Layer 1
10
142.514000
20
9.322360
11
142.063580
21
8.761140
0
LINE
8
Layer 1
10
142.063580
20
8.761140
11
141.190580
21
7.573980
0
LINE
8
Layer 1
10
141.190580
20
7.573980
11
140.373211
21
6.561385
0
LINE
8
Layer 1
10
140.373211
20
6.561385
11
139.593440
21
5.986070
0
LINE
8
Layer 1
10
139.593440
20
5.986070
11
139.195180
21
5.803580
0
LINE
8
Layer 1
10
139.195180
20
5.803580
11
138.619920
21
5.802690
0
LINE
8
Layer 1
10
138.619920
20
5.802690
11
138.044660
21
5.801810
0
LINE
8
Layer 1
10
138.044660
20
5.801810
11
137.357990
21
6.042930
0
LINE
8
Layer 1
10
137.357990
20
6.042930
11
136.671310
21
6.284040
0
LINE
8
Layer 1
10
136.671310
20
6.284040
11
136.115000
21
6.284040
0
LINE
8
Layer 1
10
136.115000
20
6.284040
11
133.881120
21
6.112240
0
LINE
8
Layer 1
10
133.881120
20
6.112240
11
130.521890
21
5.843310
0
LINE
8
Layer 1
10
130.521890
20
5.843310
11
128.200511
21
5.637454
0
LINE
8
Layer 1
10
128.200511
20
5.637454
11
126.701680
21
5.221710
0
LINE
8
Layer 1
10
126.701680
20
5.221710
11
124.728166
21
4.663946
0
LINE
8
Layer 1
10
124.728166
20
4.663946
11
122.069970
21
4.376730
0
LINE
8
Layer 1
10
122.069970
20
4.376730
11
119.999051
21
4.056938
0
LINE
8
Layer 1
10
119.999051
20
4.056938
11
119.300050
21
3.772000
0
LINE
8
Layer 1
10
119.300050
20
3.772000
11
118.777260
21
3.389280
0
LINE
8
Layer 1
10
118.777260
20
3.389280
11
118.449350
21
3.069820
0
LINE
8
Layer 1
10
118.449350
20
3.069820
11
118.226910
21
2.530760
0
LINE
8
Layer 1
10
118.226910
20
2.530760
11
117.864470
21
1.489090
0
LINE
8
Layer 1
10
117.864470
20
1.489090
11
117.545510
21
0.758950
0
LINE
8
Layer 1
10
117.545510
20
0.758950
11
117.366530
21
0.531430
0
LINE
8
Layer 1
10
117.366530
20
0.531430
11
117.067000
21
0.531430
0
LINE
8
Layer 1
10
117.067000
20
0.531430
11
116.768000
21
0.531430
0
LINE
8
Layer 1
10
116.768000
20
0.531430
11
116.546750
21
0.310180
0
LINE
8
Layer 1
10
116.546750
20
0.310180
11
116.325500
21
0.088920
0
LINE
8
Layer 1
10
116.325500
20
0.088920
11
116.017000
21
0.088920
0
LINE
8
Layer 1
10
116.017000
20
0.088920
11
115.653750
21
0.177420
0
LINE
8
Layer 1
10
115.653750
20
0.177420
11
115.599050
21
0.265920
0
LINE
8
Layer 1
10
115.599050
20
0.265920
11
114.517000
21
0.265920
0
LINE
8
Layer 1
10
114.517000
20
0.265920
11
113.436000
21
0.265920
0
LINE
8
Layer 1
10
113.436000
20
0.265920
11
113.241840
21
0.401910
0
LINE
8
Layer 1
10
113.241840
20
0.401910
11
113.047690
21
0.537900
0
LINE
8
Layer 1
10
113.047690
20
0.537900
11
112.964690
21
0.866540
0
LINE
8
Layer 1
10
112.964690
20
0.866540
11
112.825770
21
1.603620
0
LINE
8
Layer 1
10
112.825770
20
1.603620
11
112.650420
21
2.175330
0
LINE
8
Layer 1
10
112.650420
20
2.175330
11
112.531020
21
2.338610
0
LINE
8
Layer 1
10
112.531020
20
2.338610
11
112.233660
21
2.029780
0
LINE
8
Layer 1
10
112.233660
20
2.029780
11
111.515380
21
1.219960
0
LINE
8
Layer 1
10
111.515380
20
1.219960
11
111.094450
21
0.718980
0
LINE
8
Layer 1
10
111.094450
20
0.718980
11
110.518470
21
0.435430
0
LINE
8
Layer 1
10
110.518470
20
0.435430
11
109.942490
21
0.151870
0
LINE
8
Layer 1
10
109.942490
20
0.151870
11
109.346370
21
0.147870
0
LINE
8
Layer 1
10
109.346370
20
0.147870
11
108.750240
21
0.143870
0
LINE
8
Layer 1
10
108.750240
20
0.143870
11
108.335580
21
0.303540
0
LINE
8
Layer 1
10
108.335580
20
0.303540
11
107.920910
21
0.463220
0
LINE
8
Layer 1
10
107.920910
20
0.463220
11
107.539060
21
0.410120
0
LINE
8
Layer 1
10
107.539060
20
0.410120
11
105.939360
21
0.250690
0
LINE
8
Layer 1
10
105.939360
20
0.250690
11
104.721530
21
0.144320
0
LINE
8
Layer 1
10
104.721530
20
0.144320
11
103.866170
21
0.237020
0
LINE
8
Layer 1
10
103.866170
20
0.237020
11
103.010810
21
0.329720
0
LINE
8
Layer 1
10
103.010810
20
0.329720
11
102.871470
21
0.498010
0
LINE
8
Layer 1
10
102.871470
20
0.498010
11
102.246270
21
0.975250
0
LINE
8
Layer 1
10
102.246270
20
0.975250
11
100.107659
21
2.625864
0
LINE
8
Layer 1
10
100.107659
20
2.625864
11
97.377770
21
5.129190
0
LINE
8
Layer 1
10
97.377770
20
5.129190
11
96.111404
21
6.274725
0
LINE
8
Layer 1
10
96.111404
20
6.274725
11
94.981611
21
6.931691
0
LINE
8
Layer 1
10
94.981611
20
6.931691
11
93.560123
21
7.266587
0
LINE
8
Layer 1
10
93.560123
20
7.266587
11
91.418670
21
7.445910
0
LINE
8
Layer 1
10
91.418670
20
7.445910
11
89.722370
21
7.546650
0
LINE
8
Layer 1
10
89.722370
20
7.546650
11
85.297280
21
7.495750
0
LINE
8
Layer 1
10
85.297280
20
7.495750
11
72.951280
21
7.294020
0
LINE
8
Layer 1
10
72.951280
20
7.294020
11
65.030370
21
7.143170
0
LINE
8
Layer 1
10
65.030370
20
7.143170
11
64.969700
21
7.049770
0
LINE
8
Layer 1
10
64.969700
20
7.049770
11
62.220470
21
3.490920
0
LINE
8
Layer 1
10
62.220470
20
3.490920
11
61.446111
21
2.677950
0
LINE
8
Layer 1
10
61.446111
20
2.677950
11
60.848693
21
2.368110
0
LINE
8
Layer 1
10
60.848693
20
2.368110
11
59.764513
21
1.902490
0
LINE
8
Layer 1
10
59.764513
20
1.902490
11
58.915026
21
1.554569
0
LINE
8
Layer 1
10
58.915026
20
1.554569
11
58.335813
21
1.094230
0
LINE
8
Layer 1
10
58.335813
20
1.094230
11
57.691197
21
0.465570
0
LINE
8
Layer 1
10
57.691197
20
0.465570
11
57.369010
21
0.177940
0
LINE
8
Layer 1
10
57.369010
20
0.177940
11
57.073200
21
0.177940
0
LINE
8
Layer 1
10
57.073200
20
0.177940
11
56.777200
21
0.177940
0
LINE
8
Layer 1
10
56.777200
20
0.177940
11
56.668960
21
0.308370
0
LINE
8
Layer 1
10
56.668960
20
0.308370
11
56.560719
21
0.438780
0
LINE
8
Layer 1
10
56.560719
20
0.438780
11
56.324456
21
0.316610
0
LINE
8
Layer 1
10
56.324456
20
0.316610
11
55.647441
21
0.122733
0
LINE
8
Layer 1
10
55.647441
20
0.122733
11
54.649117
21
0.021430
0
LINE
8
Layer 1
10
54.649117
20
0.021430
11
52.374696
21
0.129120
0
LINE
8
Layer 1
10
52.374696
20
0.129120
11
52.372300
21
0.128080
0
LINE
8
Layer 1
10
119.854800
20
23.428780
11
120.555512
21
24.726085
0
LINE
8
Layer 1
10
120.555512
20
24.726085
11
121.081203
21
26.216409
0
LINE
8
Layer 1
10
121.081203
20
26.216409
11
121.429139
21
27.889851
0
LINE
8
Layer 1
10
121.429139
20
27.889851
11
121.596590
21
29.736510
0
LINE
8
Layer 1
10
121.596590
20
29.736510
11
121.647290
21
31.019780
0
LINE
8
Layer 1
10
121.647290
20
31.019780
11
121.548490
21
32.087180
0
LINE
8
Layer 1
10
121.548490
20
32.087180
11
121.165717
21
34.558403
0
LINE
8
Layer 1
10
121.165717
20
34.558403
11
120.523141
21
37.141810
0
LINE
8
Layer 1
10
120.523141
20
37.141810
11
119.749422
21
39.397782
0
LINE
8
Layer 1
10
119.749422
20
39.397782
11
118.973220
21
40.886700
0
LINE
8
Layer 1
10
118.973220
20
40.886700
11
118.804510
21
41.106930
0
LINE
8
Layer 1
10
118.804510
20
41.106930
11
118.694590
21
40.842450
0
LINE
8
Layer 1
10
118.694590
20
40.842450
11
118.584660
21
40.577970
0
LINE
8
Layer 1
10
118.584660
20
40.577970
11
118.546560
21
38.409680
0
LINE
8
Layer 1
10
118.546560
20
38.409680
11
118.761736
21
29.832330
0
LINE
8
Layer 1
10
118.761736
20
29.832330
11
119.005590
21
25.554755
0
LINE
8
Layer 1
10
119.005590
20
25.554755
11
119.251060
21
23.209480
0
LINE
8
Layer 1
10
119.251060
20
23.209480
11
119.425781
21
22.872484
0
LINE
8
Layer 1
10
119.425781
20
22.872484
11
119.854790
21
23.428760
0
LINE
8
Layer 1
10
119.854790
20
23.428760
11
119.854800
21
23.428780
 0 
ENDSEC
 0 
EOF