<?xml version="1.0" encoding="UTF-8" standalone="no"?>
<!-- Created with Inkscape (http://www.inkscape.org/) -->

<svg
   width="181.29402mm"
   height="188.06621mm"
   viewBox="0 0 181.29402 188.06621"
   version="1.1"
   id="svg5"
   xml:space="preserve"
   inkscape:version="1.2.1 (9c6d41e410, 2022-07-14, custom)"
   sodipodi:docname="a1.svg"
   xmlns:inkscape="http://www.inkscape.org/namespaces/inkscape"
   xmlns:sodipodi="http://sodipodi.sourceforge.net/DTD/sodipodi-0.dtd"
   xmlns="http://www.w3.org/2000/svg"
   xmlns:svg="http://www.w3.org/2000/svg"><sodipodi:namedview
     id="namedview7"
     pagecolor="#ffffff"
     bordercolor="#666666"
     borderopacity="1.0"
     inkscape:showpageshadow="2"
     inkscape:pageopacity="0.0"
     inkscape:pagecheckerboard="0"
     inkscape:deskcolor="#d1d1d1"
     inkscape:document-units="mm"
     showgrid="false"
     inkscape:zoom="0.76765115"
     inkscape:cx="287.23985"
     inkscape:cy="463.10098"
     inkscape:window-width="1594"
     inkscape:window-height="1372"
     inkscape:window-x="2882"
     inkscape:window-y="36"
     inkscape:window-maximized="0"
     inkscape:current-layer="layer1" /><defs
     id="defs2" /><g
     inkscape:label="Layer 1"
     inkscape:groupmode="layer"
     id="layer1"
     transform="translate(-21.318471,-38.725899)"><path
       style="fill:#e6e6e6;fill-opacity:1;stroke-width:0.0885017"
       d="m 73.690763,226.66392 c -0.889213,-0.13899 -1.580993,-0.34398 -2.03193,-0.60209 l -0.350398,-0.20057 -0.348821,-0.60721 -0.34882,-0.60721 -0.102886,0.19224 c -0.222315,0.4154 -1.748442,1.19042 -2.564313,1.30224 l -0.399031,0.0547 -0.234723,-0.15379 -0.234724,-0.1538 -0.05524,0.0866 c -0.08689,0.13617 -0.93312,0.28611 -1.614749,0.28611 h -0.621523 l 0.06034,-0.48298 0.06034,-0.48298 -0.194096,-0.40095 -0.194096,-0.40095 -0.574819,-0.52672 -0.574818,-0.52671 -0.767466,-0.39471 c -1.016354,-0.5227 -1.679345,-0.71582 -3.23342,-0.94182 -2.23745,-0.3254 -2.493031,-0.42362 -3.477526,-1.33646 -0.364422,-0.3379 -0.784047,-0.67717 -0.9325,-0.75394 l -0.269912,-0.13957 -0.291039,0.0546 -0.291038,0.0546 -0.782357,0.5854 c -0.430296,0.32197 -0.981485,0.67888 -1.224865,0.79314 l -0.442509,0.20773 h -0.53101 -0.531011 l -0.237189,-0.15442 c -0.130454,-0.0849 -0.492689,-0.38287 -0.804967,-0.6621 -0.312277,-0.27922 -0.717446,-0.57021 -0.900376,-0.64665 l -0.332598,-0.13897 -0.278463,0.0602 c -0.153155,0.0331 -0.460522,0.1519 -0.68304,0.26401 -0.222517,0.11211 -0.646436,0.2665 -0.942042,0.3431 l -0.537467,0.13927 H 45.085863 44.29606 l -0.480698,-0.14251 c -1.345641,-0.39895 -2.059806,-1.13015 -2.278379,-2.33271 l -0.08607,-0.47353 0.08981,-0.25762 0.08981,-0.25762 -0.176166,-0.12339 -0.176164,-0.12339 -0.05976,-0.77754 -0.05976,-0.77754 0.08914,-0.61951 0.08914,-0.61951 -0.08529,-0.0295 c -0.901889,-0.31196 2.132617,-5.15178 5.090259,-8.11859 l 1.329331,-1.33346 0.888093,-0.5879 c 0.967599,-0.64054 1.630856,-0.96485 2.519224,-1.23186 l 0.575261,-0.17289 0.980713,-0.0493 0.980711,-0.0493 0.61232,0.10651 c 0.336775,0.0586 1.090228,0.26169 1.67434,0.45137 2.2838,0.7416 5.66304,1.11834 7.003538,0.78079 l 0.400037,-0.10073 0.07518,-0.19773 c 0.447919,-1.17812 0.909905,-11.04835 0.92164,-19.6907 l 0.0073,-5.35436 -0.114752,-1.01777 -0.11475,-1.01777 -0.301923,-0.61951 -0.301922,-0.61951 -0.632537,-0.70801 c -0.347896,-0.38941 -2.450375,-2.5568 -4.672177,-4.81642 -7.536601,-7.66488 -8.375247,-8.68165 -9.096659,-11.02869 l -0.243812,-0.79322 2.65e-4,-1.68154 2.66e-4,-1.68153 0.236314,-2.07979 c 0.352262,-3.10025 0.409369,-4.3447 0.50157,-10.92997 0.172078,-12.29033 0.246102,-13.85052 0.657149,-13.85052 h 0.125961 l 0.05825,-0.64164 c 0.03204,-0.3529 0.120135,-1.13946 0.195775,-1.74791 0.07564,-0.60845 0.146134,-1.42487 0.156654,-1.81428 l 0.01913,-0.70802 0.369341,-1.4778 0.369341,-1.47781 v -0.44378 -0.44379 l -0.179326,-0.47929 c -0.373535,-0.99761 -0.63371,-1.37859 -5.298039,-7.75722 C 40.53935,103.32744 38.900119,100.9689 35.986733,96.384786 27.981948,83.78954 22.905279,71.396768 21.59929,61.263278 l -0.184259,-1.429713 -0.04828,-2.218535 -0.04828,-2.218534 0.10701,-1.037925 c 0.181356,-1.759029 0.569583,-2.843833 1.231879,-3.442178 l 0.355609,-0.321271 0.463845,-0.137747 c 1.439553,-0.427501 4.475553,0.45001 7.891018,2.280782 l 0.688915,0.369276 0.04953,0.193973 0.04953,0.193975 0.609887,0.362327 c 3.225232,1.916075 11.434176,8.357297 13.666006,10.723155 l 0.592396,0.62797 -0.03271,0.343027 -0.03271,0.343027 0.426166,0.14155 c 0.928539,0.308411 2.788292,1.938942 5.727249,5.021343 2.670111,2.800431 3.456937,3.493516 4.130621,3.638504 l 0.278761,0.05999 0.314765,-0.276368 c 0.173121,-0.152002 0.682476,-0.761633 1.1319,-1.354736 0.449424,-0.593102 1.21753,-1.476626 1.706901,-1.963385 l 0.889766,-0.885018 -0.470138,0.3895 c -0.258577,0.214225 -0.753768,0.702091 -1.100426,1.084147 -0.671037,0.739559 -0.663055,0.733834 -0.854412,0.612705 l -0.125167,-0.07923 0.70225,-1.047811 c 0.386237,-0.576297 0.775145,-1.227028 0.864239,-1.44607 0.0891,-0.219042 0.212681,-0.517735 0.274634,-0.663763 0.233087,-0.549398 1.593438,-1.966197 4.37209,-4.553512 l 1.183434,-1.101942 0.616832,-0.798125 c 0.839451,-1.086175 1.795477,-2.716836 3.321917,-5.666086 2.962374,-5.723631 4.568524,-8.149343 7.591777,-11.465598 2.478347,-2.718539 4.901602,-4.732449 6.719298,-5.58425 l 0.772998,-0.362239 0.98721,-0.248357 c 0.542965,-0.136596 1.584596,-0.321703 2.314735,-0.411347 l 1.327527,-0.162991 5.841115,9.7e-4 5.841122,9.69e-4 1.19163,0.154314 c 1.49409,0.193482 3.11754,0.520178 6.2563,1.258996 5.4354,1.279409 7.29176,1.560872 11.31448,1.71551 l 1.77009,0.06804 0.2212,0.11658 c 0.12166,0.06412 0.33378,0.210227 0.47138,0.324685 l 0.25017,0.208106 h 0.26224 c 0.14423,0 0.42991,-0.08825 0.63484,-0.196109 l 0.37261,-0.196109 0.92927,0.0076 c 2.23393,0.01823 7.00468,1.008204 10.6034,2.200307 l 1.47709,0.489296 1.06202,0.528542 c 6.23395,3.102488 11.28347,11.802195 16.05182,27.655343 1.3704,4.556115 1.92849,5.991036 2.6337,6.771633 l 0.31754,0.351476 0.33338,0.09988 0.33337,0.09988 0.44483,-0.147749 c 0.88815,-0.294998 1.88065,-1.117696 5.73107,-4.750561 11.14494,-10.515251 18.14903,-16.607696 22.51644,-19.585708 l 0.4827,-0.329142 0.16418,0.04293 0.16418,0.04293 1.07889,-0.69 c 3.8181,-2.441817 6.18721,-3.573102 8.07055,-3.853811 l 0.88502,-0.13191 1.12404,-5.31e-4 c 0.61822,-2.65e-4 1.32213,0.04196 1.56424,0.09389 l 0.4402,0.09441 0.46249,0.325978 0.4625,0.325977 0.25473,0.454027 c 0.14011,0.249715 0.31759,0.747537 0.3944,1.106272 l 0.13966,0.652244 -0.0506,2.035541 -0.0506,2.03554 -0.2225,2.124042 c -0.91627,8.747217 -4.72063,19.347421 -10.03424,27.958715 l -0.48665,0.788679 -0.0198,0.251832 -0.0198,0.251832 -1.90006,2.853565 c -2.6958,4.048652 -4.64803,6.749226 -8.33261,11.526741 -2.21966,2.87806 -3.30498,4.64952 -3.82262,6.23937 l -0.24494,0.75226 0.004,0.97352 0.004,0.97352 0.24468,0.79652 c 0.56524,1.84005 1.05992,4.75281 2.7882,16.41707 2.63544,17.78675 5.48148,30.92056 7.17975,33.13278 l 0.2877,0.37478 0.76778,0.10456 0.76779,0.10457 0.91927,0.31543 c 4.76206,1.63403 7.78326,4.76345 8.66919,8.97973 l 0.19526,0.92927 0.003,1.32752 0.003,1.32753 -0.15885,0.84077 c -0.94603,5.00692 -4.4592,8.90369 -9.15619,10.15596 l -0.84829,0.22616 -1.63729,0.008 -1.63728,0.008 -0.73774,-0.1591 c -5.91418,-1.27554 -9.84481,-6.03283 -9.84948,-11.92091 l -9.8e-4,-1.19525 0.14254,-0.8848 c 0.63695,-3.95388 3.79229,-7.94671 7.23917,-9.16056 l 0.44448,-0.15653 -0.18991,-0.10165 c -0.10445,-0.0559 -0.18992,-0.16509 -0.18992,-0.24264 0,-0.34775 -1.44918,-2.55262 -2.6081,-3.9681 -0.91705,-1.12006 -1.3586,-1.72293 -3.14384,-4.29234 -0.79477,-1.14388 -4.15327,-5.88315 -7.46331,-10.53171 -3.31006,-4.64855 -6.34039,-8.90627 -6.73409,-9.46159 -0.3937,-0.55533 -0.88359,-1.18258 -1.08865,-1.39391 l -0.37283,-0.38422 h -0.25363 -0.25363 l -0.41254,0.27326 c -1.02182,0.67682 -5.66629,5.70484 -6.13933,6.64631 l -0.23631,0.47033 -0.036,0.66376 -0.036,0.66376 0.26887,2.4338 c 0.14789,1.33859 0.31989,3.01127 0.38223,3.71708 l 0.11335,1.28327 0.002,2.83206 0.002,2.83205 -0.116,0.84077 c -0.3816,2.76576 -1.25651,4.98298 -2.78035,7.046 l -0.71161,0.96341 -1.94886,1.94704 c -2.01943,2.01755 -2.59484,2.66278 -2.6811,3.00644 l -0.0506,0.20161 0.26909,0.63235 c 0.14799,0.34778 0.51715,1.0597 0.82034,1.58203 1.91401,3.29744 2.50957,4.38225 3.55807,6.48105 2.11616,4.23597 3.06639,7.35826 3.4341,11.28397 l 0.10776,1.15053 v 2.34529 2.3453 l -0.10958,0.84076 c -0.0603,0.46243 -0.24943,1.51781 -0.42035,2.3453 -0.17092,0.82749 -0.33373,1.86664 -0.36179,2.30923 l -0.051,0.8047 0.10948,0.45635 0.10947,0.45635 0.35486,0.54903 0.35486,0.54903 1.56403,1.59724 c 2.27384,2.32212 3.14348,3.34245 4.5282,5.31292 0.40994,0.58334 0.98696,1.32012 1.28227,1.63728 0.2953,0.31716 0.73182,0.82819 0.97004,1.13563 l 0.43311,0.55897 -0.10355,0.1658 -0.10353,0.1658 0.17858,0.40371 c 0.0982,0.22204 0.20258,0.61275 0.23191,0.86826 l 0.0533,0.46454 0.11948,0.0708 0.1195,0.0708 v 0.51211 0.51211 l -0.45042,0.56122 c -0.24772,0.30868 -0.64058,0.8429 -0.873,1.18716 -0.54749,0.81092 -1.09978,1.36003 -1.59714,1.58791 l -0.39826,0.18249 -0.57526,8.9e-4 -0.57526,8.8e-4 -0.68667,-0.24112 -0.68668,-0.24111 h -0.55619 c -0.30591,0 -1.31116,0.0773 -2.23388,0.1718 -0.92273,0.0945 -2.43439,0.21551 -3.35923,0.26893 -2.18335,0.12611 -2.73359,0.21564 -3.82021,0.6216 -1.37914,0.51524 -2.33966,0.69047 -4.63171,0.84498 -1.72778,0.11647 -2.6971,0.40716 -3.29271,0.98745 l -0.32791,0.31946 -0.22244,0.53906 c -0.12235,0.29648 -0.28545,0.76523 -0.36244,1.04167 -0.077,0.27643 -0.22053,0.605 -0.31896,0.73014 l -0.17898,0.22752 h -0.2993 -0.29932 l -0.22125,0.22125 -0.22125,0.22126 h -0.30856 c -0.16971,0 -0.33317,-0.0398 -0.36325,-0.0885 l -0.0547,-0.0885 h -1.08136 -1.08135 l -0.19416,-0.13599 -0.19415,-0.13599 -0.083,-0.32864 c -0.0456,-0.18076 -0.10813,-0.51244 -0.13892,-0.73708 -0.0308,-0.22463 -0.10969,-0.48191 -0.17535,-0.57171 l -0.1194,-0.16328 -0.29736,0.30883 c -0.16354,0.16985 -0.48678,0.53427 -0.71828,0.80982 l -0.42093,0.50098 -0.57598,0.28355 -0.57598,0.28356 -0.59612,0.004 -0.59613,0.004 -0.41466,-0.15967 -0.41467,-0.15968 -0.38185,0.0531 c -0.21002,0.0292 -0.92988,0.10092 -1.5997,0.15943 l -1.21783,0.10637 -0.85536,-0.0927 -0.85536,-0.0927 -0.13934,-0.16829 c -0.0766,-0.0926 -0.35797,-0.30732 -0.6252,-0.47724 -1.06808,-0.67917 -3.01205,-2.33782 -4.8685,-4.15394 -1.96988,-1.92709 -2.43351,-2.10734 -5.9591,-2.31672 l -1.6963,-0.10074 -4.42509,0.0509 c -2.4338,0.028 -7.989499,0.11877 -12.345997,0.20173 l -7.920906,0.15085 -0.06067,0.0934 c -0.591754,0.9113 -2.155301,2.9353 -2.749228,3.55885 l -0.774359,0.81297 -0.597418,0.30984 c -0.328581,0.17041 -0.816461,0.37994 -1.084179,0.46562 -0.719926,0.2304 -1.069142,0.42797 -1.428702,0.80826 -0.177337,0.18757 -0.467415,0.47046 -0.644616,0.62866 l -0.322187,0.28763 h -0.29594 -0.295941 l -0.10824,-0.13043 -0.108241,-0.13041 -0.236263,0.12217 c -0.612243,0.3166 -2.538737,0.40805 -3.949765,0.18749 z m 67.482487,-23.30067 c 1.04975,-1.59666 1.64006,-3.73444 1.74179,-6.30773 l 0.0507,-1.28327 -0.0988,-1.0674 c -0.27998,-3.02479 -1.59586,-7.52105 -2.57527,-8.79952 l -0.16871,-0.22023 -0.10992,0.26448 -0.10993,0.26448 -0.0381,2.16829 c -0.0669,3.8032 0.40587,14.00296 0.7045,15.20018 0.12212,0.48959 0.14256,0.48216 0.60373,-0.21928 z"
       id="path302" /></g></svg>
