999
"DXF R12 Output" (www.mydxf.blogspot.com)
 0 
SECTION
 2 
HEADER
 9 
$ACADVER
 1 
AC1009
 9 
$EXTMIN
 10 
 0 
 20 
 0 
 9 
$EXTMAX
 10 
 8.5 
 20 
 11 
 0 
ENDSEC
 0 
SECTION
 2 
ENTITIES
0
LINE
8
Layer 1
10
115.793000
20
0.034300
11
115.638130
21
0.076500
0
LINE
8
Layer 1
10
115.638130
20
0.076500
11
115.638000
21
0.236360
0
LINE
8
Layer 1
10
115.638000
20
0.236360
11
115.638000
21
0.396210
0
LINE
8
Layer 1
10
115.638000
20
0.396210
11
116.033850
21
0.720580
0
LINE
8
Layer 1
10
116.033850
20
0.720580
11
116.429710
21
1.044950
0
LINE
8
Layer 1
10
116.429710
20
1.044950
11
116.785340
21
1.803850
0
LINE
8
Layer 1
10
116.785340
20
1.803850
11
117.934770
21
3.946070
0
LINE
8
Layer 1
10
117.934770
20
3.946070
11
118.798483
21
5.559515
0
LINE
8
Layer 1
10
118.798483
20
5.559515
11
119.319241
21
6.929580
0
LINE
8
Layer 1
10
119.319241
20
6.929580
11
119.609759
21
8.459117
0
LINE
8
Layer 1
10
119.609759
20
8.459117
11
119.782750
21
10.550980
0
LINE
8
Layer 1
10
119.782750
20
10.550980
11
119.857750
21
11.790000
0
LINE
8
Layer 1
10
119.857750
20
11.790000
11
120.009780
21
12.083140
0
LINE
8
Layer 1
10
120.009780
20
12.083140
11
120.161810
21
12.376270
0
LINE
8
Layer 1
10
120.161810
20
12.376270
11
120.309340
21
12.347870
0
LINE
8
Layer 1
10
120.309340
20
12.347870
11
120.580514
21
12.051050
0
LINE
8
Layer 1
10
120.580514
20
12.051050
11
120.681280
21
11.363600
0
LINE
8
Layer 1
10
120.681280
20
11.363600
11
120.795650
21
9.841780
0
LINE
8
Layer 1
10
120.795650
20
9.841780
11
121.087789
21
8.385426
0
LINE
8
Layer 1
10
121.087789
20
8.385426
11
121.492494
21
7.238187
0
LINE
8
Layer 1
10
121.492494
20
7.238187
11
121.944560
21
6.643710
0
LINE
8
Layer 1
10
121.944560
20
6.643710
11
122.231360
21
6.494070
0
LINE
8
Layer 1
10
122.231360
20
6.494070
11
122.895120
21
6.498070
0
LINE
8
Layer 1
10
122.895120
20
6.498070
11
124.165427
21
6.663011
0
LINE
8
Layer 1
10
124.165427
20
6.663011
11
125.505920
21
7.185050
0
LINE
8
Layer 1
10
125.505920
20
7.185050
11
126.302440
21
7.579970
0
LINE
8
Layer 1
10
126.302440
20
7.579970
11
126.831890
21
8.037160
0
LINE
8
Layer 1
10
126.831890
20
8.037160
11
127.569470
21
8.630720
0
LINE
8
Layer 1
10
127.569470
20
8.630720
11
127.777590
21
8.767090
0
LINE
8
Layer 1
10
127.777590
20
8.767090
11
127.734490
21
8.951170
0
LINE
8
Layer 1
10
127.734490
20
8.951170
11
127.273420
21
10.142580
0
LINE
8
Layer 1
10
127.273420
20
10.142580
11
126.855390
21
11.149910
0
LINE
8
Layer 1
10
126.855390
20
11.149910
11
126.816690
21
11.691360
0
LINE
8
Layer 1
10
126.816690
20
11.691360
11
126.777990
21
12.232800
0
LINE
8
Layer 1
10
126.777990
20
12.232800
11
126.938450
21
12.540800
0
LINE
8
Layer 1
10
126.938450
20
12.540800
11
127.408660
21
13.058210
0
LINE
8
Layer 1
10
127.408660
20
13.058210
11
127.718410
21
13.267640
0
LINE
8
Layer 1
10
127.718410
20
13.267640
11
128.362780
21
13.227940
0
LINE
8
Layer 1
10
128.362780
20
13.227940
11
129.007140
21
13.188240
0
LINE
8
Layer 1
10
129.007140
20
13.188240
11
129.778800
21
12.807600
0
LINE
8
Layer 1
10
129.778800
20
12.807600
11
130.550470
21
12.426950
0
LINE
8
Layer 1
10
130.550470
20
12.426950
11
131.264460
21
11.710330
0
LINE
8
Layer 1
10
131.264460
20
11.710330
11
132.302850
21
10.453610
0
LINE
8
Layer 1
10
132.302850
20
10.453610
11
132.627250
21
9.913500
0
LINE
8
Layer 1
10
132.627250
20
9.913500
11
132.766620
21
9.347340
0
LINE
8
Layer 1
10
132.766620
20
9.347340
11
132.940130
21
8.676340
0
LINE
8
Layer 1
10
132.940130
20
8.676340
11
132.974230
21
8.571520
0
LINE
8
Layer 1
10
132.974230
20
8.571520
11
133.233280
21
8.669320
0
LINE
8
Layer 1
10
133.233280
20
8.669320
11
133.492330
21
8.767120
0
LINE
8
Layer 1
10
133.492330
20
8.767120
11
134.029250
21
8.566320
0
LINE
8
Layer 1
10
134.029250
20
8.566320
11
134.566180
21
8.365520
0
LINE
8
Layer 1
10
134.566180
20
8.365520
11
134.925270
21
8.426220
0
LINE
8
Layer 1
10
134.925270
20
8.426220
11
135.310130
21
8.580697
0
LINE
8
Layer 1
10
135.310130
20
8.580697
11
134.938870
21
8.874150
0
LINE
8
Layer 1
10
134.938870
20
8.874150
11
134.208981
21
9.515352
0
LINE
8
Layer 1
10
134.208981
20
9.515352
11
133.615606
21
10.504366
0
LINE
8
Layer 1
10
133.615606
20
10.504366
11
133.217818
21
11.710372
0
LINE
8
Layer 1
10
133.217818
20
11.710372
11
133.074690
21
13.002550
0
LINE
8
Layer 1
10
133.074690
20
13.002550
11
133.076690
21
13.648840
0
LINE
8
Layer 1
10
133.076690
20
13.648840
11
133.240600
21
14.002850
0
LINE
8
Layer 1
10
133.240600
20
14.002850
11
133.532671
21
14.478241
0
LINE
8
Layer 1
10
133.532671
20
14.478241
11
133.912281
21
14.792948
0
LINE
8
Layer 1
10
133.912281
20
14.792948
11
134.415703
21
14.967048
0
LINE
8
Layer 1
10
134.415703
20
14.967048
11
135.079210
21
15.020620
0
LINE
8
Layer 1
10
135.079210
20
15.020620
11
135.747000
21
15.020600
0
LINE
8
Layer 1
10
135.747000
20
15.020600
11
136.286580
21
14.880780
0
LINE
8
Layer 1
10
136.286580
20
14.880780
11
137.796840
21
14.297500
0
LINE
8
Layer 1
10
137.796840
20
14.297500
11
139.077480
21
13.803750
0
LINE
8
Layer 1
10
139.077480
20
13.803750
11
139.387410
21
13.753450
0
LINE
8
Layer 1
10
139.387410
20
13.753450
11
139.010320
21
14.453400
0
LINE
8
Layer 1
10
139.010320
20
14.453400
11
137.751605
21
16.433748
0
LINE
8
Layer 1
10
137.751605
20
16.433748
11
136.112381
21
18.458016
0
LINE
8
Layer 1
10
136.112381
20
18.458016
11
134.193701
21
20.413182
0
LINE
8
Layer 1
10
134.193701
20
20.413182
11
132.096620
21
22.186220
0
LINE
8
Layer 1
10
132.096620
20
22.186220
11
130.963640
21
23.101110
0
LINE
8
Layer 1
10
130.963640
20
23.101110
11
130.851540
21
23.236180
0
LINE
8
Layer 1
10
130.851540
20
23.236180
11
131.207290
21
24.549110
0
LINE
8
Layer 1
10
131.207290
20
24.549110
11
131.941341
21
27.809130
0
LINE
8
Layer 1
10
131.941341
20
27.809130
11
132.407560
21
31.341250
0
LINE
8
Layer 1
10
132.407560
20
31.341250
11
132.542240
21
32.749360
0
LINE
8
Layer 1
10
132.542240
20
32.749360
11
132.542000
21
34.571600
0
LINE
8
Layer 1
10
132.542000
20
34.571600
11
132.364182
21
37.675141
0
LINE
8
Layer 1
10
132.364182
20
37.675141
11
131.463230
21
41.261390
0
LINE
8
Layer 1
10
131.463230
20
41.261390
11
130.518181
21
44.091840
0
LINE
8
Layer 1
10
130.518181
20
44.091840
11
129.289575
21
46.997946
0
LINE
8
Layer 1
10
129.289575
20
46.997946
11
127.700752
21
50.144400
0
LINE
8
Layer 1
10
127.700752
20
50.144400
11
125.675050
21
53.695890
0
LINE
8
Layer 1
10
125.675050
20
53.695890
11
124.499055
21
55.562444
0
LINE
8
Layer 1
10
124.499055
20
55.562444
11
123.928940
21
56.158340
0
LINE
8
Layer 1
10
123.928940
20
56.158340
11
123.774090
21
56.188140
0
LINE
8
Layer 1
10
123.774090
20
56.188140
11
123.222470
21
55.672140
0
LINE
8
Layer 1
10
123.222470
20
55.672140
11
122.228914
21
54.869067
0
LINE
8
Layer 1
10
122.228914
20
54.869067
11
121.383790
21
54.388090
0
LINE
8
Layer 1
10
121.383790
20
54.388090
11
121.110240
21
54.292690
0
LINE
8
Layer 1
10
121.110240
20
54.292690
11
120.970550
21
54.432390
0
LINE
8
Layer 1
10
120.970550
20
54.432390
11
120.830850
21
54.572090
0
LINE
8
Layer 1
10
120.830850
20
54.572090
11
121.371120
21
55.395110
0
LINE
8
Layer 1
10
121.371120
20
55.395110
11
122.119133
21
56.648769
0
LINE
8
Layer 1
10
122.119133
20
56.648769
11
122.416170
21
57.483320
0
LINE
8
Layer 1
10
122.416170
20
57.483320
11
122.475170
21
57.852560
0
LINE
8
Layer 1
10
122.475170
20
57.852560
11
122.238240
21
58.336830
0
LINE
8
Layer 1
10
122.238240
20
58.336830
11
122.001310
21
58.821100
0
LINE
8
Layer 1
10
122.001310
20
58.821100
11
120.887740
21
59.997660
0
LINE
8
Layer 1
10
120.887740
20
59.997660
11
119.503036
21
61.582055
0
LINE
8
Layer 1
10
119.503036
20
61.582055
11
118.504178
21
63.035891
0
LINE
8
Layer 1
10
118.504178
20
63.035891
11
117.813655
21
64.492714
0
LINE
8
Layer 1
10
117.813655
20
64.492714
11
117.353960
21
66.086070
0
LINE
8
Layer 1
10
117.353960
20
66.086070
11
117.190760
21
66.838340
0
LINE
8
Layer 1
10
117.190760
20
66.838340
11
117.189760
21
68.298620
0
LINE
8
Layer 1
10
117.189760
20
68.298620
11
117.188760
21
69.758900
0
LINE
8
Layer 1
10
117.188760
20
69.758900
11
117.349130
21
70.511160
0
LINE
8
Layer 1
10
117.349130
20
70.511160
11
117.864209
21
72.272264
0
LINE
8
Layer 1
10
117.864209
20
72.272264
11
118.619520
21
73.955411
0
LINE
8
Layer 1
10
118.619520
20
73.955411
11
119.571088
21
75.512333
0
LINE
8
Layer 1
10
119.571088
20
75.512333
11
120.674941
21
76.894766
0
LINE
8
Layer 1
10
120.674941
20
76.894766
11
121.887106
21
78.054444
0
LINE
8
Layer 1
10
121.887106
20
78.054444
11
123.163610
21
78.943101
0
LINE
8
Layer 1
10
123.163610
20
78.943101
11
124.460479
21
79.512472
0
LINE
8
Layer 1
10
124.460479
20
79.512472
11
125.733740
21
79.714290
0
LINE
8
Layer 1
10
125.733740
20
79.714290
11
126.403560
21
79.715290
0
LINE
8
Layer 1
10
126.403560
20
79.715290
11
126.884260
21
79.574100
0
LINE
8
Layer 1
10
126.884260
20
79.574100
11
127.893880
21
79.153710
0
LINE
8
Layer 1
10
127.893880
20
79.153710
11
128.422810
21
78.874530
0
LINE
8
Layer 1
10
128.422810
20
78.874530
11
129.102480
21
78.203750
0
LINE
8
Layer 1
10
129.102480
20
78.203750
11
129.782160
21
77.532990
0
LINE
8
Layer 1
10
129.782160
20
77.532990
11
130.330730
21
76.699220
0
LINE
8
Layer 1
10
130.330730
20
76.699220
11
131.269180
21
75.091080
0
LINE
8
Layer 1
10
131.269180
20
75.091080
11
131.685721
21
74.506824
0
LINE
8
Layer 1
10
131.685721
20
74.506824
11
131.802342
21
74.630038
0
LINE
8
Layer 1
10
131.802342
20
74.630038
11
131.859787
21
75.071648
0
LINE
8
Layer 1
10
131.859787
20
75.071648
11
131.526680
21
80.644560
0
LINE
8
Layer 1
10
131.526680
20
80.644560
11
131.220510
21
85.056310
0
LINE
8
Layer 1
10
131.220510
20
85.056310
11
131.138910
21
86.813020
0
LINE
8
Layer 1
10
131.138910
20
86.813020
11
131.227310
21
87.357360
0
LINE
8
Layer 1
10
131.227310
20
87.357360
11
131.315610
21
87.901700
0
LINE
8
Layer 1
10
131.315610
20
87.901700
11
131.220710
21
89.273480
0
LINE
8
Layer 1
10
131.220710
20
89.273480
11
131.035140
21
92.105540
0
LINE
8
Layer 1
10
131.035140
20
92.105540
11
130.772845
21
94.868609
0
LINE
8
Layer 1
10
130.772845
20
94.868609
11
130.331209
21
97.292741
0
LINE
8
Layer 1
10
130.331209
20
97.292741
11
129.671928
21
99.540475
0
LINE
8
Layer 1
10
129.671928
20
99.540475
11
128.756700
21
101.774350
0
LINE
8
Layer 1
10
128.756700
20
101.774350
11
128.357250
21
102.637240
0
LINE
8
Layer 1
10
128.357250
20
102.637240
11
127.982000
21
102.637000
0
LINE
8
Layer 1
10
127.982000
20
102.637000
11
127.607000
21
102.637000
0
LINE
8
Layer 1
10
127.607000
20
102.637000
11
127.307430
21
102.968890
0
LINE
8
Layer 1
10
127.307430
20
102.968890
11
126.044130
21
104.893800
0
LINE
8
Layer 1
10
126.044130
20
104.893800
11
122.825106
21
109.800495
0
LINE
8
Layer 1
10
122.825106
20
109.800495
11
119.550229
21
114.067590
0
LINE
8
Layer 1
10
119.550229
20
114.067590
11
116.533702
21
117.319515
0
LINE
8
Layer 1
10
116.533702
20
117.319515
11
115.220509
21
118.447423
0
LINE
8
Layer 1
10
115.220509
20
118.447423
11
114.089730
21
119.180700
0
LINE
8
Layer 1
10
114.089730
20
119.180700
11
113.558720
21
119.449870
0
LINE
8
Layer 1
10
113.558720
20
119.449870
11
113.279030
21
119.450870
0
LINE
8
Layer 1
10
113.279030
20
119.450870
11
112.999350
21
119.451870
0
LINE
8
Layer 1
10
112.999350
20
119.451870
11
112.566270
21
119.109540
0
LINE
8
Layer 1
10
112.566270
20
119.109540
11
111.451260
21
117.967874
0
LINE
8
Layer 1
10
111.451260
20
117.967874
11
109.963241
21
115.944743
0
LINE
8
Layer 1
10
109.963241
20
115.944743
11
105.286590
21
108.398340
0
LINE
8
Layer 1
10
105.286590
20
108.398340
11
103.348494
21
105.260325
0
LINE
8
Layer 1
10
103.348494
20
105.260325
11
101.434800
21
102.471383
0
LINE
8
Layer 1
10
101.434800
20
102.471383
11
99.377488
21
99.800494
0
LINE
8
Layer 1
10
99.377488
20
99.800494
11
97.008540
21
97.016640
0
LINE
8
Layer 1
10
97.008540
20
97.016640
11
93.575600
21
92.989810
0
LINE
8
Layer 1
10
93.575600
20
92.989810
11
90.725784
21
89.721240
0
LINE
8
Layer 1
10
90.725784
20
89.721240
11
89.989158
21
89.092450
0
LINE
8
Layer 1
10
89.989158
20
89.092450
11
89.495660
21
88.918730
0
LINE
8
Layer 1
10
89.495660
20
88.918730
11
89.274900
21
88.919000
0
LINE
8
Layer 1
10
89.274900
20
88.919000
11
89.137130
21
89.115690
0
LINE
8
Layer 1
10
89.137130
20
89.115690
11
88.999360
21
89.312390
0
LINE
8
Layer 1
10
88.999360
20
89.312390
11
88.999300
21
89.770600
0
LINE
8
Layer 1
10
88.999300
20
89.770600
11
89.188171
21
91.307924
0
LINE
8
Layer 1
10
89.188171
20
91.307924
11
89.702370
21
93.764410
0
LINE
8
Layer 1
10
89.702370
20
93.764410
11
90.409270
21
96.773470
0
LINE
8
Layer 1
10
90.409270
20
96.773470
11
90.991610
21
99.406400
0
LINE
8
Layer 1
10
90.991610
20
99.406400
11
91.226010
21
100.556920
0
LINE
8
Layer 1
10
91.226010
20
100.556920
11
91.268210
21
101.530440
0
LINE
8
Layer 1
10
91.268210
20
101.530440
11
91.310410
21
102.503960
0
LINE
8
Layer 1
10
91.310410
20
102.503960
11
91.189550
21
102.725210
0
LINE
8
Layer 1
10
91.189550
20
102.725210
11
91.068680
21
102.946470
0
LINE
8
Layer 1
10
91.068680
20
102.946470
11
90.754690
21
102.928470
0
LINE
8
Layer 1
10
90.754690
20
102.928470
11
89.512197
21
102.548977
0
LINE
8
Layer 1
10
89.512197
20
102.548977
11
87.382127
21
101.577606
0
LINE
8
Layer 1
10
87.382127
20
101.577606
11
81.499480
21
98.371370
0
LINE
8
Layer 1
10
81.499480
20
98.371370
11
78.462284
21
96.640407
0
LINE
8
Layer 1
10
78.462284
20
96.640407
11
76.874620
21
95.906780
0
LINE
8
Layer 1
10
76.874620
20
95.906780
11
76.299359
21
95.713220
0
LINE
8
Layer 1
10
76.299359
20
95.713220
11
75.148839
21
95.712250
0
LINE
8
Layer 1
10
75.148839
20
95.712250
11
73.998319
21
95.711270
0
LINE
8
Layer 1
10
73.998319
20
95.711270
11
73.673322
21
95.847810
0
LINE
8
Layer 1
10
73.673322
20
95.847810
11
73.196979
21
96.215330
0
LINE
8
Layer 1
10
73.196979
20
96.215330
11
73.045633
21
96.446310
0
LINE
8
Layer 1
10
73.045633
20
96.446310
11
73.099883
21
96.864350
0
LINE
8
Layer 1
10
73.099883
20
96.864350
11
73.154133
21
97.282400
0
LINE
8
Layer 1
10
73.154133
20
97.282400
11
73.635931
21
98.255920
0
LINE
8
Layer 1
10
73.635931
20
98.255920
11
75.464811
21
101.397730
0
LINE
8
Layer 1
10
75.464811
20
101.397730
11
80.045960
21
108.892987
0
LINE
8
Layer 1
10
80.045960
20
108.892987
11
83.689121
21
115.248230
0
LINE
8
Layer 1
10
83.689121
20
115.248230
11
87.612121
21
122.195610
0
LINE
8
Layer 1
10
87.612121
20
122.195610
11
90.057693
21
126.598170
0
LINE
8
Layer 1
10
90.057693
20
126.598170
11
91.062351
21
128.808030
0
LINE
8
Layer 1
10
91.062351
20
128.808030
11
91.300411
21
129.535080
0
LINE
8
Layer 1
10
91.300411
20
129.535080
11
91.300400
21
129.941000
0
LINE
8
Layer 1
10
91.300400
20
129.941000
11
91.147783
21
130.625485
0
LINE
8
Layer 1
10
91.147783
20
130.625485
11
90.668667
21
131.169546
0
LINE
8
Layer 1
10
90.668667
20
131.169546
11
89.831161
21
131.596715
0
LINE
8
Layer 1
10
89.831161
20
131.596715
11
88.603370
21
131.930520
0
LINE
8
Layer 1
10
88.603370
20
131.930520
11
83.205406
21
132.594566
0
LINE
8
Layer 1
10
83.205406
20
132.594566
11
75.724070
21
133.090680
0
LINE
8
Layer 1
10
75.724070
20
133.090680
11
73.201770
21
133.194010
0
LINE
8
Layer 1
10
73.201770
20
133.194010
11
69.484700
21
133.142110
0
LINE
8
Layer 1
10
69.484700
20
133.142110
11
65.767630
21
133.090210
0
LINE
8
Layer 1
10
65.767630
20
133.090210
11
63.864840
21
132.952950
0
LINE
8
Layer 1
10
63.864840
20
132.952950
11
57.849635
21
132.310583
0
LINE
8
Layer 1
10
57.849635
20
132.310583
11
55.549287
21
131.880831
0
LINE
8
Layer 1
10
55.549287
20
131.880831
11
53.685640
21
131.373300
0
LINE
8
Layer 1
10
53.685640
20
131.373300
11
48.859735
21
129.519076
0
LINE
8
Layer 1
10
48.859735
20
129.519076
11
44.482960
21
127.311610
0
LINE
8
Layer 1
10
44.482960
20
127.311610
11
41.892530
21
125.867270
0
LINE
8
Layer 1
10
41.892530
20
125.867270
11
40.762380
21
125.263530
0
LINE
8
Layer 1
10
40.762380
20
125.263530
11
40.339758
21
124.858070
0
LINE
8
Layer 1
10
40.339758
20
124.858070
11
39.534926
21
123.873206
0
LINE
8
Layer 1
10
39.534926
20
123.873206
11
38.515478
21
122.116660
0
LINE
8
Layer 1
10
38.515478
20
122.116660
11
37.249558
21
119.904120
0
LINE
8
Layer 1
10
37.249558
20
119.904120
11
36.331891
21
118.242848
0
LINE
8
Layer 1
10
36.331891
20
118.242848
11
35.666428
21
116.443200
0
LINE
8
Layer 1
10
35.666428
20
116.443200
11
34.345458
21
112.858880
0
LINE
8
Layer 1
10
34.345458
20
112.858880
11
33.103485
21
109.426255
0
LINE
8
Layer 1
10
33.103485
20
109.426255
11
32.098888
21
105.506670
0
LINE
8
Layer 1
10
32.098888
20
105.506670
11
31.173998
21
101.304924
0
LINE
8
Layer 1
10
31.173998
20
101.304924
11
30.668218
21
98.157589
0
LINE
8
Layer 1
10
30.668218
20
98.157589
11
30.455215
21
94.947244
0
LINE
8
Layer 1
10
30.455215
20
94.947244
11
30.408658
21
90.556470
0
LINE
8
Layer 1
10
30.408658
20
90.556470
11
30.271414
21
79.740730
0
LINE
8
Layer 1
10
30.271414
20
79.740730
11
29.779720
21
72.767570
0
LINE
8
Layer 1
10
29.779720
20
72.767570
11
29.507831
21
70.289530
0
LINE
8
Layer 1
10
29.507831
20
70.289530
11
29.561011
21
69.769890
0
LINE
8
Layer 1
10
29.561011
20
69.769890
11
29.614191
21
69.250250
0
LINE
8
Layer 1
10
29.614191
20
69.250250
11
29.953242
21
68.403170
0
LINE
8
Layer 1
10
29.953242
20
68.403170
11
30.409769
21
67.516940
0
LINE
8
Layer 1
10
30.409769
20
67.516940
11
30.527244
21
67.477740
0
LINE
8
Layer 1
10
30.527244
20
67.477740
11
30.475924
21
69.237620
0
LINE
8
Layer 1
10
30.475924
20
69.237620
11
30.424614
21
70.997500
0
LINE
8
Layer 1
10
30.424614
20
70.997500
11
30.504544
21
71.971020
0
LINE
8
Layer 1
10
30.504544
20
71.971020
11
30.701006
21
73.190363
0
LINE
8
Layer 1
10
30.701006
20
73.190363
11
31.075719
21
74.351318
0
LINE
8
Layer 1
10
31.075719
20
74.351318
11
31.612549
21
75.433923
0
LINE
8
Layer 1
10
31.612549
20
75.433923
11
32.295363
21
76.418216
0
LINE
8
Layer 1
10
32.295363
20
76.418216
11
33.108028
21
77.284237
0
LINE
8
Layer 1
10
33.108028
20
77.284237
11
34.034410
21
78.012024
0
LINE
8
Layer 1
10
34.034410
20
78.012024
11
35.058377
21
78.581615
0
LINE
8
Layer 1
10
35.058377
20
78.581615
11
36.163794
21
78.973050
0
LINE
8
Layer 1
10
36.163794
20
78.973050
11
36.739056
21
79.122160
0
LINE
8
Layer 1
10
36.739056
20
79.122160
11
37.668324
21
79.116160
0
LINE
8
Layer 1
10
37.668324
20
79.116160
11
38.597592
21
79.110160
0
LINE
8
Layer 1
10
38.597592
20
79.110160
11
39.300829
21
78.924910
0
LINE
8
Layer 1
10
39.300829
20
78.924910
11
40.705852
21
78.403882
0
LINE
8
Layer 1
10
40.705852
20
78.403882
11
42.013829
21
77.619994
0
LINE
8
Layer 1
10
42.013829
20
77.619994
11
43.206329
21
76.598178
0
LINE
8
Layer 1
10
43.206329
20
76.598178
11
44.264920
21
75.363363
0
LINE
8
Layer 1
10
44.264920
20
75.363363
11
45.171172
21
73.940478
0
LINE
8
Layer 1
10
45.171172
20
73.940478
11
45.906653
21
72.354454
0
LINE
8
Layer 1
10
45.906653
20
72.354454
11
46.452933
21
70.630222
0
LINE
8
Layer 1
10
46.452933
20
70.630222
11
46.791579
21
68.792710
0
LINE
8
Layer 1
10
46.791579
20
68.792710
11
46.897947
21
67.915550
0
LINE
8
Layer 1
10
46.897947
20
67.915550
11
46.842617
21
66.535920
0
LINE
8
Layer 1
10
46.842617
20
66.535920
11
46.571242
21
64.373560
0
LINE
8
Layer 1
10
46.571242
20
64.373560
11
45.922230
21
62.441804
0
LINE
8
Layer 1
10
45.922230
20
62.441804
11
44.866724
21
60.678083
0
LINE
8
Layer 1
10
44.866724
20
60.678083
11
43.375867
21
59.019830
0
LINE
8
Layer 1
10
43.375867
20
59.019830
11
42.634481
21
58.318050
0
LINE
8
Layer 1
10
42.634481
20
58.318050
11
42.221683
21
58.118210
0
LINE
8
Layer 1
10
42.221683
20
58.118210
11
41.808885
21
57.918390
0
LINE
8
Layer 1
10
41.808885
20
57.918390
11
41.176753
21
57.876990
0
LINE
8
Layer 1
10
41.176753
20
57.876990
11
40.544622
21
57.835590
0
LINE
8
Layer 1
10
40.544622
20
57.835590
11
40.337694
21
57.705380
0
LINE
8
Layer 1
10
40.337694
20
57.705380
11
40.130765
21
57.575170
0
LINE
8
Layer 1
10
40.130765
20
57.575170
11
40.189025
21
57.338940
0
LINE
8
Layer 1
10
40.189025
20
57.338940
11
40.787821
21
56.423843
0
LINE
8
Layer 1
10
40.787821
20
56.423843
11
42.088049
21
54.956151
0
LINE
8
Layer 1
10
42.088049
20
54.956151
11
43.722438
21
53.323836
0
LINE
8
Layer 1
10
43.722438
20
53.323836
11
45.323715
21
51.914870
0
LINE
8
Layer 1
10
45.323715
20
51.914870
11
48.353428
21
49.770926
0
LINE
8
Layer 1
10
48.353428
20
49.770926
11
51.855902
21
47.926147
0
LINE
8
Layer 1
10
51.855902
20
47.926147
11
56.373558
21
46.134600
0
LINE
8
Layer 1
10
56.373558
20
46.134600
11
62.448815
21
44.150350
0
LINE
8
Layer 1
10
62.448815
20
44.150350
11
67.886370
21
42.605383
0
LINE
8
Layer 1
10
67.886370
20
42.605383
11
72.698309
21
41.538006
0
LINE
8
Layer 1
10
72.698309
20
41.538006
11
77.275225
21
40.876284
0
LINE
8
Layer 1
10
77.275225
20
40.876284
11
82.007715
21
40.548280
0
LINE
8
Layer 1
10
82.007715
20
40.548280
11
83.556495
21
40.490280
0
LINE
8
Layer 1
10
83.556495
20
40.490280
11
84.961115
21
40.591050
0
LINE
8
Layer 1
10
84.961115
20
40.591050
11
88.269379
21
41.075104
0
LINE
8
Layer 1
10
88.269379
20
41.075104
11
92.362752
21
42.057617
0
LINE
8
Layer 1
10
92.362752
20
42.057617
11
96.981420
21
43.442979
0
LINE
8
Layer 1
10
96.981420
20
43.442979
11
101.865570
21
45.135580
0
LINE
8
Layer 1
10
101.865570
20
45.135580
11
106.755388
21
47.039808
0
LINE
8
Layer 1
10
106.755388
20
47.039808
11
111.391061
21
49.060053
0
LINE
8
Layer 1
10
111.391061
20
49.060053
11
115.512774
21
51.100704
0
LINE
8
Layer 1
10
115.512774
20
51.100704
11
118.860715
21
53.066150
0
LINE
8
Layer 1
10
118.860715
20
53.066150
11
119.966985
21
53.676370
0
LINE
8
Layer 1
10
119.966985
20
53.676370
11
120.107715
21
53.649770
0
LINE
8
Layer 1
10
120.107715
20
53.649770
11
120.134715
21
53.417430
0
LINE
8
Layer 1
10
120.134715
20
53.417430
11
120.161715
21
53.185070
0
LINE
8
Layer 1
10
120.161715
20
53.185070
11
119.481255
21
52.281760
0
LINE
8
Layer 1
10
119.481255
20
52.281760
11
117.423462
21
49.982308
0
LINE
8
Layer 1
10
117.423462
20
49.982308
11
114.884549
21
47.995571
0
LINE
8
Layer 1
10
114.884549
20
47.995571
11
111.669839
21
46.193351
0
LINE
8
Layer 1
10
111.669839
20
46.193351
11
107.584655
21
44.447450
0
LINE
8
Layer 1
10
107.584655
20
44.447450
11
101.433227
21
42.254465
0
LINE
8
Layer 1
10
101.433227
20
42.254465
11
95.798066
21
40.610609
0
LINE
8
Layer 1
10
95.798066
20
40.610609
11
90.524850
21
39.476585
0
LINE
8
Layer 1
10
90.524850
20
39.476585
11
85.459255
21
38.813100
0
LINE
8
Layer 1
10
85.459255
20
38.813100
11
84.175975
21
38.700130
0
LINE
8
Layer 1
10
84.175975
20
38.700130
11
81.388200
21
38.700000
0
LINE
8
Layer 1
10
81.388200
20
38.700000
11
78.600400
21
38.700000
0
LINE
8
Layer 1
10
78.600400
20
38.700000
11
77.317120
21
38.815120
0
LINE
8
Layer 1
10
77.317120
20
38.815120
11
73.630126
21
39.246501
0
LINE
8
Layer 1
10
73.630126
20
39.246501
11
69.981637
21
39.906989
0
LINE
8
Layer 1
10
69.981637
20
39.906989
11
65.991790
21
40.877705
0
LINE
8
Layer 1
10
65.991790
20
40.877705
11
61.280720
21
42.239770
0
LINE
8
Layer 1
10
61.280720
20
42.239770
11
53.496234
21
44.757926
0
LINE
8
Layer 1
10
53.496234
20
44.757926
11
48.023120
21
46.924010
0
LINE
8
Layer 1
10
48.023120
20
46.924010
11
46.452260
21
47.584366
0
LINE
8
Layer 1
10
46.452260
20
47.584366
11
45.848390
21
47.639300
0
LINE
8
Layer 1
10
45.848390
20
47.639300
11
45.620698
21
47.582200
0
LINE
8
Layer 1
10
45.620698
20
47.582200
11
45.455212
21
47.208080
0
LINE
8
Layer 1
10
45.455212
20
47.208080
11
45.197459
21
46.082990
0
LINE
8
Layer 1
10
45.197459
20
46.082990
11
45.105189
21
45.332000
0
LINE
8
Layer 1
10
45.105189
20
45.332000
11
45.015249
21
38.827130
0
LINE
8
Layer 1
10
45.015249
20
38.827130
11
44.881510
21
31.702730
0
LINE
8
Layer 1
10
44.881510
20
31.702730
11
44.744935
21
29.136180
0
LINE
8
Layer 1
10
44.744935
20
29.136180
11
44.430595
21
24.315795
0
LINE
8
Layer 1
10
44.430595
20
24.315795
11
43.953103
21
21.126780
0
LINE
8
Layer 1
10
43.953103
20
21.126780
11
43.181984
21
15.951010
0
LINE
8
Layer 1
10
43.181984
20
15.951010
11
43.028629
21
14.444890
0
LINE
8
Layer 1
10
43.028629
20
14.444890
11
43.025729
21
11.303080
0
LINE
8
Layer 1
10
43.025729
20
11.303080
11
43.022829
21
8.161270
0
LINE
8
Layer 1
10
43.022829
20
8.161270
11
43.137003
21
7.364750
0
LINE
8
Layer 1
10
43.137003
20
7.364750
11
43.430241
21
5.905180
0
LINE
8
Layer 1
10
43.430241
20
5.905180
11
43.609305
21
5.242110
0
LINE
8
Layer 1
10
43.609305
20
5.242110
11
44.083263
21
4.489150
0
LINE
8
Layer 1
10
44.083263
20
4.489150
11
44.665193
21
3.470680
0
LINE
8
Layer 1
10
44.665193
20
3.470680
11
45.307272
21
2.066790
0
LINE
8
Layer 1
10
45.307272
20
2.066790
11
45.841380
21
0.928400
0
LINE
8
Layer 1
10
45.841380
20
0.928400
11
45.750660
21
0.783520
0
LINE
8
Layer 1
10
45.750660
20
0.783520
11
45.659940
21
0.638620
0
LINE
8
Layer 1
10
45.659940
20
0.638620
11
45.005151
21
0.526400
0
LINE
8
Layer 1
10
45.005151
20
0.526400
11
43.952101
21
0.437900
0
LINE
8
Layer 1
10
43.952101
20
0.437900
11
43.553843
21
0.461600
0
LINE
8
Layer 1
10
43.553843
20
0.461600
11
43.582723
21
0.960770
0
LINE
8
Layer 1
10
43.582723
20
0.960770
11
43.611603
21
1.459950
0
LINE
8
Layer 1
10
43.611603
20
1.459950
11
43.436537
21
1.801540
0
LINE
8
Layer 1
10
43.436537
20
1.801540
11
42.679997
21
2.778001
0
LINE
8
Layer 1
10
42.679997
20
2.778001
11
41.513831
21
3.583229
0
LINE
8
Layer 1
10
41.513831
20
3.583229
11
39.968443
21
4.201262
0
LINE
8
Layer 1
10
39.968443
20
4.201262
11
38.074237
21
4.616140
0
LINE
8
Layer 1
10
38.074237
20
4.616140
11
35.848428
21
5.066200
0
LINE
8
Layer 1
10
35.848428
20
5.066200
11
35.238932
21
5.394100
0
LINE
8
Layer 1
10
35.238932
20
5.394100
11
34.612717
21
5.923660
0
LINE
8
Layer 1
10
34.612717
20
5.923660
11
33.776840
21
6.639910
0
LINE
8
Layer 1
10
33.776840
20
6.639910
11
33.557957
21
6.789680
0
LINE
8
Layer 1
10
33.557957
20
6.789680
11
33.231600
21
6.789660
0
LINE
8
Layer 1
10
33.231600
20
6.789660
11
32.905300
21
6.789660
0
LINE
8
Layer 1
10
32.905300
20
6.789660
11
32.122911
21
6.205430
0
LINE
8
Layer 1
10
32.122911
20
6.205430
11
30.936876
21
5.425169
0
LINE
8
Layer 1
10
30.936876
20
5.425169
11
30.062531
21
5.136510
0
LINE
8
Layer 1
10
30.062531
20
5.136510
11
29.639104
21
5.086310
0
LINE
8
Layer 1
10
29.639104
20
5.086310
11
29.296116
21
5.199510
0
LINE
8
Layer 1
10
29.296116
20
5.199510
11
28.953127
21
5.312710
0
LINE
8
Layer 1
10
28.953127
20
5.312710
11
28.465291
21
5.775350
0
LINE
8
Layer 1
10
28.465291
20
5.775350
11
27.633223
21
6.469610
0
LINE
8
Layer 1
10
27.633223
20
6.469610
11
27.288992
21
6.701160
0
LINE
8
Layer 1
10
27.288992
20
6.701160
11
26.969460
21
6.699160
0
LINE
8
Layer 1
10
26.969460
20
6.699160
11
26.251671
21
6.513060
0
LINE
8
Layer 1
10
26.251671
20
6.513060
11
25.366653
21
6.156560
0
LINE
8
Layer 1
10
25.366653
20
6.156560
11
24.879894
21
5.984220
0
LINE
8
Layer 1
10
24.879894
20
5.984220
11
24.171880
21
5.934320
0
LINE
8
Layer 1
10
24.171880
20
5.934320
11
23.463866
21
5.884420
0
LINE
8
Layer 1
10
23.463866
20
5.884420
11
22.942221
21
5.982420
0
LINE
8
Layer 1
10
22.942221
20
5.982420
11
22.165697
21
6.213789
0
LINE
8
Layer 1
10
22.165697
20
6.213789
11
21.462650
21
6.586770
0
LINE
8
Layer 1
10
21.462650
20
6.586770
11
20.882286
21
7.068591
0
LINE
8
Layer 1
10
20.882286
20
7.068591
11
20.473811
21
7.626480
0
LINE
8
Layer 1
10
20.473811
20
7.626480
11
20.286477
21
7.984460
0
LINE
8
Layer 1
10
20.286477
20
7.984460
11
20.262477
21
8.731830
0
LINE
8
Layer 1
10
20.262477
20
8.731830
11
20.238477
21
9.479190
0
LINE
8
Layer 1
10
20.238477
20
9.479190
11
20.112878
21
9.549490
0
LINE
8
Layer 1
10
20.112878
20
9.549490
11
19.987278
21
9.619790
0
LINE
8
Layer 1
10
19.987278
20
9.619790
11
19.930298
21
10.483670
0
LINE
8
Layer 1
10
19.930298
20
10.483670
11
19.873318
21
11.347540
0
LINE
8
Layer 1
10
19.873318
20
11.347540
11
19.953348
21
11.822510
0
LINE
8
Layer 1
10
19.953348
20
11.822510
11
20.033378
21
12.297460
0
LINE
8
Layer 1
10
20.033378
20
12.297460
11
19.937668
21
12.551020
0
LINE
8
Layer 1
10
19.937668
20
12.551020
11
19.841958
21
12.804570
0
LINE
8
Layer 1
10
19.841958
20
12.804570
11
19.952543
21
13.226590
0
LINE
8
Layer 1
10
19.952543
20
13.226590
11
20.838117
21
15.173089
0
LINE
8
Layer 1
10
20.838117
20
15.173089
11
22.588293
21
17.763920
0
LINE
8
Layer 1
10
22.588293
20
17.763920
11
24.750908
21
20.346592
0
LINE
8
Layer 1
10
24.750908
20
20.346592
11
26.817743
21
22.209190
0
LINE
8
Layer 1
10
26.817743
20
22.209190
11
28.853213
21
23.399653
0
LINE
8
Layer 1
10
28.853213
20
23.399653
11
29.879316
21
23.757814
0
LINE
8
Layer 1
10
29.879316
20
23.757814
11
30.921733
21
23.965920
0
LINE
8
Layer 1
10
30.921733
20
23.965920
11
31.738774
21
24.070700
0
LINE
8
Layer 1
10
31.738774
20
24.070700
11
32.542911
21
23.967570
0
LINE
8
Layer 1
10
32.542911
20
23.967570
11
33.347049
21
23.864450
0
LINE
8
Layer 1
10
33.347049
20
23.864450
11
34.575049
21
23.470930
0
LINE
8
Layer 1
10
34.575049
20
23.470930
11
36.598677
21
22.943149
0
LINE
8
Layer 1
10
36.598677
20
22.943149
11
38.818909
21
22.627160
0
LINE
8
Layer 1
10
38.818909
20
22.627160
11
39.925179
21
22.520230
0
LINE
8
Layer 1
10
39.925179
20
22.520230
11
40.729316
21
22.572530
0
LINE
8
Layer 1
10
40.729316
20
22.572530
11
41.770796
21
22.715090
0
LINE
8
Layer 1
10
41.770796
20
22.715090
11
42.008141
21
22.805290
0
LINE
8
Layer 1
10
42.008141
20
22.805290
11
42.097441
21
23.040170
0
LINE
8
Layer 1
10
42.097441
20
23.040170
11
42.356357
21
24.601861
0
LINE
8
Layer 1
10
42.356357
20
24.601861
11
42.590268
21
27.578335
0
LINE
8
Layer 1
10
42.590268
20
27.578335
11
42.935437
21
35.965364
0
LINE
8
Layer 1
10
42.935437
20
35.965364
11
43.037674
21
44.580721
0
LINE
8
Layer 1
10
43.037674
20
44.580721
11
42.967921
21
47.842605
0
LINE
8
Layer 1
10
42.967921
20
47.842605
11
42.801709
21
49.803870
0
LINE
8
Layer 1
10
42.801709
20
49.803870
11
42.532677
21
50.648330
0
LINE
8
Layer 1
10
42.532677
20
50.648330
11
41.756903
21
51.743283
0
LINE
8
Layer 1
10
41.756903
20
51.743283
11
36.835259
21
56.877950
0
LINE
8
Layer 1
10
36.835259
20
56.877950
11
32.406497
21
61.424727
0
LINE
8
Layer 1
10
32.406497
20
61.424727
11
29.775075
21
64.352975
0
LINE
8
Layer 1
10
29.775075
20
64.352975
11
28.399403
21
66.325011
0
LINE
8
Layer 1
10
28.399403
20
66.325011
11
27.737889
21
68.003150
0
LINE
8
Layer 1
10
27.737889
20
68.003150
11
27.545903
21
68.696690
0
LINE
8
Layer 1
10
27.545903
20
68.696690
11
27.546700
21
70.378230
0
LINE
8
Layer 1
10
27.546700
20
70.378230
11
27.547496
21
72.059760
0
LINE
8
Layer 1
10
27.547496
20
72.059760
11
27.783384
21
74.139550
0
LINE
8
Layer 1
10
27.783384
20
74.139550
11
28.133619
21
78.339819
0
LINE
8
Layer 1
10
28.133619
20
78.339819
11
28.285210
21
85.556250
0
LINE
8
Layer 1
10
28.285210
20
85.556250
11
28.448351
21
94.151870
0
LINE
8
Layer 1
10
28.448351
20
94.151870
11
28.640317
21
98.120050
0
LINE
8
Layer 1
10
28.640317
20
98.120050
11
28.721517
21
98.691860
0
LINE
8
Layer 1
10
28.721517
20
98.691860
11
28.899732
21
98.828070
0
LINE
8
Layer 1
10
28.899732
20
98.828070
11
29.077947
21
98.964280
0
LINE
8
Layer 1
10
29.077947
20
98.964280
11
29.169857
21
99.982050
0
LINE
8
Layer 1
10
29.169857
20
99.982050
11
29.359185
21
101.663590
0
LINE
8
Layer 1
10
29.359185
20
101.663590
11
29.482970
21
103.079610
0
LINE
8
Layer 1
10
29.482970
20
103.079610
11
29.509340
21
103.831880
0
LINE
8
Layer 1
10
29.509340
20
103.831880
11
29.871481
21
105.292160
0
LINE
8
Layer 1
10
29.871481
20
105.292160
11
30.229730
21
106.960850
0
LINE
8
Layer 1
10
30.229730
20
106.960850
11
30.173236
21
107.677246
0
LINE
8
Layer 1
10
30.173236
20
107.677246
11
29.862602
21
108.513858
0
LINE
8
Layer 1
10
29.862602
20
108.513858
11
28.187731
21
111.144267
0
LINE
8
Layer 1
10
28.187731
20
111.144267
11
24.622751
21
116.045160
0
LINE
8
Layer 1
10
24.622751
20
116.045160
11
18.626906
21
124.390895
0
LINE
8
Layer 1
10
18.626906
20
124.390895
11
14.609300
21
130.471000
0
LINE
8
Layer 1
10
14.609300
20
130.471000
11
11.574697
21
135.506447
0
LINE
8
Layer 1
10
11.574697
20
135.506447
11
8.872083
21
140.461891
0
LINE
8
Layer 1
10
8.872083
20
140.461891
11
6.510545
21
145.314232
0
LINE
8
Layer 1
10
6.510545
20
145.314232
11
4.499169
21
150.040375
0
LINE
8
Layer 1
10
4.499169
20
150.040375
11
2.847042
21
154.617221
0
LINE
8
Layer 1
10
2.847042
20
154.617221
11
1.563250
21
159.021672
0
LINE
8
Layer 1
10
1.563250
20
159.021672
11
0.656880
21
163.230631
0
LINE
8
Layer 1
10
0.656880
20
163.230631
11
0.137019
21
167.221000
0
LINE
8
Layer 1
10
0.137019
20
167.221000
11
0.031685
21
168.481910
0
LINE
8
Layer 1
10
0.031685
20
168.481910
11
0.080485
21
170.628320
0
LINE
8
Layer 1
10
0.080485
20
170.628320
11
0.129285
21
172.774730
0
LINE
8
Layer 1
10
0.129285
20
172.774730
11
0.308975
21
173.605600
0
LINE
8
Layer 1
10
0.308975
20
173.605600
11
0.656068
21
174.750681
0
LINE
8
Layer 1
10
0.656068
20
174.750681
11
1.142442
21
175.575239
0
LINE
8
Layer 1
10
1.142442
20
175.575239
11
1.787705
21
176.102705
0
LINE
8
Layer 1
10
1.787705
20
176.102705
11
2.611465
21
176.356510
0
LINE
8
Layer 1
10
2.611465
20
176.356510
11
3.104321
21
176.423410
0
LINE
8
Layer 1
10
3.104321
20
176.423410
11
3.793120
21
176.346310
0
LINE
8
Layer 1
10
3.793120
20
176.346310
11
6.329388
21
175.644614
0
LINE
8
Layer 1
10
6.329388
20
175.644614
11
9.701650
21
174.161170
0
LINE
8
Layer 1
10
9.701650
20
174.161170
11
10.719420
21
173.647500
0
LINE
8
Layer 1
10
10.719420
20
173.647500
11
10.831226
21
173.417850
0
LINE
8
Layer 1
10
10.831226
20
173.417850
11
10.943031
21
173.188200
0
LINE
8
Layer 1
10
10.943031
20
173.188200
11
12.031111
21
172.520660
0
LINE
8
Layer 1
10
12.031111
20
172.520660
11
15.589390
21
170.092119
0
LINE
8
Layer 1
10
15.589390
20
170.092119
11
20.321861
21
166.322210
0
LINE
8
Layer 1
10
20.321861
20
166.322210
11
23.975557
21
163.237935
0
LINE
8
Layer 1
10
23.975557
20
163.237935
11
25.463621
21
161.818750
0
LINE
8
Layer 1
10
25.463621
20
161.818750
11
25.720473
21
161.464180
0
LINE
8
Layer 1
10
25.720473
20
161.464180
11
25.720500
21
161.123000
0
LINE
8
Layer 1
10
25.720500
20
161.123000
11
25.720500
21
160.783000
0
LINE
8
Layer 1
10
25.720500
20
160.783000
11
25.818200
21
160.783000
0
LINE
8
Layer 1
10
25.818200
20
160.783000
11
27.490460
21
159.832060
0
LINE
8
Layer 1
10
27.490460
20
159.832060
11
28.154223
21
159.336080
0
LINE
8
Layer 1
10
28.154223
20
159.336080
11
31.517293
21
155.955830
0
LINE
8
Layer 1
10
31.517293
20
155.955830
11
34.730484
21
152.803709
0
LINE
8
Layer 1
10
34.730484
20
152.803709
11
35.431425
21
152.239304
0
LINE
8
Layer 1
10
35.431425
20
152.239304
11
35.891203
21
152.023320
0
LINE
8
Layer 1
10
35.891203
20
152.023320
11
36.179553
21
151.940620
0
LINE
8
Layer 1
10
36.179553
20
151.940620
11
36.626054
21
152.357110
0
LINE
8
Layer 1
10
36.626054
20
152.357110
11
37.738482
21
153.639477
0
LINE
8
Layer 1
10
37.738482
20
153.639477
11
38.016746
21
154.127700
0
LINE
8
Layer 1
10
38.016746
20
154.127700
11
37.977924
21
154.322370
0
LINE
8
Layer 1
10
37.977924
20
154.322370
11
37.845200
21
154.322000
0
LINE
8
Layer 1
10
37.845200
20
154.322000
11
37.845200
21
154.477000
0
LINE
8
Layer 1
10
37.845200
20
154.477000
11
38.377337
21
155.378090
0
LINE
8
Layer 1
10
38.377337
20
155.378090
11
39.121900
21
156.563116
0
LINE
8
Layer 1
10
39.121900
20
156.563116
11
39.438237
21
157.339220
0
LINE
8
Layer 1
10
39.438237
20
157.339220
11
39.827429
21
157.960952
0
LINE
8
Layer 1
10
39.827429
20
157.960952
11
40.861937
21
159.126545
0
LINE
8
Layer 1
10
40.861937
20
159.126545
11
44.068507
21
162.243650
0
LINE
8
Layer 1
10
44.068507
20
162.243650
11
45.273925
21
163.461847
0
LINE
8
Layer 1
10
45.273925
20
163.461847
11
46.398103
21
164.961622
0
LINE
8
Layer 1
10
46.398103
20
164.961622
11
47.672539
21
167.093472
0
LINE
8
Layer 1
10
47.672539
20
167.093472
11
49.328727
21
170.207890
0
LINE
8
Layer 1
10
49.328727
20
170.207890
11
51.525163
21
174.215459
0
LINE
8
Layer 1
10
51.525163
20
174.215459
11
53.621888
21
177.470425
0
LINE
8
Layer 1
10
53.621888
20
177.470425
11
55.836417
21
180.278699
0
LINE
8
Layer 1
10
55.836417
20
180.278699
11
58.386267
21
182.946190
0
LINE
8
Layer 1
10
58.386267
20
182.946190
11
61.356896
21
185.561019
0
LINE
8
Layer 1
10
61.356896
20
185.561019
11
62.696389
21
186.427817
0
LINE
8
Layer 1
10
62.696389
20
186.427817
11
64.092076
21
187.055643
0
LINE
8
Layer 1
10
64.092076
20
187.055643
11
65.659011
21
187.485574
0
LINE
8
Layer 1
10
65.659011
20
187.485574
11
67.512252
21
187.758690
0
LINE
8
Layer 1
10
67.512252
20
187.758690
11
72.537867
21
187.998790
0
LINE
8
Layer 1
10
72.537867
20
187.998790
11
75.414177
21
188.054190
0
LINE
8
Layer 1
10
75.414177
20
188.054190
11
78.201987
21
187.960690
0
LINE
8
Layer 1
10
78.201987
20
187.960690
11
80.989787
21
187.867190
0
LINE
8
Layer 1
10
80.989787
20
187.867190
11
82.007557
21
187.731330
0
LINE
8
Layer 1
10
82.007557
20
187.731330
11
84.374637
21
187.325531
0
LINE
8
Layer 1
10
84.374637
20
187.325531
11
89.369717
21
186.189960
0
LINE
8
Layer 1
10
89.369717
20
186.189960
11
94.226108
21
185.230129
0
LINE
8
Layer 1
10
94.226108
20
185.230129
11
98.557387
21
184.856790
0
LINE
8
Layer 1
10
98.557387
20
184.856790
11
100.781977
21
184.713575
0
LINE
8
Layer 1
10
100.781977
20
184.713575
11
101.255615
21
184.584534
0
LINE
8
Layer 1
10
101.255615
20
184.584534
11
101.576317
21
184.373530
0
LINE
8
Layer 1
10
101.576317
20
184.373530
11
102.047417
21
184.096290
0
LINE
8
Layer 1
10
102.047417
20
184.096290
11
102.249247
21
184.045690
0
LINE
8
Layer 1
10
102.249247
20
184.045690
11
102.814987
21
184.284990
0
LINE
8
Layer 1
10
102.814987
20
184.284990
11
103.380727
21
184.524280
0
LINE
8
Layer 1
10
103.380727
20
184.524280
11
104.487007
21
184.470680
0
LINE
8
Layer 1
10
104.487007
20
184.470680
11
107.405173
21
184.109725
0
LINE
8
Layer 1
10
107.405173
20
184.109725
11
110.915078
21
183.368031
0
LINE
8
Layer 1
10
110.915078
20
183.368031
11
114.352423
21
182.408292
0
LINE
8
Layer 1
10
114.352423
20
182.408292
11
117.052907
21
181.393200
0
LINE
8
Layer 1
10
117.052907
20
181.393200
11
119.375895
21
180.001355
0
LINE
8
Layer 1
10
119.375895
20
180.001355
11
121.597863
21
178.039389
0
LINE
8
Layer 1
10
121.597863
20
178.039389
11
123.730478
21
175.487238
0
LINE
8
Layer 1
10
123.730478
20
175.487238
11
125.785407
21
172.324840
0
LINE
8
Layer 1
10
125.785407
20
172.324840
11
127.774317
21
168.532130
0
LINE
8
Layer 1
10
127.774317
20
168.532130
11
129.708876
21
164.089046
0
LINE
8
Layer 1
10
129.708876
20
164.089046
11
131.600750
21
158.975524
0
LINE
8
Layer 1
10
131.600750
20
158.975524
11
133.461607
21
153.171500
0
LINE
8
Layer 1
10
133.461607
20
153.171500
11
135.107038
21
148.268341
0
LINE
8
Layer 1
10
135.107038
20
148.268341
11
135.711001
21
147.109186
0
LINE
8
Layer 1
10
135.711001
20
147.109186
11
136.290087
21
146.527520
0
LINE
8
Layer 1
10
136.290087
20
146.527520
11
136.568867
21
146.357530
0
LINE
8
Layer 1
10
136.568867
20
146.357530
11
136.936017
21
146.357170
0
LINE
8
Layer 1
10
136.936017
20
146.357170
11
137.303157
21
146.356820
0
LINE
8
Layer 1
10
137.303157
20
146.356820
11
137.800727
21
146.618560
0
LINE
8
Layer 1
10
137.800727
20
146.618560
11
138.505236
21
147.042476
0
LINE
8
Layer 1
10
138.505236
20
147.042476
11
139.453632
21
147.803321
0
LINE
8
Layer 1
10
139.453632
20
147.803321
11
143.870257
21
151.888370
0
LINE
8
Layer 1
10
143.870257
20
151.888370
11
150.920885
21
158.437252
0
LINE
8
Layer 1
10
150.920885
20
158.437252
11
156.576682
21
163.507149
0
LINE
8
Layer 1
10
156.576682
20
163.507149
11
161.120191
21
167.344831
0
LINE
8
Layer 1
10
161.120191
20
167.344831
11
164.833957
21
170.197070
0
LINE
8
Layer 1
10
164.833957
20
170.197070
11
166.017517
21
171.048840
0
LINE
8
Layer 1
10
166.017517
20
171.048840
11
166.263000
21
171.049000
0
LINE
8
Layer 1
10
166.263000
20
171.049000
11
166.509000
21
171.049000
0
LINE
8
Layer 1
10
166.509000
20
171.049000
11
167.601990
21
171.746190
0
LINE
8
Layer 1
10
167.601990
20
171.746190
11
172.548760
21
174.570660
0
LINE
8
Layer 1
10
172.548760
20
174.570660
11
173.651080
21
175.127510
0
LINE
8
Layer 1
10
173.651080
20
175.127510
11
174.521400
21
175.344060
0
LINE
8
Layer 1
10
174.521400
20
175.344060
11
176.568380
21
175.666880
0
LINE
8
Layer 1
10
176.568380
20
175.666880
11
177.745020
21
175.773150
0
LINE
8
Layer 1
10
177.745020
20
175.773150
11
178.535520
21
175.682450
0
LINE
8
Layer 1
10
178.535520
20
175.682450
11
179.326020
21
175.591750
0
LINE
8
Layer 1
10
179.326020
20
175.591750
11
179.752210
21
175.378910
0
LINE
8
Layer 1
10
179.752210
20
175.378910
11
180.523070
21
174.774490
0
LINE
8
Layer 1
10
180.523070
20
174.774490
11
180.867750
21
174.382910
0
LINE
8
Layer 1
10
180.867750
20
174.382910
11
181.064980
21
173.755880
0
LINE
8
Layer 1
10
181.064980
20
173.755880
11
181.262230
21
173.128850
0
LINE
8
Layer 1
10
181.262230
20
173.128850
11
181.256230
21
171.004810
0
LINE
8
Layer 1
10
181.256230
20
171.004810
11
181.250230
21
168.880770
0
LINE
8
Layer 1
10
181.250230
20
168.880770
11
181.099190
21
167.331990
0
LINE
8
Layer 1
10
181.099190
20
167.331990
11
180.630148
21
163.814422
0
LINE
8
Layer 1
10
180.630148
20
163.814422
11
179.906398
21
160.186084
0
LINE
8
Layer 1
10
179.906398
20
160.186084
11
178.944824
21
156.495439
0
LINE
8
Layer 1
10
178.944824
20
156.495439
11
177.762309
21
152.790949
0
LINE
8
Layer 1
10
177.762309
20
152.790949
11
176.375737
21
149.121076
0
LINE
8
Layer 1
10
176.375737
20
149.121076
11
174.801993
21
145.534284
0
LINE
8
Layer 1
10
174.801993
20
145.534284
11
173.057959
21
142.079034
0
LINE
8
Layer 1
10
173.057959
20
142.079034
11
171.160520
21
138.803790
0
LINE
8
Layer 1
10
171.160520
20
138.803790
11
170.509300
21
137.561070
0
LINE
8
Layer 1
10
170.509300
20
137.561070
11
169.626378
21
135.931692
0
LINE
8
Layer 1
10
169.626378
20
135.931692
11
167.350796
21
132.533310
0
LINE
8
Layer 1
10
167.350796
20
132.533310
11
160.860770
21
123.656370
0
LINE
8
Layer 1
10
160.860770
20
123.656370
11
158.789521
21
120.887741
0
LINE
8
Layer 1
10
158.789521
20
120.887741
11
157.431079
21
118.844386
0
LINE
8
Layer 1
10
157.431079
20
118.844386
11
156.623667
21
117.254955
0
LINE
8
Layer 1
10
156.623667
20
117.254955
11
156.205510
21
115.848100
0
LINE
8
Layer 1
10
156.205510
20
115.848100
11
156.069770
21
115.160200
0
LINE
8
Layer 1
10
156.069770
20
115.160200
11
156.122670
21
114.478360
0
LINE
8
Layer 1
10
156.122670
20
114.478360
11
156.399330
21
113.062330
0
LINE
8
Layer 1
10
156.399330
20
113.062330
11
157.275129
21
108.947841
0
LINE
8
Layer 1
10
157.275129
20
108.947841
11
158.692510
21
99.937930
0
LINE
8
Layer 1
10
158.692510
20
99.937930
11
159.675980
21
93.344550
0
LINE
8
Layer 1
10
159.675980
20
93.344550
11
161.469353
21
82.512133
0
LINE
8
Layer 1
10
161.469353
20
82.512133
11
163.316589
21
73.398238
0
LINE
8
Layer 1
10
163.316589
20
73.398238
11
165.042465
21
66.774623
0
LINE
8
Layer 1
10
165.042465
20
66.774623
11
165.805136
21
64.637847
0
LINE
8
Layer 1
10
165.805136
20
64.637847
11
166.471760
21
63.413050
0
LINE
8
Layer 1
10
166.471760
20
63.413050
11
166.748010
21
63.080140
0
LINE
8
Layer 1
10
166.748010
20
63.080140
11
167.102020
21
63.078140
0
LINE
8
Layer 1
10
167.102020
20
63.078140
11
168.333307
21
62.870530
0
LINE
8
Layer 1
10
168.333307
20
62.870530
11
169.910112
21
62.321134
0
LINE
8
Layer 1
10
169.910112
20
62.321134
11
171.608745
21
61.522098
0
LINE
8
Layer 1
10
171.608745
20
61.522098
11
173.205510
21
60.565570
0
LINE
8
Layer 1
10
173.205510
20
60.565570
11
175.084747
21
58.929936
0
LINE
8
Layer 1
10
175.084747
20
58.929936
11
176.534392
21
56.912004
0
LINE
8
Layer 1
10
176.534392
20
56.912004
11
177.514586
21
54.583075
0
LINE
8
Layer 1
10
177.514586
20
54.583075
11
177.985470
21
52.014450
0
LINE
8
Layer 1
10
177.985470
20
52.014450
11
178.042770
21
51.262180
0
LINE
8
Layer 1
10
178.042770
20
51.262180
11
177.940940
21
50.244410
0
LINE
8
Layer 1
10
177.940940
20
50.244410
11
177.568493
21
48.176304
0
LINE
8
Layer 1
10
177.568493
20
48.176304
11
176.892995
21
46.235246
0
LINE
8
Layer 1
10
176.892995
20
46.235246
11
175.940414
21
44.450655
0
LINE
8
Layer 1
10
175.940414
20
44.450655
11
174.736717
21
42.851948
0
LINE
8
Layer 1
10
174.736717
20
42.851948
11
173.307874
21
41.468542
0
LINE
8
Layer 1
10
173.307874
20
41.468542
11
171.679851
21
40.329855
0
LINE
8
Layer 1
10
171.679851
20
40.329855
11
169.878617
21
39.465306
0
LINE
8
Layer 1
10
169.878617
20
39.465306
11
167.930140
21
38.904310
0
LINE
8
Layer 1
10
167.930140
20
38.904310
11
167.367560
21
38.792700
0
LINE
8
Layer 1
10
167.367560
20
38.792700
11
166.040000
21
38.792600
0
LINE
8
Layer 1
10
166.040000
20
38.792600
11
164.713000
21
38.792600
0
LINE
8
Layer 1
10
164.713000
20
38.792600
11
163.960740
21
38.948560
0
LINE
8
Layer 1
10
163.960740
20
38.948560
11
161.425097
21
39.739750
0
LINE
8
Layer 1
10
161.425097
20
39.739750
11
159.110210
21
40.966300
0
LINE
8
Layer 1
10
159.110210
20
40.966300
11
158.429380
21
41.421660
0
LINE
8
Layer 1
10
158.429380
20
41.421660
11
157.447310
21
42.403740
0
LINE
8
Layer 1
10
157.447310
20
42.403740
11
156.465230
21
43.385810
0
LINE
8
Layer 1
10
156.465230
20
43.385810
11
156.020910
21
44.050270
0
LINE
8
Layer 1
10
156.020910
20
44.050270
11
154.800679
21
46.377009
0
LINE
8
Layer 1
10
154.800679
20
46.377009
11
154.093590
21
48.863460
0
LINE
8
Layer 1
10
154.093590
20
48.863460
11
153.947510
21
49.739040
0
LINE
8
Layer 1
10
153.947510
20
49.739040
11
153.948510
21
50.943720
0
LINE
8
Layer 1
10
153.948510
20
50.943720
11
154.170738
21
53.390078
0
LINE
8
Layer 1
10
154.170738
20
53.390078
11
154.834255
21
55.634513
0
LINE
8
Layer 1
10
154.834255
20
55.634513
11
155.941059
21
57.681964
0
LINE
8
Layer 1
10
155.941059
20
57.681964
11
157.493150
21
59.537370
0
LINE
8
Layer 1
10
157.493150
20
59.537370
11
158.340770
21
60.378140
0
LINE
8
Layer 1
10
158.340770
20
60.378140
11
159.138940
21
60.922120
0
LINE
8
Layer 1
10
159.138940
20
60.922120
11
161.474330
21
62.192430
0
LINE
8
Layer 1
10
161.474330
20
62.192430
11
161.439104
21
62.600952
0
LINE
8
Layer 1
10
161.439104
20
62.600952
11
160.892374
21
63.631735
0
LINE
8
Layer 1
10
160.892374
20
63.631735
11
158.963290
21
66.391400
0
LINE
8
Layer 1
10
158.963290
20
66.391400
11
155.728400
21
70.777100
0
LINE
8
Layer 1
10
155.728400
20
70.777100
11
148.267710
21
81.308800
0
LINE
8
Layer 1
10
148.267710
20
81.308800
11
141.535250
21
90.766990
0
LINE
8
Layer 1
10
141.535250
20
90.766990
11
140.503612
21
92.123578
0
LINE
8
Layer 1
10
140.503612
20
92.123578
11
139.893520
21
92.634810
0
LINE
8
Layer 1
10
139.893520
20
92.634810
11
139.627310
21
92.745080
0
LINE
8
Layer 1
10
139.627310
20
92.745080
11
139.241010
21
92.518680
0
LINE
8
Layer 1
10
139.241010
20
92.518680
11
138.854700
21
92.292300
0
LINE
8
Layer 1
10
138.854700
20
92.292300
11
136.585860
21
89.981610
0
LINE
8
Layer 1
10
136.585860
20
89.981610
11
133.957672
21
87.197824
0
LINE
8
Layer 1
10
133.957672
20
87.197824
11
132.918180
21
85.742220
0
LINE
8
Layer 1
10
132.918180
20
85.742220
11
132.693920
21
85.263790
0
LINE
8
Layer 1
10
132.693920
20
85.263790
11
132.652720
21
84.680200
0
LINE
8
Layer 1
10
132.652720
20
84.680200
11
132.611520
21
84.096610
0
LINE
8
Layer 1
10
132.611520
20
84.096610
11
132.841890
21
81.972570
0
LINE
8
Layer 1
10
132.841890
20
81.972570
11
133.258781
21
77.709945
0
LINE
8
Layer 1
10
133.258781
20
77.709945
11
133.400340
21
74.538420
0
LINE
8
Layer 1
10
133.400340
20
74.538420
11
133.452140
21
72.148870
0
LINE
8
Layer 1
10
133.452140
20
72.148870
11
133.346130
21
70.954100
0
LINE
8
Layer 1
10
133.346130
20
70.954100
11
132.999868
21
68.544044
0
LINE
8
Layer 1
10
132.999868
20
68.544044
11
132.393250
21
66.428970
0
LINE
8
Layer 1
10
132.393250
20
66.428970
11
131.483594
21
64.494901
0
LINE
8
Layer 1
10
131.483594
20
64.494901
11
130.228220
21
62.627860
0
LINE
8
Layer 1
10
130.228220
20
62.627860
11
129.585660
21
61.794170
0
LINE
8
Layer 1
10
129.585660
20
61.794170
11
127.588350
21
59.802880
0
LINE
8
Layer 1
10
127.588350
20
59.802880
11
125.336280
21
57.433470
0
LINE
8
Layer 1
10
125.336280
20
57.433470
11
125.081510
21
57.055360
0
LINE
8
Layer 1
10
125.081510
20
57.055360
11
125.193580
21
56.681210
0
LINE
8
Layer 1
10
125.193580
20
56.681210
11
125.712330
21
55.510440
0
LINE
8
Layer 1
10
125.712330
20
55.510440
11
126.862070
21
53.465560
0
LINE
8
Layer 1
10
126.862070
20
53.465560
11
129.305052
21
49.048714
0
LINE
8
Layer 1
10
129.305052
20
49.048714
11
131.168210
21
45.158510
0
LINE
8
Layer 1
10
131.168210
20
45.158510
11
131.582210
21
44.187650
0
LINE
8
Layer 1
10
131.582210
20
44.187650
11
132.108530
21
42.326450
0
LINE
8
Layer 1
10
132.108530
20
42.326450
11
132.787690
21
39.665975
0
LINE
8
Layer 1
10
132.787690
20
39.665975
11
133.125210
21
37.367690
0
LINE
8
Layer 1
10
133.125210
20
37.367690
11
133.276040
21
35.951660
0
LINE
8
Layer 1
10
133.276040
20
35.951660
11
133.281040
21
33.517860
0
LINE
8
Layer 1
10
133.281040
20
33.517860
11
133.286040
21
31.084060
0
LINE
8
Layer 1
10
133.286040
20
31.084060
11
133.172460
21
30.199050
0
LINE
8
Layer 1
10
133.172460
20
30.199050
11
132.752930
21
27.853750
0
LINE
8
Layer 1
10
132.752930
20
27.853750
11
132.394910
21
25.549630
0
LINE
8
Layer 1
10
132.394910
20
25.549630
11
132.342810
21
24.705800
0
LINE
8
Layer 1
10
132.342810
20
24.705800
11
132.486570
21
24.211280
0
LINE
8
Layer 1
10
132.486570
20
24.211280
11
133.006270
21
23.153780
0
LINE
8
Layer 1
10
133.006270
20
23.153780
11
133.382230
21
22.590800
0
LINE
8
Layer 1
10
133.382230
20
22.590800
11
135.153250
21
20.774250
0
LINE
8
Layer 1
10
135.153250
20
20.774250
11
137.468085
21
18.273875
0
LINE
8
Layer 1
10
137.468085
20
18.273875
11
139.221770
21
16.007530
0
LINE
8
Layer 1
10
139.221770
20
16.007530
11
140.616510
21
14.237490
0
LINE
8
Layer 1
10
140.616510
20
14.237490
11
141.627650
21
13.013890
0
LINE
8
Layer 1
10
141.627650
20
13.013890
11
142.019680
21
12.467060
0
LINE
8
Layer 1
10
142.019680
20
12.467060
11
141.966280
21
12.254220
0
LINE
8
Layer 1
10
141.966280
20
12.254220
11
141.912880
21
12.041380
0
LINE
8
Layer 1
10
141.912880
20
12.041380
11
142.095780
21
11.498440
0
LINE
8
Layer 1
10
142.095780
20
11.498440
11
142.278680
21
10.698040
0
LINE
8
Layer 1
10
142.278680
20
10.698040
11
142.278000
21
10.440600
0
LINE
8
Layer 1
10
142.278000
20
10.440600
11
142.419890
21
10.322840
0
LINE
8
Layer 1
10
142.419890
20
10.322840
11
142.561780
21
10.205080
0
LINE
8
Layer 1
10
142.561780
20
10.205080
11
142.526380
21
9.648870
0
LINE
8
Layer 1
10
142.526380
20
9.648870
11
142.490980
21
9.092660
0
LINE
8
Layer 1
10
142.490980
20
9.092660
11
142.218060
21
8.804400
0
LINE
8
Layer 1
10
142.218060
20
8.804400
11
141.272820
21
7.575670
0
LINE
8
Layer 1
10
141.272820
20
7.575670
11
140.358710
21
6.443256
0
LINE
8
Layer 1
10
140.358710
20
6.443256
11
139.584520
21
5.895640
0
LINE
8
Layer 1
10
139.584520
20
5.895640
11
139.224720
21
5.732220
0
LINE
8
Layer 1
10
139.224720
20
5.732220
11
138.664330
21
5.730220
0
LINE
8
Layer 1
10
138.664330
20
5.730220
11
138.103930
21
5.728220
0
LINE
8
Layer 1
10
138.103930
20
5.728220
11
137.425310
21
5.964960
0
LINE
8
Layer 1
10
137.425310
20
5.964960
11
136.746670
21
6.201690
0
LINE
8
Layer 1
10
136.746670
20
6.201690
11
136.038660
21
6.195690
0
LINE
8
Layer 1
10
136.038660
20
6.195690
11
133.516360
21
6.004580
0
LINE
8
Layer 1
10
133.516360
20
6.004580
11
130.054210
21
5.728850
0
LINE
8
Layer 1
10
130.054210
20
5.728850
11
128.406340
21
5.638550
0
LINE
8
Layer 1
10
128.406340
20
5.638550
11
127.620410
21
5.427000
0
LINE
8
Layer 1
10
127.620410
20
5.427000
11
126.120530
21
4.948630
0
LINE
8
Layer 1
10
126.120530
20
4.948630
11
125.406570
21
4.681800
0
LINE
8
Layer 1
10
125.406570
20
4.681800
11
124.483240
21
4.544170
0
LINE
8
Layer 1
10
124.483240
20
4.544170
11
122.276640
21
4.308450
0
LINE
8
Layer 1
10
122.276640
20
4.308450
11
120.384921
21
4.075543
0
LINE
8
Layer 1
10
120.384921
20
4.075543
11
119.181426
21
3.635290
0
LINE
8
Layer 1
10
119.181426
20
3.635290
11
118.441350
21
2.845402
0
LINE
8
Layer 1
10
118.441350
20
2.845402
11
117.939890
21
1.563590
0
LINE
8
Layer 1
10
117.939890
20
1.563590
11
117.588100
21
0.685950
0
LINE
8
Layer 1
10
117.588100
20
0.685950
11
117.430280
21
0.476730
0
LINE
8
Layer 1
10
117.430280
20
0.476730
11
117.132030
21
0.479730
0
LINE
8
Layer 1
10
117.132030
20
0.479730
11
116.833780
21
0.482730
0
LINE
8
Layer 1
10
116.833780
20
0.482730
11
116.612530
21
0.279070
0
LINE
8
Layer 1
10
116.612530
20
0.279070
11
116.210706
21
0.049200
0
LINE
8
Layer 1
10
116.210706
20
0.049200
11
115.793890
21
0.033620
0
LINE
8
Layer 1
10
115.793890
20
0.033620
11
115.793000
21
0.034300
0
LINE
8
Layer 1
10
40.492200
20
6.247400
11
40.864464
21
6.469704
0
LINE
8
Layer 1
10
40.864464
20
6.469704
11
41.087244
21
7.061495
0
LINE
8
Layer 1
10
41.087244
20
7.061495
11
41.295752
21
10.462430
0
LINE
8
Layer 1
10
41.295752
20
10.462430
11
41.525076
21
15.684030
0
LINE
8
Layer 1
10
41.525076
20
15.684030
11
41.667913
21
17.896570
0
LINE
8
Layer 1
10
41.667913
20
17.896570
11
41.615963
21
18.540860
0
LINE
8
Layer 1
10
41.615963
20
18.540860
11
41.453985
21
19.401745
0
LINE
8
Layer 1
10
41.453985
20
19.401745
11
40.986713
21
19.932520
0
LINE
8
Layer 1
10
40.986713
20
19.932520
11
39.982955
21
20.269577
0
LINE
8
Layer 1
10
39.982955
20
20.269577
11
38.211523
21
20.549310
0
LINE
8
Layer 1
10
38.211523
20
20.549310
11
33.287293
21
21.443640
0
LINE
8
Layer 1
10
33.287293
20
21.443640
11
31.967748
21
21.630939
0
LINE
8
Layer 1
10
31.967748
20
21.630939
11
30.708432
21
21.524914
0
LINE
8
Layer 1
10
30.708432
20
21.524914
11
29.458548
21
21.115122
0
LINE
8
Layer 1
10
29.458548
20
21.115122
11
28.167303
21
20.391120
0
LINE
8
Layer 1
10
28.167303
20
20.391120
11
27.357677
21
19.852160
0
LINE
8
Layer 1
10
27.357677
20
19.852160
11
26.383276
21
18.874370
0
LINE
8
Layer 1
10
26.383276
20
18.874370
11
24.341711
21
16.467969
0
LINE
8
Layer 1
10
24.341711
20
16.467969
11
23.524041
21
15.339607
0
LINE
8
Layer 1
10
23.524041
20
15.339607
11
23.255736
21
14.800370
0
LINE
8
Layer 1
10
23.255736
20
14.800370
11
23.999291
21
15.034360
0
LINE
8
Layer 1
10
23.999291
20
15.034360
11
24.702624
21
15.308580
0
LINE
8
Layer 1
10
24.702624
20
15.308580
11
25.454889
21
15.351680
0
LINE
8
Layer 1
10
25.454889
20
15.351680
11
26.207154
21
15.394780
0
LINE
8
Layer 1
10
26.207154
20
15.394780
11
26.579565
21
15.293650
0
LINE
8
Layer 1
10
26.579565
20
15.293650
11
27.331830
21
14.904150
0
LINE
8
Layer 1
10
27.331830
20
14.904150
11
27.711684
21
14.615790
0
LINE
8
Layer 1
10
27.711684
20
14.615790
11
27.970793
21
14.135400
0
LINE
8
Layer 1
10
27.970793
20
14.135400
11
28.229903
21
13.655010
0
LINE
8
Layer 1
10
28.229903
20
13.655010
11
28.268643
21
12.985800
0
LINE
8
Layer 1
10
28.268643
20
12.985800
11
28.307383
21
12.316610
0
LINE
8
Layer 1
10
28.307383
20
12.316610
11
28.162549
21
11.743560
0
LINE
8
Layer 1
10
28.162549
20
11.743560
11
27.167443
21
9.514680
0
LINE
8
Layer 1
10
27.167443
20
9.514680
11
27.076510
21
9.229561
0
LINE
8
Layer 1
10
27.076510
20
9.229561
11
27.414073
21
9.351130
0
LINE
8
Layer 1
10
27.414073
20
9.351130
11
27.977190
21
9.535300
0
LINE
8
Layer 1
10
27.977190
20
9.535300
11
28.242695
21
9.538300
0
LINE
8
Layer 1
10
28.242695
20
9.538300
11
28.585102
21
10.261390
0
LINE
8
Layer 1
10
28.585102
20
10.261390
11
28.927507
21
10.984480
0
LINE
8
Layer 1
10
28.927507
20
10.984480
11
29.824126
21
11.883640
0
LINE
8
Layer 1
10
29.824126
20
11.883640
11
30.720744
21
12.782800
0
LINE
8
Layer 1
10
30.720744
20
12.782800
11
31.322174
21
13.075080
0
LINE
8
Layer 1
10
31.322174
20
13.075080
11
31.923603
21
13.367350
0
LINE
8
Layer 1
10
31.923603
20
13.367350
11
31.860983
21
13.508090
0
LINE
8
Layer 1
10
31.860983
20
13.508090
11
31.759527
21
13.976670
0
LINE
8
Layer 1
10
31.759527
20
13.976670
11
31.720687
21
14.304530
0
LINE
8
Layer 1
10
31.720687
20
14.304530
11
31.953032
21
14.519850
0
LINE
8
Layer 1
10
31.953032
20
14.519850
11
32.568770
21
14.854964
0
LINE
8
Layer 1
10
32.568770
20
14.854964
11
33.317218
21
14.936570
0
LINE
8
Layer 1
10
33.317218
20
14.936570
11
34.053946
21
14.772671
0
LINE
8
Layer 1
10
34.053946
20
14.772671
11
34.634522
21
14.371270
0
LINE
8
Layer 1
10
34.634522
20
14.371270
11
34.916971
21
14.049580
0
LINE
8
Layer 1
10
34.916971
20
14.049580
11
35.053522
21
13.589760
0
LINE
8
Layer 1
10
35.053522
20
13.589760
11
35.190074
21
13.129940
0
LINE
8
Layer 1
10
35.190074
20
13.129940
11
35.190200
21
11.868500
0
LINE
8
Layer 1
10
35.190200
20
11.868500
11
35.190200
21
10.607100
0
LINE
8
Layer 1
10
35.190200
20
10.607100
11
35.324339
21
9.969420
0
LINE
8
Layer 1
10
35.324339
20
9.969420
11
35.736557
21
8.746730
0
LINE
8
Layer 1
10
35.736557
20
8.746730
11
36.014634
21
8.161730
0
LINE
8
Layer 1
10
36.014634
20
8.161730
11
36.642313
21
7.535180
0
LINE
8
Layer 1
10
36.642313
20
7.535180
11
37.269991
21
6.908620
0
LINE
8
Layer 1
10
37.269991
20
6.908620
11
37.789897
21
6.664480
0
LINE
8
Layer 1
10
37.789897
20
6.664480
11
39.229116
21
6.239350
0
LINE
8
Layer 1
10
39.229116
20
6.239350
11
40.492327
21
6.247750
0
LINE
8
Layer 1
10
40.492327
20
6.247750
11
40.492200
21
6.247400
0
LINE
8
Layer 1
10
93.170200
20
96.511900
11
95.785135
21
99.779506
0
LINE
8
Layer 1
10
95.785135
20
99.779506
11
101.779510
21
107.892300
0
LINE
8
Layer 1
10
101.779510
20
107.892300
11
107.701159
21
116.199026
0
LINE
8
Layer 1
10
107.701159
20
116.199026
11
109.115054
21
118.445710
0
LINE
8
Layer 1
10
109.115054
20
118.445710
11
109.876460
21
119.987100
0
LINE
8
Layer 1
10
109.876460
20
119.987100
11
110.142370
21
120.654670
0
LINE
8
Layer 1
10
110.142370
20
120.654670
11
110.323580
21
121.661030
0
LINE
8
Layer 1
10
110.323580
20
121.661030
11
110.504790
21
122.667400
0
LINE
8
Layer 1
10
110.504790
20
122.667400
11
110.681970
21
122.967690
0
LINE
8
Layer 1
10
110.681970
20
122.967690
11
110.841301
21
123.345004
0
LINE
8
Layer 1
10
110.841301
20
123.345004
11
110.579710
21
123.529140
0
LINE
8
Layer 1
10
110.579710
20
123.529140
11
109.549512
21
124.144447
0
LINE
8
Layer 1
10
109.549512
20
124.144447
11
108.071340
21
125.250750
0
LINE
8
Layer 1
10
108.071340
20
125.250750
11
106.115561
21
126.639060
0
LINE
8
Layer 1
10
106.115561
20
126.639060
11
103.739226
21
128.098154
0
LINE
8
Layer 1
10
103.739226
20
128.098154
11
101.595791
21
129.250481
0
LINE
8
Layer 1
10
101.595791
20
129.250481
11
100.338710
21
129.718490
0
LINE
8
Layer 1
10
100.338710
20
129.718490
11
100.171000
21
129.719000
0
LINE
8
Layer 1
10
100.171000
20
129.719000
11
100.124700
21
129.542000
0
LINE
8
Layer 1
10
100.124700
20
129.542000
11
100.078400
21
129.364990
0
LINE
8
Layer 1
10
100.078400
20
129.364990
11
99.592900
21
129.365000
0
LINE
8
Layer 1
10
99.592900
20
129.365000
11
98.416260
21
129.507920
0
LINE
8
Layer 1
10
98.416260
20
129.507920
11
97.725190
21
129.650830
0
LINE
8
Layer 1
10
97.725190
20
129.650830
11
97.012880
21
129.613430
0
LINE
8
Layer 1
10
97.012880
20
129.613430
11
96.300580
21
129.576030
0
LINE
8
Layer 1
10
96.300580
20
129.576030
11
95.725320
21
129.273550
0
LINE
8
Layer 1
10
95.725320
20
129.273550
11
95.150050
21
128.971080
0
LINE
8
Layer 1
10
95.150050
20
128.971080
11
94.305900
21
128.128150
0
LINE
8
Layer 1
10
94.305900
20
128.128150
11
92.939452
21
126.567562
0
LINE
8
Layer 1
10
92.939452
20
126.567562
11
91.272899
21
124.211430
0
LINE
8
Layer 1
10
91.272899
20
124.211430
11
85.837880
21
115.290950
0
LINE
8
Layer 1
10
85.837880
20
115.290950
11
80.819640
21
107.062540
0
LINE
8
Layer 1
10
80.819640
20
107.062540
11
79.800240
21
105.577010
0
LINE
8
Layer 1
10
79.800240
20
105.577010
11
79.363230
21
104.932240
0
LINE
8
Layer 1
10
79.363230
20
104.932240
11
79.219840
21
104.426490
0
LINE
8
Layer 1
10
79.219840
20
104.426490
11
78.446020
21
102.613820
0
LINE
8
Layer 1
10
78.446020
20
102.613820
11
77.815594
21
101.306900
0
LINE
8
Layer 1
10
77.815594
20
101.306900
11
77.906664
21
101.215800
0
LINE
8
Layer 1
10
77.906664
20
101.215800
11
77.997734
21
101.124700
0
LINE
8
Layer 1
10
77.997734
20
101.124700
11
78.448178
21
101.302250
0
LINE
8
Layer 1
10
78.448178
20
101.302250
11
83.218380
21
103.706996
0
LINE
8
Layer 1
10
83.218380
20
103.706996
11
88.999178
21
107.022910
0
LINE
8
Layer 1
10
88.999178
20
107.022910
11
92.029489
21
109.034792
0
LINE
8
Layer 1
10
92.029489
20
109.034792
11
94.536894
21
110.986483
0
LINE
8
Layer 1
10
94.536894
20
110.986483
11
96.650183
21
112.988172
0
LINE
8
Layer 1
10
96.650183
20
112.988172
11
98.498148
21
115.150050
0
LINE
8
Layer 1
10
98.498148
20
115.150050
11
99.449798
21
116.376280
0
LINE
8
Layer 1
10
99.449798
20
116.376280
11
99.589958
21
116.550800
0
LINE
8
Layer 1
10
99.589958
20
116.550800
11
99.759558
21
116.516200
0
LINE
8
Layer 1
10
99.759558
20
116.516200
11
99.929148
21
116.481600
0
LINE
8
Layer 1
10
99.929148
20
116.481600
11
99.917248
21
116.207660
0
LINE
8
Layer 1
10
99.917248
20
116.207660
11
99.336324
21
114.525870
0
LINE
8
Layer 1
10
99.336324
20
114.525870
11
97.760158
21
110.910850
0
LINE
8
Layer 1
10
97.760158
20
110.910850
11
95.755830
21
106.254722
0
LINE
8
Layer 1
10
95.755830
20
106.254722
11
94.030456
21
101.812128
0
LINE
8
Layer 1
10
94.030456
20
101.812128
11
92.820612
21
98.229870
0
LINE
8
Layer 1
10
92.820612
20
98.229870
11
92.362878
21
96.154750
0
LINE
8
Layer 1
10
92.362878
20
96.154750
11
92.361988
21
95.911370
0
LINE
8
Layer 1
10
92.361988
20
95.911370
11
92.484000
21
95.910900
0
LINE
8
Layer 1
10
92.484000
20
95.910900
11
93.169890
21
96.511940
0
LINE
8
Layer 1
10
93.169890
20
96.511940
11
93.170200
21
96.511900
0
LINE
8
Layer 1
10
147.907500
20
111.934100
11
148.930731
21
112.610527
0
LINE
8
Layer 1
10
148.930731
20
112.610527
11
150.256512
21
113.854459
0
LINE
8
Layer 1
10
150.256512
20
113.854459
11
151.791180
21
115.569021
0
LINE
8
Layer 1
10
151.791180
20
115.569021
11
153.441070
21
117.657340
0
LINE
8
Layer 1
10
153.441070
20
117.657340
11
156.741340
21
121.709100
0
LINE
8
Layer 1
10
156.741340
20
121.709100
11
163.500110
21
129.864210
0
LINE
8
Layer 1
10
163.500110
20
129.864210
11
165.471190
21
132.522868
0
LINE
8
Layer 1
10
165.471190
20
132.522868
11
166.614150
21
134.276350
0
LINE
8
Layer 1
10
166.614150
20
134.276350
11
166.874850
21
134.807360
0
LINE
8
Layer 1
10
166.874850
20
134.807360
11
166.978510
21
135.422630
0
LINE
8
Layer 1
10
166.978510
20
135.422630
11
167.082160
21
136.037890
0
LINE
8
Layer 1
10
167.082160
20
136.037890
11
167.028760
21
137.059910
0
LINE
8
Layer 1
10
167.028760
20
137.059910
11
166.975460
21
138.081920
0
LINE
8
Layer 1
10
166.975460
20
138.081920
11
166.753690
21
139.099700
0
LINE
8
Layer 1
10
166.753690
20
139.099700
11
165.252200
21
146.559770
0
LINE
8
Layer 1
10
165.252200
20
146.559770
11
164.931240
21
148.222990
0
LINE
8
Layer 1
10
164.931240
20
148.222990
11
164.481620
21
149.590800
0
LINE
8
Layer 1
10
164.481620
20
149.590800
11
164.031990
21
150.958610
0
LINE
8
Layer 1
10
164.031990
20
150.958610
11
163.473740
21
152.087170
0
LINE
8
Layer 1
10
163.473740
20
152.087170
11
162.163653
21
154.248517
0
LINE
8
Layer 1
10
162.163653
20
154.248517
11
160.569155
21
155.991759
0
LINE
8
Layer 1
10
160.569155
20
155.991759
11
158.665394
21
157.338849
0
LINE
8
Layer 1
10
158.665394
20
157.338849
11
156.427520
21
158.311740
0
LINE
8
Layer 1
10
156.427520
20
158.311740
11
155.331290
21
158.672020
0
LINE
8
Layer 1
10
155.331290
20
158.672020
11
154.752490
21
158.720820
0
LINE
8
Layer 1
10
154.752490
20
158.720820
11
154.173680
21
158.769620
0
LINE
8
Layer 1
10
154.173680
20
158.769620
11
153.778970
21
158.571450
0
LINE
8
Layer 1
10
153.778970
20
158.571450
11
152.848349
21
157.974639
0
LINE
8
Layer 1
10
152.848349
20
157.974639
11
151.287229
21
156.668551
0
LINE
8
Layer 1
10
151.287229
20
156.668551
11
144.180670
21
150.076240
0
LINE
8
Layer 1
10
144.180670
20
150.076240
11
138.218117
21
144.287975
0
LINE
8
Layer 1
10
138.218117
20
144.287975
11
137.152775
21
142.991507
0
LINE
8
Layer 1
10
137.152775
20
142.991507
11
136.878670
21
142.238430
0
LINE
8
Layer 1
10
136.878670
20
142.238430
11
138.734630
21
133.701070
0
LINE
8
Layer 1
10
138.734630
20
133.701070
11
139.584246
21
129.930087
0
LINE
8
Layer 1
10
139.584246
20
129.930087
11
140.059860
21
127.151940
0
LINE
8
Layer 1
10
140.059860
20
127.151940
11
140.320140
21
125.426160
0
LINE
8
Layer 1
10
140.320140
20
125.426160
11
140.553910
21
124.718140
0
LINE
8
Layer 1
10
140.553910
20
124.718140
11
141.750317
21
122.064604
0
LINE
8
Layer 1
10
141.750317
20
122.064604
11
143.783320
21
118.693730
0
LINE
8
Layer 1
10
143.783320
20
118.693730
11
144.422240
21
117.726510
0
LINE
8
Layer 1
10
144.422240
20
117.726510
11
145.552440
21
115.425460
0
LINE
8
Layer 1
10
145.552440
20
115.425460
11
146.996490
21
112.438530
0
LINE
8
Layer 1
10
146.996490
20
112.438530
11
147.365015
21
111.804976
0
LINE
8
Layer 1
10
147.365015
20
111.804976
11
147.907510
21
111.934090
0
LINE
8
Layer 1
10
147.907510
20
111.934090
11
147.907500
21
111.934100
0
LINE
8
Layer 1
10
28.255300
20
115.297000
11
27.676208
21
116.823660
0
LINE
8
Layer 1
10
27.676208
20
116.823660
11
26.998872
21
118.656260
0
LINE
8
Layer 1
10
26.998872
20
118.656260
11
26.846764
21
119.231520
0
LINE
8
Layer 1
10
26.846764
20
119.231520
11
26.840764
21
119.895280
0
LINE
8
Layer 1
10
26.840764
20
119.895280
11
26.834764
21
120.559050
0
LINE
8
Layer 1
10
26.834764
20
120.559050
11
26.992758
21
121.023750
0
LINE
8
Layer 1
10
26.992758
20
121.023750
11
27.150752
21
121.488460
0
LINE
8
Layer 1
10
27.150752
20
121.488460
11
27.634741
21
122.107020
0
LINE
8
Layer 1
10
27.634741
20
122.107020
11
29.489061
21
125.133490
0
LINE
8
Layer 1
10
29.489061
20
125.133490
11
30.104093
21
126.223160
0
LINE
8
Layer 1
10
30.104093
20
126.223160
11
30.394292
21
126.665670
0
LINE
8
Layer 1
10
30.394292
20
126.665670
11
30.577397
21
127.594939
0
LINE
8
Layer 1
10
30.577397
20
127.594939
11
30.871827
21
129.276469
0
LINE
8
Layer 1
10
30.871827
20
129.276469
11
30.983152
21
130.028739
0
LINE
8
Layer 1
10
30.983152
20
130.028739
11
30.988852
21
136.843369
0
LINE
8
Layer 1
10
30.988852
20
136.843369
11
30.994552
21
143.657999
0
LINE
8
Layer 1
10
30.994552
20
143.657999
11
31.135882
21
144.117339
0
LINE
8
Layer 1
10
31.135882
20
144.117339
11
31.715182
21
145.364756
0
LINE
8
Layer 1
10
31.715182
20
145.364756
11
33.100192
21
147.270809
0
LINE
8
Layer 1
10
33.100192
20
147.270809
11
34.797332
21
149.532089
0
LINE
8
Layer 1
10
34.797332
20
149.532089
11
35.176236
21
150.096059
0
LINE
8
Layer 1
10
35.176236
20
150.096059
11
35.129456
21
150.217969
0
LINE
8
Layer 1
10
35.129456
20
150.217969
11
35.012526
21
150.339889
0
LINE
8
Layer 1
10
35.012526
20
150.339889
11
33.850556
21
151.822289
0
LINE
8
Layer 1
10
33.850556
20
151.822289
11
31.445887
21
154.853500
0
LINE
8
Layer 1
10
31.445887
20
154.853500
11
29.177827
21
157.269321
0
LINE
8
Layer 1
10
29.177827
20
157.269321
11
27.187000
21
158.934989
0
LINE
8
Layer 1
10
27.187000
20
158.934989
11
26.339492
21
159.444401
0
LINE
8
Layer 1
10
26.339492
20
159.444401
11
25.614026
21
159.715739
0
LINE
8
Layer 1
10
25.614026
20
159.715739
11
25.197887
21
159.808439
0
LINE
8
Layer 1
10
25.197887
20
159.808439
11
24.987360
21
159.728439
0
LINE
8
Layer 1
10
24.987360
20
159.728439
11
22.617545
21
157.404922
0
LINE
8
Layer 1
10
22.617545
20
157.404922
11
19.868950
21
154.437259
0
LINE
8
Layer 1
10
19.868950
20
154.437259
11
18.740143
21
152.882636
0
LINE
8
Layer 1
10
18.740143
20
152.882636
11
17.871559
21
151.317903
0
LINE
8
Layer 1
10
17.871559
20
151.317903
11
17.160705
21
149.525190
0
LINE
8
Layer 1
10
17.160705
20
149.525190
11
16.505090
21
147.286629
0
LINE
8
Layer 1
10
16.505090
20
147.286629
11
15.590308
21
144.189069
0
LINE
8
Layer 1
10
15.590308
20
144.189069
11
15.114911
21
142.773049
0
LINE
8
Layer 1
10
15.114911
20
142.773049
11
14.753090
21
140.914509
0
LINE
8
Layer 1
10
14.753090
20
140.914509
11
13.991061
21
136.046909
0
LINE
8
Layer 1
10
13.991061
20
136.046909
11
13.932421
21
135.427399
0
LINE
8
Layer 1
10
13.932421
20
135.427399
11
14.240308
21
134.848529
0
LINE
8
Layer 1
10
14.240308
20
134.848529
11
17.036027
21
130.462389
0
LINE
8
Layer 1
10
17.036027
20
130.462389
11
21.641717
21
123.792227
0
LINE
8
Layer 1
10
21.641717
20
123.792227
11
26.042077
21
117.695016
0
LINE
8
Layer 1
10
26.042077
20
117.695016
11
27.535477
21
115.754071
0
LINE
8
Layer 1
10
27.535477
20
115.754071
11
28.221808
21
115.027729
0
LINE
8
Layer 1
10
28.221808
20
115.027729
11
28.309100
21
115.027000
0
LINE
8
Layer 1
10
28.309100
20
115.027000
11
28.255300
21
115.297000
0
LINE
8
Layer 1
10
56.812500
20
0.151000
11
56.522283
21
0.429574
0
LINE
8
Layer 1
10
56.522283
20
0.429574
11
56.430582
21
0.969920
0
LINE
8
Layer 1
10
56.430582
20
0.969920
11
56.430600
21
1.356340
0
LINE
8
Layer 1
10
56.430600
20
1.356340
11
56.681242
21
1.749800
0
LINE
8
Layer 1
10
56.681242
20
1.749800
11
57.287885
21
2.456503
0
LINE
8
Layer 1
10
57.287885
20
2.456503
11
58.036512
21
2.990600
0
LINE
8
Layer 1
10
58.036512
20
2.990600
11
58.411376
21
3.181840
0
LINE
8
Layer 1
10
58.411376
20
3.181840
11
59.035904
21
3.260240
0
LINE
8
Layer 1
10
59.035904
20
3.260240
11
59.660432
21
3.338640
0
LINE
8
Layer 1
10
59.660432
20
3.338640
11
60.133106
21
3.569900
0
LINE
8
Layer 1
10
60.133106
20
3.569900
11
61.244935
21
4.379014
0
LINE
8
Layer 1
10
61.244935
20
4.379014
11
62.410447
21
5.694647
0
LINE
8
Layer 1
10
62.410447
20
5.694647
11
63.579515
21
7.417219
0
LINE
8
Layer 1
10
63.579515
20
7.417219
11
64.702010
21
9.447147
0
LINE
8
Layer 1
10
64.702010
20
9.447147
11
65.727803
21
11.684851
0
LINE
8
Layer 1
10
65.727803
20
11.684851
11
66.606765
21
14.030749
0
LINE
8
Layer 1
10
66.606765
20
14.030749
11
67.288769
21
16.385259
0
LINE
8
Layer 1
10
67.288769
20
16.385259
11
67.723686
21
18.648800
0
LINE
8
Layer 1
10
67.723686
20
18.648800
11
67.872885
21
19.755070
0
LINE
8
Layer 1
10
67.872885
20
19.755070
11
67.871894
21
21.525100
0
LINE
8
Layer 1
10
67.871894
20
21.525100
11
67.870903
21
23.295140
0
LINE
8
Layer 1
10
67.870903
20
23.295140
11
67.726556
21
24.401410
0
LINE
8
Layer 1
10
67.726556
20
24.401410
11
67.310304
21
26.923710
0
LINE
8
Layer 1
10
67.310304
20
26.923710
11
67.038399
21
28.339740
0
LINE
8
Layer 1
10
67.038399
20
28.339740
11
66.988129
21
29.381290
0
LINE
8
Layer 1
10
66.988129
20
29.381290
11
66.937859
21
30.422850
0
LINE
8
Layer 1
10
66.937859
20
30.422850
11
67.096545
21
30.598190
0
LINE
8
Layer 1
10
67.096545
20
30.598190
11
67.460159
21
30.764309
0
LINE
8
Layer 1
10
67.460159
20
30.764309
11
67.944849
21
30.571590
0
LINE
8
Layer 1
10
67.944849
20
30.571590
11
68.245568
21
30.369650
0
LINE
8
Layer 1
10
68.245568
20
30.369650
11
68.488323
21
29.929960
0
LINE
8
Layer 1
10
68.488323
20
29.929960
11
69.054710
21
28.416871
0
LINE
8
Layer 1
10
69.054710
20
28.416871
11
69.430472
21
26.380158
0
LINE
8
Layer 1
10
69.430472
20
26.380158
11
69.620131
21
23.969910
0
LINE
8
Layer 1
10
69.620131
20
23.969910
11
69.628208
21
21.336211
0
LINE
8
Layer 1
10
69.628208
20
21.336211
11
69.459226
21
18.629150
0
LINE
8
Layer 1
10
69.459226
20
18.629150
11
69.117705
21
15.998814
0
LINE
8
Layer 1
10
69.117705
20
15.998814
11
68.608167
21
13.595288
0
LINE
8
Layer 1
10
68.608167
20
13.595288
11
67.935134
21
11.568660
0
LINE
8
Layer 1
10
67.935134
20
11.568660
11
67.450966
21
10.327290
0
LINE
8
Layer 1
10
67.450966
20
10.327290
11
67.395536
21
10.103680
0
LINE
8
Layer 1
10
67.395536
20
10.103680
11
67.599296
21
9.915380
0
LINE
8
Layer 1
10
67.599296
20
9.915380
11
68.348216
21
9.601640
0
LINE
8
Layer 1
10
68.348216
20
9.601640
11
70.281106
21
9.429950
0
LINE
8
Layer 1
10
70.281106
20
9.429950
11
72.051146
21
9.331050
0
LINE
8
Layer 1
10
72.051146
20
9.331050
11
81.874836
21
9.431490
0
LINE
8
Layer 1
10
81.874836
20
9.431490
11
91.698526
21
9.531930
0
LINE
8
Layer 1
10
91.698526
20
9.531930
11
92.351226
21
9.623830
0
LINE
8
Layer 1
10
92.351226
20
9.623830
11
93.010193
21
9.743478
0
LINE
8
Layer 1
10
93.010193
20
9.743478
11
93.291538
21
9.926884
0
LINE
8
Layer 1
10
93.291538
20
9.926884
11
93.238620
21
10.274928
0
LINE
8
Layer 1
10
93.238620
20
10.274928
11
92.894796
21
10.888490
0
LINE
8
Layer 1
10
92.894796
20
10.888490
11
92.272356
21
12.143910
0
LINE
8
Layer 1
10
92.272356
20
12.143910
11
92.090936
21
12.674920
0
LINE
8
Layer 1
10
92.090936
20
12.674920
11
91.911856
21
14.088570
0
LINE
8
Layer 1
10
91.911856
20
14.088570
11
91.701937
21
15.441649
0
LINE
8
Layer 1
10
91.701937
20
15.441649
11
91.577496
21
15.547862
0
LINE
8
Layer 1
10
91.577496
20
15.547862
11
91.358136
21
15.479700
0
LINE
8
Layer 1
10
91.358136
20
15.479700
11
90.727146
21
15.374220
0
LINE
8
Layer 1
10
90.727146
20
15.374220
11
90.387800
21
15.374200
0
LINE
8
Layer 1
10
90.387800
20
15.374200
11
90.051060
21
15.728190
0
LINE
8
Layer 1
10
90.051060
20
15.728190
11
89.714320
21
16.082180
0
LINE
8
Layer 1
10
89.714320
20
16.082180
11
89.539060
21
16.649600
0
LINE
8
Layer 1
10
89.539060
20
16.649600
11
89.261640
21
18.132020
0
LINE
8
Layer 1
10
89.261640
20
18.132020
11
89.159470
21
19.047030
0
LINE
8
Layer 1
10
89.159470
20
19.047030
11
89.217370
21
19.932040
0
LINE
8
Layer 1
10
89.217370
20
19.932040
11
89.472178
21
21.984255
0
LINE
8
Layer 1
10
89.472178
20
21.984255
11
89.926729
21
23.680206
0
LINE
8
Layer 1
10
89.926729
20
23.680206
11
90.548010
21
24.929519
0
LINE
8
Layer 1
10
90.548010
20
24.929519
11
91.303010
21
25.641820
0
LINE
8
Layer 1
10
91.303010
20
25.641820
11
91.813096
21
26.047349
0
LINE
8
Layer 1
10
91.813096
20
26.047349
11
92.062010
21
26.600770
0
LINE
8
Layer 1
10
92.062010
20
26.600770
11
92.330990
21
27.297588
0
LINE
8
Layer 1
10
92.330990
20
27.297588
11
92.862080
21
27.498940
0
LINE
8
Layer 1
10
92.862080
20
27.498940
11
93.308330
21
27.339958
0
LINE
8
Layer 1
10
93.308330
20
27.339958
11
93.642292
21
26.917202
0
LINE
8
Layer 1
10
93.642292
20
26.917202
11
93.957359
21
25.605496
0
LINE
8
Layer 1
10
93.957359
20
25.605496
11
93.775286
21
24.214082
0
LINE
8
Layer 1
10
93.775286
20
24.214082
11
93.487824
21
23.691691
0
LINE
8
Layer 1
10
93.487824
20
23.691691
11
93.064080
21
23.393220
0
LINE
8
Layer 1
10
93.064080
20
23.393220
11
92.760520
21
23.295120
0
LINE
8
Layer 1
10
92.760520
20
23.295120
11
92.605780
21
22.985360
0
LINE
8
Layer 1
10
92.605780
20
22.985360
11
92.451040
21
22.675610
0
LINE
8
Layer 1
10
92.451040
20
22.675610
11
92.451000
21
22.293600
0
LINE
8
Layer 1
10
92.451000
20
22.293600
11
92.451000
21
21.911600
0
LINE
8
Layer 1
10
92.451000
20
21.911600
11
92.661060
21
21.629870
0
LINE
8
Layer 1
10
92.661060
20
21.629870
11
93.070539
21
20.713563
0
LINE
8
Layer 1
10
93.070539
20
20.713563
11
93.547390
21
18.825840
0
LINE
8
Layer 1
10
93.547390
20
18.825840
11
94.029303
21
16.948254
0
LINE
8
Layer 1
10
94.029303
20
16.948254
11
94.661440
21
15.438760
0
LINE
8
Layer 1
10
94.661440
20
15.438760
11
95.098690
21
14.533510
0
LINE
8
Layer 1
10
95.098690
20
14.533510
11
95.246020
21
13.869740
0
LINE
8
Layer 1
10
95.246020
20
13.869740
11
95.662720
21
12.148437
0
LINE
8
Layer 1
10
95.662720
20
12.148437
11
96.060370
21
11.059310
0
LINE
8
Layer 1
10
96.060370
20
11.059310
11
97.099833
21
9.066616
0
LINE
8
Layer 1
10
97.099833
20
9.066616
11
98.467071
21
7.144954
0
LINE
8
Layer 1
10
98.467071
20
7.144954
11
100.162414
21
5.293917
0
LINE
8
Layer 1
10
100.162414
20
5.293917
11
102.186190
21
3.513100
0
LINE
8
Layer 1
10
102.186190
20
3.513100
11
104.098700
21
1.894060
0
LINE
8
Layer 1
10
104.098700
20
1.894060
11
104.894910
21
0.978760
0
LINE
8
Layer 1
10
104.894910
20
0.978760
11
105.013800
21
0.699290
0
LINE
8
Layer 1
10
105.013800
20
0.699290
11
105.361870
21
0.640490
0
LINE
8
Layer 1
10
105.361870
20
0.640490
11
105.869630
21
0.464920
0
LINE
8
Layer 1
10
105.869630
20
0.464920
11
106.029340
21
0.348140
0
LINE
8
Layer 1
10
106.029340
20
0.348140
11
105.902200
21
0.194960
0
LINE
8
Layer 1
10
105.902200
20
0.194960
11
105.775070
21
0.041770
0
LINE
8
Layer 1
10
105.775070
20
0.041770
11
104.666520
21
0.102270
0
LINE
8
Layer 1
10
104.666520
20
0.102270
11
103.335285
21
0.233384
0
LINE
8
Layer 1
10
103.335285
20
0.233384
11
102.830760
21
0.455450
0
LINE
8
Layer 1
10
102.830760
20
0.455450
11
102.097690
21
1.019880
0
LINE
8
Layer 1
10
102.097690
20
1.019880
11
100.097474
21
2.588525
0
LINE
8
Layer 1
10
100.097474
20
2.588525
11
97.606000
21
4.869730
0
LINE
8
Layer 1
10
97.606000
20
4.869730
11
96.076800
21
6.357160
0
LINE
8
Layer 1
10
96.076800
20
6.357160
11
95.436540
21
6.657170
0
LINE
8
Layer 1
10
95.436540
20
6.657170
11
94.184955
21
7.071175
0
LINE
8
Layer 1
10
94.184955
20
7.071175
11
92.406750
21
7.315020
0
LINE
8
Layer 1
10
92.406750
20
7.315020
11
91.344730
21
7.407320
0
LINE
8
Layer 1
10
91.344730
20
7.407320
11
87.052400
21
7.407280
0
LINE
8
Layer 1
10
87.052400
20
7.407280
11
73.909900
21
7.232860
0
LINE
8
Layer 1
10
73.909900
20
7.232860
11
65.059760
21
7.058590
0
LINE
8
Layer 1
10
65.059760
20
7.058590
11
64.971220
21
6.933150
0
LINE
8
Layer 1
10
64.971220
20
6.933150
11
62.316190
21
3.452310
0
LINE
8
Layer 1
10
62.316190
20
3.452310
11
61.673315
21
2.762910
0
LINE
8
Layer 1
10
61.673315
20
2.762910
11
61.176614
21
2.464810
0
LINE
8
Layer 1
10
61.176614
20
2.464810
11
59.879234
21
1.876770
0
LINE
8
Layer 1
10
59.879234
20
1.876770
11
58.833208
21
1.411120
0
LINE
8
Layer 1
10
58.833208
20
1.411120
11
58.377804
21
1.046630
0
LINE
8
Layer 1
10
58.377804
20
1.046630
11
58.182052
21
0.742300
0
LINE
8
Layer 1
10
58.182052
20
0.742300
11
57.725373
21
0.416820
0
LINE
8
Layer 1
10
57.725373
20
0.416820
11
57.203629
21
0.182293
0
LINE
8
Layer 1
10
57.203629
20
0.182293
11
56.812684
21
0.150820
0
LINE
8
Layer 1
10
56.812684
20
0.150820
11
56.812500
21
0.151000
0
LINE
8
Layer 1
10
119.140700
20
18.759800
11
118.760276
21
19.551802
0
LINE
8
Layer 1
10
118.760276
20
19.551802
11
118.429477
21
20.700868
0
LINE
8
Layer 1
10
118.429477
20
20.700868
11
117.907351
21
24.163062
0
LINE
8
Layer 1
10
117.907351
20
24.163062
11
117.555515
21
29.332125
0
LINE
8
Layer 1
10
117.555515
20
29.332125
11
117.355160
21
36.393800
0
LINE
8
Layer 1
10
117.355160
20
36.393800
11
117.297760
21
39.933870
0
LINE
8
Layer 1
10
117.297760
20
39.933870
11
117.400400
21
42.361720
0
LINE
8
Layer 1
10
117.400400
20
42.361720
11
117.571315
21
45.171285
0
LINE
8
Layer 1
10
117.571315
20
45.171285
11
117.809640
21
46.415660
0
LINE
8
Layer 1
10
117.809640
20
46.415660
11
117.930230
21
46.704250
0
LINE
8
Layer 1
10
117.930230
20
46.704250
11
118.110000
21
46.703900
0
LINE
8
Layer 1
10
118.110000
20
46.703900
11
118.289000
21
46.703900
0
LINE
8
Layer 1
10
118.289000
20
46.703900
11
118.428060
21
46.491660
0
LINE
8
Layer 1
10
118.428060
20
46.491660
11
118.822750
21
45.615570
0
LINE
8
Layer 1
10
118.822750
20
45.615570
11
119.459050
21
44.217060
0
LINE
8
Layer 1
10
119.459050
20
44.217060
11
120.365710
21
42.735360
0
LINE
8
Layer 1
10
120.365710
20
42.735360
11
121.358769
21
41.024993
0
LINE
8
Layer 1
10
121.358769
20
41.024993
11
122.155994
21
39.118911
0
LINE
8
Layer 1
10
122.155994
20
39.118911
11
122.784985
21
36.938031
0
LINE
8
Layer 1
10
122.784985
20
36.938031
11
123.273340
21
34.403270
0
LINE
8
Layer 1
10
123.273340
20
34.403270
11
123.459940
21
33.207380
0
LINE
8
Layer 1
10
123.459940
20
33.207380
11
123.464940
21
30.552330
0
LINE
8
Layer 1
10
123.464940
20
30.552330
11
123.469940
21
27.897280
0
LINE
8
Layer 1
10
123.469940
20
27.897280
11
123.306460
21
26.923760
0
LINE
8
Layer 1
10
123.306460
20
26.923760
11
122.933180
21
25.125031
0
LINE
8
Layer 1
10
122.933180
20
25.125031
11
122.452857
21
23.699315
0
LINE
8
Layer 1
10
122.452857
20
23.699315
11
121.798524
21
22.491159
0
LINE
8
Layer 1
10
121.798524
20
22.491159
11
120.903210
21
21.345110
0
LINE
8
Layer 1
10
120.903210
20
21.345110
11
120.110617
21
20.301108
0
LINE
8
Layer 1
10
120.110617
20
20.301108
11
119.846520
21
19.357740
0
LINE
8
Layer 1
10
119.846520
20
19.357740
11
119.575049
21
18.582288
0
LINE
8
Layer 1
10
119.575049
20
18.582288
11
119.367167
21
18.542633
0
LINE
8
Layer 1
10
119.367167
20
18.542633
11
119.140040
21
18.759470
0
LINE
8
Layer 1
10
119.140040
20
18.759470
11
119.140700
21
18.759800
0
LINE
8
Layer 1
10
120.376280
20
24.269040
11
120.896227
21
25.482312
0
LINE
8
Layer 1
10
120.896227
20
25.482312
11
121.268777
21
26.746216
0
LINE
8
Layer 1
10
121.268777
20
26.746216
11
121.627710
21
29.667640
0
LINE
8
Layer 1
10
121.627710
20
29.667640
11
121.679710
21
30.995170
0
LINE
8
Layer 1
10
121.679710
20
30.995170
11
121.572450
21
32.101440
0
LINE
8
Layer 1
10
121.572450
20
32.101440
11
121.285436
21
34.159216
0
LINE
8
Layer 1
10
121.285436
20
34.159216
11
120.830590
21
36.168812
0
LINE
8
Layer 1
10
120.830590
20
36.168812
11
120.213849
21
38.108355
0
LINE
8
Layer 1
10
120.213849
20
38.108355
11
119.441150
21
39.955970
0
LINE
8
Layer 1
10
119.441150
20
39.955970
11
119.012100
21
40.863120
0
LINE
8
Layer 1
10
119.012100
20
40.863120
11
118.878000
21
40.862800
0
LINE
8
Layer 1
10
118.878000
20
40.862800
11
118.744000
21
40.862800
0
LINE
8
Layer 1
10
118.744000
20
40.862800
11
118.673600
21
40.530910
0
LINE
8
Layer 1
10
118.673600
20
40.530910
11
118.611700
21
36.791720
0
LINE
8
Layer 1
10
118.611700
20
36.791720
11
118.619700
21
33.384400
0
LINE
8
Layer 1
10
118.619700
20
33.384400
11
118.767650
21
30.331090
0
LINE
8
Layer 1
10
118.767650
20
30.331090
11
119.096907
21
24.577886
0
LINE
8
Layer 1
10
119.096907
20
24.577886
11
119.382380
21
22.909730
0
LINE
8
Layer 1
10
119.382380
20
22.909730
11
119.480780
21
22.789770
0
LINE
8
Layer 1
10
119.480780
20
22.789770
11
119.687370
21
23.042480
0
LINE
8
Layer 1
10
119.687370
20
23.042480
11
120.376110
21
24.268720
0
LINE
8
Layer 1
10
120.376110
20
24.268720
11
120.376280
21
24.269040
0
LINE
8
Layer 1
10
80.945480
20
52.141040
11
79.176661
21
52.757932
0
LINE
8
Layer 1
10
79.176661
20
52.757932
11
77.177797
21
53.846350
0
LINE
8
Layer 1
10
77.177797
20
53.846350
11
75.179501
21
55.261835
0
LINE
8
Layer 1
10
75.179501
20
55.261835
11
73.412380
21
56.859930
0
LINE
8
Layer 1
10
73.412380
20
56.859930
11
72.561153
21
57.747150
0
LINE
8
Layer 1
10
72.561153
20
57.747150
11
71.923227
21
58.701150
0
LINE
8
Layer 1
10
71.923227
20
58.701150
11
70.634333
21
61.051415
0
LINE
8
Layer 1
10
70.634333
20
61.051415
11
69.340517
21
64.103961
0
LINE
8
Layer 1
10
69.340517
20
64.103961
11
68.241634
21
67.334027
0
LINE
8
Layer 1
10
68.241634
20
67.334027
11
67.537537
21
70.216850
0
LINE
8
Layer 1
10
67.537537
20
70.216850
11
67.423016
21
70.876330
0
LINE
8
Layer 1
10
67.423016
20
70.876330
11
67.486096
21
71.114130
0
LINE
8
Layer 1
10
67.486096
20
71.114130
11
67.549176
21
71.351950
0
LINE
8
Layer 1
10
67.549176
20
71.351950
11
67.794466
21
71.380750
0
LINE
8
Layer 1
10
67.794466
20
71.380750
11
68.039757
21
71.409550
0
LINE
8
Layer 1
10
68.039757
20
71.409550
11
68.370495
21
71.190670
0
LINE
8
Layer 1
10
68.370495
20
71.190670
11
69.402635
21
70.373370
0
LINE
8
Layer 1
10
69.402635
20
70.373370
11
71.075764
21
69.160997
0
LINE
8
Layer 1
10
71.075764
20
69.160997
11
72.662395
21
68.509880
0
LINE
8
Layer 1
10
72.662395
20
68.509880
11
73.201595
21
68.369410
0
LINE
8
Layer 1
10
73.201595
20
68.369410
11
73.957472
21
68.371410
0
LINE
8
Layer 1
10
73.957472
20
68.371410
11
74.713350
21
68.373410
0
LINE
8
Layer 1
10
74.713350
20
68.373410
11
75.284998
21
68.519200
0
LINE
8
Layer 1
10
75.284998
20
68.519200
11
76.693286
21
69.076189
0
LINE
8
Layer 1
10
76.693286
20
69.076189
11
78.143042
21
70.018921
0
LINE
8
Layer 1
10
78.143042
20
70.018921
11
79.574976
21
71.301608
0
LINE
8
Layer 1
10
79.574976
20
71.301608
11
80.929798
21
72.878460
0
LINE
8
Layer 1
10
80.929798
20
72.878460
11
81.483158
21
73.607750
0
LINE
8
Layer 1
10
81.483158
20
73.607750
11
81.701728
21
73.662650
0
LINE
8
Layer 1
10
81.701728
20
73.662650
11
81.920298
21
73.717550
0
LINE
8
Layer 1
10
81.920298
20
73.717550
11
82.163038
21
73.561660
0
LINE
8
Layer 1
10
82.163038
20
73.561660
11
83.584288
21
72.182310
0
LINE
8
Layer 1
10
83.584288
20
72.182310
11
85.329537
21
70.568208
0
LINE
8
Layer 1
10
85.329537
20
70.568208
11
86.998805
21
69.441276
0
LINE
8
Layer 1
10
86.998805
20
69.441276
11
88.630878
21
68.780517
0
LINE
8
Layer 1
10
88.630878
20
68.780517
11
90.264538
21
68.564930
0
LINE
8
Layer 1
10
90.264538
20
68.564930
11
90.829400
21
68.564600
0
LINE
8
Layer 1
10
90.829400
20
68.564600
11
91.512970
21
68.739430
0
LINE
8
Layer 1
10
91.512970
20
68.739430
11
92.744030
21
69.203900
0
LINE
8
Layer 1
10
92.744030
20
69.203900
11
93.291510
21
69.493540
0
LINE
8
Layer 1
10
93.291510
20
69.493540
11
94.417120
21
70.577850
0
LINE
8
Layer 1
10
94.417120
20
70.577850
11
95.542740
21
71.662160
0
LINE
8
Layer 1
10
95.542740
20
71.662160
11
95.749100
21
71.662200
0
LINE
8
Layer 1
10
95.749100
20
71.662200
11
96.061630
21
71.556000
0
LINE
8
Layer 1
10
96.061630
20
71.556000
11
96.167830
21
71.449800
0
LINE
8
Layer 1
10
96.167830
20
71.449800
11
96.167800
21
70.918500
0
LINE
8
Layer 1
10
96.167800
20
70.918500
11
96.167800
21
70.387200
0
LINE
8
Layer 1
10
96.167800
20
70.387200
11
95.855410
21
68.855320
0
LINE
8
Layer 1
10
95.855410
20
68.855320
11
95.171365
21
66.067795
0
LINE
8
Layer 1
10
95.171365
20
66.067795
11
94.299551
21
63.460535
0
LINE
8
Layer 1
10
94.299551
20
63.460535
11
93.254831
21
61.057434
0
LINE
8
Layer 1
10
93.254831
20
61.057434
11
92.052066
21
58.882391
0
LINE
8
Layer 1
10
92.052066
20
58.882391
11
90.706119
21
56.959302
0
LINE
8
Layer 1
10
90.706119
20
56.959302
11
89.231853
21
55.312062
0
LINE
8
Layer 1
10
89.231853
20
55.312062
11
87.644129
21
53.964570
0
LINE
8
Layer 1
10
87.644129
20
53.964570
11
85.957810
21
52.940720
0
LINE
8
Layer 1
10
85.957810
20
52.940720
11
84.972330
21
52.454400
0
LINE
8
Layer 1
10
84.972330
20
52.454400
11
84.264320
21
52.270830
0
LINE
8
Layer 1
10
84.264320
20
52.270830
11
83.556300
21
52.087250
0
LINE
8
Layer 1
10
83.556300
20
52.087250
11
82.538530
21
52.053650
0
LINE
8
Layer 1
10
82.538530
20
52.053650
11
81.520770
21
52.020050
0
LINE
8
Layer 1
10
81.520770
20
52.020050
11
80.945500
21
52.141520
0
LINE
8
Layer 1
10
80.945500
20
52.141520
11
80.945480
21
52.141040
0
LINE
8
Layer 1
10
53.270800
20
75.471300
11
52.639720
21
75.690416
0
LINE
8
Layer 1
10
52.639720
20
75.690416
11
52.179901
21
76.041740
0
LINE
8
Layer 1
10
52.179901
20
76.041740
11
51.892951
21
76.490652
0
LINE
8
Layer 1
10
51.892951
20
76.490652
11
51.780479
21
77.002534
0
LINE
8
Layer 1
10
51.780479
20
77.002534
11
51.844090
21
77.542765
0
LINE
8
Layer 1
10
51.844090
20
77.542765
11
52.085394
21
78.076725
0
LINE
8
Layer 1
10
52.085394
20
78.076725
11
52.505998
21
78.569797
0
LINE
8
Layer 1
10
52.505998
20
78.569797
11
53.107509
21
78.987360
0
LINE
8
Layer 1
10
53.107509
20
78.987360
11
53.377308
21
79.130840
0
LINE
8
Layer 1
10
53.377308
20
79.130840
11
53.232711
21
79.161940
0
LINE
8
Layer 1
10
53.232711
20
79.161940
11
52.391945
21
79.017490
0
LINE
8
Layer 1
10
52.391945
20
79.017490
11
50.956405
21
78.735940
0
LINE
8
Layer 1
10
50.956405
20
78.735940
11
50.217034
21
78.629940
0
LINE
8
Layer 1
10
50.217034
20
78.629940
11
48.611114
21
78.680840
0
LINE
8
Layer 1
10
48.611114
20
78.680840
11
47.005194
21
78.731740
0
LINE
8
Layer 1
10
47.005194
20
78.731740
11
46.400183
21
78.869640
0
LINE
8
Layer 1
10
46.400183
20
78.869640
11
45.215592
21
79.248522
0
LINE
8
Layer 1
10
45.215592
20
79.248522
11
44.130587
21
79.812968
0
LINE
8
Layer 1
10
44.130587
20
79.812968
11
43.148882
21
80.547957
0
LINE
8
Layer 1
10
43.148882
20
80.547957
11
42.274190
21
81.438467
0
LINE
8
Layer 1
10
42.274190
20
81.438467
11
41.510225
21
82.469476
0
LINE
8
Layer 1
10
41.510225
20
82.469476
11
40.860699
21
83.625962
0
LINE
8
Layer 1
10
40.860699
20
83.625962
11
39.919823
21
86.255280
0
LINE
8
Layer 1
10
39.919823
20
86.255280
11
39.481267
21
89.206247
0
LINE
8
Layer 1
10
39.481267
20
89.206247
11
39.574740
21
92.358688
0
LINE
8
Layer 1
10
39.574740
20
92.358688
11
40.229949
21
95.592431
0
LINE
8
Layer 1
10
40.229949
20
95.592431
11
40.777487
21
97.202235
0
LINE
8
Layer 1
10
40.777487
20
97.202235
11
41.476600
21
98.787300
0
LINE
8
Layer 1
10
41.476600
20
98.787300
11
42.090025
21
100.026320
0
LINE
8
Layer 1
10
42.090025
20
100.026320
11
42.663279
21
100.822840
0
LINE
8
Layer 1
10
42.663279
20
100.822840
11
43.999699
21
102.392970
0
LINE
8
Layer 1
10
43.999699
20
102.392970
11
44.762866
21
103.166580
0
LINE
8
Layer 1
10
44.762866
20
103.166580
11
45.490070
21
103.650440
0
LINE
8
Layer 1
10
45.490070
20
103.650440
11
46.777785
21
104.387298
0
LINE
8
Layer 1
10
46.777785
20
104.387298
11
48.155630
21
104.898960
0
LINE
8
Layer 1
10
48.155630
20
104.898960
11
48.952146
21
105.133520
0
LINE
8
Layer 1
10
48.952146
20
105.133520
11
50.258156
21
105.180620
0
LINE
8
Layer 1
10
50.258156
20
105.180620
11
51.564166
21
105.227720
0
LINE
8
Layer 1
10
51.564166
20
105.227720
11
52.249449
21
105.117720
0
LINE
8
Layer 1
10
52.249449
20
105.117720
11
53.987440
21
104.643434
0
LINE
8
Layer 1
10
53.987440
20
104.643434
11
55.530551
21
103.816783
0
LINE
8
Layer 1
10
55.530551
20
103.816783
11
56.871625
21
102.649340
0
LINE
8
Layer 1
10
56.871625
20
102.649340
11
58.003503
21
101.152683
0
LINE
8
Layer 1
10
58.003503
20
101.152683
11
58.919028
21
99.338386
0
LINE
8
Layer 1
10
58.919028
20
99.338386
11
59.611043
21
97.218026
0
LINE
8
Layer 1
10
59.611043
20
97.218026
11
60.072389
21
94.803179
0
LINE
8
Layer 1
10
60.072389
20
94.803179
11
60.295909
21
92.105420
0
LINE
8
Layer 1
10
60.295909
20
92.105420
11
60.348549
21
90.645140
0
LINE
8
Layer 1
10
60.348549
20
90.645140
11
60.241151
21
89.538870
0
LINE
8
Layer 1
10
60.241151
20
89.538870
11
60.002807
21
87.888930
0
LINE
8
Layer 1
10
60.002807
20
87.888930
11
59.622039
21
86.343243
0
LINE
8
Layer 1
10
59.622039
20
86.343243
11
59.105688
21
84.913741
0
LINE
8
Layer 1
10
59.105688
20
84.913741
11
58.460596
21
83.612355
0
LINE
8
Layer 1
10
58.460596
20
83.612355
11
57.693603
21
82.451017
0
LINE
8
Layer 1
10
57.693603
20
82.451017
11
56.811550
21
81.441657
0
LINE
8
Layer 1
10
56.811550
20
81.441657
11
55.821279
21
80.596208
0
LINE
8
Layer 1
10
55.821279
20
80.596208
11
54.729631
21
79.926600
0
LINE
8
Layer 1
10
54.729631
20
79.926600
11
54.380339
21
79.665470
0
LINE
8
Layer 1
10
54.380339
20
79.665470
11
55.249746
21
79.806520
0
LINE
8
Layer 1
10
55.249746
20
79.806520
11
56.120798
21
79.999560
0
LINE
8
Layer 1
10
56.120798
20
79.999560
11
57.146468
21
80.045960
0
LINE
8
Layer 1
10
57.146468
20
80.045960
11
58.172138
21
80.092360
0
LINE
8
Layer 1
10
58.172138
20
80.092360
11
58.783751
21
79.987140
0
LINE
8
Layer 1
10
58.783751
20
79.987140
11
59.852501
21
79.674160
0
LINE
8
Layer 1
10
59.852501
20
79.674160
11
60.309637
21
79.466380
0
LINE
8
Layer 1
10
60.309637
20
79.466380
11
60.470112
21
79.221470
0
LINE
8
Layer 1
10
60.470112
20
79.221470
11
60.630587
21
78.976550
0
LINE
8
Layer 1
10
60.630587
20
78.976550
11
60.621687
21
78.636840
0
LINE
8
Layer 1
10
60.621687
20
78.636840
11
60.612787
21
78.297130
0
LINE
8
Layer 1
10
60.612787
20
78.297130
11
60.366348
21
77.941520
0
LINE
8
Layer 1
10
60.366348
20
77.941520
11
59.856729
21
77.404989
0
LINE
8
Layer 1
10
59.856729
20
77.404989
11
59.118020
21
76.891321
0
LINE
8
Layer 1
10
59.118020
20
76.891321
11
57.195896
21
76.017009
0
LINE
8
Layer 1
10
57.195896
20
76.017009
11
55.085098
21
75.487455
0
LINE
8
Layer 1
10
55.085098
20
75.487455
11
54.110546
21
75.404734
0
LINE
8
Layer 1
10
54.110546
20
75.404734
11
53.270748
21
75.471530
0
LINE
8
Layer 1
10
53.270748
20
75.471530
11
53.270800
21
75.471300
0
LINE
8
Layer 1
10
109.221900
20
75.872080
11
107.402464
21
76.652924
0
LINE
8
Layer 1
10
107.402464
20
76.652924
11
105.568498
21
77.666472
0
LINE
8
Layer 1
10
105.568498
20
77.666472
11
104.120964
21
78.666667
0
LINE
8
Layer 1
10
104.120964
20
78.666667
11
103.460830
21
79.407450
0
LINE
8
Layer 1
10
103.460830
20
79.407450
11
103.402530
21
79.639550
0
LINE
8
Layer 1
10
103.402530
20
79.639550
11
103.502430
21
79.858880
0
LINE
8
Layer 1
10
103.502430
20
79.858880
11
103.602330
21
80.078200
0
LINE
8
Layer 1
10
103.602330
20
80.078200
11
103.934000
21
80.228490
0
LINE
8
Layer 1
10
103.934000
20
80.228490
11
104.265690
21
80.378770
0
LINE
8
Layer 1
10
104.265690
20
80.378770
11
105.770220
21
80.372770
0
LINE
8
Layer 1
10
105.770220
20
80.372770
11
107.274750
21
80.366770
0
LINE
8
Layer 1
10
107.274750
20
80.366770
11
108.150220
21
80.215810
0
LINE
8
Layer 1
10
108.150220
20
80.215810
11
109.016646
21
80.119657
0
LINE
8
Layer 1
10
109.016646
20
80.119657
11
108.589810
21
80.471270
0
LINE
8
Layer 1
10
108.589810
20
80.471270
11
107.273098
21
81.358968
0
LINE
8
Layer 1
10
107.273098
20
81.358968
11
106.215893
21
82.235162
0
LINE
8
Layer 1
10
106.215893
20
82.235162
11
105.326818
21
83.185611
0
LINE
8
Layer 1
10
105.326818
20
83.185611
11
104.514500
21
84.296070
0
LINE
8
Layer 1
10
104.514500
20
84.296070
11
103.347685
21
86.562491
0
LINE
8
Layer 1
10
103.347685
20
86.562491
11
102.609060
21
89.175390
0
LINE
8
Layer 1
10
102.609060
20
89.175390
11
102.415750
21
90.202670
0
LINE
8
Layer 1
10
102.415750
20
90.202670
11
102.414860
21
92.061210
0
LINE
8
Layer 1
10
102.414860
20
92.061210
11
102.413980
21
93.919740
0
LINE
8
Layer 1
10
102.413980
20
93.919740
11
102.568680
21
94.937510
0
LINE
8
Layer 1
10
102.568680
20
94.937510
11
102.976402
21
97.007298
0
LINE
8
Layer 1
10
102.976402
20
97.007298
11
103.538178
21
98.877187
0
LINE
8
Layer 1
10
103.538178
20
98.877187
11
104.250503
21
100.542105
0
LINE
8
Layer 1
10
104.250503
20
100.542105
11
105.109873
21
101.996980
0
LINE
8
Layer 1
10
105.109873
20
101.996980
11
106.112781
21
103.236740
0
LINE
8
Layer 1
10
106.112781
20
103.236740
11
107.255725
21
104.256312
0
LINE
8
Layer 1
10
107.255725
20
104.256312
11
108.535200
21
105.050627
0
LINE
8
Layer 1
10
108.535200
20
105.050627
11
109.947700
21
105.614610
0
LINE
8
Layer 1
10
109.947700
20
105.614610
11
110.726210
21
105.850160
0
LINE
8
Layer 1
10
110.726210
20
105.850160
11
112.053740
21
105.851160
0
LINE
8
Layer 1
10
112.053740
20
105.851160
11
113.381260
21
105.852160
0
LINE
8
Layer 1
10
113.381260
20
105.852160
11
114.081600
21
105.660280
0
LINE
8
Layer 1
10
114.081600
20
105.660280
11
115.903845
21
104.949705
0
LINE
8
Layer 1
10
115.903845
20
104.949705
11
117.550601
21
103.877676
0
LINE
8
Layer 1
10
117.550601
20
103.877676
11
119.007449
21
102.467775
0
LINE
8
Layer 1
10
119.007449
20
102.467775
11
120.259971
21
100.743581
0
LINE
8
Layer 1
10
120.259971
20
100.743581
11
121.293749
21
98.728675
0
LINE
8
Layer 1
10
121.293749
20
98.728675
11
122.094363
21
96.446635
0
LINE
8
Layer 1
10
122.094363
20
96.446635
11
122.647397
21
93.921044
0
LINE
8
Layer 1
10
122.647397
20
93.921044
11
122.938430
21
91.175480
0
LINE
8
Layer 1
10
122.938430
20
91.175480
11
122.996330
21
90.113460
0
LINE
8
Layer 1
10
122.996330
20
90.113460
11
122.901630
21
88.962940
0
LINE
8
Layer 1
10
122.901630
20
88.962940
11
122.409069
21
86.010643
0
LINE
8
Layer 1
10
122.409069
20
86.010643
11
121.462920
21
83.510345
0
LINE
8
Layer 1
10
121.462920
20
83.510345
11
120.824478
21
82.438863
0
LINE
8
Layer 1
10
120.824478
20
82.438863
11
120.078313
21
81.491382
0
LINE
8
Layer 1
10
120.078313
20
81.491382
11
119.226317
21
80.671569
0
LINE
8
Layer 1
10
119.226317
20
80.671569
11
118.270380
21
79.983090
0
LINE
8
Layer 1
10
118.270380
20
79.983090
11
117.583920
21
79.559480
0
LINE
8
Layer 1
10
117.583920
20
79.559480
11
116.756640
21
79.285150
0
LINE
8
Layer 1
10
116.756640
20
79.285150
11
115.929350
21
79.010830
0
LINE
8
Layer 1
10
115.929350
20
79.010830
11
115.072860
21
78.932130
0
LINE
8
Layer 1
10
115.072860
20
78.932130
11
114.220569
21
78.804765
0
LINE
8
Layer 1
10
114.220569
20
78.804765
11
114.152870
21
78.686126
0
LINE
8
Layer 1
10
114.152870
20
78.686126
11
114.221800
21
78.476010
0
LINE
8
Layer 1
10
114.221800
20
78.476010
11
114.333920
21
78.205320
0
LINE
8
Layer 1
10
114.333920
20
78.205320
11
114.278620
21
77.801870
0
LINE
8
Layer 1
10
114.278620
20
77.801870
11
114.041840
21
77.143550
0
LINE
8
Layer 1
10
114.041840
20
77.143550
11
113.860360
21
76.888690
0
LINE
8
Layer 1
10
113.860360
20
76.888690
11
113.550150
21
76.803090
0
LINE
8
Layer 1
10
113.550150
20
76.803090
11
113.239940
21
76.717390
0
LINE
8
Layer 1
10
113.239940
20
76.717390
11
112.779580
21
76.841990
0
LINE
8
Layer 1
10
112.779580
20
76.841990
11
112.119610
21
77.023480
0
LINE
8
Layer 1
10
112.119610
20
77.023480
11
111.920010
21
77.080380
0
LINE
8
Layer 1
10
111.920010
20
77.080380
11
111.787730
21
76.970600
0
LINE
8
Layer 1
10
111.787730
20
76.970600
11
111.655450
21
76.656850
0
LINE
8
Layer 1
10
111.655450
20
76.656850
11
111.655000
21
76.453000
0
LINE
8
Layer 1
10
111.655000
20
76.453000
11
111.326550
21
76.182260
0
LINE
8
Layer 1
10
111.326550
20
76.182260
11
110.832065
21
75.834647
0
LINE
8
Layer 1
10
110.832065
20
75.834647
11
110.373617
21
75.675473
0
LINE
8
Layer 1
10
110.373617
20
75.675473
11
109.221200
21
75.871750
0
LINE
8
Layer 1
10
109.221200
20
75.871750
11
109.221900
21
75.872080
 0 
ENDSEC
 0 
EOF