<?xml version="1.0" encoding="UTF-8" standalone="no"?>
<!-- Created with Inkscape (http://www.inkscape.org/) -->

<svg
   width="181.29402mm"
   height="188.06621mm"
   viewBox="0 0 181.29402 188.06621"
   version="1.1"
   id="svg5"
   xml:space="preserve"
   inkscape:version="1.2.1 (9c6d41e410, 2022-07-14, custom)"
   sodipodi:docname="a2.svg"
   xmlns:inkscape="http://www.inkscape.org/namespaces/inkscape"
   xmlns:sodipodi="http://sodipodi.sourceforge.net/DTD/sodipodi-0.dtd"
   xmlns="http://www.w3.org/2000/svg"
   xmlns:svg="http://www.w3.org/2000/svg"><sodipodi:namedview
     id="namedview7"
     pagecolor="#ffffff"
     bordercolor="#666666"
     borderopacity="1.0"
     inkscape:showpageshadow="2"
     inkscape:pageopacity="0.0"
     inkscape:pagecheckerboard="0"
     inkscape:deskcolor="#d1d1d1"
     inkscape:document-units="mm"
     showgrid="false"
     inkscape:zoom="0.76765115"
     inkscape:cx="260.53501"
     inkscape:cy="463.10098"
     inkscape:window-width="1594"
     inkscape:window-height="1372"
     inkscape:window-x="2882"
     inkscape:window-y="36"
     inkscape:window-maximized="0"
     inkscape:current-layer="layer1" /><defs
     id="defs2" /><g
     inkscape:label="Layer 1"
     inkscape:groupmode="layer"
     id="layer1"
     transform="translate(-21.318471,-38.725899)"><path
       style="fill:#020202;stroke-width:0.0885017"
       d="m 137.11161,226.7577 -0.15487,-0.0422 v -0.15986 -0.15985 l 0.39585,-0.32437 0.39586,-0.32437 0.35563,-0.7589 c 0.1956,-0.4174 0.71285,-1.38139 1.14943,-2.14222 1.43035,-2.49256 1.64558,-3.26183 1.84798,-6.60491 l 0.075,-1.23902 0.15203,-0.29314 0.15203,-0.29313 0.14753,0.0284 c 0.22865,0.044 0.3705,0.41943 0.37194,0.98427 0.005,1.96445 0.65793,4.40405 1.26328,4.71989 l 0.2868,0.14964 0.66376,-0.004 c 0.87682,-0.005 1.6404,-0.20585 2.6108,-0.68698 l 0.79652,-0.39492 0.52945,-0.45719 c 0.2912,-0.25146 0.6231,-0.51855 0.73758,-0.59356 l 0.20812,-0.13637 -0.0431,-0.18408 c -0.0237,-0.10123 -0.23115,-0.63737 -0.46107,-1.19141 l -0.41803,-1.00733 -0.0387,-0.54145 -0.0387,-0.54144 0.16046,-0.308 c 0.0882,-0.16939 0.29984,-0.40223 0.47021,-0.51741 l 0.30975,-0.20943 0.64437,0.0397 0.64436,0.0397 0.77166,0.38064 0.77167,0.38065 0.71399,0.71662 c 0.3927,0.39414 0.85997,0.95966 1.03839,1.25672 l 0.3244,0.54011 0.13937,0.56616 c 0.0767,0.3114 0.15474,0.61334 0.17351,0.671 l 0.0341,0.10482 0.25905,-0.0978 0.25905,-0.0978 0.53692,0.2008 0.53693,0.2008 0.35909,-0.0607 c 0.50951,-0.0861 0.51225,-0.17653 0.0136,-0.44793 -1.03794,-0.56492 -1.86937,-2.40619 -1.86418,-4.1284 l 0.002,-0.64629 0.16391,-0.35401 c 0.34719,-0.7499 0.83109,-1.01777 1.83861,-1.01777 h 0.66735 l 0.53958,0.13982 c 0.29676,0.0769 0.97638,0.33938 1.51026,0.58328 0.53389,0.2439 1.11017,0.46608 1.28064,0.49375 l 0.30993,0.0503 -0.37709,-0.69995 c -1.3797,-2.56095 -4.04357,-5.54042 -6.9137,-7.73282 -0.56149,-0.4289 -1.07133,-0.8406 -1.13298,-0.91489 l -0.1121,-0.13507 0.35575,-1.31293 c 0.60554,-2.23485 0.95184,-4.19449 1.20027,-6.79214 l 0.13468,-1.40811 v -1.8222 c 0,-2.66893 -0.11459,-3.37725 -1.07877,-6.68979 -1.1051,-3.79669 -2.76192,-7.35596 -5.78818,-12.4345 -1.03572,-1.73809 -1.51823,-2.41857 -1.74611,-2.46245 l -0.15485,-0.0298 -0.55162,0.516 c -0.61428,0.57461 -1.42231,1.1389 -1.83868,1.28405 l -0.27355,0.0954 -0.13969,-0.1397 -0.1397,-0.1397 0.54027,-0.82302 c 0.67681,-1.03105 0.96954,-1.61597 1.04505,-2.08821 l 0.059,-0.36924 -0.23693,-0.48427 -0.23693,-0.48427 -1.11357,-1.17656 c -2.13795,-2.25892 -3.04029,-3.81356 -3.53378,-6.08841 l -0.1632,-0.75227 -0.001,-1.46028 -0.001,-1.46028 0.16037,-0.75226 c 1.01415,-4.75732 5.05981,-9.19792 8.38461,-9.20313 l 0.66982,-0.001 0.4807,0.14119 c 0.26438,0.0777 0.71871,0.26683 1.00962,0.42039 l 0.52893,0.27918 0.67967,0.67078 0.67968,0.67076 0.54857,0.83377 c 0.30172,0.45856 0.72402,1.18223 0.93845,1.60814 0.72217,1.43439 0.76695,0.46859 0.2575,-5.55348 -0.12354,-1.46028 -0.26131,-3.44557 -0.30617,-4.41175 l -0.0816,-1.75671 0.0884,-0.54434 0.0883,-0.54434 -0.0949,-1.37178 c -0.0522,-0.75448 -0.13572,-2.0289 -0.18557,-2.83206 -0.24719,-3.98229 -0.87048,-6.62731 -2.27844,-9.66881 l -0.39945,-0.86289 h -0.37522 -0.37523 l -0.29957,-0.33189 c -0.16476,-0.18253 -0.73325,-1.04874 -1.2633,-1.92491 -4.11515,-6.80174 -9.21712,-12.89938 -11.95438,-14.28689 l -0.53101,-0.26917 -0.27969,-0.001 -0.27968,-10e-4 -0.43308,0.34233 c -1.30263,1.02966 -3.21222,3.8394 -7.27968,10.71119 -2.67507,4.51941 -4.83702,7.49191 -8.27805,11.38167 -0.81816,0.92484 -2.36298,2.73692 -3.43294,4.02683 -2.72741,3.28808 -3.51212,4.07108 -4.07994,4.07108 h -0.22064 l -0.13777,-0.19669 -0.13777,-0.1967 v -0.45827 c 0,-0.61922 0.2693,-2.14904 0.70307,-3.99381 0.19742,-0.83966 0.51553,-2.19374 0.7069,-3.00906 0.19136,-0.81532 0.45342,-2.00014 0.58234,-2.63293 l 0.2344,-1.15052 0.0422,-0.97352 0.0422,-0.97352 -0.12086,-0.22125 -0.12087,-0.22126 -0.31399,0.018 c -0.94936,0.0545 -4.95907,2.02877 -9.25521,4.5571 -2.696,1.58662 -3.861569,2.20775 -4.624856,2.46459 l -0.575261,0.19356 -1.150523,9.7e-4 -1.150523,9.8e-4 -0.324997,-0.13654 c -0.178749,-0.0751 -0.393104,-0.24047 -0.476343,-0.36752 l -0.151346,-0.23098 0.05425,-0.41804 0.05425,-0.41805 0.481798,-0.97352 c 0.264989,-0.53544 1.087987,-1.94925 1.828884,-3.14181 3.935557,-6.33476 5.539397,-9.03576 8.224307,-13.85053 1.08575,-1.94703 2.8511,-5.07336 3.923,-6.94738 2.25459,-3.94174 3.11686,-5.594279 3.45023,-6.612419 l 0.23806,-0.72705 v -0.40574 c 0,-1.01672 -0.78561,-1.59623 -2.69703,-1.98952 -2.04963,-0.42169 -8.05184,-0.96238 -12.879276,-1.16016 l -2.522299,-0.10333 -3.717073,0.0519 -3.717074,0.0519 -1.902787,0.13726 c -4.673609,0.33714 -7.973873,0.84929 -10.179203,1.57965 -3.336794,1.10508 -6.464728,2.48562 -9.202679,4.06169 -0.803153,0.46232 -1.968845,1.112269 -2.590426,1.444339 l -1.130146,0.60374 -0.422622,0.40546 c -0.551121,0.52874 -0.987005,1.18376 -1.824281,2.74141 -0.376623,0.70066 -0.946286,1.6963 -1.265918,2.21254 -0.805252,1.30057 -1.114145,1.97585 -1.583128,3.46092 -0.222891,0.7058 -0.817328,2.31875 -1.320971,3.58432 -1.108878,2.78643 -1.454185,3.9165 -2.246575,7.35221 -1.568742,6.8019 -1.682971,7.81225 -1.690226,14.95023 -0.0097,9.51924 -0.146638,13.39308 -0.628938,17.78886 l -0.271889,2.47804 0.05318,0.51964 0.05318,0.51964 0.339051,0.84708 c 0.186479,0.46589 0.391915,0.86469 0.456527,0.88623 l 0.117475,0.0392 -0.05132,-1.75988 -0.05131,-1.75988 0.07993,-0.97352 c 0.271891,-3.31169 2.617207,-6.21349 5.659246,-7.00203 l 0.575262,-0.14911 0.929268,0.006 0.929268,0.006 0.703237,0.18525 c 3.859745,1.01677 6.880916,5.10329 7.490753,10.1322 l 0.106368,0.87716 -0.05533,1.37963 c -0.122902,3.06469 -1.175876,5.34759 -3.466748,7.51609 l -0.741386,0.70178 -0.412798,0.19984 -0.412798,0.19982 -0.632132,0.0414 -0.632131,0.0414 -0.206928,0.13021 -0.206929,0.13021 0.05826,0.23623 c 0.167542,0.6793 3.184961,3.86678 5.134689,5.42407 3.965522,3.16734 7.745285,4.88108 17.125087,7.76452 7.840748,2.41032 12.971555,3.35524 19.55888,3.60207 l 1.54878,0.058 1.40462,-0.10077 c 7.54428,-0.54121 26.23442,-7.41917 33.8996,-12.47505 0.53106,-0.35027 1.02888,-0.62487 1.10627,-0.61022 l 0.14073,0.0266 0.027,0.23234 0.027,0.23236 -0.68046,0.90331 c -2.5095,3.33139 -5.78285,5.48701 -11.89656,7.83431 -8.61467,3.30753 -15.44114,5.04593 -22.12543,5.63435 l -1.28328,0.11297 h -2.7878 -2.787803 l -1.283275,-0.11512 c -5.110494,-0.45849 -9.105335,-1.31161 -16.036431,-3.42465 -6.38045,-1.94457 -9.958976,-3.2091 -13.257646,-4.68424 -1.619692,-0.72431 -1.84436,-0.79821 -2.17473,-0.71529 l -0.227692,0.0571 -0.165486,0.37412 c -0.09102,0.20576 -0.207007,0.71205 -0.257753,1.12509 l -0.09227,0.75099 -0.08994,6.50487 c -0.04947,3.57769 -0.10965,6.78366 -0.133739,7.1244 -0.02409,0.34073 -0.08555,1.49567 -0.136575,2.56655 -0.201241,4.22333 -0.373054,5.96123 -0.791832,8.0094 -0.332604,1.62671 -0.576292,3.26236 -0.771119,5.17577 l -0.153355,1.50612 -0.0029,3.14181 -0.0029,3.14181 0.114174,0.79652 c 0.0628,0.43808 0.194754,1.09489 0.293238,1.45957 l 0.179064,0.66307 0.473958,0.75296 c 0.260678,0.41413 0.522545,0.87244 0.58193,1.01847 0.05938,0.14603 0.34832,0.77778 0.642079,1.40389 l 0.534108,1.13839 -0.09072,0.14488 -0.09072,0.1449 -0.654789,0.11222 c -0.360134,0.0617 -0.834005,0.10155 -1.053047,0.0885 l -0.398258,-0.0237 0.02888,-0.49917 0.02888,-0.49918 -0.175066,-0.34159 c -0.722123,-1.40901 -2.617663,-2.40396 -5.362305,-2.8146 -2.28367,-0.34168 -2.497981,-0.42264 -3.461516,-1.30752 -0.339381,-0.31168 -0.715526,-0.63399 -0.835877,-0.71625 l -0.218883,-0.14977 h -0.326316 -0.326316 l -0.782389,0.58423 c -0.964917,0.72053 -1.511049,1.00386 -2.060379,1.06892 l -0.423427,0.0502 -0.342988,-0.1132 -0.342989,-0.1132 -0.487836,-0.46264 c -0.26831,-0.25451 -0.642741,-0.56689 -0.832068,-0.69426 l -0.344231,-0.23155 -0.319532,0.002 c -0.175743,0.001 -0.498748,0.0848 -0.717789,0.1861 -0.219042,0.10128 -0.6173,0.26171 -0.885018,0.3565 l -0.486759,0.17234 -0.708014,0.0499 -0.708014,0.0499 -0.521645,-0.098 c -1.062483,-0.19952 -2.060244,-0.86406 -2.468413,-1.64406 l -0.187334,-0.35798 -0.024,-0.74737 -0.024,-0.74736 -0.125599,-0.0703 -0.1256,-0.0703 -0.05698,-0.86388 -0.05698,-0.86387 0.08003,-0.47497 0.08003,-0.47495 -0.09571,-0.25356 -0.09571,-0.25355 0.110585,-0.42202 c 0.268638,-1.02515 1.214306,-2.65307 2.635751,-4.53733 2.975973,-3.94492 5.524745,-5.8418 8.333436,-6.202 l 0.817041,-0.10478 0.804137,0.10313 0.804138,0.10312 1.228004,0.39352 c 1.375074,0.44065 2.606646,0.68551 4.24386,0.84377 l 1.106272,0.10693 0.804137,-0.0523 c 0.442276,-0.0288 0.910944,-0.0929 1.041483,-0.14256 l 0.237345,-0.0902 0.0893,-0.23488 c 0.713199,-1.87585 1.286699,-23.67005 0.704268,-26.76367 -0.226421,-1.20265 -0.570913,-1.61109 -5.966455,-7.07408 -7.343954,-7.43575 -8.450753,-8.78925 -9.097373,-11.12516 l -0.191986,-0.69354 7.97e-4,-1.68154 7.96e-4,-1.68153 0.235888,-2.07979 c 0.36054,-3.17883 0.406144,-4.21632 0.501826,-11.41673 0.09442,-7.10552 0.222253,-11.62821 0.355107,-12.56378 l 0.0812,-0.57181 0.178215,-0.13621 0.178215,-0.13621 0.09191,-1.01777 c 0.05055,-0.55978 0.135751,-1.31647 0.189328,-1.68154 0.05358,-0.36506 0.10928,-1.00228 0.123785,-1.41602 l 0.02637,-0.75227 0.362141,-1.46028 c 0.70242,-2.8323 1.023481,-2.17456 -5.24873,-10.75297 C 40.603116,103.44635 38.628313,100.6013 35.927841,96.321211 27.400949,82.806571 22.318394,69.900251 21.455519,59.571101 l -0.105334,-1.26091 0.0488,-2.14641 0.0488,-2.14641 0.17969,-0.83087 c 0.378652,-1.75087 1.076425,-2.58453 2.302491,-2.75091 l 0.492856,-0.0669 0.688799,0.0771 c 1.221353,0.13664 3.572523,1.00617 5.908527,2.18514 l 1.01777,0.51367 0.111806,0.22965 0.111805,0.22965 1.088083,0.66754 c 2.303706,1.41333 4.42145,2.99663 8.290745,6.19845 3.193632,2.64271 4.835636,4.08087 5.141755,4.50346 l 0.256852,0.35457 v 0.34073 0.34073 h 0.09777 c 0.201384,0 1.030885,0.4717 1.67226,0.95094 l 0.663763,0.49598 3.363067,3.38025 c 3.309765,3.32668 3.800783,3.76814 4.373905,3.93251 l 0.28835,0.0827 0.446501,-0.41649 c 0.856902,-0.7993 1.658949,-1.96526 1.351871,-1.96526 h -0.132744 v -0.15518 c 0,-0.0854 0.239461,-0.49084 0.532137,-0.90109 0.570967,-0.80035 1.060895,-1.70601 1.060895,-1.96113 0,-0.37244 2.253107,-2.75895 4.630273,-4.90443 1.764267,-1.59232 2.694578,-3.00086 5.260222,-7.96424 3.091732,-5.98112 5.337522,-9.13954 9.057544,-12.73828 4.526894,-4.3793 5.971402,-4.89504 14.151613,-5.0526 l 2.876306,-0.0554 2.787805,0.0935 2.787798,0.0935 1.01777,0.13586 c 1.57769,0.2106 2.28047,0.35774 7.36216,1.54137 3.87405,0.90234 6.01377,1.21282 9.18767,1.33317 2.32359,0.0881 2.60234,0.13272 3.01893,0.48326 0.1481,0.12462 0.36009,0.24938 0.4711,0.27724 l 0.20183,0.0506 0.56574,-0.2393 0.56574,-0.23929 1.10628,0.0536 c 3.20115,0.15514 9.75174,1.75943 12.56593,3.07748 6.3397,2.96926 11.47743,11.80578 16.40869,28.22174 1.41236,4.70172 2.03263,6.15871 2.82848,6.64398 l 0.27878,0.16999 0.36715,3.6e-4 0.36714,3.5e-4 0.49757,-0.26174 c 0.97544,-0.51311 1.40913,-0.88965 6.06953,-5.26981 10.4563,-9.82751 16.43959,-15.05304 20.96371,-18.30871 l 1.18356,-0.85177 h 0.24574 0.24575 l 1.09299,-0.69719 c 1.39193,-0.88787 3.5318,-2.10968 4.94677,-2.82447 l 1.10232,-0.55685 0.87032,-0.21655 c 0.47868,-0.1191 1.39983,-0.26437 2.04698,-0.32282 l 1.17664,-0.10627 0.7905,0.0907 0.7905,0.0907 0.42619,0.21284 c 0.2344,0.11707 0.58129,0.38906 0.77086,0.60442 l 0.34468,0.39158 0.19723,0.62703 0.19725,0.62703 -0.006,2.12404 -0.006,2.12404 -0.15104,1.54878 c -0.89616,9.18941 -4.6893,20.07731 -9.93867,28.52819 -0.35818,0.57661 -0.65122,1.13584 -0.65122,1.24272 0,0.63463 -5.2065,8.13783 -9.64853,13.904709 -3.30877,4.29562 -4.28532,5.93358 -4.65526,7.80827 l -0.13574,0.6879 0.0529,0.68184 c 0.0291,0.37502 0.15356,1.01223 0.27666,1.41603 0.49012,1.60784 1.08095,4.98933 2.29318,13.12443 0.31914,2.14174 0.7617,5.10876 0.98347,6.59338 2.27738,15.24588 5.16565,27.96705 6.79578,29.93149 l 0.27625,0.33291 0.35401,0.002 c 1.31195,0.008 4.1418,1.17316 6.10349,2.51257 2.77433,1.89429 4.50937,4.99818 4.77996,8.55112 l 0.0573,0.75227 -0.10183,1.01777 c -0.56604,5.6582 -4.64162,10.27496 -10.01083,11.34011 l -0.56258,0.11161 h -1.32753 -1.32753 l -0.75226,-0.15596 c -1.68428,-0.34917 -3.46059,-1.08809 -4.85053,-2.01774 l -0.68083,-0.45536 -0.98207,-0.98208 -0.98208,-0.98207 -0.44432,-0.66446 c -0.959,-1.43415 -1.65251,-3.16609 -1.92732,-4.81319 l -0.14608,-0.87558 10e-4,-1.20468 c 0.003,-3.39862 1.17744,-6.24561 3.54464,-8.59365 l 0.84762,-0.84077 0.79817,-0.54398 c 0.77481,-0.52805 2.1394,-1.27031 2.33539,-1.27031 0.37169,0 -1.08656,-2.43849 -2.51104,-4.19897 -1.11752,-1.38112 -1.67943,-2.14294 -3.23489,-4.3857 -0.79334,-1.14388 -4.15066,-5.88315 -7.46069,-10.5317 -3.31004,-4.64856 -6.33965,-8.90474 -6.73246,-9.45819 -0.89909,-1.26675 -1.3047,-1.72821 -1.64173,-1.86782 l -0.26621,-0.11027 -0.3863,0.2264 -0.38631,0.22638 -2.26884,2.31069 c -2.46485,2.5103 -3.32109,3.5 -3.66768,4.23939 l -0.22426,0.47843 -0.0412,0.58359 -0.0412,0.58359 0.23037,2.12404 c 0.4194,3.86702 0.50616,5.02193 0.55845,7.43415 l 0.0518,2.38955 -0.10601,1.19477 c -0.30708,3.46072 -1.19463,5.83088 -3.11791,8.32624 l -0.64256,0.83369 -1.99731,1.99129 c -1.09853,1.09521 -2.11196,2.16144 -2.25207,2.36941 l -0.25477,0.37811 0.11207,0.37415 c 0.1616,0.53943 0.66557,1.51074 1.66849,3.21565 1.72177,2.9269 3.35747,6.08234 4.30614,8.30705 l 0.414,0.97086 0.52632,1.8612 c 0.64828,2.29249 0.82392,3.14919 1.01668,4.95876 l 0.15083,1.41603 0.005,2.4338 0.005,2.4338 -0.11358,0.88501 c -0.0625,0.48676 -0.25126,1.54214 -0.41953,2.3453 -0.16827,0.80314 -0.32937,1.84 -0.35802,2.30412 l -0.0521,0.84383 0.14376,0.49452 c 0.0791,0.27197 0.31294,0.74785 0.5197,1.0575 l 0.37596,0.56298 1.77102,1.81655 c 1.93467,1.9844 2.88205,3.09436 4.06852,4.76672 0.42658,0.6013 1.05422,1.39782 1.39474,1.77004 0.34052,0.37223 0.79553,0.92284 1.01114,1.2236 l 0.39203,0.54683 -0.0534,0.21284 -0.0534,0.21284 0.1829,0.54294 c 0.1006,0.29862 0.1829,0.6588 0.1829,0.8004 v 0.25746 l 0.14189,0.11776 0.14189,0.11776 -0.0354,0.55621 -0.0354,0.55621 -0.27292,0.28826 c -0.1501,0.15854 -0.57546,0.71147 -0.94524,1.22873 -0.73572,1.02916 -1.13914,1.4306 -1.6883,1.68003 l -0.3598,0.16342 -0.56039,0.002 -0.5604,0.002 -0.67862,-0.23674 -0.67864,-0.23673 -0.70801,0.006 c -0.38941,0.003 -1.52444,0.0891 -2.5223,0.19111 -0.99786,0.10199 -2.55582,0.22608 -3.46215,0.27573 l -1.64787,0.0903 -0.78593,0.21155 c -0.43226,0.11634 -1.10721,0.33161 -1.49988,0.47837 l -0.71396,0.26683 -0.92333,0.13763 c -0.50783,0.0757 -1.5008,0.18177 -2.2066,0.23572 -3.08102,0.23555 -3.7273,0.64459 -4.33675,2.74486 -0.10668,0.36763 -0.26499,0.76257 -0.35179,0.87764 l -0.15782,0.20922 -0.29825,-0.003 -0.29825,-0.003 -0.22125,0.20366 c -0.23501,0.21632 -0.56364,0.31485 -0.81864,0.24545 z m -75.300829,-6.2131 c 0.619496,-0.17329 0.699437,-0.59262 0.803552,-4.21503 0.04757,-1.65498 0.150763,-4.0047 0.229324,-5.2216 l 0.142837,-2.21254 -0.05195,-0.64429 c -0.115191,-1.42854 -0.427997,-1.61307 -3.404441,-2.00845 -1.808782,-0.24026 -3.458549,-0.53989 -4.924234,-0.89433 -1.822122,-0.44064 -3.34818,-0.12693 -5.119991,1.05252 l -0.809626,0.53896 -0.974401,0.97779 c -1.127633,1.13156 -3.274032,3.92751 -3.12754,4.074 0.02212,0.0221 0.356723,-0.0832 0.743555,-0.23399 l 0.703333,-0.27422 0.752265,-0.0431 0.752265,-0.0431 0.372411,0.10113 c 0.204826,0.0556 0.543345,0.2309 0.752265,0.3895 l 0.379854,0.28836 0.259109,0.48039 0.25911,0.48039 0.03874,0.66921 0.03874,0.66919 -0.144834,0.57305 c -0.137786,0.54516 -0.659291,1.71325 -0.995106,2.22888 -0.209481,0.32164 -0.115217,0.38416 0.24663,0.16355 0.163687,-0.0998 0.417089,-0.18266 0.563117,-0.18417 l 0.265505,-0.003 0.342407,-0.72309 0.342405,-0.72309 0.896619,-0.89916 0.896618,-0.89916 0.60143,-0.29228 0.601429,-0.29227 -0.06262,-0.14074 c -0.03444,-0.0774 -0.08009,-0.28827 -0.101456,-0.46858 l -0.03884,-0.32786 0.232345,-0.21532 c 0.66832,-0.61938 2.075684,-0.5414 2.681494,0.14858 l 0.282449,0.32169 0.136551,0.45982 0.136552,0.45982 v 1.26142 1.26143 l 0.134139,0.63768 c 0.07378,0.35072 0.259275,0.90093 0.412218,1.22269 l 0.278077,0.585 0.627679,0.62655 0.627678,0.62656 0.519906,0.24414 c 0.859006,0.40339 2.078102,0.59138 2.702429,0.41673 z M 114.4887,130.2801 c 0.98468,-1.04962 3.11871,-3.87053 8.60931,-11.38039 5.70161,-7.79847 7.39047,-10.32121 8.09695,-12.09485 l 0.26591,-0.66757 0.18121,-1.00636 0.18121,-1.00637 0.17718,-0.30029 c 0.23234,-0.3938 0.22663,-0.42522 -0.10226,-0.56145 -0.44959,-0.18622 -1.46148,-0.88073 -2.50837,-1.72161 -2.03691,-1.636089 -6.93785,-4.467739 -7.73263,-4.467739 h -0.16763 l -0.0463,0.177 -0.0463,0.17701 h -0.48557 c -0.26708,0 -0.79656,-0.0643 -1.17664,-0.14292 l -0.69107,-0.14291 -0.71231,0.0374 -0.7123,0.0374 -0.57526,0.30248 -0.57527,0.30247 -0.84415,0.84293 c -1.75537,1.752819 -3.50996,4.412699 -8.46802,12.837169 -2.62855,4.46629 -4.22116,7.07769 -5.01824,8.22841 -0.32032,0.46242 -0.77904,1.13091 -1.0194,1.48553 l -0.43701,0.64477 -0.14339,0.50575 c -0.0789,0.27817 -0.42709,1.09387 -0.77382,1.81267 l -0.630426,1.30692 0.09107,0.0911 0.09107,0.0911 0.450444,-0.17755 c 1.635842,-0.64479 7.567702,-3.86098 10.551012,-5.72066 4.44626,-2.77161 7.15466,-5.08887 9.49897,-8.12714 0.44632,-0.57844 0.87456,-1.13024 0.95165,-1.22623 l 0.14016,-0.17452 0.1696,0.0346 0.16959,0.0346 -0.0119,0.27394 c -0.0166,0.38114 -0.8135,2.33803 -2.15709,5.29681 -2.75326,6.06306 -5.39352,13.28154 -5.39728,14.75611 l -8.9e-4,0.24338 h 0.12204 c 0.0671,0 0.37577,-0.27047 0.68589,-0.60104 z m 54.73729,-15.42222 c 1.12098,-0.48051 3.29853,-2.7327 5.53357,-5.72324 1.25305,-1.67663 1.9919,-2.58372 3.30027,-4.05176 1.40954,-1.58156 5.3031,-6.279509 6.75877,-8.155109 1.3925,-1.7942 2.8257,-3.82484 3.11404,-4.41214 l 0.2607,-0.53101 0.10366,-0.61527 0.10365,-0.61526 -0.0534,-1.02202 -0.0533,-1.02201 -0.22177,-1.01778 c -0.25905,-1.18882 -1.04147,-5.07624 -1.50149,-7.46007 l -0.32096,-1.66322 -0.44962,-1.36781 -0.44963,-1.36781 -0.55825,-1.12856 c -1.56822,-3.17029 -3.8286,-5.16709 -7.04622,-6.22457 l -1.09623,-0.36028 -0.5788,-0.0488 -0.57881,-0.0488 -0.39471,0.19817 c -1.05303,0.52871 -2.39218,1.71395 -9.5983,8.49521 -6.16414,5.80071 -7.302,7.02206 -7.302,7.83781 0,0.38889 0.71211,3.66456 1.85596,8.53736 0.83635,3.56285 0.98755,4.31006 1.32523,6.54913 l 0.26028,1.725779 0.23377,0.70802 c 0.48339,1.46397 1.63056,3.60399 3.22941,6.02441 l 0.63892,0.96722 1.1302,2.30105 c 0.62161,1.26557 1.27143,2.6097 1.44405,2.98693 0.35099,0.76701 0.32807,0.75432 0.91102,0.50444 z M 49.573782,111.49545 c -0.02962,-0.14812 -0.290216,-0.83512 -0.579092,-1.52666 -0.288875,-0.69153 -0.593677,-1.5162 -0.677336,-1.8326 l -0.152108,-0.57526 -0.006,-0.66376 -0.006,-0.66377 0.157994,-0.4647 0.157994,-0.46471 0.483989,-0.61856 c 0.525088,-0.67109 1.338106,-1.99803 1.85432,-3.02647 0.178658,-0.35594 0.455423,-0.84629 0.615032,-1.08967 l 0.290199,-0.44251 0.183105,-0.929269 c 0.100707,-0.5111 0.233201,-1.26779 0.29443,-1.68153 l 0.111325,-0.75227 0.0057,-6.81463 0.0057,-6.81463 0.14133,-0.45934 c 0.25732,-0.83632 0.63271,-1.43897 1.964305,-3.15347 0.725029,-0.93351 1.488742,-1.95109 1.697139,-2.26128 l 0.378904,-0.56397 -0.04678,-0.12191 c -0.02574,-0.067 -0.07835,-0.12192 -0.11693,-0.12192 -0.03858,0 -0.561463,-0.66708 -1.161967,-1.4824 -3.234803,-4.39198 -6.480297,-7.50229 -8.236528,-7.89345 l -0.416139,-0.0927 -0.210527,0.08 c -0.257611,0.0979 -4.355756,4.33442 -5.118408,5.29118 -1.724112,2.16292 -2.480984,3.77182 -3.363865,7.15063 -0.241662,0.92484 -0.653313,2.31874 -0.914782,3.09756 l -0.475397,1.41602 -0.361821,1.85854 c -0.363661,1.868 -0.65309,3.71677 -0.762029,4.8676 l -0.05864,0.61951 0.307887,0.57887 c 1.625287,3.05574 13.45127,19.820779 13.98149,19.820779 h 0.08729 z m 28.557209,115.14587 c -0.264687,-0.10926 -0.381918,-0.36063 -0.381918,-0.81892 v -0.38674 l 0.250642,-0.39346 c 0.308319,-0.48401 0.85764,-0.98693 1.35527,-1.2408 l 0.374864,-0.19124 0.624528,-0.0784 0.624528,-0.0784 0.472674,-0.23126 c 2.848743,-1.39376 6.804813,-9.2526 7.590584,-15.0789 l 0.149199,-1.10627 -9.91e-4,-1.77003 -9.91e-4,-1.77004 -0.144347,-1.10627 c -0.07939,-0.60845 -0.266704,-1.74349 -0.416252,-2.5223 l -0.271905,-1.41603 -0.05027,-1.04155 -0.05027,-1.04156 0.158686,-0.17534 c 0.208294,-0.23016 0.478575,-0.22169 0.848304,0.0266 l 0.300719,0.20194 0.242755,0.43969 c 1.768553,3.20333 1.455537,13.5929 -0.553189,18.3613 -0.235809,0.55978 -0.453685,1.11839 -0.484168,1.24137 l -0.05543,0.22361 0.20376,0.1883 c 0.319709,0.29544 0.783475,0.37939 2.681808,0.48543 l 1.770035,0.0989 9.823694,-0.10044 9.82369,-0.10044 0.6527,-0.0919 c 1.14964,-0.16186 1.17667,-0.22473 0.54357,-1.26466 -0.24256,-0.39842 -0.52266,-0.96336 -0.62244,-1.25542 l -0.18142,-0.53101 -0.17908,-1.41365 c -0.20456,-1.61485 -0.17065,-1.52965 -0.55372,-1.39113 -0.16043,0.058 -0.44437,0.10548 -0.63099,0.10548 h -0.33931 l -0.33674,-0.35399 -0.33674,-0.35399 -0.17526,-0.56742 c -0.0964,-0.31209 -0.22123,-0.97918 -0.27742,-1.48242 l -0.10217,-0.91501 0.0579,-0.88501 c 0.19191,-2.93363 1.0045,-5.15822 2.08564,-5.70978 0.42292,-0.21575 0.68431,-0.54601 0.759,-0.95895 0.11949,-0.66062 0.3311,-0.89817 0.80007,-0.89817 1.33616,0 1.51725,3.68061 0.202,4.10572 l -0.30356,0.0981 -0.15474,0.30976 -0.15474,0.30975 v 0.38204 0.38203 l 0.21006,0.28173 c 0.27738,0.37201 0.51912,1.1368 0.88633,2.80403 0.3666,1.66447 0.54715,2.2134 1.11405,3.38708 l 0.43725,0.90525 0.14733,0.66377 c 0.35816,1.61369 0.48159,2.03964 0.81435,2.81043 1.16758,2.70446 3.20835,5.21842 6.12582,7.54621 1.64892,1.31564 2.5482,2.15702 2.70872,2.53434 l 0.11889,0.27947 0.34807,0.0588 c 0.19144,0.0323 0.41993,0.11135 0.50776,0.17557 l 0.15971,0.11678 -0.12714,0.15318 -0.12713,0.15319 -1.10855,-0.0605 c -1.20936,-0.066 -1.72868,-0.16591 -1.83576,-0.35318 -0.0381,-0.0667 -0.368,-0.32066 -0.73307,-0.56443 -1.02644,-0.68543 -2.81024,-2.21434 -4.49169,-3.84985 l -1.5292,-1.48743 -0.64026,-0.30001 c -0.75423,-0.35343 -1.5734,-0.5313 -3.02979,-0.65785 l -1.06202,-0.0923 h -4.29234 c -2.36078,7e-5 -8.27489,0.0786 -13.142468,0.17442 l -8.85014,0.17427 -0.08854,0.12544 c -1.154099,1.63516 -2.143462,2.93226 -2.655026,3.48084 l -0.642875,0.6894 -0.496701,0.2981 c -0.273185,0.16396 -0.857006,0.42858 -1.29738,0.58804 -0.787496,0.28514 -1.501432,0.67988 -1.501432,0.83014 0,0.34185 -1.218113,1.03904 -1.565121,0.89581 z m 62.328249,-18.60878 c -1.08272,-1.65656 -1.61103,-6.87414 -1.78554,-17.63398 l -0.0574,-3.54007 0.10264,-2.42785 c 0.10827,-2.56119 0.21109,-3.57967 0.40924,-4.05394 l 0.12059,-0.28859 h 0.17948 0.17948 l 0.13906,0.21224 c 0.0765,0.11673 0.2541,0.51097 0.39469,0.87609 0.38475,0.9992 0.79773,1.77009 1.54296,2.88021 1.4669,2.18516 2.33798,4.68134 2.90763,8.33209 l 0.1866,1.19589 0.005,2.65505 0.005,2.65505 -0.16348,0.97352 c -0.45611,2.71607 -1.01908,4.0229 -2.40325,5.57865 -0.78697,0.88454 -0.97438,1.23701 -1.05669,1.98737 -0.088,0.80192 -0.40043,1.06653 -0.70648,0.59827 z m 1.23558,-5.50924 c 0.79775,-1.6108 1.1651,-3.19547 1.25143,-5.3986 l 0.052,-1.32753 -0.10726,-1.10627 c -0.26816,-2.7661 -0.9997,-5.46205 -2.1313,-7.85453 l -0.42905,-0.90715 h -0.13418 -0.13418 l -0.0704,0.33189 c -0.0387,0.18253 -0.0666,1.86517 -0.0619,3.73919 l 0.008,3.40732 0.14795,3.05331 c 0.27684,5.71309 0.39627,7.155 0.61473,7.42136 l 0.0984,0.11996 0.20659,-0.25271 c 0.11363,-0.13899 0.42357,-0.6908 0.68874,-1.22624 z m -39.43077,-27.87199 c -2.10257,-0.44397 -5.433549,-2.53056 -7.533104,-4.71889 l -0.851227,-0.88722 -0.637926,-0.954 c -1.626421,-2.43227 -3.798909,-8.13666 -4.385695,-11.51573 l -0.114521,-0.65948 0.06308,-0.2378 0.06308,-0.23782 0.24529,-0.0288 0.245291,-0.0288 0.330738,0.21888 c 0.181907,0.12038 0.646368,0.48816 1.032138,0.8173 1.21196,1.03404 2.163133,1.57779 3.259761,1.86349 l 0.5392,0.14047 0.755877,-0.002 0.755878,-0.002 0.571648,-0.14579 c 1.823723,-0.46514 3.916132,-2.08103 5.644802,-4.35926 l 0.55336,-0.72929 0.21857,-0.0549 0.21857,-0.0549 0.24274,0.15589 c 0.1335,0.0857 0.77306,0.70644 1.42125,1.37935 2.39489,2.48625 4.48374,3.61738 6.68025,3.61738 h 0.56484 l 0.68357,-0.17483 c 0.37597,-0.0962 0.92995,-0.30517 1.23106,-0.46447 l 0.54748,-0.28964 1.12561,-1.08431 1.12562,-1.08431 h 0.20634 c 0.11348,0 0.25412,0.0478 0.31253,0.1062 l 0.1062,0.1062 v 0.53126 0.53127 l -0.31239,1.53188 c -1.56055,7.65251 -5.2825,13.63711 -9.8976,15.91457 l -0.98548,0.48632 -0.70801,0.18357 -0.70802,0.18358 -1.01777,0.0336 -1.01776,0.0336 -0.57527,-0.12147 z M 74.589255,151.32066 c -1.909802,-0.37726 -2.009964,-2.53401 -0.163291,-3.51606 l 0.269799,-0.14348 -0.144597,-0.0311 c -0.07953,-0.0171 -0.457872,0.0479 -0.840766,0.14445 -0.382893,0.0966 -1.028887,0.22325 -1.435541,0.28155 l -0.739371,0.106 -1.605925,-0.0509 -1.605925,-0.0509 -0.605011,-0.1379 C 61.141871,146.4232 58.655722,136.36571 62.79513,128.00474 l 0.613425,-1.23902 0.573254,-0.79652 c 0.315291,-0.43808 0.916679,-1.14464 1.336421,-1.57013 l 0.763167,-0.77361 0.727204,-0.48386 c 0.904987,-0.60216 1.640404,-0.94662 2.665559,-1.24852 l 0.796516,-0.23456 1.306006,-0.0471 1.306006,-0.0471 0.685283,0.11 c 4.88812,0.78465 7.773871,5.45135 8.046456,13.01234 l 0.05264,1.46028 -0.107398,1.10627 c -0.439604,4.52824 -2.471375,8.07171 -5.511524,9.61227 -0.617808,0.31306 -0.487009,0.34326 0.520115,0.12008 l 0.871052,-0.19304 1.025669,-0.0464 1.025669,-0.0464 0.611613,0.10522 c 0.336388,0.0579 0.817325,0.19871 1.068751,0.31298 l 0.457136,0.20778 0.160475,0.24491 0.160475,0.24492 -0.0089,0.33971 -0.0089,0.33971 -0.246439,0.35561 c -0.999629,1.44247 -5.08971,2.86623 -7.095596,2.46999 z m 55.951105,-0.40078 c -2.23802,-0.77663 -5.58403,-2.82996 -5.76107,-3.53537 l -0.0583,-0.2321 0.0999,-0.21933 0.0999,-0.21932 0.33167,-0.15029 0.33169,-0.15028 1.50453,0.006 1.50453,0.006 0.87547,0.15096 c 1.06104,0.18294 1.1029,0.15862 0.43959,-0.25546 -1.96923,-1.22938 -3.00278,-2.1994 -4.07531,-3.8248 -0.92033,-1.39475 -1.55603,-3.0226 -1.90544,-4.87932 l -0.19331,-1.02728 -8.9e-4,-1.85854 -8.8e-4,-1.85853 0.1547,-1.01777 c 0.87874,-5.78146 3.4381,-9.48476 7.37902,-10.67715 l 0.77851,-0.23555 1.32753,-0.001 1.32752,-10e-4 0.70034,0.19188 c 5.08049,1.39197 8.44289,6.89096 8.85683,14.48477 l 0.0579,1.06202 -0.0947,1.15052 c -0.34763,4.22469 -1.94518,7.32228 -4.63125,8.97985 l -0.68646,0.42361 -0.82728,0.27433 -0.82729,0.27432 -0.85649,0.0787 c -0.98915,0.0909 -0.99994,0.0967 -0.85106,0.45612 l 0.11212,0.27069 -0.0553,0.40345 c -0.0304,0.2219 -0.13696,0.51814 -0.23678,0.65832 l -0.18148,0.25486 -0.31021,0.0856 -0.31021,0.0857 -0.46036,-0.1246 c -0.2532,-0.0685 -0.55019,-0.15021 -0.65997,-0.18149 l -0.1996,-0.0569 -0.13228,0.10978 c -0.0728,0.0604 -0.13228,0.20157 -0.13228,0.31375 v 0.20398 l -0.32845,0.27074 c -0.72152,0.59474 -1.11785,0.65319 -2.10535,0.31051 z"
       id="path384" /></g></svg>
