999
"DXF R12 Output" (www.mydxf.blogspot.com)
 0 
SECTION
 2 
HEADER
 9 
$ACADVER
 1 
AC1009
 9 
$EXTMIN
 10 
 0 
 20 
 0 
 9 
$EXTMAX
 10 
 8.5 
 20 
 11 
 0 
ENDSEC
 0 
SECTION
 2 
ENTITIES
0
LINE
8
Layer 1
10
115.848000
20
0.059220
11
115.693130
21
0.101320
0
LINE
8
Layer 1
10
115.693130
20
0.101320
11
115.693000
21
0.263590
0
LINE
8
Layer 1
10
115.693000
20
0.263590
11
115.693000
21
0.425870
0
LINE
8
Layer 1
10
115.693000
20
0.425870
11
116.127800
21
0.789900
0
LINE
8
Layer 1
10
116.127800
20
0.789900
11
116.562590
21
1.153930
0
LINE
8
Layer 1
10
116.562590
20
1.153930
11
116.702820
21
1.565470
0
LINE
8
Layer 1
10
116.702820
20
1.565470
11
117.628910
21
3.355840
0
LINE
8
Layer 1
10
117.628910
20
3.355840
11
118.689599
21
5.301648
0
LINE
8
Layer 1
10
118.689599
20
5.301648
11
119.308151
21
6.760265
0
LINE
8
Layer 1
10
119.308151
20
6.760265
11
119.621658
21
8.150745
0
LINE
8
Layer 1
10
119.621658
20
8.150745
11
119.767210
21
9.892140
0
LINE
8
Layer 1
10
119.767210
20
9.892140
11
119.907523
21
11.551297
0
LINE
8
Layer 1
10
119.907523
20
11.551297
11
120.155340
21
12.260070
0
LINE
8
Layer 1
10
120.155340
20
12.260070
11
120.284720
21
12.434340
0
LINE
8
Layer 1
10
120.284720
20
12.434340
11
120.444780
21
12.336840
0
LINE
8
Layer 1
10
120.444780
20
12.336840
11
120.604840
21
12.239340
0
LINE
8
Layer 1
10
120.604840
20
12.239340
11
120.665440
21
11.805810
0
LINE
8
Layer 1
10
120.665440
20
11.805810
11
120.821480
21
10.398760
0
LINE
8
Layer 1
10
120.821480
20
10.398760
11
121.075894
21
8.695725
0
LINE
8
Layer 1
10
121.075894
20
8.695725
11
121.440010
21
7.336040
0
LINE
8
Layer 1
10
121.440010
20
7.336040
11
121.625870
21
6.839870
0
LINE
8
Layer 1
10
121.625870
20
6.839870
11
121.991750
21
6.674880
0
LINE
8
Layer 1
10
121.991750
20
6.674880
11
122.357640
21
6.509880
0
LINE
8
Layer 1
10
122.357640
20
6.509880
11
122.991500
21
6.519880
0
LINE
8
Layer 1
10
122.991500
20
6.519880
11
123.625360
21
6.529880
0
LINE
8
Layer 1
10
123.625360
20
6.529880
11
124.309210
21
6.717490
0
LINE
8
Layer 1
10
124.309210
20
6.717490
11
125.649214
21
7.246911
0
LINE
8
Layer 1
10
125.649214
20
7.246911
11
126.947540
21
8.123260
0
LINE
8
Layer 1
10
126.947540
20
8.123260
11
127.821080
21
8.778010
0
LINE
8
Layer 1
10
127.821080
20
8.778010
11
127.927590
21
8.813510
0
LINE
8
Layer 1
10
127.927590
20
8.813510
11
127.648930
21
9.365530
0
LINE
8
Layer 1
10
127.648930
20
9.365530
11
127.107270
21
10.702560
0
LINE
8
Layer 1
10
127.107270
20
10.702560
11
126.844260
21
11.487580
0
LINE
8
Layer 1
10
126.844260
20
11.487580
11
126.844000
21
11.903700
0
LINE
8
Layer 1
10
126.844000
20
11.903700
11
126.844000
21
12.319700
0
LINE
8
Layer 1
10
126.844000
20
12.319700
11
126.988940
21
12.625130
0
LINE
8
Layer 1
10
126.988940
20
12.625130
11
127.133870
21
12.930550
0
LINE
8
Layer 1
10
127.133870
20
12.930550
11
127.493050
21
13.113780
0
LINE
8
Layer 1
10
127.493050
20
13.113780
11
127.852230
21
13.297030
0
LINE
8
Layer 1
10
127.852230
20
13.297030
11
128.460640
21
13.253530
0
LINE
8
Layer 1
10
128.460640
20
13.253530
11
129.069050
21
13.210030
0
LINE
8
Layer 1
10
129.069050
20
13.210030
11
129.792940
21
12.851210
0
LINE
8
Layer 1
10
129.792940
20
12.851210
11
130.516830
21
12.492380
0
LINE
8
Layer 1
10
130.516830
20
12.492380
11
131.072300
21
11.989540
0
LINE
8
Layer 1
10
131.072300
20
11.989540
11
131.976124
21
10.986785
0
LINE
8
Layer 1
10
131.976124
20
10.986785
11
132.647380
21
9.879120
0
LINE
8
Layer 1
10
132.647380
20
9.879120
11
132.875640
21
9.380550
0
LINE
8
Layer 1
10
132.875640
20
9.380550
11
132.891040
21
8.866850
0
LINE
8
Layer 1
10
132.891040
20
8.866850
11
132.906440
21
8.353160
0
LINE
8
Layer 1
10
132.906440
20
8.353160
11
133.067750
21
8.557690
0
LINE
8
Layer 1
10
133.067750
20
8.557690
11
133.229050
21
8.762200
0
LINE
8
Layer 1
10
133.229050
20
8.762200
11
133.441000
21
8.762230
0
LINE
8
Layer 1
10
133.441000
20
8.762230
11
134.117490
21
8.578970
0
LINE
8
Layer 1
10
134.117490
20
8.578970
11
134.582420
21
8.395710
0
LINE
8
Layer 1
10
134.582420
20
8.395710
11
134.895150
21
8.450910
0
LINE
8
Layer 1
10
134.895150
20
8.450910
11
135.480141
21
8.628650
0
LINE
8
Layer 1
10
135.480141
20
8.628650
11
135.173510
21
8.791210
0
LINE
8
Layer 1
10
135.173510
20
8.791210
11
134.914190
21
8.843110
0
LINE
8
Layer 1
10
134.914190
20
8.843110
11
134.485780
21
9.271910
0
LINE
8
Layer 1
10
134.485780
20
9.271910
11
134.057360
21
9.700720
0
LINE
8
Layer 1
10
134.057360
20
9.700720
11
133.777190
21
10.276330
0
LINE
8
Layer 1
10
133.777190
20
10.276330
11
133.372270
21
11.303684
0
LINE
8
Layer 1
10
133.372270
20
11.303684
11
133.135320
21
12.419620
0
LINE
8
Layer 1
10
133.135320
20
12.419620
11
133.051020
21
13.023700
0
LINE
8
Layer 1
10
133.051020
20
13.023700
11
133.131420
21
13.517730
0
LINE
8
Layer 1
10
133.131420
20
13.517730
11
133.211820
21
14.011740
0
LINE
8
Layer 1
10
133.211820
20
14.011740
11
133.445320
21
14.348690
0
LINE
8
Layer 1
10
133.445320
20
14.348690
11
133.678820
21
14.685640
0
LINE
8
Layer 1
10
133.678820
20
14.685640
11
134.057310
21
14.868860
0
LINE
8
Layer 1
10
134.057310
20
14.868860
11
134.435790
21
15.052080
0
LINE
8
Layer 1
10
134.435790
20
15.052080
11
135.088640
21
15.055080
0
LINE
8
Layer 1
10
135.088640
20
15.055080
11
136.176480
21
14.942827
0
LINE
8
Layer 1
10
136.176480
20
14.942827
11
137.420380
21
14.495130
0
LINE
8
Layer 1
10
137.420380
20
14.495130
11
139.419720
21
13.717940
0
LINE
8
Layer 1
10
139.419720
20
13.717940
11
139.512000
21
13.717900
0
LINE
8
Layer 1
10
139.512000
20
13.717900
11
139.344720
21
13.961280
0
LINE
8
Layer 1
10
139.344720
20
13.961280
11
138.928100
21
14.691420
0
LINE
8
Layer 1
10
138.928100
20
14.691420
11
137.351861
21
17.037231
0
LINE
8
Layer 1
10
137.351861
20
17.037231
11
134.864080
21
19.786160
0
LINE
8
Layer 1
10
134.864080
20
19.786160
11
133.349070
21
21.296580
0
LINE
8
Layer 1
10
133.349070
20
21.296580
11
132.285030
21
22.102270
0
LINE
8
Layer 1
10
132.285030
20
22.102270
11
131.063690
21
23.081780
0
LINE
8
Layer 1
10
131.063690
20
23.081780
11
130.906390
21
23.255590
0
LINE
8
Layer 1
10
130.906390
20
23.255590
11
131.262930
21
24.615490
0
LINE
8
Layer 1
10
131.262930
20
24.615490
11
132.209521
21
29.200035
0
LINE
8
Layer 1
10
132.209521
20
29.200035
11
132.571420
21
33.815630
0
LINE
8
Layer 1
10
132.571420
20
33.815630
11
132.621020
21
35.903280
0
LINE
8
Layer 1
10
132.621020
20
35.903280
11
132.515670
21
36.909490
0
LINE
8
Layer 1
10
132.515670
20
36.909490
11
132.410310
21
37.915700
0
LINE
8
Layer 1
10
132.410310
20
37.915700
11
132.012440
21
39.468200
0
LINE
8
Layer 1
10
132.012440
20
39.468200
11
131.094406
21
42.594767
0
LINE
8
Layer 1
10
131.094406
20
42.594767
11
129.943761
21
45.625225
0
LINE
8
Layer 1
10
129.943761
20
45.625225
11
128.470820
21
48.770696
0
LINE
8
Layer 1
10
128.470820
20
48.770696
11
126.585900
21
52.242300
0
LINE
8
Layer 1
10
126.585900
20
52.242300
11
124.952559
21
54.973499
0
LINE
8
Layer 1
10
124.952559
20
54.973499
11
124.084420
21
56.146970
0
LINE
8
Layer 1
10
124.084420
20
56.146970
11
123.894340
21
56.280110
0
LINE
8
Layer 1
10
123.894340
20
56.280110
11
123.325120
21
55.747640
0
LINE
8
Layer 1
10
123.325120
20
55.747640
11
122.152010
21
54.813600
0
LINE
8
Layer 1
10
122.152010
20
54.813600
11
121.548110
21
54.412040
0
LINE
8
Layer 1
10
121.548110
20
54.412040
11
121.256660
21
54.398240
0
LINE
8
Layer 1
10
121.256660
20
54.398240
11
120.965210
21
54.384440
0
LINE
8
Layer 1
10
120.965210
20
54.384440
11
120.936210
21
54.524610
0
LINE
8
Layer 1
10
120.936210
20
54.524610
11
121.429860
21
55.453880
0
LINE
8
Layer 1
10
121.429860
20
55.453880
11
122.201960
21
56.729740
0
LINE
8
Layer 1
10
122.201960
20
56.729740
11
122.451450
21
57.216500
0
LINE
8
Layer 1
10
122.451450
20
57.216500
11
122.454450
21
57.663120
0
LINE
8
Layer 1
10
122.454450
20
57.663120
11
122.457450
21
58.109740
0
LINE
8
Layer 1
10
122.457450
20
58.109740
11
122.201610
21
58.546300
0
LINE
8
Layer 1
10
122.201610
20
58.546300
11
120.964310
21
60.002470
0
LINE
8
Layer 1
10
120.964310
20
60.002470
11
119.489314
21
61.675772
0
LINE
8
Layer 1
10
119.489314
20
61.675772
11
118.448820
21
63.224684
0
LINE
8
Layer 1
10
118.448820
20
63.224684
11
117.754736
21
64.808289
0
LINE
8
Layer 1
10
117.754736
20
64.808289
11
117.318970
21
66.585670
0
LINE
8
Layer 1
10
117.318970
20
66.585670
11
117.178030
21
67.394200
0
LINE
8
Layer 1
10
117.178030
20
67.394200
11
117.223230
21
68.677470
0
LINE
8
Layer 1
10
117.223230
20
68.677470
11
117.268430
21
69.960750
0
LINE
8
Layer 1
10
117.268430
20
69.960750
11
117.412060
21
70.617000
0
LINE
8
Layer 1
10
117.412060
20
70.617000
11
117.826212
21
72.054138
0
LINE
8
Layer 1
10
117.826212
20
72.054138
11
118.421622
21
73.469892
0
LINE
8
Layer 1
10
118.421622
20
73.469892
11
119.170459
21
74.828104
0
LINE
8
Layer 1
10
119.170459
20
74.828104
11
120.044895
21
76.092619
0
LINE
8
Layer 1
10
120.044895
20
76.092619
11
121.017099
21
77.227278
0
LINE
8
Layer 1
10
121.017099
20
77.227278
11
122.059241
21
78.195924
0
LINE
8
Layer 1
10
122.059241
20
78.195924
11
123.143491
21
78.962400
0
LINE
8
Layer 1
10
123.143491
20
78.962400
11
124.242020
21
79.490550
0
LINE
8
Layer 1
10
124.242020
20
79.490550
11
124.764870
21
79.679840
0
LINE
8
Layer 1
10
124.764870
20
79.679840
11
125.577940
21
79.720340
0
LINE
8
Layer 1
10
125.577940
20
79.720340
11
126.391010
21
79.760840
0
LINE
8
Layer 1
10
126.391010
20
79.760840
11
126.997650
21
79.576580
0
LINE
8
Layer 1
10
126.997650
20
79.576580
11
128.159968
21
79.038440
0
LINE
8
Layer 1
10
128.159968
20
79.038440
11
129.247428
21
78.137754
0
LINE
8
Layer 1
10
129.247428
20
78.137754
11
130.291211
21
76.842393
0
LINE
8
Layer 1
10
130.291211
20
76.842393
11
131.322500
21
75.120230
0
LINE
8
Layer 1
10
131.322500
20
75.120230
11
131.901530
21
74.031850
0
LINE
8
Layer 1
10
131.901530
20
74.031850
11
131.854130
21
76.023140
0
LINE
8
Layer 1
10
131.854130
20
76.023140
11
131.588530
21
80.492470
0
LINE
8
Layer 1
10
131.588530
20
80.492470
11
131.263820
21
85.002510
0
LINE
8
Layer 1
10
131.263820
20
85.002510
11
131.157310
21
87.034510
0
LINE
8
Layer 1
10
131.157310
20
87.034510
11
131.263320
21
87.448130
0
LINE
8
Layer 1
10
131.263320
20
87.448130
11
131.369320
21
87.861750
0
LINE
8
Layer 1
10
131.369320
20
87.861750
11
131.278220
21
89.088960
0
LINE
8
Layer 1
10
131.278220
20
89.088960
11
131.133810
21
91.333940
0
LINE
8
Layer 1
10
131.133810
20
91.333940
11
130.882244
21
94.374081
0
LINE
8
Layer 1
10
130.882244
20
94.374081
11
130.446717
21
96.981930
0
LINE
8
Layer 1
10
130.446717
20
96.981930
11
129.783787
21
99.354459
0
LINE
8
Layer 1
10
129.783787
20
99.354459
11
128.850010
21
101.688640
0
LINE
8
Layer 1
10
128.850010
20
101.688640
11
128.386720
21
102.706410
0
LINE
8
Layer 1
10
128.386720
20
102.706410
11
128.029710
21
102.678210
0
LINE
8
Layer 1
10
128.029710
20
102.678210
11
127.672700
21
102.650010
0
LINE
8
Layer 1
10
127.672700
20
102.650010
11
127.367860
21
102.987960
0
LINE
8
Layer 1
10
127.367860
20
102.987960
11
126.235650
21
104.697730
0
LINE
8
Layer 1
10
126.235650
20
104.697730
11
122.765063
21
109.962630
0
LINE
8
Layer 1
10
122.765063
20
109.962630
11
119.221492
21
114.515732
0
LINE
8
Layer 1
10
119.221492
20
114.515732
11
117.562170
21
116.361421
0
LINE
8
Layer 1
10
117.562170
20
116.361421
11
116.052400
21
117.832434
0
LINE
8
Layer 1
10
116.052400
20
117.832434
11
114.748116
21
118.863196
0
LINE
8
Layer 1
10
114.748116
20
118.863196
11
113.705250
21
119.388130
0
LINE
8
Layer 1
10
113.705250
20
119.388130
11
113.311060
21
119.498500
0
LINE
8
Layer 1
10
113.311060
20
119.498500
11
113.070620
21
119.438200
0
LINE
8
Layer 1
10
113.070620
20
119.438200
11
112.830190
21
119.377900
0
LINE
8
Layer 1
10
112.830190
20
119.377900
11
112.196290
21
118.741860
0
LINE
8
Layer 1
10
112.196290
20
118.741860
11
111.036907
21
117.393168
0
LINE
8
Layer 1
10
111.036907
20
117.393168
11
109.596481
21
115.362410
0
LINE
8
Layer 1
10
109.596481
20
115.362410
11
105.519180
21
108.724660
0
LINE
8
Layer 1
10
105.519180
20
108.724660
11
103.562086
21
105.538788
0
LINE
8
Layer 1
10
103.562086
20
105.538788
11
101.573220
21
102.634344
0
LINE
8
Layer 1
10
101.573220
20
102.634344
11
99.424372
21
99.834582
0
LINE
8
Layer 1
10
99.424372
20
99.834582
11
96.987330
21
96.962760
0
LINE
8
Layer 1
10
96.987330
20
96.962760
11
92.767900
21
91.998160
0
LINE
8
Layer 1
10
92.767900
20
91.998160
11
90.673972
21
89.641413
0
LINE
8
Layer 1
10
90.673972
20
89.641413
11
90.016153
21
89.110448
0
LINE
8
Layer 1
10
90.016153
20
89.110448
11
89.547590
21
88.944550
0
LINE
8
Layer 1
10
89.547590
20
88.944550
11
89.324100
21
88.944600
0
LINE
8
Layer 1
10
89.324100
20
88.944600
11
89.176470
21
89.169900
0
LINE
8
Layer 1
10
89.176470
20
89.169900
11
89.028840
21
89.395220
0
LINE
8
Layer 1
10
89.028840
20
89.395220
11
89.081240
21
90.165550
0
LINE
8
Layer 1
10
89.081240
20
90.165550
11
89.355204
21
91.984902
0
LINE
8
Layer 1
10
89.355204
20
91.984902
11
90.158810
21
95.539830
0
LINE
8
Layer 1
10
90.158810
20
95.539830
11
91.000770
21
99.258160
0
LINE
8
Layer 1
10
91.000770
20
99.258160
11
91.272940
21
100.582580
0
LINE
8
Layer 1
10
91.272940
20
100.582580
11
91.326440
21
101.514690
0
LINE
8
Layer 1
10
91.326440
20
101.514690
11
91.379940
21
102.446810
0
LINE
8
Layer 1
10
91.379940
20
102.446810
11
91.228230
21
102.740180
0
LINE
8
Layer 1
10
91.228230
20
102.740180
11
91.076530
21
103.033550
0
LINE
8
Layer 1
10
91.076530
20
103.033550
11
90.751350
21
102.973150
0
LINE
8
Layer 1
10
90.751350
20
102.973150
11
89.388052
21
102.509573
0
LINE
8
Layer 1
10
89.388052
20
102.509573
11
87.264906
21
101.525847
0
LINE
8
Layer 1
10
87.264906
20
101.525847
11
81.542990
21
98.397420
0
LINE
8
Layer 1
10
81.542990
20
98.397420
11
78.472950
21
96.646824
0
LINE
8
Layer 1
10
78.472950
20
96.646824
11
76.929670
21
95.933710
0
LINE
8
Layer 1
10
76.929670
20
95.933710
11
76.354408
21
95.741490
0
LINE
8
Layer 1
10
76.354408
20
95.741490
11
75.203888
21
95.739490
0
LINE
8
Layer 1
10
75.203888
20
95.739490
11
74.053368
21
95.737490
0
LINE
8
Layer 1
10
74.053368
20
95.737490
11
73.728370
21
95.873780
0
LINE
8
Layer 1
10
73.728370
20
95.873780
11
73.252422
21
96.240450
0
LINE
8
Layer 1
10
73.252422
20
96.240450
11
73.101471
21
96.470830
0
LINE
8
Layer 1
10
73.101471
20
96.470830
11
73.147931
21
96.883030
0
LINE
8
Layer 1
10
73.147931
20
96.883030
11
73.194391
21
97.295220
0
LINE
8
Layer 1
10
73.194391
20
97.295220
11
73.730901
21
98.363700
0
LINE
8
Layer 1
10
73.730901
20
98.363700
11
75.702121
21
101.733210
0
LINE
8
Layer 1
10
75.702121
20
101.733210
11
80.050651
21
108.855335
0
LINE
8
Layer 1
10
80.050651
20
108.855335
11
83.835361
21
115.458910
0
LINE
8
Layer 1
10
83.835361
20
115.458910
11
87.333901
21
121.658240
0
LINE
8
Layer 1
10
87.333901
20
121.658240
11
90.024455
21
126.504971
0
LINE
8
Layer 1
10
90.024455
20
126.504971
11
90.808948
21
128.134410
0
LINE
8
Layer 1
10
90.808948
20
128.134410
11
91.248582
21
129.342864
0
LINE
8
Layer 1
10
91.248582
20
129.342864
11
91.365106
21
130.211556
0
LINE
8
Layer 1
10
91.365106
20
130.211556
11
91.180266
21
130.821710
0
LINE
8
Layer 1
10
91.180266
20
130.821710
11
90.715812
21
131.254550
0
LINE
8
Layer 1
10
90.715812
20
131.254550
11
89.993491
21
131.591300
0
LINE
8
Layer 1
10
89.993491
20
131.591300
11
88.006446
21
132.048332
0
LINE
8
Layer 1
10
88.006446
20
132.048332
11
84.728645
21
132.481273
0
LINE
8
Layer 1
10
84.728645
20
132.481273
11
75.779191
21
133.116260
0
LINE
8
Layer 1
10
75.779191
20
133.116260
11
73.256891
21
133.219595
0
LINE
8
Layer 1
10
73.256891
20
133.219595
11
69.539821
21
133.167665
0
LINE
8
Layer 1
10
69.539821
20
133.167665
11
65.822751
21
133.115735
0
LINE
8
Layer 1
10
65.822751
20
133.115735
11
63.919961
21
132.978473
0
LINE
8
Layer 1
10
63.919961
20
132.978473
11
59.901936
21
132.627217
0
LINE
8
Layer 1
10
59.901936
20
132.627217
11
56.847482
21
132.172600
0
LINE
8
Layer 1
10
56.847482
20
132.172600
11
54.154268
21
131.496085
0
LINE
8
Layer 1
10
54.154268
20
131.496085
11
51.219961
21
130.479133
0
LINE
8
Layer 1
10
51.219961
20
130.479133
11
49.007421
21
129.645474
0
LINE
8
Layer 1
10
49.007421
20
129.645474
11
47.502891
21
128.912881
0
LINE
8
Layer 1
10
47.502891
20
128.912881
11
44.449581
21
127.293711
0
LINE
8
Layer 1
10
44.449581
20
127.293711
11
41.843661
21
125.840891
0
LINE
8
Layer 1
10
41.843661
20
125.840891
11
40.786521
21
125.274651
0
LINE
8
Layer 1
10
40.786521
20
125.274651
11
40.327134
21
124.827581
0
LINE
8
Layer 1
10
40.327134
20
124.827581
11
39.567482
21
123.896952
0
LINE
8
Layer 1
10
39.567482
20
123.896952
11
38.592764
21
122.198181
0
LINE
8
Layer 1
10
38.592764
20
122.198181
11
37.478284
21
120.241161
0
LINE
8
Layer 1
10
37.478284
20
120.241161
11
36.451789
21
118.383452
0
LINE
8
Layer 1
10
36.451789
20
118.383452
11
35.862674
21
116.977131
0
LINE
8
Layer 1
10
35.862674
20
116.977131
11
34.316804
21
112.707401
0
LINE
8
Layer 1
10
34.316804
20
112.707401
11
33.106614
21
109.351687
0
LINE
8
Layer 1
10
33.106614
20
109.351687
11
31.980484
21
104.830751
0
LINE
8
Layer 1
10
31.980484
20
104.830751
11
31.137999
21
100.950874
0
LINE
8
Layer 1
10
31.137999
20
100.950874
11
30.687999
21
97.847928
0
LINE
8
Layer 1
10
30.687999
20
97.847928
11
30.495391
21
94.076820
0
LINE
8
Layer 1
10
30.495391
20
94.076820
11
30.425084
21
88.192451
0
LINE
8
Layer 1
10
30.425084
20
88.192451
11
30.282434
21
78.498915
0
LINE
8
Layer 1
10
30.282434
20
78.498915
11
29.843434
21
72.947351
0
LINE
8
Layer 1
10
29.843434
20
72.947351
11
29.581273
21
70.097741
0
LINE
8
Layer 1
10
29.581273
20
70.097741
11
29.581200
21
69.660400
0
LINE
8
Layer 1
10
29.581200
20
69.660400
11
29.805400
21
68.969940
0
LINE
8
Layer 1
10
29.805400
20
68.969940
11
30.282035
21
67.748480
0
LINE
8
Layer 1
10
30.282035
20
67.748480
11
30.534471
21
67.217470
0
LINE
8
Layer 1
10
30.534471
20
67.217470
11
30.526471
21
69.828270
0
LINE
8
Layer 1
10
30.526471
20
69.828270
11
30.518471
21
72.439070
0
LINE
8
Layer 1
10
30.518471
20
72.439070
11
30.676998
21
73.147080
0
LINE
8
Layer 1
10
30.676998
20
73.147080
11
31.081280
21
74.386010
0
LINE
8
Layer 1
10
31.081280
20
74.386010
11
31.716245
21
75.577349
0
LINE
8
Layer 1
10
31.716245
20
75.577349
11
32.553287
21
76.676578
0
LINE
8
Layer 1
10
32.553287
20
76.676578
11
33.563798
21
77.639180
0
LINE
8
Layer 1
10
33.563798
20
77.639180
11
34.227561
21
78.175870
0
LINE
8
Layer 1
10
34.227561
20
78.175870
11
34.935575
21
78.513790
0
LINE
8
Layer 1
10
34.935575
20
78.513790
11
36.218855
21
78.998490
0
LINE
8
Layer 1
10
36.218855
20
78.998490
11
36.794116
21
79.145260
0
LINE
8
Layer 1
10
36.794116
20
79.145260
11
37.634883
21
79.147260
0
LINE
8
Layer 1
10
37.634883
20
79.147260
11
38.706792
21
79.074346
0
LINE
8
Layer 1
10
38.706792
20
79.074346
11
39.724255
21
78.842829
0
LINE
8
Layer 1
10
39.724255
20
78.842829
11
40.720077
21
78.442545
0
LINE
8
Layer 1
10
40.720077
20
78.442545
11
41.727063
21
77.863330
0
LINE
8
Layer 1
10
41.727063
20
77.863330
11
42.544142
21
77.326800
0
LINE
8
Layer 1
10
42.544142
20
77.326800
11
43.301122
21
76.561860
0
LINE
8
Layer 1
10
43.301122
20
76.561860
11
44.058102
21
75.796900
0
LINE
8
Layer 1
10
44.058102
20
75.796900
11
44.612338
21
74.968310
0
LINE
8
Layer 1
10
44.612338
20
74.968310
11
45.587148
21
73.263915
0
LINE
8
Layer 1
10
45.587148
20
73.263915
11
46.301480
21
71.476862
0
LINE
8
Layer 1
10
46.301480
20
71.476862
11
46.754239
21
69.641794
0
LINE
8
Layer 1
10
46.754239
20
69.641794
11
46.944326
21
67.793354
0
LINE
8
Layer 1
10
46.944326
20
67.793354
11
46.870645
21
65.966183
0
LINE
8
Layer 1
10
46.870645
20
65.966183
11
46.532098
21
64.194923
0
LINE
8
Layer 1
10
46.532098
20
64.194923
11
45.927589
21
62.514218
0
LINE
8
Layer 1
10
45.927589
20
62.514218
11
45.056020
21
60.958710
0
LINE
8
Layer 1
10
45.056020
20
60.958710
11
44.498497
21
60.137300
0
LINE
8
Layer 1
10
44.498497
20
60.137300
11
43.611115
21
59.251560
0
LINE
8
Layer 1
10
43.611115
20
59.251560
11
42.723732
21
58.365830
0
LINE
8
Layer 1
10
42.723732
20
58.365830
11
42.300054
21
58.159560
0
LINE
8
Layer 1
10
42.300054
20
58.159560
11
41.876376
21
57.953300
0
LINE
8
Layer 1
10
41.876376
20
57.953300
11
41.140993
21
57.886300
0
LINE
8
Layer 1
10
41.140993
20
57.886300
11
40.395465
21
57.732388
0
LINE
8
Layer 1
10
40.395465
20
57.732388
11
40.235380
21
57.582815
0
LINE
8
Layer 1
10
40.235380
20
57.582815
11
40.222753
21
57.360872
0
LINE
8
Layer 1
10
40.222753
20
57.360872
11
40.656889
21
56.627996
0
LINE
8
Layer 1
10
40.656889
20
56.627996
11
41.731903
21
55.390000
0
LINE
8
Layer 1
10
41.731903
20
55.390000
11
43.425008
21
53.652428
0
LINE
8
Layer 1
10
43.425008
20
53.652428
11
45.172499
21
52.100792
0
LINE
8
Layer 1
10
45.172499
20
52.100792
11
47.024878
21
50.705951
0
LINE
8
Layer 1
10
47.024878
20
50.705951
11
49.032644
21
49.438766
0
LINE
8
Layer 1
10
49.032644
20
49.438766
11
51.246299
21
48.270098
0
LINE
8
Layer 1
10
51.246299
20
48.270098
11
53.716344
21
47.170808
0
LINE
8
Layer 1
10
53.716344
20
47.170808
11
59.627603
21
45.063800
0
LINE
8
Layer 1
10
59.627603
20
45.063800
11
65.619697
21
43.248708
0
LINE
8
Layer 1
10
65.619697
20
43.248708
11
70.350464
21
42.035817
0
LINE
8
Layer 1
10
70.350464
20
42.035817
11
74.576326
21
41.256918
0
LINE
8
Layer 1
10
74.576326
20
41.256918
11
79.053703
21
40.743800
0
LINE
8
Layer 1
10
79.053703
20
40.743800
11
80.690993
21
40.596660
0
LINE
8
Layer 1
10
80.690993
20
40.596660
11
82.992033
21
40.592660
0
LINE
8
Layer 1
10
82.992033
20
40.592660
11
85.293083
21
40.588660
0
LINE
8
Layer 1
10
85.293083
20
40.588660
11
86.119433
21
40.696800
0
LINE
8
Layer 1
10
86.119433
20
40.696800
11
89.508825
21
41.336320
0
LINE
8
Layer 1
10
89.508825
20
41.336320
11
93.593097
21
42.417655
0
LINE
8
Layer 1
10
93.593097
20
42.417655
11
98.120059
21
43.846109
0
LINE
8
Layer 1
10
98.120059
20
43.846109
11
102.837520
21
45.526990
0
LINE
8
Layer 1
10
102.837520
20
45.526990
11
107.493289
21
47.365603
0
LINE
8
Layer 1
10
107.493289
20
47.365603
11
111.835175
21
49.267255
0
LINE
8
Layer 1
10
111.835175
20
49.267255
11
115.610987
21
51.137252
0
LINE
8
Layer 1
10
115.610987
20
51.137252
11
118.568533
21
52.880900
0
LINE
8
Layer 1
10
118.568533
20
52.880900
11
119.668438
21
53.576629
0
LINE
8
Layer 1
10
119.668438
20
53.576629
11
120.082213
21
53.685580
0
LINE
8
Layer 1
10
120.082213
20
53.685580
11
120.206973
21
53.637680
0
LINE
8
Layer 1
10
120.206973
20
53.637680
11
120.207000
21
53.419500
0
LINE
8
Layer 1
10
120.207000
20
53.419500
11
120.207000
21
53.201300
0
LINE
8
Layer 1
10
120.207000
20
53.201300
11
119.733870
21
52.572360
0
LINE
8
Layer 1
10
119.733870
20
52.572360
11
118.464593
21
51.036207
0
LINE
8
Layer 1
10
118.464593
20
51.036207
11
117.058571
21
49.653694
0
LINE
8
Layer 1
10
117.058571
20
49.653694
11
115.449971
21
48.387219
0
LINE
8
Layer 1
10
115.449971
20
48.387219
11
113.572961
21
47.199178
0
LINE
8
Layer 1
10
113.572961
20
47.199178
11
111.361709
21
46.051965
0
LINE
8
Layer 1
10
111.361709
20
46.051965
11
108.750381
21
44.907977
0
LINE
8
Layer 1
10
108.750381
20
44.907977
11
102.064170
21
42.479260
0
LINE
8
Layer 1
10
102.064170
20
42.479260
11
97.201262
21
40.991464
0
LINE
8
Layer 1
10
97.201262
20
40.991464
11
92.676912
21
39.895167
0
LINE
8
Layer 1
10
92.676912
20
39.895167
11
88.343667
21
39.159880
0
LINE
8
Layer 1
10
88.343667
20
39.159880
11
84.054070
21
38.755110
0
LINE
8
Layer 1
10
84.054070
20
38.755110
11
82.284040
21
38.652740
0
LINE
8
Layer 1
10
82.284040
20
38.652740
11
80.292750
21
38.708340
0
LINE
8
Layer 1
10
80.292750
20
38.708340
11
75.062316
21
39.099301
0
LINE
8
Layer 1
10
75.062316
20
39.099301
11
69.530911
21
40.055579
0
LINE
8
Layer 1
10
69.530911
20
40.055579
11
63.167976
21
41.692862
0
LINE
8
Layer 1
10
63.167976
20
41.692862
11
55.442950
21
44.126840
0
LINE
8
Layer 1
10
55.442950
20
44.126840
11
51.466606
21
45.538549
0
LINE
8
Layer 1
10
51.466606
20
45.538549
11
47.370090
21
47.255170
0
LINE
8
Layer 1
10
47.370090
20
47.255170
11
46.104920
21
47.701730
0
LINE
8
Layer 1
10
46.104920
20
47.701730
11
45.857517
21
47.702620
0
LINE
8
Layer 1
10
45.857517
20
47.702620
11
45.650720
21
47.495830
0
LINE
8
Layer 1
10
45.650720
20
47.495830
11
45.443922
21
47.289020
0
LINE
8
Layer 1
10
45.443922
20
47.289020
11
45.339679
21
46.809940
0
LINE
8
Layer 1
10
45.339679
20
46.809940
11
45.147332
21
44.259140
0
LINE
8
Layer 1
10
45.147332
20
44.259140
11
45.070837
21
39.516210
0
LINE
8
Layer 1
10
45.070837
20
39.516210
11
44.989672
21
33.717273
0
LINE
8
Layer 1
10
44.989672
20
33.717273
11
44.770656
21
28.494144
0
LINE
8
Layer 1
10
44.770656
20
28.494144
11
44.433861
21
24.191023
0
LINE
8
Layer 1
10
44.433861
20
24.191023
11
43.999357
21
21.152110
0
LINE
8
Layer 1
10
43.999357
20
21.152110
11
43.250920
21
16.240260
0
LINE
8
Layer 1
10
43.250920
20
16.240260
11
43.109130
21
14.912730
0
LINE
8
Layer 1
10
43.109130
20
14.912730
11
43.059890
21
12.027270
0
LINE
8
Layer 1
10
43.059890
20
12.027270
11
43.010650
21
9.141820
0
LINE
8
Layer 1
10
43.010650
20
9.141820
11
43.116966
21
8.088950
0
LINE
8
Layer 1
10
43.116966
20
8.088950
11
43.479017
21
5.874626
0
LINE
8
Layer 1
10
43.479017
20
5.874626
11
44.308226
21
4.212640
0
LINE
8
Layer 1
10
44.308226
20
4.212640
11
44.803548
21
3.327700
0
LINE
8
Layer 1
10
44.803548
20
3.327700
11
45.344521
21
2.103470
0
LINE
8
Layer 1
10
45.344521
20
2.103470
11
45.885494
21
0.976280
0
LINE
8
Layer 1
10
45.885494
20
0.976280
11
45.835834
21
0.846880
0
LINE
8
Layer 1
10
45.835834
20
0.846880
11
45.357680
21
0.609402
0
LINE
8
Layer 1
10
45.357680
20
0.609402
11
44.320364
21
0.500670
0
LINE
8
Layer 1
10
44.320364
20
0.500670
11
43.608775
21
0.486970
0
LINE
8
Layer 1
10
43.608775
20
0.486970
11
43.637485
21
0.954300
0
LINE
8
Layer 1
10
43.637485
20
0.954300
11
43.666195
21
1.421630
0
LINE
8
Layer 1
10
43.666195
20
1.421630
11
43.475565
21
1.815420
0
LINE
8
Layer 1
10
43.475565
20
1.815420
11
43.284935
21
2.209210
0
LINE
8
Layer 1
10
43.284935
20
2.209210
11
42.653249
21
2.794060
0
LINE
8
Layer 1
10
42.653249
20
2.794060
11
42.021561
21
3.378900
0
LINE
8
Layer 1
10
42.021561
20
3.378900
11
41.118366
21
3.820050
0
LINE
8
Layer 1
10
41.118366
20
3.820050
11
40.215170
21
4.261200
0
LINE
8
Layer 1
10
40.215170
20
4.261200
11
39.345417
21
4.426640
0
LINE
8
Layer 1
10
39.345417
20
4.426640
11
37.334107
21
4.773740
0
LINE
8
Layer 1
10
37.334107
20
4.773740
11
36.192547
21
4.955390
0
LINE
8
Layer 1
10
36.192547
20
4.955390
11
35.732258
21
5.166110
0
LINE
8
Layer 1
10
35.732258
20
5.166110
11
35.271969
21
5.376840
0
LINE
8
Layer 1
10
35.271969
20
5.376840
11
34.661274
21
5.947140
0
LINE
8
Layer 1
10
34.661274
20
5.947140
11
33.819360
21
6.662132
0
LINE
8
Layer 1
10
33.819360
20
6.662132
11
33.299164
21
6.814670
0
LINE
8
Layer 1
10
33.299164
20
6.814670
11
32.985400
21
6.814670
0
LINE
8
Layer 1
10
32.985400
20
6.814670
11
32.632974
21
6.576510
0
LINE
8
Layer 1
10
32.632974
20
6.576510
11
31.843278
21
5.994180
0
LINE
8
Layer 1
10
31.843278
20
5.994180
11
30.963798
21
5.425920
0
LINE
8
Layer 1
10
30.963798
20
5.425920
11
30.521589
21
5.201850
0
LINE
8
Layer 1
10
30.521589
20
5.201850
11
30.023650
21
5.156650
0
LINE
8
Layer 1
10
30.023650
20
5.156650
11
29.525712
21
5.111450
0
LINE
8
Layer 1
10
29.525712
20
5.111450
11
29.221597
21
5.267430
0
LINE
8
Layer 1
10
29.221597
20
5.267430
11
28.349770
21
5.952600
0
LINE
8
Layer 1
10
28.349770
20
5.952600
11
27.753176
21
6.450227
0
LINE
8
Layer 1
10
27.753176
20
6.450227
11
27.258576
21
6.684060
0
LINE
8
Layer 1
10
27.258576
20
6.684060
11
26.755368
21
6.679513
0
LINE
8
Layer 1
10
26.755368
20
6.679513
11
26.132950
21
6.462000
0
LINE
8
Layer 1
10
26.132950
20
6.462000
11
25.122086
21
6.113602
0
LINE
8
Layer 1
10
25.122086
20
6.113602
11
24.137745
21
5.953413
0
LINE
8
Layer 1
10
24.137745
20
5.953413
11
23.206901
21
5.972312
0
LINE
8
Layer 1
10
23.206901
20
5.972312
11
22.356534
21
6.161181
0
LINE
8
Layer 1
10
22.356534
20
6.161181
11
21.613618
21
6.510902
0
LINE
8
Layer 1
10
21.613618
20
6.510902
11
21.005131
21
7.012354
0
LINE
8
Layer 1
10
21.005131
20
7.012354
11
20.558050
21
7.656420
0
LINE
8
Layer 1
10
20.558050
20
7.656420
11
20.299350
21
8.433980
0
LINE
8
Layer 1
10
20.299350
20
8.433980
11
20.205530
21
8.941500
0
LINE
8
Layer 1
10
20.205530
20
8.941500
11
20.296020
21
9.179490
0
LINE
8
Layer 1
10
20.296020
20
9.179490
11
20.386510
21
9.417490
0
LINE
8
Layer 1
10
20.386510
20
9.417490
11
20.210022
21
9.554180
0
LINE
8
Layer 1
10
20.210022
20
9.554180
11
20.033534
21
9.690880
0
LINE
8
Layer 1
10
20.033534
20
9.690880
11
19.976414
21
10.531650
0
LINE
8
Layer 1
10
19.976414
20
10.531650
11
19.919294
21
11.372420
0
LINE
8
Layer 1
10
19.919294
20
11.372420
11
20.005824
21
11.903430
0
LINE
8
Layer 1
10
20.005824
20
11.903430
11
20.092354
21
12.434440
0
LINE
8
Layer 1
10
20.092354
20
12.434440
11
20.000104
21
12.492140
0
LINE
8
Layer 1
10
20.000104
20
12.492140
11
19.907854
21
12.549840
0
LINE
8
Layer 1
10
19.907854
20
12.549840
11
19.963654
21
13.023130
0
LINE
8
Layer 1
10
19.963654
20
13.023130
11
20.019454
21
13.496410
0
LINE
8
Layer 1
10
20.019454
20
13.496410
11
20.450281
21
14.381420
0
LINE
8
Layer 1
10
20.450281
20
14.381420
11
21.476332
21
16.235898
0
LINE
8
Layer 1
10
21.476332
20
16.235898
11
22.679475
21
17.980180
0
LINE
8
Layer 1
10
22.679475
20
17.980180
11
24.017667
21
19.576745
0
LINE
8
Layer 1
10
24.017667
20
19.576745
11
25.448861
21
20.988074
0
LINE
8
Layer 1
10
25.448861
20
20.988074
11
26.931014
21
22.176644
0
LINE
8
Layer 1
10
26.931014
20
22.176644
11
28.422082
21
23.104936
0
LINE
8
Layer 1
10
28.422082
20
23.104936
11
29.880019
21
23.735428
0
LINE
8
Layer 1
10
29.880019
20
23.735428
11
31.262781
21
24.030600
0
LINE
8
Layer 1
10
31.262781
20
24.030600
11
31.926544
21
24.087900
0
LINE
8
Layer 1
10
31.926544
20
24.087900
11
32.676383
21
23.984700
0
LINE
8
Layer 1
10
32.676383
20
23.984700
11
34.644563
21
23.491070
0
LINE
8
Layer 1
10
34.644563
20
23.491070
11
36.896151
21
22.936419
0
LINE
8
Layer 1
10
36.896151
20
22.936419
11
39.197668
21
22.624555
0
LINE
8
Layer 1
10
39.197668
20
22.624555
11
41.077738
21
22.594068
0
LINE
8
Layer 1
10
41.077738
20
22.594068
11
41.712424
21
22.696401
0
LINE
8
Layer 1
10
41.712424
20
22.696401
11
42.064983
21
22.883550
0
LINE
8
Layer 1
10
42.064983
20
22.883550
11
42.421937
21
24.951308
0
LINE
8
Layer 1
10
42.421937
20
24.951308
11
42.741108
21
29.623760
0
LINE
8
Layer 1
10
42.741108
20
29.623760
11
42.972333
21
35.902832
0
LINE
8
Layer 1
10
42.972333
20
35.902832
11
43.065453
21
42.790450
0
LINE
8
Layer 1
10
43.065453
20
42.790450
11
43.070953
21
47.923550
0
LINE
8
Layer 1
10
43.070953
20
47.923550
11
42.957115
21
48.971090
0
LINE
8
Layer 1
10
42.957115
20
48.971090
11
42.746864
21
50.233170
0
LINE
8
Layer 1
10
42.746864
20
50.233170
11
42.038743
21
51.480560
0
LINE
8
Layer 1
10
42.038743
20
51.480560
11
40.216000
21
53.512375
0
LINE
8
Layer 1
10
40.216000
20
53.512375
11
36.661885
21
57.127730
0
LINE
8
Layer 1
10
36.661885
20
57.127730
11
31.199320
21
62.767546
0
LINE
8
Layer 1
10
31.199320
20
62.767546
11
29.862984
21
64.316079
0
LINE
8
Layer 1
10
29.862984
20
64.316079
11
28.954405
21
65.566910
0
LINE
8
Layer 1
10
28.954405
20
65.566910
11
28.347856
21
66.483440
0
LINE
8
Layer 1
10
28.347856
20
66.483440
11
28.068941
21
67.204190
0
LINE
8
Layer 1
10
28.068941
20
67.204190
11
27.657398
21
68.677210
0
LINE
8
Layer 1
10
27.657398
20
68.677210
11
27.524771
21
69.429470
0
LINE
8
Layer 1
10
27.524771
20
69.429470
11
27.574271
21
70.845500
0
LINE
8
Layer 1
10
27.574271
20
70.845500
11
27.847202
21
74.252820
0
LINE
8
Layer 1
10
27.847202
20
74.252820
11
28.184830
21
78.544994
0
LINE
8
Layer 1
10
28.184830
20
78.544994
11
28.339064
21
85.935020
0
LINE
8
Layer 1
10
28.339064
20
85.935020
11
28.513075
21
95.277583
0
LINE
8
Layer 1
10
28.513075
20
95.277583
11
28.754015
21
98.657120
0
LINE
8
Layer 1
10
28.754015
20
98.657120
11
28.803925
21
98.856250
0
LINE
8
Layer 1
10
28.803925
20
98.856250
11
28.958500
21
98.856300
0
LINE
8
Layer 1
10
28.958500
20
98.856300
11
29.113100
21
98.856300
0
LINE
8
Layer 1
10
29.113100
20
98.856300
11
29.222768
21
100.072570
0
LINE
8
Layer 1
10
29.222768
20
100.072570
11
29.446497
21
101.997480
0
LINE
8
Layer 1
10
29.446497
20
101.997480
11
29.560557
21
102.706130
0
LINE
8
Layer 1
10
29.560557
20
102.706130
11
29.490637
21
102.839820
0
LINE
8
Layer 1
10
29.490637
20
102.839820
11
29.485872
21
103.320671
0
LINE
8
Layer 1
10
29.485872
20
103.320671
11
29.907978
21
105.180900
0
LINE
8
Layer 1
10
29.907978
20
105.180900
11
30.307833
21
106.859160
0
LINE
8
Layer 1
10
30.307833
20
106.859160
11
30.270993
21
107.368470
0
LINE
8
Layer 1
10
30.270993
20
107.368470
11
30.234153
21
107.877780
0
LINE
8
Layer 1
10
30.234153
20
107.877780
11
29.820895
21
108.699270
0
LINE
8
Layer 1
10
29.820895
20
108.699270
11
28.618206
21
110.622441
0
LINE
8
Layer 1
10
28.618206
20
110.622441
11
24.639445
21
116.112620
0
LINE
8
Layer 1
10
24.639445
20
116.112620
11
18.818605
21
124.197285
0
LINE
8
Layer 1
10
18.818605
20
124.197285
11
14.830315
21
130.230220
0
LINE
8
Layer 1
10
14.830315
20
130.230220
11
11.932249
21
134.987645
0
LINE
8
Layer 1
10
11.932249
20
134.987645
11
9.338937
21
139.658827
0
LINE
8
Layer 1
10
9.338937
20
139.658827
11
7.053469
21
144.236251
0
LINE
8
Layer 1
10
7.053469
20
144.236251
11
5.078938
21
148.712402
0
LINE
8
Layer 1
10
5.078938
20
148.712402
11
3.418435
21
153.079767
0
LINE
8
Layer 1
10
3.418435
20
153.079767
11
2.075051
21
157.330832
0
LINE
8
Layer 1
10
2.075051
20
157.330832
11
1.051878
21
161.458081
0
LINE
8
Layer 1
10
1.051878
20
161.458081
11
0.352008
21
165.454000
0
LINE
8
Layer 1
10
0.352008
20
165.454000
11
0.158337
21
166.870030
0
LINE
8
Layer 1
10
0.158337
20
166.870030
11
0.156137
21
169.790590
0
LINE
8
Layer 1
10
0.156137
20
169.790590
11
0.153937
21
172.711150
0
LINE
8
Layer 1
10
0.153937
20
172.711150
11
0.313223
21
173.449753
0
LINE
8
Layer 1
10
0.313223
20
173.449753
11
0.879859
21
175.154921
0
LINE
8
Layer 1
10
0.879859
20
175.154921
11
1.261758
21
175.694516
0
LINE
8
Layer 1
10
1.261758
20
175.694516
11
1.734333
21
176.071493
0
LINE
8
Layer 1
10
1.734333
20
176.071493
11
2.127417
21
176.301856
0
LINE
8
Layer 1
10
2.127417
20
176.301856
11
2.630567
21
176.383746
0
LINE
8
Layer 1
10
2.630567
20
176.383746
11
3.133717
21
176.465636
0
LINE
8
Layer 1
10
3.133717
20
176.465636
11
3.846660
21
176.376236
0
LINE
8
Layer 1
10
3.846660
20
176.376236
11
6.328259
21
175.690991
0
LINE
8
Layer 1
10
6.328259
20
175.690991
11
9.660620
21
174.219316
0
LINE
8
Layer 1
10
9.660620
20
174.219316
11
10.795020
21
173.650866
0
LINE
8
Layer 1
10
10.795020
20
173.650866
11
10.841180
21
173.474355
0
LINE
8
Layer 1
10
10.841180
20
173.474355
11
10.887340
21
173.297843
0
LINE
8
Layer 1
10
10.887340
20
173.297843
11
10.760182
21
173.249053
0
LINE
8
Layer 1
10
10.760182
20
173.249053
11
8.251852
21
174.202679
0
LINE
8
Layer 1
10
8.251852
20
174.202679
11
6.437562
21
174.836602
0
LINE
8
Layer 1
10
6.437562
20
174.836602
11
5.552545
21
175.069238
0
LINE
8
Layer 1
10
5.552545
20
175.069238
11
4.532665
21
175.119198
0
LINE
8
Layer 1
10
4.532665
20
175.119198
11
3.512785
21
175.169158
0
LINE
8
Layer 1
10
3.512785
20
175.169158
11
3.003974
21
175.021242
0
LINE
8
Layer 1
10
3.003974
20
175.021242
11
2.495163
21
174.873327
0
LINE
8
Layer 1
10
2.495163
20
174.873327
11
2.228449
21
174.633010
0
LINE
8
Layer 1
10
2.228449
20
174.633010
11
1.961735
21
174.392693
0
LINE
8
Layer 1
10
1.961735
20
174.392693
11
1.829571
21
173.905934
0
LINE
8
Layer 1
10
1.829571
20
173.905934
11
1.697407
21
173.419174
0
LINE
8
Layer 1
10
1.697407
20
173.419174
11
1.623807
21
172.091644
0
LINE
8
Layer 1
10
1.623807
20
172.091644
11
1.550207
21
170.764114
0
LINE
8
Layer 1
10
1.550207
20
170.764114
11
1.622657
21
169.114374
0
LINE
8
Layer 1
10
1.622657
20
169.114374
11
1.930602
21
165.100716
0
LINE
8
Layer 1
10
1.930602
20
165.100716
11
2.485229
21
161.244000
0
LINE
8
Layer 1
10
2.485229
20
161.244000
11
3.267063
21
157.652771
0
LINE
8
Layer 1
10
3.267063
20
157.652771
11
4.256627
21
154.435574
0
LINE
8
Layer 1
10
4.256627
20
154.435574
11
5.906350
21
150.245344
0
LINE
8
Layer 1
10
5.906350
20
150.245344
11
7.916941
21
145.639791
0
LINE
8
Layer 1
10
7.916941
20
145.639791
11
9.940497
21
141.383181
0
LINE
8
Layer 1
10
9.940497
20
141.383181
11
11.629117
21
138.239774
0
LINE
8
Layer 1
10
11.629117
20
138.239774
11
12.425825
21
136.883614
0
LINE
8
Layer 1
10
12.425825
20
136.883614
11
12.555945
21
136.633723
0
LINE
8
Layer 1
10
12.555945
20
136.633723
11
12.662095
21
136.761627
0
LINE
8
Layer 1
10
12.662095
20
136.761627
11
13.092255
21
137.922549
0
LINE
8
Layer 1
10
13.092255
20
137.922549
11
13.694705
21
140.589067
0
LINE
8
Layer 1
10
13.694705
20
140.589067
11
14.331423
21
143.398699
0
LINE
8
Layer 1
10
14.331423
20
143.398699
11
14.793745
21
144.567647
0
LINE
8
Layer 1
10
14.793745
20
144.567647
11
15.030285
21
144.999044
0
LINE
8
Layer 1
10
15.030285
20
144.999044
11
15.161328
21
145.930977
0
LINE
8
Layer 1
10
15.161328
20
145.930977
11
15.589605
21
148.043434
0
LINE
8
Layer 1
10
15.589605
20
148.043434
11
16.444504
21
150.387407
0
LINE
8
Layer 1
10
16.444504
20
150.387407
11
17.638810
21
152.762070
0
LINE
8
Layer 1
10
17.638810
20
152.762070
11
19.085308
21
154.966597
0
LINE
8
Layer 1
10
19.085308
20
154.966597
11
19.832341
21
156.117117
0
LINE
8
Layer 1
10
19.832341
20
156.117117
11
20.417241
21
157.118560
0
LINE
8
Layer 1
10
20.417241
20
157.118560
11
21.472631
21
157.713927
0
LINE
8
Layer 1
10
21.472631
20
157.713927
11
22.699585
21
158.462803
0
LINE
8
Layer 1
10
22.699585
20
158.462803
11
23.585571
21
159.525027
0
LINE
8
Layer 1
10
23.585571
20
159.525027
11
23.981342
21
160.023728
0
LINE
8
Layer 1
10
23.981342
20
160.023728
11
24.664101
21
160.533267
0
LINE
8
Layer 1
10
24.664101
20
160.533267
11
25.101811
21
160.807711
0
LINE
8
Layer 1
10
25.101811
20
160.807711
11
25.529500
21
160.808000
0
LINE
8
Layer 1
10
25.529500
20
160.808000
11
25.957300
21
160.808000
0
LINE
8
Layer 1
10
25.957300
20
160.808000
11
26.474287
21
160.547026
0
LINE
8
Layer 1
10
26.474287
20
160.547026
11
28.173849
21
159.297635
0
LINE
8
Layer 1
10
28.173849
20
159.297635
11
31.660617
21
155.897566
0
LINE
8
Layer 1
10
31.660617
20
155.897566
11
34.895686
21
152.706406
0
LINE
8
Layer 1
10
34.895686
20
152.706406
11
35.525981
21
152.203986
0
LINE
8
Layer 1
10
35.525981
20
152.203986
11
35.928627
21
152.041366
0
LINE
8
Layer 1
10
35.928627
20
152.041366
11
36.262712
21
151.965556
0
LINE
8
Layer 1
10
36.262712
20
151.965556
11
36.689906
21
152.382075
0
LINE
8
Layer 1
10
36.689906
20
152.382075
11
37.744506
21
153.639355
0
LINE
8
Layer 1
10
37.744506
20
153.639355
11
39.262376
21
155.409385
0
LINE
8
Layer 1
10
39.262376
20
155.409385
11
40.152840
21
156.338653
0
LINE
8
Layer 1
10
40.152840
20
156.338653
11
39.086010
21
155.293323
0
LINE
8
Layer 1
10
39.086010
20
155.293323
11
38.019180
21
154.247993
0
LINE
8
Layer 1
10
38.019180
20
154.247993
11
37.912442
21
154.376605
0
LINE
8
Layer 1
10
37.912442
20
154.376605
11
37.805704
21
154.505216
0
LINE
8
Layer 1
10
37.805704
20
154.505216
11
38.542718
21
155.601906
0
LINE
8
Layer 1
10
38.542718
20
155.601906
11
39.279732
21
156.698596
0
LINE
8
Layer 1
10
39.279732
20
156.698596
11
39.435184
21
157.192818
0
LINE
8
Layer 1
10
39.435184
20
157.192818
11
39.590636
21
157.687040
0
LINE
8
Layer 1
10
39.590636
20
157.687040
11
40.057863
21
158.251869
0
LINE
8
Layer 1
10
40.057863
20
158.251869
11
43.500353
21
161.693329
0
LINE
8
Layer 1
10
43.500353
20
161.693329
11
45.065610
21
163.230433
0
LINE
8
Layer 1
10
45.065610
20
163.230433
11
46.356497
21
164.867982
0
LINE
8
Layer 1
10
46.356497
20
164.867982
11
47.719487
21
167.112831
0
LINE
8
Layer 1
10
47.719487
20
167.112831
11
49.501053
21
170.471839
0
LINE
8
Layer 1
10
49.501053
20
170.471839
11
51.582607
21
174.270097
0
LINE
8
Layer 1
10
51.582607
20
174.270097
11
53.603137
21
177.404815
0
LINE
8
Layer 1
10
53.603137
20
177.404815
11
55.754119
21
180.145696
0
LINE
8
Layer 1
10
55.754119
20
180.145696
11
58.227033
21
182.762439
0
LINE
8
Layer 1
10
58.227033
20
182.762439
11
61.283754
21
185.498716
0
LINE
8
Layer 1
10
61.283754
20
185.498716
11
62.650101
21
186.402751
0
LINE
8
Layer 1
10
62.650101
20
186.402751
11
64.067613
21
187.055529
0
LINE
8
Layer 1
10
64.067613
20
187.055529
11
65.655672
21
187.500658
0
LINE
8
Layer 1
10
65.655672
20
187.500658
11
67.533657
21
187.781747
0
LINE
8
Layer 1
10
67.533657
20
187.781747
11
72.636933
21
188.026239
0
LINE
8
Layer 1
10
72.636933
20
188.026239
11
75.468993
21
188.080659
0
LINE
8
Layer 1
10
75.468993
20
188.080659
11
78.256803
21
187.985649
0
LINE
8
Layer 1
10
78.256803
20
187.985649
11
81.044603
21
187.890639
0
LINE
8
Layer 1
10
81.044603
20
187.890639
11
82.062373
21
187.755790
0
LINE
8
Layer 1
10
82.062373
20
187.755790
11
87.770743
21
186.592770
0
LINE
8
Layer 1
10
87.770743
20
186.592770
11
93.968039
21
185.291964
0
LINE
8
Layer 1
10
93.968039
20
185.291964
11
96.198775
21
185.020772
0
LINE
8
Layer 1
10
96.198775
20
185.020772
11
98.612243
21
184.882270
0
LINE
8
Layer 1
10
98.612243
20
184.882270
11
100.857603
21
184.735125
0
LINE
8
Layer 1
10
100.857603
20
184.735125
11
101.335072
21
184.593900
0
LINE
8
Layer 1
10
101.335072
20
184.593900
11
101.686213
21
184.355515
0
LINE
8
Layer 1
10
101.686213
20
184.355515
11
102.174363
21
184.101387
0
LINE
8
Layer 1
10
102.174363
20
184.101387
11
102.885113
21
184.316835
0
LINE
8
Layer 1
10
102.885113
20
184.316835
11
103.435583
21
184.549700
0
LINE
8
Layer 1
10
103.435583
20
184.549700
11
104.541863
21
184.496970
0
LINE
8
Layer 1
10
104.541863
20
184.496970
11
106.804412
21
184.243476
0
LINE
8
Layer 1
10
106.804412
20
184.243476
11
109.583848
21
183.714133
0
LINE
8
Layer 1
10
109.583848
20
183.714133
11
112.530541
21
182.985735
0
LINE
8
Layer 1
10
112.530541
20
182.985735
11
115.294863
21
182.135080
0
LINE
8
Layer 1
10
115.294863
20
182.135080
11
118.025619
21
180.875928
0
LINE
8
Layer 1
10
118.025619
20
180.875928
11
120.569626
21
179.032572
0
LINE
8
Layer 1
10
120.569626
20
179.032572
11
122.955531
21
176.559448
0
LINE
8
Layer 1
10
122.955531
20
176.559448
11
125.211980
21
173.410993
0
LINE
8
Layer 1
10
125.211980
20
173.410993
11
127.367621
21
169.541642
0
LINE
8
Layer 1
10
127.367621
20
169.541642
11
129.451101
21
164.905832
0
LINE
8
Layer 1
10
129.451101
20
164.905832
11
131.491066
21
159.457999
0
LINE
8
Layer 1
10
131.491066
20
159.457999
11
133.516163
21
153.152580
0
LINE
8
Layer 1
10
133.516163
20
153.152580
11
134.592382
21
149.771632
0
LINE
8
Layer 1
10
134.592382
20
149.771632
11
135.436001
21
147.702434
0
LINE
8
Layer 1
10
135.436001
20
147.702434
11
136.190732
21
146.665713
0
LINE
8
Layer 1
10
136.190732
20
146.665713
11
136.579677
21
146.447260
0
LINE
8
Layer 1
10
136.579677
20
146.447260
11
137.000293
21
146.382200
0
LINE
8
Layer 1
10
137.000293
20
146.382200
11
137.341000
21
146.382000
0
LINE
8
Layer 1
10
137.341000
20
146.382000
11
137.778760
21
146.602586
0
LINE
8
Layer 1
10
137.778760
20
146.602586
11
139.465309
21
147.806201
0
LINE
8
Layer 1
10
139.465309
20
147.806201
11
143.438120
21
151.462796
0
LINE
8
Layer 1
10
143.438120
20
151.462796
11
152.555345
21
159.881055
0
LINE
8
Layer 1
10
152.555345
20
159.881055
11
159.835670
21
166.286146
0
LINE
8
Layer 1
10
159.835670
20
166.286146
11
164.658770
21
170.151662
0
LINE
8
Layer 1
10
164.658770
20
170.151662
11
165.955009
21
170.967577
0
LINE
8
Layer 1
10
165.955009
20
170.967577
11
166.290377
21
171.067536
0
LINE
8
Layer 1
10
166.290377
20
171.067536
11
166.404320
21
170.951196
0
LINE
8
Layer 1
10
166.404320
20
170.951196
11
166.404000
21
170.740000
0
LINE
8
Layer 1
10
166.404000
20
170.740000
11
165.408360
21
169.904438
0
LINE
8
Layer 1
10
165.408360
20
169.904438
11
162.509930
21
167.534018
0
LINE
8
Layer 1
10
162.509930
20
167.534018
11
157.648840
21
163.397630
0
LINE
8
Layer 1
10
157.648840
20
163.397630
11
156.412385
21
162.100794
0
LINE
8
Layer 1
10
156.412385
20
162.100794
11
155.784540
21
161.139978
0
LINE
8
Layer 1
10
155.784540
20
161.139978
11
155.611620
21
160.749059
0
LINE
8
Layer 1
10
155.611620
20
160.749059
11
155.664920
21
160.299401
0
LINE
8
Layer 1
10
155.664920
20
160.299401
11
155.718220
21
159.849743
0
LINE
8
Layer 1
10
155.718220
20
159.849743
11
157.477290
21
158.947688
0
LINE
8
Layer 1
10
157.477290
20
158.947688
11
159.462896
21
157.840155
0
LINE
8
Layer 1
10
159.462896
20
157.840155
11
161.119088
21
156.699092
0
LINE
8
Layer 1
10
161.119088
20
156.699092
11
162.483207
21
155.469565
0
LINE
8
Layer 1
10
162.483207
20
155.469565
11
163.592594
21
154.096644
0
LINE
8
Layer 1
10
163.592594
20
154.096644
11
164.484589
21
152.525398
0
LINE
8
Layer 1
10
164.484589
20
152.525398
11
165.196532
21
150.700894
0
LINE
8
Layer 1
10
165.196532
20
150.700894
11
165.765766
21
148.568201
0
LINE
8
Layer 1
10
165.765766
20
148.568201
11
166.229630
21
146.072388
0
LINE
8
Layer 1
10
166.229630
20
146.072388
11
166.849360
21
142.842078
0
LINE
8
Layer 1
10
166.849360
20
142.842078
11
167.647480
21
139.391428
0
LINE
8
Layer 1
10
167.647480
20
139.391428
11
168.234440
21
137.075118
0
LINE
8
Layer 1
10
168.234440
20
137.075118
11
168.364860
21
136.749180
0
LINE
8
Layer 1
10
168.364860
20
136.749180
11
168.723170
21
136.605813
0
LINE
8
Layer 1
10
168.723170
20
136.605813
11
169.081480
21
136.462446
0
LINE
8
Layer 1
10
169.081480
20
136.462446
11
169.218870
21
136.665326
0
LINE
8
Layer 1
10
169.218870
20
136.665326
11
170.016955
21
137.507810
0
LINE
8
Layer 1
10
170.016955
20
137.507810
11
170.347346
21
137.663287
0
LINE
8
Layer 1
10
170.347346
20
137.663287
11
170.532860
21
137.573113
0
LINE
8
Layer 1
10
170.532860
20
137.573113
11
170.584960
21
137.437252
0
LINE
8
Layer 1
10
170.584960
20
137.437252
11
170.248010
21
136.887224
0
LINE
8
Layer 1
10
170.248010
20
136.887224
11
166.049122
21
130.653318
0
LINE
8
Layer 1
10
166.049122
20
130.653318
11
159.720910
21
122.132624
0
LINE
8
Layer 1
10
159.720910
20
122.132624
11
157.590208
21
119.056324
0
LINE
8
Layer 1
10
157.590208
20
119.056324
11
156.440190
21
116.645514
0
LINE
8
Layer 1
10
156.440190
20
116.645514
11
156.195350
21
115.893254
0
LINE
8
Layer 1
10
156.195350
20
115.893254
11
156.196350
21
114.875484
0
LINE
8
Layer 1
10
156.196350
20
114.875484
11
156.197350
21
113.857714
0
LINE
8
Layer 1
10
156.197350
20
113.857714
11
156.442660
21
113.061194
0
LINE
8
Layer 1
10
156.442660
20
113.061194
11
157.388554
21
108.606466
0
LINE
8
Layer 1
10
157.388554
20
108.606466
11
159.233300
21
96.636994
0
LINE
8
Layer 1
10
159.233300
20
96.636994
11
160.969538
21
85.740535
0
LINE
8
Layer 1
10
160.969538
20
85.740535
11
162.661045
21
76.651669
0
LINE
8
Layer 1
10
162.661045
20
76.651669
11
164.256214
21
69.623466
0
LINE
8
Layer 1
10
164.256214
20
69.623466
11
165.703440
21
64.908994
0
LINE
8
Layer 1
10
165.703440
20
64.908994
11
166.051800
21
64.016734
0
LINE
8
Layer 1
10
166.051800
20
64.016734
11
166.360660
21
63.655894
0
LINE
8
Layer 1
10
166.360660
20
63.655894
11
166.669530
21
63.198494
0
LINE
8
Layer 1
10
166.669530
20
63.198494
11
166.670000
21
63.101600
0
LINE
8
Layer 1
10
166.670000
20
63.101600
11
167.103000
21
63.101600
0
LINE
8
Layer 1
10
167.103000
20
63.101600
11
168.376467
21
62.886764
0
LINE
8
Layer 1
10
168.376467
20
62.886764
11
170.017405
21
62.314807
0
LINE
8
Layer 1
10
170.017405
20
62.314807
11
171.761228
21
61.494560
0
LINE
8
Layer 1
10
171.761228
20
61.494560
11
173.343350
21
60.534850
0
LINE
8
Layer 1
10
173.343350
20
60.534850
11
174.969040
21
59.125918
0
LINE
8
Layer 1
10
174.969040
20
59.125918
11
176.294889
21
57.421371
0
LINE
8
Layer 1
10
176.294889
20
57.421371
11
177.275690
21
55.492419
0
LINE
8
Layer 1
10
177.275690
20
55.492419
11
177.866240
21
53.410270
0
LINE
8
Layer 1
10
177.866240
20
53.410270
11
178.008070
21
52.614140
0
LINE
8
Layer 1
10
178.008070
20
52.614140
11
178.012070
21
51.419370
0
LINE
8
Layer 1
10
178.012070
20
51.419370
11
178.016070
21
50.224590
0
LINE
8
Layer 1
10
178.016070
20
50.224590
11
177.865850
21
49.339570
0
LINE
8
Layer 1
10
177.865850
20
49.339570
11
177.115713
21
46.696105
0
LINE
8
Layer 1
10
177.115713
20
46.696105
11
175.812300
21
44.213050
0
LINE
8
Layer 1
10
175.812300
20
44.213050
11
175.221280
21
43.321460
0
LINE
8
Layer 1
10
175.221280
20
43.321460
11
174.198360
21
42.295220
0
LINE
8
Layer 1
10
174.198360
20
42.295220
11
173.175440
21
41.268980
0
LINE
8
Layer 1
10
173.175440
20
41.268980
11
172.279100
21
40.678130
0
LINE
8
Layer 1
10
172.279100
20
40.678130
11
171.059948
21
39.970494
0
LINE
8
Layer 1
10
171.059948
20
39.970494
11
169.800567
21
39.431427
0
LINE
8
Layer 1
10
169.800567
20
39.431427
11
168.485856
21
39.055565
0
LINE
8
Layer 1
10
168.485856
20
39.055565
11
167.100710
21
38.837540
0
LINE
8
Layer 1
10
167.100710
20
38.837540
11
166.070570
21
38.735710
0
LINE
8
Layer 1
10
166.070570
20
38.735710
11
165.059540
21
38.838200
0
LINE
8
Layer 1
10
165.059540
20
38.838200
11
162.892062
21
39.241659
0
LINE
8
Layer 1
10
162.892062
20
39.241659
11
160.894257
21
39.978865
0
LINE
8
Layer 1
10
160.894257
20
39.978865
11
159.093662
21
41.022313
0
LINE
8
Layer 1
10
159.093662
20
41.022313
11
157.517819
21
42.344501
0
LINE
8
Layer 1
10
157.517819
20
42.344501
11
156.194265
21
43.917927
0
LINE
8
Layer 1
10
156.194265
20
43.917927
11
155.150541
21
45.715087
0
LINE
8
Layer 1
10
155.150541
20
45.715087
11
154.414187
21
47.708479
0
LINE
8
Layer 1
10
154.414187
20
47.708479
11
154.012740
21
49.870600
0
LINE
8
Layer 1
10
154.012740
20
49.870600
11
153.914940
21
50.844120
0
LINE
8
Layer 1
10
153.914940
20
50.844120
11
153.969940
21
51.596390
0
LINE
8
Layer 1
10
153.969940
20
51.596390
11
154.233498
21
53.368153
0
LINE
8
Layer 1
10
154.233498
20
53.368153
11
154.745017
21
55.090395
0
LINE
8
Layer 1
10
154.745017
20
55.090395
11
155.477154
21
56.724485
0
LINE
8
Layer 1
10
155.477154
20
56.724485
11
156.402565
21
58.231794
0
LINE
8
Layer 1
10
156.402565
20
58.231794
11
157.493906
21
59.573689
0
LINE
8
Layer 1
10
157.493906
20
59.573689
11
158.723833
21
60.711541
0
LINE
8
Layer 1
10
158.723833
20
60.711541
11
160.065002
21
61.606718
0
LINE
8
Layer 1
10
160.065002
20
61.606718
11
161.490070
21
62.220590
0
LINE
8
Layer 1
10
161.490070
20
62.220590
11
161.840970
21
62.331390
0
LINE
8
Layer 1
10
161.840970
20
62.331390
11
161.644940
21
62.403890
0
LINE
8
Layer 1
10
161.644940
20
62.403890
11
161.448930
21
62.476390
0
LINE
8
Layer 1
10
161.448930
20
62.476390
11
161.449000
21
62.626900
0
LINE
8
Layer 1
10
161.449000
20
62.626900
11
160.614105
21
64.163607
0
LINE
8
Layer 1
10
160.614105
20
64.163607
11
159.111590
21
66.287610
0
LINE
8
Layer 1
10
159.111590
20
66.287610
11
155.680750
21
70.933950
0
LINE
8
Layer 1
10
155.680750
20
70.933950
11
148.249170
21
81.421450
0
LINE
8
Layer 1
10
148.249170
20
81.421450
11
141.664650
21
90.669880
0
LINE
8
Layer 1
10
141.664650
20
90.669880
11
140.553104
21
92.154190
0
LINE
8
Layer 1
10
140.553104
20
92.154190
11
139.951790
21
92.657560
0
LINE
8
Layer 1
10
139.951790
20
92.657560
11
139.696910
21
92.763130
0
LINE
8
Layer 1
10
139.696910
20
92.763130
11
139.352930
21
92.587650
0
LINE
8
Layer 1
10
139.352930
20
92.587650
11
139.008950
21
92.412160
0
LINE
8
Layer 1
10
139.008950
20
92.412160
11
136.666080
21
90.034280
0
LINE
8
Layer 1
10
136.666080
20
90.034280
11
134.049460
21
87.278094
0
LINE
8
Layer 1
10
134.049460
20
87.278094
11
132.977420
21
85.815230
0
LINE
8
Layer 1
10
132.977420
20
85.815230
11
132.744220
21
85.359770
0
LINE
8
Layer 1
10
132.744220
20
85.359770
11
132.705720
21
84.651760
0
LINE
8
Layer 1
10
132.705720
20
84.651760
11
132.667220
21
83.943750
0
LINE
8
Layer 1
10
132.667220
20
83.943750
11
132.898230
21
81.863960
0
LINE
8
Layer 1
10
132.898230
20
81.863960
11
133.299920
21
77.780416
0
LINE
8
Layer 1
10
133.299920
20
77.780416
11
133.453780
21
74.562560
0
LINE
8
Layer 1
10
133.453780
20
74.562560
11
133.506080
21
72.350020
0
LINE
8
Layer 1
10
133.506080
20
72.350020
11
133.403900
21
71.138090
0
LINE
8
Layer 1
10
133.403900
20
71.138090
11
132.912815
21
67.924362
0
LINE
8
Layer 1
10
132.912815
20
67.924362
11
132.491458
21
66.533298
0
LINE
8
Layer 1
10
132.491458
20
66.533298
11
131.922057
21
65.225417
0
LINE
8
Layer 1
10
131.922057
20
65.225417
11
131.181487
21
63.955209
0
LINE
8
Layer 1
10
131.181487
20
63.955209
11
130.246621
21
62.677159
0
LINE
8
Layer 1
10
130.246621
20
62.677159
11
127.701500
21
59.915490
0
LINE
8
Layer 1
10
127.701500
20
59.915490
11
125.546190
21
57.660950
0
LINE
8
Layer 1
10
125.546190
20
57.660950
11
125.146630
21
57.132180
0
LINE
8
Layer 1
10
125.146630
20
57.132180
11
125.193230
21
56.845280
0
LINE
8
Layer 1
10
125.193230
20
56.845280
11
125.701883
21
55.646102
0
LINE
8
Layer 1
10
125.701883
20
55.646102
11
126.820450
21
53.631870
0
LINE
8
Layer 1
10
126.820450
20
53.631870
11
128.704808
21
50.322685
0
LINE
8
Layer 1
10
128.704808
20
50.322685
11
130.219088
21
47.336615
0
LINE
8
Layer 1
10
130.219088
20
47.336615
11
131.377248
21
44.643997
0
LINE
8
Layer 1
10
131.377248
20
44.643997
11
132.193250
21
42.215170
0
LINE
8
Layer 1
10
132.193250
20
42.215170
11
132.989383
21
38.825684
0
LINE
8
Layer 1
10
132.989383
20
38.825684
11
133.310000
21
35.168560
0
LINE
8
Layer 1
10
133.310000
20
35.168560
11
133.402100
21
33.299300
0
LINE
8
Layer 1
10
133.402100
20
33.299300
11
133.309400
21
31.665920
0
LINE
8
Layer 1
10
133.309400
20
31.665920
11
133.152935
21
29.767266
0
LINE
8
Layer 1
10
133.152935
20
29.767266
11
132.755150
21
27.700890
0
LINE
8
Layer 1
10
132.755150
20
27.700890
11
132.481300
21
26.417610
0
LINE
8
Layer 1
10
132.481300
20
26.417610
11
132.473300
21
25.311340
0
LINE
8
Layer 1
10
132.473300
20
25.311340
11
132.465300
21
24.205070
0
LINE
8
Layer 1
10
132.465300
20
24.205070
11
132.719130
21
23.718310
0
LINE
8
Layer 1
10
132.719130
20
23.718310
11
133.425830
21
22.686374
0
LINE
8
Layer 1
10
133.425830
20
22.686374
11
135.208060
21
20.797750
0
LINE
8
Layer 1
10
135.208060
20
20.797750
11
137.460704
21
18.364561
0
LINE
8
Layer 1
10
137.460704
20
18.364561
11
139.268350
21
16.029870
0
LINE
8
Layer 1
10
139.268350
20
16.029870
11
140.651270
21
14.259610
0
LINE
8
Layer 1
10
140.651270
20
14.259610
11
141.603750
21
13.123540
0
LINE
8
Layer 1
10
141.603750
20
13.123540
11
142.100730
21
12.463240
0
LINE
8
Layer 1
10
142.100730
20
12.463240
11
141.998340
21
12.299280
0
LINE
8
Layer 1
10
141.998340
20
12.299280
11
141.895940
21
12.135320
0
LINE
8
Layer 1
10
141.895940
20
12.135320
11
142.074520
21
11.731610
0
LINE
8
Layer 1
10
142.074520
20
11.731610
11
142.305420
21
10.886140
0
LINE
8
Layer 1
10
142.305420
20
10.886140
11
142.478250
21
10.344380
0
LINE
8
Layer 1
10
142.478250
20
10.344380
11
142.598750
21
10.244370
0
LINE
8
Layer 1
10
142.598750
20
10.244370
11
142.598000
21
9.808280
0
LINE
8
Layer 1
10
142.598000
20
9.808280
11
142.493319
21
9.194902
0
LINE
8
Layer 1
10
142.493319
20
9.194902
11
142.202870
21
8.764090
0
LINE
8
Layer 1
10
142.202870
20
8.764090
11
141.366030
21
7.659880
0
LINE
8
Layer 1
10
141.366030
20
7.659880
11
140.430025
21
6.484387
0
LINE
8
Layer 1
10
140.430025
20
6.484387
11
139.638980
21
5.919740
0
LINE
8
Layer 1
10
139.638980
20
5.919740
11
139.279180
21
5.756320
0
LINE
8
Layer 1
10
139.279180
20
5.756320
11
138.718790
21
5.754320
0
LINE
8
Layer 1
10
138.718790
20
5.754320
11
138.158390
21
5.752320
0
LINE
8
Layer 1
10
138.158390
20
5.752320
11
137.479770
21
5.986700
0
LINE
8
Layer 1
10
137.479770
20
5.986700
11
136.801140
21
6.221090
0
LINE
8
Layer 1
10
136.801140
20
6.221090
11
136.093120
21
6.218090
0
LINE
8
Layer 1
10
136.093120
20
6.218090
11
133.570820
21
6.029360
0
LINE
8
Layer 1
10
133.570820
20
6.029360
11
130.143150
21
5.755440
0
LINE
8
Layer 1
10
130.143150
20
5.755440
11
128.529760
21
5.667040
0
LINE
8
Layer 1
10
128.529760
20
5.667040
11
127.886360
21
5.520770
0
LINE
8
Layer 1
10
127.886360
20
5.520770
11
126.490680
21
5.084530
0
LINE
8
Layer 1
10
126.490680
20
5.084530
11
124.931280
21
4.638891
0
LINE
8
Layer 1
10
124.931280
20
4.638891
11
122.696850
21
4.372180
0
LINE
8
Layer 1
10
122.696850
20
4.372180
11
120.530356
21
4.120274
0
LINE
8
Layer 1
10
120.530356
20
4.120274
11
119.388940
21
3.743410
0
LINE
8
Layer 1
10
119.388940
20
3.743410
11
118.930080
21
3.495820
0
LINE
8
Layer 1
10
118.930080
20
3.495820
11
118.642670
21
3.117220
0
LINE
8
Layer 1
10
118.642670
20
3.117220
11
118.355250
21
2.738620
0
LINE
8
Layer 1
10
118.355250
20
2.738620
11
118.083570
21
1.890500
0
LINE
8
Layer 1
10
118.083570
20
1.890500
11
117.609369
21
0.684815
0
LINE
8
Layer 1
10
117.609369
20
0.684815
11
117.377946
21
0.526041
0
LINE
8
Layer 1
10
117.377946
20
0.526041
11
117.041920
21
0.520790
0
LINE
8
Layer 1
10
117.041920
20
0.520790
11
116.841590
21
0.538090
0
LINE
8
Layer 1
10
116.841590
20
0.538090
11
116.643660
21
0.316630
0
LINE
8
Layer 1
10
116.643660
20
0.316630
11
116.271625
21
0.074722
0
LINE
8
Layer 1
10
116.271625
20
0.074722
11
115.848350
21
0.059330
0
LINE
8
Layer 1
10
115.848350
20
0.059330
11
115.848000
21
0.059220
0
LINE
8
Layer 1
10
40.595100
20
6.320270
11
40.946645
21
6.577261
0
LINE
8
Layer 1
10
40.946645
20
6.577261
11
41.154570
21
7.181909
0
LINE
8
Layer 1
10
41.154570
20
7.181909
11
41.351726
21
10.647600
0
LINE
8
Layer 1
10
41.351726
20
10.647600
11
41.577658
21
15.885950
0
LINE
8
Layer 1
10
41.577658
20
15.885950
11
41.718165
21
18.098500
0
LINE
8
Layer 1
10
41.718165
20
18.098500
11
41.661195
21
18.625700
0
LINE
8
Layer 1
10
41.661195
20
18.625700
11
41.481670
21
19.461631
0
LINE
8
Layer 1
10
41.481670
20
19.461631
11
41.008993
21
19.975135
0
LINE
8
Layer 1
10
41.008993
20
19.975135
11
40.004029
21
20.302257
0
LINE
8
Layer 1
10
40.004029
20
20.302257
11
38.227645
21
20.579040
0
LINE
8
Layer 1
10
38.227645
20
20.579040
11
32.943985
21
21.551790
0
LINE
8
Layer 1
10
32.943985
20
21.551790
11
32.280222
21
21.700310
0
LINE
8
Layer 1
10
32.280222
20
21.700310
11
31.572208
21
21.652310
0
LINE
8
Layer 1
10
31.572208
20
21.652310
11
29.862823
21
21.272580
0
LINE
8
Layer 1
10
29.862823
20
21.272580
11
28.155808
21
20.370481
0
LINE
8
Layer 1
10
28.155808
20
20.370481
11
26.463246
21
18.954252
0
LINE
8
Layer 1
10
26.463246
20
18.954252
11
24.797218
21
17.032130
0
LINE
8
Layer 1
10
24.797218
20
17.032130
11
23.151858
21
14.691220
0
LINE
8
Layer 1
10
23.151858
20
14.691220
11
23.662735
21
14.908310
0
LINE
8
Layer 1
10
23.662735
20
14.908310
11
24.728748
21
15.271936
0
LINE
8
Layer 1
10
24.728748
20
15.271936
11
25.778175
21
15.399230
0
LINE
8
Layer 1
10
25.778175
20
15.399230
11
26.363200
21
15.399200
0
LINE
8
Layer 1
10
26.363200
20
15.399200
11
26.760055
21
15.263980
0
LINE
8
Layer 1
10
26.760055
20
15.263980
11
27.478209
21
14.863920
0
LINE
8
Layer 1
10
27.478209
20
14.863920
11
27.799508
21
14.599080
0
LINE
8
Layer 1
10
27.799508
20
14.599080
11
28.034327
21
14.119120
0
LINE
8
Layer 1
10
28.034327
20
14.119120
11
28.269146
21
13.639170
0
LINE
8
Layer 1
10
28.269146
20
13.639170
11
28.317506
21
13.105870
0
LINE
8
Layer 1
10
28.317506
20
13.105870
11
28.365866
21
12.572560
0
LINE
8
Layer 1
10
28.365866
20
12.572560
11
28.257523
21
12.016720
0
LINE
8
Layer 1
10
28.257523
20
12.016720
11
27.858305
21
10.776577
0
LINE
8
Layer 1
10
27.858305
20
10.776577
11
27.191833
21
9.567620
0
LINE
8
Layer 1
10
27.191833
20
9.567620
11
26.797662
21
8.938580
0
LINE
8
Layer 1
10
26.797662
20
8.938580
11
27.267990
21
9.248330
0
LINE
8
Layer 1
10
27.267990
20
9.248330
11
27.699147
21
9.558090
0
LINE
8
Layer 1
10
27.699147
20
9.558090
11
28.002700
21
9.558120
0
LINE
8
Layer 1
10
28.002700
20
9.558120
11
28.306200
21
9.558120
0
LINE
8
Layer 1
10
28.306200
20
9.558120
11
28.422315
21
9.890000
0
LINE
8
Layer 1
10
28.422315
20
9.890000
11
28.981137
21
10.926767
0
LINE
8
Layer 1
10
28.981137
20
10.926767
11
29.856533
21
11.948048
0
LINE
8
Layer 1
10
29.856533
20
11.948048
11
30.888239
21
12.796705
0
LINE
8
Layer 1
10
30.888239
20
12.796705
11
31.915995
21
13.315600
0
LINE
8
Layer 1
10
31.915995
20
13.315600
11
32.082920
21
13.367400
0
LINE
8
Layer 1
10
32.082920
20
13.367400
11
31.938120
21
13.527400
0
LINE
8
Layer 1
10
31.938120
20
13.527400
11
31.793321
21
13.687400
0
LINE
8
Layer 1
10
31.793321
20
13.687400
11
31.793300
21
14.042800
0
LINE
8
Layer 1
10
31.793300
20
14.042800
11
31.793300
21
14.398300
0
LINE
8
Layer 1
10
31.793300
20
14.398300
11
31.961935
21
14.550910
0
LINE
8
Layer 1
10
31.961935
20
14.550910
11
32.586472
21
14.876945
0
LINE
8
Layer 1
10
32.586472
20
14.876945
11
33.353479
21
14.953864
0
LINE
8
Layer 1
10
33.353479
20
14.953864
11
34.106559
21
14.790556
0
LINE
8
Layer 1
10
34.106559
20
14.790556
11
34.689315
21
14.395910
0
LINE
8
Layer 1
10
34.689315
20
14.395910
11
34.971764
21
14.074220
0
LINE
8
Layer 1
10
34.971764
20
14.074220
11
35.108315
21
13.614400
0
LINE
8
Layer 1
10
35.108315
20
13.614400
11
35.244867
21
13.154590
0
LINE
8
Layer 1
10
35.244867
20
13.154590
11
35.244900
21
11.813000
0
LINE
8
Layer 1
10
35.244900
20
11.813000
11
35.244900
21
10.471500
0
LINE
8
Layer 1
10
35.244900
20
10.471500
11
35.419730
21
9.787920
0
LINE
8
Layer 1
10
35.419730
20
9.787920
11
35.879205
21
8.570300
0
LINE
8
Layer 1
10
35.879205
20
8.570300
11
36.163850
21
8.036250
0
LINE
8
Layer 1
10
36.163850
20
8.036250
11
36.679662
21
7.525210
0
LINE
8
Layer 1
10
36.679662
20
7.525210
11
37.195474
21
7.014180
0
LINE
8
Layer 1
10
37.195474
20
7.014180
11
37.769011
21
6.731820
0
LINE
8
Layer 1
10
37.769011
20
6.731820
11
39.323052
21
6.251279
0
LINE
8
Layer 1
10
39.323052
20
6.251279
11
40.037076
21
6.210885
0
LINE
8
Layer 1
10
40.037076
20
6.210885
11
40.594971
21
6.320360
0
LINE
8
Layer 1
10
40.594971
20
6.320360
11
40.595100
21
6.320270
0
LINE
8
Layer 1
10
93.174700
20
96.481270
11
95.610126
21
99.543314
0
LINE
8
Layer 1
10
95.610126
20
99.543314
11
99.778717
21
105.112904
0
LINE
8
Layer 1
10
99.778717
20
105.112904
11
107.610200
21
116.043370
0
LINE
8
Layer 1
10
107.610200
20
116.043370
11
108.956680
21
118.052390
0
LINE
8
Layer 1
10
108.956680
20
118.052390
11
109.494580
21
119.140930
0
LINE
8
Layer 1
10
109.494580
20
119.140930
11
110.032490
21
120.229480
0
LINE
8
Layer 1
10
110.032490
20
120.229480
11
110.210000
21
120.981750
0
LINE
8
Layer 1
10
110.210000
20
120.981750
11
110.479100
21
122.238430
0
LINE
8
Layer 1
10
110.479100
20
122.238430
11
110.570700
21
122.742840
0
LINE
8
Layer 1
10
110.570700
20
122.742840
11
110.777210
21
123.047140
0
LINE
8
Layer 1
10
110.777210
20
123.047140
11
110.983720
21
123.351450
0
LINE
8
Layer 1
10
110.983720
20
123.351450
11
110.753110
21
123.456520
0
LINE
8
Layer 1
10
110.753110
20
123.456520
11
108.177620
21
125.221970
0
LINE
8
Layer 1
10
108.177620
20
125.221970
11
104.894000
21
127.504095
0
LINE
8
Layer 1
10
104.894000
20
127.504095
11
101.199140
21
129.429340
0
LINE
8
Layer 1
10
101.199140
20
129.429340
11
100.308274
21
129.801624
0
LINE
8
Layer 1
10
100.308274
20
129.801624
11
100.212359
21
129.772750
0
LINE
8
Layer 1
10
100.212359
20
129.772750
11
100.189330
21
129.632796
0
LINE
8
Layer 1
10
100.189330
20
129.632796
11
100.161030
21
129.433667
0
LINE
8
Layer 1
10
100.161030
20
129.433667
11
99.718520
21
129.404957
0
LINE
8
Layer 1
10
99.718520
20
129.404957
11
98.466320
21
129.527797
0
LINE
8
Layer 1
10
98.466320
20
129.527797
11
97.656620
21
129.679347
0
LINE
8
Layer 1
10
97.656620
20
129.679347
11
97.006040
21
129.636587
0
LINE
8
Layer 1
10
97.006040
20
129.636587
11
96.355450
21
129.593827
0
LINE
8
Layer 1
10
96.355450
20
129.593827
11
95.780190
21
129.305288
0
LINE
8
Layer 1
10
95.780190
20
129.305288
11
95.204930
21
129.016749
0
LINE
8
Layer 1
10
95.204930
20
129.016749
11
94.275660
21
128.071940
0
LINE
8
Layer 1
10
94.275660
20
128.071940
11
93.346400
21
127.127131
0
LINE
8
Layer 1
10
93.346400
20
127.127131
11
92.515160
21
125.971851
0
LINE
8
Layer 1
10
92.515160
20
125.971851
11
89.759445
21
121.781999
0
LINE
8
Layer 1
10
89.759445
20
121.781999
11
84.938230
21
113.724651
0
LINE
8
Layer 1
10
84.938230
20
113.724651
11
80.548570
21
106.636161
0
LINE
8
Layer 1
10
80.548570
20
106.636161
11
79.654927
21
105.315650
0
LINE
8
Layer 1
10
79.654927
20
105.315650
11
79.219550
21
104.324711
0
LINE
8
Layer 1
10
79.219550
20
104.324711
11
78.421135
21
102.466181
0
LINE
8
Layer 1
10
78.421135
20
102.466181
11
77.811424
21
101.201661
0
LINE
8
Layer 1
10
77.811424
20
101.201661
11
77.941367
21
101.173861
0
LINE
8
Layer 1
10
77.941367
20
101.173861
11
79.059016
21
101.585891
0
LINE
8
Layer 1
10
79.059016
20
101.585891
11
81.885417
21
103.009341
0
LINE
8
Layer 1
10
81.885417
20
103.009341
11
86.871861
21
105.742145
0
LINE
8
Layer 1
10
86.871861
20
105.742145
11
90.861701
21
108.218894
0
LINE
8
Layer 1
10
90.861701
20
108.218894
11
94.036723
21
110.561868
0
LINE
8
Layer 1
10
94.036723
20
110.561868
11
96.578717
21
112.893351
0
LINE
8
Layer 1
10
96.578717
20
112.893351
11
98.873217
21
115.605321
0
LINE
8
Layer 1
10
98.873217
20
115.605321
11
99.609567
21
116.556711
0
LINE
8
Layer 1
10
99.609567
20
116.556711
11
99.777300
21
116.557000
0
LINE
8
Layer 1
10
99.777300
20
116.557000
11
99.915045
21
116.497292
0
LINE
8
Layer 1
10
99.915045
20
116.497292
11
99.956182
21
116.296181
0
LINE
8
Layer 1
10
99.956182
20
116.296181
11
99.700964
21
115.337849
0
LINE
8
Layer 1
10
99.700964
20
115.337849
11
97.506890
21
110.273380
0
LINE
8
Layer 1
10
97.506890
20
110.273380
11
95.670987
21
105.984999
0
LINE
8
Layer 1
10
95.670987
20
105.984999
11
94.037135
21
101.716380
0
LINE
8
Layer 1
10
94.037135
20
101.716380
11
92.865711
21
98.190936
0
LINE
8
Layer 1
10
92.865711
20
98.190936
11
92.417090
21
96.132080
0
LINE
8
Layer 1
10
92.417090
20
96.132080
11
92.417100
21
95.841100
0
LINE
8
Layer 1
10
92.417100
20
95.841100
11
92.574080
21
95.925100
0
LINE
8
Layer 1
10
92.574080
20
95.925100
11
93.174650
21
96.481340
0
LINE
8
Layer 1
10
93.174650
20
96.481340
11
93.174700
21
96.481270
0
LINE
8
Layer 1
10
149.209000
20
112.837570
11
151.295374
21
114.958028
0
LINE
8
Layer 1
10
151.295374
20
114.958028
11
153.817970
21
118.105430
0
LINE
8
Layer 1
10
153.817970
20
118.105430
11
156.049330
21
120.893240
0
LINE
8
Layer 1
10
156.049330
20
120.893240
11
161.917658
21
127.872582
0
LINE
8
Layer 1
10
161.917658
20
127.872582
11
166.173530
21
133.485740
0
LINE
8
Layer 1
10
166.173530
20
133.485740
11
166.690640
21
134.263292
0
LINE
8
Layer 1
10
166.690640
20
134.263292
11
166.864490
21
134.813266
0
LINE
8
Layer 1
10
166.864490
20
134.813266
11
167.038350
21
135.363240
0
LINE
8
Layer 1
10
167.038350
20
135.363240
11
167.087650
21
136.212781
0
LINE
8
Layer 1
10
167.087650
20
136.212781
11
167.136950
21
137.062321
0
LINE
8
Layer 1
10
167.136950
20
137.062321
11
167.028380
21
137.804829
0
LINE
8
Layer 1
10
167.028380
20
137.804829
11
166.402720
21
140.982119
0
LINE
8
Layer 1
10
166.402720
20
140.982119
11
165.563090
21
145.231189
0
LINE
8
Layer 1
10
165.563090
20
145.231189
11
165.010448
21
147.903892
0
LINE
8
Layer 1
10
165.010448
20
147.903892
11
164.370477
21
150.108420
0
LINE
8
Layer 1
10
164.370477
20
150.108420
11
163.595428
21
151.982403
0
LINE
8
Layer 1
10
163.595428
20
151.982403
11
162.637550
21
153.663469
0
LINE
8
Layer 1
10
162.637550
20
153.663469
11
162.046540
21
154.568127
0
LINE
8
Layer 1
10
162.046540
20
154.568127
11
161.105910
21
155.509585
0
LINE
8
Layer 1
10
161.105910
20
155.509585
11
160.165290
21
156.451042
0
LINE
8
Layer 1
10
160.165290
20
156.451042
11
159.332140
21
156.988716
0
LINE
8
Layer 1
10
159.332140
20
156.988716
11
156.982045
21
158.163714
0
LINE
8
Layer 1
10
156.982045
20
158.163714
11
155.791945
21
158.552892
0
LINE
8
Layer 1
10
155.791945
20
158.552892
11
154.755850
21
158.746836
0
LINE
8
Layer 1
10
154.755850
20
158.746836
11
154.214020
21
158.794386
0
LINE
8
Layer 1
10
154.214020
20
158.794386
11
153.668790
21
158.503786
0
LINE
8
Layer 1
10
153.668790
20
158.503786
11
152.719946
21
157.853489
0
LINE
8
Layer 1
10
152.719946
20
157.853489
11
151.090291
21
156.469719
0
LINE
8
Layer 1
10
151.090291
20
156.469719
11
144.413800
21
150.280216
0
LINE
8
Layer 1
10
144.413800
20
150.280216
11
138.203085
21
144.267622
0
LINE
8
Layer 1
10
138.203085
20
144.267622
11
137.175887
21
143.009891
0
LINE
8
Layer 1
10
137.175887
20
143.009891
11
136.933580
21
142.275186
0
LINE
8
Layer 1
10
136.933580
20
142.275186
11
138.790990
21
133.681716
0
LINE
8
Layer 1
10
138.790990
20
133.681716
11
139.617370
21
129.956051
0
LINE
8
Layer 1
10
139.617370
20
129.956051
11
140.120440
21
127.052746
0
LINE
8
Layer 1
10
140.120440
20
127.052746
11
140.487888
21
125.215328
0
LINE
8
Layer 1
10
140.487888
20
125.215328
11
141.097115
21
123.475617
0
LINE
8
Layer 1
10
141.097115
20
123.475617
11
142.059802
21
121.574973
0
LINE
8
Layer 1
10
142.059802
20
121.574973
11
143.487630
21
119.254756
0
LINE
8
Layer 1
10
143.487630
20
119.254756
11
144.863894
21
116.918203
0
LINE
8
Layer 1
10
144.863894
20
116.918203
11
146.491280
21
113.624126
0
LINE
8
Layer 1
10
146.491280
20
113.624126
11
147.393290
21
111.709396
0
LINE
8
Layer 1
10
147.393290
20
111.709396
11
147.911880
21
111.933166
0
LINE
8
Layer 1
10
147.911880
20
111.933166
11
148.430470
21
112.156926
0
LINE
8
Layer 1
10
148.430470
20
112.156926
11
149.209000
21
112.837570
0
LINE
8
Layer 1
10
28.377500
20
115.119000
11
27.806176
21
116.613400
0
LINE
8
Layer 1
10
27.806176
20
116.613400
11
27.088386
21
118.516190
0
LINE
8
Layer 1
10
27.088386
20
118.516190
11
26.885827
21
119.167950
0
LINE
8
Layer 1
10
26.885827
20
119.167950
11
26.885031
21
119.964470
0
LINE
8
Layer 1
10
26.885031
20
119.964470
11
26.884234
21
120.760980
0
LINE
8
Layer 1
10
26.884234
20
120.760980
11
27.113046
21
121.251780
0
LINE
8
Layer 1
10
27.113046
20
121.251780
11
27.605862
21
122.048300
0
LINE
8
Layer 1
10
27.605862
20
122.048300
11
28.385374
21
123.140340
0
LINE
8
Layer 1
10
28.385374
20
123.140340
11
29.420282
21
124.952890
0
LINE
8
Layer 1
10
29.420282
20
124.952890
11
30.325663
21
126.513600
0
LINE
8
Layer 1
10
30.325663
20
126.513600
11
30.438446
21
126.602100
0
LINE
8
Layer 1
10
30.438446
20
126.602100
11
30.627284
21
127.619870
0
LINE
8
Layer 1
10
30.627284
20
127.619870
11
30.928578
21
129.434150
0
LINE
8
Layer 1
10
30.928578
20
129.434150
11
31.041032
21
130.230666
0
LINE
8
Layer 1
10
31.041032
20
130.230666
11
31.041100
21
137.001000
0
LINE
8
Layer 1
10
31.041100
20
137.001000
11
31.041100
21
143.771000
0
LINE
8
Layer 1
10
31.041100
20
143.771000
11
31.276034
21
144.413853
0
LINE
8
Layer 1
10
31.276034
20
144.413853
11
31.849656
21
145.566151
0
LINE
8
Layer 1
10
31.849656
20
145.566151
11
33.193124
21
147.353763
0
LINE
8
Layer 1
10
33.193124
20
147.353763
11
34.775854
21
149.462753
0
LINE
8
Layer 1
10
34.775854
20
149.462753
11
35.268585
21
150.198401
0
LINE
8
Layer 1
10
35.268585
20
150.198401
11
35.083143
21
150.328290
0
LINE
8
Layer 1
10
35.083143
20
150.328290
11
34.122000
21
151.540000
0
LINE
8
Layer 1
10
34.122000
20
151.540000
11
32.286300
21
153.949000
0
LINE
8
Layer 1
10
32.286300
20
153.949000
11
31.226300
21
155.276000
0
LINE
8
Layer 1
10
31.226300
20
155.276000
11
29.806100
21
156.702000
0
LINE
8
Layer 1
10
29.806100
20
156.702000
11
27.334719
21
158.884347
0
LINE
8
Layer 1
10
27.334719
20
158.884347
11
26.355240
21
159.485692
0
LINE
8
Layer 1
10
26.355240
20
159.485692
11
25.522340
21
159.777880
0
LINE
8
Layer 1
10
25.522340
20
159.777880
11
25.225274
21
159.832960
0
LINE
8
Layer 1
10
25.225274
20
159.832960
11
24.947079
21
159.690842
0
LINE
8
Layer 1
10
24.947079
20
159.690842
11
22.810507
21
157.604364
0
LINE
8
Layer 1
10
22.810507
20
157.604364
11
20.127979
21
154.715632
0
LINE
8
Layer 1
10
20.127979
20
154.715632
11
18.912163
21
153.114648
0
LINE
8
Layer 1
10
18.912163
20
153.114648
11
17.969691
21
151.454805
0
LINE
8
Layer 1
10
17.969691
20
151.454805
11
17.191707
21
149.507895
0
LINE
8
Layer 1
10
17.191707
20
149.507895
11
16.469349
21
147.045712
0
LINE
8
Layer 1
10
16.469349
20
147.045712
11
15.643083
21
144.248632
0
LINE
8
Layer 1
10
15.643083
20
144.248632
11
15.149879
21
142.500293
0
LINE
8
Layer 1
10
15.149879
20
142.500293
11
14.612945
21
139.960926
0
LINE
8
Layer 1
10
14.612945
20
139.960926
11
14.181417
21
137.413817
0
LINE
8
Layer 1
10
14.181417
20
137.413817
11
14.004433
21
135.642252
0
LINE
8
Layer 1
10
14.004433
20
135.642252
11
14.004500
21
135.356000
0
LINE
8
Layer 1
10
14.004500
20
135.356000
11
14.456277
21
134.563199
0
LINE
8
Layer 1
10
14.456277
20
134.563199
11
17.712874
21
129.518340
0
LINE
8
Layer 1
10
17.712874
20
129.518340
11
22.453116
21
122.732005
0
LINE
8
Layer 1
10
22.453116
20
122.732005
11
26.675263
21
117.000142
0
LINE
8
Layer 1
10
26.675263
20
117.000142
11
27.966508
21
115.403371
0
LINE
8
Layer 1
10
27.966508
20
115.403371
11
28.297703
21
115.075179
0
LINE
8
Layer 1
10
28.297703
20
115.075179
11
28.377577
21
115.118699
0
LINE
8
Layer 1
10
28.377577
20
115.118699
11
28.377500
21
115.119000
0
LINE
8
Layer 1
10
56.880500
20
0.171000
11
56.578120
21
0.393260
0
LINE
8
Layer 1
10
56.578120
20
0.393260
11
56.455815
21
0.540640
0
LINE
8
Layer 1
10
56.455815
20
0.540640
11
56.456523
21
0.912050
0
LINE
8
Layer 1
10
56.456523
20
0.912050
11
56.457231
21
1.283470
0
LINE
8
Layer 1
10
56.457231
20
1.283470
11
56.641100
21
1.637470
0
LINE
8
Layer 1
10
56.641100
20
1.637470
11
57.258496
21
2.401611
0
LINE
8
Layer 1
10
57.258496
20
2.401611
11
58.073030
21
3.010510
0
LINE
8
Layer 1
10
58.073030
20
3.010510
11
58.466031
21
3.207060
0
LINE
8
Layer 1
10
58.466031
20
3.207060
11
59.090559
21
3.285460
0
LINE
8
Layer 1
10
59.090559
20
3.285460
11
59.715087
21
3.363860
0
LINE
8
Layer 1
10
59.715087
20
3.363860
11
60.198714
21
3.600470
0
LINE
8
Layer 1
10
60.198714
20
3.600470
11
60.682342
21
3.837090
0
LINE
8
Layer 1
10
60.682342
20
3.837090
11
61.356219
21
4.507300
0
LINE
8
Layer 1
10
61.356219
20
4.507300
11
62.700228
21
6.053964
0
LINE
8
Layer 1
10
62.700228
20
6.053964
11
63.941396
21
7.893027
0
LINE
8
Layer 1
10
63.941396
20
7.893027
11
65.056271
21
9.963238
0
LINE
8
Layer 1
10
65.056271
20
9.963238
11
66.021400
21
12.203349
0
LINE
8
Layer 1
10
66.021400
20
12.203349
11
66.813333
21
14.552110
0
LINE
8
Layer 1
10
66.813333
20
14.552110
11
67.408616
21
16.948271
0
LINE
8
Layer 1
10
67.408616
20
16.948271
11
67.783799
21
19.330585
0
LINE
8
Layer 1
10
67.783799
20
19.330585
11
67.915429
21
21.637800
0
LINE
8
Layer 1
10
67.915429
20
21.637800
11
67.916829
21
23.231880
0
LINE
8
Layer 1
10
67.916829
20
23.231880
11
67.778107
21
24.340620
0
LINE
8
Layer 1
10
67.778107
20
24.340620
11
67.415701
21
26.636440
0
LINE
8
Layer 1
10
67.415701
20
26.636440
11
67.058920
21
28.838830
0
LINE
8
Layer 1
10
67.058920
20
28.838830
11
66.925822
21
29.854160
0
LINE
8
Layer 1
10
66.925822
20
29.854160
11
66.982582
21
30.171590
0
LINE
8
Layer 1
10
66.982582
20
30.171590
11
67.113667
21
30.556235
0
LINE
8
Layer 1
10
67.113667
20
30.556235
11
67.331887
21
30.757365
0
LINE
8
Layer 1
10
67.331887
20
30.757365
11
67.629679
21
30.771820
0
LINE
8
Layer 1
10
67.629679
20
30.771820
11
67.999482
21
30.596440
0
LINE
8
Layer 1
10
67.999482
20
30.596440
11
68.300200
21
30.394100
0
LINE
8
Layer 1
10
68.300200
20
30.394100
11
68.589449
21
29.822050
0
LINE
8
Layer 1
10
68.589449
20
29.822050
11
69.085370
21
28.400874
0
LINE
8
Layer 1
10
69.085370
20
28.400874
11
69.448061
21
26.417640
0
LINE
8
Layer 1
10
69.448061
20
26.417640
11
69.594981
21
25.267420
0
LINE
8
Layer 1
10
69.594981
20
25.267420
11
69.645441
21
23.143380
0
LINE
8
Layer 1
10
69.645441
20
23.143380
11
69.695901
21
21.019340
0
LINE
8
Layer 1
10
69.695901
20
21.019340
11
69.590534
21
19.514810
0
LINE
8
Layer 1
10
69.590534
20
19.514810
11
69.039688
21
15.107696
0
LINE
8
Layer 1
10
69.039688
20
15.107696
11
68.584923
21
13.294326
0
LINE
8
Layer 1
10
68.584923
20
13.294326
11
67.976664
21
11.574130
0
LINE
8
Layer 1
10
67.976664
20
11.574130
11
67.439994
21
10.246660
0
LINE
8
Layer 1
10
67.439994
20
10.246660
11
67.534214
21
10.039880
0
LINE
8
Layer 1
10
67.534214
20
10.039880
11
67.628434
21
9.833100
0
LINE
8
Layer 1
10
67.628434
20
9.833100
11
68.092408
21
9.695320
0
LINE
8
Layer 1
10
68.092408
20
9.695320
11
68.556381
21
9.557530
0
LINE
8
Layer 1
10
68.556381
20
9.557530
11
69.977071
21
9.463930
0
LINE
8
Layer 1
10
69.977071
20
9.463930
11
71.397761
21
9.370330
0
LINE
8
Layer 1
10
71.397761
20
9.370330
11
80.203691
21
9.425430
0
LINE
8
Layer 1
10
80.203691
20
9.425430
11
90.694266
21
9.568519
0
LINE
8
Layer 1
10
90.694266
20
9.568519
11
92.669872
21
9.710180
0
LINE
8
Layer 1
10
92.669872
20
9.710180
11
93.360691
21
9.933120
0
LINE
8
Layer 1
10
93.360691
20
9.933120
11
93.483051
21
10.055470
0
LINE
8
Layer 1
10
93.483051
20
10.055470
11
93.126881
21
10.606540
0
LINE
8
Layer 1
10
93.126881
20
10.606540
11
92.313596
21
12.188618
0
LINE
8
Layer 1
10
92.313596
20
12.188618
11
91.930391
21
14.279900
0
LINE
8
Layer 1
10
91.930391
20
14.279900
11
91.737781
21
15.628760
0
LINE
8
Layer 1
10
91.737781
20
15.628760
11
91.690581
21
15.751830
0
LINE
8
Layer 1
10
91.690581
20
15.751830
11
91.466561
21
15.575610
0
LINE
8
Layer 1
10
91.466561
20
15.575610
11
91.242541
21
15.399390
0
LINE
8
Layer 1
10
91.242541
20
15.399390
11
90.842500
21
15.399100
0
LINE
8
Layer 1
10
90.842500
20
15.399100
11
90.442500
21
15.399100
0
LINE
8
Layer 1
10
90.442500
20
15.399100
11
90.105760
21
15.753090
0
LINE
8
Layer 1
10
90.105760
20
15.753090
11
89.769020
21
16.107080
0
LINE
8
Layer 1
10
89.769020
20
16.107080
11
89.583730
21
16.704490
0
LINE
8
Layer 1
10
89.583730
20
16.704490
11
89.298170
21
18.254010
0
LINE
8
Layer 1
10
89.298170
20
18.254010
11
89.197890
21
19.206120
0
LINE
8
Layer 1
10
89.197890
20
19.206120
11
89.303270
21
20.436490
0
LINE
8
Layer 1
10
89.303270
20
20.436490
11
89.408650
21
21.666850
0
LINE
8
Layer 1
10
89.408650
20
21.666850
11
89.665950
21
22.685620
0
LINE
8
Layer 1
10
89.665950
20
22.685620
11
90.392422
21
24.641716
0
LINE
8
Layer 1
10
90.392422
20
24.641716
11
90.839969
21
25.269077
0
LINE
8
Layer 1
10
90.839969
20
25.269077
11
91.341360
21
25.658460
0
LINE
8
Layer 1
10
91.341360
20
25.658460
11
91.842260
21
26.036853
0
LINE
8
Layer 1
10
91.842260
20
26.036853
11
92.106310
21
26.635460
0
LINE
8
Layer 1
10
92.106310
20
26.635460
11
92.368200
21
27.308130
0
LINE
8
Layer 1
10
92.368200
20
27.308130
11
92.509530
21
27.523840
0
LINE
8
Layer 1
10
92.509530
20
27.523840
11
92.841800
21
27.523800
0
LINE
8
Layer 1
10
92.841800
20
27.523800
11
93.364710
21
27.390290
0
LINE
8
Layer 1
10
93.364710
20
27.390290
11
93.555330
21
27.256770
0
LINE
8
Layer 1
10
93.555330
20
27.256770
11
93.750430
21
26.748650
0
LINE
8
Layer 1
10
93.750430
20
26.748650
11
93.945540
21
26.240530
0
LINE
8
Layer 1
10
93.945540
20
26.240530
11
93.955640
21
25.444010
0
LINE
8
Layer 1
10
93.955640
20
25.444010
11
93.890602
21
24.338524
0
LINE
8
Layer 1
10
93.890602
20
24.338524
11
93.600340
21
23.720830
0
LINE
8
Layer 1
10
93.600340
20
23.720830
11
93.374740
21
23.452720
0
LINE
8
Layer 1
10
93.374740
20
23.452720
11
93.175100
21
23.452700
0
LINE
8
Layer 1
10
93.175100
20
23.452700
11
92.918810
21
23.362418
0
LINE
8
Layer 1
10
92.918810
20
23.362418
11
92.699751
21
23.120821
0
LINE
8
Layer 1
10
92.699751
20
23.120821
11
92.484210
21
22.359170
0
LINE
8
Layer 1
10
92.484210
20
22.359170
11
92.479210
21
21.992420
0
LINE
8
Layer 1
10
92.479210
20
21.992420
11
92.714080
21
21.647500
0
LINE
8
Layer 1
10
92.714080
20
21.647500
11
93.114658
21
20.741993
0
LINE
8
Layer 1
10
93.114658
20
20.741993
11
93.611850
21
18.762110
0
LINE
8
Layer 1
10
93.611850
20
18.762110
11
94.120009
21
16.829495
0
LINE
8
Layer 1
10
94.120009
20
16.829495
11
94.641060
21
15.605750
0
LINE
8
Layer 1
10
94.641060
20
15.605750
11
95.087720
21
14.589956
0
LINE
8
Layer 1
10
95.087720
20
14.589956
11
95.433580
21
13.250200
0
LINE
8
Layer 1
10
95.433580
20
13.250200
11
96.250462
21
10.728676
0
LINE
8
Layer 1
10
96.250462
20
10.728676
11
97.670730
21
8.258175
0
LINE
8
Layer 1
10
97.670730
20
8.258175
11
99.696008
21
5.836394
0
LINE
8
Layer 1
10
99.696008
20
5.836394
11
102.327920
21
3.461030
0
LINE
8
Layer 1
10
102.327920
20
3.461030
11
104.180634
21
1.888874
0
LINE
8
Layer 1
10
104.180634
20
1.888874
11
104.946650
21
1.013790
0
LINE
8
Layer 1
10
104.946650
20
1.013790
11
105.059740
21
0.744550
0
LINE
8
Layer 1
10
105.059740
20
0.744550
11
105.508550
21
0.629520
0
LINE
8
Layer 1
10
105.508550
20
0.629520
11
105.980032
21
0.444407
0
LINE
8
Layer 1
10
105.980032
20
0.444407
11
105.946000
21
0.206840
0
LINE
8
Layer 1
10
105.946000
20
0.206840
11
105.830510
21
0.067670
0
LINE
8
Layer 1
10
105.830510
20
0.067670
11
104.691390
21
0.130670
0
LINE
8
Layer 1
10
104.691390
20
0.130670
11
103.378076
21
0.259122
0
LINE
8
Layer 1
10
103.378076
20
0.259122
11
102.828360
21
0.533210
0
LINE
8
Layer 1
10
102.828360
20
0.533210
11
101.916100
21
1.222500
0
LINE
8
Layer 1
10
101.916100
20
1.222500
11
100.014230
21
2.716636
0
LINE
8
Layer 1
10
100.014230
20
2.716636
11
97.718130
21
4.833550
0
LINE
8
Layer 1
10
97.718130
20
4.833550
11
96.160380
21
6.349190
0
LINE
8
Layer 1
10
96.160380
20
6.349190
11
95.505580
21
6.667000
0
LINE
8
Layer 1
10
95.505580
20
6.667000
11
94.850780
21
6.984810
0
LINE
8
Layer 1
10
94.850780
20
6.984810
11
94.187020
21
7.116860
0
LINE
8
Layer 1
10
94.187020
20
7.116860
11
92.382010
21
7.341390
0
LINE
8
Layer 1
10
92.382010
20
7.341390
11
91.240760
21
7.433890
0
LINE
8
Layer 1
10
91.240760
20
7.433890
11
87.027650
21
7.432890
0
LINE
8
Layer 1
10
87.027650
20
7.432890
11
65.065850
21
7.015340
0
LINE
8
Layer 1
10
65.065850
20
7.015340
11
64.181413
21
5.796660
0
LINE
8
Layer 1
10
64.181413
20
5.796660
11
62.920274
21
4.121093
0
LINE
8
Layer 1
10
62.920274
20
4.121093
11
61.904753
21
3.024107
0
LINE
8
Layer 1
10
61.904753
20
3.024107
11
60.941897
21
2.331128
0
LINE
8
Layer 1
10
60.941897
20
2.331128
11
59.838753
21
1.867580
0
LINE
8
Layer 1
10
59.838753
20
1.867580
11
58.909944
21
1.449865
0
LINE
8
Layer 1
10
58.909944
20
1.449865
11
58.432333
21
1.074510
0
LINE
8
Layer 1
10
58.432333
20
1.074510
11
58.237184
21
0.771835
0
LINE
8
Layer 1
10
58.237184
20
0.771835
11
57.782614
21
0.444059
0
LINE
8
Layer 1
10
57.782614
20
0.444059
11
57.264942
21
0.205530
0
LINE
8
Layer 1
10
57.264942
20
0.205530
11
56.880483
21
0.170600
0
LINE
8
Layer 1
10
56.880483
20
0.170600
11
56.880500
21
0.171000
0
LINE
8
Layer 1
10
119.144200
20
18.851500
11
118.694360
21
19.831160
0
LINE
8
Layer 1
10
118.694360
20
19.831160
11
118.433890
21
20.544860
0
LINE
8
Layer 1
10
118.433890
20
20.544860
11
118.261350
21
21.622870
0
LINE
8
Layer 1
10
118.261350
20
21.622870
11
117.697300
21
27.617338
0
LINE
8
Layer 1
10
117.697300
20
27.617338
11
117.406940
21
36.462870
0
LINE
8
Layer 1
10
117.406940
20
36.462870
11
117.351840
21
40.489700
0
LINE
8
Layer 1
10
117.351840
20
40.489700
11
117.451870
21
42.675230
0
LINE
8
Layer 1
10
117.451870
20
42.675230
11
117.624050
21
45.296382
0
LINE
8
Layer 1
10
117.624050
20
45.296382
11
117.846810
21
46.463570
0
LINE
8
Layer 1
10
117.846810
20
46.463570
11
117.951380
21
46.684820
0
LINE
8
Layer 1
10
117.951380
20
46.684820
11
118.136600
21
46.711420
0
LINE
8
Layer 1
10
118.136600
20
46.711420
11
118.321810
21
46.738020
0
LINE
8
Layer 1
10
118.321810
20
46.738020
11
118.453840
21
46.534460
0
LINE
8
Layer 1
10
118.453840
20
46.534460
11
118.831180
21
45.711370
0
LINE
8
Layer 1
10
118.831180
20
45.711370
11
119.513118
21
44.232450
0
LINE
8
Layer 1
10
119.513118
20
44.232450
11
120.341050
21
42.880040
0
LINE
8
Layer 1
10
120.341050
20
42.880040
11
121.488782
21
40.850833
0
LINE
8
Layer 1
10
121.488782
20
40.850833
11
122.399538
21
38.463311
0
LINE
8
Layer 1
10
122.399538
20
38.463311
11
123.061861
21
35.835658
0
LINE
8
Layer 1
10
123.061861
20
35.835658
11
123.464293
21
33.086061
0
LINE
8
Layer 1
10
123.464293
20
33.086061
11
123.595375
21
30.332705
0
LINE
8
Layer 1
10
123.595375
20
30.332705
11
123.443651
21
27.693776
0
LINE
8
Layer 1
10
123.443651
20
27.693776
11
122.997662
21
25.287459
0
LINE
8
Layer 1
10
122.997662
20
25.287459
11
122.245950
21
23.231940
0
LINE
8
Layer 1
10
122.245950
20
23.231940
11
121.809200
21
22.346920
0
LINE
8
Layer 1
10
121.809200
20
22.346920
11
121.178410
21
21.638910
0
LINE
8
Layer 1
10
121.178410
20
21.638910
11
120.276140
21
20.542870
0
LINE
8
Layer 1
10
120.276140
20
20.542870
11
120.004640
21
20.154830
0
LINE
8
Layer 1
10
120.004640
20
20.154830
11
119.906140
21
19.480850
0
LINE
8
Layer 1
10
119.906140
20
19.480850
11
119.749110
21
18.747254
0
LINE
8
Layer 1
10
119.749110
20
18.747254
11
119.499290
21
18.585600
0
LINE
8
Layer 1
10
119.499290
20
18.585600
11
119.334000
21
18.585300
0
LINE
8
Layer 1
10
119.334000
20
18.585300
11
119.144200
21
18.851500
0
LINE
8
Layer 1
10
120.082550
20
23.624830
11
121.051194
21
25.821053
0
LINE
8
Layer 1
10
121.051194
20
25.821053
11
121.590680
21
28.453490
0
LINE
8
Layer 1
10
121.590680
20
28.453490
11
121.729000
21
29.604010
0
LINE
8
Layer 1
10
121.729000
20
29.604010
11
121.676700
21
30.975790
0
LINE
8
Layer 1
10
121.676700
20
30.975790
11
121.231502
21
34.338485
0
LINE
8
Layer 1
10
121.231502
20
34.338485
11
120.354285
21
37.896493
0
LINE
8
Layer 1
10
120.354285
20
37.896493
11
119.405218
21
40.445447
0
LINE
8
Layer 1
10
119.405218
20
40.445447
11
119.016294
21
40.965164
0
LINE
8
Layer 1
10
119.016294
20
40.965164
11
118.862930
21
40.970469
0
LINE
8
Layer 1
10
118.862930
20
40.970469
11
118.744470
21
40.780980
0
LINE
8
Layer 1
10
118.744470
20
40.780980
11
118.630179
21
37.836533
0
LINE
8
Layer 1
10
118.630179
20
37.836533
11
118.747114
21
32.221355
0
LINE
8
Layer 1
10
118.747114
20
32.221355
11
119.010402
21
26.472189
0
LINE
8
Layer 1
10
119.010402
20
26.472189
11
119.335170
21
23.125780
0
LINE
8
Layer 1
10
119.335170
20
23.125780
11
119.431870
21
22.741640
0
LINE
8
Layer 1
10
119.431870
20
22.741640
11
119.561810
21
22.849470
0
LINE
8
Layer 1
10
119.561810
20
22.849470
11
120.082500
21
23.624840
0
LINE
8
Layer 1
10
120.082500
20
23.624840
11
120.082550
21
23.624830
0
LINE
8
Layer 1
10
81.000250
20
52.165530
11
78.822297
21
52.965300
0
LINE
8
Layer 1
10
78.822297
20
52.965300
11
76.436384
21
54.378489
0
LINE
8
Layer 1
10
76.436384
20
54.378489
11
74.179168
21
56.172548
0
LINE
8
Layer 1
10
74.179168
20
56.172548
11
72.387310
21
58.114930
0
LINE
8
Layer 1
10
72.387310
20
58.114930
11
70.930628
21
60.576032
0
LINE
8
Layer 1
10
70.930628
20
60.576032
11
69.479699
21
63.862895
0
LINE
8
Layer 1
10
69.479699
20
63.862895
11
68.262468
21
67.393126
0
LINE
8
Layer 1
10
68.262468
20
67.393126
11
67.506880
21
70.584330
0
LINE
8
Layer 1
10
67.506880
20
70.584330
11
67.450060
21
70.942300
0
LINE
8
Layer 1
10
67.450060
20
70.942300
11
67.541080
21
71.181710
0
LINE
8
Layer 1
10
67.541080
20
71.181710
11
67.632100
21
71.421120
0
LINE
8
Layer 1
10
67.632100
20
71.421120
11
67.886600
21
71.420800
0
LINE
8
Layer 1
10
67.886600
20
71.420800
11
68.141000
21
71.420800
0
LINE
8
Layer 1
10
68.141000
20
71.420800
11
68.530411
21
71.139500
0
LINE
8
Layer 1
10
68.530411
20
71.139500
11
69.534711
21
70.329870
0
LINE
8
Layer 1
10
69.534711
20
70.329870
11
71.135690
21
69.176489
0
LINE
8
Layer 1
10
71.135690
20
69.176489
11
72.707531
21
68.536910
0
LINE
8
Layer 1
10
72.707531
20
68.536910
11
73.256407
21
68.393930
0
LINE
8
Layer 1
10
73.256407
20
68.393930
11
74.012285
21
68.395930
0
LINE
8
Layer 1
10
74.012285
20
68.395930
11
74.768162
21
68.397930
0
LINE
8
Layer 1
10
74.768162
20
68.397930
11
75.339811
21
68.543730
0
LINE
8
Layer 1
10
75.339811
20
68.543730
11
76.733381
21
69.091707
0
LINE
8
Layer 1
10
76.733381
20
69.091707
11
78.160755
21
70.014429
0
LINE
8
Layer 1
10
78.160755
20
70.014429
11
79.566496
21
71.269286
0
LINE
8
Layer 1
10
79.566496
20
71.269286
11
80.895171
21
72.813670
0
LINE
8
Layer 1
10
80.895171
20
72.813670
11
81.456029
21
73.495039
0
LINE
8
Layer 1
10
81.456029
20
73.495039
11
81.912756
21
73.669713
0
LINE
8
Layer 1
10
81.912756
20
73.669713
11
82.518231
21
73.288527
0
LINE
8
Layer 1
10
82.518231
20
73.288527
11
83.525331
21
72.302320
0
LINE
8
Layer 1
10
83.525331
20
72.302320
11
85.602401
21
70.391180
0
LINE
8
Layer 1
10
85.602401
20
70.391180
11
86.354671
21
69.818070
0
LINE
8
Layer 1
10
86.354671
20
69.818070
11
87.239681
21
69.385780
0
LINE
8
Layer 1
10
87.239681
20
69.385780
11
88.621578
21
68.831791
0
LINE
8
Layer 1
10
88.621578
20
68.831791
11
89.983241
21
68.621130
0
LINE
8
Layer 1
10
89.983241
20
68.621130
11
90.779751
21
68.570530
0
LINE
8
Layer 1
10
90.779751
20
68.570530
11
91.399271
21
68.716290
0
LINE
8
Layer 1
10
91.399271
20
68.716290
11
92.676911
21
69.186930
0
LINE
8
Layer 1
10
92.676911
20
69.186930
11
93.335061
21
69.511790
0
LINE
8
Layer 1
10
93.335061
20
69.511790
11
94.468591
21
70.599370
0
LINE
8
Layer 1
10
94.468591
20
70.599370
11
95.602131
21
71.686950
0
LINE
8
Layer 1
10
95.602131
20
71.686950
11
95.806100
21
71.687000
0
LINE
8
Layer 1
10
95.806100
20
71.687000
11
96.116340
21
71.580790
0
LINE
8
Layer 1
10
96.116340
20
71.580790
11
96.222540
21
71.474590
0
LINE
8
Layer 1
10
96.222540
20
71.474590
11
96.222600
21
71.006100
0
LINE
8
Layer 1
10
96.222600
20
71.006100
11
95.501910
21
67.129150
0
LINE
8
Layer 1
10
95.501910
20
67.129150
11
94.666571
21
64.344202
0
LINE
8
Layer 1
10
94.666571
20
64.344202
11
93.618484
21
61.756365
0
LINE
8
Layer 1
10
93.618484
20
61.756365
11
92.383663
21
59.400135
0
LINE
8
Layer 1
10
92.383663
20
59.400135
11
90.988125
21
57.310008
0
LINE
8
Layer 1
10
90.988125
20
57.310008
11
89.457885
21
55.520479
0
LINE
8
Layer 1
10
89.457885
20
55.520479
11
87.818959
21
54.066047
0
LINE
8
Layer 1
10
87.818959
20
54.066047
11
86.097362
21
52.981205
0
LINE
8
Layer 1
10
86.097362
20
52.981205
11
84.319110
21
52.300450
0
LINE
8
Layer 1
10
84.319110
20
52.300450
11
83.611090
21
52.116470
0
LINE
8
Layer 1
10
83.611090
20
52.116470
11
82.593320
21
52.080270
0
LINE
8
Layer 1
10
82.593320
20
52.080270
11
81.575550
21
52.044070
0
LINE
8
Layer 1
10
81.575550
20
52.044070
11
81.000290
21
52.165920
0
LINE
8
Layer 1
10
81.000290
20
52.165920
11
81.000250
21
52.165530
0
LINE
8
Layer 1
10
73.948960
20
58.300720
11
73.818128
21
58.721100
0
LINE
8
Layer 1
10
73.818128
20
58.721100
11
73.865378
21
59.269780
0
LINE
8
Layer 1
10
73.865378
20
59.269780
11
73.912628
21
59.818480
0
LINE
8
Layer 1
10
73.912628
20
59.818480
11
74.148415
21
60.287550
0
LINE
8
Layer 1
10
74.148415
20
60.287550
11
74.675324
21
61.091972
0
LINE
8
Layer 1
10
74.675324
20
61.091972
11
75.411252
21
61.854448
0
LINE
8
Layer 1
10
75.411252
20
61.854448
11
77.387923
21
63.189679
0
LINE
8
Layer 1
10
77.387923
20
63.189679
11
79.833932
21
64.165485
0
LINE
8
Layer 1
10
79.833932
20
64.165485
11
82.504785
21
64.654110
0
LINE
8
Layer 1
10
82.504785
20
64.654110
11
83.257055
21
64.710510
0
LINE
8
Layer 1
10
83.257055
20
64.710510
11
84.153935
21
64.610910
0
LINE
8
Layer 1
10
84.153935
20
64.610910
11
85.621504
21
64.349077
0
LINE
8
Layer 1
10
85.621504
20
64.349077
11
86.857805
21
63.880369
0
LINE
8
Layer 1
10
86.857805
20
63.880369
11
87.993231
21
63.138216
0
LINE
8
Layer 1
10
87.993231
20
63.138216
11
89.158175
21
62.056050
0
LINE
8
Layer 1
10
89.158175
20
62.056050
11
90.012075
21
61.166400
0
LINE
8
Layer 1
10
90.012075
20
61.166400
11
90.349185
21
60.484320
0
LINE
8
Layer 1
10
90.349185
20
60.484320
11
90.686275
21
59.802250
0
LINE
8
Layer 1
10
90.686275
20
59.802250
11
90.686300
21
59.167300
0
LINE
8
Layer 1
10
90.686300
20
59.167300
11
90.686300
21
58.532700
0
LINE
8
Layer 1
10
90.686300
20
58.532700
11
90.876190
21
58.759500
0
LINE
8
Layer 1
10
90.876190
20
58.759500
11
92.339731
21
61.048102
0
LINE
8
Layer 1
10
92.339731
20
61.048102
11
93.681990
21
63.942390
0
LINE
8
Layer 1
10
93.681990
20
63.942390
11
94.652898
21
67.010365
0
LINE
8
Layer 1
10
94.652898
20
67.010365
11
95.160560
21
69.297050
0
LINE
8
Layer 1
10
95.160560
20
69.297050
11
95.160600
21
69.579100
0
LINE
8
Layer 1
10
95.160600
20
69.579100
11
94.740220
21
69.333050
0
LINE
8
Layer 1
10
94.740220
20
69.333050
11
93.921580
21
68.804020
0
LINE
8
Layer 1
10
93.921580
20
68.804020
11
93.022553
21
68.275662
0
LINE
8
Layer 1
10
93.022553
20
68.275662
11
92.088200
21
67.931520
0
LINE
8
Layer 1
10
92.088200
20
67.931520
11
91.550730
21
67.792250
0
LINE
8
Layer 1
10
91.550730
20
67.792250
11
90.579200
21
67.792200
0
LINE
8
Layer 1
10
90.579200
20
67.792200
11
89.607700
21
67.792200
0
LINE
8
Layer 1
10
89.607700
20
67.792200
11
88.777720
21
68.003320
0
LINE
8
Layer 1
10
88.777720
20
68.003320
11
87.579263
21
68.391491
0
LINE
8
Layer 1
10
87.579263
20
68.391491
11
86.391692
21
68.962724
0
LINE
8
Layer 1
10
86.391692
20
68.962724
11
83.673910
21
70.864780
0
LINE
8
Layer 1
10
83.673910
20
70.864780
11
82.310594
21
71.879930
0
LINE
8
Layer 1
10
82.310594
20
71.879930
11
81.962469
21
72.022835
0
LINE
8
Layer 1
10
81.962469
20
72.022835
11
81.685960
21
72.009420
0
LINE
8
Layer 1
10
81.685960
20
72.009420
11
81.486560
21
71.959420
0
LINE
8
Layer 1
10
81.486560
20
71.959420
11
80.564880
21
70.973060
0
LINE
8
Layer 1
10
80.564880
20
70.973060
11
79.056983
21
69.572926
0
LINE
8
Layer 1
10
79.056983
20
69.572926
11
77.482147
21
68.555869
0
LINE
8
Layer 1
10
77.482147
20
68.555869
11
75.766114
21
67.883772
0
LINE
8
Layer 1
10
75.766114
20
67.883772
11
73.834620
21
67.518520
0
LINE
8
Layer 1
10
73.834620
20
67.518520
11
72.931957
21
67.420320
0
LINE
8
Layer 1
10
72.931957
20
67.420320
11
72.096125
21
67.518920
0
LINE
8
Layer 1
10
72.096125
20
67.518920
11
71.260294
21
67.617520
0
LINE
8
Layer 1
10
71.260294
20
67.617520
11
70.434928
21
67.881910
0
LINE
8
Layer 1
10
70.434928
20
67.881910
11
69.345490
21
68.105781
0
LINE
8
Layer 1
10
69.345490
20
68.105781
11
69.240800
21
67.892574
0
LINE
8
Layer 1
10
69.240800
20
67.892574
11
69.320528
21
67.417180
0
LINE
8
Layer 1
10
69.320528
20
67.417180
11
70.101573
21
64.737894
0
LINE
8
Layer 1
10
70.101573
20
64.737894
11
71.129892
21
62.241774
0
LINE
8
Layer 1
10
71.129892
20
62.241774
11
72.356026
21
60.032054
0
LINE
8
Layer 1
10
72.356026
20
60.032054
11
73.730518
21
58.211970
0
LINE
8
Layer 1
10
73.730518
20
58.211970
11
74.039683
21
57.910095
0
LINE
8
Layer 1
10
74.039683
20
57.910095
11
73.949049
21
58.300470
0
LINE
8
Layer 1
10
73.949049
20
58.300470
11
73.948960
21
58.300720
0
LINE
8
Layer 1
10
53.303200
20
75.494300
11
52.516039
21
75.822200
0
LINE
8
Layer 1
10
52.516039
20
75.822200
11
52.123159
21
76.067090
0
LINE
8
Layer 1
10
52.123159
20
76.067090
11
51.958925
21
76.375470
0
LINE
8
Layer 1
10
51.958925
20
76.375470
11
51.794693
21
76.683840
0
LINE
8
Layer 1
10
51.794693
20
76.683840
11
51.794700
21
77.044000
0
LINE
8
Layer 1
10
51.794700
20
77.044000
11
51.794700
21
77.404200
0
LINE
8
Layer 1
10
51.794700
20
77.404200
11
52.027323
21
77.871020
0
LINE
8
Layer 1
10
52.027323
20
77.871020
11
52.259946
21
78.337840
0
LINE
8
Layer 1
10
52.259946
20
78.337840
11
52.690701
21
78.678330
0
LINE
8
Layer 1
10
52.690701
20
78.678330
11
54.232977
21
79.511424
0
LINE
8
Layer 1
10
54.232977
20
79.511424
11
56.301361
21
80.013430
0
LINE
8
Layer 1
10
56.301361
20
80.013430
11
57.046697
21
80.118820
0
LINE
8
Layer 1
10
57.046697
20
80.118820
11
58.027145
21
80.067420
0
LINE
8
Layer 1
10
58.027145
20
80.067420
11
59.342086
21
79.900643
0
LINE
8
Layer 1
10
59.342086
20
79.900643
11
60.210185
21
79.538670
0
LINE
8
Layer 1
10
60.210185
20
79.538670
11
60.512119
21
79.335650
0
LINE
8
Layer 1
10
60.512119
20
79.335650
11
60.611169
21
79.032270
0
LINE
8
Layer 1
10
60.611169
20
79.032270
11
60.710219
21
78.728880
0
LINE
8
Layer 1
10
60.710219
20
78.728880
11
60.635709
21
78.469070
0
LINE
8
Layer 1
10
60.635709
20
78.469070
11
60.282850
21
77.860123
0
LINE
8
Layer 1
10
60.282850
20
77.860123
11
59.619602
21
77.258344
0
LINE
8
Layer 1
10
59.619602
20
77.258344
11
57.660601
21
76.197449
0
LINE
8
Layer 1
10
57.660601
20
76.197449
11
55.356028
21
75.528704
0
LINE
8
Layer 1
10
55.356028
20
75.528704
11
54.260817
21
75.417113
0
LINE
8
Layer 1
10
54.260817
20
75.417113
11
53.303209
21
75.494430
0
LINE
8
Layer 1
10
53.303209
20
75.494430
11
53.303200
21
75.494300
0
LINE
8
Layer 1
10
109.232300
20
75.911490
11
106.302969
21
77.307364
0
LINE
8
Layer 1
10
106.302969
20
77.307364
11
103.900070
21
78.860610
0
LINE
8
Layer 1
10
103.900070
20
78.860610
11
103.479680
21
79.264860
0
LINE
8
Layer 1
10
103.479680
20
79.264860
11
103.480000
21
79.584500
0
LINE
8
Layer 1
10
103.480000
20
79.584500
11
103.480000
21
79.904100
0
LINE
8
Layer 1
10
103.480000
20
79.904100
11
103.706640
21
80.082370
0
LINE
8
Layer 1
10
103.706640
20
80.082370
11
104.436780
21
80.365830
0
LINE
8
Layer 1
10
104.436780
20
80.365830
11
104.940280
21
80.471020
0
LINE
8
Layer 1
10
104.940280
20
80.471020
11
106.179310
21
80.419920
0
LINE
8
Layer 1
10
106.179310
20
80.419920
11
109.321120
21
80.037590
0
LINE
8
Layer 1
10
109.321120
20
80.037590
11
109.245648
21
80.135764
0
LINE
8
Layer 1
10
109.245648
20
80.135764
11
108.753490
21
80.439940
0
LINE
8
Layer 1
10
108.753490
20
80.439940
11
106.941450
21
81.682676
0
LINE
8
Layer 1
10
106.941450
20
81.682676
11
105.426920
21
83.162725
0
LINE
8
Layer 1
10
105.426920
20
83.162725
11
104.214792
21
84.866929
0
LINE
8
Layer 1
10
104.214792
20
84.866929
11
103.309958
21
86.782130
0
LINE
8
Layer 1
10
103.309958
20
86.782130
11
102.717308
21
88.895169
0
LINE
8
Layer 1
10
102.717308
20
88.895169
11
102.441734
21
91.192890
0
LINE
8
Layer 1
10
102.441734
20
91.192890
11
102.488127
21
93.662133
0
LINE
8
Layer 1
10
102.488127
20
93.662133
11
102.861380
21
96.289740
0
LINE
8
Layer 1
10
102.861380
20
96.289740
11
103.301418
21
98.061735
0
LINE
8
Layer 1
10
103.301418
20
98.061735
11
103.881395
21
99.675997
0
LINE
8
Layer 1
10
103.881395
20
99.675997
11
104.595684
21
101.125144
0
LINE
8
Layer 1
10
104.595684
20
101.125144
11
105.438658
21
102.401795
0
LINE
8
Layer 1
10
105.438658
20
102.401795
11
106.404691
21
103.498568
0
LINE
8
Layer 1
10
106.404691
20
103.498568
11
107.488156
21
104.408080
0
LINE
8
Layer 1
10
107.488156
20
104.408080
11
108.683428
21
105.122952
0
LINE
8
Layer 1
10
108.683428
20
105.122952
11
109.984880
21
105.635800
0
LINE
8
Layer 1
10
109.984880
20
105.635800
11
110.781400
21
105.876860
0
LINE
8
Layer 1
10
110.781400
20
105.876860
11
112.064670
21
105.880860
0
LINE
8
Layer 1
10
112.064670
20
105.880860
11
113.347950
21
105.884860
0
LINE
8
Layer 1
10
113.347950
20
105.884860
11
114.100210
21
105.682340
0
LINE
8
Layer 1
10
114.100210
20
105.682340
11
115.767558
21
105.058636
0
LINE
8
Layer 1
10
115.767558
20
105.058636
11
117.293051
21
104.132422
0
LINE
8
Layer 1
10
117.293051
20
104.132422
11
118.665195
21
102.920219
0
LINE
8
Layer 1
10
118.665195
20
102.920219
11
119.872491
21
101.438545
0
LINE
8
Layer 1
10
119.872491
20
101.438545
11
120.903444
21
99.703920
0
LINE
8
Layer 1
10
120.903444
20
99.703920
11
121.746558
21
97.732865
0
LINE
8
Layer 1
10
121.746558
20
97.732865
11
122.390335
21
95.541898
0
LINE
8
Layer 1
10
122.390335
20
95.541898
11
122.823280
21
93.147540
0
LINE
8
Layer 1
10
122.823280
20
93.147540
11
122.972810
21
91.997020
0
LINE
8
Layer 1
10
122.972810
20
91.997020
11
122.971930
21
90.403990
0
LINE
8
Layer 1
10
122.971930
20
90.403990
11
122.831214
21
88.120257
0
LINE
8
Layer 1
10
122.831214
20
88.120257
11
122.424735
21
86.023655
0
LINE
8
Layer 1
10
122.424735
20
86.023655
11
121.771492
21
84.143103
0
LINE
8
Layer 1
10
121.771492
20
84.143103
11
120.890486
21
82.507518
0
LINE
8
Layer 1
10
120.890486
20
82.507518
11
119.800719
21
81.145816
0
LINE
8
Layer 1
10
119.800719
20
81.145816
11
118.521190
21
80.086916
0
LINE
8
Layer 1
10
118.521190
20
80.086916
11
117.070900
21
79.359735
0
LINE
8
Layer 1
10
117.070900
20
79.359735
11
115.468850
21
78.993190
0
LINE
8
Layer 1
10
115.468850
20
78.993190
11
114.476410
21
78.889590
0
LINE
8
Layer 1
10
114.476410
20
78.889590
11
114.011810
21
78.841690
0
LINE
8
Layer 1
10
114.011810
20
78.841690
11
114.141050
21
78.712460
0
LINE
8
Layer 1
10
114.141050
20
78.712460
11
114.329460
21
78.267780
0
LINE
8
Layer 1
10
114.329460
20
78.267780
11
114.388660
21
77.952330
0
LINE
8
Layer 1
10
114.388660
20
77.952330
11
114.287730
21
77.615460
0
LINE
8
Layer 1
10
114.287730
20
77.615460
11
114.010825
21
77.076271
0
LINE
8
Layer 1
10
114.010825
20
77.076271
11
113.564510
21
76.827760
0
LINE
8
Layer 1
10
113.564510
20
76.827760
11
113.250020
21
76.756860
0
LINE
8
Layer 1
10
113.250020
20
76.756860
11
112.767990
21
76.888700
0
LINE
8
Layer 1
10
112.767990
20
76.888700
11
112.075920
21
77.030340
0
LINE
8
Layer 1
10
112.075920
20
77.030340
11
111.865880
21
77.040340
0
LINE
8
Layer 1
10
111.865880
20
77.040340
11
111.802580
21
76.907580
0
LINE
8
Layer 1
10
111.802580
20
76.907580
11
111.611460
21
76.509320
0
LINE
8
Layer 1
10
111.611460
20
76.509320
11
111.483630
21
76.243820
0
LINE
8
Layer 1
10
111.483630
20
76.243820
11
111.003690
21
75.956190
0
LINE
8
Layer 1
10
111.003690
20
75.956190
11
110.523750
21
75.668560
0
LINE
8
Layer 1
10
110.523750
20
75.668560
11
110.210080
21
75.675560
0
LINE
8
Layer 1
10
110.210080
20
75.675560
11
109.232650
21
75.911230
0
LINE
8
Layer 1
10
109.232650
20
75.911230
11
109.232300
21
75.911490
0
LINE
8
Layer 1
10
116.356690
20
80.356920
11
117.424010
21
80.735487
0
LINE
8
Layer 1
10
117.424010
20
80.735487
11
118.390547
21
81.297945
0
LINE
8
Layer 1
10
118.390547
20
81.297945
11
119.252202
21
82.038433
0
LINE
8
Layer 1
10
119.252202
20
82.038433
11
120.004877
21
82.951089
0
LINE
8
Layer 1
10
120.004877
20
82.951089
11
120.644475
21
84.030049
0
LINE
8
Layer 1
10
120.644475
20
84.030049
11
121.166895
21
85.269450
0
LINE
8
Layer 1
10
121.166895
20
85.269450
11
121.568039
21
86.663432
0
LINE
8
Layer 1
10
121.568039
20
86.663432
11
121.843810
21
88.206130
0
LINE
8
Layer 1
10
121.843810
20
88.206130
11
121.976550
21
89.218660
0
LINE
8
Layer 1
10
121.976550
20
89.218660
11
121.977000
21
90.500900
0
LINE
8
Layer 1
10
121.977000
20
90.500900
11
121.780944
21
93.378852
0
LINE
8
Layer 1
10
121.780944
20
93.378852
11
121.209968
21
96.146705
0
LINE
8
Layer 1
10
121.209968
20
96.146705
11
120.289854
21
98.712230
0
LINE
8
Layer 1
10
120.289854
20
98.712230
11
119.046390
21
100.983200
0
LINE
8
Layer 1
10
119.046390
20
100.983200
11
118.487240
21
101.821150
0
LINE
8
Layer 1
10
118.487240
20
101.821150
11
117.731950
21
102.584880
0
LINE
8
Layer 1
10
117.731950
20
102.584880
11
116.976650
21
103.348620
0
LINE
8
Layer 1
10
116.976650
20
103.348620
11
116.294340
21
103.792030
0
LINE
8
Layer 1
10
116.294340
20
103.792030
11
115.013631
21
104.477715
0
LINE
8
Layer 1
10
115.013631
20
104.477715
11
113.686940
21
104.928710
0
LINE
8
Layer 1
10
113.686940
20
104.928710
11
113.082570
21
105.072160
0
LINE
8
Layer 1
10
113.082570
20
105.072160
11
112.241810
21
105.074160
0
LINE
8
Layer 1
10
112.241810
20
105.074160
11
111.401040
21
105.076160
0
LINE
8
Layer 1
10
111.401040
20
105.076160
11
110.710800
21
104.885740
0
LINE
8
Layer 1
10
110.710800
20
104.885740
11
109.333240
21
104.338854
0
LINE
8
Layer 1
10
109.333240
20
104.338854
11
108.049118
21
103.498405
0
LINE
8
Layer 1
10
108.049118
20
103.498405
11
106.876072
21
102.390826
0
LINE
8
Layer 1
10
106.876072
20
102.390826
11
105.831740
21
101.042550
0
LINE
8
Layer 1
10
105.831740
20
101.042550
11
104.933759
21
99.480011
0
LINE
8
Layer 1
10
104.933759
20
99.480011
11
104.199767
21
97.729640
0
LINE
8
Layer 1
10
104.199767
20
97.729640
11
103.647401
21
95.817872
0
LINE
8
Layer 1
10
103.647401
20
95.817872
11
103.294300
21
93.771140
0
LINE
8
Layer 1
10
103.294300
20
93.771140
11
103.190680
21
92.890040
0
LINE
8
Layer 1
10
103.190680
20
92.890040
11
103.240980
21
91.514350
0
LINE
8
Layer 1
10
103.240980
20
91.514350
11
103.417529
21
89.569261
0
LINE
8
Layer 1
10
103.417529
20
89.569261
11
103.807149
21
87.819852
0
LINE
8
Layer 1
10
103.807149
20
87.819852
11
104.425584
21
86.213713
0
LINE
8
Layer 1
10
104.425584
20
86.213713
11
105.288580
21
84.698430
0
LINE
8
Layer 1
10
105.288580
20
84.698430
11
105.850270
21
83.855030
0
LINE
8
Layer 1
10
105.850270
20
83.855030
11
106.678640
21
83.057240
0
LINE
8
Layer 1
10
106.678640
20
83.057240
11
108.033965
21
81.943423
0
LINE
8
Layer 1
10
108.033965
20
81.943423
11
109.521705
21
81.104901
0
LINE
8
Layer 1
10
109.521705
20
81.104901
11
111.199967
21
80.515464
0
LINE
8
Layer 1
10
111.199967
20
80.515464
11
113.126860
21
80.148900
0
LINE
8
Layer 1
10
113.126860
20
80.148900
11
114.542890
21
80.142900
0
LINE
8
Layer 1
10
114.542890
20
80.142900
11
115.649160
21
80.176300
0
LINE
8
Layer 1
10
115.649160
20
80.176300
11
116.357180
21
80.356850
0
LINE
8
Layer 1
10
116.357180
20
80.356850
11
116.356690
21
80.356920
0
LINE
8
Layer 1
10
113.436130
20
90.186270
11
112.078195
21
91.046437
0
LINE
8
Layer 1
10
112.078195
20
91.046437
11
110.810460
21
92.467058
0
LINE
8
Layer 1
10
110.810460
20
92.467058
11
109.746313
21
94.290394
0
LINE
8
Layer 1
10
109.746313
20
94.290394
11
108.999140
21
96.358710
0
LINE
8
Layer 1
10
108.999140
20
96.358710
11
108.777500
21
97.219010
0
LINE
8
Layer 1
10
108.777500
20
97.219010
11
108.730400
21
98.236780
0
LINE
8
Layer 1
10
108.730400
20
98.236780
11
108.683300
21
99.254550
0
LINE
8
Layer 1
10
108.683300
20
99.254550
11
108.824310
21
99.915650
0
LINE
8
Layer 1
10
108.824310
20
99.915650
11
109.087031
21
100.767968
0
LINE
8
Layer 1
10
109.087031
20
100.767968
11
109.478108
21
101.472333
0
LINE
8
Layer 1
10
109.478108
20
101.472333
11
109.993410
21
102.023025
0
LINE
8
Layer 1
10
109.993410
20
102.023025
11
110.628810
21
102.414330
0
LINE
8
Layer 1
10
110.628810
20
102.414330
11
111.046510
21
102.600720
0
LINE
8
Layer 1
10
111.046510
20
102.600720
11
111.893750
21
102.640920
0
LINE
8
Layer 1
10
111.893750
20
102.640920
11
112.740980
21
102.681120
0
LINE
8
Layer 1
10
112.740980
20
102.681120
11
113.424750
21
102.493520
0
LINE
8
Layer 1
10
113.424750
20
102.493520
11
114.672318
21
102.012370
0
LINE
8
Layer 1
10
114.672318
20
102.012370
11
115.765716
21
101.309291
0
LINE
8
Layer 1
10
115.765716
20
101.309291
11
116.666352
21
100.415196
0
LINE
8
Layer 1
10
116.666352
20
100.415196
11
117.335630
21
99.361000
0
LINE
8
Layer 1
10
117.335630
20
99.361000
11
117.625010
21
98.759510
0
LINE
8
Layer 1
10
117.625010
20
98.759510
11
117.787330
21
97.900720
0
LINE
8
Layer 1
10
117.787330
20
97.900720
11
117.949650
21
97.041930
0
LINE
8
Layer 1
10
117.949650
20
97.041930
11
117.948760
21
95.625900
0
LINE
8
Layer 1
10
117.948760
20
95.625900
11
117.947880
21
94.209870
0
LINE
8
Layer 1
10
117.947880
20
94.209870
11
117.788020
21
93.524870
0
LINE
8
Layer 1
10
117.788020
20
93.524870
11
117.429350
21
92.367101
0
LINE
8
Layer 1
10
117.429350
20
92.367101
11
116.946956
21
91.420320
0
LINE
8
Layer 1
10
116.946956
20
91.420320
11
116.350226
21
90.699042
0
LINE
8
Layer 1
10
116.350226
20
90.699042
11
115.648550
21
90.217780
0
LINE
8
Layer 1
10
115.648550
20
90.217780
11
115.206040
21
90.007760
0
LINE
8
Layer 1
10
115.206040
20
90.007760
11
114.542280
21
90.011760
0
LINE
8
Layer 1
10
114.542280
20
90.011760
11
113.878520
21
90.015760
0
LINE
8
Layer 1
10
113.878520
20
90.015760
11
113.436010
21
90.186690
0
LINE
8
Layer 1
10
113.436010
20
90.186690
11
113.436130
21
90.186270
0
LINE
8
Layer 1
10
46.925630
20
78.807670
11
45.407675
21
79.207753
0
LINE
8
Layer 1
10
45.407675
20
79.207753
11
44.042356
21
79.882147
0
LINE
8
Layer 1
10
44.042356
20
79.882147
11
42.839095
21
80.817824
0
LINE
8
Layer 1
10
42.839095
20
80.817824
11
41.807314
21
82.001756
0
LINE
8
Layer 1
10
41.807314
20
82.001756
11
40.956434
21
83.420915
0
LINE
8
Layer 1
10
40.956434
20
83.420915
11
40.295877
21
85.062272
0
LINE
8
Layer 1
10
40.295877
20
85.062272
11
39.835065
21
86.912800
0
LINE
8
Layer 1
10
39.835065
20
86.912800
11
39.583420
21
88.959470
0
LINE
8
Layer 1
10
39.583420
20
88.959470
11
39.501140
21
90.183080
0
LINE
8
Layer 1
10
39.501140
20
90.183080
11
39.585500
21
91.437640
0
LINE
8
Layer 1
10
39.585500
20
91.437640
11
39.896701
21
93.933239
0
LINE
8
Layer 1
10
39.896701
20
93.933239
11
40.471519
21
96.260759
0
LINE
8
Layer 1
10
40.471519
20
96.260759
11
41.290075
21
98.389469
0
LINE
8
Layer 1
10
41.290075
20
98.389469
11
42.332487
21
100.288635
0
LINE
8
Layer 1
10
42.332487
20
100.288635
11
43.578875
21
101.927527
0
LINE
8
Layer 1
10
43.578875
20
101.927527
11
45.009356
21
103.275413
0
LINE
8
Layer 1
10
45.009356
20
103.275413
11
46.604052
21
104.301561
0
LINE
8
Layer 1
10
46.604052
20
104.301561
11
48.343080
21
104.975240
0
LINE
8
Layer 1
10
48.343080
20
104.975240
11
49.095345
21
105.178340
0
LINE
8
Layer 1
10
49.095345
20
105.178340
11
50.732625
21
105.181340
0
LINE
8
Layer 1
10
50.732625
20
105.181340
11
52.369905
21
105.184340
0
LINE
8
Layer 1
10
52.369905
20
105.184340
11
52.981942
21
105.018400
0
LINE
8
Layer 1
10
52.981942
20
105.018400
11
54.544932
21
104.435407
0
LINE
8
Layer 1
10
54.544932
20
104.435407
11
55.922958
21
103.584136
0
LINE
8
Layer 1
10
55.922958
20
103.584136
11
57.115984
21
102.464649
0
LINE
8
Layer 1
10
57.115984
20
102.464649
11
58.123972
21
101.077006
0
LINE
8
Layer 1
10
58.123972
20
101.077006
11
58.946887
21
99.421269
0
LINE
8
Layer 1
10
58.946887
20
99.421269
11
59.584691
21
97.497498
0
LINE
8
Layer 1
10
59.584691
20
97.497498
11
60.037348
21
95.305755
0
LINE
8
Layer 1
10
60.037348
20
95.305755
11
60.304822
21
92.846100
0
LINE
8
Layer 1
10
60.304822
20
92.846100
11
60.412595
21
91.247660
0
LINE
8
Layer 1
10
60.412595
20
91.247660
11
60.305808
21
89.896820
0
LINE
8
Layer 1
10
60.305808
20
89.896820
11
60.012400
21
87.731887
0
LINE
8
Layer 1
10
60.012400
20
87.731887
11
59.493895
21
85.782087
0
LINE
8
Layer 1
10
59.493895
20
85.782087
11
58.754354
21
84.052723
0
LINE
8
Layer 1
10
58.754354
20
84.052723
11
57.797834
21
82.549092
0
LINE
8
Layer 1
10
57.797834
20
82.549092
11
56.628395
21
81.276497
0
LINE
8
Layer 1
10
56.628395
20
81.276497
11
55.250095
21
80.240236
0
LINE
8
Layer 1
10
55.250095
20
80.240236
11
53.666993
21
79.445611
0
LINE
8
Layer 1
10
53.666993
20
79.445611
11
51.883148
21
78.897920
0
LINE
8
Layer 1
10
51.883148
20
78.897920
11
51.219385
21
78.749000
0
LINE
8
Layer 1
10
51.219385
20
78.749000
11
49.449355
21
78.717200
0
LINE
8
Layer 1
10
49.449355
20
78.717200
11
47.679325
21
78.685400
0
LINE
8
Layer 1
10
47.679325
20
78.685400
11
46.925630
21
78.807670
0
LINE
8
Layer 1
10
50.933370
20
79.530510
11
52.996768
21
80.144639
0
LINE
8
Layer 1
10
52.996768
20
80.144639
11
54.853690
21
81.112970
0
LINE
8
Layer 1
10
54.853690
20
81.112970
11
55.582188
21
81.597700
0
LINE
8
Layer 1
10
55.582188
20
81.597700
11
56.365598
21
82.427090
0
LINE
8
Layer 1
10
56.365598
20
82.427090
11
57.149008
21
83.256500
0
LINE
8
Layer 1
10
57.149008
20
83.256500
11
57.586138
21
83.994290
0
LINE
8
Layer 1
10
57.586138
20
83.994290
11
58.357819
21
85.565856
0
LINE
8
Layer 1
10
58.357819
20
85.565856
11
58.897218
21
87.300134
0
LINE
8
Layer 1
10
58.897218
20
87.300134
11
59.213867
21
89.238012
0
LINE
8
Layer 1
10
59.213867
20
89.238012
11
59.317298
21
91.420380
0
LINE
8
Layer 1
10
59.317298
20
91.420380
11
59.317400
21
92.972100
0
LINE
8
Layer 1
10
59.317400
20
92.972100
11
59.184007
21
94.122080
0
LINE
8
Layer 1
10
59.184007
20
94.122080
11
58.567235
21
97.570293
0
LINE
8
Layer 1
10
58.567235
20
97.570293
11
58.121989
21
98.968794
0
LINE
8
Layer 1
10
58.121989
20
98.968794
11
57.571898
21
100.175299
0
LINE
8
Layer 1
10
57.571898
20
100.175299
11
56.906759
21
101.208613
0
LINE
8
Layer 1
10
56.906759
20
101.208613
11
56.116369
21
102.087543
0
LINE
8
Layer 1
10
56.116369
20
102.087543
11
55.190526
21
102.830893
0
LINE
8
Layer 1
10
55.190526
20
102.830893
11
54.119027
21
103.457470
0
LINE
8
Layer 1
10
54.119027
20
103.457470
11
53.390994
21
103.821860
0
LINE
8
Layer 1
10
53.390994
20
103.821860
11
52.526494
21
104.043980
0
LINE
8
Layer 1
10
52.526494
20
104.043980
11
51.661995
21
104.266110
0
LINE
8
Layer 1
10
51.661995
20
104.266110
11
50.555725
21
104.267070
0
LINE
8
Layer 1
10
50.555725
20
104.267070
11
49.449455
21
104.268040
0
LINE
8
Layer 1
10
49.449455
20
104.268040
11
48.564437
21
104.040600
0
LINE
8
Layer 1
10
48.564437
20
104.040600
11
47.679420
21
103.813160
0
LINE
8
Layer 1
10
47.679420
20
103.813160
11
46.858637
21
103.417330
0
LINE
8
Layer 1
10
46.858637
20
103.417330
11
45.662479
21
102.733875
0
LINE
8
Layer 1
10
45.662479
20
102.733875
11
44.595881
21
101.896319
0
LINE
8
Layer 1
10
44.595881
20
101.896319
11
43.654523
21
100.897548
0
LINE
8
Layer 1
10
43.654523
20
100.897548
11
42.834084
21
99.730450
0
LINE
8
Layer 1
10
42.834084
20
99.730450
11
42.130246
21
98.387912
0
LINE
8
Layer 1
10
42.130246
20
98.387912
11
41.538686
21
96.862821
0
LINE
8
Layer 1
10
41.538686
20
96.862821
11
40.675127
21
93.236530
0
LINE
8
Layer 1
10
40.675127
20
93.236530
11
40.515681
21
92.263010
0
LINE
8
Layer 1
10
40.515681
20
92.263010
11
40.517181
21
90.492980
0
LINE
8
Layer 1
10
40.517181
20
90.492980
11
40.518681
21
88.722940
0
LINE
8
Layer 1
10
40.518681
20
88.722940
11
40.679312
21
87.837920
0
LINE
8
Layer 1
10
40.679312
20
87.837920
11
41.223965
21
85.709794
0
LINE
8
Layer 1
10
41.223965
20
85.709794
11
42.022903
21
83.857626
0
LINE
8
Layer 1
10
42.022903
20
83.857626
11
43.054284
21
82.299110
0
LINE
8
Layer 1
10
43.054284
20
82.299110
11
44.296267
21
81.051940
0
LINE
8
Layer 1
10
44.296267
20
81.051940
11
45.727012
21
80.133810
0
LINE
8
Layer 1
10
45.727012
20
80.133810
11
47.324679
21
79.562414
0
LINE
8
Layer 1
10
47.324679
20
79.562414
11
49.067425
21
79.355446
0
LINE
8
Layer 1
10
49.067425
20
79.355446
11
50.933412
21
79.530600
0
LINE
8
Layer 1
10
50.933412
20
79.530600
11
50.933370
21
79.530510
0
LINE
8
Layer 1
10
50.068869
20
89.774810
11
49.151655
21
90.140840
0
LINE
8
Layer 1
10
49.151655
20
90.140840
11
48.676951
21
90.399250
0
LINE
8
Layer 1
10
48.676951
20
90.399250
11
48.146853
21
90.977100
0
LINE
8
Layer 1
10
48.146853
20
90.977100
11
47.616755
21
91.554940
0
LINE
8
Layer 1
10
47.616755
20
91.554940
11
47.141179
21
92.528460
0
LINE
8
Layer 1
10
47.141179
20
92.528460
11
46.665602
21
93.501980
0
LINE
8
Layer 1
10
46.665602
20
93.501980
11
46.423014
21
94.475490
0
LINE
8
Layer 1
10
46.423014
20
94.475490
11
46.180424
21
95.449010
0
LINE
8
Layer 1
10
46.180424
20
95.449010
11
46.184124
21
96.997790
0
LINE
8
Layer 1
10
46.184124
20
96.997790
11
46.187824
21
98.546580
0
LINE
8
Layer 1
10
46.187824
20
98.546580
11
46.374655
21
99.223980
0
LINE
8
Layer 1
10
46.374655
20
99.223980
11
46.941877
21
100.626753
0
LINE
8
Layer 1
10
46.941877
20
100.626753
11
47.771566
21
101.584527
0
LINE
8
Layer 1
10
47.771566
20
101.584527
11
48.910388
21
102.133008
0
LINE
8
Layer 1
10
48.910388
20
102.133008
11
50.405005
21
102.307900
0
LINE
8
Layer 1
10
50.405005
20
102.307900
11
50.969900
21
102.308000
0
LINE
8
Layer 1
10
50.969900
20
102.308000
11
51.653480
21
102.133170
0
LINE
8
Layer 1
10
51.653480
20
102.133170
11
52.628006
21
101.775296
0
LINE
8
Layer 1
10
52.628006
20
101.775296
11
53.511033
21
101.233707
0
LINE
8
Layer 1
10
53.511033
20
101.233707
11
54.290612
21
100.526685
0
LINE
8
Layer 1
10
54.290612
20
100.526685
11
54.954791
21
99.672510
0
LINE
8
Layer 1
10
54.954791
20
99.672510
11
55.491621
21
98.689462
0
LINE
8
Layer 1
10
55.491621
20
98.689462
11
55.889151
21
97.595823
0
LINE
8
Layer 1
10
55.889151
20
97.595823
11
56.135431
21
96.409872
0
LINE
8
Layer 1
10
56.135431
20
96.409872
11
56.218510
21
95.149890
0
LINE
8
Layer 1
10
56.218510
20
95.149890
11
56.072320
21
93.950835
0
LINE
8
Layer 1
10
56.072320
20
93.950835
11
55.665925
21
92.830433
0
LINE
8
Layer 1
10
55.665925
20
92.830433
11
55.040497
21
91.824667
0
LINE
8
Layer 1
10
55.040497
20
91.824667
11
54.237211
21
90.969525
0
LINE
8
Layer 1
10
54.237211
20
90.969525
11
53.297240
21
90.300992
0
LINE
8
Layer 1
10
53.297240
20
90.300992
11
52.261757
21
89.855055
0
LINE
8
Layer 1
10
52.261757
20
89.855055
11
51.171936
21
89.667699
0
LINE
8
Layer 1
10
51.171936
20
89.667699
11
50.068950
21
89.774910
0
LINE
8
Layer 1
10
50.068950
20
89.774910
11
50.068869
21
89.774810
 0 
ENDSEC
 0 
EOF