<?xml version="1.0" encoding="UTF-8" standalone="no"?>
<!-- Created with Inkscape (http://www.inkscape.org/) -->

<svg
   width="181.29402mm"
   height="188.06621mm"
   viewBox="0 0 181.29402 188.06621"
   version="1.1"
   id="svg5"
   xml:space="preserve"
   inkscape:version="1.2.1 (9c6d41e410, 2022-07-14, custom)"
   sodipodi:docname="a3.svg"
   xmlns:inkscape="http://www.inkscape.org/namespaces/inkscape"
   xmlns:sodipodi="http://sodipodi.sourceforge.net/DTD/sodipodi-0.dtd"
   xmlns="http://www.w3.org/2000/svg"
   xmlns:svg="http://www.w3.org/2000/svg"><sodipodi:namedview
     id="namedview7"
     pagecolor="#ffffff"
     bordercolor="#666666"
     borderopacity="1.0"
     inkscape:showpageshadow="2"
     inkscape:pageopacity="0.0"
     inkscape:pagecheckerboard="0"
     inkscape:deskcolor="#d1d1d1"
     inkscape:document-units="mm"
     showgrid="false"
     inkscape:zoom="0.76765115"
     inkscape:cx="260.53501"
     inkscape:cy="463.10098"
     inkscape:window-width="1594"
     inkscape:window-height="1372"
     inkscape:window-x="2882"
     inkscape:window-y="36"
     inkscape:window-maximized="0"
     inkscape:current-layer="layer1" /><defs
     id="defs2" /><g
     inkscape:label="Layer 1"
     inkscape:groupmode="layer"
     id="layer1"
     transform="translate(-21.318471,-38.725899)"><path
       style="fill:#000000;stroke-width:0.0885017"
       d="m 137.16635,226.73278 -0.15487,-0.0421 v -0.16227 -0.16228 l 0.4348,-0.36403 0.43479,-0.36403 0.14023,-0.41154 c 0.0771,-0.22635 0.49386,-1.03201 0.92609,-1.79037 1.76994,-3.10545 1.99527,-3.79425 2.1383,-6.5363 0.0819,-1.57058 0.16289,-2.06453 0.38813,-2.36793 l 0.12938,-0.17427 0.16006,0.0975 0.16006,0.0975 0.0606,0.43353 c 0.0333,0.23845 0.10352,0.87162 0.15604,1.40705 0.11274,1.14927 0.35952,2.37125 0.61853,3.06272 l 0.18586,0.49617 0.36588,0.16499 0.36589,0.165 0.63386,-0.01 0.63386,-0.01 0.68385,-0.18761 c 0.95205,-0.26119 1.74185,-0.68201 2.63833,-1.40577 0.42187,-0.34059 0.81496,-0.63522 0.87354,-0.65475 l 0.10651,-0.0355 -0.27866,-0.55202 c -0.15327,-0.30362 -0.39701,-0.90528 -0.54166,-1.33703 l -0.26301,-0.78502 v -0.41608 -0.41607 l 0.14494,-0.30543 0.14493,-0.30542 0.35918,-0.18323 0.35918,-0.18325 0.60841,0.0435 0.60841,0.0435 0.72389,0.35882 0.72389,0.35883 0.55547,0.50284 c 0.63894,0.57843 1.24623,1.39211 1.57508,2.11042 l 0.22826,0.49857 0.0154,0.5137 0.0154,0.51369 0.16131,-0.20453 0.1613,-0.20451 h 0.21156 c 0.11635,0 0.42077,0.0825 0.67649,0.18326 l 0.46493,0.18326 0.31273,-0.0552 c 0.6851,-0.12099 0.78209,-0.23955 0.27836,-0.3403 l -0.25932,-0.0519 -0.42841,-0.4288 -0.42842,-0.42881 -0.28017,-0.57561 c -0.33706,-0.6925 -0.52877,-1.33268 -0.64187,-2.14329 l -0.0843,-0.60408 0.0804,-0.49403 0.0804,-0.49401 0.2335,-0.33695 0.2335,-0.33695 0.37849,-0.18322 0.37848,-0.18322 0.65285,-0.003 c 0.81004,-0.004 1.31362,0.11669 2.33174,0.55995 1.0026,0.43648 1.87907,0.77719 1.99934,0.77719 h 0.0925 l -0.16728,-0.24338 c -0.092,-0.13386 -0.27948,-0.46242 -0.41662,-0.73014 -0.70584,-1.37793 -2.14279,-3.17932 -4.06402,-5.09474 l -1.51501,-1.51042 -1.06404,-0.80569 c -0.58522,-0.44314 -1.13483,-0.88391 -1.22134,-0.97951 l -0.1573,-0.17381 0.35654,-1.3599 c 0.85841,-3.27422 1.22967,-5.88452 1.30849,-9.20014 l 0.0496,-2.08765 -0.10535,-1.00621 -0.10536,-1.00621 -0.39787,-1.5525 c -1.10883,-4.32666 -2.5988,-7.83404 -5.42654,-12.77414 -1.30172,-2.2741 -2.22003,-3.70754 -2.50148,-3.90467 l -0.19008,-0.13314 -0.56922,0.53247 c -0.31307,0.29286 -0.84097,0.71318 -1.17311,0.93404 l -0.6039,0.40156 -0.29145,0.0138 -0.29145,0.0138 -0.029,-0.14017 c -0.0159,-0.0771 0.20619,-0.49526 0.49365,-0.92927 0.28744,-0.434 0.63489,-1.00814 0.7721,-1.27586 l 0.24949,-0.48676 0.003,-0.44662 0.003,-0.44662 -0.25584,-0.43656 c -0.14072,-0.24011 -0.6975,-0.89539 -1.2373,-1.45617 -2.29548,-2.3847 -3.19738,-4.01347 -3.64534,-6.5832 l -0.14094,-0.80853 0.0452,-1.28327 0.0452,-1.28328 0.14363,-0.65625 c 0.83799,-3.82874 3.90625,-7.81506 6.82996,-8.87355 l 0.52285,-0.18929 0.81307,-0.0405 0.81307,-0.0405 0.60664,0.18426 c 1.61352,0.4901 2.94427,1.86132 4.32485,4.45635 l 0.57903,1.08838 -0.0474,-1.99129 c -0.0261,-1.09521 -0.14559,-3.10641 -0.2656,-4.46933 -0.12,-1.36293 -0.26612,-3.39245 -0.32471,-4.51004 l -0.10651,-2.032 0.10601,-0.41362 0.106,-0.41362 -0.0911,-1.22721 c -0.0501,-0.67497 -0.11507,-1.6852 -0.14441,-2.24498 -0.23209,-4.42926 -0.83889,-7.18048 -2.2838,-10.3547 l -0.46329,-1.01777 -0.35701,0.0282 -0.35701,0.0282 -0.30484,-0.33795 c -0.16759,-0.18591 -0.67711,-0.95529 -1.13221,-1.70977 -4.37992,-7.26124 -10.14771,-14.02331 -12.53036,-14.69041 l -0.39419,-0.11037 -0.24044,0.0603 -0.24043,0.0603 -0.6339,0.63604 c -1.39774,1.40244 -3.30938,4.27036 -6.67711,10.01722 -2.64526,4.514 -5.03335,7.80621 -8.53185,11.76193 -1.48585,1.68005 -2.69594,3.10385 -4.21943,4.9646 -1.81203,2.21318 -2.69834,3.05361 -3.22031,3.05361 h -0.2236 l -0.14763,-0.2253 -0.14763,-0.22532 0.0524,-0.77033 c 0.0622,-0.9143 0.30918,-2.14588 1.07757,-5.37428 0.31338,-1.31665 0.69226,-2.9899 0.84196,-3.71833 l 0.27217,-1.32442 0.0535,-0.93211 0.0535,-0.93212 -0.15171,-0.29337 -0.1517,-0.29337 -0.32518,0.0604 c -1.22184,0.22695 -5.00589,2.10728 -9.20836,4.57573 -2.77653,1.63087 -3.87247,2.21615 -4.613318,2.46371 l -0.575262,0.19222 -1.150522,0.002 -1.150523,0.002 -0.324998,-0.13629 c -0.178748,-0.075 -0.392925,-0.23995 -0.475948,-0.36667 l -0.150951,-0.23038 0.04646,-0.4122 0.04646,-0.41219 0.53651,-1.06848 c 0.29508,-0.58766 1.182127,-2.10394 1.971215,-3.36951 3.445887,-5.52667 5.439107,-8.89043 8.133237,-13.72568 1.08244,-1.94269 2.65678,-4.73239 3.49854,-6.19933 4.64235,-8.090326 4.91027,-9.090976 2.65959,-9.933065 -1.62462,-0.607811 -7.67687,-1.257131 -14.214332,-1.524959 l -2.5223,-0.103335 -3.717073,0.05193 -3.717073,0.05193 -1.902787,0.137262 c -6.267451,0.452118 -8.359157,0.863762 -12.700001,2.499339 l -2.212543,0.833659 -1.50453,0.732593 c -0.827491,0.402926 -2.201481,1.131553 -3.05331,1.619172 -0.851829,0.487619 -2.024491,1.141394 -2.605915,1.452824 l -1.057135,0.56624 -0.459387,0.44707 c -0.542918,0.52837 -0.904696,1.07684 -1.734366,2.6294 -0.337827,0.63217 -0.839341,1.51283 -1.114476,1.95702 -0.710023,1.1463 -1.488757,2.71958 -1.615611,3.26403 -0.148954,0.6393 -0.775672,2.37031 -1.545871,4.26973 -1.066835,2.63096 -1.381571,3.69206 -2.336319,7.87665 -1.445015,6.33339 -1.483154,6.74137 -1.555402,16.63833 -0.07167,9.81803 -0.114847,10.94967 -0.58165,15.24512 -0.144189,1.32679 -0.262161,2.60912 -0.262161,2.84961 v 0.43725 l 0.2242,0.69046 c 0.123309,0.37975 0.337796,0.92941 0.476635,1.22146 l 0.252436,0.53101 -0.008,-2.6108 -0.008,-2.6108 0.158527,-0.70801 c 0.37254,-1.66385 1.436522,-3.3195 2.8868,-4.4921 l 0.663763,-0.53669 0.708014,-0.33792 c 0.389407,-0.18587 0.966881,-0.40398 1.283275,-0.4847 l 0.575261,-0.14677 0.840767,-0.002 c 1.480092,-0.004 2.727512,0.38784 4.092181,1.28393 l 0.817079,0.53653 0.75698,0.76494 0.75698,0.76496 0.554236,0.82859 c 2.945821,4.40405 3.124922,10.05931 0.443682,14.00959 l -0.557523,0.82141 -0.887382,0.88574 -0.887383,0.88573 -0.423678,0.20627 -0.423678,0.20626 -0.735383,0.067 c -1.360794,0.12404 -1.284816,0.445 0.59091,2.4963 4.487321,4.90734 9.016088,7.52055 17.895662,10.32623 9.166526,2.89635 12.952416,3.73827 19.426131,4.32 l 1.63729,0.14714 2.30104,0.004 2.30105,0.004 0.82635,-0.10814 c 7.8877,-1.03213 25.87748,-7.78701 32.44914,-12.18413 1.07655,-0.72031 1.35197,-0.86674 1.51368,-0.80468 l 0.12476,0.0479 v 0.2182 0.21819 l -0.47313,0.62894 c -3.26093,4.33469 -7.27826,6.62943 -17.66972,10.0931 -6.77512,2.25828 -12.25418,3.39125 -18.01011,3.72415 l -1.77003,0.10237 -1.99129,-0.0556 c -7.00907,-0.19582 -13.405883,-1.59065 -24.849794,-5.4185 -3.248173,-1.08647 -4.664458,-1.63531 -8.072858,-3.12833 -0.559774,-0.2452 -1.129101,-0.44616 -1.265173,-0.44656 l -0.247403,-8.9e-4 -0.206797,0.20679 -0.206798,0.20681 -0.104243,0.47908 c -0.157841,0.72542 -0.265471,3.64547 -0.268842,7.29373 -0.0074,7.96281 -0.435922,15.30801 -1.071481,18.36411 -0.313653,1.50822 -0.551919,3.07191 -0.748437,4.91185 l -0.14179,1.32753 -0.04924,2.88546 -0.04924,2.88545 0.106316,1.05287 c 0.207785,2.05776 0.360597,2.555 1.191258,3.87631 0.272427,0.43334 0.495322,0.83156 0.495322,0.88494 0,0.0534 0.243438,0.60428 0.540973,1.22423 l 0.540973,1.12719 -0.04966,0.1294 c -0.07192,0.18742 -0.698001,0.33045 -1.515475,0.34621 l -0.711589,0.0137 0.02871,-0.46733 0.02871,-0.46733 -0.19063,-0.39379 -0.19063,-0.39379 -0.631686,-0.58485 -0.631688,-0.58484 -0.903195,-0.44115 -0.903196,-0.44115 -0.869753,-0.16544 c -0.478363,-0.091 -1.383454,-0.24719 -2.011312,-0.3471 l -1.14156,-0.18165 -0.460289,-0.21072 -0.460289,-0.21073 -0.610695,-0.5703 c -0.803244,-0.74994 -0.987823,-0.86753 -1.362106,-0.86753 h -0.313771 l -0.352426,0.23816 c -0.193834,0.13099 -0.549197,0.39303 -0.789696,0.58233 -0.240498,0.18929 -0.636264,0.44501 -0.87948,0.56826 l -0.442209,0.22407 -0.497939,0.0452 -0.497938,0.0452 -0.304115,-0.15598 c -0.167263,-0.0858 -0.559585,-0.39413 -0.871827,-0.68517 -0.91261,-0.85066 -1.258296,-0.9301 -2.216816,-0.5094 -2.707017,1.18811 -5.418886,0.2714 -5.833597,-1.97198 l -0.09382,-0.50752 0.09049,-0.23799 0.09049,-0.238 -0.176488,-0.13669 -0.176488,-0.1367 -0.05712,-0.84077 -0.05712,-0.84077 0.08653,-0.53101 0.08653,-0.53101 -0.09225,-0.0577 -0.09225,-0.0577 0.0558,-0.47329 0.0558,-0.47328 0.430827,-0.88501 c 2.462644,-5.05885 7.262737,-9.3425 10.8125,-9.64918 l 0.663763,-0.0573 0.749839,0.1032 c 0.412412,0.0568 1.298091,0.2789 1.968175,0.49363 2.759329,0.88424 6.908813,1.22396 7.420417,0.60752 0.478835,-0.57696 0.990674,-10.76132 1.000468,-19.9069 l 0.0055,-5.1331 -0.113838,-1.04754 c -0.222532,-2.04773 -0.128051,-1.92531 -6.295225,-8.15664 -5.383872,-5.43987 -6.613809,-6.78658 -7.70748,-8.43918 l -0.606549,-0.91653 -0.278915,-0.72075 c -0.153403,-0.39641 -0.338598,-1.05927 -0.411543,-1.47302 l -0.132627,-0.75226 0.0495,-1.41603 c 0.02723,-0.77881 0.150046,-2.31211 0.272931,-3.40732 0.334878,-2.98458 0.40151,-4.56715 0.491862,-11.68223 0.111114,-8.75 0.214598,-11.92276 0.414951,-12.72212 l 0.04991,-0.19913 h 0.154578 0.154579 l 0.109668,-1.21627 c 0.06032,-0.66894 0.160996,-1.53516 0.223729,-1.92491 l 0.11406,-0.70865 -0.06992,-0.13369 c -0.08998,-0.17204 -0.06184,-0.32987 0.417341,-2.34108 l 0.399855,-1.67826 -0.03684,-0.50931 -0.03684,-0.50931 -0.413258,-0.82149 c -0.484472,-0.96306 -0.995549,-1.69428 -5.181453,-7.41335 -5.351886,-7.31212 -6.900637,-9.54112 -9.809129,-14.117553 C 28.01705,83.767478 23.103013,71.811904 21.670508,61.338095 l -0.193671,-1.416028 -0.0022,-2.920557 -0.0022,-2.920558 0.159286,-0.738603 c 0.315085,-1.461027 0.722242,-2.212174 1.421107,-2.621736 l 0.393084,-0.230363 0.50315,-0.08189 0.50315,-0.08189 0.712943,0.0894 c 1.277972,0.160245 3.401636,0.948102 5.813961,2.15692 l 1.134403,0.56845 0.04616,0.176511 0.04616,0.176512 -0.127158,0.04879 c -0.124928,0.04794 -0.660571,-0.155703 -2.508334,-0.953626 -0.511097,-0.220709 -1.327526,-0.505975 -1.814286,-0.633923 l -0.885017,-0.232636 -1.019876,-0.04996 -1.019876,-0.04996 -0.508811,0.147916 -0.508811,0.147915 -0.266714,0.240317 -0.266714,0.240317 -0.132164,0.486759 -0.132164,0.48676 -0.0736,1.327526 -0.0736,1.327526 0.07245,1.649741 c 0.237483,5.407928 1.18472,10.686773 2.633973,14.678831 1.804433,4.970423 5.498907,13.086406 7.372495,16.19582 0.366623,0.608449 0.725142,1.218723 0.796708,1.356163 l 0.13012,0.249891 0.10615,-0.127904 c 0.231044,-0.27839 0.571846,-1.541594 1.032614,-3.82744 0.501832,-2.489568 0.829735,-3.67659 1.099043,-3.978585 0.229772,-0.257661 0.278473,-0.438288 0.367583,-1.363333 0.247858,-2.573006 1.865949,-6.298929 3.923984,-9.035622 0.347748,-0.462422 0.683913,-0.980157 0.747033,-1.150523 0.333832,-0.901046 0.679139,-1.2372 1.640293,-1.596814 0.835904,-0.312752 1.731661,-1.080546 2.11294,-1.811098 0.174915,-0.335147 0.520964,-0.658642 1.07853,-1.008236 l 0.43771,-0.274444 h 0.427706 0.427705 l 0.516987,0.260974 c 0.933538,0.471248 1.869854,1.310639 5.186328,4.649455 3.464766,3.488106 3.739407,3.736248 4.268006,3.856201 l 0.334085,0.07581 0.427194,-0.416519 c 0.234957,-0.229084 0.709529,-0.794862 1.054604,-1.257284 0.345074,-0.462421 1.028117,-1.258937 1.517874,-1.770035 l 0.890464,-0.929268 -1.066829,1.04533 -1.066829,1.045331 -0.106738,-0.128612 -0.106738,-0.128611 0.737014,-1.096693 0.737014,-1.096693 0.155452,-0.494222 0.155452,-0.494222 0.467227,-0.564829 c 0.615389,-0.74394 1.993824,-2.12196 3.442494,-3.44146 2.423911,-2.207784 3.192244,-3.33179 6.000699,-8.778513 2.901189,-5.626572 5.129037,-8.7645 8.725984,-12.290563 4.681995,-4.589729 6.089581,-5.103908 14.409878,-5.263804 l 2.832056,-0.05442 2.787805,0.09501 2.787804,0.09501 1.01777,0.134849 c 1.39262,0.184513 2.40909,0.391609 5.70837,1.163021 5.66435,1.324397 7.24794,1.574247 10.84146,1.710502 2.37424,0.09002 2.58873,0.126781 3.07397,0.526755 0.4013,0.330786 0.5008,0.333996 1.1989,0.03868 l 0.55047,-0.232865 1.10628,0.05273 c 2.51675,0.11996 7.34421,1.180311 10.75296,2.361888 7.55648,2.619305 12.8154,10.98406 18.22127,28.982474 1.6539,5.506548 2.30429,6.770383 3.48413,6.770383 h 0.34103 l 0.43776,-0.220586 c 0.91963,-0.463399 1.69138,-1.126167 5.65936,-4.860205 13.10516,-12.332502 22.9662,-20.700265 22.9662,-19.488385 v 0.211312 l -0.99564,0.835562 c -0.5476,0.459561 -1.8519,1.526248 -2.89843,2.370418 -4.48959,3.621457 -6.23152,5.277557 -6.72539,6.394041 l -0.17292,0.390919 0.0533,0.449658 0.0533,0.449658 1.75907,0.902055 c 5.76736,2.957536 7.62267,5.686814 8.75234,12.875309 0.15299,0.97352 0.43187,2.427161 0.61973,3.230314 0.18787,0.803153 0.54702,2.355945 0.79812,3.450649 0.25111,1.094703 0.51524,2.137042 0.58696,2.316307 l 0.13042,0.325938 0.35831,0.143367 0.35831,0.143367 0.13739,-0.20288 c 0.49397,-0.729419 1.19626,-1.214605 1.31399,-0.907787 l 0.0521,0.135861 -0.33695,0.550028 c -2.01529,3.2897 -5.67271,8.415854 -10.52713,14.754559 -1.77172,2.31344 -2.81658,4.06099 -3.28072,5.48711 l -0.24484,0.75226 0.001,1.01777 0.001,1.01777 0.24531,0.79652 c 0.5621,1.82514 1.03007,4.5794 2.79064,16.42419 2.32187,15.62118 4.66207,27.09698 6.47014,31.72799 l 0.34836,0.89226 0.30886,0.36084 c 0.16988,0.19846 0.30887,0.40429 0.30887,0.4574 v 0.0966 h 0.43282 c 1.33538,0 4.35625,1.24253 6.24035,2.56675 2.34739,1.64985 4.01575,4.2779 4.52289,7.12458 l 0.14183,0.79613 0.004,1.19477 0.004,1.19478 -0.15022,0.88502 c -0.30271,1.78343 -1.01314,3.55697 -2.05355,5.12652 l -0.59102,0.89159 -1.02292,1.02624 -1.02292,1.02624 -0.89634,0.59085 c -1.60543,1.05828 -3.27786,1.65273 -5.17839,1.84059 l -1.03014,0.10183 -1.01103,-0.10249 c -5.98169,-0.60645 -10.44729,-5.06622 -11.04677,-11.03238 l -0.0978,-0.97352 0.055,-0.75227 c 0.3479,-4.75639 3.63239,-9.39662 7.52013,-10.62419 l 0.3509,-0.1108 -0.19603,-0.0725 -0.19601,-0.0725 v -0.15057 c 0,-0.30553 -1.44725,-2.57212 -2.33741,-3.66071 -1.00935,-1.23434 -1.8331,-2.34995 -3.43084,-4.64634 -0.94826,-1.36293 -4.29248,-6.08228 -7.43158,-10.48746 -3.13911,-4.40517 -6.10214,-8.56697 -6.58452,-9.24843 -1.02769,-1.45181 -1.36548,-1.84379 -1.71286,-1.98768 l -0.25488,-0.10557 -0.34398,0.17548 -0.34398,0.17549 -2.34287,2.37788 c -2.4494,2.48603 -3.2987,3.45745 -3.68866,4.21905 l -0.2332,0.45546 -0.0385,0.70801 -0.0385,0.70801 0.23101,2.07979 c 0.38516,3.46766 0.50083,4.98799 0.55555,7.3014 l 0.0523,2.21254 -0.10218,1.21193 c -0.40389,4.78998 -1.64689,7.23628 -5.7024,11.22257 -0.96566,0.94918 -1.93555,1.96373 -2.15531,2.25454 l -0.39956,0.52877 0.0466,0.2869 c 0.062,0.38203 0.752,1.74464 1.62722,3.21341 2.7654,4.64084 4.5067,8.34094 5.3728,11.41673 0.7898,2.80486 0.96097,3.8849 1.11675,7.04661 l 0.0921,1.86926 -0.0927,1.63338 c -0.0993,1.74945 -0.13319,1.99195 -0.55425,3.96503 l -0.27385,1.28328 -0.008,1.10627 -0.008,1.10627 0.25383,0.48676 c 0.36315,0.69637 0.69174,1.08194 2.48893,2.92056 1.86937,1.91245 2.78425,2.98676 4.06029,4.76788 0.51008,0.71197 1.13239,1.50858 1.38292,1.77026 0.25053,0.26168 0.67914,0.77291 0.95248,1.13607 l 0.49698,0.6603 -0.10239,0.16396 -0.1024,0.16396 0.17858,0.40371 c 0.0982,0.22205 0.20213,0.60251 0.2309,0.84547 0.0288,0.24296 0.10655,0.48675 0.17283,0.54176 l 0.1205,0.10001 v 0.43607 c 0,0.44898 -0.14744,0.83863 -0.39513,1.04419 -0.0777,0.0645 -0.45429,0.5614 -0.83684,1.10421 -0.75321,1.06879 -1.16712,1.48581 -1.72705,1.74014 l -0.3598,0.16342 -0.56039,0.002 -0.5604,0.002 -0.67862,-0.23438 -0.67863,-0.23439 -0.70802,0.003 c -0.38941,0.002 -1.52444,0.0867 -2.5223,0.18873 -0.99785,0.102 -2.54031,0.22527 -3.42767,0.27392 l -1.61339,0.0884 -0.6434,0.14627 c -0.35388,0.0805 -0.98193,0.27676 -1.39568,0.43624 -1.03068,0.39731 -1.86311,0.55361 -3.79383,0.71235 -1.9768,0.16255 -2.69788,0.29961 -3.30791,0.62877 l -0.45886,0.24759 -0.28741,0.3786 -0.28742,0.3786 -0.27168,0.84812 c -0.42957,1.34104 -0.48775,1.41755 -1.04165,1.36971 l -0.20033,-0.0173 -0.19793,0.22146 c -0.20375,0.22798 -0.52324,0.33134 -0.79531,0.2573 z m -75.252885,-6.26105 c 0.588047,-0.24571 0.651664,-0.60955 0.756626,-4.32733 0.04698,-1.66419 0.148653,-4.02146 0.225932,-5.23835 l 0.140507,-2.21255 -0.05697,-0.5272 c -0.150214,-1.38999 -0.444475,-1.55739 -3.433553,-1.95334 -1.559109,-0.20653 -3.252213,-0.51824 -5.283658,-0.97275 l -0.663763,-0.14852 -0.708014,0.048 c -2.275389,0.1544 -4.576677,1.72375 -6.774989,4.62018 -0.743427,0.97952 -1.700311,2.34091 -1.645363,2.34091 0.01955,0 0.249446,-0.0977 0.510877,-0.21709 0.689984,-0.31511 1.447574,-0.49092 2.11544,-0.49092 h 0.585152 l 0.396855,0.13522 c 0.21827,0.0744 0.54144,0.2544 0.718154,0.40006 l 0.321299,0.26484 0.234819,0.47996 0.234819,0.47995 0.04836,0.5333 0.04836,0.53331 -0.108343,0.55584 c -0.151906,0.77935 -0.557445,1.71133 -1.065689,2.4491 -0.238336,0.34598 -0.415713,0.62904 -0.394171,0.62904 0.02154,0 0.233191,-0.13939 0.470328,-0.30975 l 0.431157,-0.30976 h 0.303533 0.303533 l 0.116115,-0.33188 c 0.46282,-1.32284 2.197203,-3.02342 3.493685,-3.4256 l 0.166925,-0.0518 -0.1448,-0.16 -0.144799,-0.16 v -0.35545 -0.35544 l 0.168635,-0.15261 c 0.668227,-0.60474 2.133434,-0.52147 2.727381,0.155 l 0.282449,0.32169 0.136551,0.45982 0.136552,0.45981 v 1.34156 1.34156 l 0.17483,0.68358 c 0.09616,0.37596 0.302921,0.9239 0.459475,1.21762 l 0.284645,0.53405 0.515812,0.51104 0.515812,0.51103 0.573537,0.28236 c 0.977892,0.48141 2.22423,0.66288 2.825963,0.41146 z m 52.579605,-90.16104 c 1.45788,-1.55199 11.34102,-14.94501 14.4355,-19.56209 l 1.34648,-2.00902 0.5379,-1.08854 0.53791,-1.08855 0.17751,-0.75227 c 0.0976,-0.41374 0.21872,-0.97925 0.2691,-1.25668 l 0.0916,-0.50441 0.20651,-0.3043 0.20651,-0.30431 -0.23061,-0.10507 c -0.44526,-0.20287 -1.73602,-1.08766 -2.57549,-1.76545 -1.97188,-1.592074 -4.45828,-3.091137 -6.97848,-4.207367 -1.06472,-0.471577 -0.97432,-0.453361 -1.00981,-0.203456 l -0.0283,0.199129 -0.44251,0.02871 c -0.24338,0.01579 -0.80687,-0.03949 -1.2522,-0.12284 l -0.8097,-0.15155 -0.65058,0.04276 -0.65059,0.04276 -0.57526,0.288539 -0.57526,0.288539 -0.92927,0.944809 -0.92926,0.944809 -0.83124,1.155278 c -1.55634,2.16305 -3.26659,4.92749 -7.57693,12.24725 -2.11564,3.59276 -3.68425,6.12577 -4.38966,7.08849 -0.83227,1.13586 -1.10777,1.61502 -1.32902,2.31145 -0.10379,0.32671 -0.46308,1.16305 -0.798415,1.85853 l -0.609711,1.26452 0.129943,0.0278 c 0.212183,0.0454 1.453533,-0.53232 3.944053,-1.83548 7.39379,-3.86879 11.64523,-6.72868 14.69331,-9.88401 0.95271,-0.98625 1.02466,-1.07129 2.2945,-2.71197 l 0.73635,-0.95139 h 0.16787 c 0.48554,0 0.0677,1.15653 -2.27041,6.28362 -2.46685,5.4095 -5.08923,12.69541 -5.0898,14.14127 v 0.29075 l 0.15698,-0.084 c 0.0863,-0.0462 0.35659,-0.29651 0.60057,-0.55624 z m 56.03427,-16.3563 c 1.3107,-1.14584 2.71664,-2.75276 4.60897,-5.26786 0.73246,-0.97352 1.73657,-2.22803 2.23136,-2.78781 3.79042,-4.28828 8.48372,-10.125819 10.12423,-12.592531 l 0.51711,-0.777552 0.17385,-0.549974 0.17386,-0.549974 0.0493,-0.849541 0.0493,-0.84954 -0.10857,-0.742508 c -0.0597,-0.40838 -0.34126,-1.83816 -0.62566,-3.17729 -0.2844,-1.339129 -0.66223,-3.251209 -0.83963,-4.249066 -0.69986,-3.936891 -1.50526,-6.258295 -2.92554,-8.432276 l -0.59101,-0.904658 -0.94063,-0.941458 -0.94062,-0.941457 -0.83315,-0.537674 c -1.38931,-0.896598 -3.35218,-1.650692 -4.57629,-1.758115 l -0.54183,-0.04755 -0.54523,0.2906 c -0.964,0.513809 -2.827,2.169184 -9.25499,8.223571 -6.58828,6.20536 -7.48022,7.159876 -7.48022,8.005026 0,0.436576 0.74797,3.897125 1.85741,8.593468 0.69906,2.959196 1.06147,4.766253 1.32945,6.628968 0.37838,2.629981 1.10369,4.309701 3.36719,7.797991 0.97307,1.4996 1.69575,2.85433 3.00365,5.63063 l 0.90201,1.91473 0.51859,-0.22377 0.51859,-0.22376 z M 49.696034,111.67346 c -0.03085,-0.13386 -0.287948,-0.80634 -0.571324,-1.4944 -0.283378,-0.68807 -0.606383,-1.54432 -0.71779,-1.90279 l -0.202559,-0.65176 -7.96e-4,-0.79652 -7.97e-4,-0.79651 0.228812,-0.4908 c 0.125846,-0.26994 0.347613,-0.62837 0.492816,-0.79652 0.469183,-0.54331 1.00471,-1.4006 1.814421,-2.90459 0.43593,-0.80971 0.843351,-1.51203 0.905381,-1.56071 l 0.112783,-0.0885 0.188838,-1.017769 c 0.103862,-0.559773 0.239444,-1.376202 0.301294,-1.814285 l 0.112454,-0.796516 v -6.770384 -6.770383 l 0.234934,-0.642853 c 0.302221,-0.826974 0.588409,-1.265851 1.917088,-2.939908 0.599501,-0.755335 1.311731,-1.704379 1.582733,-2.108986 l 0.492731,-0.735648 -0.185442,-0.129889 C 56.299618,76.3923 55.867109,75.847175 55.440479,75.252349 55.01384,74.657524 54.187782,73.573461 53.604785,72.843322 L 52.54479,71.515796 51.124648,70.089571 c -1.899561,-1.907699 -3.262866,-2.886598 -4.28376,-3.075885 l -0.297066,-0.05508 -0.278195,0.142118 c -0.305009,0.155817 -3.786152,3.749723 -4.819101,4.975205 -1.851697,2.196835 -2.68419,3.942065 -3.658633,7.669915 -0.292556,1.11921 -0.664376,2.377897 -0.826266,2.797083 -0.562169,1.455642 -1.638655,7.10945 -1.638655,8.606378 v 0.286812 l 0.451777,0.792801 c 2.463366,4.322846 14.221128,20.745492 13.921285,19.444542 z m 28.50296,114.94784 c -0.09904,-0.0412 -0.235113,-0.14121 -0.30238,-0.22226 l -0.122305,-0.14738 7.08e-4,-0.37141 7.08e-4,-0.37142 0.183869,-0.354 c 0.23748,-0.45723 0.9316,-1.1228 1.431934,-1.37304 l 0.393001,-0.19655 0.624528,-0.0784 0.624528,-0.0784 0.483627,-0.23661 0.483628,-0.23662 0.673877,-0.67021 c 3.700297,-3.68013 6.55378,-11.13248 6.559207,-17.13048 l 0.0014,-1.59408 -0.138722,-1.10874 c -0.0763,-0.60981 -0.23938,-1.64293 -0.362406,-2.29582 -0.123026,-0.65288 -0.283578,-1.64396 -0.356781,-2.20239 l -0.133098,-1.01533 0.05676,-0.31743 c 0.11333,-0.6338 0.479182,-0.78665 1.016898,-0.42485 l 0.300718,0.20234 0.289249,0.57205 c 0.365761,0.72337 0.670491,1.93163 0.858612,3.40441 l 0.14692,1.15022 0.05046,2.12404 0.05046,2.12404 -0.105367,1.50453 c -0.241748,3.45186 -0.689219,5.65355 -1.613869,7.94068 l -0.53667,1.32747 0.09422,0.20678 0.09422,0.20678 0.463974,0.13778 0.463973,0.13779 1.420689,0.0936 1.420689,0.0936 8.805927,-0.0551 c 10.79509,-0.0676 12.79407,-0.14474 13.15702,-0.50769 l 0.12236,-0.12235 -0.35617,-0.55107 c -0.80092,-1.23918 -0.96901,-1.75524 -1.19649,-3.67336 -0.08,-0.67419 -0.16663,-1.28118 -0.19261,-1.34886 l -0.0472,-0.12307 -0.22402,0.17622 -0.22402,0.17622 h -0.40003 -0.40003 l -0.33674,-0.35399 -0.33674,-0.35399 -0.18529,-0.59741 c -0.10191,-0.32857 -0.23042,-1.02586 -0.28556,-1.54952 l -0.10028,-0.95211 0.10538,-1.23037 0.10538,-1.23036 0.2573,-1.01877 c 0.40701,-1.6116 0.97178,-2.61371 1.67541,-2.97284 0.45445,-0.23194 0.6263,-0.45144 0.76495,-0.977 0.0663,-0.25133 0.18415,-0.55402 0.26189,-0.67267 l 0.14133,-0.21571 h 0.33227 c 0.18276,0 0.41806,0.0601 0.52291,0.13351 l 0.19062,0.13352 0.1951,0.50812 0.19511,0.50812 0.0101,0.79652 c 0.0126,0.99226 -0.0676,1.38131 -0.3553,1.72318 l -0.2256,0.26811 h -0.19966 c -0.35422,0 -0.68308,0.5205 -0.69089,1.09353 l -0.005,0.36675 0.23487,0.34492 c 0.29178,0.42852 0.47717,1.02437 0.89777,2.88539 0.36742,1.62574 0.6446,2.47578 1.02921,3.15636 0.34565,0.61163 0.58127,1.31197 0.79252,2.35555 0.68764,3.39707 2.97998,6.65194 6.89434,9.78917 1.59573,1.27892 2.47193,2.09775 2.61873,2.44724 l 0.11309,0.26924 0.44881,0.11503 c 0.50793,0.13018 0.60354,0.22256 0.43745,0.42268 l -0.11549,0.13917 -1.13912,-0.063 c -1.28801,-0.0712 -1.59315,-0.13716 -1.86303,-0.40254 -0.10419,-0.10244 -0.5147,-0.41262 -0.91226,-0.68929 -1.15115,-0.8011 -2.52118,-1.97958 -4.19797,-3.61105 l -1.55775,-1.51564 -0.6548,-0.31781 -0.6548,-0.31781 -0.66376,-0.13205 c -0.36507,-0.0726 -1.17732,-0.17367 -1.80501,-0.22453 l -1.14125,-0.0925 -4.21311,0.001 c -5.05554,0.001 -21.875766,0.32106 -21.96182,0.41755 -0.03344,0.0375 -0.431436,0.5859 -0.884437,1.21868 -1.931019,2.6974 -2.692523,3.38638 -4.342659,3.92908 -0.601598,0.19786 -1.406421,0.65169 -1.406421,0.79307 0,0.33601 -1.215303,1.04389 -1.551853,0.90391 z m 62.263726,-18.68051 c -0.10415,-0.14628 -0.30658,-0.58712 -0.44984,-0.97966 l -0.26047,-0.7137 -0.17254,-1.07801 c -0.45588,-2.84824 -0.76345,-8.19034 -0.85441,-14.84003 l -0.0551,-4.02683 0.10003,-2.18553 c 0.10547,-2.30444 0.22203,-3.42252 0.39494,-3.78834 l 0.10457,-0.22125 0.18522,-0.0266 0.18521,-0.0266 0.13203,0.20356 c 0.0726,0.11197 0.24241,0.48236 0.37734,0.82309 0.41057,1.03676 0.90464,1.96325 1.50987,2.83133 3.3664,4.82841 4.32728,14.73948 1.9049,19.64811 l -0.43675,0.88502 -0.63079,0.70801 c -0.34693,0.38941 -0.75295,0.88263 -0.90227,1.09604 l -0.2715,0.38804 -0.0985,0.67398 c -0.11142,0.76259 -0.17171,0.89525 -0.40685,0.89525 h -0.16576 z m 0.93835,-4.77333 c 0.80809,-1.38047 1.27225,-2.86657 1.50813,-4.82866 l 0.13832,-1.15052 -0.0523,-1.37178 c -0.14551,-3.81811 -2.40352,-11.36871 -2.93223,-9.80519 -0.34426,1.018 0.15441,15.92258 0.5907,17.65521 l 0.0967,0.38414 0.12994,-0.10783 c 0.0715,-0.0593 0.30578,-0.40823 0.52069,-0.77537 z m -39.08228,-28.54069 c -2.615674,-0.55406 -6.683655,-3.36403 -8.612939,-5.9494 -1.844768,-2.47212 -4.282055,-8.69932 -4.880432,-12.46938 l -0.05682,-0.35797 0.09102,-0.23941 0.09102,-0.23941 h 0.254417 0.254417 l 0.389411,0.2813 c 0.214176,0.15472 0.66611,0.51905 1.004297,0.80963 1.127333,0.96861 2.084337,1.50942 3.172823,1.79296 l 0.548876,0.14298 0.755878,-0.002 0.755877,-0.002 0.571649,-0.1458 c 1.810917,-0.46187 3.859806,-2.03668 5.555356,-4.26994 0.92962,-1.22444 0.90722,-1.22879 2.63016,0.51135 0.72865,0.73592 1.66333,1.59593 2.07707,1.91114 l 0.75227,0.57311 0.88501,0.43229 c 1.07329,0.52426 1.69725,0.69816 2.74356,0.76465 l 0.79651,0.0506 0.61952,-0.14576 c 0.34073,-0.0802 0.91567,-0.29197 1.27764,-0.47064 l 0.65815,-0.32486 1.13353,-1.08758 1.13354,-1.08758 h 0.20404 c 0.11222,0 0.25183,0.0478 0.31024,0.10621 l 0.1062,0.1062 v 0.46848 c 0,0.53906 -0.33351,2.33317 -0.72069,3.87695 -1.92078,7.65868 -6.38838,13.58284 -11.18279,14.82869 l -0.70802,0.18398 -1.01777,0.0362 -1.01777,0.0362 -0.57526,-0.12185 z m -7.051289,-6.13519 -0.130832,-0.42038 0.04725,-0.54868 0.04725,-0.5487 0.235787,-0.46907 c 1.099232,-2.18686 4.754004,-4.09663 8.356374,-4.36656 l 0.75227,-0.0564 0.89688,0.0996 c 2.16889,0.24078 3.37335,0.85571 5.00424,2.55486 l 0.8539,0.88965 0.33711,0.68208 0.33709,0.68207 v 0.63462 0.63462 l 0.18989,-0.2268 c 0.84729,-1.01197 2.12022,-3.36334 2.8058,-5.18289 0.61766,-1.63929 1.47857,-4.75709 1.47857,-5.35466 v -0.28202 l -0.42038,0.24605 c -0.23121,0.13533 -0.5996,0.37339 -0.81864,0.52903 -0.57113,0.40582 -1.21515,0.7123 -1.83338,0.8725 l -0.53747,0.13927 h -0.97152 -0.97153 l -0.82998,-0.21112 c -1.6469,-0.4189 -3.01457,-1.18569 -5.10381,-2.86146 -1.35609,-1.08771 -1.61677,-1.23781 -1.98795,-1.14464 l -0.1994,0.05 -0.92168,0.98636 c -1.998912,2.13917 -3.978293,3.15516 -6.730263,3.45454 l -0.902663,0.0982 -0.835832,-0.0986 -0.835831,-0.0986 -0.825366,-0.26439 c -1.226357,-0.39284 -1.307344,-0.35906 -1.1144,0.46473 0.854563,3.64861 2.500409,7.08407 4.409992,9.20521 0.37568,0.4173 0.375917,0.4172 0.218531,-0.0885 z M 74.621724,151.29765 c -0.216855,-0.0456 -0.571077,-0.1932 -0.787161,-0.3279 l -0.39288,-0.24489 -0.164234,-0.30838 -0.164232,-0.30837 v -0.36014 -0.36013 l 0.232623,-0.46682 0.232623,-0.46682 0.430755,-0.34049 c 0.832962,-0.65842 2.076224,-1.11813 3.610659,-1.3351 l 0.745336,-0.10539 0.980448,0.0514 c 1.066012,0.0559 1.712822,0.21259 2.183043,0.52875 l 0.301934,0.20302 0.09905,0.30338 0.09905,0.30339 -0.07451,0.25981 c -0.460736,1.60649 -5.028717,3.45962 -7.332504,2.97464 z m 55.929126,-0.41719 c -1.43378,-0.49397 -4.60036,-2.24532 -5.33223,-2.94912 l -0.42039,-0.40425 v -0.31961 -0.3196 l 0.22664,-0.17827 c 0.12465,-0.0981 0.45321,-0.2256 0.73014,-0.28346 l 0.5035,-0.10519 1.23903,0.0511 c 1.0558,0.0435 2.27055,0.19133 3.14181,0.38233 0.12169,0.0267 -0.13374,-0.15438 -0.56763,-0.40235 -5.22444,-2.98585 -7.32761,-8.64339 -5.89211,-15.84979 0.98185,-4.92907 3.51639,-8.25439 7.1235,-9.34606 l 0.79652,-0.24106 1.28327,-0.004 1.28328,-0.004 0.75226,0.20252 c 4.62518,1.24518 7.85988,5.89334 8.72307,12.53478 l 0.14953,1.15052 -8.8e-4,1.59303 c -0.004,6.31376 -3.04549,10.93993 -7.50308,11.41075 -0.29032,0.0307 -0.73692,0.0773 -0.99244,0.1036 l -0.4646,0.0479 0.12924,0.12923 c 0.0711,0.0711 0.15586,0.27118 0.18841,0.44468 l 0.0592,0.31545 -0.10093,0.33687 c -0.14089,0.47025 -0.35645,0.70502 -0.72322,0.7877 l -0.31449,0.0709 -0.48203,-0.13184 c -0.26512,-0.0725 -0.57654,-0.13626 -0.69207,-0.14164 l -0.21004,-0.01 -0.0633,0.13276 c -0.0348,0.073 -0.12082,0.25223 -0.19112,0.39826 l -0.12783,0.2655 -0.47994,0.28763 -0.47994,0.28763 -0.31367,-0.007 c -0.17252,-0.004 -0.61236,-0.1099 -0.97743,-0.23567 z m 7.12439,-4.44543 c 2.97692,-0.75911 4.92254,-3.54227 5.48712,-7.84921 l 0.13274,-1.01253 v -1.28223 c 0,-3.86968 -1.06855,-7.6917 -2.93061,-10.48226 l -0.55915,-0.83795 -0.75529,-0.76373 -0.7553,-0.76374 -0.68231,-0.44341 c -0.7938,-0.51588 -1.75229,-0.93372 -2.6074,-1.13668 l -0.60437,-0.14345 -0.84076,-0.002 -0.84077,-0.002 -0.69024,0.19042 c -3.7824,1.04345 -6.75626,5.50019 -7.4165,11.11462 l -0.10362,0.8811 0.0503,1.37569 c 0.10035,2.7472 0.7269,4.83282 2.0476,6.81592 l 0.56169,0.8434 0.82837,0.79779 c 1.74465,1.68027 3.68745,2.55652 6.44822,2.90834 0.17037,0.0217 0.80758,0.0245 1.41603,0.006 l 1.10627,-0.0334 0.70802,-0.18055 z m -2.92056,-9.82935 c -1.82032,-0.70315 -3.70247,-3.32147 -4.43699,-6.17244 l -0.22164,-0.8603 -0.0471,-1.01777 -0.0471,-1.01777 0.14101,-0.6611 c 0.26289,-1.23252 0.87907,-2.08574 1.8045,-2.49868 l 0.4177,-0.18639 0.84724,-0.0402 0.84723,-0.0402 0.68377,0.1876 c 1.74905,0.47984 3.1899,1.63393 3.91088,3.13252 l 0.28938,0.60149 0.16232,0.85879 0.16232,0.85879 -8.9e-4,1.41603 -8.8e-4,1.41603 -0.15986,0.685 c -0.39157,1.6779 -1.13811,2.83187 -2.13947,3.30709 l -0.44251,0.21002 -0.66376,-0.004 -0.66376,-0.004 -0.44251,-0.17093 z m -66.510482,11.37861 c -4.243016,-0.68956 -6.958422,-4.44407 -7.342212,-10.15185 l -0.08228,-1.22361 0.08436,-1.25456 c 0.460706,-6.85172 3.945398,-12.2384 8.757581,-13.53758 l 0.752265,-0.2031 1.637282,-0.003 1.637282,-0.003 0.612037,0.16594 c 4.414555,1.19689 6.856562,5.25606 7.322878,12.17227 l 0.107773,1.59844 -0.106787,1.35084 c -0.478687,6.05529 -3.401691,9.87235 -8.422661,10.99888 l -0.663763,0.14892 -1.770034,0.0318 -1.770035,0.0318 z m 4.007736,-0.72284 c 1.389853,-0.26932 2.805769,-0.84087 3.92032,-1.58246 l 0.728498,-0.48473 0.78341,-0.82939 0.78341,-0.82941 0.43713,-0.73779 c 1.188001,-2.00512 1.731163,-4.3351 1.731163,-7.42609 v -1.55164 l -0.133393,-1.14998 c -0.606262,-5.22662 -2.004367,-7.8035 -5.064976,-9.33539 l -0.728033,-0.36439 -0.8645,-0.22212 -0.864499,-0.22213 -1.106272,-9.6e-4 -1.106271,-9.7e-4 -0.885018,0.22744 -0.885017,0.22744 -0.820783,0.39583 c -3.366344,1.6234 -5.304625,4.81468 -6.183506,10.18081 l -0.159446,0.97352 0.0015,1.77003 0.0015,1.77004 0.160631,0.88502 c 1.093948,6.02722 5.133228,9.29962 10.254134,8.30732 z m -0.864501,-10.24427 c -0.24338,-0.0592 -0.656126,-0.2239 -0.917214,-0.36603 l -0.474704,-0.25841 -0.530098,-0.57785 -0.530098,-0.57784 -0.475576,-0.97352 -0.475577,-0.97352 -0.242588,-0.97351 -0.24259,-0.97352 0.0037,-1.54878 0.0037,-1.54879 0.186831,-0.6774 c 0.602057,-2.1829 1.77959,-3.08392 4.030352,-3.08392 h 0.564835 l 0.68358,0.17483 c 2.710113,0.69313 4.571707,3.54087 4.565029,6.98328 -0.0063,3.27036 -3.227309,6.08562 -6.149563,5.37498 z"
       id="path419" /></g></svg>
