999
"DXF R12 Output" (www.mydxf.blogspot.com)
 0 
SECTION
 2 
HEADER
 9 
$ACADVER
 1 
AC1009
 9 
$EXTMIN
 10 
 0 
 20 
 0 
 9 
$EXTMAX
 10 
 8.5 
 20 
 11 
 0 
ENDSEC
 0 
SECTION
 2 
ENTITIES
0
LINE
8
Layer 1
10
115.918000
20
0.259800
11
116.232900
21
0.635940
0
LINE
8
Layer 1
10
116.232900
20
0.635940
11
116.599040
21
0.929160
0
LINE
8
Layer 1
10
116.599040
20
0.929160
11
116.928720
21
1.637170
0
LINE
8
Layer 1
10
116.928720
20
1.637170
11
118.114070
21
3.846730
0
LINE
8
Layer 1
10
118.114070
20
3.846730
11
119.135842
21
5.823746
0
LINE
8
Layer 1
10
119.135842
20
5.823746
11
119.679340
21
7.457780
0
LINE
8
Layer 1
10
119.679340
20
7.457780
11
119.856370
21
8.186300
0
LINE
8
Layer 1
10
119.856370
20
8.186300
11
119.940870
21
9.825880
0
LINE
8
Layer 1
10
119.940870
20
9.825880
11
120.025370
21
11.465460
0
LINE
8
Layer 1
10
120.025370
20
11.465460
11
120.145410
21
11.812190
0
LINE
8
Layer 1
10
120.145410
20
11.812190
11
120.368350
21
12.193220
0
LINE
8
Layer 1
10
120.368350
20
12.193220
11
120.471250
21
12.227520
0
LINE
8
Layer 1
10
120.471250
20
12.227520
11
120.560250
21
11.993310
0
LINE
8
Layer 1
10
120.560250
20
11.993310
11
120.649250
21
11.267330
0
LINE
8
Layer 1
10
120.649250
20
11.267330
11
120.764679
21
9.758464
0
LINE
8
Layer 1
10
120.764679
20
9.758464
11
121.064664
21
8.300605
0
LINE
8
Layer 1
10
121.064664
20
8.300605
11
121.479749
21
7.147366
0
LINE
8
Layer 1
10
121.479749
20
7.147366
11
121.940480
21
6.552360
0
LINE
8
Layer 1
10
121.940480
20
6.552360
11
122.198030
21
6.422940
0
LINE
8
Layer 1
10
122.198030
20
6.422940
11
122.836780
21
6.387940
0
LINE
8
Layer 1
10
122.836780
20
6.387940
11
123.475530
21
6.352940
0
LINE
8
Layer 1
10
123.475530
20
6.352940
11
124.136110
21
6.499910
0
LINE
8
Layer 1
10
124.136110
20
6.499910
11
124.796680
21
6.646870
0
LINE
8
Layer 1
10
124.796680
20
6.646870
11
125.577150
21
7.031870
0
LINE
8
Layer 1
10
125.577150
20
7.031870
11
126.357620
21
7.416870
0
LINE
8
Layer 1
10
126.357620
20
7.416870
11
127.065630
21
8.000300
0
LINE
8
Layer 1
10
127.065630
20
8.000300
11
127.773640
21
8.583720
0
LINE
8
Layer 1
10
127.773640
20
8.583720
11
128.021000
21
8.583720
0
LINE
8
Layer 1
10
128.021000
20
8.583720
11
128.268000
21
8.583720
0
LINE
8
Layer 1
10
128.268000
20
8.583720
11
128.418770
21
8.308350
0
LINE
8
Layer 1
10
128.418770
20
8.308350
11
128.894420
21
7.519670
0
LINE
8
Layer 1
10
128.894420
20
7.519670
11
129.219320
21
7.006340
0
LINE
8
Layer 1
10
129.219320
20
7.006340
11
129.646680
21
6.755130
0
LINE
8
Layer 1
10
129.646680
20
6.755130
11
130.074060
21
6.503930
0
LINE
8
Layer 1
10
130.074060
20
6.503930
11
130.694000
21
6.503930
0
LINE
8
Layer 1
10
130.694000
20
6.503930
11
131.313000
21
6.503930
0
LINE
8
Layer 1
10
131.313000
20
6.503930
11
131.799760
21
6.776090
0
LINE
8
Layer 1
10
131.799760
20
6.776090
11
132.286520
21
7.048260
0
LINE
8
Layer 1
10
132.286520
20
7.048260
11
132.661170
21
7.616850
0
LINE
8
Layer 1
10
132.661170
20
7.616850
11
133.174180
21
8.384590
0
LINE
8
Layer 1
10
133.174180
20
8.384590
11
133.312560
21
8.583720
0
LINE
8
Layer 1
10
133.312560
20
8.583720
11
133.533000
21
8.583720
0
LINE
8
Layer 1
10
133.533000
20
8.583720
11
134.070680
21
8.450960
0
LINE
8
Layer 1
10
134.070680
20
8.450960
11
134.771436
21
8.324570
0
LINE
8
Layer 1
10
134.771436
20
8.324570
11
135.561960
21
8.464760
0
LINE
8
Layer 1
10
135.561960
20
8.464760
11
135.992130
21
8.611340
0
LINE
8
Layer 1
10
135.992130
20
8.611340
11
136.353900
21
8.973640
0
LINE
8
Layer 1
10
136.353900
20
8.973640
11
136.715660
21
9.335950
0
LINE
8
Layer 1
10
136.715660
20
9.335950
11
136.824910
21
9.701590
0
LINE
8
Layer 1
10
136.824910
20
9.701590
11
137.066500
21
10.177060
0
LINE
8
Layer 1
10
137.066500
20
10.177060
11
137.198850
21
10.286890
0
LINE
8
Layer 1
10
137.198850
20
10.286890
11
137.329690
21
10.178300
0
LINE
8
Layer 1
10
137.329690
20
10.178300
11
137.460530
21
10.069710
0
LINE
8
Layer 1
10
137.460530
20
10.069710
11
137.405830
21
9.422740
0
LINE
8
Layer 1
10
137.405830
20
9.422740
11
137.351130
21
8.775760
0
LINE
8
Layer 1
10
137.351130
20
8.775760
11
137.536930
21
8.539550
0
LINE
8
Layer 1
10
137.536930
20
8.539550
11
137.722720
21
8.303350
0
LINE
8
Layer 1
10
137.722720
20
8.303350
11
137.782620
21
7.773990
0
LINE
8
Layer 1
10
137.782620
20
7.773990
11
137.842520
21
7.244640
0
LINE
8
Layer 1
10
137.842520
20
7.244640
11
137.969510
21
7.117650
0
LINE
8
Layer 1
10
137.969510
20
7.117650
11
138.258993
21
6.996048
0
LINE
8
Layer 1
10
138.258993
20
6.996048
11
138.531210
21
7.129250
0
LINE
8
Layer 1
10
138.531210
20
7.129250
11
138.961146
21
7.417483
0
LINE
8
Layer 1
10
138.961146
20
7.417483
11
139.575230
21
7.521680
0
LINE
8
Layer 1
10
139.575230
20
7.521680
11
140.013000
21
7.521680
0
LINE
8
Layer 1
10
140.013000
20
7.521680
11
140.556010
21
7.929860
0
LINE
8
Layer 1
10
140.556010
20
7.929860
11
141.450571
21
8.780534
0
LINE
8
Layer 1
10
141.450571
20
8.780534
11
142.118760
21
9.750840
0
LINE
8
Layer 1
10
142.118760
20
9.750840
11
142.421580
21
10.176730
0
LINE
8
Layer 1
10
142.421580
20
10.176730
11
142.509000
21
10.176700
0
LINE
8
Layer 1
10
142.509000
20
10.176700
11
142.509000
21
9.742340
0
LINE
8
Layer 1
10
142.509000
20
9.742340
11
142.509000
21
9.307930
0
LINE
8
Layer 1
10
142.509000
20
9.307930
11
142.127840
21
8.835190
0
LINE
8
Layer 1
10
142.127840
20
8.835190
11
141.266920
21
7.663380
0
LINE
8
Layer 1
10
141.266920
20
7.663380
11
140.083236
21
6.303970
0
LINE
8
Layer 1
10
140.083236
20
6.303970
11
139.512225
21
5.988640
0
LINE
8
Layer 1
10
139.512225
20
5.988640
11
138.879010
21
5.858720
0
LINE
8
Layer 1
10
138.879010
20
5.858720
11
138.390830
21
5.821920
0
LINE
8
Layer 1
10
138.390830
20
5.821920
11
137.684230
21
6.061000
0
LINE
8
Layer 1
10
137.684230
20
6.061000
11
136.490880
21
6.344800
0
LINE
8
Layer 1
10
136.490880
20
6.344800
11
136.004130
21
6.389500
0
LINE
8
Layer 1
10
136.004130
20
6.389500
11
134.234090
21
6.203330
0
LINE
8
Layer 1
10
134.234090
20
6.203330
11
130.428520
21
5.884920
0
LINE
8
Layer 1
10
130.428520
20
5.884920
11
128.124935
21
5.661739
0
LINE
8
Layer 1
10
128.124935
20
5.661739
11
126.600330
21
5.229810
0
LINE
8
Layer 1
10
126.600330
20
5.229810
11
124.965912
21
4.734305
0
LINE
8
Layer 1
10
124.965912
20
4.734305
11
122.558470
21
4.467790
0
LINE
8
Layer 1
10
122.558470
20
4.467790
11
120.703704
21
4.272039
0
LINE
8
Layer 1
10
120.703704
20
4.272039
11
119.645340
21
3.979290
0
LINE
8
Layer 1
10
119.645340
20
3.979290
11
119.161060
21
3.798090
0
LINE
8
Layer 1
10
119.161060
20
3.798090
11
118.806300
21
3.413230
0
LINE
8
Layer 1
10
118.806300
20
3.413230
11
118.323760
21
2.761661
0
LINE
8
Layer 1
10
118.323760
20
2.761661
11
117.960320
21
1.768310
0
LINE
8
Layer 1
10
117.960320
20
1.768310
11
117.591900
21
0.816910
0
LINE
8
Layer 1
10
117.591900
20
0.816910
11
117.452970
21
0.618570
0
LINE
8
Layer 1
10
117.452970
20
0.618570
11
117.114000
21
0.618570
0
LINE
8
Layer 1
10
117.114000
20
0.618570
11
116.775000
21
0.618570
0
LINE
8
Layer 1
10
116.775000
20
0.618570
11
116.630040
21
0.397320
0
LINE
8
Layer 1
10
116.630040
20
0.397320
11
116.485060
21
0.176060
0
LINE
8
Layer 1
10
116.485060
20
0.176060
11
116.227000
21
0.176060
0
LINE
8
Layer 1
10
116.227000
20
0.176060
11
115.917510
21
0.258960
0
LINE
8
Layer 1
10
115.917510
20
0.258960
11
115.918000
21
0.259800
0
LINE
8
Layer 1
10
56.790500
20
0.447790
11
56.625439
21
0.630170
0
LINE
8
Layer 1
10
56.625439
20
0.630170
11
56.639959
21
0.994240
0
LINE
8
Layer 1
10
56.639959
20
0.994240
11
56.654479
21
1.358300
0
LINE
8
Layer 1
10
56.654479
20
1.358300
11
56.965477
21
1.807490
0
LINE
8
Layer 1
10
56.965477
20
1.807490
11
57.518577
21
2.437349
0
LINE
8
Layer 1
10
57.518577
20
2.437349
11
58.220697
21
2.902620
0
LINE
8
Layer 1
10
58.220697
20
2.902620
11
58.578467
21
3.085130
0
LINE
8
Layer 1
10
58.578467
20
3.085130
11
59.147203
21
3.142630
0
LINE
8
Layer 1
10
59.147203
20
3.142630
11
59.715938
21
3.200130
0
LINE
8
Layer 1
10
59.715938
20
3.200130
11
60.291199
21
3.474560
0
LINE
8
Layer 1
10
60.291199
20
3.474560
11
60.866460
21
3.749000
0
LINE
8
Layer 1
10
60.866460
20
3.749000
11
61.530223
21
4.424190
0
LINE
8
Layer 1
10
61.530223
20
4.424190
11
63.096387
21
6.393498
0
LINE
8
Layer 1
10
63.096387
20
6.393498
11
64.689888
21
9.030275
0
LINE
8
Layer 1
10
64.689888
20
9.030275
11
66.107409
21
11.958734
0
LINE
8
Layer 1
10
66.107409
20
11.958734
11
67.145633
21
14.803090
0
LINE
8
Layer 1
10
67.145633
20
14.803090
11
67.807293
21
17.640808
0
LINE
8
Layer 1
10
67.807293
20
17.640808
11
68.097730
21
20.444308
0
LINE
8
Layer 1
10
68.097730
20
20.444308
11
68.023437
21
23.386148
0
LINE
8
Layer 1
10
68.023437
20
23.386148
11
67.590906
21
26.638890
0
LINE
8
Layer 1
10
67.590906
20
26.638890
11
67.149645
21
29.887735
0
LINE
8
Layer 1
10
67.149645
20
29.887735
11
67.261958
21
30.470775
0
LINE
8
Layer 1
10
67.261958
20
30.470775
11
67.596606
21
30.621470
0
LINE
8
Layer 1
10
67.596606
20
30.621470
11
68.149212
21
30.330825
0
LINE
8
Layer 1
10
68.149212
20
30.330825
11
68.642224
21
29.488283
0
LINE
8
Layer 1
10
68.642224
20
29.488283
11
69.057382
21
28.137934
0
LINE
8
Layer 1
10
69.057382
20
28.137934
11
69.376426
21
26.323870
0
LINE
8
Layer 1
10
69.376426
20
26.323870
11
69.537329
21
25.090110
0
LINE
8
Layer 1
10
69.537329
20
25.090110
11
69.535829
21
22.125300
0
LINE
8
Layer 1
10
69.535829
20
22.125300
11
69.534329
21
19.160490
0
LINE
8
Layer 1
10
69.534329
20
19.160490
11
69.379461
21
17.877210
0
LINE
8
Layer 1
10
69.379461
20
17.877210
11
68.825370
21
14.487018
0
LINE
8
Layer 1
10
68.825370
20
14.487018
11
68.068031
21
12.041810
0
LINE
8
Layer 1
10
68.068031
20
12.041810
11
67.529209
21
10.688910
0
LINE
8
Layer 1
10
67.529209
20
10.688910
11
67.347807
21
10.182480
0
LINE
8
Layer 1
10
67.347807
20
10.182480
11
67.499234
21
9.951380
0
LINE
8
Layer 1
10
67.499234
20
9.951380
11
67.995224
21
9.590259
0
LINE
8
Layer 1
10
67.995224
20
9.590259
11
69.099554
21
9.384650
0
LINE
8
Layer 1
10
69.099554
20
9.384650
11
69.982190
21
9.285650
0
LINE
8
Layer 1
10
69.982190
20
9.285650
11
78.566860
21
9.291650
0
LINE
8
Layer 1
10
78.566860
20
9.291650
11
90.611985
21
9.411225
0
LINE
8
Layer 1
10
90.611985
20
9.411225
11
92.850254
21
9.598153
0
LINE
8
Layer 1
10
92.850254
20
9.598153
11
93.351965
21
9.736954
0
LINE
8
Layer 1
10
93.351965
20
9.736954
11
93.567260
21
9.911140
0
LINE
8
Layer 1
10
93.567260
20
9.911140
11
93.650160
21
10.066040
0
LINE
8
Layer 1
10
93.650160
20
10.066040
11
93.329690
21
10.586620
0
LINE
8
Layer 1
10
93.329690
20
10.586620
11
92.470075
21
12.254866
0
LINE
8
Layer 1
10
92.470075
20
12.254866
11
92.113560
21
14.264700
0
LINE
8
Layer 1
10
92.113560
20
14.264700
11
91.886060
21
15.710210
0
LINE
8
Layer 1
10
91.886060
20
15.710210
11
91.796660
21
15.945260
0
LINE
8
Layer 1
10
91.796660
20
15.945260
11
91.524970
21
15.716650
0
LINE
8
Layer 1
10
91.524970
20
15.716650
11
91.253280
21
15.488040
0
LINE
8
Layer 1
10
91.253280
20
15.488040
11
90.989800
21
15.488000
0
LINE
8
Layer 1
10
90.989800
20
15.488000
11
90.550973
21
15.574884
0
LINE
8
Layer 1
10
90.550973
20
15.574884
11
90.195095
21
15.849771
0
LINE
8
Layer 1
10
90.195095
20
15.849771
11
89.659380
21
17.048970
0
LINE
8
Layer 1
10
89.659380
20
17.048970
11
89.470460
21
17.744790
0
LINE
8
Layer 1
10
89.470460
20
17.744790
11
89.467460
21
19.249320
0
LINE
8
Layer 1
10
89.467460
20
19.249320
11
89.464460
21
20.753850
0
LINE
8
Layer 1
10
89.464460
20
20.753850
11
89.622220
21
21.638870
0
LINE
8
Layer 1
10
89.622220
20
21.638870
11
89.959474
21
23.099768
0
LINE
8
Layer 1
10
89.959474
20
23.099768
11
90.393296
21
24.248337
0
LINE
8
Layer 1
10
90.393296
20
24.248337
11
90.920218
21
25.077441
0
LINE
8
Layer 1
10
90.920218
20
25.077441
11
91.536770
21
25.579940
0
LINE
8
Layer 1
10
91.536770
20
25.579940
11
92.055093
21
26.001386
0
LINE
8
Layer 1
10
92.055093
20
26.001386
11
92.291700
21
26.617750
0
LINE
8
Layer 1
10
92.291700
20
26.617750
11
92.353000
21
27.026330
0
LINE
8
Layer 1
10
92.353000
20
27.026330
11
92.557700
21
27.231030
0
LINE
8
Layer 1
10
92.557700
20
27.231030
11
92.952170
21
27.435730
0
LINE
8
Layer 1
10
92.952170
20
27.435730
11
93.142000
21
27.435800
0
LINE
8
Layer 1
10
93.142000
20
27.435800
11
93.393570
21
27.166490
0
LINE
8
Layer 1
10
93.393570
20
27.166490
11
93.645140
21
26.897190
0
LINE
8
Layer 1
10
93.645140
20
26.897190
11
93.794840
21
26.224320
0
LINE
8
Layer 1
10
93.794840
20
26.224320
11
93.944530
21
25.551460
0
LINE
8
Layer 1
10
93.944530
20
25.551460
11
93.893230
21
24.939420
0
LINE
8
Layer 1
10
93.893230
20
24.939420
11
93.841930
21
24.327380
0
LINE
8
Layer 1
10
93.841930
20
24.327380
11
93.682350
21
24.000930
0
LINE
8
Layer 1
10
93.682350
20
24.000930
11
93.522780
21
23.674480
0
LINE
8
Layer 1
10
93.522780
20
23.674480
11
93.143690
21
23.554520
0
LINE
8
Layer 1
10
93.143690
20
23.554520
11
92.764600
21
23.434580
0
LINE
8
Layer 1
10
92.764600
20
23.434580
11
92.590550
21
23.093420
0
LINE
8
Layer 1
10
92.590550
20
23.093420
11
92.416510
21
22.752260
0
LINE
8
Layer 1
10
92.416510
20
22.752260
11
92.416500
21
22.318100
0
LINE
8
Layer 1
10
92.416500
20
22.318100
11
92.416500
21
21.884000
0
LINE
8
Layer 1
10
92.416500
20
21.884000
11
92.589630
21
21.663890
0
LINE
8
Layer 1
10
92.589630
20
21.663890
11
92.992472
21
20.813955
0
LINE
8
Layer 1
10
92.992472
20
20.813955
11
93.475760
21
18.954040
0
LINE
8
Layer 1
10
93.475760
20
18.954040
11
94.020311
21
16.855074
0
LINE
8
Layer 1
10
94.020311
20
16.855074
11
94.604140
21
15.443760
0
LINE
8
Layer 1
10
94.604140
20
15.443760
11
95.073979
21
14.352074
0
LINE
8
Layer 1
10
95.073979
20
14.352074
11
95.340050
21
13.279370
0
LINE
8
Layer 1
10
95.340050
20
13.279370
11
95.642055
21
12.032647
0
LINE
8
Layer 1
10
95.642055
20
12.032647
11
96.112180
21
10.779533
0
LINE
8
Layer 1
10
96.112180
20
10.779533
11
97.548855
21
8.265450
0
LINE
8
Layer 1
10
97.548855
20
8.265450
11
99.634198
21
5.759752
0
LINE
8
Layer 1
10
99.634198
20
5.759752
11
102.352330
21
3.285070
0
LINE
8
Layer 1
10
102.352330
20
3.285070
11
104.224843
21
1.674655
0
LINE
8
Layer 1
10
104.224843
20
1.674655
11
104.909490
21
0.840970
0
LINE
8
Layer 1
10
104.909490
20
0.840970
11
104.939590
21
0.663960
0
LINE
8
Layer 1
10
104.939590
20
0.663960
11
105.359920
21
0.537730
0
LINE
8
Layer 1
10
105.359920
20
0.537730
11
105.780250
21
0.328360
0
LINE
8
Layer 1
10
105.780250
20
0.328360
11
105.780000
21
0.245170
0
LINE
8
Layer 1
10
105.780000
20
0.245170
11
104.600250
21
0.279670
0
LINE
8
Layer 1
10
104.600250
20
0.279670
11
103.420520
21
0.314170
0
LINE
8
Layer 1
10
103.420520
20
0.314170
11
103.206350
21
0.465010
0
LINE
8
Layer 1
10
103.206350
20
0.465010
11
102.267480
21
1.126680
0
LINE
8
Layer 1
10
102.267480
20
1.126680
11
100.144744
21
2.813191
0
LINE
8
Layer 1
10
100.144744
20
2.813191
11
97.670340
21
5.066500
0
LINE
8
Layer 1
10
97.670340
20
5.066500
11
96.154060
21
6.530410
0
LINE
8
Layer 1
10
96.154060
20
6.530410
11
95.590550
21
6.796070
0
LINE
8
Layer 1
10
95.590550
20
6.796070
11
94.407409
21
7.193051
0
LINE
8
Layer 1
10
94.407409
20
7.193051
11
92.721010
21
7.449640
0
LINE
8
Layer 1
10
92.721010
20
7.449640
11
91.663970
21
7.559090
0
LINE
8
Layer 1
10
91.663970
20
7.559090
11
87.371640
21
7.557090
0
LINE
8
Layer 1
10
87.371640
20
7.557090
11
65.528240
21
7.201500
0
LINE
8
Layer 1
10
65.528240
20
7.201500
11
65.058041
21
7.154400
0
LINE
8
Layer 1
10
65.058041
20
7.154400
11
64.643222
21
6.574000
0
LINE
8
Layer 1
10
64.643222
20
6.574000
11
63.155272
21
4.563583
0
LINE
8
Layer 1
10
63.155272
20
4.563583
11
62.045772
21
3.287208
0
LINE
8
Layer 1
10
62.045772
20
3.287208
11
61.089865
21
2.522681
0
LINE
8
Layer 1
10
61.089865
20
2.522681
11
60.062692
21
2.047810
0
LINE
8
Layer 1
10
60.062692
20
2.047810
11
58.927363
21
1.551363
0
LINE
8
Layer 1
10
58.927363
20
1.551363
11
58.084542
21
0.843910
0
LINE
8
Layer 1
10
58.084542
20
0.843910
11
57.516285
21
0.265390
0
LINE
8
Layer 1
10
57.516285
20
0.265390
11
57.235600
21
0.265390
0
LINE
8
Layer 1
10
57.235600
20
0.265390
11
56.954700
21
0.265390
0
LINE
8
Layer 1
10
56.954700
20
0.265390
11
56.789639
21
0.447780
0
LINE
8
Layer 1
10
56.789639
20
0.447780
11
56.790500
21
0.447790
0
LINE
8
Layer 1
10
43.857600
20
0.627080
11
43.764500
21
0.720180
0
LINE
8
Layer 1
10
43.764500
20
0.720180
11
43.806940
21
1.096710
0
LINE
8
Layer 1
10
43.806940
20
1.096710
11
43.849380
21
1.473240
0
LINE
8
Layer 1
10
43.849380
20
1.473240
11
43.649650
21
1.864750
0
LINE
8
Layer 1
10
43.649650
20
1.864750
11
43.160933
21
2.539505
0
LINE
8
Layer 1
10
43.160933
20
2.539505
11
42.420508
21
3.197612
0
LINE
8
Layer 1
10
42.420508
20
3.197612
11
41.498243
21
3.786663
0
LINE
8
Layer 1
10
41.498243
20
3.786663
11
40.464010
21
4.254250
0
LINE
8
Layer 1
10
40.464010
20
4.254250
11
39.719124
21
4.526100
0
LINE
8
Layer 1
10
39.719124
20
4.526100
11
38.256554
21
4.742130
0
LINE
8
Layer 1
10
38.256554
20
4.742130
11
36.210294
21
5.132470
0
LINE
8
Layer 1
10
36.210294
20
5.132470
11
35.626605
21
5.306770
0
LINE
8
Layer 1
10
35.626605
20
5.306770
11
34.882768
21
5.977180
0
LINE
8
Layer 1
10
34.882768
20
5.977180
11
33.791968
21
6.829050
0
LINE
8
Layer 1
10
33.791968
20
6.829050
11
33.445008
21
7.010510
0
LINE
8
Layer 1
10
33.445008
20
7.010510
11
33.117074
21
6.912210
0
LINE
8
Layer 1
10
33.117074
20
6.912210
11
32.003754
21
6.226030
0
LINE
8
Layer 1
10
32.003754
20
6.226030
11
30.983177
21
5.549127
0
LINE
8
Layer 1
10
30.983177
20
5.549127
11
30.192564
21
5.265480
0
LINE
8
Layer 1
10
30.192564
20
5.265480
11
29.874775
21
5.207080
0
LINE
8
Layer 1
10
29.874775
20
5.207080
11
29.503936
21
5.306980
0
LINE
8
Layer 1
10
29.503936
20
5.306980
11
29.133098
21
5.406880
0
LINE
8
Layer 1
10
29.133098
20
5.406880
11
28.538451
21
5.965710
0
LINE
8
Layer 1
10
28.538451
20
5.965710
11
27.698410
21
6.637154
0
LINE
8
Layer 1
10
27.698410
20
6.637154
11
27.034511
21
6.814610
0
LINE
8
Layer 1
10
27.034511
20
6.814610
11
26.691400
21
6.814610
0
LINE
8
Layer 1
10
26.691400
20
6.814610
11
25.989929
21
6.512890
0
LINE
8
Layer 1
10
25.989929
20
6.512890
11
25.288457
21
6.211170
0
LINE
8
Layer 1
10
25.288457
20
6.211170
11
24.607032
21
6.103210
0
LINE
8
Layer 1
10
24.607032
20
6.103210
11
23.925607
21
5.995250
0
LINE
8
Layer 1
10
23.925607
20
5.995250
11
23.263015
21
6.093750
0
LINE
8
Layer 1
10
23.263015
20
6.093750
11
22.075230
21
6.446620
0
LINE
8
Layer 1
10
22.075230
20
6.446620
11
21.164891
21
7.082031
0
LINE
8
Layer 1
10
21.164891
20
7.082031
11
20.582012
21
7.949644
0
LINE
8
Layer 1
10
20.582012
20
7.949644
11
20.376605
21
8.999120
0
LINE
8
Layer 1
10
20.376605
20
8.999120
11
20.475770
21
9.016360
0
LINE
8
Layer 1
10
20.475770
20
9.016360
11
20.608732
21
8.783730
0
LINE
8
Layer 1
10
20.608732
20
8.783730
11
20.892908
21
8.121498
0
LINE
8
Layer 1
10
20.892908
20
8.121498
11
21.405281
21
7.531460
0
LINE
8
Layer 1
10
21.405281
20
7.531460
11
21.821845
21
7.164790
0
LINE
8
Layer 1
10
21.821845
20
7.164790
11
22.435857
21
6.978290
0
LINE
8
Layer 1
10
22.435857
20
6.978290
11
23.049868
21
6.791790
0
LINE
8
Layer 1
10
23.049868
20
6.791790
11
23.599315
21
6.835890
0
LINE
8
Layer 1
10
23.599315
20
6.835890
11
24.148763
21
6.879990
0
LINE
8
Layer 1
10
24.148763
20
6.879990
11
24.581974
21
7.071630
0
LINE
8
Layer 1
10
24.581974
20
7.071630
11
25.015185
21
7.263250
0
LINE
8
Layer 1
10
25.015185
20
7.263250
11
25.605314
21
7.813300
0
LINE
8
Layer 1
10
25.605314
20
7.813300
11
26.544224
21
8.576376
0
LINE
8
Layer 1
10
26.544224
20
8.576376
11
27.672214
21
9.288700
0
LINE
8
Layer 1
10
27.672214
20
9.288700
11
28.058461
21
9.506050
0
LINE
8
Layer 1
10
28.058461
20
9.506050
11
28.187357
21
9.399080
0
LINE
8
Layer 1
10
28.187357
20
9.399080
11
28.316253
21
9.292100
0
LINE
8
Layer 1
10
28.316253
20
9.292100
11
28.365503
21
8.640900
0
LINE
8
Layer 1
10
28.365503
20
8.640900
11
28.414753
21
7.989700
0
LINE
8
Layer 1
10
28.414753
20
7.989700
11
28.610092
21
7.535620
0
LINE
8
Layer 1
10
28.610092
20
7.535620
11
28.805432
21
7.081540
0
LINE
8
Layer 1
10
28.805432
20
7.081540
11
29.137291
21
6.781720
0
LINE
8
Layer 1
10
29.137291
20
6.781720
11
29.802995
21
6.371730
0
LINE
8
Layer 1
10
29.802995
20
6.371730
11
30.136840
21
6.261550
0
LINE
8
Layer 1
10
30.136840
20
6.261550
11
30.721706
21
6.303750
0
LINE
8
Layer 1
10
30.721706
20
6.303750
11
31.306571
21
6.345950
0
LINE
8
Layer 1
10
31.306571
20
6.345950
11
31.785929
21
6.589240
0
LINE
8
Layer 1
10
31.785929
20
6.589240
11
32.720364
21
7.288230
0
LINE
8
Layer 1
10
32.720364
20
7.288230
11
33.175440
21
7.743900
0
LINE
8
Layer 1
10
33.175440
20
7.743900
11
33.410959
21
8.230660
0
LINE
8
Layer 1
10
33.410959
20
8.230660
11
33.795358
21
9.318631
0
LINE
8
Layer 1
10
33.795358
20
9.318631
11
33.973985
21
10.620210
0
LINE
8
Layer 1
10
33.973985
20
10.620210
11
34.024505
21
11.460980
0
LINE
8
Layer 1
10
34.024505
20
11.460980
11
33.749687
21
12.139480
0
LINE
8
Layer 1
10
33.749687
20
12.139480
11
33.474869
21
12.938430
0
LINE
8
Layer 1
10
33.474869
20
12.938430
11
33.337098
21
13.255570
0
LINE
8
Layer 1
10
33.337098
20
13.255570
11
33.199327
21
13.452270
0
LINE
8
Layer 1
10
33.199327
20
13.452270
11
32.731300
21
13.452300
0
LINE
8
Layer 1
10
32.731300
20
13.452300
11
32.263300
21
13.452300
0
LINE
8
Layer 1
10
32.263300
20
13.452300
11
32.116800
21
13.614000
0
LINE
8
Layer 1
10
32.116800
20
13.614000
11
31.970330
21
14.042800
0
LINE
8
Layer 1
10
31.970330
20
14.042800
11
31.970300
21
14.309700
0
LINE
8
Layer 1
10
31.970300
20
14.309700
11
32.125178
21
14.444980
0
LINE
8
Layer 1
10
32.125178
20
14.444980
11
32.677218
21
14.701294
0
LINE
8
Layer 1
10
32.677218
20
14.701294
11
33.437978
21
14.798480
0
LINE
8
Layer 1
10
33.437978
20
14.798480
11
33.903956
21
14.794480
0
LINE
8
Layer 1
10
33.903956
20
14.794480
11
34.222145
21
14.643480
0
LINE
8
Layer 1
10
34.222145
20
14.643480
11
34.687155
21
14.271151
0
LINE
8
Layer 1
10
34.687155
20
14.271151
11
35.013137
21
13.604080
0
LINE
8
Layer 1
10
35.013137
20
13.604080
11
35.156361
21
13.180600
0
LINE
8
Layer 1
10
35.156361
20
13.180600
11
35.156400
21
11.826100
0
LINE
8
Layer 1
10
35.156400
20
11.826100
11
35.156400
21
10.471600
0
LINE
8
Layer 1
10
35.156400
20
10.471600
11
35.327373
21
9.803100
0
LINE
8
Layer 1
10
35.327373
20
9.803100
11
35.901431
21
8.368943
0
LINE
8
Layer 1
10
35.901431
20
8.368943
11
36.793828
21
7.260281
0
LINE
8
Layer 1
10
36.793828
20
7.260281
11
37.979360
21
6.499786
0
LINE
8
Layer 1
10
37.979360
20
6.499786
11
39.432823
21
6.110130
0
LINE
8
Layer 1
10
39.432823
20
6.110130
11
40.068251
21
6.031030
0
LINE
8
Layer 1
10
40.068251
20
6.031030
11
40.463931
21
6.104830
0
LINE
8
Layer 1
10
40.463931
20
6.104830
11
40.859610
21
6.178630
0
LINE
8
Layer 1
10
40.859610
20
6.178630
11
41.052957
21
6.403410
0
LINE
8
Layer 1
10
41.052957
20
6.403410
11
41.246305
21
6.628190
0
LINE
8
Layer 1
10
41.246305
20
6.628190
11
41.346949
21
7.097470
0
LINE
8
Layer 1
10
41.346949
20
7.097470
11
41.447592
21
7.566760
0
LINE
8
Layer 1
10
41.447592
20
7.566760
11
41.530482
21
10.601360
0
LINE
8
Layer 1
10
41.530482
20
10.601360
11
41.755877
21
15.867360
0
LINE
8
Layer 1
10
41.755877
20
15.867360
11
41.898381
21
18.098730
0
LINE
8
Layer 1
10
41.898381
20
18.098730
11
41.839881
21
18.629750
0
LINE
8
Layer 1
10
41.839881
20
18.629750
11
41.621947
21
19.522720
0
LINE
8
Layer 1
10
41.621947
20
19.522720
11
41.462510
21
19.884690
0
LINE
8
Layer 1
10
41.462510
20
19.884690
11
41.163636
21
20.067760
0
LINE
8
Layer 1
10
41.163636
20
20.067760
11
40.350474
21
20.373291
0
LINE
8
Layer 1
10
40.350474
20
20.373291
11
38.419916
21
20.670730
0
LINE
8
Layer 1
10
38.419916
20
20.670730
11
33.519116
21
21.557300
0
LINE
8
Layer 1
10
33.519116
20
21.557300
11
32.634098
21
21.771330
0
LINE
8
Layer 1
10
32.634098
20
21.771330
11
31.918100
21
21.771300
0
LINE
8
Layer 1
10
31.918100
20
21.771300
11
31.202100
21
21.771300
0
LINE
8
Layer 1
10
31.202100
20
21.771300
11
30.524270
21
21.597940
0
LINE
8
Layer 1
10
30.524270
20
21.597940
11
28.855330
21
20.925007
0
LINE
8
Layer 1
10
28.855330
20
20.925007
11
27.194743
21
19.741254
0
LINE
8
Layer 1
10
27.194743
20
19.741254
11
25.491687
21
18.002529
0
LINE
8
Layer 1
10
25.491687
20
18.002529
11
23.695340
21
15.664680
0
LINE
8
Layer 1
10
23.695340
20
15.664680
11
22.259445
21
13.721936
0
LINE
8
Layer 1
10
22.259445
20
13.721936
11
21.252370
21
12.636660
0
LINE
8
Layer 1
10
21.252370
20
12.636660
11
20.579455
21
11.907660
0
LINE
8
Layer 1
10
20.579455
20
11.907660
11
20.442106
21
11.646470
0
LINE
8
Layer 1
10
20.442106
20
11.646470
11
20.396806
21
10.690760
0
LINE
8
Layer 1
10
20.396806
20
10.690760
11
20.286389
21
9.772621
0
LINE
8
Layer 1
10
20.286389
20
9.772621
11
20.151922
21
10.497830
0
LINE
8
Layer 1
10
20.151922
20
10.497830
11
20.088382
21
11.260590
0
LINE
8
Layer 1
10
20.088382
20
11.260590
11
20.181532
21
11.822730
0
LINE
8
Layer 1
10
20.181532
20
11.822730
11
20.274682
21
12.384850
0
LINE
8
Layer 1
10
20.274682
20
12.384850
11
20.172212
21
12.656330
0
LINE
8
Layer 1
10
20.172212
20
12.656330
11
20.069741
21
12.927800
0
LINE
8
Layer 1
10
20.069741
20
12.927800
11
20.274095
21
13.521850
0
LINE
8
Layer 1
10
20.274095
20
13.521850
11
20.990565
21
15.138942
0
LINE
8
Layer 1
10
20.990565
20
15.138942
11
22.011857
21
16.800903
0
LINE
8
Layer 1
10
22.011857
20
16.800903
11
23.267339
21
18.437463
0
LINE
8
Layer 1
10
23.267339
20
18.437463
11
24.686375
21
19.978354
0
LINE
8
Layer 1
10
24.686375
20
19.978354
11
26.198333
21
21.353307
0
LINE
8
Layer 1
10
26.198333
20
21.353307
11
27.732578
21
22.492053
0
LINE
8
Layer 1
10
27.732578
20
22.492053
11
29.218477
21
23.324324
0
LINE
8
Layer 1
10
29.218477
20
23.324324
11
30.585395
21
23.779850
0
LINE
8
Layer 1
10
30.585395
20
23.779850
11
31.306511
21
23.916750
0
LINE
8
Layer 1
10
31.306511
20
23.916750
11
32.191529
21
23.869050
0
LINE
8
Layer 1
10
32.191529
20
23.869050
11
33.076546
21
23.821250
0
LINE
8
Layer 1
10
33.076546
20
23.821250
11
33.784560
21
23.605630
0
LINE
8
Layer 1
10
33.784560
20
23.605630
11
37.096140
21
22.739310
0
LINE
8
Layer 1
10
37.096140
20
22.739310
11
39.264430
21
22.485040
0
LINE
8
Layer 1
10
39.264430
20
22.485040
11
40.422190
21
22.404340
0
LINE
8
Layer 1
10
40.422190
20
22.404340
11
41.159867
21
22.480840
0
LINE
8
Layer 1
10
41.159867
20
22.480840
11
41.897544
21
22.557240
0
LINE
8
Layer 1
10
41.897544
20
22.557240
11
42.098503
21
22.688920
0
LINE
8
Layer 1
10
42.098503
20
22.688920
11
42.299462
21
22.820590
0
LINE
8
Layer 1
10
42.299462
20
22.820590
11
42.397842
21
23.335790
0
LINE
8
Layer 1
10
42.397842
20
23.335790
11
42.878775
21
28.902433
0
LINE
8
Layer 1
10
42.878775
20
28.902433
11
43.224408
21
39.029090
0
LINE
8
Layer 1
10
43.224408
20
39.029090
11
43.330993
21
44.117940
0
LINE
8
Layer 1
10
43.330993
20
44.117940
11
43.223865
21
46.728740
0
LINE
8
Layer 1
10
43.223865
20
46.728740
11
43.103070
21
49.279349
0
LINE
8
Layer 1
10
43.103070
20
49.279349
11
42.909309
21
50.182434
0
LINE
8
Layer 1
10
42.909309
20
50.182434
11
42.496616
21
51.048375
0
LINE
8
Layer 1
10
42.496616
20
51.048375
11
40.624369
21
53.301834
0
LINE
8
Layer 1
10
40.624369
20
53.301834
11
36.706195
21
57.305740
0
LINE
8
Layer 1
10
36.706195
20
57.305740
11
32.370769
21
61.775915
0
LINE
8
Layer 1
10
32.370769
20
61.775915
11
29.866554
21
64.564856
0
LINE
8
Layer 1
10
29.866554
20
64.564856
11
28.597939
21
66.403040
0
LINE
8
Layer 1
10
28.597939
20
66.403040
11
27.969315
21
68.020940
0
LINE
8
Layer 1
10
27.969315
20
68.020940
11
27.766444
21
68.721660
0
LINE
8
Layer 1
10
27.766444
20
68.721660
11
27.771044
21
70.403190
0
LINE
8
Layer 1
10
27.771044
20
70.403190
11
27.775644
21
72.084720
0
LINE
8
Layer 1
10
27.775644
20
72.084720
11
28.013497
21
74.208760
0
LINE
8
Layer 1
10
28.013497
20
74.208760
11
28.362332
21
78.494634
0
LINE
8
Layer 1
10
28.362332
20
78.494634
11
28.514186
21
85.713960
0
LINE
8
Layer 1
10
28.514186
20
85.713960
11
28.703377
21
95.560375
0
LINE
8
Layer 1
10
28.703377
20
95.560375
11
28.956336
21
98.620760
0
LINE
8
Layer 1
10
28.956336
20
98.620760
11
29.029666
21
98.694860
0
LINE
8
Layer 1
10
29.029666
20
98.694860
11
29.089126
21
98.598660
0
LINE
8
Layer 1
10
29.089126
20
98.598660
11
29.182498
21
98.508936
0
LINE
8
Layer 1
10
29.182498
20
98.508936
11
29.252097
21
98.605051
0
LINE
8
Layer 1
10
29.252097
20
98.605051
11
29.350224
21
99.453850
0
LINE
8
Layer 1
10
29.350224
20
99.453850
11
29.547733
21
101.423010
0
LINE
8
Layer 1
10
29.547733
20
101.423010
11
29.680589
21
102.662040
0
LINE
8
Layer 1
10
29.680589
20
102.662040
11
29.677189
21
103.193050
0
LINE
8
Layer 1
10
29.677189
20
103.193050
11
30.081155
21
105.184340
0
LINE
8
Layer 1
10
30.081155
20
105.184340
11
30.484986
21
106.865870
0
LINE
8
Layer 1
10
30.484986
20
106.865870
11
30.442396
21
107.404720
0
LINE
8
Layer 1
10
30.442396
20
107.404720
11
30.399806
21
107.943570
0
LINE
8
Layer 1
10
30.399806
20
107.943570
11
30.123807
21
108.521880
0
LINE
8
Layer 1
10
30.123807
20
108.521880
11
29.189072
21
110.076826
0
LINE
8
Layer 1
10
29.189072
20
110.076826
11
27.329147
21
112.706980
0
LINE
8
Layer 1
10
27.329147
20
112.706980
11
19.817281
21
123.053622
0
LINE
8
Layer 1
10
19.817281
20
123.053622
11
16.104500
21
128.550000
0
LINE
8
Layer 1
10
16.104500
20
128.550000
11
12.897230
21
133.709066
0
LINE
8
Layer 1
10
12.897230
20
133.709066
11
10.052169
21
138.713656
0
LINE
8
Layer 1
10
10.052169
20
138.713656
11
7.567657
21
143.567730
0
LINE
8
Layer 1
10
7.567657
20
143.567730
11
5.442035
21
148.275250
0
LINE
8
Layer 1
10
5.442035
20
148.275250
11
3.673644
21
152.840176
0
LINE
8
Layer 1
10
3.673644
20
152.840176
11
2.260825
21
157.266469
0
LINE
8
Layer 1
10
2.260825
20
157.266469
11
1.201917
21
161.558090
0
LINE
8
Layer 1
10
1.201917
20
161.558090
11
0.495262
21
165.719000
0
LINE
8
Layer 1
10
0.495262
20
165.719000
11
0.334648
21
166.958020
0
LINE
8
Layer 1
10
0.334648
20
166.958020
11
0.332848
21
169.790070
0
LINE
8
Layer 1
10
0.332848
20
169.790070
11
0.331048
21
172.622130
0
LINE
8
Layer 1
10
0.331048
20
172.622130
11
0.490635
21
173.418646
0
LINE
8
Layer 1
10
0.490635
20
173.418646
11
0.914196
21
174.785026
0
LINE
8
Layer 1
10
0.914196
20
174.785026
11
1.178169
21
175.354888
0
LINE
8
Layer 1
10
1.178169
20
175.354888
11
1.530622
21
175.690168
0
LINE
8
Layer 1
10
1.530622
20
175.690168
11
1.883076
21
176.025450
0
LINE
8
Layer 1
10
1.883076
20
176.025450
11
2.385940
21
176.171637
0
LINE
8
Layer 1
10
2.385940
20
176.171637
11
2.888803
21
176.317823
0
LINE
8
Layer 1
10
2.888803
20
176.317823
11
3.512713
21
176.270173
0
LINE
8
Layer 1
10
3.512713
20
176.270173
11
4.591319
21
176.100023
0
LINE
8
Layer 1
10
4.591319
20
176.100023
11
5.859104
21
175.728301
0
LINE
8
Layer 1
10
5.859104
20
175.728301
11
9.219413
21
174.290933
0
LINE
8
Layer 1
10
9.219413
20
174.290933
11
10.762133
21
173.548137
0
LINE
8
Layer 1
10
10.762133
20
173.548137
11
10.669643
21
173.455647
0
LINE
8
Layer 1
10
10.669643
20
173.455647
11
10.577153
21
173.363157
0
LINE
8
Layer 1
10
10.577153
20
173.363157
11
10.056190
21
173.580029
0
LINE
8
Layer 1
10
10.056190
20
173.580029
11
8.487400
21
174.252000
0
LINE
8
Layer 1
10
8.487400
20
174.252000
11
7.144999
21
174.753500
0
LINE
8
Layer 1
10
7.144999
20
174.753500
11
5.831744
21
175.087750
0
LINE
8
Layer 1
10
5.831744
20
175.087750
11
4.595512
21
175.245375
0
LINE
8
Layer 1
10
4.595512
20
175.245375
11
3.484180
21
175.217000
0
LINE
8
Layer 1
10
3.484180
20
175.217000
11
2.908769
21
175.147730
0
LINE
8
Layer 1
10
2.908769
20
175.147730
11
2.506363
21
174.947161
0
LINE
8
Layer 1
10
2.506363
20
174.947161
11
2.103957
21
174.746591
0
LINE
8
Layer 1
10
2.103957
20
174.746591
11
1.951708
21
174.479954
0
LINE
8
Layer 1
10
1.951708
20
174.479954
11
1.660482
21
173.417934
0
LINE
8
Layer 1
10
1.660482
20
173.417934
11
1.521504
21
172.622550
0
LINE
8
Layer 1
10
1.521504
20
172.622550
11
1.520708
21
170.631260
0
LINE
8
Layer 1
10
1.520708
20
170.631260
11
1.519911
21
168.639970
0
LINE
8
Layer 1
10
1.519911
20
168.639970
11
1.659215
21
167.046940
0
LINE
8
Layer 1
10
1.659215
20
167.046940
11
2.051850
21
163.483718
0
LINE
8
Layer 1
10
2.051850
20
163.483718
11
2.578711
21
160.260176
0
LINE
8
Layer 1
10
2.578711
20
160.260176
11
3.244815
21
157.350541
0
LINE
8
Layer 1
10
3.244815
20
157.350541
11
4.055175
21
154.729040
0
LINE
8
Layer 1
10
4.055175
20
154.729040
11
5.688374
21
150.535769
0
LINE
8
Layer 1
10
5.688374
20
150.535769
11
7.739278
21
145.805419
0
LINE
8
Layer 1
10
7.739278
20
145.805419
11
9.806647
21
141.425579
0
LINE
8
Layer 1
10
9.806647
20
141.425579
11
11.489245
21
138.283840
0
LINE
8
Layer 1
10
11.489245
20
138.283840
11
12.313236
21
136.890680
0
LINE
8
Layer 1
10
12.313236
20
136.890680
11
12.650144
21
136.548454
0
LINE
8
Layer 1
10
12.650144
20
136.548454
11
12.979026
21
136.942874
0
LINE
8
Layer 1
10
12.979026
20
136.942874
11
13.875316
21
140.558190
0
LINE
8
Layer 1
10
13.875316
20
140.558190
11
14.509098
21
143.343783
0
LINE
8
Layer 1
10
14.509098
20
143.343783
11
15.002996
21
144.550940
0
LINE
8
Layer 1
10
15.002996
20
144.550940
11
15.234339
21
144.888418
0
LINE
8
Layer 1
10
15.234339
20
144.888418
11
15.276059
21
145.258954
0
LINE
8
Layer 1
10
15.276059
20
145.258954
11
15.623906
21
147.480449
0
LINE
8
Layer 1
10
15.623906
20
147.480449
11
16.275802
21
149.479314
0
LINE
8
Layer 1
10
16.275802
20
149.479314
11
17.561636
21
152.292730
0
LINE
8
Layer 1
10
17.561636
20
152.292730
11
19.174632
21
154.789414
0
LINE
8
Layer 1
10
19.174632
20
154.789414
11
19.937580
21
155.807184
0
LINE
8
Layer 1
10
19.937580
20
155.807184
11
20.041436
21
156.161191
0
LINE
8
Layer 1
10
20.041436
20
156.161191
11
20.556645
21
157.014131
0
LINE
8
Layer 1
10
20.556645
20
157.014131
11
21.558436
21
157.568291
0
LINE
8
Layer 1
10
21.558436
20
157.568291
11
22.870556
21
158.397487
0
LINE
8
Layer 1
10
22.870556
20
158.397487
11
23.430815
21
158.962255
0
LINE
8
Layer 1
10
23.430815
20
158.962255
11
23.750756
21
159.473771
0
LINE
8
Layer 1
10
23.750756
20
159.473771
11
23.841616
21
159.734397
0
LINE
8
Layer 1
10
23.841616
20
159.734397
11
24.326547
21
160.100522
0
LINE
8
Layer 1
10
24.326547
20
160.100522
11
25.130649
21
160.600008
0
LINE
8
Layer 1
10
25.130649
20
160.600008
11
25.449822
21
160.733367
0
LINE
8
Layer 1
10
25.449822
20
160.733367
11
25.767397
21
160.674487
0
LINE
8
Layer 1
10
25.767397
20
160.674487
11
26.608780
21
160.339756
0
LINE
8
Layer 1
10
26.608780
20
160.339756
11
27.742570
21
159.512391
0
LINE
8
Layer 1
10
27.742570
20
159.512391
11
31.630797
21
155.756147
0
LINE
8
Layer 1
10
31.630797
20
155.756147
11
34.585428
21
152.829226
0
LINE
8
Layer 1
10
34.585428
20
152.829226
11
35.762837
21
151.956007
0
LINE
8
Layer 1
10
35.762837
20
151.956007
11
36.037900
21
151.872907
0
LINE
8
Layer 1
10
36.037900
20
151.872907
11
36.167133
21
151.791167
0
LINE
8
Layer 1
10
36.167133
20
151.791167
11
36.009213
21
151.616667
0
LINE
8
Layer 1
10
36.009213
20
151.616667
11
35.851294
21
151.442169
0
LINE
8
Layer 1
10
35.851294
20
151.442169
11
35.783024
21
150.939045
0
LINE
8
Layer 1
10
35.783024
20
150.939045
11
35.714744
21
150.435922
0
LINE
8
Layer 1
10
35.714744
20
150.435922
11
35.595220
21
150.362052
0
LINE
8
Layer 1
10
35.595220
20
150.362052
11
35.475695
21
150.288182
0
LINE
8
Layer 1
10
35.475695
20
150.288182
11
35.338174
21
150.362892
0
LINE
8
Layer 1
10
35.338174
20
150.362892
11
33.809054
21
152.222872
0
LINE
8
Layer 1
10
33.809054
20
152.222872
11
31.444256
21
155.195392
0
LINE
8
Layer 1
10
31.444256
20
155.195392
11
29.154718
21
157.577166
0
LINE
8
Layer 1
10
29.154718
20
157.577166
11
27.121895
21
159.200073
0
LINE
8
Layer 1
10
27.121895
20
159.200073
11
26.258457
21
159.674413
0
LINE
8
Layer 1
10
26.258457
20
159.674413
11
25.527244
21
159.895992
0
LINE
8
Layer 1
10
25.527244
20
159.895992
11
25.182529
21
159.942232
0
LINE
8
Layer 1
10
25.182529
20
159.942232
11
24.952818
21
159.821751
0
LINE
8
Layer 1
10
24.952818
20
159.821751
11
22.713088
21
157.621481
0
LINE
8
Layer 1
10
22.713088
20
157.621481
11
20.080397
21
154.765808
0
LINE
8
Layer 1
10
20.080397
20
154.765808
11
18.401526
21
152.466699
0
LINE
8
Layer 1
10
18.401526
20
152.466699
11
17.288586
21
150.072005
0
LINE
8
Layer 1
10
17.288586
20
150.072005
11
16.353688
21
146.929581
0
LINE
8
Layer 1
10
16.353688
20
146.929581
11
15.600564
21
144.363031
0
LINE
8
Layer 1
10
15.600564
20
144.363031
11
15.081344
21
142.597012
0
LINE
8
Layer 1
10
15.081344
20
142.597012
11
14.559871
21
140.203974
0
LINE
8
Layer 1
10
14.559871
20
140.203974
11
14.152082
21
137.784352
0
LINE
8
Layer 1
10
14.152082
20
137.784352
11
13.973914
21
135.938581
0
LINE
8
Layer 1
10
13.973914
20
135.938581
11
13.960234
21
135.186316
0
LINE
8
Layer 1
10
13.960234
20
135.186316
11
14.427338
21
134.405028
0
LINE
8
Layer 1
10
14.427338
20
134.405028
11
16.979572
21
130.445952
0
LINE
8
Layer 1
10
16.979572
20
130.445952
11
20.605524
21
125.162386
0
LINE
8
Layer 1
10
20.605524
20
125.162386
11
24.395008
21
119.854365
0
LINE
8
Layer 1
10
24.395008
20
119.854365
11
27.437838
21
115.821928
0
LINE
8
Layer 1
10
27.437838
20
115.821928
11
28.272433
21
114.777388
0
LINE
8
Layer 1
10
28.272433
20
114.777388
11
28.417727
21
114.807288
0
LINE
8
Layer 1
10
28.417727
20
114.807288
11
28.563022
21
114.837188
0
LINE
8
Layer 1
10
28.563022
20
114.837188
11
28.535222
21
115.099548
0
LINE
8
Layer 1
10
28.535222
20
115.099548
11
28.104138
21
116.335428
0
LINE
8
Layer 1
10
28.104138
20
116.335428
11
27.410654
21
118.128818
0
LINE
8
Layer 1
10
27.410654
20
118.128818
11
27.120457
21
118.948688
0
LINE
8
Layer 1
10
27.120457
20
118.948688
11
27.059457
21
119.556128
0
LINE
8
Layer 1
10
27.059457
20
119.556128
11
26.998457
21
120.163578
0
LINE
8
Layer 1
10
26.998457
20
120.163578
11
27.137406
21
120.705948
0
LINE
8
Layer 1
10
27.137406
20
120.705948
11
27.394048
21
121.412443
0
LINE
8
Layer 1
10
27.394048
20
121.412443
11
27.910917
21
122.132288
0
LINE
8
Layer 1
10
27.910917
20
122.132288
11
29.796167
21
125.260318
0
LINE
8
Layer 1
10
29.796167
20
125.260318
11
30.396036
21
126.397048
0
LINE
8
Layer 1
10
30.396036
20
126.397048
11
30.489176
21
126.303948
0
LINE
8
Layer 1
10
30.489176
20
126.303948
11
30.582316
21
126.210848
0
LINE
8
Layer 1
10
30.582316
20
126.210848
11
30.384448
21
125.078748
0
LINE
8
Layer 1
10
30.384448
20
125.078748
11
30.111814
21
122.751878
0
LINE
8
Layer 1
10
30.111814
20
122.751878
11
30.037044
21
121.557108
0
LINE
8
Layer 1
10
30.037044
20
121.557108
11
30.117854
21
120.275588
0
LINE
8
Layer 1
10
30.117854
20
120.275588
11
30.320670
21
118.327953
0
LINE
8
Layer 1
10
30.320670
20
118.327953
11
30.667709
21
116.708583
0
LINE
8
Layer 1
10
30.667709
20
116.708583
11
31.168393
21
115.384766
0
LINE
8
Layer 1
10
31.168393
20
115.384766
11
31.832144
21
114.323788
0
LINE
8
Layer 1
10
31.832144
20
114.323788
11
32.235770
21
113.816598
0
LINE
8
Layer 1
10
32.235770
20
113.816598
11
32.461960
21
113.759798
0
LINE
8
Layer 1
10
32.461960
20
113.759798
11
32.688151
21
113.702998
0
LINE
8
Layer 1
10
32.688151
20
113.702998
11
32.913266
21
113.912948
0
LINE
8
Layer 1
10
32.913266
20
113.912948
11
33.405395
21
114.672152
0
LINE
8
Layer 1
10
33.405395
20
114.672152
11
34.323106
21
116.876118
0
LINE
8
Layer 1
10
34.323106
20
116.876118
11
36.042009
21
120.833402
0
LINE
8
Layer 1
10
36.042009
20
120.833402
11
37.704939
21
123.765394
0
LINE
8
Layer 1
10
37.704939
20
123.765394
11
39.517332
21
125.976098
0
LINE
8
Layer 1
10
39.517332
20
125.976098
11
41.684626
21
127.769518
0
LINE
8
Layer 1
10
41.684626
20
127.769518
11
47.856406
21
131.431438
0
LINE
8
Layer 1
10
47.856406
20
131.431438
11
51.116955
21
132.640677
0
LINE
8
Layer 1
10
51.116955
20
132.640677
11
55.214077
21
133.665159
0
LINE
8
Layer 1
10
55.214077
20
133.665159
11
59.692389
21
134.410884
0
LINE
8
Layer 1
10
59.692389
20
134.410884
11
64.096506
21
134.783848
0
LINE
8
Layer 1
10
64.096506
20
134.783848
11
68.477346
21
135.058932
0
LINE
8
Layer 1
10
68.477346
20
135.058932
11
70.512886
21
135.247637
0
LINE
8
Layer 1
10
70.512886
20
135.247637
11
71.486406
21
135.199997
0
LINE
8
Layer 1
10
71.486406
20
135.199997
11
72.459925
21
135.152357
0
LINE
8
Layer 1
10
72.459925
20
135.152357
11
73.920205
21
134.886634
0
LINE
8
Layer 1
10
73.920205
20
134.886634
11
79.623274
21
134.046111
0
LINE
8
Layer 1
10
79.623274
20
134.046111
11
85.912205
21
133.546034
0
LINE
8
Layer 1
10
85.912205
20
133.546034
11
90.140372
21
133.198587
0
LINE
8
Layer 1
10
90.140372
20
133.198587
11
93.123990
21
132.698671
0
LINE
8
Layer 1
10
93.123990
20
132.698671
11
94.089930
21
132.405972
0
LINE
8
Layer 1
10
94.089930
20
132.405972
11
94.673736
21
132.092478
0
LINE
8
Layer 1
10
94.673736
20
132.092478
11
94.851743
21
131.763964
0
LINE
8
Layer 1
10
94.851743
20
131.763964
11
94.600285
21
131.426204
0
LINE
8
Layer 1
10
94.600285
20
131.426204
11
93.984597
21
130.838926
0
LINE
8
Layer 1
10
93.984597
20
130.838926
11
93.522738
21
130.151112
0
LINE
8
Layer 1
10
93.522738
20
130.151112
11
93.313819
21
129.552802
0
LINE
8
Layer 1
10
93.313819
20
129.552802
11
93.456955
21
129.234034
0
LINE
8
Layer 1
10
93.456955
20
129.234034
11
94.167268
21
129.773810
0
LINE
8
Layer 1
10
94.167268
20
129.773810
11
95.134755
21
130.844594
0
LINE
8
Layer 1
10
95.134755
20
130.844594
11
95.525305
21
131.370459
0
LINE
8
Layer 1
10
95.525305
20
131.370459
11
95.475405
21
131.569309
0
LINE
8
Layer 1
10
95.475405
20
131.569309
11
95.462771
21
131.744059
0
LINE
8
Layer 1
10
95.462771
20
131.744059
11
95.570235
21
131.807777
0
LINE
8
Layer 1
10
95.570235
20
131.807777
11
96.321945
21
131.610759
0
LINE
8
Layer 1
10
96.321945
20
131.610759
11
98.663006
21
130.680356
0
LINE
8
Layer 1
10
98.663006
20
130.680356
11
99.985665
21
129.918619
0
LINE
8
Layer 1
10
99.985665
20
129.918619
11
100.138205
21
129.750063
0
LINE
8
Layer 1
10
100.138205
20
129.750063
11
100.086005
21
129.614015
0
LINE
8
Layer 1
10
100.086005
20
129.614015
11
100.033805
21
129.477965
0
LINE
8
Layer 1
10
100.033805
20
129.477965
11
99.787655
21
129.476265
0
LINE
8
Layer 1
10
99.787655
20
129.476265
11
98.386735
21
129.670402
0
LINE
8
Layer 1
10
98.386735
20
129.670402
11
97.231985
21
129.866241
0
LINE
8
Layer 1
10
97.231985
20
129.866241
11
96.618535
21
129.714855
0
LINE
8
Layer 1
10
96.618535
20
129.714855
11
95.772440
21
129.403101
0
LINE
8
Layer 1
10
95.772440
20
129.403101
11
94.908690
21
128.836575
0
LINE
8
Layer 1
10
94.908690
20
128.836575
11
93.965418
21
127.933269
0
LINE
8
Layer 1
10
93.965418
20
127.933269
11
92.880756
21
126.611170
0
LINE
8
Layer 1
10
92.880756
20
126.611170
11
90.039787
21
122.382557
0
LINE
8
Layer 1
10
90.039787
20
122.382557
11
85.890835
21
115.494655
0
LINE
8
Layer 1
10
85.890835
20
115.494655
11
82.069703
21
109.111403
0
LINE
8
Layer 1
10
82.069703
20
109.111403
11
80.112155
21
106.145045
0
LINE
8
Layer 1
10
80.112155
20
106.145045
11
79.527761
21
105.275468
0
LINE
8
Layer 1
10
79.527761
20
105.275468
11
79.140355
21
104.337115
0
LINE
8
Layer 1
10
79.140355
20
104.337115
11
78.339133
21
102.486495
0
LINE
8
Layer 1
10
78.339133
20
102.486495
11
77.728938
21
101.204815
0
LINE
8
Layer 1
10
77.728938
20
101.204815
11
77.839674
21
101.094085
0
LINE
8
Layer 1
10
77.839674
20
101.094085
11
77.950410
21
100.983345
0
LINE
8
Layer 1
10
77.950410
20
100.983345
11
78.302742
21
101.080445
0
LINE
8
Layer 1
10
78.302742
20
101.080445
11
85.071452
21
104.517705
0
LINE
8
Layer 1
10
85.071452
20
104.517705
11
88.834946
21
106.718625
0
LINE
8
Layer 1
10
88.834946
20
106.718625
11
91.975601
21
108.786190
0
LINE
8
Layer 1
10
91.975601
20
108.786190
11
94.563107
21
110.769687
0
LINE
8
Layer 1
10
94.563107
20
110.769687
11
96.667152
21
112.718405
0
LINE
8
Layer 1
10
96.667152
20
112.718405
11
98.961652
21
115.428305
0
LINE
8
Layer 1
10
98.961652
20
115.428305
11
99.820542
21
116.379695
0
LINE
8
Layer 1
10
99.820542
20
116.379695
11
99.943100
21
116.380000
0
LINE
8
Layer 1
10
99.943100
20
116.380000
11
99.883900
21
116.136620
0
LINE
8
Layer 1
10
99.883900
20
116.136620
11
99.153137
21
114.189217
0
LINE
8
Layer 1
10
99.153137
20
114.189217
11
97.417330
21
110.273380
0
LINE
8
Layer 1
10
97.417330
20
110.273380
11
95.545165
21
105.896950
0
LINE
8
Layer 1
10
95.545165
20
105.896950
11
93.892516
21
101.561279
0
LINE
8
Layer 1
10
93.892516
20
101.561279
11
92.734300
21
98.035283
0
LINE
8
Layer 1
10
92.734300
20
98.035283
11
92.345430
21
96.087880
0
LINE
8
Layer 1
10
92.345430
20
96.087880
11
92.372930
21
95.804820
0
LINE
8
Layer 1
10
92.372930
20
95.804820
11
92.519220
21
95.777120
0
LINE
8
Layer 1
10
92.519220
20
95.777120
11
92.665500
21
95.749420
0
LINE
8
Layer 1
10
92.665500
20
95.749420
11
92.980140
21
96.025670
0
LINE
8
Layer 1
10
92.980140
20
96.025670
11
95.381707
21
98.934067
0
LINE
8
Layer 1
10
95.381707
20
98.934067
11
101.013480
21
106.512070
0
LINE
8
Layer 1
10
101.013480
20
106.512070
11
105.868643
21
113.205818
0
LINE
8
Layer 1
10
105.868643
20
113.205818
11
108.659685
21
117.301783
0
LINE
8
Layer 1
10
108.659685
20
117.301783
11
110.013067
21
119.796140
0
LINE
8
Layer 1
10
110.013067
20
119.796140
11
110.555250
21
121.685070
0
LINE
8
Layer 1
10
110.555250
20
121.685070
11
110.762462
21
122.668515
0
LINE
8
Layer 1
10
110.762462
20
122.668515
11
111.031130
21
123.084030
0
LINE
8
Layer 1
10
111.031130
20
123.084030
11
111.210390
21
123.283160
0
LINE
8
Layer 1
10
111.210390
20
123.283160
11
111.538000
21
123.283000
0
LINE
8
Layer 1
10
111.538000
20
123.283000
11
112.512150
21
122.983410
0
LINE
8
Layer 1
10
112.512150
20
122.983410
11
113.864972
21
122.195598
0
LINE
8
Layer 1
10
113.864972
20
122.195598
11
115.347737
21
121.086002
0
LINE
8
Layer 1
10
115.347737
20
121.086002
11
116.711710
21
119.821060
0
LINE
8
Layer 1
10
116.711710
20
119.821060
11
120.166988
21
115.739630
0
LINE
8
Layer 1
10
120.166988
20
115.739630
11
123.877463
21
110.738216
0
LINE
8
Layer 1
10
123.877463
20
110.738216
11
126.905411
21
106.151150
0
LINE
8
Layer 1
10
126.905411
20
106.151150
11
127.870399
21
104.429975
0
LINE
8
Layer 1
10
127.870399
20
104.429975
11
128.313110
21
103.312760
0
LINE
8
Layer 1
10
128.313110
20
103.312760
11
128.369110
21
103.014180
0
LINE
8
Layer 1
10
128.369110
20
103.014180
11
128.259740
21
102.882390
0
LINE
8
Layer 1
10
128.259740
20
102.882390
11
127.945870
21
102.750610
0
LINE
8
Layer 1
10
127.945870
20
102.750610
11
127.741000
21
102.750000
0
LINE
8
Layer 1
10
127.741000
20
102.750000
11
127.440660
21
103.126130
0
LINE
8
Layer 1
10
127.440660
20
103.126130
11
126.313610
21
104.874040
0
LINE
8
Layer 1
10
126.313610
20
104.874040
11
122.635105
21
110.424721
0
LINE
8
Layer 1
10
122.635105
20
110.424721
11
118.917525
21
115.111270
0
LINE
8
Layer 1
10
118.917525
20
115.111270
11
117.203806
21
116.948657
0
LINE
8
Layer 1
10
117.203806
20
116.948657
11
115.671988
21
118.351804
0
LINE
8
Layer 1
10
115.671988
20
118.351804
11
114.385959
21
119.247977
0
LINE
8
Layer 1
10
114.385959
20
119.247977
11
113.409610
21
119.564440
0
LINE
8
Layer 1
10
113.409610
20
119.564440
11
112.922346
21
119.437520
0
LINE
8
Layer 1
10
112.922346
20
119.437520
11
112.339804
21
119.027083
0
LINE
8
Layer 1
10
112.339804
20
119.027083
11
110.771460
21
117.195605
0
LINE
8
Layer 1
10
110.771460
20
117.195605
11
108.469721
21
113.749894
0
LINE
8
Layer 1
10
108.469721
20
113.749894
11
105.199730
21
108.369840
0
LINE
8
Layer 1
10
105.199730
20
108.369840
11
103.227365
21
105.182281
0
LINE
8
Layer 1
10
103.227365
20
105.182281
11
101.295357
21
102.385109
0
LINE
8
Layer 1
10
101.295357
20
102.385109
11
99.151021
21
99.634427
0
LINE
8
Layer 1
10
99.151021
20
99.634427
11
96.541670
21
96.586340
0
LINE
8
Layer 1
10
96.541670
20
96.586340
11
93.798120
21
93.373030
0
LINE
8
Layer 1
10
93.798120
20
93.373030
11
91.417019
21
90.550854
0
LINE
8
Layer 1
10
91.417019
20
90.550854
11
90.304640
21
89.408340
0
LINE
8
Layer 1
10
90.304640
20
89.408340
11
89.843790
21
89.032210
0
LINE
8
Layer 1
10
89.843790
20
89.032210
11
89.629100
21
89.032600
0
LINE
8
Layer 1
10
89.629100
20
89.032600
11
89.414300
21
89.032600
0
LINE
8
Layer 1
10
89.414300
20
89.032600
11
89.310710
21
89.226160
0
LINE
8
Layer 1
10
89.310710
20
89.226160
11
89.207110
21
89.419720
0
LINE
8
Layer 1
10
89.207110
20
89.419720
11
89.257910
21
90.139670
0
LINE
8
Layer 1
10
89.257910
20
90.139670
11
89.539222
21
91.975009
0
LINE
8
Layer 1
10
89.539222
20
91.975009
11
90.297490
21
95.333200
0
LINE
8
Layer 1
10
90.297490
20
95.333200
11
91.152880
21
99.121800
0
LINE
8
Layer 1
10
91.152880
20
99.121800
11
91.471780
21
100.670580
0
LINE
8
Layer 1
10
91.471780
20
100.670580
11
91.479780
21
101.700560
0
LINE
8
Layer 1
10
91.479780
20
101.700560
11
91.487780
21
102.730530
0
LINE
8
Layer 1
10
91.487780
20
102.730530
11
91.311270
21
102.926210
0
LINE
8
Layer 1
10
91.311270
20
102.926210
11
91.134760
21
103.121880
0
LINE
8
Layer 1
10
91.134760
20
103.121880
11
90.795070
21
103.076280
0
LINE
8
Layer 1
10
90.795070
20
103.076280
11
89.588189
21
102.674300
0
LINE
8
Layer 1
10
89.588189
20
102.674300
11
87.593596
21
101.776990
0
LINE
8
Layer 1
10
87.593596
20
101.776990
11
82.814610
21
99.250610
0
LINE
8
Layer 1
10
82.814610
20
99.250610
11
77.317660
21
96.187100
0
LINE
8
Layer 1
10
77.317660
20
96.187100
11
76.619493
21
95.903020
0
LINE
8
Layer 1
10
76.619493
20
95.903020
11
75.468973
21
95.865620
0
LINE
8
Layer 1
10
75.468973
20
95.865620
11
74.318453
21
95.828220
0
LINE
8
Layer 1
10
74.318453
20
95.828220
11
73.942084
21
95.929690
0
LINE
8
Layer 1
10
73.942084
20
95.929690
11
73.565714
21
96.031160
0
LINE
8
Layer 1
10
73.565714
20
96.031160
11
73.421489
21
96.251280
0
LINE
8
Layer 1
10
73.421489
20
96.251280
11
73.277264
21
96.471390
0
LINE
8
Layer 1
10
73.277264
20
96.471390
11
73.331184
21
96.864740
0
LINE
8
Layer 1
10
73.331184
20
96.864740
11
73.505767
21
97.517463
0
LINE
8
Layer 1
10
73.505767
20
97.517463
11
73.996611
21
98.523155
0
LINE
8
Layer 1
10
73.996611
20
98.523155
11
76.707944
21
103.015850
0
LINE
8
Layer 1
10
76.707944
20
103.015850
11
80.448804
21
109.180064
0
LINE
8
Layer 1
10
80.448804
20
109.180064
11
83.742544
21
114.919350
0
LINE
8
Layer 1
10
83.742544
20
114.919350
11
87.666534
21
121.866740
0
LINE
8
Layer 1
10
87.666534
20
121.866740
11
90.624452
21
127.266474
0
LINE
8
Layer 1
10
90.624452
20
127.266474
11
91.254280
21
128.722910
0
LINE
8
Layer 1
10
91.254280
20
128.722910
11
91.502544
21
129.728570
0
LINE
8
Layer 1
10
91.502544
20
129.728570
11
91.556544
21
130.184682
0
LINE
8
Layer 1
10
91.556544
20
130.184682
11
91.409304
21
130.570212
0
LINE
8
Layer 1
10
91.409304
20
130.570212
11
91.122236
21
131.035274
0
LINE
8
Layer 1
10
91.122236
20
131.035274
11
90.605196
21
131.431716
0
LINE
8
Layer 1
10
90.605196
20
131.431716
11
89.797487
21
131.772038
0
LINE
8
Layer 1
10
89.797487
20
131.772038
11
88.638413
21
132.068743
0
LINE
8
Layer 1
10
88.638413
20
132.068743
11
85.023375
21
132.581303
0
LINE
8
Layer 1
10
85.023375
20
132.581303
11
79.274504
21
133.069402
0
LINE
8
Layer 1
10
79.274504
20
133.069402
11
77.327464
21
133.211489
0
LINE
8
Layer 1
10
77.327464
20
133.211489
11
72.667904
21
133.258179
0
LINE
8
Layer 1
10
72.667904
20
133.258179
11
68.008344
21
133.304869
0
LINE
8
Layer 1
10
68.008344
20
133.304869
11
65.941774
21
133.201730
0
LINE
8
Layer 1
10
65.941774
20
133.201730
11
60.141347
21
132.746657
0
LINE
8
Layer 1
10
60.141347
20
132.746657
11
55.668374
21
132.041010
0
LINE
8
Layer 1
10
55.668374
20
132.041010
11
53.181933
21
131.334046
0
LINE
8
Layer 1
10
53.181933
20
131.334046
11
50.327638
21
130.261044
0
LINE
8
Layer 1
10
50.327638
20
130.261044
11
47.327811
21
128.913913
0
LINE
8
Layer 1
10
47.327811
20
128.913913
11
44.404774
21
127.384560
0
LINE
8
Layer 1
10
44.404774
20
127.384560
11
41.577704
21
125.805980
0
LINE
8
Layer 1
10
41.577704
20
125.805980
11
40.706059
21
125.262757
0
LINE
8
Layer 1
10
40.706059
20
125.262757
11
40.007097
21
124.608480
0
LINE
8
Layer 1
10
40.007097
20
124.608480
11
39.338940
21
123.678765
0
LINE
8
Layer 1
10
39.338940
20
123.678765
11
38.559714
21
122.309230
0
LINE
8
Layer 1
10
38.559714
20
122.309230
11
37.296114
21
120.096690
0
LINE
8
Layer 1
10
37.296114
20
120.096690
11
36.310928
21
118.296465
0
LINE
8
Layer 1
10
36.310928
20
118.296465
11
35.729644
21
116.822130
0
LINE
8
Layer 1
10
35.729644
20
116.822130
11
34.158474
21
112.529790
0
LINE
8
Layer 1
10
34.158474
20
112.529790
11
33.255813
21
109.972629
0
LINE
8
Layer 1
10
33.255813
20
109.972629
11
32.351930
21
106.802191
0
LINE
8
Layer 1
10
32.351930
20
106.802191
11
31.528284
21
103.331628
0
LINE
8
Layer 1
10
31.528284
20
103.331628
11
30.866334
21
99.874090
0
LINE
8
Layer 1
10
30.866334
20
99.874090
11
30.617040
21
98.264842
0
LINE
8
Layer 1
10
30.617040
20
98.264842
11
30.478819
21
96.252798
0
LINE
8
Layer 1
10
30.478819
20
96.252798
11
30.284468
21
84.297790
0
LINE
8
Layer 1
10
30.284468
20
84.297790
11
30.142047
21
77.410141
0
LINE
8
Layer 1
10
30.142047
20
77.410141
11
29.749447
21
72.925290
0
LINE
8
Layer 1
10
29.749447
20
72.925290
11
29.473448
21
70.402990
0
LINE
8
Layer 1
10
29.473448
20
70.402990
11
29.520378
21
69.824220
0
LINE
8
Layer 1
10
29.520378
20
69.824220
11
29.567308
21
69.245460
0
LINE
8
Layer 1
10
29.567308
20
69.245460
11
29.934436
21
68.319690
0
LINE
8
Layer 1
10
29.934436
20
68.319690
11
30.431794
21
67.191980
0
LINE
8
Layer 1
10
30.431794
20
67.191980
11
30.562024
21
66.990040
0
LINE
8
Layer 1
10
30.562024
20
66.990040
11
30.659854
21
67.050540
0
LINE
8
Layer 1
10
30.659854
20
67.050540
11
30.757684
21
67.111040
0
LINE
8
Layer 1
10
30.757684
20
67.111040
11
30.698564
21
69.111060
0
LINE
8
Layer 1
10
30.698564
20
69.111060
11
30.639444
21
71.111080
0
LINE
8
Layer 1
10
30.639444
20
71.111080
11
30.729654
21
72.044070
0
LINE
8
Layer 1
10
30.729654
20
72.044070
11
31.035215
21
73.673119
0
LINE
8
Layer 1
10
31.035215
20
73.673119
11
31.627838
21
75.114870
0
LINE
8
Layer 1
10
31.627838
20
75.114870
11
32.524036
21
76.399564
0
LINE
8
Layer 1
10
32.524036
20
76.399564
11
33.740324
21
77.557440
0
LINE
8
Layer 1
10
33.740324
20
77.557440
11
34.404087
21
78.088000
0
LINE
8
Layer 1
10
34.404087
20
78.088000
11
35.112101
21
78.420560
0
LINE
8
Layer 1
10
35.112101
20
78.420560
11
35.820115
21
78.753110
0
LINE
8
Layer 1
10
35.820115
20
78.753110
11
36.570129
21
78.904590
0
LINE
8
Layer 1
10
36.570129
20
78.904590
11
37.320143
21
79.056070
0
LINE
8
Layer 1
10
37.320143
20
79.056070
11
38.143515
21
79.001970
0
LINE
8
Layer 1
10
38.143515
20
79.001970
11
38.966888
21
78.947870
0
LINE
8
Layer 1
10
38.966888
20
78.947870
11
39.783048
21
78.674880
0
LINE
8
Layer 1
10
39.783048
20
78.674880
11
41.458240
21
77.892332
0
LINE
8
Layer 1
10
41.458240
20
77.892332
11
42.953617
21
76.753032
0
LINE
8
Layer 1
10
42.953617
20
76.753032
11
44.243481
21
75.306887
0
LINE
8
Layer 1
10
44.243481
20
75.306887
11
45.302134
21
73.603805
0
LINE
8
Layer 1
10
45.302134
20
73.603805
11
46.103879
21
71.693695
0
LINE
8
Layer 1
10
46.103879
20
71.693695
11
46.623018
21
69.626466
0
LINE
8
Layer 1
10
46.623018
20
69.626466
11
46.833854
21
67.452024
0
LINE
8
Layer 1
10
46.833854
20
67.452024
11
46.710688
21
65.220280
0
LINE
8
Layer 1
10
46.710688
20
65.220280
11
46.172805
21
63.270704
0
LINE
8
Layer 1
10
46.172805
20
63.270704
11
45.167701
21
61.285336
0
LINE
8
Layer 1
10
45.167701
20
61.285336
11
43.875400
21
59.555316
0
LINE
8
Layer 1
10
43.875400
20
59.555316
11
42.475928
21
58.371780
0
LINE
8
Layer 1
10
42.475928
20
58.371780
11
42.051601
21
58.124060
0
LINE
8
Layer 1
10
42.051601
20
58.124060
11
41.281154
21
58.040460
0
LINE
8
Layer 1
10
41.281154
20
58.040460
11
40.510706
21
57.956860
0
LINE
8
Layer 1
10
40.510706
20
57.956860
11
40.311578
21
57.827880
0
LINE
8
Layer 1
10
40.311578
20
57.827880
11
40.112449
21
57.698910
0
LINE
8
Layer 1
10
40.112449
20
57.698910
11
40.112500
21
57.493500
0
LINE
8
Layer 1
10
40.112500
20
57.493500
11
40.620114
21
56.559907
0
LINE
8
Layer 1
10
40.620114
20
56.559907
11
41.919710
21
55.034074
0
LINE
8
Layer 1
10
41.919710
20
55.034074
11
43.676416
21
53.275829
0
LINE
8
Layer 1
10
43.676416
20
53.275829
11
45.555360
21
51.645000
0
LINE
8
Layer 1
10
45.555360
20
51.645000
11
48.542000
21
49.558478
0
LINE
8
Layer 1
10
48.542000
20
49.558478
11
52.055410
21
47.741410
0
LINE
8
Layer 1
10
52.055410
20
47.741410
11
56.666445
21
45.939515
0
LINE
8
Layer 1
10
56.666445
20
45.939515
11
62.945960
21
43.898510
0
LINE
8
Layer 1
10
62.945960
20
43.898510
11
66.669607
21
42.831945
0
LINE
8
Layer 1
10
66.669607
20
42.831945
11
70.274641
21
41.954840
0
LINE
8
Layer 1
10
70.274641
20
41.954840
11
73.734879
21
41.270389
0
LINE
8
Layer 1
10
73.734879
20
41.270389
11
77.024135
21
40.781784
0
LINE
8
Layer 1
10
77.024135
20
40.781784
11
80.116226
21
40.492217
0
LINE
8
Layer 1
10
80.116226
20
40.492217
11
82.984966
21
40.404880
0
LINE
8
Layer 1
10
82.984966
20
40.404880
11
85.604172
21
40.522967
0
LINE
8
Layer 1
10
85.604172
20
40.522967
11
87.947660
21
40.849670
0
LINE
8
Layer 1
10
87.947660
20
40.849670
11
91.620078
21
41.705752
0
LINE
8
Layer 1
10
91.620078
20
41.705752
11
95.713070
21
42.888774
0
LINE
8
Layer 1
10
95.713070
20
42.888774
11
100.043975
21
44.327710
0
LINE
8
Layer 1
10
100.043975
20
44.327710
11
104.430127
21
45.951534
0
LINE
8
Layer 1
10
104.430127
20
45.951534
11
108.688866
21
47.689218
0
LINE
8
Layer 1
10
108.688866
20
47.689218
11
112.637526
21
49.469736
0
LINE
8
Layer 1
10
112.637526
20
49.469736
11
116.093445
21
51.222063
0
LINE
8
Layer 1
10
116.093445
20
51.222063
11
118.873960
21
52.875170
0
LINE
8
Layer 1
10
118.873960
20
52.875170
11
119.706919
21
53.381160
0
LINE
8
Layer 1
10
119.706919
20
53.381160
11
120.086850
21
53.484018
0
LINE
8
Layer 1
10
120.086850
20
53.484018
11
120.024933
21
53.176546
0
LINE
8
Layer 1
10
120.024933
20
53.176546
11
119.532350
21
52.451550
0
LINE
8
Layer 1
10
119.532350
20
52.451550
11
117.410351
21
50.104991
0
LINE
8
Layer 1
10
117.410351
20
50.104991
11
114.731830
21
48.017340
0
LINE
8
Layer 1
10
114.731830
20
48.017340
11
113.491610
21
47.189380
0
LINE
8
Layer 1
10
113.491610
20
47.189380
11
111.959350
21
46.432870
0
LINE
8
Layer 1
10
111.959350
20
46.432870
11
108.626902
21
44.970937
0
LINE
8
Layer 1
10
108.626902
20
44.970937
11
104.432024
21
43.396502
0
LINE
8
Layer 1
10
104.432024
20
43.396502
11
99.942484
21
41.909709
0
LINE
8
Layer 1
10
99.942484
20
41.909709
11
95.726050
21
40.710700
0
LINE
8
Layer 1
10
95.726050
20
40.710700
11
91.935282
21
39.860457
0
LINE
8
Layer 1
10
91.935282
20
39.860457
11
88.229398
21
39.262424
0
LINE
8
Layer 1
10
88.229398
20
39.262424
11
84.579819
21
38.916867
0
LINE
8
Layer 1
10
84.579819
20
38.916867
11
80.957962
21
38.824051
0
LINE
8
Layer 1
10
80.957962
20
38.824051
11
77.335248
21
38.984243
0
LINE
8
Layer 1
10
77.335248
20
38.984243
11
73.683095
21
39.397708
0
LINE
8
Layer 1
10
73.683095
20
39.397708
11
69.972923
21
40.064712
0
LINE
8
Layer 1
10
69.972923
20
40.064712
11
66.176150
21
40.985520
0
LINE
8
Layer 1
10
66.176150
20
40.985520
11
60.992559
21
42.481222
0
LINE
8
Layer 1
10
60.992559
20
42.481222
11
56.045330
21
44.072967
0
LINE
8
Layer 1
10
56.045330
20
44.072967
11
51.540361
21
45.690847
0
LINE
8
Layer 1
10
51.540361
20
45.690847
11
47.683550
21
47.264950
0
LINE
8
Layer 1
10
47.683550
20
47.264950
11
46.625770
21
47.731800
0
LINE
8
Layer 1
10
46.625770
20
47.731800
11
46.223266
21
47.769800
0
LINE
8
Layer 1
10
46.223266
20
47.769800
11
45.820762
21
47.807800
0
LINE
8
Layer 1
10
45.820762
20
47.807800
11
45.625995
21
47.599110
0
LINE
8
Layer 1
10
45.625995
20
47.599110
11
45.289222
21
46.860480
0
LINE
8
Layer 1
10
45.289222
20
46.860480
11
45.147215
21
46.330530
0
LINE
8
Layer 1
10
45.147215
20
46.330530
11
45.067065
21
44.427750
0
LINE
8
Layer 1
10
45.067065
20
44.427750
11
44.982305
21
39.250400
0
LINE
8
Layer 1
10
44.982305
20
39.250400
11
44.899834
21
33.546393
0
LINE
8
Layer 1
10
44.899834
20
33.546393
11
44.681917
21
28.414307
0
LINE
8
Layer 1
10
44.681917
20
28.414307
11
44.348004
21
24.184093
0
LINE
8
Layer 1
10
44.348004
20
24.184093
11
43.917545
21
21.185700
0
LINE
8
Layer 1
10
43.917545
20
21.185700
11
43.103939
21
15.620420
0
LINE
8
Layer 1
10
43.103939
20
15.620420
11
42.988705
21
14.381390
0
LINE
8
Layer 1
10
42.988705
20
14.381390
11
42.990505
21
11.151080
0
LINE
8
Layer 1
10
42.990505
20
11.151080
11
42.992305
21
7.920770
0
LINE
8
Layer 1
10
42.992305
20
7.920770
11
43.141579
21
7.035750
0
LINE
8
Layer 1
10
43.141579
20
7.035750
11
43.479412
21
5.588794
0
LINE
8
Layer 1
10
43.479412
20
5.588794
11
44.134359
21
4.301610
0
LINE
8
Layer 1
10
44.134359
20
4.301610
11
44.812940
21
3.018340
0
LINE
8
Layer 1
10
44.812940
20
3.018340
11
45.353521
21
1.831530
0
LINE
8
Layer 1
10
45.353521
20
1.831530
11
45.790263
21
0.963890
0
LINE
8
Layer 1
10
45.790263
20
0.963890
11
45.688667
21
0.841480
0
LINE
8
Layer 1
10
45.688667
20
0.841480
11
45.587069
21
0.719060
0
LINE
8
Layer 1
10
45.587069
20
0.719060
11
45.084379
21
0.666560
0
LINE
8
Layer 1
10
45.084379
20
0.666560
11
44.265968
21
0.574060
0
LINE
8
Layer 1
10
44.265968
20
0.574060
11
43.950247
21
0.533960
0
LINE
8
Layer 1
10
43.950247
20
0.533960
11
43.857147
21
0.627060
0
LINE
8
Layer 1
10
43.857147
20
0.627060
11
43.857600
21
0.627080
0
LINE
8
Layer 1
10
141.226000
20
12.844480
11
140.163980
21
13.542080
0
LINE
8
Layer 1
10
140.163980
20
13.542080
11
139.632970
21
13.789800
0
LINE
8
Layer 1
10
139.632970
20
13.789800
11
139.101960
21
14.733350
0
LINE
8
Layer 1
10
139.101960
20
14.733350
11
137.859692
21
16.632604
0
LINE
8
Layer 1
10
137.859692
20
16.632604
11
136.274016
21
18.579224
0
LINE
8
Layer 1
10
136.274016
20
18.579224
11
134.467198
21
20.436134
0
LINE
8
Layer 1
10
134.467198
20
20.436134
11
132.561500
21
22.066260
0
LINE
8
Layer 1
10
132.561500
20
22.066260
11
131.290160
21
23.057690
0
LINE
8
Layer 1
10
131.290160
20
23.057690
11
131.074650
21
23.237830
0
LINE
8
Layer 1
10
131.074650
20
23.237830
11
131.389580
21
24.385220
0
LINE
8
Layer 1
10
131.389580
20
24.385220
11
131.955023
21
26.705762
0
LINE
8
Layer 1
10
131.955023
20
26.705762
11
132.361915
21
28.995696
0
LINE
8
Layer 1
10
132.361915
20
28.995696
11
132.747810
21
33.815370
0
LINE
8
Layer 1
10
132.747810
20
33.815370
11
132.798310
21
35.903010
0
LINE
8
Layer 1
10
132.798310
20
35.903010
11
132.692960
21
36.909220
0
LINE
8
Layer 1
10
132.692960
20
36.909220
11
132.587600
21
37.915430
0
LINE
8
Layer 1
10
132.587600
20
37.915430
11
132.191660
21
39.460110
0
LINE
8
Layer 1
10
132.191660
20
39.460110
11
131.243691
21
42.709681
0
LINE
8
Layer 1
10
131.243691
20
42.709681
11
130.073281
21
45.785024
0
LINE
8
Layer 1
10
130.073281
20
45.785024
11
128.542153
21
49.008535
0
LINE
8
Layer 1
10
128.542153
20
49.008535
11
126.512030
21
52.702610
0
LINE
8
Layer 1
10
126.512030
20
52.702610
11
125.193983
21
54.938691
0
LINE
8
Layer 1
10
125.193983
20
54.938691
11
124.395763
21
56.033768
0
LINE
8
Layer 1
10
124.395763
20
56.033768
11
124.108286
21
56.234603
0
LINE
8
Layer 1
10
124.108286
20
56.234603
11
123.850806
21
56.247598
0
LINE
8
Layer 1
10
123.850806
20
56.247598
11
123.292550
21
55.839940
0
LINE
8
Layer 1
10
123.292550
20
55.839940
11
121.979088
21
54.809288
0
LINE
8
Layer 1
10
121.979088
20
54.809288
11
121.469001
21
54.564910
0
LINE
8
Layer 1
10
121.469001
20
54.564910
11
121.177080
21
54.573260
0
LINE
8
Layer 1
10
121.177080
20
54.573260
11
121.098280
21
54.652060
0
LINE
8
Layer 1
10
121.098280
20
54.652060
11
121.499680
21
55.226110
0
LINE
8
Layer 1
10
121.499680
20
55.226110
11
122.222473
21
56.383738
0
LINE
8
Layer 1
10
122.222473
20
56.383738
11
122.597550
21
57.268950
0
LINE
8
Layer 1
10
122.597550
20
57.268950
11
122.699030
21
57.675720
0
LINE
8
Layer 1
10
122.699030
20
57.675720
11
122.604630
21
58.026450
0
LINE
8
Layer 1
10
122.604630
20
58.026450
11
122.120242
21
58.934670
0
LINE
8
Layer 1
10
122.120242
20
58.934670
11
120.837360
21
60.386670
0
LINE
8
Layer 1
10
120.837360
20
60.386670
11
119.477126
21
61.977902
0
LINE
8
Layer 1
10
119.477126
20
61.977902
11
118.488429
21
63.536450
0
LINE
8
Layer 1
10
118.488429
20
63.536450
11
117.828732
21
65.144011
0
LINE
8
Layer 1
10
117.828732
20
65.144011
11
117.455500
21
66.882280
0
LINE
8
Layer 1
10
117.455500
20
66.882280
11
117.351850
21
67.659400
0
LINE
8
Layer 1
10
117.351850
20
67.659400
11
117.402950
21
68.809920
0
LINE
8
Layer 1
10
117.402950
20
68.809920
11
117.607725
21
70.536910
0
LINE
8
Layer 1
10
117.607725
20
70.536910
11
118.066240
21
72.211434
0
LINE
8
Layer 1
10
118.066240
20
72.211434
11
118.778487
21
73.833463
0
LINE
8
Layer 1
10
118.778487
20
73.833463
11
119.744460
21
75.402970
0
LINE
8
Layer 1
10
119.744460
20
75.402970
11
120.339610
21
76.243410
0
LINE
8
Layer 1
10
120.339610
20
76.243410
11
121.313130
21
77.222680
0
LINE
8
Layer 1
10
121.313130
20
77.222680
11
122.286650
21
78.201940
0
LINE
8
Layer 1
10
122.286650
20
78.201940
11
122.925970
21
78.622170
0
LINE
8
Layer 1
10
122.925970
20
78.622170
11
124.091051
21
79.248228
0
LINE
8
Layer 1
10
124.091051
20
79.248228
11
125.252300
21
79.569020
0
LINE
8
Layer 1
10
125.252300
20
79.569020
11
125.884750
21
79.667120
0
LINE
8
Layer 1
10
125.884750
20
79.667120
11
126.475250
21
79.565740
0
LINE
8
Layer 1
10
126.475250
20
79.565740
11
127.065740
21
79.464350
0
LINE
8
Layer 1
10
127.065740
20
79.464350
11
127.727800
21
79.138950
0
LINE
8
Layer 1
10
127.727800
20
79.138950
11
128.389880
21
78.813560
0
LINE
8
Layer 1
10
128.389880
20
78.813560
11
129.103880
21
78.104060
0
LINE
8
Layer 1
10
129.103880
20
78.104060
11
129.817890
21
77.394560
0
LINE
8
Layer 1
10
129.817890
20
77.394560
11
130.313120
21
76.642290
0
LINE
8
Layer 1
10
130.313120
20
76.642290
11
131.349400
21
74.805880
0
LINE
8
Layer 1
10
131.349400
20
74.805880
11
131.991130
21
73.721740
0
LINE
8
Layer 1
10
131.991130
20
73.721740
11
132.092000
21
73.721800
0
LINE
8
Layer 1
10
132.092000
20
73.721800
11
132.038800
21
75.867960
0
LINE
8
Layer 1
10
132.038800
20
75.867960
11
131.985600
21
78.014130
0
LINE
8
Layer 1
10
131.985600
20
78.014130
11
131.763720
21
80.536430
0
LINE
8
Layer 1
10
131.763720
20
80.536430
11
131.388360
21
87.302090
0
LINE
8
Layer 1
10
131.388360
20
87.302090
11
131.535809
21
87.428652
0
LINE
8
Layer 1
10
131.535809
20
87.428652
11
131.667020
21
87.178220
0
LINE
8
Layer 1
10
131.667020
20
87.178220
11
131.989214
21
86.580849
0
LINE
8
Layer 1
10
131.989214
20
86.580849
11
132.225348
21
86.520575
0
LINE
8
Layer 1
10
132.225348
20
86.520575
11
132.495030
21
86.630150
0
LINE
8
Layer 1
10
132.495030
20
86.630150
11
132.951210
21
86.855560
0
LINE
8
Layer 1
10
132.951210
20
86.855560
11
133.172460
21
86.916860
0
LINE
8
Layer 1
10
133.172460
20
86.916860
11
133.559290
21
87.377340
0
LINE
8
Layer 1
10
133.559290
20
87.377340
11
136.798929
21
90.847424
0
LINE
8
Layer 1
10
136.798929
20
90.847424
11
139.518300
21
93.382220
0
LINE
8
Layer 1
10
139.518300
20
93.382220
11
140.175535
21
94.030409
0
LINE
8
Layer 1
10
140.175535
20
94.030409
11
140.955890
21
95.183460
0
LINE
8
Layer 1
10
140.955890
20
95.183460
11
141.923027
21
96.586509
0
LINE
8
Layer 1
10
141.923027
20
96.586509
11
143.258803
21
98.081684
0
LINE
8
Layer 1
10
143.258803
20
98.081684
11
147.982550
21
102.307850
0
LINE
8
Layer 1
10
147.982550
20
102.307850
11
148.980720
21
103.148620
0
LINE
8
Layer 1
10
148.980720
20
103.148620
11
149.240870
21
103.539920
0
LINE
8
Layer 1
10
149.240870
20
103.539920
11
149.501030
21
103.931230
0
LINE
8
Layer 1
10
149.501030
20
103.931230
11
149.501000
21
104.169000
0
LINE
8
Layer 1
10
149.501000
20
104.169000
11
149.218330
21
105.016720
0
LINE
8
Layer 1
10
149.218330
20
105.016720
11
148.935650
21
105.626340
0
LINE
8
Layer 1
10
148.935650
20
105.626340
11
148.870650
21
107.307880
0
LINE
8
Layer 1
10
148.870650
20
107.307880
11
148.744890
21
109.232050
0
LINE
8
Layer 1
10
148.744890
20
109.232050
11
148.684090
21
109.474700
0
LINE
8
Layer 1
10
148.684090
20
109.474700
11
149.004020
21
110.148380
0
LINE
8
Layer 1
10
149.004020
20
110.148380
11
149.323960
21
110.870850
0
LINE
8
Layer 1
10
149.323960
20
110.870850
11
149.102373
21
110.710715
0
LINE
8
Layer 1
10
149.102373
20
110.710715
11
148.728550
21
110.202040
0
LINE
8
Layer 1
10
148.728550
20
110.202040
11
148.505490
21
109.821430
0
LINE
8
Layer 1
10
148.505490
20
109.821430
11
148.363170
21
109.848830
0
LINE
8
Layer 1
10
148.363170
20
109.848830
11
147.876420
21
110.445880
0
LINE
8
Layer 1
10
147.876420
20
110.445880
11
147.531980
21
111.015520
0
LINE
8
Layer 1
10
147.531980
20
111.015520
11
147.520880
21
111.285740
0
LINE
8
Layer 1
10
147.520880
20
111.285740
11
147.509680
21
111.555960
0
LINE
8
Layer 1
10
147.509680
20
111.555960
11
148.063360
21
111.821470
0
LINE
8
Layer 1
10
148.063360
20
111.821470
11
148.617020
21
112.086970
0
LINE
8
Layer 1
10
148.617020
20
112.086970
11
149.281140
21
112.662230
0
LINE
8
Layer 1
10
149.281140
20
112.662230
11
151.439487
21
114.862640
0
LINE
8
Layer 1
10
151.439487
20
114.862640
11
154.080910
21
118.162310
0
LINE
8
Layer 1
10
154.080910
20
118.162310
11
156.661310
21
121.322540
0
LINE
8
Layer 1
10
156.661310
20
121.322540
11
161.268670
21
126.778260
0
LINE
8
Layer 1
10
161.268670
20
126.778260
11
163.837342
21
129.963709
0
LINE
8
Layer 1
10
163.837342
20
129.963709
11
165.639294
21
132.405847
0
LINE
8
Layer 1
10
165.639294
20
132.405847
11
166.740871
21
134.201505
0
LINE
8
Layer 1
10
166.740871
20
134.201505
11
167.208420
21
135.447510
0
LINE
8
Layer 1
10
167.208420
20
135.447510
11
167.314330
21
136.063100
0
LINE
8
Layer 1
10
167.314330
20
136.063100
11
167.263730
21
137.040541
0
LINE
8
Layer 1
10
167.263730
20
137.040541
11
167.213130
21
138.017982
0
LINE
8
Layer 1
10
167.213130
20
138.017982
11
166.636980
21
140.718802
0
LINE
8
Layer 1
10
166.636980
20
140.718802
11
165.784740
21
145.011132
0
LINE
8
Layer 1
10
165.784740
20
145.011132
11
165.215189
21
147.797136
0
LINE
8
Layer 1
10
165.215189
20
147.797136
11
164.539434
21
150.123222
0
LINE
8
Layer 1
10
164.539434
20
150.123222
11
163.717216
21
152.105163
0
LINE
8
Layer 1
10
163.717216
20
152.105163
11
162.708280
21
153.858732
0
LINE
8
Layer 1
10
162.708280
20
153.858732
11
162.119120
21
154.744807
0
LINE
8
Layer 1
10
162.119120
20
154.744807
11
161.275020
21
155.585573
0
LINE
8
Layer 1
10
161.275020
20
155.585573
11
159.930203
21
156.731109
0
LINE
8
Layer 1
10
159.930203
20
156.731109
11
158.411940
21
157.675650
0
LINE
8
Layer 1
10
158.411940
20
157.675650
11
156.765615
21
158.395331
0
LINE
8
Layer 1
10
156.765615
20
158.395331
11
155.036610
21
158.866283
0
LINE
8
Layer 1
10
155.036610
20
158.866283
11
154.598390
21
158.950833
0
LINE
8
Layer 1
10
154.598390
20
158.950833
11
154.148520
21
158.820052
0
LINE
8
Layer 1
10
154.148520
20
158.820052
11
153.344358
21
158.434133
0
LINE
8
Layer 1
10
153.344358
20
158.434133
11
152.062127
21
157.447108
0
LINE
8
Layer 1
10
152.062127
20
157.447108
11
146.359160
21
152.227262
0
LINE
8
Layer 1
10
146.359160
20
152.227262
11
138.516960
21
144.718282
0
LINE
8
Layer 1
10
138.516960
20
144.718282
11
137.406430
21
143.565572
0
LINE
8
Layer 1
10
137.406430
20
143.565572
11
137.147950
21
143.070909
0
LINE
8
Layer 1
10
137.147950
20
143.070909
11
136.806268
21
142.603702
0
LINE
8
Layer 1
10
136.806268
20
142.603702
11
136.594200
21
142.996209
0
LINE
8
Layer 1
10
136.594200
20
142.996209
11
136.483480
21
143.416592
0
LINE
8
Layer 1
10
136.483480
20
143.416592
11
136.006600
21
144.124606
0
LINE
8
Layer 1
10
136.006600
20
144.124606
11
135.251510
21
145.009624
0
LINE
8
Layer 1
10
135.251510
20
145.009624
11
134.973310
21
145.186627
0
LINE
8
Layer 1
10
134.973310
20
145.186627
11
134.748430
21
145.624418
0
LINE
8
Layer 1
10
134.748430
20
145.624418
11
134.523560
21
146.062209
0
LINE
8
Layer 1
10
134.523560
20
146.062209
11
133.538220
21
147.073069
0
LINE
8
Layer 1
10
133.538220
20
147.073069
11
131.807486
21
148.699778
0
LINE
8
Layer 1
10
131.807486
20
148.699778
11
130.132740
21
149.982799
0
LINE
8
Layer 1
10
130.132740
20
149.982799
11
128.774625
21
151.066939
0
LINE
8
Layer 1
10
128.774625
20
151.066939
11
127.655550
21
152.266759
0
LINE
8
Layer 1
10
127.655550
20
152.266759
11
126.591806
21
153.480167
0
LINE
8
Layer 1
10
126.591806
20
153.480167
11
125.561250
21
154.370289
0
LINE
8
Layer 1
10
125.561250
20
154.370289
11
122.375190
21
156.831789
0
LINE
8
Layer 1
10
122.375190
20
156.831789
11
121.162450
21
157.742650
0
LINE
8
Layer 1
10
121.162450
20
157.742650
11
120.657730
21
158.063730
0
LINE
8
Layer 1
10
120.657730
20
158.063730
11
120.144680
21
158.186672
0
LINE
8
Layer 1
10
120.144680
20
158.186672
11
119.350565
21
158.431683
0
LINE
8
Layer 1
10
119.350565
20
158.431683
11
118.593200
21
158.891478
0
LINE
8
Layer 1
10
118.593200
20
158.891478
11
117.454521
21
159.566056
0
LINE
8
Layer 1
10
117.454521
20
159.566056
11
116.316720
21
160.009698
0
LINE
8
Layer 1
10
116.316720
20
160.009698
11
115.187200
21
160.418898
0
LINE
8
Layer 1
10
115.187200
20
160.418898
11
114.267230
21
160.930236
0
LINE
8
Layer 1
10
114.267230
20
160.930236
11
113.641871
21
161.230738
0
LINE
8
Layer 1
10
113.641871
20
161.230738
11
113.025790
21
161.074620
0
LINE
8
Layer 1
10
113.025790
20
161.074620
11
112.491711
21
160.905745
0
LINE
8
Layer 1
10
112.491711
20
160.905745
11
111.994929
21
160.909001
0
LINE
8
Layer 1
10
111.994929
20
160.909001
11
111.516092
21
161.088001
0
LINE
8
Layer 1
10
111.516092
20
161.088001
11
111.035850
21
161.446360
0
LINE
8
Layer 1
10
111.035850
20
161.446360
11
110.625120
21
161.824941
0
LINE
8
Layer 1
10
110.625120
20
161.824941
11
109.524720
21
161.797791
0
LINE
8
Layer 1
10
109.524720
20
161.797791
11
108.424310
21
161.770641
0
LINE
8
Layer 1
10
108.424310
20
161.770641
11
108.009850
21
161.968489
0
LINE
8
Layer 1
10
108.009850
20
161.968489
11
107.595400
21
162.166336
0
LINE
8
Layer 1
10
107.595400
20
162.166336
11
106.973700
21
162.814281
0
LINE
8
Layer 1
10
106.973700
20
162.814281
11
106.272175
21
163.415853
0
LINE
8
Layer 1
10
106.272175
20
163.415853
11
105.515600
21
163.152471
0
LINE
8
Layer 1
10
105.515600
20
163.152471
11
104.675790
21
162.842714
0
LINE
8
Layer 1
10
104.675790
20
162.842714
11
104.451000
21
162.843000
0
LINE
8
Layer 1
10
104.451000
20
162.843000
11
103.961420
21
163.241774
0
LINE
8
Layer 1
10
103.961420
20
163.241774
11
103.106065
21
163.782298
0
LINE
8
Layer 1
10
103.106065
20
163.782298
11
101.755050
21
164.140390
0
LINE
8
Layer 1
10
101.755050
20
164.140390
11
100.693870
21
164.361834
0
LINE
8
Layer 1
10
100.693870
20
164.361834
11
100.029270
21
164.673065
0
LINE
8
Layer 1
10
100.029270
20
164.673065
11
99.364650
21
164.984297
0
LINE
8
Layer 1
10
99.364650
20
164.984297
11
98.251920
21
164.928997
0
LINE
8
Layer 1
10
98.251920
20
164.928997
11
97.139190
21
164.873697
0
LINE
8
Layer 1
10
97.139190
20
164.873697
11
96.658890
21
164.975528
0
LINE
8
Layer 1
10
96.658890
20
164.975528
11
95.630031
21
165.381084
0
LINE
8
Layer 1
10
95.630031
20
165.381084
11
94.997570
21
166.173028
0
LINE
8
Layer 1
10
94.997570
20
166.173028
11
94.689860
21
166.586018
0
LINE
8
Layer 1
10
94.689860
20
166.586018
11
94.565360
21
166.633788
0
LINE
8
Layer 1
10
94.565360
20
166.633788
11
94.044450
21
166.287455
0
LINE
8
Layer 1
10
94.044450
20
166.287455
11
93.523540
21
165.941123
0
LINE
8
Layer 1
10
93.523540
20
165.941123
11
93.163960
21
165.940858
0
LINE
8
Layer 1
10
93.163960
20
165.940858
11
92.804390
21
165.940592
0
LINE
8
Layer 1
10
92.804390
20
165.940592
11
92.581060
21
166.183972
0
LINE
8
Layer 1
10
92.581060
20
166.183972
11
92.123720
21
166.838407
0
LINE
8
Layer 1
10
92.123720
20
166.838407
11
91.615700
21
167.480045
0
LINE
8
Layer 1
10
91.615700
20
167.480045
11
91.341660
21
167.710627
0
LINE
8
Layer 1
10
91.341660
20
167.710627
11
91.109600
21
167.711000
0
LINE
8
Layer 1
10
91.109600
20
167.711000
11
90.877800
21
167.711000
0
LINE
8
Layer 1
10
90.877800
20
167.711000
11
90.623290
21
167.467620
0
LINE
8
Layer 1
10
90.623290
20
167.467620
11
90.368770
21
167.224241
0
LINE
8
Layer 1
10
90.368770
20
167.224241
11
89.765820
21
167.230741
0
LINE
8
Layer 1
10
89.765820
20
167.230741
11
89.162860
21
167.237241
0
LINE
8
Layer 1
10
89.162860
20
167.237241
11
88.498100
21
167.565699
0
LINE
8
Layer 1
10
88.498100
20
167.565699
11
87.833360
21
167.894159
0
LINE
8
Layer 1
10
87.833360
20
167.894159
11
87.270950
21
167.699498
0
LINE
8
Layer 1
10
87.270950
20
167.699498
11
86.708530
21
167.504838
0
LINE
8
Layer 1
10
86.708530
20
167.504838
11
86.310280
21
167.514638
0
LINE
8
Layer 1
10
86.310280
20
167.514638
11
85.524760
21
167.661959
0
LINE
8
Layer 1
10
85.524760
20
167.661959
11
84.828150
21
167.799421
0
LINE
8
Layer 1
10
84.828150
20
167.799421
11
84.518800
21
167.799000
0
LINE
8
Layer 1
10
84.518800
20
167.799000
11
83.738350
21
167.348576
0
LINE
8
Layer 1
10
83.738350
20
167.348576
11
82.957900
21
166.898151
0
LINE
8
Layer 1
10
82.957900
20
166.898151
11
82.552820
21
166.892051
0
LINE
8
Layer 1
10
82.552820
20
166.892051
11
82.147740
21
166.885951
0
LINE
8
Layer 1
10
82.147740
20
166.885951
11
81.923370
21
167.096733
0
LINE
8
Layer 1
10
81.923370
20
167.096733
11
81.540980
21
167.663909
0
LINE
8
Layer 1
10
81.540980
20
167.663909
11
81.241470
21
168.137070
0
LINE
8
Layer 1
10
81.241470
20
168.137070
11
81.099990
21
168.253839
0
LINE
8
Layer 1
10
81.099990
20
168.253839
11
80.895200
21
168.147730
0
LINE
8
Layer 1
10
80.895200
20
168.147730
11
80.008620
21
167.383412
0
LINE
8
Layer 1
10
80.008620
20
167.383412
11
79.326810
21
166.725202
0
LINE
8
Layer 1
10
79.326810
20
166.725202
11
79.035100
21
166.753242
0
LINE
8
Layer 1
10
79.035100
20
166.753242
11
78.743380
21
166.781282
0
LINE
8
Layer 1
10
78.743380
20
166.781282
11
78.431940
21
167.415487
0
LINE
8
Layer 1
10
78.431940
20
167.415487
11
77.975479
21
168.195675
0
LINE
8
Layer 1
10
77.975479
20
168.195675
11
77.609330
21
168.418567
0
LINE
8
Layer 1
10
77.609330
20
168.418567
11
77.432000
21
168.419000
0
LINE
8
Layer 1
10
77.432000
20
168.419000
11
76.620054
21
167.572011
0
LINE
8
Layer 1
10
76.620054
20
167.572011
11
75.808108
21
166.725022
0
LINE
8
Layer 1
10
75.808108
20
166.725022
11
75.461465
21
166.753372
0
LINE
8
Layer 1
10
75.461465
20
166.753372
11
75.114822
21
166.781722
0
LINE
8
Layer 1
10
75.114822
20
166.781722
11
74.908593
21
167.423455
0
LINE
8
Layer 1
10
74.908593
20
167.423455
11
74.702363
21
168.065189
0
LINE
8
Layer 1
10
74.702363
20
168.065189
11
74.494979
21
168.117239
0
LINE
8
Layer 1
10
74.494979
20
168.117239
11
74.287595
21
168.169289
0
LINE
8
Layer 1
10
74.287595
20
168.169289
11
73.735630
21
167.794455
0
LINE
8
Layer 1
10
73.735630
20
167.794455
11
72.885928
21
167.341965
0
LINE
8
Layer 1
10
72.885928
20
167.341965
11
72.135140
21
167.179979
0
LINE
8
Layer 1
10
72.135140
20
167.179979
11
71.882900
21
167.180000
0
LINE
8
Layer 1
10
71.882900
20
167.180000
11
71.608202
21
167.442516
0
LINE
8
Layer 1
10
71.608202
20
167.442516
11
71.333505
21
167.705031
0
LINE
8
Layer 1
10
71.333505
20
167.705031
11
71.011620
21
167.565445
0
LINE
8
Layer 1
10
71.011620
20
167.565445
11
69.719771
21
167.292618
0
LINE
8
Layer 1
10
69.719771
20
167.292618
11
67.670481
21
167.116001
0
LINE
8
Layer 1
10
67.670481
20
167.116001
11
65.455124
21
167.066895
0
LINE
8
Layer 1
10
65.455124
20
167.066895
11
63.665070
21
167.176599
0
LINE
8
Layer 1
10
63.665070
20
167.176599
11
63.101026
21
167.258139
0
LINE
8
Layer 1
10
63.101026
20
167.258139
11
62.883446
21
167.462448
0
LINE
8
Layer 1
10
62.883446
20
167.462448
11
62.665867
21
167.666757
0
LINE
8
Layer 1
10
62.665867
20
167.666757
11
62.075713
21
167.656417
0
LINE
8
Layer 1
10
62.075713
20
167.656417
11
61.485559
21
167.646077
0
LINE
8
Layer 1
10
61.485559
20
167.646077
11
60.777545
21
167.452298
0
LINE
8
Layer 1
10
60.777545
20
167.452298
11
59.112275
21
166.820062
0
LINE
8
Layer 1
10
59.112275
20
166.820062
11
57.740495
21
166.287297
0
LINE
8
Layer 1
10
57.740495
20
166.287297
11
57.325975
21
166.192987
0
LINE
8
Layer 1
10
57.325975
20
166.192987
11
56.086955
21
166.252347
0
LINE
8
Layer 1
10
56.086955
20
166.252347
11
54.847935
21
166.311707
0
LINE
8
Layer 1
10
54.847935
20
166.311707
11
54.249245
21
166.171566
0
LINE
8
Layer 1
10
54.249245
20
166.171566
11
51.461435
21
165.223143
0
LINE
8
Layer 1
10
51.461435
20
165.223143
11
49.272315
21
164.414861
0
LINE
8
Layer 1
10
49.272315
20
164.414861
11
48.692428
21
164.040504
0
LINE
8
Layer 1
10
48.692428
20
164.040504
11
47.290634
21
162.945463
0
LINE
8
Layer 1
10
47.290634
20
162.945463
11
44.728128
21
160.517124
0
LINE
8
Layer 1
10
44.728128
20
160.517124
11
41.714786
21
157.654810
0
LINE
8
Layer 1
10
41.714786
20
157.654810
11
40.333638
21
156.539194
0
LINE
8
Layer 1
10
40.333638
20
156.539194
11
39.066258
21
155.433134
0
LINE
8
Layer 1
10
39.066258
20
155.433134
11
38.165000
21
154.591716
0
LINE
8
Layer 1
10
38.165000
20
154.591716
11
38.173204
21
154.699810
0
LINE
8
Layer 1
10
38.173204
20
154.699810
11
38.471737
21
155.153111
0
LINE
8
Layer 1
10
38.471737
20
155.153111
11
39.662717
21
157.267811
0
LINE
8
Layer 1
10
39.662717
20
157.267811
11
39.844522
21
157.754571
0
LINE
8
Layer 1
10
39.844522
20
157.754571
11
40.670787
21
158.683839
0
LINE
8
Layer 1
10
40.670787
20
158.683839
11
43.197737
21
161.186909
0
LINE
8
Layer 1
10
43.197737
20
161.186909
11
45.042062
21
162.970184
0
LINE
8
Layer 1
10
45.042062
20
162.970184
11
46.382823
21
164.580545
0
LINE
8
Layer 1
10
46.382823
20
164.580545
11
47.663024
21
166.637924
0
LINE
8
Layer 1
10
47.663024
20
166.637924
11
49.325667
21
169.762249
0
LINE
8
Layer 1
10
49.325667
20
169.762249
11
51.651081
21
174.035868
0
LINE
8
Layer 1
10
51.651081
20
174.035868
11
53.760080
21
177.339390
0
LINE
8
Layer 1
10
53.760080
20
177.339390
11
55.997204
21
180.158167
0
LINE
8
Layer 1
10
55.997204
20
180.158167
11
58.706997
21
182.977549
0
LINE
8
Layer 1
10
58.706997
20
182.977549
11
61.624920
21
185.551074
0
LINE
8
Layer 1
10
61.624920
20
185.551074
11
62.959644
21
186.396390
0
LINE
8
Layer 1
10
62.959644
20
186.396390
11
64.376673
21
187.002501
0
LINE
8
Layer 1
10
64.376673
20
187.002501
11
65.999856
21
187.410731
0
LINE
8
Layer 1
10
65.999856
20
187.410731
11
67.953039
21
187.662398
0
LINE
8
Layer 1
10
67.953039
20
187.662398
11
73.344797
21
187.861329
0
LINE
8
Layer 1
10
73.344797
20
187.861329
11
77.592877
21
187.911719
0
LINE
8
Layer 1
10
77.592877
20
187.911719
11
79.495657
21
187.810441
0
LINE
8
Layer 1
10
79.495657
20
187.810441
11
83.002249
21
187.474364
0
LINE
8
Layer 1
10
83.002249
20
187.474364
11
87.519227
21
186.512341
0
LINE
8
Layer 1
10
87.519227
20
186.512341
11
93.974307
21
185.154133
0
LINE
8
Layer 1
10
93.974307
20
185.154133
11
96.275985
21
184.865271
0
LINE
8
Layer 1
10
96.275985
20
184.865271
11
98.567827
21
184.739081
0
LINE
8
Layer 1
10
98.567827
20
184.739081
11
100.821577
21
184.607066
0
LINE
8
Layer 1
10
100.821577
20
184.607066
11
101.305287
21
184.525286
0
LINE
8
Layer 1
10
101.305287
20
184.525286
11
101.619377
21
184.272882
0
LINE
8
Layer 1
10
101.619377
20
184.272882
11
102.129997
21
183.958100
0
LINE
8
Layer 1
10
102.129997
20
183.958100
11
102.326537
21
183.895720
0
LINE
8
Layer 1
10
102.326537
20
183.895720
11
102.859097
21
184.134719
0
LINE
8
Layer 1
10
102.859097
20
184.134719
11
103.391657
21
184.373717
0
LINE
8
Layer 1
10
103.391657
20
184.373717
11
104.652557
21
184.325607
0
LINE
8
Layer 1
10
104.652557
20
184.325607
11
105.913467
21
184.277497
0
LINE
8
Layer 1
10
105.913467
20
184.277497
11
107.240997
21
184.044322
0
LINE
8
Layer 1
10
107.240997
20
184.044322
11
110.553254
21
183.361559
0
LINE
8
Layer 1
10
110.553254
20
183.361559
11
113.611559
21
182.539967
0
LINE
8
Layer 1
10
113.611559
20
182.539967
11
116.199409
21
181.645355
0
LINE
8
Layer 1
10
116.199409
20
181.645355
11
118.100297
21
180.743532
0
LINE
8
Layer 1
10
118.100297
20
180.743532
11
120.243237
21
179.203086
0
LINE
8
Layer 1
10
120.243237
20
179.203086
11
122.292799
21
177.178429
0
LINE
8
Layer 1
10
122.292799
20
177.178429
11
124.259465
21
174.650885
0
LINE
8
Layer 1
10
124.259465
20
174.650885
11
126.153721
21
171.601779
0
LINE
8
Layer 1
10
126.153721
20
171.601779
11
127.986048
21
168.012436
0
LINE
8
Layer 1
10
127.986048
20
168.012436
11
129.766931
21
163.864181
0
LINE
8
Layer 1
10
129.766931
20
163.864181
11
131.506853
21
159.138338
0
LINE
8
Layer 1
10
131.506853
20
159.138338
11
133.216297
21
153.816232
0
LINE
8
Layer 1
10
133.216297
20
153.816232
11
134.451068
21
149.911984
0
LINE
8
Layer 1
10
134.451068
20
149.911984
11
135.268727
21
147.818072
0
LINE
8
Layer 1
10
135.268727
20
147.818072
11
135.627207
21
147.084320
0
LINE
8
Layer 1
10
135.627207
20
147.084320
11
136.005957
21
146.694612
0
LINE
8
Layer 1
10
136.005957
20
146.694612
11
136.384707
21
146.304905
0
LINE
8
Layer 1
10
136.384707
20
146.304905
11
136.703267
21
146.245145
0
LINE
8
Layer 1
10
136.703267
20
146.245145
11
137.506309
21
146.296561
0
LINE
8
Layer 1
10
137.506309
20
146.296561
11
138.584167
21
146.897501
0
LINE
8
Layer 1
10
138.584167
20
146.897501
11
140.262123
21
148.282355
0
LINE
8
Layer 1
10
140.262123
20
148.282355
11
142.865457
21
150.685515
0
LINE
8
Layer 1
10
142.865457
20
150.685515
11
151.083485
21
158.308857
0
LINE
8
Layer 1
10
151.083485
20
158.308857
11
157.910207
21
164.401927
0
LINE
8
Layer 1
10
157.910207
20
164.401927
11
162.994154
21
168.659317
0
LINE
8
Layer 1
10
162.994154
20
168.659317
11
165.983857
21
170.775615
0
LINE
8
Layer 1
10
165.983857
20
170.775615
11
166.227437
21
170.901574
0
LINE
8
Layer 1
10
166.227437
20
170.901574
11
166.227000
21
170.820000
0
LINE
8
Layer 1
10
166.227000
20
170.820000
11
162.642680
21
167.754140
0
LINE
8
Layer 1
10
162.642680
20
167.754140
11
159.063085
21
164.789351
0
LINE
8
Layer 1
10
159.063085
20
164.789351
11
157.011690
21
162.866170
0
LINE
8
Layer 1
10
157.011690
20
162.866170
11
156.071300
21
161.892099
0
LINE
8
Layer 1
10
156.071300
20
161.892099
11
155.795090
21
161.327883
0
LINE
8
Layer 1
10
155.795090
20
161.327883
11
155.518870
21
160.763666
0
LINE
8
Layer 1
10
155.518870
20
160.763666
11
155.575970
21
160.291821
0
LINE
8
Layer 1
10
155.575970
20
160.291821
11
155.633170
21
159.819976
0
LINE
8
Layer 1
10
155.633170
20
159.819976
11
155.960930
21
159.613063
0
LINE
8
Layer 1
10
155.960930
20
159.613063
11
157.553810
21
158.772389
0
LINE
8
Layer 1
10
157.553810
20
158.772389
11
159.463923
21
157.720524
0
LINE
8
Layer 1
10
159.463923
20
157.720524
11
161.071611
21
156.609543
0
LINE
8
Layer 1
10
161.071611
20
156.609543
11
162.408561
21
155.392612
0
LINE
8
Layer 1
10
162.408561
20
155.392612
11
163.506458
21
154.022900
0
LINE
8
Layer 1
10
163.506458
20
154.022900
11
164.396985
21
152.453574
0
LINE
8
Layer 1
10
164.396985
20
152.453574
11
165.111830
21
150.637802
0
LINE
8
Layer 1
10
165.111830
20
150.637802
11
165.682676
21
148.528751
0
LINE
8
Layer 1
10
165.682676
20
148.528751
11
166.141210
21
146.079589
0
LINE
8
Layer 1
10
166.141210
20
146.079589
11
168.000510
21
137.531959
0
LINE
8
Layer 1
10
168.000510
20
137.531959
11
168.312001
21
136.756180
0
LINE
8
Layer 1
10
168.312001
20
136.756180
11
168.812860
21
136.453699
0
LINE
8
Layer 1
10
168.812860
20
136.453699
11
169.157360
21
136.350486
0
LINE
8
Layer 1
10
169.157360
20
136.350486
11
169.690520
21
136.941223
0
LINE
8
Layer 1
10
169.690520
20
136.941223
11
170.315809
21
137.536078
0
LINE
8
Layer 1
10
170.315809
20
137.536078
11
170.275915
21
137.225217
0
LINE
8
Layer 1
10
170.275915
20
137.225217
11
168.604524
21
134.497210
0
LINE
8
Layer 1
10
168.604524
20
134.497210
11
165.484228
21
129.978935
0
LINE
8
Layer 1
10
165.484228
20
129.978935
11
161.722910
21
124.892123
0
LINE
8
Layer 1
10
161.722910
20
124.892123
11
159.556450
21
122.060063
0
LINE
8
Layer 1
10
159.556450
20
122.060063
11
158.072639
21
119.978360
0
LINE
8
Layer 1
10
158.072639
20
119.978360
11
157.018615
21
118.193135
0
LINE
8
Layer 1
10
157.018615
20
118.193135
11
156.364341
21
116.645792
0
LINE
8
Layer 1
10
156.364341
20
116.645792
11
156.079780
21
115.277733
0
LINE
8
Layer 1
10
156.079780
20
115.277733
11
156.025880
21
114.640173
0
LINE
8
Layer 1
10
156.025880
20
114.640173
11
156.129490
21
114.027703
0
LINE
8
Layer 1
10
156.129490
20
114.027703
11
156.448360
21
112.751473
0
LINE
8
Layer 1
10
156.448360
20
112.751473
11
157.349541
21
108.271293
0
LINE
8
Layer 1
10
157.349541
20
108.271293
11
159.056770
21
97.219373
0
LINE
8
Layer 1
10
159.056770
20
97.219373
11
161.126309
21
84.407207
0
LINE
8
Layer 1
10
161.126309
20
84.407207
11
163.151079
21
73.955123
0
LINE
8
Layer 1
10
163.151079
20
73.955123
11
164.950967
21
66.697139
0
LINE
8
Layer 1
10
164.950967
20
66.697139
11
165.710295
21
64.526565
0
LINE
8
Layer 1
10
165.710295
20
64.526565
11
166.345860
21
63.467273
0
LINE
8
Layer 1
10
166.345860
20
63.467273
11
166.486906
21
63.223695
0
LINE
8
Layer 1
10
166.486906
20
63.223695
11
166.352860
21
63.042953
0
LINE
8
Layer 1
10
166.352860
20
63.042953
11
166.019080
21
62.581103
0
LINE
8
Layer 1
10
166.019080
20
62.581103
11
165.824610
21
62.172703
0
LINE
8
Layer 1
10
165.824610
20
62.172703
11
165.339740
21
62.177703
0
LINE
8
Layer 1
10
165.339740
20
62.177703
11
161.962070
21
62.445823
0
LINE
8
Layer 1
10
161.962070
20
62.445823
11
161.724320
21
62.494223
0
LINE
8
Layer 1
10
161.724320
20
62.494223
11
161.466880
21
63.041563
0
LINE
8
Layer 1
10
161.466880
20
63.041563
11
160.478971
21
64.667899
0
LINE
8
Layer 1
10
160.478971
20
64.667899
11
159.096840
21
66.553713
0
LINE
8
Layer 1
10
159.096840
20
66.553713
11
155.783460
21
71.067303
0
LINE
8
Layer 1
10
155.783460
20
71.067303
11
141.572960
21
91.071903
0
LINE
8
Layer 1
10
141.572960
20
91.071903
11
140.438720
21
92.465803
0
LINE
8
Layer 1
10
140.438720
20
92.465803
11
140.034130
21
92.838743
0
LINE
8
Layer 1
10
140.034130
20
92.838743
11
139.789000
21
92.838400
0
LINE
8
Layer 1
10
139.789000
20
92.838400
11
139.444916
21
92.755323
0
LINE
8
Layer 1
10
139.444916
20
92.755323
11
138.964861
21
92.423502
0
LINE
8
Layer 1
10
138.964861
20
92.423502
11
136.992420
21
90.510090
0
LINE
8
Layer 1
10
136.992420
20
90.510090
11
133.876610
21
87.218871
0
LINE
8
Layer 1
10
133.876610
20
87.218871
11
133.184770
21
86.312733
0
LINE
8
Layer 1
10
133.184770
20
86.312733
11
132.801610
21
85.583720
0
LINE
8
Layer 1
10
132.801610
20
85.583720
11
132.600460
21
85.094820
0
LINE
8
Layer 1
10
132.600460
20
85.094820
11
132.598460
21
84.470370
0
LINE
8
Layer 1
10
132.598460
20
84.470370
11
132.815000
21
81.859570
0
LINE
8
Layer 1
10
132.815000
20
81.859570
11
133.186540
21
78.235940
0
LINE
8
Layer 1
10
133.186540
20
78.235940
11
133.339460
21
76.598660
0
LINE
8
Layer 1
10
133.339460
20
76.598660
11
133.343460
21
73.722350
0
LINE
8
Layer 1
10
133.343460
20
73.722350
11
133.347460
21
70.846040
0
LINE
8
Layer 1
10
133.347460
20
70.846040
11
133.190290
21
69.804540
0
LINE
8
Layer 1
10
133.190290
20
69.804540
11
132.804772
21
67.880676
0
LINE
8
Layer 1
10
132.804772
20
67.880676
11
132.243916
21
66.171964
0
LINE
8
Layer 1
10
132.243916
20
66.171964
11
131.466035
21
64.575480
0
LINE
8
Layer 1
10
131.466035
20
64.575480
11
130.429440
21
62.988300
0
LINE
8
Layer 1
10
130.429440
20
62.988300
11
129.898990
21
62.261370
0
LINE
8
Layer 1
10
129.898990
20
62.261370
11
127.799770
21
60.137330
0
LINE
8
Layer 1
10
127.799770
20
60.137330
11
125.657141
21
57.914429
0
LINE
8
Layer 1
10
125.657141
20
57.914429
11
125.105480
21
57.106770
0
LINE
8
Layer 1
10
125.105480
20
57.106770
11
125.051880
21
56.893380
0
LINE
8
Layer 1
10
125.051880
20
56.893380
11
125.287720
21
56.292250
0
LINE
8
Layer 1
10
125.287720
20
56.292250
11
127.502970
21
52.260680
0
LINE
8
Layer 1
10
127.502970
20
52.260680
11
129.411690
21
48.721787
0
LINE
8
Layer 1
10
129.411690
20
48.721787
11
130.997310
21
45.432450
0
LINE
8
Layer 1
10
130.997310
20
45.432450
11
131.536440
21
44.179830
0
LINE
8
Layer 1
10
131.536440
20
44.179830
11
131.972550
21
42.644640
0
LINE
8
Layer 1
10
131.972550
20
42.644640
11
132.780557
21
39.521480
0
LINE
8
Layer 1
10
132.780557
20
39.521480
11
133.137020
21
36.817120
0
LINE
8
Layer 1
10
133.137020
20
36.817120
11
133.242750
21
35.710850
0
LINE
8
Layer 1
10
133.242750
20
35.710850
11
133.241870
21
33.365550
0
LINE
8
Layer 1
10
133.241870
20
33.365550
11
133.240980
21
31.020260
0
LINE
8
Layer 1
10
133.240980
20
31.020260
11
133.135350
21
30.223740
0
LINE
8
Layer 1
10
133.135350
20
30.223740
11
132.718180
21
27.922700
0
LINE
8
Layer 1
10
132.718180
20
27.922700
11
132.406640
21
26.418170
0
LINE
8
Layer 1
10
132.406640
20
26.418170
11
132.357140
21
25.529840
0
LINE
8
Layer 1
10
132.357140
20
25.529840
11
132.307640
21
24.641510
0
LINE
8
Layer 1
10
132.307640
20
24.641510
11
132.451320
21
24.147240
0
LINE
8
Layer 1
10
132.451320
20
24.147240
11
132.694525
21
23.557070
0
LINE
8
Layer 1
10
132.694525
20
23.557070
11
133.152412
21
22.877009
0
LINE
8
Layer 1
10
133.152412
20
22.877009
11
135.145380
21
20.691620
0
LINE
8
Layer 1
10
135.145380
20
20.691620
11
137.522535
21
18.117390
0
LINE
8
Layer 1
10
137.522535
20
18.117390
11
139.341210
21
15.753700
0
LINE
8
Layer 1
10
139.341210
20
15.753700
11
140.473030
21
14.293430
0
LINE
8
Layer 1
10
140.473030
20
14.293430
11
141.889320
21
12.488550
0
LINE
8
Layer 1
10
141.889320
20
12.488550
11
141.762242
21
12.429744
0
LINE
8
Layer 1
10
141.762242
20
12.429744
11
141.225560
21
12.845020
0
LINE
8
Layer 1
10
141.225560
20
12.845020
11
141.226000
21
12.844480
0
LINE
8
Layer 1
10
119.161300
20
19.176920
11
118.657603
21
20.611564
0
LINE
8
Layer 1
10
118.657603
20
20.611564
11
118.273810
21
22.811497
0
LINE
8
Layer 1
10
118.273810
20
22.811497
11
117.715120
21
30.710020
0
LINE
8
Layer 1
10
117.715120
20
30.710020
11
117.607980
21
33.055310
0
LINE
8
Layer 1
10
117.607980
20
33.055310
11
117.602980
21
38.099910
0
LINE
8
Layer 1
10
117.602980
20
38.099910
11
117.597980
21
43.144510
0
LINE
8
Layer 1
10
117.597980
20
43.144510
11
117.712410
21
44.395730
0
LINE
8
Layer 1
10
117.712410
20
44.395730
11
117.933020
21
46.077270
0
LINE
8
Layer 1
10
117.933020
20
46.077270
11
118.039230
21
46.507580
0
LINE
8
Layer 1
10
118.039230
20
46.507580
11
118.214000
21
46.507600
0
LINE
8
Layer 1
10
118.214000
20
46.507600
11
118.390000
21
46.507600
0
LINE
8
Layer 1
10
118.390000
20
46.507600
11
118.672590
21
45.843840
0
LINE
8
Layer 1
10
118.672590
20
45.843840
11
119.194450
21
44.623020
0
LINE
8
Layer 1
10
119.194450
20
44.623020
11
120.186790
21
42.941490
0
LINE
8
Layer 1
10
120.186790
20
42.941490
11
121.251262
21
41.123567
0
LINE
8
Layer 1
10
121.251262
20
41.123567
11
122.092814
21
39.157550
0
LINE
8
Layer 1
10
122.092814
20
39.157550
11
122.739169
21
36.965971
0
LINE
8
Layer 1
10
122.739169
20
36.965971
11
123.218050
21
34.471360
0
LINE
8
Layer 1
10
123.218050
20
34.471360
11
123.405570
21
33.232340
0
LINE
8
Layer 1
10
123.405570
20
33.232340
11
123.455970
21
31.194300
0
LINE
8
Layer 1
10
123.455970
20
31.194300
11
123.506370
21
29.156270
0
LINE
8
Layer 1
10
123.506370
20
29.156270
11
123.399980
21
28.096740
0
LINE
8
Layer 1
10
123.399980
20
28.096740
11
123.079631
21
25.918206
0
LINE
8
Layer 1
10
123.079631
20
25.918206
11
122.574735
21
24.151945
0
LINE
8
Layer 1
10
122.574735
20
24.151945
11
121.839057
21
22.677157
0
LINE
8
Layer 1
10
121.839057
20
22.677157
11
120.826360
21
21.373040
0
LINE
8
Layer 1
10
120.826360
20
21.373040
11
120.171590
21
20.560710
0
LINE
8
Layer 1
10
120.171590
20
20.560710
11
119.926900
21
20.190960
0
LINE
8
Layer 1
10
119.926900
20
20.190960
11
119.822360
21
19.455430
0
LINE
8
Layer 1
10
119.822360
20
19.455430
11
119.717820
21
18.719900
0
LINE
8
Layer 1
10
119.717820
20
18.719900
11
119.568580
21
18.691100
0
LINE
8
Layer 1
10
119.568580
20
18.691100
11
119.419350
21
18.662400
0
LINE
8
Layer 1
10
119.419350
20
18.662400
11
119.162010
21
19.176970
0
LINE
8
Layer 1
10
119.162010
20
19.176970
11
119.161300
21
19.176920
0
LINE
8
Layer 1
10
120.037780
20
23.209440
11
120.698930
21
24.401781
0
LINE
8
Layer 1
10
120.698930
20
24.401781
11
121.207826
21
25.711498
0
LINE
8
Layer 1
10
121.207826
20
25.711498
11
121.574284
21
27.169620
0
LINE
8
Layer 1
10
121.574284
20
27.169620
11
121.808120
21
28.807180
0
LINE
8
Layer 1
10
121.808120
20
28.807180
11
121.912500
21
29.869200
0
LINE
8
Layer 1
10
121.912500
20
29.869200
11
121.857900
21
31.085560
0
LINE
8
Layer 1
10
121.857900
20
31.085560
11
121.493717
21
34.032030
0
LINE
8
Layer 1
10
121.493717
20
34.032030
11
120.770053
21
37.133196
0
LINE
8
Layer 1
10
120.770053
20
37.133196
11
119.885007
21
39.692062
0
LINE
8
Layer 1
10
119.885007
20
39.692062
11
119.443873
21
40.550320
0
LINE
8
Layer 1
10
119.443873
20
40.550320
11
119.036680
21
41.011630
0
LINE
8
Layer 1
10
119.036680
20
41.011630
11
118.884240
21
41.104930
0
LINE
8
Layer 1
10
118.884240
20
41.104930
11
118.791240
21
41.011930
0
LINE
8
Layer 1
10
118.791240
20
41.011930
11
118.577504
21
39.785037
0
LINE
8
Layer 1
10
118.577504
20
39.785037
11
118.530250
21
36.836404
0
LINE
8
Layer 1
10
118.530250
20
36.836404
11
118.927430
21
26.594630
0
LINE
8
Layer 1
10
118.927430
20
26.594630
11
119.184886
21
23.430981
0
LINE
8
Layer 1
10
119.184886
20
23.430981
11
119.340911
21
22.823733
0
LINE
8
Layer 1
10
119.340911
20
22.823733
11
119.548220
21
22.656300
0
LINE
8
Layer 1
10
119.548220
20
22.656300
11
119.679000
21
22.656400
0
LINE
8
Layer 1
10
119.679000
20
22.656400
11
120.037780
21
23.209440
0
LINE
8
Layer 1
10
81.405180
20
52.225440
11
80.092629
21
52.552744
0
LINE
8
Layer 1
10
80.092629
20
52.552744
11
78.698406
21
53.143490
0
LINE
8
Layer 1
10
78.698406
20
53.143490
11
77.270474
21
53.960192
0
LINE
8
Layer 1
10
77.270474
20
53.960192
11
75.856791
21
54.965360
0
LINE
8
Layer 1
10
75.856791
20
54.965360
11
74.505320
21
56.121507
0
LINE
8
Layer 1
10
74.505320
20
56.121507
11
73.264020
21
57.391145
0
LINE
8
Layer 1
10
73.264020
20
57.391145
11
72.180854
21
58.736785
0
LINE
8
Layer 1
10
72.180854
20
58.736785
11
71.303780
21
60.120940
0
LINE
8
Layer 1
10
71.303780
20
60.120940
11
70.261042
21
62.368996
0
LINE
8
Layer 1
10
70.261042
20
62.368996
11
69.184655
21
65.210723
0
LINE
8
Layer 1
10
69.184655
20
65.210723
11
68.273711
21
68.074533
0
LINE
8
Layer 1
10
68.273711
20
68.074533
11
67.727300
21
70.388840
0
LINE
8
Layer 1
10
67.727300
20
70.388840
11
67.642930
21
70.912760
0
LINE
8
Layer 1
10
67.642930
20
70.912760
11
67.731480
21
71.078220
0
LINE
8
Layer 1
10
67.731480
20
71.078220
11
67.820040
21
71.243700
0
LINE
8
Layer 1
10
67.820040
20
71.243700
11
68.002100
21
71.243800
0
LINE
8
Layer 1
10
68.002100
20
71.243800
11
68.461971
21
71.043635
0
LINE
8
Layer 1
10
68.461971
20
71.043635
11
69.380120
21
70.302930
0
LINE
8
Layer 1
10
69.380120
20
70.302930
11
70.885584
21
69.172274
0
LINE
8
Layer 1
10
70.885584
20
69.172274
11
72.371360
21
68.490560
0
LINE
8
Layer 1
10
72.371360
20
68.490560
11
72.990872
21
68.279480
0
LINE
8
Layer 1
10
72.990872
20
68.279480
11
74.052900
21
68.279500
0
LINE
8
Layer 1
10
74.052900
20
68.279500
11
75.114900
21
68.279500
0
LINE
8
Layer 1
10
75.114900
20
68.279500
11
75.734412
21
68.488180
0
LINE
8
Layer 1
10
75.734412
20
68.488180
11
77.061462
21
69.071111
0
LINE
8
Layer 1
10
77.061462
20
69.071111
11
78.342038
21
69.919154
0
LINE
8
Layer 1
10
78.342038
20
69.919154
11
79.606402
21
71.055907
0
LINE
8
Layer 1
10
79.606402
20
71.055907
11
80.884812
21
72.504970
0
LINE
8
Layer 1
10
80.884812
20
72.504970
11
81.719992
21
73.544860
0
LINE
8
Layer 1
10
81.719992
20
73.544860
11
81.939500
21
73.544800
0
LINE
8
Layer 1
10
81.939500
20
73.544800
11
82.159100
21
73.544800
0
LINE
8
Layer 1
10
82.159100
20
73.544800
11
83.637380
21
72.052810
0
LINE
8
Layer 1
10
83.637380
20
72.052810
11
85.115660
21
70.560820
0
LINE
8
Layer 1
10
85.115660
20
70.560820
11
85.779430
21
70.097680
0
LINE
8
Layer 1
10
85.779430
20
70.097680
11
87.708276
21
69.023261
0
LINE
8
Layer 1
10
87.708276
20
69.023261
11
89.633620
21
68.494610
0
LINE
8
Layer 1
10
89.633620
20
68.494610
11
90.371150
21
68.396410
0
LINE
8
Layer 1
10
90.371150
20
68.396410
11
90.994510
21
68.493110
0
LINE
8
Layer 1
10
90.994510
20
68.493110
11
92.025839
21
68.731876
0
LINE
8
Layer 1
10
92.025839
20
68.731876
11
92.990950
21
69.150740
0
LINE
8
Layer 1
10
92.990950
20
69.150740
11
93.520590
21
69.429400
0
LINE
8
Layer 1
10
93.520590
20
69.429400
11
94.606340
21
70.475420
0
LINE
8
Layer 1
10
94.606340
20
70.475420
11
95.692090
21
71.521440
0
LINE
8
Layer 1
10
95.692090
20
71.521440
11
95.890980
21
71.493240
0
LINE
8
Layer 1
10
95.890980
20
71.493240
11
96.089880
21
71.464940
0
LINE
8
Layer 1
10
96.089880
20
71.464940
11
96.117880
21
71.072530
0
LINE
8
Layer 1
10
96.117880
20
71.072530
11
95.690753
21
68.316944
0
LINE
8
Layer 1
10
95.690753
20
68.316944
11
94.670420
21
64.605550
0
LINE
8
Layer 1
10
94.670420
20
64.605550
11
93.514664
21
61.722524
0
LINE
8
Layer 1
10
93.514664
20
61.722524
11
92.146503
21
59.156814
0
LINE
8
Layer 1
10
92.146503
20
59.156814
11
90.600364
21
56.940551
0
LINE
8
Layer 1
10
90.600364
20
56.940551
11
88.910674
21
55.105862
0
LINE
8
Layer 1
10
88.910674
20
55.105862
11
87.111858
21
53.684879
0
LINE
8
Layer 1
10
87.111858
20
53.684879
11
85.238343
21
52.709730
0
LINE
8
Layer 1
10
85.238343
20
52.709730
11
83.324555
21
52.212544
0
LINE
8
Layer 1
10
83.324555
20
52.212544
11
81.404920
21
52.225450
0
LINE
8
Layer 1
10
81.404920
20
52.225450
11
81.405180
21
52.225440
0
LINE
8
Layer 1
10
74.168690
20
58.164240
11
73.988061
21
58.802520
0
LINE
8
Layer 1
10
73.988061
20
58.802520
11
74.037431
21
59.280850
0
LINE
8
Layer 1
10
74.037431
20
59.280850
11
74.086801
21
59.759170
0
LINE
8
Layer 1
10
74.086801
20
59.759170
11
74.327888
21
60.257720
0
LINE
8
Layer 1
10
74.327888
20
60.257720
11
74.568975
21
60.756270
0
LINE
8
Layer 1
10
74.568975
20
60.756270
11
75.203880
21
61.385530
0
LINE
8
Layer 1
10
75.203880
20
61.385530
11
76.389538
21
62.374467
0
LINE
8
Layer 1
10
76.389538
20
62.374467
11
77.779096
21
63.208123
0
LINE
8
Layer 1
10
77.779096
20
63.208123
11
79.326194
21
63.862997
0
LINE
8
Layer 1
10
79.326194
20
63.862997
11
80.984470
21
64.315590
0
LINE
8
Layer 1
10
80.984470
20
64.315590
11
81.752860
21
64.471050
0
LINE
8
Layer 1
10
81.752860
20
64.471050
11
83.257390
21
64.463050
0
LINE
8
Layer 1
10
83.257390
20
64.463050
11
84.761920
21
64.455050
0
LINE
8
Layer 1
10
84.761920
20
64.455050
11
85.469930
21
64.262930
0
LINE
8
Layer 1
10
85.469930
20
64.262930
11
86.885960
21
63.719450
0
LINE
8
Layer 1
10
86.885960
20
63.719450
11
87.593970
21
63.368090
0
LINE
8
Layer 1
10
87.593970
20
63.368090
11
88.283110
21
62.769910
0
LINE
8
Layer 1
10
88.283110
20
62.769910
11
89.904756
21
61.015498
0
LINE
8
Layer 1
10
89.904756
20
61.015498
11
90.380244
21
60.186030
0
LINE
8
Layer 1
10
90.380244
20
60.186030
11
90.606100
21
59.425920
0
LINE
8
Layer 1
10
90.606100
20
59.425920
11
90.664800
21
58.981170
0
LINE
8
Layer 1
10
90.664800
20
58.981170
11
90.561720
21
58.598350
0
LINE
8
Layer 1
10
90.561720
20
58.598350
11
90.505105
21
58.204195
0
LINE
8
Layer 1
10
90.505105
20
58.204195
11
90.667604
21
58.233601
0
LINE
8
Layer 1
10
90.667604
20
58.233601
11
91.697390
21
59.605170
0
LINE
8
Layer 1
10
91.697390
20
59.605170
11
92.672645
21
61.237294
0
LINE
8
Layer 1
10
92.672645
20
61.237294
11
93.528716
21
63.068309
0
LINE
8
Layer 1
10
93.528716
20
63.068309
11
94.290815
21
65.159325
0
LINE
8
Layer 1
10
94.290815
20
65.159325
11
94.984150
21
67.571450
0
LINE
8
Layer 1
10
94.984150
20
67.571450
11
95.298669
21
68.915429
0
LINE
8
Layer 1
10
95.298669
20
68.915429
11
95.287499
21
69.519658
0
LINE
8
Layer 1
10
95.287499
20
69.519658
11
94.869812
21
69.492989
0
LINE
8
Layer 1
10
94.869812
20
69.492989
11
93.964780
21
68.944280
0
LINE
8
Layer 1
10
93.964780
20
68.944280
11
93.078450
21
68.361160
0
LINE
8
Layer 1
10
93.078450
20
68.361160
11
92.460250
21
68.154090
0
LINE
8
Layer 1
10
92.460250
20
68.154090
11
91.842050
21
67.947010
0
LINE
8
Layer 1
10
91.842050
20
67.947010
11
90.991510
21
67.902310
0
LINE
8
Layer 1
10
90.991510
20
67.902310
11
90.140980
21
67.857610
0
LINE
8
Layer 1
10
90.140980
20
67.857610
11
89.531230
21
67.963210
0
LINE
8
Layer 1
10
89.531230
20
67.963210
11
88.175164
21
68.308495
0
LINE
8
Layer 1
10
88.175164
20
68.308495
11
86.825534
21
68.892669
0
LINE
8
Layer 1
10
86.825534
20
68.892669
11
85.400189
21
69.758661
0
LINE
8
Layer 1
10
85.400189
20
69.758661
11
83.816980
21
70.949400
0
LINE
8
Layer 1
10
83.816980
20
70.949400
11
82.341660
21
72.042950
0
LINE
8
Layer 1
10
82.341660
20
72.042950
11
81.992880
21
72.224750
0
LINE
8
Layer 1
10
81.992880
20
72.224750
11
81.761230
21
72.166650
0
LINE
8
Layer 1
10
81.761230
20
72.166650
11
81.529580
21
72.108550
0
LINE
8
Layer 1
10
81.529580
20
72.108550
11
80.625570
21
71.136400
0
LINE
8
Layer 1
10
80.625570
20
71.136400
11
79.218946
21
69.825258
0
LINE
8
Layer 1
10
79.218946
20
69.825258
11
77.717412
21
68.812825
0
LINE
8
Layer 1
10
77.717412
20
68.812825
11
76.127376
21
68.102672
0
LINE
8
Layer 1
10
76.127376
20
68.102672
11
74.455240
21
67.698370
0
LINE
8
Layer 1
10
74.455240
20
67.698370
11
73.726268
21
67.591770
0
LINE
8
Layer 1
10
73.726268
20
67.591770
11
72.606458
21
67.636270
0
LINE
8
Layer 1
10
72.606458
20
67.636270
11
71.486648
21
67.680770
0
LINE
8
Layer 1
10
71.486648
20
67.680770
11
70.619622
21
67.962960
0
LINE
8
Layer 1
10
70.619622
20
67.962960
11
69.621622
21
68.204725
0
LINE
8
Layer 1
10
69.621622
20
68.204725
11
69.200532
21
68.043860
0
LINE
8
Layer 1
10
69.200532
20
68.043860
11
69.109112
21
67.897780
0
LINE
8
Layer 1
10
69.109112
20
67.897780
11
69.310605
21
67.070340
0
LINE
8
Layer 1
10
69.310605
20
67.070340
11
70.115042
21
64.420827
0
LINE
8
Layer 1
10
70.115042
20
64.420827
11
71.177355
21
61.928717
0
LINE
8
Layer 1
10
71.177355
20
61.928717
11
72.431541
21
59.727732
0
LINE
8
Layer 1
10
72.431541
20
59.727732
11
73.811595
21
57.951590
0
LINE
8
Layer 1
10
73.811595
20
57.951590
11
74.268434
21
57.563174
0
LINE
8
Layer 1
10
74.268434
20
57.563174
11
74.168693
21
58.163760
0
LINE
8
Layer 1
10
74.168693
20
58.163760
11
74.168690
21
58.164240
0
LINE
8
Layer 1
10
47.458100
20
78.855400
11
45.831246
21
79.227201
0
LINE
8
Layer 1
10
45.831246
20
79.227201
11
44.382967
21
79.869033
0
LINE
8
Layer 1
10
44.382967
20
79.869033
11
43.119027
21
80.773318
0
LINE
8
Layer 1
10
43.119027
20
80.773318
11
42.045191
21
81.932478
0
LINE
8
Layer 1
10
42.045191
20
81.932478
11
41.167226
21
83.338934
0
LINE
8
Layer 1
10
41.167226
20
83.338934
11
40.490898
21
84.985109
0
LINE
8
Layer 1
10
40.490898
20
84.985109
11
40.021970
21
86.863424
0
LINE
8
Layer 1
10
40.021970
20
86.863424
11
39.766210
21
88.966300
0
LINE
8
Layer 1
10
39.766210
20
88.966300
11
39.685220
21
90.183200
0
LINE
8
Layer 1
10
39.685220
20
90.183200
11
39.765980
21
91.400100
0
LINE
8
Layer 1
10
39.765980
20
91.400100
11
40.116496
21
94.136463
0
LINE
8
Layer 1
10
40.116496
20
94.136463
11
40.774931
21
96.644923
0
LINE
8
Layer 1
10
40.774931
20
96.644923
11
41.716930
21
98.892416
0
LINE
8
Layer 1
10
41.716930
20
98.892416
11
42.918135
21
100.845881
0
LINE
8
Layer 1
10
42.918135
20
100.845881
11
44.354189
21
102.472255
0
LINE
8
Layer 1
10
44.354189
20
102.472255
11
46.000735
21
103.738474
0
LINE
8
Layer 1
10
46.000735
20
103.738474
11
47.833418
21
104.611477
0
LINE
8
Layer 1
10
47.833418
20
104.611477
11
49.827880
21
105.058200
0
LINE
8
Layer 1
10
49.827880
20
105.058200
11
50.759129
21
105.158470
0
LINE
8
Layer 1
10
50.759129
20
105.158470
11
51.702986
21
105.059670
0
LINE
8
Layer 1
10
51.702986
20
105.059670
11
53.567704
21
104.669296
0
LINE
8
Layer 1
10
53.567704
20
104.669296
11
55.214201
21
103.915739
0
LINE
8
Layer 1
10
55.214201
20
103.915739
11
56.637965
21
102.805810
0
LINE
8
Layer 1
10
56.637965
20
102.805810
11
57.834482
21
101.346320
0
LINE
8
Layer 1
10
57.834482
20
101.346320
11
58.799241
21
99.544080
0
LINE
8
Layer 1
10
58.799241
20
99.544080
11
59.527728
21
97.405901
0
LINE
8
Layer 1
10
59.527728
20
97.405901
11
60.015431
21
94.938594
0
LINE
8
Layer 1
10
60.015431
20
94.938594
11
60.257836
21
92.148970
0
LINE
8
Layer 1
10
60.257836
20
92.148970
11
60.313596
21
90.758490
0
LINE
8
Layer 1
10
60.313596
20
90.758490
11
60.211227
21
89.653870
0
LINE
8
Layer 1
10
60.211227
20
89.653870
11
59.903000
21
87.583006
0
LINE
8
Layer 1
10
59.903000
20
87.583006
11
59.383429
21
85.714282
0
LINE
8
Layer 1
10
59.383429
20
85.714282
11
58.656864
21
84.053358
0
LINE
8
Layer 1
10
58.656864
20
84.053358
11
57.727657
21
82.605895
0
LINE
8
Layer 1
10
57.727657
20
82.605895
11
56.600158
21
81.377554
0
LINE
8
Layer 1
10
56.600158
20
81.377554
11
55.278720
21
80.373995
0
LINE
8
Layer 1
10
55.278720
20
80.373995
11
53.767692
21
79.600880
0
LINE
8
Layer 1
10
53.767692
20
79.600880
11
52.071427
21
79.063870
0
LINE
8
Layer 1
10
52.071427
20
79.063870
11
51.130926
21
78.844420
0
LINE
8
Layer 1
10
51.130926
20
78.844420
11
49.582146
21
78.810620
0
LINE
8
Layer 1
10
49.582146
20
78.810620
11
47.458106
21
78.855420
0
LINE
8
Layer 1
10
47.458106
20
78.855420
11
47.458100
21
78.855400
0
LINE
8
Layer 1
10
51.548720
20
79.502650
11
53.193419
21
80.054097
0
LINE
8
Layer 1
10
53.193419
20
80.054097
11
54.666090
21
80.781120
0
LINE
8
Layer 1
10
54.666090
20
80.781120
11
55.369195
21
81.200250
0
LINE
8
Layer 1
10
55.369195
20
81.200250
11
56.224194
21
82.041020
0
LINE
8
Layer 1
10
56.224194
20
82.041020
11
57.404782
21
83.412848
0
LINE
8
Layer 1
10
57.404782
20
83.412848
11
58.299814
21
84.951325
0
LINE
8
Layer 1
10
58.299814
20
84.951325
11
58.942127
21
86.727244
0
LINE
8
Layer 1
10
58.942127
20
86.727244
11
59.364554
21
88.811400
0
LINE
8
Layer 1
10
59.364554
20
88.811400
11
59.491106
21
89.696420
0
LINE
8
Layer 1
10
59.491106
20
89.696420
11
59.492706
21
91.359320
0
LINE
8
Layer 1
10
59.492706
20
91.359320
11
59.413417
21
93.683929
0
LINE
8
Layer 1
10
59.413417
20
93.683929
11
59.169467
21
95.772582
0
LINE
8
Layer 1
10
59.169467
20
95.772582
11
58.758928
21
97.629687
0
LINE
8
Layer 1
10
58.758928
20
97.629687
11
58.179875
21
99.259650
0
LINE
8
Layer 1
10
58.179875
20
99.259650
11
57.430379
21
100.666878
0
LINE
8
Layer 1
10
57.430379
20
100.666878
11
56.508516
21
101.855778
0
LINE
8
Layer 1
10
56.508516
20
101.855778
11
55.412357
21
102.830756
0
LINE
8
Layer 1
10
55.412357
20
102.830756
11
54.139976
21
103.596220
0
LINE
8
Layer 1
10
54.139976
20
103.596220
11
53.343460
21
103.983720
0
LINE
8
Layer 1
10
53.343460
20
103.983720
11
52.546945
21
104.182470
0
LINE
8
Layer 1
10
52.546945
20
104.182470
11
51.750429
21
104.381220
0
LINE
8
Layer 1
10
51.750429
20
104.381220
11
50.555659
21
104.374220
0
LINE
8
Layer 1
10
50.555659
20
104.374220
11
49.360889
21
104.367220
0
LINE
8
Layer 1
10
49.360889
20
104.367220
11
48.509601
21
104.142460
0
LINE
8
Layer 1
10
48.509601
20
104.142460
11
47.327127
21
103.750696
0
LINE
8
Layer 1
10
47.327127
20
103.750696
11
46.242394
21
103.220540
0
LINE
8
Layer 1
10
46.242394
20
103.220540
11
45.231216
21
102.537999
0
LINE
8
Layer 1
10
45.231216
20
102.537999
11
44.269411
21
101.689080
0
LINE
8
Layer 1
10
44.269411
20
101.689080
11
43.510390
21
100.936810
0
LINE
8
Layer 1
10
43.510390
20
100.936810
11
43.015806
21
100.184550
0
LINE
8
Layer 1
10
43.015806
20
100.184550
11
42.149354
21
98.691417
0
LINE
8
Layer 1
10
42.149354
20
98.691417
11
41.457060
21
97.130457
0
LINE
8
Layer 1
10
41.457060
20
97.130457
11
40.934533
21
95.521663
0
LINE
8
Layer 1
10
40.934533
20
95.521663
11
40.577381
21
93.885028
0
LINE
8
Layer 1
10
40.577381
20
93.885028
11
40.381213
21
92.240544
0
LINE
8
Layer 1
10
40.381213
20
92.240544
11
40.341637
21
90.608204
0
LINE
8
Layer 1
10
40.341637
20
90.608204
11
40.454260
21
89.008001
0
LINE
8
Layer 1
10
40.454260
20
89.008001
11
40.714692
21
87.459927
0
LINE
8
Layer 1
10
40.714692
20
87.459927
11
41.118541
21
85.983977
0
LINE
8
Layer 1
10
41.118541
20
85.983977
11
41.661414
21
84.600142
0
LINE
8
Layer 1
10
41.661414
20
84.600142
11
42.338920
21
83.328415
0
LINE
8
Layer 1
10
42.338920
20
83.328415
11
43.146667
21
82.188788
0
LINE
8
Layer 1
10
43.146667
20
82.188788
11
44.080265
21
81.201256
0
LINE
8
Layer 1
10
44.080265
20
81.201256
11
45.135319
21
80.385810
0
LINE
8
Layer 1
10
45.135319
20
80.385810
11
46.307441
21
79.762444
0
LINE
8
Layer 1
10
46.307441
20
79.762444
11
47.592236
21
79.351150
0
LINE
8
Layer 1
10
47.592236
20
79.351150
11
48.210370
21
79.213370
0
LINE
8
Layer 1
10
48.210370
20
79.213370
11
49.449390
21
79.245370
0
LINE
8
Layer 1
10
49.449390
20
79.245370
11
50.688410
21
79.277470
0
LINE
8
Layer 1
10
50.688410
20
79.277470
11
51.548720
21
79.502650
0
LINE
8
Layer 1
10
112.629120
20
79.156570
11
110.645158
21
79.699544
0
LINE
8
Layer 1
10
110.645158
20
79.699544
11
108.838537
21
80.527599
0
LINE
8
Layer 1
10
108.838537
20
80.527599
11
107.226293
21
81.621481
0
LINE
8
Layer 1
10
107.226293
20
81.621481
11
105.825461
21
82.961939
0
LINE
8
Layer 1
10
105.825461
20
82.961939
11
104.653076
21
84.529719
0
LINE
8
Layer 1
10
104.653076
20
84.529719
11
103.726172
21
86.305570
0
LINE
8
Layer 1
10
103.726172
20
86.305570
11
103.061785
21
88.270237
0
LINE
8
Layer 1
10
103.061785
20
88.270237
11
102.676950
21
90.404470
0
LINE
8
Layer 1
10
102.676950
20
90.404470
11
102.571620
21
91.377990
0
LINE
8
Layer 1
10
102.571620
20
91.377990
11
102.625920
21
92.749770
0
LINE
8
Layer 1
10
102.625920
20
92.749770
11
102.847023
21
95.186405
0
LINE
8
Layer 1
10
102.847023
20
95.186405
11
103.301820
21
97.425209
0
LINE
8
Layer 1
10
103.301820
20
97.425209
11
103.978025
21
99.445556
0
LINE
8
Layer 1
10
103.978025
20
99.445556
11
104.863346
21
101.226819
0
LINE
8
Layer 1
10
104.863346
20
101.226819
11
105.945496
21
102.748369
0
LINE
8
Layer 1
10
105.945496
20
102.748369
11
107.212186
21
103.989579
0
LINE
8
Layer 1
10
107.212186
20
103.989579
11
108.651127
21
104.929822
0
LINE
8
Layer 1
10
108.651127
20
104.929822
11
110.250030
21
105.548470
0
LINE
8
Layer 1
10
110.250030
20
105.548470
11
110.869540
21
105.715290
0
LINE
8
Layer 1
10
110.869540
20
105.715290
11
112.197070
21
105.714290
0
LINE
8
Layer 1
10
112.197070
20
105.714290
11
113.524590
21
105.713290
0
LINE
8
Layer 1
10
113.524590
20
105.713290
11
114.232610
21
105.511240
0
LINE
8
Layer 1
10
114.232610
20
105.511240
11
115.850612
21
104.877822
0
LINE
8
Layer 1
10
115.850612
20
104.877822
11
117.334052
21
103.948840
0
LINE
8
Layer 1
10
117.334052
20
103.948840
11
118.670892
21
102.741797
0
LINE
8
Layer 1
10
118.670892
20
102.741797
11
119.849095
21
101.274194
0
LINE
8
Layer 1
10
119.849095
20
101.274194
11
120.856624
21
99.563534
0
LINE
8
Layer 1
10
120.856624
20
99.563534
11
121.681443
21
97.627320
0
LINE
8
Layer 1
10
121.681443
20
97.627320
11
122.311514
21
95.483055
0
LINE
8
Layer 1
10
122.311514
20
95.483055
11
122.734800
21
93.148240
0
LINE
8
Layer 1
10
122.734800
20
93.148240
11
122.884710
21
91.997720
0
LINE
8
Layer 1
10
122.884710
20
91.997720
11
122.882710
21
90.360430
0
LINE
8
Layer 1
10
122.882710
20
90.360430
11
122.880710
21
88.723150
0
LINE
8
Layer 1
10
122.880710
20
88.723150
11
122.735780
21
87.778230
0
LINE
8
Layer 1
10
122.735780
20
87.778230
11
122.122141
21
85.210694
0
LINE
8
Layer 1
10
122.122141
20
85.210694
11
121.130540
21
83.018420
0
LINE
8
Layer 1
10
121.130540
20
83.018420
11
120.693410
21
82.277970
0
LINE
8
Layer 1
10
120.693410
20
82.277970
11
119.990880
21
81.532700
0
LINE
8
Layer 1
10
119.990880
20
81.532700
11
118.410480
21
80.174486
0
LINE
8
Layer 1
10
118.410480
20
80.174486
11
116.578080
21
79.342120
0
LINE
8
Layer 1
10
116.578080
20
79.342120
11
115.825820
21
79.100370
0
LINE
8
Layer 1
10
115.825820
20
79.100370
11
114.542540
21
79.068570
0
LINE
8
Layer 1
10
114.542540
20
79.068570
11
113.259270
21
79.036770
0
LINE
8
Layer 1
10
113.259270
20
79.036770
11
112.629260
21
79.156870
0
LINE
8
Layer 1
10
112.629260
20
79.156870
11
112.629120
21
79.156570
0
LINE
8
Layer 1
10
116.127270
20
80.152230
11
117.391446
21
80.565138
0
LINE
8
Layer 1
10
117.391446
20
80.565138
11
118.513836
21
81.248090
0
LINE
8
Layer 1
10
118.513836
20
81.248090
11
119.491996
21
82.171398
0
LINE
8
Layer 1
10
119.491996
20
82.171398
11
120.323481
21
83.305376
0
LINE
8
Layer 1
10
120.323481
20
83.305376
11
121.005847
21
84.620336
0
LINE
8
Layer 1
10
121.005847
20
84.620336
11
121.536648
21
86.086591
0
LINE
8
Layer 1
10
121.536648
20
86.086591
11
121.913439
21
87.674453
0
LINE
8
Layer 1
10
121.913439
20
87.674453
11
122.133778
21
89.354235
0
LINE
8
Layer 1
10
122.133778
20
89.354235
11
122.195217
21
91.096250
0
LINE
8
Layer 1
10
122.195217
20
91.096250
11
122.095313
21
92.870810
0
LINE
8
Layer 1
10
122.095313
20
92.870810
11
121.831622
21
94.648228
0
LINE
8
Layer 1
10
121.831622
20
94.648228
11
121.401697
21
96.398816
0
LINE
8
Layer 1
10
121.401697
20
96.398816
11
120.803096
21
98.092888
0
LINE
8
Layer 1
10
120.803096
20
98.092888
11
120.033372
21
99.700756
0
LINE
8
Layer 1
10
120.033372
20
99.700756
11
119.090082
21
101.192732
0
LINE
8
Layer 1
10
119.090082
20
101.192732
11
117.970780
21
102.539130
0
LINE
8
Layer 1
10
117.970780
20
102.539130
11
117.169470
21
103.377310
0
LINE
8
Layer 1
10
117.169470
20
103.377310
11
116.453320
21
103.852670
0
LINE
8
Layer 1
10
116.453320
20
103.852670
11
114.604784
21
104.797978
0
LINE
8
Layer 1
10
114.604784
20
104.797978
11
112.680880
21
105.197660
0
LINE
8
Layer 1
10
112.680880
20
105.197660
11
111.925630
21
105.252260
0
LINE
8
Layer 1
10
111.925630
20
105.252260
11
111.176350
21
105.101030
0
LINE
8
Layer 1
10
111.176350
20
105.101030
11
109.473364
21
104.559547
0
LINE
8
Layer 1
10
109.473364
20
104.559547
11
107.967120
21
103.690335
0
LINE
8
Layer 1
10
107.967120
20
103.690335
11
106.660860
21
102.536165
0
LINE
8
Layer 1
10
106.660860
20
102.536165
11
105.557826
21
101.139805
0
LINE
8
Layer 1
10
105.557826
20
101.139805
11
104.661263
21
99.544025
0
LINE
8
Layer 1
10
104.661263
20
99.544025
11
103.974413
21
97.791597
0
LINE
8
Layer 1
10
103.974413
20
97.791597
11
103.500518
21
95.925288
0
LINE
8
Layer 1
10
103.500518
20
95.925288
11
103.242821
21
93.987869
0
LINE
8
Layer 1
10
103.242821
20
93.987869
11
103.204566
21
92.022110
0
LINE
8
Layer 1
10
103.204566
20
92.022110
11
103.388995
21
90.070780
0
LINE
8
Layer 1
10
103.388995
20
90.070780
11
103.799350
21
88.176650
0
LINE
8
Layer 1
10
103.799350
20
88.176650
11
104.438875
21
86.382488
0
LINE
8
Layer 1
10
104.438875
20
86.382488
11
105.310813
21
84.731066
0
LINE
8
Layer 1
10
105.310813
20
84.731066
11
106.418406
21
83.265152
0
LINE
8
Layer 1
10
106.418406
20
83.265152
11
107.764898
21
82.027517
0
LINE
8
Layer 1
10
107.764898
20
82.027517
11
109.353530
21
81.060930
0
LINE
8
Layer 1
10
109.353530
20
81.060930
11
110.250070
21
80.632890
0
LINE
8
Layer 1
10
110.250070
20
80.632890
11
111.281400
21
80.367160
0
LINE
8
Layer 1
10
111.281400
20
80.367160
11
113.790187
21
79.974581
0
LINE
8
Layer 1
10
113.790187
20
79.974581
11
116.127270
21
80.152190
0
LINE
8
Layer 1
10
116.127270
20
80.152190
11
116.127270
21
80.152230
 0 
ENDSEC
 0 
EOF