<?xml version="1.0" encoding="UTF-8" standalone="no"?>
<!-- Created with Inkscape (http://www.inkscape.org/) -->

<svg
   width="181.29402mm"
   height="188.06621mm"
   viewBox="0 0 181.29402 188.06621"
   version="1.1"
   id="svg5"
   xml:space="preserve"
   inkscape:version="1.2.1 (9c6d41e410, 2022-07-14, custom)"
   sodipodi:docname="a4.svg"
   xmlns:inkscape="http://www.inkscape.org/namespaces/inkscape"
   xmlns:sodipodi="http://sodipodi.sourceforge.net/DTD/sodipodi-0.dtd"
   xmlns="http://www.w3.org/2000/svg"
   xmlns:svg="http://www.w3.org/2000/svg"><sodipodi:namedview
     id="namedview7"
     pagecolor="#ffffff"
     bordercolor="#666666"
     borderopacity="1.0"
     inkscape:showpageshadow="2"
     inkscape:pageopacity="0.0"
     inkscape:pagecheckerboard="0"
     inkscape:deskcolor="#d1d1d1"
     inkscape:document-units="mm"
     showgrid="false"
     inkscape:zoom="0.76765115"
     inkscape:cx="260.53501"
     inkscape:cy="463.10098"
     inkscape:window-width="1594"
     inkscape:window-height="1372"
     inkscape:window-x="2882"
     inkscape:window-y="36"
     inkscape:window-maximized="0"
     inkscape:current-layer="layer1" /><defs
     id="defs2" /><g
     inkscape:label="Layer 1"
     inkscape:groupmode="layer"
     id="layer1"
     transform="translate(-21.318471,-38.725899)"><path
       style="fill:#fe0606;stroke-width:0.0885017"
       d="m 137.23618,226.5322 c -0.0282,-0.0456 0.11352,-0.21487 0.3149,-0.37614 l 0.36614,-0.29322 0.32968,-0.70801 c 0.18132,-0.38941 0.71473,-1.38371 1.18535,-2.20956 0.91801,-1.6109 1.28496,-2.45746 1.56527,-3.61105 l 0.17703,-0.72852 0.0845,-1.63958 0.0845,-1.63958 0.12004,-0.34673 c 0.066,-0.1907 0.16634,-0.36216 0.22294,-0.38103 l 0.1029,-0.0343 0.089,0.23421 c 0.049,0.12881 0.089,0.45551 0.089,0.72598 0,1.93311 0.67736,4.4065 1.29123,4.71497 l 0.25755,0.12942 0.63875,0.035 0.63875,0.035 0.66058,-0.14697 0.66057,-0.14696 0.78047,-0.385 0.78047,-0.385 0.70801,-0.58343 0.70801,-0.58342 h 0.2475 0.24749 l 0.15077,0.27537 c 0.0829,0.15144 0.29696,0.50635 0.47565,0.78868 l 0.3249,0.51333 0.42736,0.25121 0.42738,0.2512 h 0.61951 0.61951 l 0.48676,-0.27216 0.48676,-0.27217 0.37465,-0.56859 c 0.20605,-0.31274 0.4369,-0.65822 0.51301,-0.76774 l 0.13838,-0.19913 h 0.21996 c 0.12098,0 0.36294,0.0597 0.53768,0.13276 0.41485,0.17333 0.95674,0.16831 1.49128,-0.0138 l 0.43017,-0.14658 0.36177,-0.3623 0.36176,-0.36231 0.10925,-0.36564 c 0.0601,-0.20109 0.1688,-0.41505 0.24159,-0.47547 l 0.13235,-0.10983 0.13084,0.10859 0.13084,0.10859 -0.0547,0.64697 -0.0547,0.64698 0.1858,0.23621 0.18579,0.2362 0.0599,0.52936 0.0599,0.52935 0.12699,0.12699 c 0.16666,0.16667 0.41806,0.16147 0.5617,-0.0116 0.20364,-0.24538 0.59485,-0.39243 1.04402,-0.39243 h 0.43812 l 0.54301,-0.40818 c 0.61812,-0.46465 1.24646,-1.19682 1.56275,-1.82098 0.1187,-0.23424 0.25497,-0.42589 0.30282,-0.42589 h 0.087 v 0.43439 0.43441 l -0.38116,0.47274 c -0.20964,0.26001 -0.59706,0.78733 -0.86092,1.17181 -0.88373,1.28767 -1.47679,1.73587 -2.38791,1.80466 l -0.48818,0.0368 -0.7066,-0.23908 c -0.38862,-0.13149 -0.92563,-0.2592 -1.19335,-0.2838 l -0.48675,-0.0447 -1.77004,0.18617 c -0.97352,0.1024 -2.68603,0.24568 -3.80557,0.31841 -2.14798,0.13954 -2.71885,0.23724 -3.82819,0.65511 -1.32777,0.50015 -1.68339,0.56719 -4.04186,0.76202 -1.8063,0.1492 -2.1687,0.20997 -2.91313,0.4885 l -0.48428,0.1812 -0.35476,0.38486 c -0.44472,0.48247 -0.56006,0.70674 -0.84598,1.64492 -0.12622,0.41418 -0.29201,0.84231 -0.36842,0.9514 l -0.13893,0.19834 h -0.33881 -0.33881 l -0.14496,0.22125 -0.14498,0.22126 h -0.25824 c -0.14203,0 -0.2813,-0.0373 -0.30949,-0.0829 z m -59.127489,-0.18799 -0.165061,-0.18238 0.01452,-0.36407 0.01452,-0.36406 0.310998,-0.44919 c 0.343419,-0.49602 0.713108,-0.81856 1.255218,-1.09513 l 0.35777,-0.18251 0.568736,-0.0575 0.568735,-0.0575 0.575261,-0.27443 0.575261,-0.27444 0.663763,-0.67519 c 1.979631,-2.01375 4.574341,-6.80951 5.615407,-10.37889 1.132581,-3.88313 1.257924,-7.21485 0.445273,-11.83579 -0.589751,-3.35348 -0.588845,-3.98258 0.0057,-3.98258 0.768421,0 1.426619,1.5893 1.779823,4.2976 l 0.160903,1.23376 -0.0015,2.96481 -0.0015,2.96481 -0.154868,1.28328 c -0.321359,2.66284 -0.719075,4.43254 -1.311433,5.8354 -0.196581,0.46557 -0.43905,1.07437 -0.538822,1.3529 l -0.181402,0.50643 0.151427,0.2311 c 0.210988,0.32202 0.578211,0.45206 1.600319,0.56673 l 0.882636,0.099 8.584669,-0.006 c 12.395486,-0.008 14.724676,-0.10437 15.000356,-0.61949 l 0.0829,-0.1549 -0.32047,-0.52058 c -0.88724,-1.44126 -0.99969,-1.78137 -1.21613,-3.67808 -0.076,-0.66576 -0.17834,-1.31625 -0.2275,-1.44551 l -0.0894,-0.23505 -0.27169,0.22861 -0.27169,0.22861 h -0.26311 c -0.64849,0 -1.02725,-0.4444 -1.33042,-1.56097 l -0.18892,-0.69582 -0.003,-1.50453 -0.003,-1.50453 0.15776,-0.88502 c 0.38375,-2.15291 1.03427,-3.49198 1.91455,-3.94107 0.44894,-0.22903 0.68161,-0.54889 0.75493,-1.03781 l 0.0613,-0.40858 0.2047,-0.2047 c 0.11259,-0.11259 0.29009,-0.2047 0.39447,-0.2047 h 0.18977 l 0.25157,0.26931 0.25157,0.2693 0.1497,0.67287 0.14969,0.67286 -0.0513,0.61204 -0.0513,0.61204 -0.15958,0.32645 -0.15957,0.32645 -0.37909,0.11996 -0.37909,0.11994 -0.17405,0.34116 -0.17404,0.34116 v 0.4341 0.4341 l 0.17313,0.22011 c 0.28504,0.36236 0.49383,1.00085 0.88613,2.70985 0.43351,1.88848 0.6425,2.53867 1.12838,3.51028 0.411,0.8219 0.5966,1.3678 0.73591,2.16439 0.57942,3.31356 2.9733,6.72546 7.01228,9.9943 1.63237,1.32112 2.50861,2.15862 2.55716,2.4441 l 0.0301,0.17701 0.42033,0.12623 c 0.23118,0.0694 0.42033,0.16364 0.42033,0.20937 v 0.0832 l -1.17975,-0.0345 -1.17973,-0.0345 -0.21417,-0.15084 c -0.11778,-0.083 -0.54027,-0.38071 -0.93887,-0.66167 -1.16297,-0.81974 -2.96528,-2.36435 -4.59714,-3.93982 l -1.51628,-1.46391 -0.56351,-0.26566 c -0.69772,-0.32892 -1.50081,-0.51184 -2.86954,-0.65357 l -1.05704,-0.10945 -4.29233,0.002 c -4.41988,0.002 -21.005873,0.27174 -21.843371,0.35559 l -0.470199,0.0471 -0.414819,0.5804 c -2.336174,3.26867 -3.063518,3.98738 -4.580534,4.52619 -1.023362,0.36347 -1.344801,0.55909 -1.978154,1.2039 l -0.568257,0.57852 h -0.280918 -0.280917 l -0.165061,-0.18239 z m -12.932906,-0.17929 -0.0931,-0.0931 0.04244,-0.37653 0.04244,-0.37653 -0.19973,-0.39151 c -0.452763,-0.88748 -1.763067,-1.87032 -3.185638,-2.3895 l -0.744886,-0.27185 -1.462571,-0.21603 c -0.804412,-0.11882 -1.725229,-0.29447 -2.046259,-0.39034 l -0.583689,-0.1743 -0.743837,-0.67041 c -0.40911,-0.36872 -0.899968,-0.75206 -1.090796,-0.85187 l -0.34696,-0.18146 -0.327934,0.0983 c -0.180365,0.054 -0.681359,0.36282 -1.11332,0.68618 -0.828738,0.62038 -1.289072,0.86451 -1.811187,0.96055 l -0.317789,0.0584 -0.370839,-0.0999 -0.370838,-0.0999 -0.594647,-0.55883 c -0.700876,-0.65865 -1.037919,-0.8489 -1.503938,-0.8489 h -0.342819 l -0.701471,0.30172 -0.701472,0.30172 -0.681425,0.10796 -0.681425,0.10796 -0.662592,-0.0985 c -1.746448,-0.25976 -2.886405,-1.4072 -2.886405,-2.90537 0,-0.14567 0.187065,0.0279 0.232127,0.21539 0.110987,0.46179 0.3813,0.88674 0.796549,1.25227 l 0.416564,0.36667 0.614012,0.1865 0.614011,0.1865 0.549447,-0.0441 0.549448,-0.0441 0.433211,-0.19164 0.433211,-0.19162 0.590129,-0.55005 c 0.567343,-0.5288 1.24745,-1.01427 2.066898,-1.4754 l 0.386247,-0.21735 0.128896,0.10697 0.128896,0.10698 0.04925,0.6512 0.04925,0.6512 0.195339,0.45408 0.19534,0.45408 0.331859,0.29982 c 0.182522,0.1649 0.482089,0.34939 0.665704,0.40999 l 0.333845,0.11018 0.584866,-0.0422 0.584865,-0.0422 0.479358,-0.24329 c 0.263647,-0.13381 0.684143,-0.44836 0.934435,-0.69899 l 0.455076,-0.45567 0.235519,-0.48676 c 0.332799,-0.68782 0.504589,-1.41692 0.563026,-2.38955 l 0.05052,-0.84077 -0.274818,-0.6785 c -0.15115,-0.37318 -0.274818,-0.73271 -0.274818,-0.79895 0,-0.0662 -0.062,-0.20896 -0.137771,-0.31714 l -0.137771,-0.1967 H 54.049789 53.581765 L 53.435296,213.178 c -0.08056,-0.089 -0.14647,-0.28197 -0.14647,-0.4288 v -0.26694 l 0.154878,-0.13528 c 0.237591,-0.20753 0.796917,-0.35814 1.312802,-0.3535 l 0.465978,0.004 0.318189,0.151 c 0.379129,0.1799 0.597233,0.46651 0.790992,1.0394 l 0.143224,0.42348 v 1.35453 1.35452 l 0.170973,0.6685 c 0.541983,2.11913 2.000075,3.43073 4.105446,3.69297 l 0.635428,0.0791 0.39568,-0.0738 0.395679,-0.0738 0.193347,-0.22478 0.193348,-0.22478 0.100644,-0.46928 0.100643,-0.46929 0.08289,-3.0346 c 0.04559,-1.66904 0.147018,-4.03874 0.225395,-5.266 l 0.142504,-2.23137 -0.0585,-0.53102 c -0.03217,-0.29205 -0.130244,-0.69389 -0.217934,-0.89297 l -0.159437,-0.36197 -0.298874,-0.18307 c -0.430528,-0.26372 -0.82333,-0.35004 -2.743719,-0.60297 -1.811526,-0.23858 -3.43778,-0.53278 -4.900799,-0.88657 l -0.885018,-0.21403 h -0.715982 -0.715982 l -0.67783,0.17336 c -2.253405,0.57632 -4.349022,2.39709 -6.828927,5.93326 -1.165441,1.66185 -1.849291,2.50946 -2.442975,3.02802 -0.294561,0.25729 -0.597373,0.58534 -0.672915,0.729 l -0.137349,0.26119 -0.0453,0.95571 c -0.05456,1.15118 -0.158257,1.23288 -0.244884,0.19293 l -0.06354,-0.76276 0.09315,-0.56214 0.09315,-0.56212 -0.10247,-0.27148 -0.102471,-0.27147 0.204354,-0.59405 c 1.441366,-4.18996 6.887608,-9.60805 10.31133,-10.25802 l 0.721116,-0.1369 0.885018,0.0477 0.885017,0.0478 0.708014,0.21562 c 1.954177,0.59513 2.377248,0.70581 3.311583,0.86632 0.555795,0.0955 1.531527,0.20991 2.168293,0.25427 l 1.157755,0.0807 0.737677,-0.0765 0.737677,-0.0764 0.200959,-0.13168 0.200959,-0.13167 0.09838,-0.5152 c 0.345658,-1.81017 0.661308,-7.80311 0.826566,-15.69326 l 0.106585,-5.08885 -0.107128,-2.6108 c -0.184014,-4.48454 0.41724,-3.50882 -6.517672,-10.57698 -7.266088,-7.40571 -8.060664,-8.3802 -8.736882,-10.71519 l -0.202871,-0.70072 0.0046,-1.68153 0.0046,-1.68153 0.237853,-2.12404 c 0.353999,-3.16124 0.409331,-4.43269 0.500689,-11.50523 0.119546,-9.25464 0.237579,-12.70015 0.44215,-12.90684 l 0.07333,-0.0741 0.05946,0.0962 c 0.143706,0.23252 0.20385,0.0355 0.261098,-0.85519 0.03363,-0.52326 0.12251,-1.40939 0.197509,-1.96916 0.075,-0.55978 0.134785,-1.11734 0.132856,-1.23903 -0.0019,-0.12169 -0.0034,-0.36064 -0.0034,-0.53101 7.5e-5,-0.17036 0.181859,-1.06644 0.403966,-1.99129 l 0.403831,-1.68153 -0.04259,-0.53885 -0.04259,-0.53885 -0.275999,-0.57831 c -0.346054,-0.72509 -1.215019,-2.0264 -2.794657,-4.1851 C 41.041298,103.69019 39.963914,102.16958 37.422988,98.242488 28.385864,84.275288 23.229978,71.997692 21.813762,61.07259 l -0.160614,-1.239025 -0.0018,-2.832055 -0.0018,-2.832056 0.159587,-0.796516 c 0.08777,-0.438084 0.278375,-1.052953 0.423561,-1.366377 l 0.263973,-0.569862 0.352453,-0.33528 0.352454,-0.335282 0.502864,-0.146187 0.502863,-0.146186 0.62391,0.04765 c 1.340603,0.102396 3.014213,0.68285 5.7067,1.97924 l 1.54272,0.742796 -0.09249,0.09249 -0.09249,0.09249 -0.520963,-0.216872 C 31.088068,53.092282 30.382155,52.790013 29.805902,52.539852 28.017879,51.763643 26.179907,51.409197 24.80268,51.575 l -0.575411,0.06927 -0.402406,0.200569 -0.402406,0.20057 -0.152249,0.266637 c -0.08374,0.146651 -0.214788,0.62456 -0.291226,1.062021 l -0.138978,0.795384 -7.96e-4,1.991289 -7.97e-4,1.991289 0.139304,1.593032 c 0.436257,4.988867 1.217084,9.003198 2.395956,12.317908 1.720803,4.838491 5.625446,13.476093 7.434065,16.445159 0.326163,0.535436 0.696959,1.162356 0.823991,1.393158 0.483738,0.878893 0.77101,0.204426 1.562079,-3.667506 0.533358,-2.610545 0.780834,-3.486778 1.127681,-3.992746 l 0.231343,-0.337478 0.04172,-0.370536 c 0.215518,-1.913902 0.378827,-2.6033 0.999743,-4.220363 0.790524,-2.058775 1.672093,-3.67364 2.898831,-5.310105 l 0.762948,-1.01777 0.103856,-0.354007 c 0.201559,-0.687032 0.666666,-1.118444 1.517,-1.407097 0.783454,-0.26595 1.98476,-1.310079 2.192317,-1.905478 l 0.09086,-0.260626 0.484931,-0.366125 c 0.266712,-0.20137 0.628557,-0.426138 0.804102,-0.499486 l 0.319173,-0.133359 0.317575,0.05888 c 1.009511,0.187175 2.303148,1.272304 5.863398,4.918336 2.676633,2.741125 3.82504,3.797289 4.132041,3.800141 0.08021,7.08e-4 0.203985,0.03814 0.275063,0.0831 l 0.129233,0.08174 -0.15792,0.1745 -0.157919,0.174498 -0.06827,0.503124 -0.06828,0.503123 -0.119524,0.07387 -0.119525,0.07387 -0.137521,-0.07471 c -0.226587,-0.123098 -0.54564,-0.511184 -1.52912,-1.859978 -3.12259,-4.282473 -6.528367,-7.437938 -8.281809,-7.673123 l -0.344715,-0.04624 -0.229711,0.120481 c -0.126341,0.06626 -1.134219,1.056387 -2.239728,2.200272 -4.318533,4.468446 -5.059172,5.713668 -6.359397,10.691924 -0.270923,1.0373 -0.609829,2.192247 -0.753124,2.56655 -0.639264,1.669823 -1.593696,6.612846 -1.626651,8.424453 l -0.01368,0.752265 0.467104,0.781288 c 2.282638,3.817983 9.85569,14.634702 13.010499,18.583112 l 0.834595,1.04454 0.145294,-0.0299 0.145295,-0.0299 -0.0278,-0.26236 c -0.01529,-0.14429 -0.209274,-0.70044 -0.431084,-1.23588 -0.221808,-0.53543 -0.533876,-1.34246 -0.693484,-1.79339 l -0.290197,-0.81987 -0.061,-0.60744 -0.061,-0.60745 0.138949,-0.54237 c 0.151019,-0.58948 0.275523,-0.81906 0.773511,-1.42634 0.412864,-0.50347 1.11516,-1.66873 1.885248,-3.12803 l 0.599869,-1.13673 0.09314,0.0931 0.09314,0.0931 -0.197868,1.1321 c -0.108828,0.62265 -0.231513,1.66974 -0.272634,2.32687 l -0.07477,1.19477 0.08081,1.28152 c 0.178461,2.83023 0.71639,4.69785 1.714294,5.9518 l 0.403626,0.50719 0.22619,0.0568 0.226191,0.0568 0.225115,-0.20995 c 0.31379,-0.29266 0.528608,-0.74416 1.409837,-2.96317 2.42049,-6.09502 4.143888,-8.64525 7.361517,-10.893385 1.057284,-0.738716 5.252627,-3.227948 6.17178,-3.661918 3.587294,-1.693705 10.619778,-3.145409 16.24007,-3.352409 1.289913,-0.04751 3.261289,-0.171297 4.380836,-0.275084 l 2.03554,-0.188705 0.97352,0.04764 0.973519,0.04764 1.460279,0.265723 c 3.856388,0.701737 7.354462,1.09279 11.991992,1.340599 6.38311,0.341086 9.95229,1.211939 8.68808,2.119826 -0.87942,0.631552 -1.61293,2.037966 -1.14333,2.192168 0.14703,0.04828 1.18787,-0.950828 1.6778,-1.610557 l 0.39055,-0.525865 -0.0499,-0.19885 c -0.0773,-0.307982 0.048,-0.314117 0.84654,-0.04145 1.67062,0.570469 3.35097,1.346563 3.66372,1.692139 l 0.15254,0.168556 -0.0522,0.136048 -0.0522,0.13605 -0.24615,0.0017 c -0.13539,9.38e-4 -0.7658,-0.08642 -1.40092,-0.194137 l -1.15475,-0.195839 -0.61345,0.151386 c -2.28771,0.564547 -4.1038,2.971884 -10.7277,14.220164 -3.33971,5.67129 -4.92375,8.23418 -5.77868,9.34961 -0.52218,0.68129 -0.71227,1.03494 -0.9718,1.80793 -0.10506,0.31292 -0.465616,1.1457 -0.801222,1.85062 l -0.610195,1.28168 0.110736,0.11073 0.110736,0.11074 0.352332,-0.0971 c 0.452613,-0.12471 4.645623,-2.25399 6.768713,-3.43726 5.46419,-3.04537 9.08164,-5.60369 11.59575,-8.2007 0.95252,-0.98393 1.0239,-1.06824 2.2945,-2.7099 0.405,-0.52326 0.79149,-0.95139 0.85889,-0.95139 h 0.12253 l -0.0592,0.24338 c -0.16206,0.66565 -0.96445,2.57301 -2.46657,5.86324 -2.52038,5.52067 -5.18849,12.98307 -5.0719,14.18552 l 0.0275,0.28306 0.14629,0.0277 0.14628,0.0277 0.31464,-0.27625 c 0.70672,-0.6205 3.01968,-3.63976 8.03334,-10.48638 8.12806,-11.09965 9.08123,-12.61534 9.54177,-15.173 0.19094,-1.06035 0.203,-1.09585 0.47588,-1.39896 l 0.17926,-0.19913 h 0.32745 c 0.93587,0 3.54482,1.74576 5.17371,3.46194 4.02014,4.23555 11.22135,14.4826 11.60138,16.50832 l 0.056,0.29858 -0.10937,0.13179 c -0.0602,0.0725 -0.2014,0.13178 -0.31387,0.13178 h -0.20449 l -0.30034,-0.37613 c -0.16519,-0.20688 -0.67236,-0.99344 -1.12705,-1.74791 -4.65146,-7.71838 -10.77014,-14.68411 -12.90401,-14.69043 -1.19843,-0.004 -3.10001,2.58936 -8.20988,11.19461 -2.76903,4.66318 -4.75661,7.36827 -8.65806,11.7835 -0.725,0.82047 -1.9596,2.26646 -2.74355,3.21331 -2.19326,2.64897 -2.99185,3.55527 -3.49348,3.96469 l -0.46085,0.37613 h -0.21483 -0.21482 l -0.10359,-0.19356 -0.1036,-0.19356 0.0508,-0.71995 c 0.0625,-0.88548 0.34114,-2.27758 1.03958,-5.19353 0.29507,-1.2319 0.68,-2.93677 0.85539,-3.7886 l 0.3189,-1.54878 0.008,-1.02998 0.008,-1.02997 -0.17651,-0.19568 -0.17651,-0.19567 -0.33969,0.0456 c -0.90922,0.12195 -4.96789,2.0676 -7.98046,3.82567 -3.84263,2.24249 -4.825804,2.79043 -5.496947,3.06351 l -0.698167,0.28408 -1.150523,0.0374 -1.150522,0.0374 -0.376369,-0.10147 -0.37637,-0.10147 -0.144225,-0.22012 -0.144225,-0.22011 0.05392,-0.39335 c 0.108697,-0.79303 0.540189,-1.57904 3.37676,-6.15111 2.753118,-4.43755 4.877638,-8.03252 7.034598,-11.90348 1.08492,-1.94704 2.85072,-5.07336 3.92399,-6.94739 2.91125,-5.083269 3.69786,-6.69541 3.83601,-7.861834 l 0.054,-0.456112 -0.14724,-0.38553 c -0.51284,-1.342767 -2.83127,-1.820253 -12.1348,-2.499185 l -1.947041,-0.142087 -4.659562,-0.04669 -4.659562,-0.04669 -2.066571,0.103139 c -4.233651,0.211294 -7.809686,0.615328 -10.273383,1.160723 -2.971214,0.657746 -7.516216,2.536684 -11.263571,4.656445 -1.119547,0.633291 -2.39173,1.343651 -2.827074,1.578581 -1.340368,0.72332 -1.841918,1.30443 -3.017992,3.49675 -0.378629,0.7058 -0.94725,1.70144 -1.263599,2.21254 -0.727937,1.17606 -1.377074,2.53302 -1.566473,3.27456 -0.180595,0.70708 -0.804951,2.41278 -1.571173,4.29234 -1.166529,2.86152 -2.553537,8.19351 -3.292136,12.65575 -0.434343,2.62408 -0.405076,1.8406 -0.581866,15.57631 -0.0912,7.08563 -0.11025,7.4906 -0.535021,11.37247 l -0.275999,2.5223 0.04693,0.57877 0.04693,0.57876 0.367128,0.92577 c 0.20192,0.50916 0.425732,1.01663 0.497358,1.12771 l 0.13023,0.20194 0.09783,-0.0605 0.09783,-0.0605 -0.05912,-2.00002 -0.05912,-2.00002 0.09021,-0.93299 c 0.22338,-2.31037 1.16822,-4.04064 3.010668,-5.51337 l 0.663763,-0.53056 0.708014,-0.33256 0.708014,-0.33255 0.750014,-0.15148 0.750014,-0.15148 0.823372,0.0541 0.823373,0.0541 0.81616,0.27299 c 4.684094,1.56676 7.724263,7.47124 6.927641,13.45456 -0.325686,2.44618 -2.377359,5.76417 -4.23476,6.8485 l -0.424327,0.24772 -0.770447,0.0836 -0.770448,0.0836 -0.199128,0.12898 -0.199129,0.12897 v 0.20549 c 0,0.69004 3.004937,3.91893 5.442857,5.8485 3.884721,3.07468 7.651884,4.75273 17.390592,7.74649 10.064624,3.09395 19.143274,4.20104 25.001744,3.04884 9.06998,-1.78383 24.57446,-7.81264 30.92631,-12.02549 1.4176,-0.94021 1.59731,-0.82459 0.65839,0.42362 -1.27008,1.68847 -2.78841,3.09095 -4.80052,4.43421 l -1.24022,0.82796 -1.53226,0.75651 c -3.61597,1.78529 -11.04582,4.4043 -16.23326,5.72217 -10.24734,2.60336 -19.284257,2.51931 -29.54987,-0.27482 -6.977524,-1.89917 -13.873756,-4.24088 -18.492618,-6.27943 l -1.057775,-0.46685 -0.402504,-0.038 -0.402504,-0.038 -0.194767,0.20869 c -0.107122,0.11477 -0.25867,0.44715 -0.336773,0.73863 l -0.142007,0.52995 -0.08015,1.90278 c -0.04408,1.04654 -0.08222,3.37634 -0.08476,5.17735 -0.01102,7.83998 -0.435094,15.03473 -1.064759,18.06469 -0.308363,1.48385 -0.653729,3.84624 -0.813606,5.56528 l -0.115234,1.23903 0.0018,3.23031 0.0018,3.23031 0.149274,0.88502 c 0.216941,1.2862 0.353021,1.66097 0.99278,2.73414 0.316109,0.53026 0.62147,1.10773 0.678581,1.28327 0.05711,0.17555 0.300373,0.70961 0.540581,1.18681 l 0.436742,0.86764 -0.101596,0.12241 -0.101598,0.12242 -0.50269,0.0525 c -0.276481,0.0289 -0.644766,0.0705 -0.818411,0.0925 l -0.315721,0.0401 -0.0931,-0.0931 z m 97.368445,-12.21743 c -0.29206,-0.24744 -0.76997,-0.56136 -1.06202,-0.6976 l -0.53101,-0.24772 -0.53101,-0.94355 c -1.37308,-2.43984 -3.98795,-5.37152 -6.54046,-7.33291 -0.5807,-0.44621 -1.1528,-0.89236 -1.27134,-0.99143 l -0.21551,-0.18014 0.31493,-1.14739 c 0.86493,-3.15131 1.27522,-5.99991 1.35823,-9.43015 l 0.0505,-2.08764 -0.10535,-1.00621 -0.10536,-1.00621 -0.39594,-1.54468 c -1.17712,-4.5922 -2.57868,-7.86007 -5.67963,-13.24254 -2.22242,-3.85756 -2.3478,-3.97975 -3.21948,-3.13733 -0.88559,0.85585 -1.91182,1.47033 -2.11547,1.26668 l -0.0788,-0.0788 0.4014,-0.57405 c 0.57992,-0.82935 0.98157,-1.57671 1.09787,-2.04284 l 0.10148,-0.40677 -0.0944,-0.35073 c -0.1465,-0.54407 -0.55611,-1.09111 -1.76727,-2.36022 -2.08024,-2.17974 -3.05629,-4.05447 -3.38186,-6.49561 l -0.10365,-0.77712 0.0511,-1.15052 c 0.10387,-2.33762 0.8844,-4.5354 2.34151,-6.59305 l 0.59515,-0.84044 0.97352,-0.97927 0.97352,-0.97926 0.63932,-0.42023 c 0.80897,-0.53173 1.52247,-0.82214 2.32633,-0.94685 l 0.63245,-0.0981 0.5905,0.10138 0.59049,0.10139 0.66206,0.3254 0.66208,0.32539 0.714,0.7095 0.71401,0.7095 0.49523,0.75227 c 0.27239,0.41374 0.73871,1.24013 1.03628,1.83641 0.29758,0.59628 0.58635,1.08414 0.64173,1.08414 h 0.10068 l -0.0532,-2.14616 -0.0532,-2.14617 -0.22188,-2.5223 c -0.24887,-2.82892 -0.45566,-6.55638 -0.37536,-6.76566 0.084,-0.21881 0.21631,-0.15998 0.27866,0.12387 0.13162,0.59926 0.45156,0.81104 0.82801,0.54807 0.12921,-0.0902 0.33449,-0.19168 0.45618,-0.22541 l 0.22125,-0.0613 0.38683,-0.46048 c 1.50005,-1.7856 5.15265,-5.46633 5.95901,-6.00488 0.39949,-0.26681 0.87394,-0.86128 1.43759,-1.80124 1.1489,-1.91592 2.64998,-3.43788 7.02666,-7.12439 l 0.99817,-0.84077 0.26015,-0.3913 0.26016,-0.39131 v -0.23809 c 0,-0.13095 -0.1272,-0.51242 -0.28267,-0.84772 l -0.28268,-0.60962 -0.065,-1.68154 c -0.0358,-0.92484 -0.0924,-1.79072 -0.12576,-1.92417 l -0.0608,-0.24265 0.31993,-0.67368 c 0.17597,-0.37053 0.31994,-0.69564 0.31994,-0.72247 0,-0.11836 -0.39243,0.32245 -0.59541,0.66881 l -0.22306,0.38061 -0.14232,-0.0274 c -0.0783,-0.0151 -0.29731,-0.28375 -0.48675,-0.59705 l -0.34444,-0.56964 -0.0111,-0.27022 -0.0112,-0.27022 0.55368,-0.26551 0.55366,-0.2655 0.66412,-0.57526 c 1.30067,-1.12664 2.855,-2.90776 4.79977,-5.50008 0.6337,-0.8447 1.79488,-2.2668 2.5804,-3.16023 1.43612,-1.63338 1.65166,-1.8886 4.60736,-5.45572 3.96553,-4.785842 5.70955,-7.331305 5.93975,-8.669252 l 0.10591,-0.61559 -0.0506,-0.977441 -0.0506,-0.977441 -0.57615,-2.70082 c -0.31688,-1.485451 -0.70039,-3.417002 -0.85224,-4.292335 -0.70649,-4.072741 -1.58884,-6.610303 -3.07646,-8.8476 l -0.58916,-0.886075 -0.8441,-0.840766 c -1.65729,-1.650771 -3.89812,-2.829196 -6.23841,-3.280706 l -0.43822,-0.08455 -0.44987,0.130781 c -0.94287,0.274098 -2.02439,1.189487 -7.78936,6.592793 -4.30508,4.035001 -6.75932,6.384963 -7.8422,7.508978 l -1.11053,1.15271 -0.25848,0.494663 c -0.31564,0.604066 -0.41093,0.61692 -0.55375,0.0747 l -0.11072,-0.420383 -0.47688,-0.708014 c -0.2623,-0.389408 -0.60208,-0.787666 -0.75509,-0.885018 l -0.2782,-0.177003 -0.22488,-0.437791 -0.22487,-0.437791 -0.98534,-1.01086 c -1.15018,-1.179981 -2.32995,-2.188003 -3.40548,-2.909734 -0.89276,-0.599071 -1.90315,-1.530649 -2.47719,-2.283964 -0.62788,-0.823948 -1.51067,-1.710628 -2.0943,-2.103531 -0.61788,-0.415952 -2.16977,-1.614924 -3.18606,-2.461504 -0.38941,-0.324379 -0.93514,-0.734267 -1.21274,-0.910861 l -0.50472,-0.32108 -0.51305,-0.122942 c -0.71893,-0.172276 -0.88155,-0.246151 -1.55148,-0.704806 -0.79449,-0.543929 -1.48316,-0.882207 -2.27648,-1.118221 -0.86274,-0.256668 -1.46615,-0.527686 -2.04949,-0.920538 -0.54511,-0.367092 -0.7087,-0.386119 -1.24144,-0.144384 -0.74557,0.338313 -1.34008,0.227252 -1.98994,-0.37174 l -0.41073,-0.378581 -1.1004,0.02715 -1.10041,0.02715 -0.41446,-0.197848 -0.41445,-0.197847 -0.6217,-0.647945 c -0.72215,-0.752643 -0.66255,-0.738819 -1.4581,-0.33819 -0.33829,0.170366 -0.71621,0.309757 -0.83981,0.309757 h -0.22471 l -0.48958,-0.398774 c -0.62914,-0.512443 -0.91635,-0.629416 -2.20637,-0.898616 l -1.06118,-0.221444 -0.6646,-0.311231 -0.66462,-0.311232 -1.11273,0.0553 -1.11273,0.0553 -0.4803,-0.101831 c -0.88066,-0.186715 -1.30919,-0.495602 -1.66132,-1.197505 -0.10077,-0.200869 -0.23924,-0.386715 -0.30771,-0.41299 l -0.1245,-0.04777 -0.52091,0.346333 -0.52091,0.346332 -0.35958,2.65e-4 -0.35957,2.66e-4 -0.22333,-0.24338 c -0.12283,-0.133859 -0.32863,-0.428355 -0.45734,-0.654435 -0.12869,-0.226081 -0.3573,-0.514818 -0.50802,-0.641638 l -0.27404,-0.230582 h -0.23174 -0.23175 l -0.25451,0.24338 -0.25452,0.243379 -0.60295,-0.0065 -0.60296,-0.0065 -0.66476,-0.328458 -0.66474,-0.32846 -0.56241,0.194661 -0.56242,0.19466 -0.39825,-0.0098 c -0.21905,-0.0054 -0.57253,-0.0717 -0.78552,-0.147321 -0.21299,-0.07559 -0.52647,-0.137462 -0.69661,-0.137462 h -0.30935 l -0.78045,0.450424 -0.78045,0.450425 -0.40508,0.0061 -0.40508,0.0061 -0.22437,-0.210782 c -0.1234,-0.115931 -0.29548,-0.371159 -0.38239,-0.567176 -0.0869,-0.196016 -0.2217,-0.408939 -0.29951,-0.473161 l -0.14148,-0.116769 -0.20479,0.106109 c -0.11263,0.05836 -0.51159,0.402302 -0.88658,0.764318 l -0.68181,0.65821 -0.29171,-0.02804 -0.29172,-0.02804 -0.31144,-0.634205 c -0.364895,-0.743061 -0.578131,-1.003077 -0.82261,-1.003077 h -0.177346 l -0.811946,0.846989 -0.811946,0.846989 -0.346643,-0.02835 -0.346643,-0.02835 -0.206229,-0.641733 -0.20623,-0.641734 -0.207384,-0.05205 -0.207384,-0.05205 -0.551965,0.374834 c -0.570384,0.387339 -1.161991,0.614476 -1.600487,0.614476 h -0.252245 l -0.274698,-0.262516 -0.274697,-0.262515 -0.321885,0.139586 c -0.954673,0.413997 -5.506177,0.654904 -7.346553,0.388846 l -0.564044,-0.08154 -0.21758,-0.204309 -0.217579,-0.204309 -0.590154,0.01034 -0.590154,0.01034 -0.708014,0.193779 c -0.389408,0.106579 -1.13878,0.391084 -1.665271,0.632236 -0.526492,0.241151 -1.143791,0.480895 -1.371777,0.532765 l -0.41452,0.09431 -1.239025,-0.05936 -1.239024,-0.05936 -0.59869,0.140141 c -0.329278,0.07708 -1.583791,0.503868 -2.787805,0.948423 l -2.189115,0.808282 -0.579887,0.374357 c -0.826974,0.53387 -1.589715,1.211778 -3.964299,3.523381 -2.629126,2.559394 -3.941616,3.747471 -4.39449,3.977928 -0.194704,0.09908 -0.765025,0.59681 -1.26738,1.106064 -1.024254,1.038321 -1.18093,1.112117 -0.594521,0.280023 0.547151,-0.776387 0.974608,-1.535373 1.190985,-2.1147 l 0.181805,-0.48676 0.826265,-0.929268 c 0.454445,-0.511098 1.591572,-1.637479 2.526946,-2.50307 2.9917,-2.768504 3.459221,-3.422746 6.127927,-8.575336 3.397964,-6.560601 5.300027,-9.240008 9.381327,-13.215324 4.441689,-4.326348 5.798177,-4.778928 14.637796,-4.883776 l 4.248084,-0.05039 1.902785,0.101278 c 2.84011,0.151169 3.83628,0.312336 8.02357,1.298104 5.73378,1.34984 7.7969,1.680963 11.04856,1.773255 0.97352,0.02763 1.9877,0.08704 2.25375,0.132015 l 0.48371,0.08178 0.31409,0.252404 c 0.17274,0.138822 0.40252,0.280474 0.51062,0.314782 l 0.19654,0.06238 0.53256,-0.238999 0.53256,-0.238998 1.2609,0.04811 1.26091,0.04811 1.32753,0.233175 c 4.48942,0.78855 8.87898,2.122797 10.85933,3.300793 5.84833,3.478838 10.5888,11.923427 15.11597,26.927297 1.00639,3.335394 1.60219,5.076554 2.05243,5.998157 l 0.35848,0.733752 0.37875,0.389708 0.37875,0.389707 0.31856,0.05976 c 1.03208,0.193619 1.92959,-0.453111 6.16219,-4.440366 11.72873,-11.048883 20.68446,-18.831519 23.11837,-20.090144 l 0.24358,-0.125959 v 0.08166 c 0,0.124115 -0.95666,0.942396 -3.58432,3.065864 -3.16998,2.561729 -4.49861,3.715048 -5.63099,4.887967 l -0.94039,0.974071 -0.27621,0.564216 -0.27622,0.564217 0.0571,0.471845 0.0572,0.471845 0.32776,0.206913 c 0.18028,0.113802 0.89707,0.492106 1.59288,0.840674 5.52503,2.767779 7.48623,5.666593 8.5874,12.692803 0.25535,1.629338 1.42539,7.008285 1.8593,8.547628 0.21758,0.771901 0.34228,0.937422 0.81235,1.07826 l 0.3445,0.103213 0.53316,-0.590737 c 2.64411,-2.929648 -2.88423,5.430646 -7.96761,12.049098 -0.7597,0.98911 -1.7346,2.26353 -2.16646,2.83206 -2.27829,2.9993 -3.33038,5.05173 -3.47667,6.78233 l -0.0539,0.63756 0.10361,0.61247 c 0.057,0.33686 0.20048,0.91117 0.31887,1.27623 0.41146,1.26875 1.12222,5.50103 2.60841,15.53206 2.70918,18.2856 5.77928,32.5017 7.28909,33.75212 0.18515,0.15335 0.18864,0.35475 0.007,0.42432 -0.0766,0.0294 -0.22682,0.23723 -0.33378,0.46185 l -0.19447,0.4084 -0.48487,-0.005 c -0.59012,-0.006 -3.04774,-0.20096 -3.37767,-0.26812 l -0.23775,-0.0484 -0.25744,-0.54734 c -0.33608,-0.71452 -1.50833,-2.45166 -2.37004,-3.51215 -0.96773,-1.19094 -1.66339,-2.1386 -3.31338,-4.51359 -1.13526,-1.63409 -9.97411,-14.0768 -14.21054,-20.00459 -0.40131,-0.56152 -0.91171,-1.18878 -1.13424,-1.3939 l -0.40459,-0.37294 h -0.24536 c -0.43529,8.9e-4 -0.83022,0.3294 -2.79658,2.32831 -3.11574,3.16731 -3.79615,3.96715 -4.19081,4.92637 l -0.20115,0.4889 -0.002,0.62445 c -0.001,0.34345 0.0963,1.51831 0.21654,2.6108 0.12024,1.09249 0.28744,2.72313 0.37154,3.62363 l 0.15292,1.63728 0.004,2.87631 0.004,2.87631 -0.15717,1.0415 c -0.41566,2.75433 -1.18772,4.66046 -2.76085,6.81624 l -0.53045,0.72693 -2.09922,2.12404 c -2.20856,2.23468 -2.60702,2.68287 -2.69429,3.03056 l -0.0536,0.21339 0.23584,0.60113 c 0.23011,0.58649 0.41345,0.92015 2.21525,4.03157 1.12013,1.93428 2.80501,5.22669 3.49434,6.82823 l 0.53913,1.25262 0.43611,1.53519 c 0.82688,2.91078 0.93965,3.47514 1.16447,5.82752 l 0.10573,1.10627 -8.8e-4,2.3453 -8.9e-4,2.34529 -0.10563,0.79652 c -0.0581,0.43808 -0.24583,1.47355 -0.41717,2.30104 l -0.31154,1.50453 -0.0495,0.88833 -0.0495,0.88833 0.14368,0.49427 c 0.22928,0.7887 0.74228,1.44671 2.69406,3.45562 2.01774,2.0768 2.92273,3.14184 4.19583,4.93792 0.4658,0.65712 0.97511,1.31425 1.13182,1.46027 0.3701,0.3449 1.41629,1.67812 1.41629,1.80488 0,0.1694 -0.11762,0.10624 -0.66376,-0.35647 z m -22.06473,-6.33244 c -0.76829,-1.53631 -1.11629,-4.31153 -1.44618,-11.53305 l -0.10714,-2.34529 -0.005,-5.0446 -0.005,-5.0446 0.11443,-1.25122 c 0.0629,-0.68817 0.1622,-1.44486 0.22061,-1.68154 l 0.10621,-0.43031 h 0.1754 0.17539 l 0.28259,0.66376 c 0.15542,0.36507 0.39026,0.91444 0.52186,1.22082 0.1316,0.30637 0.57815,1.06306 0.99234,1.68153 1.58023,2.3596 2.49208,4.90753 3.03126,8.47013 l 0.18752,1.23902 0.0504,2.03804 0.0504,2.03803 -0.10639,1.05953 c -0.32465,3.23325 -1.01813,5.04497 -2.57362,6.7237 -0.22553,0.24341 -0.52018,0.60896 -0.65477,0.81233 l -0.24469,0.36975 -0.10454,0.73553 -0.10454,0.73553 -0.14924,0.0288 -0.14923,0.0287 -0.25734,-0.51457 z m 0.87648,-4.03252 c 0.9874,-1.52533 1.54261,-3.28091 1.77034,-5.59774 l 0.10438,-1.06202 -0.0546,-1.21636 c -0.15788,-3.51572 -1.80264,-9.30262 -2.82122,-9.92607 l -0.15244,-0.0933 -0.093,0.093 c -0.39683,0.39684 -0.34454,5.93213 0.13619,14.41727 0.18046,3.18529 0.29916,3.93833 0.62079,3.93833 h 0.13156 z m -38.6326,-29.01604 c -3.348611,-0.48823 -8.079964,-4.18639 -10.101375,-7.8955 -1.2794,-2.34759 -3.17944,-7.80253 -3.576482,-10.26793 l -0.08437,-0.52392 0.08855,-0.16546 0.08856,-0.16548 h 0.182353 c 0.222274,0 0.544708,0.22015 1.378018,0.94087 1.124901,0.97291 1.892591,1.43805 2.991241,1.81237 l 0.619512,0.21108 h 1.062021 1.062021 l 0.619512,-0.20868 c 1.813831,-0.61099 3.423039,-1.86601 5.150399,-4.01679 l 0.83518,-1.03989 h 0.21952 0.21952 l 1.47828,1.49199 1.47828,1.49199 0.66377,0.46314 c 1.28756,0.89841 2.5713,1.43235 3.85419,1.60307 l 0.73753,0.0982 0.62336,-0.0967 c 0.77246,-0.11984 1.31227,-0.29766 1.99644,-0.65763 l 0.52964,-0.27866 1.08575,-1.04602 1.08575,-1.04602 0.19889,0.0282 0.1989,0.0283 0.028,0.39241 c 0.0611,0.85662 -0.71762,4.33595 -1.44746,6.46698 -2.76821,8.0826 -8.16928,13.12321 -13.26551,12.38015 z m -7.236486,-5.9388 -0.180629,-0.63828 0.04937,-0.47833 0.04937,-0.47832 0.241087,-0.49855 0.241087,-0.49855 0.634905,-0.62926 c 1.424339,-1.41166 3.516036,-2.4719 5.780586,-2.93006 l 0.76839,-0.15546 1.50453,0.008 1.50453,0.008 0.70801,0.19212 c 0.38941,0.10567 1.02662,0.35024 1.41603,0.54348 l 0.70801,0.35136 0.68914,0.59818 c 1.3531,1.17451 2.19696,2.38926 2.32299,3.34399 l 0.0587,0.44475 -0.10308,0.38282 c -0.21629,0.80324 0.12009,0.50503 1.13567,-1.00682 1.391,-2.07073 2.39695,-4.50888 3.28676,-7.96628 0.60056,-2.33352 0.54816,-2.40409 -1.01937,-1.37283 l -0.88633,0.58312 -0.6182,0.20707 -0.6182,0.20708 -0.85054,0.0447 -0.85053,0.0447 -0.60975,-0.1056 c -1.84889,-0.3202 -3.46155,-1.16296 -5.71425,-2.98619 -0.61959,-0.50147 -1.28348,-0.99356 -1.47532,-1.09355 l -0.34878,-0.1818 -0.23165,0.0581 -0.23165,0.0581 -0.90401,0.97215 c -1.80938,1.94574 -3.888931,3.10445 -6.170325,3.43803 l -0.728972,0.1066 -1.119813,-0.0445 -1.119811,-0.0445 -0.867026,-0.28219 c -0.918163,-0.29884 -1.270136,-0.3189 -1.419088,-0.0809 l -0.09142,0.14608 0.201493,0.82744 c 0.871331,3.57819 2.606342,7.09322 4.500985,9.11875 0.528969,0.56551 0.570236,0.54099 0.357098,-0.21217 z M 68.776631,147.93661 c -4.571247,-0.62469 -7.299207,-4.21055 -7.691891,-10.11088 l -0.08099,-1.2169 0.08076,-1.2169 c 0.502499,-7.57145 4.54928,-13.06459 10.061891,-13.65811 l 0.931249,-0.10027 0.943857,0.0988 c 5.259531,0.5507 8.239512,5.048 8.554846,12.91071 l 0.05576,1.39048 -0.102369,1.10462 c -0.536278,5.78679 -3.373305,9.47781 -8.139798,10.59 l -0.940501,0.21945 -1.548781,0.0338 c -0.851829,0.0186 -1.807648,-0.002 -2.124042,-0.0448 z m 4.090616,-0.64725 c 1.111452,-0.29173 2.235293,-0.75264 3.117366,-1.27847 l 0.703105,-0.41913 0.854999,-0.84077 c 1.779082,-1.74947 2.709116,-3.75455 3.140357,-6.77038 l 0.126552,-0.88502 0.0016,-1.6629 c 0.0064,-6.51748 -1.723037,-10.47105 -5.352732,-12.23692 l -0.796516,-0.3875 -0.796515,-0.19875 -0.796516,-0.19875 -1.194774,0.007 -1.194773,0.007 -0.851288,0.22476 c -1.652536,0.43631 -2.979945,1.20435 -4.240194,2.45338 l -0.759021,0.75227 -0.494584,0.75226 c -5.093312,7.74696 -2.568472,19.24085 4.57643,20.83338 l 0.618134,0.13778 1.239025,-0.032 1.239024,-0.0321 z m 61.080423,0.34608 c -5.51188,-1.05071 -9.31382,-5.34764 -9.95217,-11.24786 l -0.10533,-0.97352 0.0543,-1.37178 c 0.26709,-6.74313 3.15801,-11.59614 7.62411,-12.79869 l 0.61951,-0.16682 1.32753,0.001 1.32752,0.001 0.70802,0.20205 c 4.48339,1.27947 7.65984,5.89832 8.50219,12.36299 l 0.14991,1.15052 -0.002,1.63729 -0.002,1.63728 -0.14493,0.94492 c -0.28054,1.82917 -0.82075,3.43099 -1.60524,4.75981 l -0.43713,0.74045 -0.70253,0.74527 c -1.09416,1.16071 -1.98264,1.731 -3.4128,2.19058 l -0.75226,0.24175 -1.28328,0.0318 -1.28327,0.0318 -0.63001,-0.1201 z m 3.49815,-0.99566 c 7.11602,-1.42928 8.28683,-15.64708 1.84351,-22.38691 l -0.80131,-0.83818 -0.71615,-0.47536 c -1.24225,-0.82456 -2.4297,-1.24793 -3.77244,-1.34499 l -0.75525,-0.0546 -0.74928,0.15123 c -9.60147,1.93793 -10.94703,19.68381 -1.82282,24.04006 l 0.89654,0.42804 1.03133,0.26573 c 1.75844,0.45305 3.31637,0.52217 4.84587,0.21497 z"
       id="path470" /></g></svg>
