999
"DXF R12 Output" (www.mydxf.blogspot.com)
 0 
SECTION
 2 
HEADER
 9 
$ACADVER
 1 
AC1009
 9 
$EXTMIN
 10 
 0 
 20 
 0 
 9 
$EXTMAX
 10 
 8.5 
 20 
 11 
 0 
ENDSEC
 0 
SECTION
 2 
ENTITIES
0
LINE
8
Layer 1
10
115.804000
20
0.277220
11
115.718839
21
0.544726
0
LINE
8
Layer 1
10
115.718839
20
0.544726
11
116.057750
21
0.902870
0
LINE
8
Layer 1
10
116.057750
20
0.902870
11
116.422120
21
1.194660
0
LINE
8
Layer 1
10
116.422120
20
1.194660
11
116.751790
21
1.902680
0
LINE
8
Layer 1
10
116.751790
20
1.902680
11
117.937150
21
4.112230
0
LINE
8
Layer 1
10
117.937150
20
4.112230
11
118.984020
21
6.149779
0
LINE
8
Layer 1
10
118.984020
20
6.149779
11
119.510210
21
7.818140
0
LINE
8
Layer 1
10
119.510210
20
7.818140
11
119.683260
21
8.611030
0
LINE
8
Layer 1
10
119.683260
20
8.611030
11
119.758660
21
10.168700
0
LINE
8
Layer 1
10
119.758660
20
10.168700
11
119.834060
21
11.726370
0
LINE
8
Layer 1
10
119.834060
20
11.726370
11
119.954150
21
12.071740
0
LINE
8
Layer 1
10
119.954150
20
12.071740
11
120.227470
21
12.512750
0
LINE
8
Layer 1
10
120.227470
20
12.512750
11
120.380690
21
12.608350
0
LINE
8
Layer 1
10
120.380690
20
12.608350
11
120.504770
21
12.477090
0
LINE
8
Layer 1
10
120.504770
20
12.477090
11
120.628850
21
12.345840
0
LINE
8
Layer 1
10
120.628850
20
12.345840
11
120.728880
21
11.151070
0
LINE
8
Layer 1
10
120.728880
20
11.151070
11
121.012876
21
9.096695
0
LINE
8
Layer 1
10
121.012876
20
9.096695
11
121.415050
21
7.478250
0
LINE
8
Layer 1
10
121.415050
20
7.478250
11
121.580720
21
7.035740
0
LINE
8
Layer 1
10
121.580720
20
7.035740
11
121.933750
21
6.861060
0
LINE
8
Layer 1
10
121.933750
20
6.861060
11
122.286800
21
6.686380
0
LINE
8
Layer 1
10
122.286800
20
6.686380
11
122.950560
21
6.692380
0
LINE
8
Layer 1
10
122.950560
20
6.692380
11
123.614320
21
6.698380
0
LINE
8
Layer 1
10
123.614320
20
6.698380
11
124.318340
21
6.893810
0
LINE
8
Layer 1
10
124.318340
20
6.893810
11
125.602885
21
7.402231
0
LINE
8
Layer 1
10
125.602885
20
7.402231
11
126.767430
21
8.172830
0
LINE
8
Layer 1
10
126.767430
20
8.172830
11
127.516157
21
8.740948
0
LINE
8
Layer 1
10
127.516157
20
8.740948
11
128.001464
21
8.928756
0
LINE
8
Layer 1
10
128.001464
20
8.928756
11
128.352151
21
8.735402
0
LINE
8
Layer 1
10
128.352151
20
8.735402
11
128.697020
21
8.160030
0
LINE
8
Layer 1
10
128.697020
20
8.160030
11
129.199390
21
7.435070
0
LINE
8
Layer 1
10
129.199390
20
7.435070
11
129.510940
21
7.090220
0
LINE
8
Layer 1
10
129.510940
20
7.090220
11
129.900520
21
6.941430
0
LINE
8
Layer 1
10
129.900520
20
6.941430
11
130.290100
21
6.792650
0
LINE
8
Layer 1
10
130.290100
20
6.792650
11
130.817310
21
6.830750
0
LINE
8
Layer 1
10
130.817310
20
6.830750
11
131.344510
21
6.868850
0
LINE
8
Layer 1
10
131.344510
20
6.868850
11
131.763780
21
7.129210
0
LINE
8
Layer 1
10
131.763780
20
7.129210
11
132.183040
21
7.389560
0
LINE
8
Layer 1
10
132.183040
20
7.389560
11
132.456520
21
7.805460
0
LINE
8
Layer 1
10
132.456520
20
7.805460
11
132.907000
21
8.505850
0
LINE
8
Layer 1
10
132.907000
20
8.505850
11
133.233120
21
8.882380
0
LINE
8
Layer 1
10
133.233120
20
8.882380
11
133.382220
21
8.974380
0
LINE
8
Layer 1
10
133.382220
20
8.974380
11
134.007300
21
8.769450
0
LINE
8
Layer 1
10
134.007300
20
8.769450
11
134.632370
21
8.564520
0
LINE
8
Layer 1
10
134.632370
20
8.564520
11
134.960350
21
8.626020
0
LINE
8
Layer 1
10
134.960350
20
8.626020
11
136.014594
21
9.089650
0
LINE
8
Layer 1
10
136.014594
20
9.089650
11
136.389172
21
9.468021
0
LINE
8
Layer 1
10
136.389172
20
9.468021
11
136.625370
21
9.915680
0
LINE
8
Layer 1
10
136.625370
20
9.915680
11
136.942670
21
10.495050
0
LINE
8
Layer 1
10
136.942670
20
10.495050
11
137.121200
21
10.656610
0
LINE
8
Layer 1
10
137.121200
20
10.656610
11
137.270890
21
10.561710
0
LINE
8
Layer 1
10
137.270890
20
10.561710
11
137.420590
21
10.466810
0
LINE
8
Layer 1
10
137.420590
20
10.466810
11
137.425590
21
9.706510
0
LINE
8
Layer 1
10
137.425590
20
9.706510
11
137.430590
21
8.946210
0
LINE
8
Layer 1
10
137.430590
20
8.946210
11
137.586070
21
8.774400
0
LINE
8
Layer 1
10
137.586070
20
8.774400
11
137.741550
21
8.602590
0
LINE
8
Layer 1
10
137.741550
20
8.602590
11
137.817450
21
8.065570
0
LINE
8
Layer 1
10
137.817450
20
8.065570
11
138.042289
21
7.362286
0
LINE
8
Layer 1
10
138.042289
20
7.362286
11
138.252002
21
7.367990
0
LINE
8
Layer 1
10
138.252002
20
7.367990
11
138.579090
21
7.578330
0
LINE
8
Layer 1
10
138.579090
20
7.578330
11
138.884670
21
7.811400
0
LINE
8
Layer 1
10
138.884670
20
7.811400
11
139.347570
21
7.828700
0
LINE
8
Layer 1
10
139.347570
20
7.828700
11
139.810480
21
7.846000
0
LINE
8
Layer 1
10
139.810480
20
7.846000
11
140.111410
21
8.003000
0
LINE
8
Layer 1
10
140.111410
20
8.003000
11
140.996420
21
8.754400
0
LINE
8
Layer 1
10
140.996420
20
8.754400
11
141.580520
21
9.348780
0
LINE
8
Layer 1
10
141.580520
20
9.348780
11
141.892310
21
9.917900
0
LINE
8
Layer 1
10
141.892310
20
9.917900
11
142.204110
21
10.487010
0
LINE
8
Layer 1
10
142.204110
20
10.487010
11
142.379000
21
10.487000
0
LINE
8
Layer 1
10
142.379000
20
10.487000
11
142.554000
21
10.487000
0
LINE
8
Layer 1
10
142.554000
20
10.487000
11
142.554000
21
9.950230
0
LINE
8
Layer 1
10
142.554000
20
9.950230
11
142.554000
21
9.413450
0
LINE
8
Layer 1
10
142.554000
20
9.413450
11
142.195680
21
8.976710
0
LINE
8
Layer 1
10
142.195680
20
8.976710
11
141.203210
21
7.642640
0
LINE
8
Layer 1
10
141.203210
20
7.642640
11
140.339918
21
6.590839
0
LINE
8
Layer 1
10
140.339918
20
6.590839
11
139.555960
21
6.060670
0
LINE
8
Layer 1
10
139.555960
20
6.060670
11
139.241240
21
5.929170
0
LINE
8
Layer 1
10
139.241240
20
5.929170
11
138.678000
21
5.929170
0
LINE
8
Layer 1
10
138.678000
20
5.929170
11
138.116000
21
5.929170
0
LINE
8
Layer 1
10
138.116000
20
5.929170
11
137.465490
21
6.150430
0
LINE
8
Layer 1
10
137.465490
20
6.150430
11
136.814970
21
6.371680
0
LINE
8
Layer 1
10
136.814970
20
6.371680
11
136.011830
21
6.370800
0
LINE
8
Layer 1
10
136.011830
20
6.370800
11
134.456430
21
6.284900
0
LINE
8
Layer 1
10
134.456430
20
6.284900
11
130.128590
21
5.928440
0
LINE
8
Layer 1
10
130.128590
20
5.928440
11
128.500060
21
5.836540
0
LINE
8
Layer 1
10
128.500060
20
5.836540
11
127.871800
21
5.693710
0
LINE
8
Layer 1
10
127.871800
20
5.693710
11
126.491270
21
5.260910
0
LINE
8
Layer 1
10
126.491270
20
5.260910
11
125.080741
21
4.842178
0
LINE
8
Layer 1
10
125.080741
20
4.842178
11
123.349460
21
4.604450
0
LINE
8
Layer 1
10
123.349460
20
4.604450
11
120.962959
21
4.364070
0
LINE
8
Layer 1
10
120.962959
20
4.364070
11
119.884750
21
4.141600
0
LINE
8
Layer 1
10
119.884750
20
4.141600
11
119.327120
21
3.958540
0
LINE
8
Layer 1
10
119.327120
20
3.958540
11
118.967330
21
3.650570
0
LINE
8
Layer 1
10
118.967330
20
3.650570
11
118.420584
21
2.951611
0
LINE
8
Layer 1
10
118.420584
20
2.951611
11
117.960680
21
1.752800
0
LINE
8
Layer 1
10
117.960680
20
1.752800
11
117.727270
21
0.983910
0
LINE
8
Layer 1
10
117.727270
20
0.983910
11
117.488880
21
0.796410
0
LINE
8
Layer 1
10
117.488880
20
0.796410
11
117.250500
21
0.608900
0
LINE
8
Layer 1
10
117.250500
20
0.608900
11
117.032990
21
0.663500
0
LINE
8
Layer 1
10
117.032990
20
0.663500
11
116.815490
21
0.718100
0
LINE
8
Layer 1
10
116.815490
20
0.718100
11
116.630900
21
0.491680
0
LINE
8
Layer 1
10
116.630900
20
0.491680
11
116.446320
21
0.265250
0
LINE
8
Layer 1
10
116.446320
20
0.265250
11
116.180820
21
0.214950
0
LINE
8
Layer 1
10
116.180820
20
0.214950
11
115.915310
21
0.164650
0
LINE
8
Layer 1
10
115.915310
20
0.164650
11
115.804680
21
0.276740
0
LINE
8
Layer 1
10
115.804680
20
0.276740
11
115.804000
21
0.277220
0
LINE
8
Layer 1
10
56.654900
20
0.525140
11
56.374450
21
0.805590
0
LINE
8
Layer 1
10
56.374450
20
0.805590
11
56.431110
21
1.221380
0
LINE
8
Layer 1
10
56.431110
20
1.221380
11
56.487770
21
1.637170
0
LINE
8
Layer 1
10
56.487770
20
1.637170
11
56.793686
21
2.079680
0
LINE
8
Layer 1
10
56.793686
20
2.079680
11
57.350411
21
2.709957
0
LINE
8
Layer 1
10
57.350411
20
2.709957
11
58.068646
21
3.191030
0
LINE
8
Layer 1
10
58.068646
20
3.191030
11
58.429514
21
3.379120
0
LINE
8
Layer 1
10
58.429514
20
3.379120
11
59.072027
21
3.459820
0
LINE
8
Layer 1
10
59.072027
20
3.459820
11
59.714541
21
3.540520
0
LINE
8
Layer 1
10
59.714541
20
3.540520
11
60.200039
21
3.783650
0
LINE
8
Layer 1
10
60.200039
20
3.783650
11
60.685538
21
4.026770
0
LINE
8
Layer 1
10
60.685538
20
4.026770
11
61.351327
21
4.695060
0
LINE
8
Layer 1
10
61.351327
20
4.695060
11
62.455753
21
5.964681
0
LINE
8
Layer 1
10
62.455753
20
5.964681
11
63.524913
21
7.499923
0
LINE
8
Layer 1
10
63.524913
20
7.499923
11
65.455300
21
11.138296
0
LINE
8
Layer 1
10
65.455300
20
11.138296
11
66.938218
21
15.152226
0
LINE
8
Layer 1
10
66.938218
20
15.152226
11
67.448042
21
17.156915
0
LINE
8
Layer 1
10
67.448042
20
17.156915
11
67.769397
21
19.083760
0
LINE
8
Layer 1
10
67.769397
20
19.083760
11
67.902482
21
20.221470
0
LINE
8
Layer 1
10
67.902482
20
20.221470
11
67.902000
21
21.727100
0
LINE
8
Layer 1
10
67.902000
20
21.727100
11
67.902000
21
23.232700
0
LINE
8
Layer 1
10
67.902000
20
23.232700
11
67.772241
21
24.338420
0
LINE
8
Layer 1
10
67.772241
20
24.338420
11
67.380786
21
26.867990
0
LINE
8
Layer 1
10
67.380786
20
26.867990
11
66.960099
21
29.772455
0
LINE
8
Layer 1
10
66.960099
20
29.772455
11
66.998927
21
30.473742
0
LINE
8
Layer 1
10
66.998927
20
30.473742
11
67.195960
21
30.844550
0
LINE
8
Layer 1
10
67.195960
20
30.844550
11
67.371475
21
31.003380
0
LINE
8
Layer 1
10
67.371475
20
31.003380
11
67.722962
21
30.898070
0
LINE
8
Layer 1
10
67.722962
20
30.898070
11
68.074450
21
30.792760
0
LINE
8
Layer 1
10
68.074450
20
30.792760
11
68.326632
21
30.419510
0
LINE
8
Layer 1
10
68.326632
20
30.419510
11
68.802316
21
29.476507
0
LINE
8
Layer 1
10
68.802316
20
29.476507
11
69.163302
21
28.192001
0
LINE
8
Layer 1
10
69.163302
20
28.192001
11
69.601722
21
24.308320
0
LINE
8
Layer 1
10
69.601722
20
24.308320
11
69.706841
21
22.464480
0
LINE
8
Layer 1
10
69.706841
20
22.464480
11
69.599380
21
20.458500
0
LINE
8
Layer 1
10
69.599380
20
20.458500
11
69.392227
21
17.758270
0
LINE
8
Layer 1
10
69.392227
20
17.758270
11
69.071188
21
15.518690
0
LINE
8
Layer 1
10
69.071188
20
15.518690
11
68.607817
21
13.588553
0
LINE
8
Layer 1
10
68.607817
20
13.588553
11
67.973670
21
11.816650
0
LINE
8
Layer 1
10
67.973670
20
11.816650
11
67.484712
21
10.475700
0
LINE
8
Layer 1
10
67.484712
20
10.475700
11
67.439162
21
10.195010
0
LINE
8
Layer 1
10
67.439162
20
10.195010
11
67.683891
21
10.034650
0
LINE
8
Layer 1
10
67.683891
20
10.034650
11
68.556950
21
9.757050
0
LINE
8
Layer 1
10
68.556950
20
9.757050
11
69.185281
21
9.639800
0
LINE
8
Layer 1
10
69.185281
20
9.639800
11
72.592601
21
9.591200
0
LINE
8
Layer 1
10
72.592601
20
9.591200
11
83.920801
21
9.638900
0
LINE
8
Layer 1
10
83.920801
20
9.638900
11
91.841711
21
9.735100
0
LINE
8
Layer 1
10
91.841711
20
9.735100
11
92.456071
21
9.829500
0
LINE
8
Layer 1
10
92.456071
20
9.829500
11
93.077168
21
9.947412
0
LINE
8
Layer 1
10
93.077168
20
9.947412
11
93.342751
21
10.114128
0
LINE
8
Layer 1
10
93.342751
20
10.114128
11
93.296297
21
10.424254
0
LINE
8
Layer 1
10
93.296297
20
10.424254
11
92.981281
21
10.972400
0
LINE
8
Layer 1
10
92.981281
20
10.972400
11
92.250054
21
12.504691
0
LINE
8
Layer 1
10
92.250054
20
12.504691
11
91.879891
21
14.691110
0
LINE
8
Layer 1
10
91.879891
20
14.691110
11
91.688731
21
15.729380
0
LINE
8
Layer 1
10
91.688731
20
15.729380
11
91.601531
21
15.838380
0
LINE
8
Layer 1
10
91.601531
20
15.838380
11
91.414321
21
15.707250
0
LINE
8
Layer 1
10
91.414321
20
15.707250
11
91.227111
21
15.576130
0
LINE
8
Layer 1
10
91.227111
20
15.576130
11
90.838200
21
15.576200
0
LINE
8
Layer 1
10
90.838200
20
15.576200
11
90.449200
21
15.576200
0
LINE
8
Layer 1
10
90.449200
20
15.576200
11
90.119180
21
15.908080
0
LINE
8
Layer 1
10
90.119180
20
15.908080
11
89.789170
21
16.239960
0
LINE
8
Layer 1
10
89.789170
20
16.239960
11
89.605350
21
16.734090
0
LINE
8
Layer 1
10
89.605350
20
16.734090
11
89.320792
21
17.955540
0
LINE
8
Layer 1
10
89.320792
20
17.955540
11
89.231307
21
19.471820
0
LINE
8
Layer 1
10
89.231307
20
19.471820
11
89.336219
21
21.144048
0
LINE
8
Layer 1
10
89.336219
20
21.144048
11
89.634850
21
22.833340
0
LINE
8
Layer 1
10
89.634850
20
22.833340
11
89.857260
21
23.762610
0
LINE
8
Layer 1
10
89.857260
20
23.762610
11
90.202600
21
24.476610
0
LINE
8
Layer 1
10
90.202600
20
24.476610
11
90.547920
21
25.190600
0
LINE
8
Layer 1
10
90.547920
20
25.190600
11
90.949490
21
25.560750
0
LINE
8
Layer 1
10
90.949490
20
25.560750
11
91.477920
21
25.930900
0
LINE
8
Layer 1
10
91.477920
20
25.930900
11
91.822910
21
26.190140
0
LINE
8
Layer 1
10
91.822910
20
26.190140
11
92.041040
21
26.449370
0
LINE
8
Layer 1
10
92.041040
20
26.449370
11
92.100740
21
26.847670
0
LINE
8
Layer 1
10
92.100740
20
26.847670
11
92.339410
21
27.473450
0
LINE
8
Layer 1
10
92.339410
20
27.473450
11
92.518350
21
27.700940
0
LINE
8
Layer 1
10
92.518350
20
27.700940
11
92.858100
21
27.700900
0
LINE
8
Layer 1
10
92.858100
20
27.700900
11
93.197800
21
27.700900
0
LINE
8
Layer 1
10
93.197800
20
27.700900
11
93.426160
21
27.429510
0
LINE
8
Layer 1
10
93.426160
20
27.429510
11
93.801620
21
26.655120
0
LINE
8
Layer 1
10
93.801620
20
26.655120
11
93.948730
21
26.152120
0
LINE
8
Layer 1
10
93.948730
20
26.152120
11
93.945730
21
25.399850
0
LINE
8
Layer 1
10
93.945730
20
25.399850
11
93.942730
21
24.647590
0
LINE
8
Layer 1
10
93.942730
20
24.647590
11
93.795940
21
24.296820
0
LINE
8
Layer 1
10
93.795940
20
24.296820
11
93.500580
21
23.791709
0
LINE
8
Layer 1
10
93.500580
20
23.791709
11
93.170840
21
23.629820
0
LINE
8
Layer 1
10
93.170840
20
23.629820
11
92.769505
21
23.446732
0
LINE
8
Layer 1
10
92.769505
20
23.446732
11
92.519689
21
22.996954
0
LINE
8
Layer 1
10
92.519689
20
22.996954
11
92.465936
21
22.429716
0
LINE
8
Layer 1
10
92.465936
20
22.429716
11
92.652790
21
21.894250
0
LINE
8
Layer 1
10
92.652790
20
21.894250
11
93.088854
21
20.907567
0
LINE
8
Layer 1
10
93.088854
20
20.907567
11
93.526080
21
19.219500
0
LINE
8
Layer 1
10
93.526080
20
19.219500
11
94.025146
21
17.247853
0
LINE
8
Layer 1
10
94.025146
20
17.247853
11
94.579390
21
15.852310
0
LINE
8
Layer 1
10
94.579390
20
15.852310
11
95.096129
21
14.671734
0
LINE
8
Layer 1
10
95.096129
20
14.671734
11
95.428300
21
13.351980
0
LINE
8
Layer 1
10
95.428300
20
13.351980
11
96.246478
21
10.856119
0
LINE
8
Layer 1
10
96.246478
20
10.856119
11
97.677334
21
8.394384
0
LINE
8
Layer 1
10
97.677334
20
8.394384
11
99.721943
21
5.965257
0
LINE
8
Layer 1
10
99.721943
20
5.965257
11
102.381380
21
3.567220
0
LINE
8
Layer 1
10
102.381380
20
3.567220
11
104.225221
21
2.015404
0
LINE
8
Layer 1
10
104.225221
20
2.015404
11
104.929910
21
1.203110
0
LINE
8
Layer 1
10
104.929910
20
1.203110
11
105.072540
21
0.902540
0
LINE
8
Layer 1
10
105.072540
20
0.902540
11
105.515080
21
0.796380
0
LINE
8
Layer 1
10
105.515080
20
0.796380
11
105.957630
21
0.690210
0
LINE
8
Layer 1
10
105.957630
20
0.690210
11
105.958000
21
0.519270
0
LINE
8
Layer 1
10
105.958000
20
0.519270
11
105.903879
21
0.362342
0
LINE
8
Layer 1
10
105.903879
20
0.362342
11
105.682741
21
0.285412
0
LINE
8
Layer 1
10
105.682741
20
0.285412
11
104.386770
21
0.328800
0
LINE
8
Layer 1
10
104.386770
20
0.328800
11
103.115500
21
0.424400
0
LINE
8
Layer 1
10
103.115500
20
0.424400
11
102.943720
21
0.579860
0
LINE
8
Layer 1
10
102.943720
20
0.579860
11
102.771940
21
0.834440
0
LINE
8
Layer 1
10
102.771940
20
0.834440
11
100.470900
21
3.072780
0
LINE
8
Layer 1
10
100.470900
20
3.072780
11
98.037100
21
5.306420
0
LINE
8
Layer 1
10
98.037100
20
5.306420
11
96.739758
21
6.480711
0
LINE
8
Layer 1
10
96.739758
20
6.480711
11
95.745314
21
7.189140
0
LINE
8
Layer 1
10
95.745314
20
7.189140
11
94.779428
21
7.586446
0
LINE
8
Layer 1
10
94.779428
20
7.586446
11
93.567760
21
7.827370
0
LINE
8
Layer 1
10
93.567760
20
7.827370
11
92.638490
21
7.967040
0
LINE
8
Layer 1
10
92.638490
20
7.967040
11
89.939190
21
8.065440
0
LINE
8
Layer 1
10
89.939190
20
8.065440
11
87.239880
21
8.163840
0
LINE
8
Layer 1
10
87.239880
20
8.163840
11
77.416200
21
8.062800
0
LINE
8
Layer 1
10
77.416200
20
8.062800
11
67.592510
21
7.961780
0
LINE
8
Layer 1
10
67.592510
20
7.961780
11
66.840245
21
7.871780
0
LINE
8
Layer 1
10
66.840245
20
7.871780
11
65.522996
21
7.634081
0
LINE
8
Layer 1
10
65.522996
20
7.634081
11
64.688845
21
7.293220
0
LINE
8
Layer 1
10
64.688845
20
7.293220
11
64.351731
21
7.070690
0
LINE
8
Layer 1
10
64.351731
20
7.070690
11
64.010467
21
6.522270
0
LINE
8
Layer 1
10
64.010467
20
6.522270
11
62.607487
21
4.483860
0
LINE
8
Layer 1
10
62.607487
20
4.483860
11
61.613458
21
3.504062
0
LINE
8
Layer 1
10
61.613458
20
3.504062
11
60.519827
21
2.705750
0
LINE
8
Layer 1
10
60.519827
20
2.705750
11
59.996281
21
2.395980
0
LINE
8
Layer 1
10
59.996281
20
2.395980
11
59.590559
21
2.338980
0
LINE
8
Layer 1
10
59.590559
20
2.338980
11
59.011972
21
2.150660
0
LINE
8
Layer 1
10
59.011972
20
2.150660
11
58.466343
21
1.800956
0
LINE
8
Layer 1
10
58.466343
20
1.800956
11
58.060572
21
1.376817
0
LINE
8
Layer 1
10
58.060572
20
1.376817
11
57.901559
21
0.965190
0
LINE
8
Layer 1
10
57.901559
20
0.965190
11
57.702430
21
0.580120
0
LINE
8
Layer 1
10
57.702430
20
0.580120
11
57.503301
21
0.353840
0
LINE
8
Layer 1
10
57.503301
20
0.353840
11
57.219216
21
0.299340
0
LINE
8
Layer 1
10
57.219216
20
0.299340
11
56.935131
21
0.244840
0
LINE
8
Layer 1
10
56.935131
20
0.244840
11
56.654900
21
0.525140
0
LINE
8
Layer 1
10
43.608600
20
0.708160
11
43.612400
21
1.188410
0
LINE
8
Layer 1
10
43.612400
20
1.188410
11
43.671110
21
1.579890
0
LINE
8
Layer 1
10
43.671110
20
1.579890
11
43.422414
21
2.036820
0
LINE
8
Layer 1
10
43.422414
20
2.036820
11
42.919784
21
2.704865
0
LINE
8
Layer 1
10
42.919784
20
2.704865
11
42.181347
21
3.344841
0
LINE
8
Layer 1
10
42.181347
20
3.344841
11
41.274327
21
3.907615
0
LINE
8
Layer 1
10
41.274327
20
3.907615
11
40.265944
21
4.344050
0
LINE
8
Layer 1
10
40.265944
20
4.344050
11
39.537637
21
4.594780
0
LINE
8
Layer 1
10
39.537637
20
4.594780
11
38.034077
21
4.819460
0
LINE
8
Layer 1
10
38.034077
20
4.819460
11
35.965127
21
5.232290
0
LINE
8
Layer 1
10
35.965127
20
5.232290
11
35.399738
21
5.420440
0
LINE
8
Layer 1
10
35.399738
20
5.420440
11
34.769382
21
6.012510
0
LINE
8
Layer 1
10
34.769382
20
6.012510
11
33.859859
21
6.798060
0
LINE
8
Layer 1
10
33.859859
20
6.798060
11
33.580691
21
6.991530
0
LINE
8
Layer 1
10
33.580691
20
6.991530
11
33.300500
21
6.991530
0
LINE
8
Layer 1
10
33.300500
20
6.991530
11
32.810707
21
6.870951
0
LINE
8
Layer 1
10
32.810707
20
6.870951
11
31.970330
21
6.280100
0
LINE
8
Layer 1
10
31.970330
20
6.280100
11
30.918224
21
5.586993
0
LINE
8
Layer 1
10
30.918224
20
5.586993
11
30.068990
21
5.335620
0
LINE
8
Layer 1
10
30.068990
20
5.335620
11
29.606261
21
5.287820
0
LINE
8
Layer 1
10
29.606261
20
5.287820
11
29.305894
21
5.387520
0
LINE
8
Layer 1
10
29.305894
20
5.387520
11
29.005526
21
5.487220
0
LINE
8
Layer 1
10
29.005526
20
5.487220
11
28.430264
21
6.026080
0
LINE
8
Layer 1
10
28.430264
20
6.026080
11
27.780516
21
6.579345
0
LINE
8
Layer 1
10
27.780516
20
6.579345
11
27.262295
21
6.844216
0
LINE
8
Layer 1
10
27.262295
20
6.844216
11
26.753616
21
6.853226
0
LINE
8
Layer 1
10
26.753616
20
6.853226
11
26.132494
21
6.638910
0
LINE
8
Layer 1
10
26.132494
20
6.638910
11
24.732615
21
6.203571
0
LINE
8
Layer 1
10
24.732615
20
6.203571
11
23.386287
21
6.127911
0
LINE
8
Layer 1
10
23.386287
20
6.127911
11
22.157149
21
6.406905
0
LINE
8
Layer 1
10
22.157149
20
6.406905
11
21.108844
21
7.035530
0
LINE
8
Layer 1
10
21.108844
20
7.035530
11
20.741404
21
7.350040
0
LINE
8
Layer 1
10
20.741404
20
7.350040
11
20.519973
21
7.812400
0
LINE
8
Layer 1
10
20.519973
20
7.812400
11
20.240213
21
8.772940
0
LINE
8
Layer 1
10
20.240213
20
8.772940
11
20.181883
21
9.271120
0
LINE
8
Layer 1
10
20.181883
20
9.271120
11
20.287738
21
9.336520
0
LINE
8
Layer 1
10
20.287738
20
9.336520
11
20.393593
21
9.401920
0
LINE
8
Layer 1
10
20.393593
20
9.401920
11
20.503686
21
9.280820
0
LINE
8
Layer 1
10
20.503686
20
9.280820
11
20.771572
21
8.730040
0
LINE
8
Layer 1
10
20.771572
20
8.730040
11
21.214726
21
7.989805
0
LINE
8
Layer 1
10
21.214726
20
7.989805
11
21.941292
21
7.466530
0
LINE
8
Layer 1
10
21.941292
20
7.466530
11
22.431851
21
7.226520
0
LINE
8
Layer 1
10
22.431851
20
7.226520
11
23.119094
21
7.186720
0
LINE
8
Layer 1
10
23.119094
20
7.186720
11
23.806337
21
7.146920
0
LINE
8
Layer 1
10
23.806337
20
7.146920
11
24.281889
21
7.304090
0
LINE
8
Layer 1
10
24.281889
20
7.304090
11
24.757442
21
7.461260
0
LINE
8
Layer 1
10
24.757442
20
7.461260
11
25.376954
21
8.056230
0
LINE
8
Layer 1
10
25.376954
20
8.056230
11
26.293638
21
8.802030
0
LINE
8
Layer 1
10
26.293638
20
8.802030
11
27.122015
21
9.343900
0
LINE
8
Layer 1
10
27.122015
20
9.343900
11
27.653221
21
9.734950
0
LINE
8
Layer 1
10
27.653221
20
9.734950
11
27.955400
21
9.734950
0
LINE
8
Layer 1
10
27.955400
20
9.734950
11
28.257600
21
9.734950
0
LINE
8
Layer 1
10
28.257600
20
9.734950
11
28.343910
21
9.507940
0
LINE
8
Layer 1
10
28.343910
20
9.507940
11
28.430220
21
8.858240
0
LINE
8
Layer 1
10
28.430220
20
8.858240
11
28.506101
21
8.198369
0
LINE
8
Layer 1
10
28.506101
20
8.198369
11
28.723342
21
7.614715
0
LINE
8
Layer 1
10
28.723342
20
7.614715
11
29.066339
21
7.136841
0
LINE
8
Layer 1
10
29.066339
20
7.136841
11
29.519490
21
6.794310
0
LINE
8
Layer 1
10
29.519490
20
6.794310
11
29.890495
21
6.598860
0
LINE
8
Layer 1
10
29.890495
20
6.598860
11
30.465757
21
6.600860
0
LINE
8
Layer 1
10
30.465757
20
6.600860
11
31.041018
21
6.602860
0
LINE
8
Layer 1
10
31.041018
20
6.602860
11
31.527777
21
6.828790
0
LINE
8
Layer 1
10
31.527777
20
6.828790
11
32.412853
21
7.420871
0
LINE
8
Layer 1
10
32.412853
20
7.420871
11
33.097057
21
8.243840
0
LINE
8
Layer 1
10
33.097057
20
8.243840
11
33.383066
21
8.720010
0
LINE
8
Layer 1
10
33.383066
20
8.720010
11
33.562509
21
9.421630
0
LINE
8
Layer 1
10
33.562509
20
9.421630
11
33.794339
21
10.836030
0
LINE
8
Layer 1
10
33.794339
20
10.836030
11
33.846729
21
11.548820
0
LINE
8
Layer 1
10
33.846729
20
11.548820
11
33.587808
21
12.212580
0
LINE
8
Layer 1
10
33.587808
20
12.212580
11
33.245216
21
13.141850
0
LINE
8
Layer 1
10
33.245216
20
13.141850
11
33.161546
21
13.407360
0
LINE
8
Layer 1
10
33.161546
20
13.407360
11
32.645205
21
13.453360
0
LINE
8
Layer 1
10
32.645205
20
13.453360
11
32.128864
21
13.499460
0
LINE
8
Layer 1
10
32.128864
20
13.499460
11
31.908647
21
13.755480
0
LINE
8
Layer 1
10
31.908647
20
13.755480
11
31.688432
21
14.011490
0
LINE
8
Layer 1
10
31.688432
20
14.011490
11
31.741912
21
14.278880
0
LINE
8
Layer 1
10
31.741912
20
14.278880
11
31.982966
21
14.732699
0
LINE
8
Layer 1
10
31.982966
20
14.732699
11
32.573130
21
15.012210
0
LINE
8
Layer 1
10
32.573130
20
15.012210
11
33.056315
21
15.152680
0
LINE
8
Layer 1
10
33.056315
20
15.152680
11
33.566670
21
15.115780
0
LINE
8
Layer 1
10
33.566670
20
15.115780
11
34.077026
21
15.078880
0
LINE
8
Layer 1
10
34.077026
20
15.078880
11
34.406127
21
14.827870
0
LINE
8
Layer 1
10
34.406127
20
14.827870
11
34.735228
21
14.576850
0
LINE
8
Layer 1
10
34.735228
20
14.576850
11
34.964619
21
14.080630
0
LINE
8
Layer 1
10
34.964619
20
14.080630
11
35.194010
21
13.584400
0
LINE
8
Layer 1
10
35.194010
20
13.584400
11
35.246580
21
11.858610
0
LINE
8
Layer 1
10
35.246580
20
11.858610
11
35.299150
21
10.132830
0
LINE
8
Layer 1
10
35.299150
20
10.132830
11
35.524086
21
9.504290
0
LINE
8
Layer 1
10
35.524086
20
9.504290
11
35.990877
21
8.519428
0
LINE
8
Layer 1
10
35.990877
20
8.519428
11
36.623109
21
7.714231
0
LINE
8
Layer 1
10
36.623109
20
7.714231
11
37.423242
21
7.086239
0
LINE
8
Layer 1
10
37.423242
20
7.086239
11
38.393736
21
6.632990
0
LINE
8
Layer 1
10
38.393736
20
6.632990
11
38.917674
21
6.451130
0
LINE
8
Layer 1
10
38.917674
20
6.451130
11
39.625688
21
6.405030
0
LINE
8
Layer 1
10
39.625688
20
6.405030
11
40.333702
21
6.358930
0
LINE
8
Layer 1
10
40.333702
20
6.358930
11
40.643458
21
6.520080
0
LINE
8
Layer 1
10
40.643458
20
6.520080
11
40.953214
21
6.681220
0
LINE
8
Layer 1
10
40.953214
20
6.681220
11
41.073377
21
7.035230
0
LINE
8
Layer 1
10
41.073377
20
7.035230
11
41.193541
21
7.389240
0
LINE
8
Layer 1
10
41.193541
20
7.389240
11
41.269291
21
9.601780
0
LINE
8
Layer 1
10
41.269291
20
9.601780
11
41.492686
21
14.779130
0
LINE
8
Layer 1
10
41.492686
20
14.779130
11
41.604178
21
18.631780
0
LINE
8
Layer 1
10
41.604178
20
18.631780
11
41.568028
21
19.519610
0
LINE
8
Layer 1
10
41.568028
20
19.519610
11
41.357281
21
19.815580
0
LINE
8
Layer 1
10
41.357281
20
19.815580
11
41.146535
21
20.111550
0
LINE
8
Layer 1
10
41.146535
20
20.111550
11
40.784373
21
20.271400
0
LINE
8
Layer 1
10
40.784373
20
20.271400
11
39.404443
21
20.572590
0
LINE
8
Layer 1
10
39.404443
20
20.572590
11
34.492593
21
21.378180
0
LINE
8
Layer 1
10
34.492593
20
21.378180
11
32.899563
21
21.740150
0
LINE
8
Layer 1
10
32.899563
20
21.740150
11
32.280051
21
21.876760
0
LINE
8
Layer 1
10
32.280051
20
21.876760
11
31.572037
21
21.829460
0
LINE
8
Layer 1
10
31.572037
20
21.829460
11
30.864023
21
21.782160
0
LINE
8
Layer 1
10
30.864023
20
21.782160
11
30.156009
21
21.557460
0
LINE
8
Layer 1
10
30.156009
20
21.557460
11
28.592995
21
20.839717
0
LINE
8
Layer 1
10
28.592995
20
20.839717
11
27.031355
21
19.673803
0
LINE
8
Layer 1
10
27.031355
20
19.673803
11
25.457439
21
18.047564
0
LINE
8
Layer 1
10
25.457439
20
18.047564
11
23.857599
21
15.948850
0
LINE
8
Layer 1
10
23.857599
20
15.948850
11
22.444684
21
14.026855
0
LINE
8
Layer 1
10
22.444684
20
14.026855
11
21.353579
21
12.808240
0
LINE
8
Layer 1
10
21.353579
20
12.808240
11
20.645085
21
12.042450
0
LINE
8
Layer 1
10
20.645085
20
12.042450
11
20.531054
21
11.828100
0
LINE
8
Layer 1
10
20.531054
20
11.828100
11
20.459234
21
10.857520
0
LINE
8
Layer 1
10
20.459234
20
10.857520
11
20.293488
21
9.793010
0
LINE
8
Layer 1
10
20.293488
20
9.793010
11
20.199568
21
9.699110
0
LINE
8
Layer 1
10
20.199568
20
9.699110
11
20.088941
21
9.809740
0
LINE
8
Layer 1
10
20.088941
20
9.809740
11
19.978314
21
9.920370
0
LINE
8
Layer 1
10
19.978314
20
9.920370
11
19.981414
21
11.177090
0
LINE
8
Layer 1
10
19.981414
20
11.177090
11
19.984514
21
12.433820
0
LINE
8
Layer 1
10
19.984514
20
12.433820
11
20.281073
21
13.299270
0
LINE
8
Layer 1
10
20.281073
20
13.299270
11
20.941898
21
14.809144
0
LINE
8
Layer 1
10
20.941898
20
14.809144
11
21.886718
21
16.389685
0
LINE
8
Layer 1
10
21.886718
20
16.389685
11
23.051596
21
17.973000
0
LINE
8
Layer 1
10
23.051596
20
17.973000
11
24.372598
21
19.491197
0
LINE
8
Layer 1
10
24.372598
20
19.491197
11
25.785788
21
20.876385
0
LINE
8
Layer 1
10
25.785788
20
20.876385
11
27.227231
21
22.060672
0
LINE
8
Layer 1
10
27.227231
20
22.060672
11
28.632991
21
22.976164
0
LINE
8
Layer 1
10
28.632991
20
22.976164
11
29.939133
21
23.554970
0
LINE
8
Layer 1
10
29.939133
20
23.554970
11
30.598532
21
23.762040
0
LINE
8
Layer 1
10
30.598532
20
23.762040
11
31.793302
21
23.754040
0
LINE
8
Layer 1
10
31.793302
20
23.754040
11
32.988072
21
23.746040
0
LINE
8
Layer 1
10
32.988072
20
23.746040
11
33.563334
21
23.565720
0
LINE
8
Layer 1
10
33.563334
20
23.565720
11
35.067864
21
23.027240
0
LINE
8
Layer 1
10
35.067864
20
23.027240
11
36.882154
21
22.479740
0
LINE
8
Layer 1
10
36.882154
20
22.479740
11
37.767171
21
22.290400
0
LINE
8
Layer 1
10
37.767171
20
22.290400
11
39.281041
21
22.240500
0
LINE
8
Layer 1
10
39.281041
20
22.240500
11
40.794911
21
22.190600
0
LINE
8
Layer 1
10
40.794911
20
22.190600
11
41.484396
21
22.343990
0
LINE
8
Layer 1
10
41.484396
20
22.343990
11
42.173880
21
22.497390
0
LINE
8
Layer 1
10
42.173880
20
22.497390
11
42.375620
21
22.699130
0
LINE
8
Layer 1
10
42.375620
20
22.699130
11
42.617237
21
23.096751
0
LINE
8
Layer 1
10
42.617237
20
23.096751
11
42.820095
21
23.824439
0
LINE
8
Layer 1
10
42.820095
20
23.824439
11
43.134495
21
26.635890
0
LINE
8
Layer 1
10
43.134495
20
26.635890
11
43.572790
21
40.244230
0
LINE
8
Layer 1
10
43.572790
20
40.244230
11
43.627000
21
47.368630
0
LINE
8
Layer 1
10
43.627000
20
47.368630
11
43.579110
21
49.428360
0
LINE
8
Layer 1
10
43.579110
20
49.428360
11
43.443076
21
50.027500
0
LINE
8
Layer 1
10
43.443076
20
50.027500
11
43.019657
21
51.178020
0
LINE
8
Layer 1
10
43.019657
20
51.178020
11
42.732273
21
51.729410
0
LINE
8
Layer 1
10
42.732273
20
51.729410
11
37.325413
21
57.172260
0
LINE
8
Layer 1
10
37.325413
20
57.172260
11
31.918553
21
62.615120
0
LINE
8
Layer 1
10
31.918553
20
62.615120
11
31.024153
21
63.689940
0
LINE
8
Layer 1
10
31.024153
20
63.689940
11
29.243328
21
66.139944
0
LINE
8
Layer 1
10
29.243328
20
66.139944
11
28.697487
21
67.213824
0
LINE
8
Layer 1
10
28.697487
20
67.213824
11
28.327133
21
68.279230
0
LINE
8
Layer 1
10
28.327133
20
68.279230
11
28.133738
21
68.987250
0
LINE
8
Layer 1
10
28.133738
20
68.987250
11
28.133827
21
70.668780
0
LINE
8
Layer 1
10
28.133827
20
70.668780
11
28.133915
21
72.350310
0
LINE
8
Layer 1
10
28.133915
20
72.350310
11
28.324292
21
74.120350
0
LINE
8
Layer 1
10
28.324292
20
74.120350
11
28.708712
21
79.251405
0
LINE
8
Layer 1
10
28.708712
20
79.251405
11
28.872538
21
88.767350
0
LINE
8
Layer 1
10
28.872538
20
88.767350
11
28.977203
21
95.598170
0
LINE
8
Layer 1
10
28.977203
20
95.598170
11
29.163209
21
99.904688
0
LINE
8
Layer 1
10
29.163209
20
99.904688
11
29.502189
21
102.648936
0
LINE
8
Layer 1
10
29.502189
20
102.648936
11
30.065778
21
104.792950
0
LINE
8
Layer 1
10
30.065778
20
104.792950
11
30.513125
21
106.830555
0
LINE
8
Layer 1
10
30.513125
20
106.830555
11
30.365092
21
108.559040
0
LINE
8
Layer 1
10
30.365092
20
108.559040
11
30.261614
21
108.969990
0
LINE
8
Layer 1
10
30.261614
20
108.969990
11
29.659136
21
109.884110
0
LINE
8
Layer 1
10
29.659136
20
109.884110
11
23.530346
21
118.459710
0
LINE
8
Layer 1
10
23.530346
20
118.459710
11
19.279406
21
124.312833
0
LINE
8
Layer 1
10
19.279406
20
124.312833
11
15.461606
21
130.053410
0
LINE
8
Layer 1
10
15.461606
20
130.053410
11
12.565547
21
134.593509
0
LINE
8
Layer 1
10
12.565547
20
134.593509
11
12.141578
21
135.427612
0
LINE
8
Layer 1
10
12.141578
20
135.427612
11
12.057406
21
135.892610
0
LINE
8
Layer 1
10
12.057406
20
135.892610
11
12.057400
21
136.179000
0
LINE
8
Layer 1
10
12.057400
20
136.179000
11
12.353830
21
136.567859
0
LINE
8
Layer 1
10
12.353830
20
136.567859
11
12.725962
21
137.130873
0
LINE
8
Layer 1
10
12.725962
20
137.130873
11
13.016635
21
137.858956
0
LINE
8
Layer 1
10
13.016635
20
137.858956
11
13.733310
21
141.041809
0
LINE
8
Layer 1
10
13.733310
20
141.041809
11
14.324587
21
143.630200
0
LINE
8
Layer 1
10
14.324587
20
143.630200
11
14.830630
21
144.823599
0
LINE
8
Layer 1
10
14.830630
20
144.823599
11
15.067993
21
145.266108
0
LINE
8
Layer 1
10
15.067993
20
145.266108
11
15.385935
21
147.511864
0
LINE
8
Layer 1
10
15.385935
20
147.511864
11
16.211890
21
150.053674
0
LINE
8
Layer 1
10
16.211890
20
150.053674
11
17.448482
21
152.649006
0
LINE
8
Layer 1
10
17.448482
20
152.649006
11
18.998333
21
155.055328
0
LINE
8
Layer 1
10
18.998333
20
155.055328
11
19.762025
21
156.073098
0
LINE
8
Layer 1
10
19.762025
20
156.073098
11
19.863051
21
156.467121
0
LINE
8
Layer 1
10
19.863051
20
156.467121
11
19.964077
21
156.861145
0
LINE
8
Layer 1
10
19.964077
20
156.861145
11
20.349891
21
157.236113
0
LINE
8
Layer 1
10
20.349891
20
157.236113
11
20.735706
21
157.611083
0
LINE
8
Layer 1
10
20.735706
20
157.611083
11
21.242022
21
157.799382
0
LINE
8
Layer 1
10
21.242022
20
157.799382
11
22.695973
21
158.665929
0
LINE
8
Layer 1
10
22.695973
20
158.665929
11
23.253912
21
159.215463
0
LINE
8
Layer 1
10
23.253912
20
159.215463
11
23.572982
21
159.737582
0
LINE
8
Layer 1
10
23.572982
20
159.737582
11
23.664552
21
160.000250
0
LINE
8
Layer 1
10
23.664552
20
160.000250
11
24.122475
21
160.349407
0
LINE
8
Layer 1
10
24.122475
20
160.349407
11
24.902478
21
160.851122
0
LINE
8
Layer 1
10
24.902478
20
160.851122
11
25.535385
21
160.984940
0
LINE
8
Layer 1
10
25.535385
20
160.984940
11
25.923900
21
160.985000
0
LINE
8
Layer 1
10
25.923900
20
160.985000
11
26.451741
21
160.721234
0
LINE
8
Layer 1
10
26.451741
20
160.721234
11
27.351010
21
160.134747
0
LINE
8
Layer 1
10
27.351010
20
160.134747
11
28.630295
21
159.037238
0
LINE
8
Layer 1
10
28.630295
20
159.037238
11
32.996981
21
154.693934
0
LINE
8
Layer 1
10
32.996981
20
154.693934
11
34.765711
21
152.872214
0
LINE
8
Layer 1
10
34.765711
20
152.872214
11
35.247483
21
152.547770
0
LINE
8
Layer 1
10
35.247483
20
152.547770
11
35.932343
21
152.223326
0
LINE
8
Layer 1
10
35.932343
20
152.223326
11
36.135500
21
152.223000
0
LINE
8
Layer 1
10
36.135500
20
152.223000
11
36.187710
21
152.086951
0
LINE
8
Layer 1
10
36.187710
20
152.086951
11
36.239920
21
151.950902
0
LINE
8
Layer 1
10
36.239920
20
151.950902
11
36.080996
21
151.775293
0
LINE
8
Layer 1
10
36.080996
20
151.775293
11
35.922071
21
151.599683
0
LINE
8
Layer 1
10
35.922071
20
151.599683
11
35.823771
21
151.056133
0
LINE
8
Layer 1
10
35.823771
20
151.056133
11
35.725471
21
150.512582
0
LINE
8
Layer 1
10
35.725471
20
150.512582
11
35.580577
21
150.421182
0
LINE
8
Layer 1
10
35.580577
20
150.421182
11
35.435683
21
150.329782
0
LINE
8
Layer 1
10
35.435683
20
150.329782
11
35.209107
21
150.433018
0
LINE
8
Layer 1
10
35.209107
20
150.433018
11
34.783338
21
150.820502
0
LINE
8
Layer 1
10
34.783338
20
150.820502
11
33.420600
21
152.621000
0
LINE
8
Layer 1
10
33.420600
20
152.621000
11
31.483548
21
155.049500
0
LINE
8
Layer 1
10
31.483548
20
155.049500
11
29.588787
21
157.097000
0
LINE
8
Layer 1
10
29.588787
20
157.097000
11
27.843033
21
158.657750
0
LINE
8
Layer 1
10
27.843033
20
158.657750
11
26.353000
21
159.626000
0
LINE
8
Layer 1
10
26.353000
20
159.626000
11
25.735900
21
159.923000
0
LINE
8
Layer 1
10
25.735900
20
159.923000
11
25.309700
21
159.923000
0
LINE
8
Layer 1
10
25.309700
20
159.923000
11
24.883500
21
159.923000
0
LINE
8
Layer 1
10
24.883500
20
159.923000
11
23.403400
21
158.396340
0
LINE
8
Layer 1
10
23.403400
20
158.396340
11
20.293584
21
155.109876
0
LINE
8
Layer 1
10
20.293584
20
155.109876
11
18.899340
21
153.271160
0
LINE
8
Layer 1
10
18.899340
20
153.271160
11
18.161194
21
152.033961
0
LINE
8
Layer 1
10
18.161194
20
152.033961
11
17.552669
21
150.730979
0
LINE
8
Layer 1
10
17.552669
20
150.730979
11
16.477520
21
147.320910
0
LINE
8
Layer 1
10
16.477520
20
147.320910
11
15.600330
21
144.346690
0
LINE
8
Layer 1
10
15.600330
20
144.346690
11
15.162449
21
143.063410
0
LINE
8
Layer 1
10
15.162449
20
143.063410
11
14.808688
21
141.293380
0
LINE
8
Layer 1
10
14.808688
20
141.293380
11
14.251006
21
138.094283
0
LINE
8
Layer 1
10
14.251006
20
138.094283
11
14.004871
21
135.934550
0
LINE
8
Layer 1
10
14.004871
20
135.934550
11
14.004517
21
135.443318
0
LINE
8
Layer 1
10
14.004517
20
135.443318
11
14.783959
21
134.164518
0
LINE
8
Layer 1
10
14.783959
20
134.164518
11
17.496094
21
130.007054
0
LINE
8
Layer 1
10
17.496094
20
130.007054
11
21.258829
21
124.556519
0
LINE
8
Layer 1
10
21.258829
20
124.556519
11
25.017454
21
119.312559
0
LINE
8
Layer 1
10
25.017454
20
119.312559
11
27.717259
21
115.774818
0
LINE
8
Layer 1
10
27.717259
20
115.774818
11
28.184351
21
115.213778
0
LINE
8
Layer 1
10
28.184351
20
115.213778
11
28.272701
21
115.302178
0
LINE
8
Layer 1
10
28.272701
20
115.302178
11
28.361051
21
115.390578
0
LINE
8
Layer 1
10
28.361051
20
115.390578
11
27.943315
21
116.394268
0
LINE
8
Layer 1
10
27.943315
20
116.394268
11
27.205640
21
118.282978
0
LINE
8
Layer 1
10
27.205640
20
118.282978
11
26.885707
21
119.167998
0
LINE
8
Layer 1
10
26.885707
20
119.167998
11
26.883907
21
120.097268
0
LINE
8
Layer 1
10
26.883907
20
120.097268
11
26.882107
21
121.026538
0
LINE
8
Layer 1
10
26.882107
20
121.026538
11
27.117237
21
121.482738
0
LINE
8
Layer 1
10
27.117237
20
121.482738
11
27.751470
21
122.428928
0
LINE
8
Layer 1
10
27.751470
20
122.428928
11
28.478361
21
123.480048
0
LINE
8
Layer 1
10
28.478361
20
123.480048
11
29.558390
21
125.410888
0
LINE
8
Layer 1
10
29.558390
20
125.410888
11
30.246049
21
126.690648
0
LINE
8
Layer 1
10
30.246049
20
126.690648
11
30.422300
21
126.690000
0
LINE
8
Layer 1
10
30.422300
20
126.690000
11
30.598500
21
126.690000
0
LINE
8
Layer 1
10
30.598500
20
126.690000
11
30.593800
21
126.335990
0
LINE
8
Layer 1
10
30.593800
20
126.335990
11
30.378760
21
124.831460
0
LINE
8
Layer 1
10
30.378760
20
124.831460
11
30.168455
21
123.680940
0
LINE
8
Layer 1
10
30.168455
20
123.680940
11
30.166155
21
121.778150
0
LINE
8
Layer 1
10
30.166155
20
121.778150
11
30.163855
21
119.875370
0
LINE
8
Layer 1
10
30.163855
20
119.875370
11
30.314911
21
118.901850
0
LINE
8
Layer 1
10
30.314911
20
118.901850
11
30.959747
21
116.255798
0
LINE
8
Layer 1
10
30.959747
20
116.255798
11
31.404464
21
115.279969
0
LINE
8
Layer 1
10
31.404464
20
115.279969
11
31.931441
21
114.533640
0
LINE
8
Layer 1
10
31.931441
20
114.533640
11
32.417974
21
114.110142
0
LINE
8
Layer 1
10
32.417974
20
114.110142
11
32.623608
21
114.103138
0
LINE
8
Layer 1
10
32.623608
20
114.103138
11
32.833141
21
114.266749
0
LINE
8
Layer 1
10
32.833141
20
114.266749
11
33.350863
21
115.208169
0
LINE
8
Layer 1
10
33.350863
20
115.208169
11
34.145061
21
117.139110
0
LINE
8
Layer 1
10
34.145061
20
117.139110
11
35.865627
21
121.094169
0
LINE
8
Layer 1
10
35.865627
20
121.094169
11
37.538201
21
124.039668
0
LINE
8
Layer 1
10
37.538201
20
124.039668
11
39.356185
21
126.261938
0
LINE
8
Layer 1
10
39.356185
20
126.261938
11
41.512981
21
128.047310
0
LINE
8
Layer 1
10
41.512981
20
128.047310
11
47.760341
21
131.740690
0
LINE
8
Layer 1
10
47.760341
20
131.740690
11
50.923631
21
132.916646
0
LINE
8
Layer 1
10
50.923631
20
132.916646
11
54.904080
21
133.934359
0
LINE
8
Layer 1
10
54.904080
20
133.934359
11
59.186484
21
134.683652
0
LINE
8
Layer 1
10
59.186484
20
134.683652
11
63.255641
21
135.054350
0
LINE
8
Layer 1
10
63.255641
20
135.054350
11
68.344491
21
135.375453
0
LINE
8
Layer 1
10
68.344491
20
135.375453
11
70.911041
21
135.513671
0
LINE
8
Layer 1
10
70.911041
20
135.513671
11
72.105811
21
135.517371
0
LINE
8
Layer 1
10
72.105811
20
135.517371
11
73.875841
21
135.199603
0
LINE
8
Layer 1
10
73.875841
20
135.199603
11
80.469231
21
134.265061
0
LINE
8
Layer 1
10
80.469231
20
134.265061
11
86.708601
21
133.811410
0
LINE
8
Layer 1
10
86.708601
20
133.811410
11
91.570662
21
133.291216
0
LINE
8
Layer 1
10
91.570662
20
133.291216
11
93.374587
21
132.926786
0
LINE
8
Layer 1
10
93.374587
20
132.926786
11
94.547891
21
132.527610
0
LINE
8
Layer 1
10
94.547891
20
132.527610
11
94.970421
21
132.313493
0
LINE
8
Layer 1
10
94.970421
20
132.313493
11
95.031921
21
132.119719
0
LINE
8
Layer 1
10
95.031921
20
132.119719
11
95.093421
21
131.925945
0
LINE
8
Layer 1
10
95.093421
20
131.925945
11
94.502111
21
131.397384
0
LINE
8
Layer 1
10
94.502111
20
131.397384
11
93.910791
21
130.868823
0
LINE
8
Layer 1
10
93.910791
20
130.868823
11
93.651461
21
130.416685
0
LINE
8
Layer 1
10
93.651461
20
130.416685
11
93.436980
21
129.827271
0
LINE
8
Layer 1
10
93.436980
20
129.827271
11
93.731265
21
129.843587
0
LINE
8
Layer 1
10
93.731265
20
129.843587
11
94.341110
21
130.353238
0
LINE
8
Layer 1
10
94.341110
20
130.353238
11
95.073311
21
131.243828
0
LINE
8
Layer 1
10
95.073311
20
131.243828
11
95.286881
21
131.549590
0
LINE
8
Layer 1
10
95.286881
20
131.549590
11
95.289881
21
131.819089
0
LINE
8
Layer 1
10
95.289881
20
131.819089
11
95.292881
21
132.088588
0
LINE
8
Layer 1
10
95.292881
20
132.088588
11
95.517481
21
132.114778
0
LINE
8
Layer 1
10
95.517481
20
132.114778
11
95.742081
21
132.140968
0
LINE
8
Layer 1
10
95.742081
20
132.140968
11
96.845011
21
131.731664
0
LINE
8
Layer 1
10
96.845011
20
131.731664
11
98.832951
21
130.894792
0
LINE
8
Layer 1
10
98.832951
20
130.894792
11
99.717971
21
130.467224
0
LINE
8
Layer 1
10
99.717971
20
130.467224
11
99.980991
21
130.190539
0
LINE
8
Layer 1
10
99.980991
20
130.190539
11
100.244011
21
129.913853
0
LINE
8
Layer 1
10
100.244011
20
129.913853
11
100.148911
21
129.762195
0
LINE
8
Layer 1
10
100.148911
20
129.762195
11
100.053811
21
129.610535
0
LINE
8
Layer 1
10
100.053811
20
129.610535
11
99.620371
21
129.582205
0
LINE
8
Layer 1
10
99.620371
20
129.582205
11
98.409991
21
129.704307
0
LINE
8
Layer 1
10
98.409991
20
129.704307
11
97.633041
21
129.854743
0
LINE
8
Layer 1
10
97.633041
20
129.854743
11
96.993961
21
129.813213
0
LINE
8
Layer 1
10
96.993961
20
129.813213
11
96.354871
21
129.771683
0
LINE
8
Layer 1
10
96.354871
20
129.771683
11
95.827331
21
129.514107
0
LINE
8
Layer 1
10
95.827331
20
129.514107
11
95.299781
21
129.256530
0
LINE
8
Layer 1
10
95.299781
20
129.256530
11
94.483141
21
128.476897
0
LINE
8
Layer 1
10
94.483141
20
128.476897
11
93.124251
21
126.971539
0
LINE
8
Layer 1
10
93.124251
20
126.971539
11
91.469670
21
124.668335
0
LINE
8
Layer 1
10
91.469670
20
124.668335
11
86.177571
21
116.025497
0
LINE
8
Layer 1
10
86.177571
20
116.025497
11
82.147431
21
109.295181
0
LINE
8
Layer 1
10
82.147431
20
109.295181
11
79.892901
21
105.892097
0
LINE
8
Layer 1
10
79.892901
20
105.892097
11
79.505641
21
105.361087
0
LINE
8
Layer 1
10
79.505641
20
105.361087
11
79.226161
21
104.564577
0
LINE
8
Layer 1
10
79.226161
20
104.564577
11
78.424464
21
102.681637
0
LINE
8
Layer 1
10
78.424464
20
102.681637
11
78.011369
21
101.789926
0
LINE
8
Layer 1
10
78.011369
20
101.789926
11
77.938176
21
101.398188
0
LINE
8
Layer 1
10
77.938176
20
101.398188
11
78.265206
21
101.418052
0
LINE
8
Layer 1
10
78.265206
20
101.418052
11
79.052781
21
101.761147
0
LINE
8
Layer 1
10
79.052781
20
101.761147
11
85.175612
21
104.885789
0
LINE
8
Layer 1
10
85.175612
20
104.885789
11
90.649097
21
108.303607
0
LINE
8
Layer 1
10
90.649097
20
108.303607
11
93.038792
21
110.050776
0
LINE
8
Layer 1
10
93.038792
20
110.050776
11
95.141900
21
111.785220
0
LINE
8
Layer 1
10
95.141900
20
111.785220
11
96.917002
21
113.478268
0
LINE
8
Layer 1
10
96.917002
20
113.478268
11
98.322681
21
115.101247
0
LINE
8
Layer 1
10
98.322681
20
115.101247
11
99.387071
21
116.461277
0
LINE
8
Layer 1
10
99.387071
20
116.461277
11
99.643021
21
116.764267
0
LINE
8
Layer 1
10
99.643021
20
116.764267
11
99.802561
21
116.703067
0
LINE
8
Layer 1
10
99.802561
20
116.703067
11
99.962101
21
116.641867
0
LINE
8
Layer 1
10
99.962101
20
116.641867
11
99.916401
21
116.300797
0
LINE
8
Layer 1
10
99.916401
20
116.300797
11
99.358422
21
114.695597
0
LINE
8
Layer 1
10
99.358422
20
114.695597
11
97.766351
21
111.069477
0
LINE
8
Layer 1
10
97.766351
20
111.069477
11
95.750519
21
106.377705
0
LINE
8
Layer 1
10
95.750519
20
106.377705
11
94.020271
21
101.911177
0
LINE
8
Layer 1
10
94.020271
20
101.911177
11
92.829798
21
98.367074
0
LINE
8
Layer 1
10
92.829798
20
98.367074
11
92.433291
21
96.442577
0
LINE
8
Layer 1
10
92.433291
20
96.442577
11
92.460891
21
96.156947
0
LINE
8
Layer 1
10
92.460891
20
96.156947
11
92.588500
21
96.157100
0
LINE
8
Layer 1
10
92.588500
20
96.157100
11
93.434893
21
96.978809
0
LINE
8
Layer 1
10
93.434893
20
96.978809
11
95.470628
21
99.546783
0
LINE
8
Layer 1
10
95.470628
20
99.546783
11
103.581800
21
110.538600
0
LINE
8
Layer 1
10
103.581800
20
110.538600
11
107.786152
21
116.495436
0
LINE
8
Layer 1
10
107.786152
20
116.495436
11
109.691290
21
119.714210
0
LINE
8
Layer 1
10
109.691290
20
119.714210
11
110.030870
21
120.437900
0
LINE
8
Layer 1
10
110.030870
20
120.437900
11
110.204320
21
121.218740
0
LINE
8
Layer 1
10
110.204320
20
121.218740
11
110.478830
21
122.527550
0
LINE
8
Layer 1
10
110.478830
20
122.527550
11
110.579880
21
123.055520
0
LINE
8
Layer 1
10
110.579880
20
123.055520
11
110.882510
21
123.358150
0
LINE
8
Layer 1
10
110.882510
20
123.358150
11
111.185140
21
123.660780
0
LINE
8
Layer 1
10
111.185140
20
123.660780
11
111.632900
21
123.607780
0
LINE
8
Layer 1
10
111.632900
20
123.607780
11
112.080660
21
123.554780
0
LINE
8
Layer 1
10
112.080660
20
123.554780
11
112.756700
21
123.190130
0
LINE
8
Layer 1
10
112.756700
20
123.190130
11
114.590630
21
121.952080
0
LINE
8
Layer 1
10
114.590630
20
121.952080
11
115.748520
21
121.078680
0
LINE
8
Layer 1
10
115.748520
20
121.078680
11
116.760410
21
120.033760
0
LINE
8
Layer 1
10
116.760410
20
120.033760
11
119.663100
21
116.680526
0
LINE
8
Layer 1
10
119.663100
20
116.680526
11
122.930759
21
112.394071
0
LINE
8
Layer 1
10
122.930759
20
112.394071
11
125.888268
21
108.104461
0
LINE
8
Layer 1
10
125.888268
20
108.104461
11
127.860510
21
104.741760
0
LINE
8
Layer 1
10
127.860510
20
104.741760
11
128.380785
21
103.388687
0
LINE
8
Layer 1
10
128.380785
20
103.388687
11
128.328859
21
103.053847
0
LINE
8
Layer 1
10
128.328859
20
103.053847
11
128.081490
21
102.838310
0
LINE
8
Layer 1
10
128.081490
20
102.838310
11
127.907310
21
102.745110
0
LINE
8
Layer 1
10
127.907310
20
102.745110
11
127.643710
21
102.881420
0
LINE
8
Layer 1
10
127.643710
20
102.881420
11
127.380110
21
103.017730
0
LINE
8
Layer 1
10
127.380110
20
103.017730
11
127.038770
21
103.525750
0
LINE
8
Layer 1
10
127.038770
20
103.525750
11
125.955910
21
105.272780
0
LINE
8
Layer 1
10
125.955910
20
105.272780
11
122.449999
21
110.549429
0
LINE
8
Layer 1
10
122.449999
20
110.549429
11
118.775811
21
115.156454
0
LINE
8
Layer 1
10
118.775811
20
115.156454
11
117.061684
21
116.997346
0
LINE
8
Layer 1
10
117.061684
20
116.997346
11
115.528773
21
118.417017
0
LINE
8
Layer 1
10
115.528773
20
118.417017
11
114.251505
21
119.330863
0
LINE
8
Layer 1
10
114.251505
20
119.330863
11
113.304310
21
119.654280
0
LINE
8
Layer 1
10
113.304310
20
119.654280
11
113.064000
21
119.654000
0
LINE
8
Layer 1
10
113.064000
20
119.654000
11
112.718840
21
119.401600
0
LINE
8
Layer 1
10
112.718840
20
119.401600
11
111.604695
21
118.296209
0
LINE
8
Layer 1
10
111.604695
20
118.296209
11
110.125789
21
116.338936
0
LINE
8
Layer 1
10
110.125789
20
116.338936
11
106.041220
21
109.822170
0
LINE
8
Layer 1
10
106.041220
20
109.822170
11
103.237577
21
105.266590
0
LINE
8
Layer 1
10
103.237577
20
105.266590
11
100.589680
21
101.511140
0
LINE
8
Layer 1
10
100.589680
20
101.511140
11
96.716820
21
96.850980
0
LINE
8
Layer 1
10
96.716820
20
96.850980
11
93.446300
21
93.014980
0
LINE
8
Layer 1
10
93.446300
20
93.014980
11
91.196202
21
90.368404
0
LINE
8
Layer 1
10
91.196202
20
90.368404
11
90.168590
21
89.373620
0
LINE
8
Layer 1
10
90.168590
20
89.373620
11
89.823430
21
89.120900
0
LINE
8
Layer 1
10
89.823430
20
89.120900
11
89.530100
21
89.121300
0
LINE
8
Layer 1
10
89.530100
20
89.121300
11
89.236700
21
89.121300
0
LINE
8
Layer 1
10
89.236700
20
89.121300
11
89.133210
21
89.314680
0
LINE
8
Layer 1
10
89.133210
20
89.314680
11
89.029730
21
89.508040
0
LINE
8
Layer 1
10
89.029730
20
89.508040
11
89.081630
21
90.398820
0
LINE
8
Layer 1
10
89.081630
20
90.398820
11
89.301855
21
92.047891
0
LINE
8
Layer 1
10
89.301855
20
92.047891
11
90.116140
21
95.626180
0
LINE
8
Layer 1
10
90.116140
20
95.626180
11
91.119240
21
100.207089
0
LINE
8
Layer 1
10
91.119240
20
100.207089
11
91.335320
21
102.360960
0
LINE
8
Layer 1
10
91.335320
20
102.360960
11
91.294820
21
102.849590
0
LINE
8
Layer 1
10
91.294820
20
102.849590
11
91.107650
21
103.036760
0
LINE
8
Layer 1
10
91.107650
20
103.036760
11
90.920480
21
103.223930
0
LINE
8
Layer 1
10
90.920480
20
103.223930
11
90.224250
21
102.994540
0
LINE
8
Layer 1
10
90.224250
20
102.994540
11
86.614460
21
101.384319
0
LINE
8
Layer 1
10
86.614460
20
101.384319
11
81.424450
21
98.514720
0
LINE
8
Layer 1
10
81.424450
20
98.514720
11
78.432161
21
96.802435
0
LINE
8
Layer 1
10
78.432161
20
96.802435
11
76.928720
21
96.106160
0
LINE
8
Layer 1
10
76.928720
20
96.106160
11
76.353458
21
95.909740
0
LINE
8
Layer 1
10
76.353458
20
95.909740
11
75.202938
21
95.904740
0
LINE
8
Layer 1
10
75.202938
20
95.904740
11
74.052418
21
95.899740
0
LINE
8
Layer 1
10
74.052418
20
95.899740
11
73.720811
21
96.012780
0
LINE
8
Layer 1
10
73.720811
20
96.012780
11
73.256200
21
96.315800
0
LINE
8
Layer 1
10
73.256200
20
96.315800
11
73.123173
21
96.505720
0
LINE
8
Layer 1
10
73.123173
20
96.505720
11
73.124273
21
96.906410
0
LINE
8
Layer 1
10
73.124273
20
96.906410
11
73.125373
21
97.307110
0
LINE
8
Layer 1
10
73.125373
20
97.307110
11
73.415516
21
97.970870
0
LINE
8
Layer 1
10
73.415516
20
97.970870
11
74.261050
21
99.569586
0
LINE
8
Layer 1
10
74.261050
20
99.569586
11
76.530466
21
103.280970
0
LINE
8
Layer 1
10
76.530466
20
103.280970
11
80.311142
21
109.513587
0
LINE
8
Layer 1
10
80.311142
20
109.513587
11
83.765906
21
115.538470
0
LINE
8
Layer 1
10
83.765906
20
115.538470
11
87.814226
21
122.707110
0
LINE
8
Layer 1
10
87.814226
20
122.707110
11
90.342886
21
127.309200
0
LINE
8
Layer 1
10
90.342886
20
127.309200
11
90.996846
21
128.636730
0
LINE
8
Layer 1
10
90.996846
20
128.636730
11
91.180146
21
129.344744
0
LINE
8
Layer 1
10
91.180146
20
129.344744
11
91.363436
21
130.052758
0
LINE
8
Layer 1
10
91.363436
20
130.052758
11
91.306536
21
130.451016
0
LINE
8
Layer 1
10
91.306536
20
130.451016
11
91.249636
21
130.849274
0
LINE
8
Layer 1
10
91.249636
20
130.849274
11
90.878386
21
131.205947
0
LINE
8
Layer 1
10
90.878386
20
131.205947
11
90.507126
21
131.562619
0
LINE
8
Layer 1
10
90.507126
20
131.562619
11
89.994136
21
131.758931
0
LINE
8
Layer 1
10
89.994136
20
131.758931
11
88.365611
21
132.150721
0
LINE
8
Layer 1
10
88.365611
20
132.150721
11
85.632961
21
132.540479
0
LINE
8
Layer 1
10
85.632961
20
132.540479
11
77.725336
21
133.210951
0
LINE
8
Layer 1
10
77.725336
20
133.210951
11
75.822546
21
133.325169
0
LINE
8
Layer 1
10
75.822546
20
133.325169
11
71.087706
21
133.323869
0
LINE
8
Layer 1
10
71.087706
20
133.323869
11
66.352866
21
133.322569
0
LINE
8
Layer 1
10
66.352866
20
133.322569
11
64.715586
21
133.211326
0
LINE
8
Layer 1
10
64.715586
20
133.211326
11
59.505371
21
132.725533
0
LINE
8
Layer 1
10
59.505371
20
132.725533
11
55.567306
21
132.083086
0
LINE
8
Layer 1
10
55.567306
20
132.083086
11
53.005495
21
131.351249
0
LINE
8
Layer 1
10
53.005495
20
131.351249
11
50.113810
21
130.252303
0
LINE
8
Layer 1
10
50.113810
20
130.252303
11
47.069648
21
128.860681
0
LINE
8
Layer 1
10
47.069648
20
128.860681
11
44.050406
21
127.250816
0
LINE
8
Layer 1
10
44.050406
20
127.250816
11
41.858626
21
126.027446
0
LINE
8
Layer 1
10
41.858626
20
126.027446
11
40.823806
21
125.414828
0
LINE
8
Layer 1
10
40.823806
20
125.414828
11
40.077965
21
124.760801
0
LINE
8
Layer 1
10
40.077965
20
124.760801
11
39.390690
21
123.806834
0
LINE
8
Layer 1
10
39.390690
20
123.806834
11
38.531566
21
122.294396
0
LINE
8
Layer 1
10
38.531566
20
122.294396
11
37.135556
21
119.860596
0
LINE
8
Layer 1
10
37.135556
20
119.860596
11
36.302071
21
118.344568
0
LINE
8
Layer 1
10
36.302071
20
118.344568
11
35.646116
21
116.515986
0
LINE
8
Layer 1
10
35.646116
20
116.515986
11
34.405696
21
113.152916
0
LINE
8
Layer 1
10
34.405696
20
113.152916
11
33.119768
21
109.642956
0
LINE
8
Layer 1
10
33.119768
20
109.642956
11
32.057086
21
105.449296
0
LINE
8
Layer 1
10
32.057086
20
105.449296
11
30.989850
21
100.395325
0
LINE
8
Layer 1
10
30.989850
20
100.395325
11
30.549426
21
96.908876
0
LINE
8
Layer 1
10
30.549426
20
96.908876
11
30.454356
21
95.625606
0
LINE
8
Layer 1
10
30.454356
20
95.625606
11
30.370266
21
86.952436
0
LINE
8
Layer 1
10
30.370266
20
86.952436
11
30.240611
21
77.748256
0
LINE
8
Layer 1
10
30.240611
20
77.748256
11
30.107118
21
76.066716
0
LINE
8
Layer 1
10
30.107118
20
76.066716
11
29.791510
21
72.882886
0
LINE
8
Layer 1
10
29.791510
20
72.882886
11
29.563826
21
70.849586
0
LINE
8
Layer 1
10
29.563826
20
70.849586
11
29.597606
21
70.139336
0
LINE
8
Layer 1
10
29.597606
20
70.139336
11
29.631386
21
69.429086
0
LINE
8
Layer 1
10
29.631386
20
69.429086
11
29.988938
21
68.549136
0
LINE
8
Layer 1
10
29.988938
20
68.549136
11
30.448004
21
67.635346
0
LINE
8
Layer 1
10
30.448004
20
67.635346
11
30.549516
21
67.601446
0
LINE
8
Layer 1
10
30.549516
20
67.601446
11
30.494746
21
69.577266
0
LINE
8
Layer 1
10
30.494746
20
69.577266
11
30.439976
21
71.553076
0
LINE
8
Layer 1
10
30.439976
20
71.553076
11
30.547527
21
72.471466
0
LINE
8
Layer 1
10
30.547527
20
72.471466
11
30.837873
21
73.869429
0
LINE
8
Layer 1
10
30.837873
20
73.869429
11
31.353556
21
75.162929
0
LINE
8
Layer 1
10
31.353556
20
75.162929
11
32.068066
21
76.326600
0
LINE
8
Layer 1
10
32.068066
20
76.326600
11
32.954889
21
77.335077
0
LINE
8
Layer 1
10
32.954889
20
77.335077
11
33.987513
21
78.162997
0
LINE
8
Layer 1
10
33.987513
20
78.162997
11
35.139425
21
78.784993
0
LINE
8
Layer 1
10
35.139425
20
78.784993
11
36.384114
21
79.175701
0
LINE
8
Layer 1
10
36.384114
20
79.175701
11
37.695067
21
79.309756
0
LINE
8
Layer 1
10
37.695067
20
79.309756
11
38.596893
21
79.307756
0
LINE
8
Layer 1
10
38.596893
20
79.307756
11
39.198235
21
79.156936
0
LINE
8
Layer 1
10
39.198235
20
79.156936
11
40.320637
21
78.777880
0
LINE
8
Layer 1
10
40.320637
20
78.777880
11
41.482065
21
78.190556
0
LINE
8
Layer 1
10
41.482065
20
78.190556
11
42.088039
21
77.836546
0
LINE
8
Layer 1
10
42.088039
20
77.836546
11
42.985706
21
76.980666
0
LINE
8
Layer 1
10
42.985706
20
76.980666
11
43.883374
21
76.124776
0
LINE
8
Layer 1
10
43.883374
20
76.124776
11
44.440230
21
75.343376
0
LINE
8
Layer 1
10
44.440230
20
75.343376
11
45.348498
21
73.855812
0
LINE
8
Layer 1
10
45.348498
20
73.855812
11
46.053886
21
72.229247
0
LINE
8
Layer 1
10
46.053886
20
72.229247
11
46.553814
21
70.470932
0
LINE
8
Layer 1
10
46.553814
20
70.470932
11
46.845700
21
68.588116
0
LINE
8
Layer 1
10
46.845700
20
68.588116
11
46.943670
21
67.570346
0
LINE
8
Layer 1
10
46.943670
20
67.570346
11
46.883520
21
66.596826
0
LINE
8
Layer 1
10
46.883520
20
66.596826
11
46.725550
21
65.325883
0
LINE
8
Layer 1
10
46.725550
20
65.325883
11
46.418750
21
64.068151
0
LINE
8
Layer 1
10
46.418750
20
64.068151
11
45.421079
21
61.704925
0
LINE
8
Layer 1
10
45.421079
20
61.704925
11
44.015349
21
59.732364
0
LINE
8
Layer 1
10
44.015349
20
59.732364
11
43.198474
21
58.962964
0
LINE
8
Layer 1
10
43.198474
20
58.962964
11
42.326400
21
58.375686
0
LINE
8
Layer 1
10
42.326400
20
58.375686
11
41.873129
21
58.128986
0
LINE
8
Layer 1
10
41.873129
20
58.128986
11
41.138933
21
58.062086
0
LINE
8
Layer 1
10
41.138933
20
58.062086
11
40.367024
21
57.867858
0
LINE
8
Layer 1
10
40.367024
20
57.867858
11
40.232339
21
57.669694
0
LINE
8
Layer 1
10
40.232339
20
57.669694
11
40.275549
21
57.377519
0
LINE
8
Layer 1
10
40.275549
20
57.377519
11
40.926802
21
56.431190
0
LINE
8
Layer 1
10
40.926802
20
56.431190
11
42.383073
21
54.868996
0
LINE
8
Layer 1
10
42.383073
20
54.868996
11
44.300782
21
53.015532
0
LINE
8
Layer 1
10
44.300782
20
53.015532
11
46.231890
21
51.414846
0
LINE
8
Layer 1
10
46.231890
20
51.414846
11
48.313500
21
49.999335
0
LINE
8
Layer 1
10
48.313500
20
49.999335
11
50.682710
21
48.701396
0
LINE
8
Layer 1
10
50.682710
20
48.701396
11
53.476623
21
47.453426
0
LINE
8
Layer 1
10
53.476623
20
47.453426
11
56.832337
21
46.187821
0
LINE
8
Layer 1
10
56.832337
20
46.187821
11
65.777573
21
43.333296
0
LINE
8
Layer 1
10
65.777573
20
43.333296
11
68.695761
21
42.562092
0
LINE
8
Layer 1
10
68.695761
20
42.562092
11
71.940095
21
41.888380
0
LINE
8
Layer 1
10
71.940095
20
41.888380
11
75.388794
21
41.334493
0
LINE
8
Layer 1
10
75.388794
20
41.334493
11
78.920073
21
40.922766
0
LINE
8
Layer 1
10
78.920073
20
40.922766
11
80.513103
21
40.772496
0
LINE
8
Layer 1
10
80.513103
20
40.772496
11
82.902653
21
40.766496
0
LINE
8
Layer 1
10
82.902653
20
40.766496
11
85.292203
21
40.760496
0
LINE
8
Layer 1
10
85.292203
20
40.760496
11
86.132963
21
40.871646
0
LINE
8
Layer 1
10
86.132963
20
40.871646
11
89.553521
21
41.516244
0
LINE
8
Layer 1
10
89.553521
20
41.516244
11
93.633266
21
42.594200
0
LINE
8
Layer 1
10
93.633266
20
42.594200
11
98.135910
21
44.016351
0
LINE
8
Layer 1
10
98.135910
20
44.016351
11
102.825165
21
45.693536
0
LINE
8
Layer 1
10
102.825165
20
45.693536
11
107.464746
21
47.536591
0
LINE
8
Layer 1
10
107.464746
20
47.536591
11
111.818364
21
49.456352
0
LINE
8
Layer 1
10
111.818364
20
49.456352
11
115.649732
21
51.363658
0
LINE
8
Layer 1
10
115.649732
20
51.363658
11
118.722563
21
53.169346
0
LINE
8
Layer 1
10
118.722563
20
53.169346
11
119.859873
21
53.855656
0
LINE
8
Layer 1
10
119.859873
20
53.855656
11
120.046953
21
53.915056
0
LINE
8
Layer 1
10
120.046953
20
53.915056
11
120.137753
21
53.824256
0
LINE
8
Layer 1
10
120.137753
20
53.824256
11
120.228553
21
53.733456
0
LINE
8
Layer 1
10
120.228553
20
53.733456
11
120.172653
21
53.510536
0
LINE
8
Layer 1
10
120.172653
20
53.510536
11
119.424500
21
52.377545
0
LINE
8
Layer 1
10
119.424500
20
52.377545
11
117.866933
21
50.657086
0
LINE
8
Layer 1
10
117.866933
20
50.657086
11
116.710343
21
49.496466
0
LINE
8
Layer 1
10
116.710343
20
49.496466
11
115.809883
21
48.830366
0
LINE
8
Layer 1
10
115.809883
20
48.830366
11
113.989741
21
47.605657
0
LINE
8
Layer 1
10
113.989741
20
47.605657
11
111.921723
21
46.482690
0
LINE
8
Layer 1
10
111.921723
20
46.482690
11
109.356785
21
45.339658
0
LINE
8
Layer 1
10
109.356785
20
45.339658
11
106.045883
21
44.054756
0
LINE
8
Layer 1
10
106.045883
20
44.054756
11
100.556494
21
42.162344
0
LINE
8
Layer 1
10
100.556494
20
42.162344
11
95.488773
21
40.722999
0
LINE
8
Layer 1
10
95.488773
20
40.722999
11
90.699257
21
39.700896
0
LINE
8
Layer 1
10
90.699257
20
39.700896
11
86.044483
21
39.060216
0
LINE
8
Layer 1
10
86.044483
20
39.060216
11
84.495703
21
38.905866
0
LINE
8
Layer 1
10
84.495703
20
38.905866
11
81.442393
21
38.904976
0
LINE
8
Layer 1
10
81.442393
20
38.904976
11
78.389083
21
38.904096
0
LINE
8
Layer 1
10
78.389083
20
38.904096
11
76.840303
21
39.056036
0
LINE
8
Layer 1
10
76.840303
20
39.056036
11
72.909029
21
39.559471
0
LINE
8
Layer 1
10
72.909029
20
39.559471
11
68.889642
21
40.355054
0
LINE
8
Layer 1
10
68.889642
20
40.355054
11
64.243485
21
41.567610
0
LINE
8
Layer 1
10
64.243485
20
41.567610
11
58.431903
21
43.321966
0
LINE
8
Layer 1
10
58.431903
20
43.321966
11
53.010554
21
45.128271
0
LINE
8
Layer 1
10
53.010554
20
45.128271
11
48.934923
21
46.738886
0
LINE
8
Layer 1
10
48.934923
20
46.738886
11
46.814143
21
47.639306
0
LINE
8
Layer 1
10
46.814143
20
47.639306
11
46.126336
21
47.911376
0
LINE
8
Layer 1
10
46.126336
20
47.911376
11
45.884874
21
47.828176
0
LINE
8
Layer 1
10
45.884874
20
47.828176
11
45.643412
21
47.744976
0
LINE
8
Layer 1
10
45.643412
20
47.744976
11
45.493021
21
47.435676
0
LINE
8
Layer 1
10
45.493021
20
47.435676
11
45.243641
21
46.551116
0
LINE
8
Layer 1
10
45.243641
20
46.551116
11
45.144651
21
45.975856
0
LINE
8
Layer 1
10
45.144651
20
45.975856
11
45.067231
21
40.090486
0
LINE
8
Layer 1
10
45.067231
20
40.090486
11
44.724247
21
28.328467
0
LINE
8
Layer 1
10
44.724247
20
28.328467
11
44.440732
21
24.403985
0
LINE
8
Layer 1
10
44.440732
20
24.403985
11
44.086581
21
21.859086
0
LINE
8
Layer 1
10
44.086581
20
21.859086
11
43.258149
21
16.678106
0
LINE
8
Layer 1
10
43.258149
20
16.678106
11
43.004921
21
11.327386
0
LINE
8
Layer 1
10
43.004921
20
11.327386
11
43.004302
21
8.805086
0
LINE
8
Layer 1
10
43.004302
20
8.805086
11
43.159091
21
7.660526
0
LINE
8
Layer 1
10
43.159091
20
7.660526
11
43.485204
21
5.961276
0
LINE
8
Layer 1
10
43.485204
20
5.961276
11
43.656526
21
5.406596
0
LINE
8
Layer 1
10
43.656526
20
5.406596
11
44.229595
21
4.461536
0
LINE
8
Layer 1
10
44.229595
20
4.461536
11
44.802664
21
3.408196
0
LINE
8
Layer 1
10
44.802664
20
3.408196
11
45.289423
21
2.308116
0
LINE
8
Layer 1
10
45.289423
20
2.308116
11
45.737293
21
1.276835
0
LINE
8
Layer 1
10
45.737293
20
1.276835
11
45.662521
21
0.900026
0
LINE
8
Layer 1
10
45.662521
20
0.900026
11
44.581157
21
0.659240
0
LINE
8
Layer 1
10
44.581157
20
0.659240
11
43.607731
21
0.707436
0
LINE
8
Layer 1
10
43.607731
20
0.707436
11
43.608600
21
0.708160
0
LINE
8
Layer 1
10
40.514730
20
59.076760
11
41.665655
21
59.523700
0
LINE
8
Layer 1
10
41.665655
20
59.523700
11
42.793480
21
60.260380
0
LINE
8
Layer 1
10
42.793480
20
60.260380
11
43.432270
21
60.768010
0
LINE
8
Layer 1
10
43.432270
20
60.768010
11
43.933995
21
61.425960
0
LINE
8
Layer 1
10
43.933995
20
61.425960
11
44.979287
21
63.202961
0
LINE
8
Layer 1
10
44.979287
20
63.202961
11
45.657605
21
65.332260
0
LINE
8
Layer 1
10
45.657605
20
65.332260
11
45.816978
21
66.066480
0
LINE
8
Layer 1
10
45.816978
20
66.066480
11
45.812978
21
67.615260
0
LINE
8
Layer 1
10
45.812978
20
67.615260
11
45.808978
21
69.164050
0
LINE
8
Layer 1
10
45.808978
20
69.164050
11
45.615495
21
70.065740
0
LINE
8
Layer 1
10
45.615495
20
70.065740
11
45.150868
21
71.710684
0
LINE
8
Layer 1
10
45.150868
20
71.710684
11
44.502784
21
73.213120
0
LINE
8
Layer 1
10
44.502784
20
73.213120
11
43.689140
21
74.554516
0
LINE
8
Layer 1
10
43.689140
20
74.554516
11
42.727833
21
75.716336
0
LINE
8
Layer 1
10
42.727833
20
75.716336
11
41.636760
21
76.680046
0
LINE
8
Layer 1
10
41.636760
20
76.680046
11
40.433818
21
77.427111
0
LINE
8
Layer 1
10
40.433818
20
77.427111
11
39.136904
21
77.938998
0
LINE
8
Layer 1
10
39.136904
20
77.938998
11
37.763915
21
78.197170
0
LINE
8
Layer 1
10
37.763915
20
78.197170
11
37.148230
21
78.251970
0
LINE
8
Layer 1
10
37.148230
20
78.251970
11
36.484467
21
78.111600
0
LINE
8
Layer 1
10
36.484467
20
78.111600
11
35.601139
21
77.837934
0
LINE
8
Layer 1
10
35.601139
20
77.837934
11
34.782688
21
77.409402
0
LINE
8
Layer 1
10
34.782688
20
77.409402
11
34.036615
21
76.835324
0
LINE
8
Layer 1
10
34.036615
20
76.835324
11
33.370418
21
76.125021
0
LINE
8
Layer 1
10
33.370418
20
76.125021
11
32.307650
21
74.333027
0
LINE
8
Layer 1
10
32.307650
20
74.333027
11
31.654377
21
72.107990
0
LINE
8
Layer 1
10
31.654377
20
72.107990
11
31.508988
21
71.288050
0
LINE
8
Layer 1
10
31.508988
20
71.288050
11
31.505288
21
70.093270
0
LINE
8
Layer 1
10
31.505288
20
70.093270
11
31.501588
21
68.898500
0
LINE
8
Layer 1
10
31.501588
20
68.898500
11
31.656506
21
68.013480
0
LINE
8
Layer 1
10
31.656506
20
68.013480
11
32.165151
21
66.031109
0
LINE
8
Layer 1
10
32.165151
20
66.031109
11
32.944092
21
64.195823
0
LINE
8
Layer 1
10
32.944092
20
64.195823
11
33.943698
21
62.557690
0
LINE
8
Layer 1
10
33.943698
20
62.557690
11
35.114343
21
61.166779
0
LINE
8
Layer 1
10
35.114343
20
61.166779
11
36.406397
21
60.073158
0
LINE
8
Layer 1
10
36.406397
20
60.073158
11
37.770231
21
59.326895
0
LINE
8
Layer 1
10
37.770231
20
59.326895
11
39.156217
21
58.978060
0
LINE
8
Layer 1
10
39.156217
20
58.978060
11
40.514726
21
59.076720
0
LINE
8
Layer 1
10
40.514726
20
59.076720
11
40.514730
21
59.076760
0
LINE
8
Layer 1
10
141.118730
20
12.893160
11
140.070400
21
13.596360
0
LINE
8
Layer 1
10
140.070400
20
13.596360
11
139.463869
21
13.991483
0
LINE
8
Layer 1
10
139.463869
20
13.991483
11
139.032890
21
14.646930
0
LINE
8
Layer 1
10
139.032890
20
14.646930
11
137.390623
21
17.129855
0
LINE
8
Layer 1
10
137.390623
20
17.129855
11
134.858570
21
19.959610
0
LINE
8
Layer 1
10
134.858570
20
19.959610
11
133.438520
21
21.378210
0
LINE
8
Layer 1
10
133.438520
20
21.378210
11
132.218980
21
22.304910
0
LINE
8
Layer 1
10
132.218980
20
22.304910
11
130.999430
21
23.231600
0
LINE
8
Layer 1
10
130.999430
20
23.231600
11
130.954030
21
23.408600
0
LINE
8
Layer 1
10
130.954030
20
23.408600
11
131.225530
21
24.736130
0
LINE
8
Layer 1
10
131.225530
20
24.736130
11
131.924213
21
27.839918
0
LINE
8
Layer 1
10
131.924213
20
27.839918
11
132.389355
21
31.113959
0
LINE
8
Layer 1
10
132.389355
20
31.113959
11
132.591705
21
34.276210
0
LINE
8
Layer 1
10
132.591705
20
34.276210
11
132.502010
21
37.044630
0
LINE
8
Layer 1
10
132.502010
20
37.044630
11
132.406210
21
38.011400
0
LINE
8
Layer 1
10
132.406210
20
38.011400
11
132.011990
21
39.560180
0
LINE
8
Layer 1
10
132.011990
20
39.560180
11
130.903001
21
43.225943
0
LINE
8
Layer 1
10
130.903001
20
43.225943
11
129.419426
21
46.921037
0
LINE
8
Layer 1
10
129.419426
20
46.921037
11
127.508608
21
50.762379
0
LINE
8
Layer 1
10
127.508608
20
50.762379
11
125.117890
21
54.866880
0
LINE
8
Layer 1
10
125.117890
20
54.866880
11
124.506126
21
55.810632
0
LINE
8
Layer 1
10
124.506126
20
55.810632
11
124.093674
21
56.240013
0
LINE
8
Layer 1
10
124.093674
20
56.240013
11
123.732550
21
56.236489
0
LINE
8
Layer 1
10
123.732550
20
56.236489
11
123.274770
21
55.881530
0
LINE
8
Layer 1
10
123.274770
20
55.881530
11
122.128350
21
54.986990
0
LINE
8
Layer 1
10
122.128350
20
54.986990
11
121.526870
21
54.586440
0
LINE
8
Layer 1
10
121.526870
20
54.586440
11
121.246540
21
54.573840
0
LINE
8
Layer 1
10
121.246540
20
54.573840
11
120.966210
21
54.561240
0
LINE
8
Layer 1
10
120.966210
20
54.561240
11
120.936210
21
54.706560
0
LINE
8
Layer 1
10
120.936210
20
54.706560
11
120.906210
21
54.851870
0
LINE
8
Layer 1
10
120.906210
20
54.851870
11
121.453360
21
55.680080
0
LINE
8
Layer 1
10
121.453360
20
55.680080
11
122.209400
21
56.950780
0
LINE
8
Layer 1
10
122.209400
20
56.950780
11
122.418300
21
57.393290
0
LINE
8
Layer 1
10
122.418300
20
57.393290
11
122.418330
21
57.835800
0
LINE
8
Layer 1
10
122.418330
20
57.835800
11
122.418360
21
58.278310
0
LINE
8
Layer 1
10
122.418360
20
58.278310
11
122.157050
21
58.733930
0
LINE
8
Layer 1
10
122.157050
20
58.733930
11
120.696970
21
60.446980
0
LINE
8
Layer 1
10
120.696970
20
60.446980
11
119.498210
21
61.704420
0
LINE
8
Layer 1
10
119.498210
20
61.704420
11
119.021790
21
62.425160
0
LINE
8
Layer 1
10
119.021790
20
62.425160
11
117.988651
21
64.326455
0
LINE
8
Layer 1
10
117.988651
20
64.326455
11
117.376810
21
66.369440
0
LINE
8
Layer 1
10
117.376810
20
66.369440
11
117.198420
21
67.244790
0
LINE
8
Layer 1
10
117.198420
20
67.244790
11
117.197000
21
68.488900
0
LINE
8
Layer 1
10
117.197000
20
68.488900
11
117.197000
21
69.733000
0
LINE
8
Layer 1
10
117.197000
20
69.733000
11
117.365560
21
70.602510
0
LINE
8
Layer 1
10
117.365560
20
70.602510
11
117.993298
21
72.793507
0
LINE
8
Layer 1
10
117.993298
20
72.793507
11
118.951246
21
74.793857
0
LINE
8
Layer 1
10
118.951246
20
74.793857
11
120.169542
21
76.543870
0
LINE
8
Layer 1
10
120.169542
20
76.543870
11
121.578322
21
77.983859
0
LINE
8
Layer 1
10
121.578322
20
77.983859
11
123.107727
21
79.054135
0
LINE
8
Layer 1
10
123.107727
20
79.054135
11
124.687893
21
79.695009
0
LINE
8
Layer 1
10
124.687893
20
79.695009
11
126.248958
21
79.846794
0
LINE
8
Layer 1
10
126.248958
20
79.846794
11
127.000495
21
79.720625
0
LINE
8
Layer 1
10
127.000495
20
79.720625
11
127.721060
21
79.449800
0
LINE
8
Layer 1
10
127.721060
20
79.449800
11
128.288690
21
79.170390
0
LINE
8
Layer 1
10
128.288690
20
79.170390
11
129.028630
21
78.469980
0
LINE
8
Layer 1
10
129.028630
20
78.469980
11
129.768570
21
77.769570
0
LINE
8
Layer 1
10
129.768570
20
77.769570
11
130.305840
21
76.966350
0
LINE
8
Layer 1
10
130.305840
20
76.966350
11
131.278000
21
75.296500
0
LINE
8
Layer 1
10
131.278000
20
75.296500
11
131.814580
21
74.429870
0
LINE
8
Layer 1
10
131.814580
20
74.429870
11
131.917000
21
74.429900
0
LINE
8
Layer 1
10
131.917000
20
74.429900
11
131.859400
21
76.133560
0
LINE
8
Layer 1
10
131.859400
20
76.133560
11
131.583830
21
80.403770
0
LINE
8
Layer 1
10
131.583830
20
80.403770
11
131.196530
21
87.085650
0
LINE
8
Layer 1
10
131.196530
20
87.085650
11
131.225330
21
87.749410
0
LINE
8
Layer 1
10
131.225330
20
87.749410
11
131.419570
21
87.777010
0
LINE
8
Layer 1
10
131.419570
20
87.777010
11
131.613800
21
87.804610
0
LINE
8
Layer 1
10
131.613800
20
87.804610
11
131.705400
21
87.464480
0
LINE
8
Layer 1
10
131.705400
20
87.464480
11
131.925400
21
86.950080
0
LINE
8
Layer 1
10
131.925400
20
86.950080
11
132.053810
21
86.775810
0
LINE
8
Layer 1
10
132.053810
20
86.775810
11
132.445290
21
86.988160
0
LINE
8
Layer 1
10
132.445290
20
86.988160
11
132.836770
21
87.200500
0
LINE
8
Layer 1
10
132.836770
20
87.200500
11
132.938210
21
87.137800
0
LINE
8
Layer 1
10
132.938210
20
87.137800
11
133.010462
21
86.789718
0
LINE
8
Layer 1
10
133.010462
20
86.789718
11
132.636720
21
86.084800
0
LINE
8
Layer 1
10
132.636720
20
86.084800
11
132.233790
21
85.484180
0
LINE
8
Layer 1
10
132.233790
20
85.484180
11
132.185890
21
85.067970
0
LINE
8
Layer 1
10
132.185890
20
85.067970
11
132.137990
21
84.651760
0
LINE
8
Layer 1
10
132.137990
20
84.651760
11
132.366090
21
82.129460
0
LINE
8
Layer 1
10
132.366090
20
82.129460
11
132.717563
21
77.305912
0
LINE
8
Layer 1
10
132.717563
20
77.305912
11
132.806340
21
72.394270
0
LINE
8
Layer 1
10
132.806340
20
72.394270
11
132.811340
21
68.632940
0
LINE
8
Layer 1
10
132.811340
20
68.632940
11
132.700340
21
67.796960
0
LINE
8
Layer 1
10
132.700340
20
67.796960
11
132.589340
21
66.960970
0
LINE
8
Layer 1
10
132.589340
20
66.960970
11
132.361290
21
66.541960
0
LINE
8
Layer 1
10
132.361290
20
66.541960
11
131.340293
21
65.046851
0
LINE
8
Layer 1
10
131.340293
20
65.046851
11
129.749034
21
63.093295
0
LINE
8
Layer 1
10
129.749034
20
63.093295
11
127.970858
21
61.127237
0
LINE
8
Layer 1
10
127.970858
20
61.127237
11
126.389110
21
59.594620
0
LINE
8
Layer 1
10
126.389110
20
59.594620
11
125.335000
21
58.535600
0
LINE
8
Layer 1
10
125.335000
20
58.535600
11
125.134920
21
58.211860
0
LINE
8
Layer 1
10
125.134920
20
58.211860
11
125.094420
21
57.790110
0
LINE
8
Layer 1
10
125.094420
20
57.790110
11
125.053920
21
57.368350
0
LINE
8
Layer 1
10
125.053920
20
57.368350
11
125.209390
21
56.894020
0
LINE
8
Layer 1
10
125.209390
20
56.894020
11
125.735294
21
55.695109
0
LINE
8
Layer 1
10
125.735294
20
55.695109
11
126.967750
21
53.517290
0
LINE
8
Layer 1
10
126.967750
20
53.517290
11
129.372375
21
49.163172
0
LINE
8
Layer 1
10
129.372375
20
49.163172
11
131.215970
21
45.287870
0
LINE
8
Layer 1
10
131.215970
20
45.287870
11
131.622660
21
44.333750
0
LINE
8
Layer 1
10
131.622660
20
44.333750
11
132.162210
21
42.411570
0
LINE
8
Layer 1
10
132.162210
20
42.411570
11
132.777168
21
40.041951
0
LINE
8
Layer 1
10
132.777168
20
40.041951
11
133.092590
21
38.099840
0
LINE
8
Layer 1
10
133.092590
20
38.099840
11
133.227620
21
37.037820
0
LINE
8
Layer 1
10
133.227620
20
37.037820
11
133.277720
21
34.426850
0
LINE
8
Layer 1
10
133.277720
20
34.426850
11
133.327820
21
31.815890
0
LINE
8
Layer 1
10
133.327820
20
31.815890
11
133.225500
21
30.768000
0
LINE
8
Layer 1
10
133.225500
20
30.768000
11
132.865360
21
28.467120
0
LINE
8
Layer 1
10
132.865360
20
28.467120
11
132.503822
21
26.512885
0
LINE
8
Layer 1
10
132.503822
20
26.512885
11
132.394810
21
25.201937
0
LINE
8
Layer 1
10
132.394810
20
25.201937
11
132.542898
21
24.272122
0
LINE
8
Layer 1
10
132.542898
20
24.272122
11
132.952660
21
23.461280
0
LINE
8
Layer 1
10
132.952660
20
23.461280
11
133.309090
21
22.909800
0
LINE
8
Layer 1
10
133.309090
20
22.909800
11
134.966560
21
21.209530
0
LINE
8
Layer 1
10
134.966560
20
21.209530
11
137.395353
21
18.574555
0
LINE
8
Layer 1
10
137.395353
20
18.574555
11
139.277200
21
16.151410
0
LINE
8
Layer 1
10
139.277200
20
16.151410
11
140.694620
21
14.337120
0
LINE
8
Layer 1
10
140.694620
20
14.337120
11
141.790235
21
13.003734
0
LINE
8
Layer 1
10
141.790235
20
13.003734
11
141.948101
21
12.629925
0
LINE
8
Layer 1
10
141.948101
20
12.629925
11
141.848300
21
12.447610
0
LINE
8
Layer 1
10
141.848300
20
12.447610
11
141.718230
21
12.397710
0
LINE
8
Layer 1
10
141.718230
20
12.397710
11
141.118730
21
12.893160
0
LINE
8
Layer 1
10
125.353630
20
59.810960
11
125.764930
21
60.011110
0
LINE
8
Layer 1
10
125.764930
20
60.011110
11
126.523620
21
60.782000
0
LINE
8
Layer 1
10
126.523620
20
60.782000
11
128.442487
21
63.150146
0
LINE
8
Layer 1
10
128.442487
20
63.150146
11
129.975278
21
65.863459
0
LINE
8
Layer 1
10
129.975278
20
65.863459
11
130.991006
21
68.639792
0
LINE
8
Layer 1
10
130.991006
20
68.639792
11
131.264040
21
69.963421
0
LINE
8
Layer 1
10
131.264040
20
69.963421
11
131.358690
21
71.197000
0
LINE
8
Layer 1
10
131.358690
20
71.197000
11
131.358000
21
71.923500
0
LINE
8
Layer 1
10
131.358000
20
71.923500
11
131.185000
21
72.599940
0
LINE
8
Layer 1
10
131.185000
20
72.599940
11
130.388424
21
74.664145
0
LINE
8
Layer 1
10
130.388424
20
74.664145
11
129.208791
21
76.281631
0
LINE
8
Layer 1
10
129.208791
20
76.281631
11
128.500650
21
76.897111
0
LINE
8
Layer 1
10
128.500650
20
76.897111
11
127.727128
21
77.370017
0
LINE
8
Layer 1
10
127.727128
20
77.370017
11
126.898356
21
77.690053
0
LINE
8
Layer 1
10
126.898356
20
77.690053
11
126.024460
21
77.846920
0
LINE
8
Layer 1
10
126.024460
20
77.846920
11
125.384140
21
77.898420
0
LINE
8
Layer 1
10
125.384140
20
77.898420
11
124.720370
21
77.759970
0
LINE
8
Layer 1
10
124.720370
20
77.759970
11
124.056610
21
77.621510
0
LINE
8
Layer 1
10
124.056610
20
77.621510
11
123.230160
21
77.206200
0
LINE
8
Layer 1
10
123.230160
20
77.206200
11
122.403720
21
76.790900
0
LINE
8
Layer 1
10
122.403720
20
76.790900
11
121.696620
21
76.125710
0
LINE
8
Layer 1
10
121.696620
20
76.125710
11
120.583851
21
74.903409
0
LINE
8
Layer 1
10
120.583851
20
74.903409
11
119.690875
21
73.523995
0
LINE
8
Layer 1
10
119.690875
20
73.523995
11
118.996702
21
71.948388
0
LINE
8
Layer 1
10
118.996702
20
71.948388
11
118.480340
21
70.137510
0
LINE
8
Layer 1
10
118.480340
20
70.137510
11
118.242680
21
69.075490
0
LINE
8
Layer 1
10
118.242680
20
69.075490
11
118.245680
21
68.101970
0
LINE
8
Layer 1
10
118.245680
20
68.101970
11
118.248680
21
67.128460
0
LINE
8
Layer 1
10
118.248680
20
67.128460
11
118.379600
21
66.456940
0
LINE
8
Layer 1
10
118.379600
20
66.456940
11
119.090400
21
64.222133
0
LINE
8
Layer 1
10
119.090400
20
64.222133
11
120.239430
21
62.237440
0
LINE
8
Layer 1
10
120.239430
20
62.237440
11
121.697700
21
60.678192
0
LINE
8
Layer 1
10
121.697700
20
60.678192
11
122.502491
21
60.112901
0
LINE
8
Layer 1
10
122.502491
20
60.112901
11
123.336220
21
59.719720
0
LINE
8
Layer 1
10
123.336220
20
59.719720
11
123.790400
21
59.558150
0
LINE
8
Layer 1
10
123.790400
20
59.558150
11
124.365660
21
59.584450
0
LINE
8
Layer 1
10
124.365660
20
59.584450
11
124.940920
21
59.610750
0
LINE
8
Layer 1
10
124.940920
20
59.610750
11
125.352240
21
59.810900
0
LINE
8
Layer 1
10
125.352240
20
59.810900
11
125.353630
21
59.810960
0
LINE
8
Layer 1
10
119.155460
20
18.990960
11
118.777153
21
19.708769
0
LINE
8
Layer 1
10
118.777153
20
19.708769
11
118.445710
21
20.844665
0
LINE
8
Layer 1
10
118.445710
20
20.844665
11
117.920769
21
24.397631
0
LINE
8
Layer 1
10
117.920769
20
24.397631
11
117.575345
21
29.703687
0
LINE
8
Layer 1
10
117.575345
20
29.703687
11
117.404150
21
36.816660
0
LINE
8
Layer 1
10
117.404150
20
36.816660
11
117.352650
21
41.640000
0
LINE
8
Layer 1
10
117.352650
20
41.640000
11
117.453000
21
43.440190
0
LINE
8
Layer 1
10
117.453000
20
43.440190
11
117.648843
21
45.690125
0
LINE
8
Layer 1
10
117.648843
20
45.690125
11
117.933739
21
46.815782
0
LINE
8
Layer 1
10
117.933739
20
46.815782
11
118.115216
21
46.966645
0
LINE
8
Layer 1
10
118.115216
20
46.966645
11
118.325717
21
46.848003
0
LINE
8
Layer 1
10
118.325717
20
46.848003
11
118.842810
21
45.817630
0
LINE
8
Layer 1
10
118.842810
20
45.817630
11
119.448812
21
44.469563
0
LINE
8
Layer 1
10
119.448812
20
44.469563
11
120.339230
21
43.016660
0
LINE
8
Layer 1
10
120.339230
20
43.016660
11
121.407973
21
41.171267
0
LINE
8
Layer 1
10
121.407973
20
41.171267
11
122.247842
21
39.131324
0
LINE
8
Layer 1
10
122.247842
20
39.131324
11
122.888576
21
36.809221
0
LINE
8
Layer 1
10
122.888576
20
36.809221
11
123.359910
21
34.117350
0
LINE
8
Layer 1
10
123.359910
20
34.117350
11
123.516910
21
32.966830
0
LINE
8
Layer 1
10
123.516910
20
32.966830
11
123.519910
21
30.665790
0
LINE
8
Layer 1
10
123.519910
20
30.665790
11
123.522910
21
28.364740
0
LINE
8
Layer 1
10
123.522910
20
28.364740
11
123.364510
21
27.346970
0
LINE
8
Layer 1
10
123.364510
20
27.346970
11
122.996483
21
25.488069
0
LINE
8
Layer 1
10
122.996483
20
25.488069
11
122.506319
21
23.986612
0
LINE
8
Layer 1
10
122.506319
20
23.986612
11
121.845483
21
22.726142
0
LINE
8
Layer 1
10
121.845483
20
22.726142
11
120.965440
21
21.590200
0
LINE
8
Layer 1
10
120.965440
20
21.590200
11
120.147000
21
20.554500
0
LINE
8
Layer 1
10
120.147000
20
20.554500
11
119.924900
21
20.178400
0
LINE
8
Layer 1
10
119.924900
20
20.178400
11
119.877200
21
19.625230
0
LINE
8
Layer 1
10
119.877200
20
19.625230
11
119.630607
21
18.793168
0
LINE
8
Layer 1
10
119.630607
20
18.793168
11
119.418262
21
18.760471
0
LINE
8
Layer 1
10
119.418262
20
18.760471
11
119.155190
21
18.990930
0
LINE
8
Layer 1
10
119.155190
20
18.990930
11
119.155460
21
18.990960
0
LINE
8
Layer 1
10
120.060060
20
23.106000
11
120.797934
21
24.141770
0
LINE
8
Layer 1
10
120.797934
20
24.141770
11
121.379410
21
25.445159
0
LINE
8
Layer 1
10
121.379410
20
25.445159
11
121.804204
21
27.015351
0
LINE
8
Layer 1
10
121.804204
20
27.015351
11
122.072030
21
28.851530
0
LINE
8
Layer 1
10
122.072030
20
28.851530
11
122.178350
21
29.957800
0
LINE
8
Layer 1
10
122.178350
20
29.957800
11
122.122950
21
31.285330
0
LINE
8
Layer 1
10
122.122950
20
31.285330
11
121.817277
21
34.129356
0
LINE
8
Layer 1
10
121.817277
20
34.129356
11
121.183741
21
36.928762
0
LINE
8
Layer 1
10
121.183741
20
36.928762
11
120.300277
21
39.412153
0
LINE
8
Layer 1
10
120.300277
20
39.412153
11
119.244820
21
41.308130
0
LINE
8
Layer 1
10
119.244820
20
41.308130
11
118.967290
21
41.684260
0
LINE
8
Layer 1
10
118.967290
20
41.684260
11
118.797000
21
41.684200
0
LINE
8
Layer 1
10
118.797000
20
41.684200
11
118.627000
21
41.684200
0
LINE
8
Layer 1
10
118.627000
20
41.684200
11
118.529300
21
41.388280
0
LINE
8
Layer 1
10
118.529300
20
41.388280
11
118.294090
21
38.325387
0
LINE
8
Layer 1
10
118.294090
20
38.325387
11
118.326120
21
32.893464
0
LINE
8
Layer 1
10
118.326120
20
32.893464
11
118.572275
21
27.214024
0
LINE
8
Layer 1
10
118.572275
20
27.214024
11
118.979440
21
23.408580
0
LINE
8
Layer 1
10
118.979440
20
23.408580
11
119.144578
21
22.842287
0
LINE
8
Layer 1
10
119.144578
20
22.842287
11
119.349206
21
22.611581
0
LINE
8
Layer 1
10
119.349206
20
22.611581
11
119.638804
21
22.703707
0
LINE
8
Layer 1
10
119.638804
20
22.703707
11
120.058850
21
23.105910
0
LINE
8
Layer 1
10
120.058850
20
23.105910
11
120.060060
21
23.106000
0
LINE
8
Layer 1
10
80.912660
20
52.347100
11
79.771097
21
52.699341
0
LINE
8
Layer 1
10
79.771097
20
52.699341
11
78.547790
21
53.250561
0
LINE
8
Layer 1
10
78.547790
20
53.250561
11
76.026179
21
54.824895
0
LINE
8
Layer 1
10
76.026179
20
54.824895
11
73.688285
21
56.820024
0
LINE
8
Layer 1
10
73.688285
20
56.820024
11
71.874570
21
58.985870
0
LINE
8
Layer 1
10
71.874570
20
58.985870
11
70.615082
21
61.318435
0
LINE
8
Layer 1
10
70.615082
20
61.318435
11
69.329517
21
64.394739
0
LINE
8
Layer 1
10
69.329517
20
64.394739
11
68.231682
21
67.647058
0
LINE
8
Layer 1
10
68.231682
20
67.647058
11
67.535380
21
70.507670
0
LINE
8
Layer 1
10
67.535380
20
70.507670
11
67.426456
21
71.143230
0
LINE
8
Layer 1
10
67.426456
20
71.143230
11
67.530033
21
71.370560
0
LINE
8
Layer 1
10
67.530033
20
71.370560
11
67.633610
21
71.597880
0
LINE
8
Layer 1
10
67.633610
20
71.597880
11
67.816000
21
71.597800
0
LINE
8
Layer 1
10
67.816000
20
71.597800
11
68.366127
21
71.391226
0
LINE
8
Layer 1
10
68.366127
20
71.391226
11
69.344660
21
70.637070
0
LINE
8
Layer 1
10
69.344660
20
70.637070
11
71.099509
21
69.349948
0
LINE
8
Layer 1
10
71.099509
20
69.349948
11
72.681100
21
68.711830
0
LINE
8
Layer 1
10
72.681100
20
68.711830
11
73.256361
21
68.563450
0
LINE
8
Layer 1
10
73.256361
20
68.563450
11
74.008626
21
68.566450
0
LINE
8
Layer 1
10
74.008626
20
68.566450
11
74.760891
21
68.569450
0
LINE
8
Layer 1
10
74.760891
20
68.569450
11
75.321165
21
68.716030
0
LINE
8
Layer 1
10
75.321165
20
68.716030
11
76.668605
21
69.233521
0
LINE
8
Layer 1
10
76.668605
20
69.233521
11
78.014691
21
70.080013
0
LINE
8
Layer 1
10
78.014691
20
70.080013
11
79.357675
21
71.254190
0
LINE
8
Layer 1
10
79.357675
20
71.254190
11
80.695805
21
72.754740
0
LINE
8
Layer 1
10
80.695805
20
72.754740
11
81.389745
21
73.586078
0
LINE
8
Layer 1
10
81.389745
20
73.586078
11
81.889240
21
73.833624
0
LINE
8
Layer 1
10
81.889240
20
73.833624
11
82.498707
21
73.463820
0
LINE
8
Layer 1
10
82.498707
20
73.463820
11
83.522565
21
72.443110
0
LINE
8
Layer 1
10
83.522565
20
72.443110
11
84.850095
21
71.090850
0
LINE
8
Layer 1
10
84.850095
20
71.090850
11
85.600275
21
70.538550
0
LINE
8
Layer 1
10
85.600275
20
70.538550
11
87.048321
21
69.643068
0
LINE
8
Layer 1
10
87.048321
20
69.643068
11
88.527725
21
69.017690
0
LINE
8
Layer 1
10
88.527725
20
69.017690
11
89.186675
21
68.811690
0
LINE
8
Layer 1
10
89.186675
20
68.811690
11
90.204445
21
68.810720
0
LINE
8
Layer 1
10
90.204445
20
68.810720
11
91.222215
21
68.809750
0
LINE
8
Layer 1
10
91.222215
20
68.809750
11
91.870725
21
69.022180
0
LINE
8
Layer 1
10
91.870725
20
69.022180
11
93.151894
21
69.656854
0
LINE
8
Layer 1
10
93.151894
20
69.656854
11
94.593825
21
70.898660
0
LINE
8
Layer 1
10
94.593825
20
70.898660
11
95.575875
21
71.863060
0
LINE
8
Layer 1
10
95.575875
20
71.863060
11
95.812900
21
71.863100
0
LINE
8
Layer 1
10
95.812900
20
71.863100
11
96.050000
21
71.863100
0
LINE
8
Layer 1
10
96.050000
20
71.863100
11
96.144500
21
71.619720
0
LINE
8
Layer 1
10
96.144500
20
71.619720
11
96.239000
21
71.376340
0
LINE
8
Layer 1
10
96.239000
20
71.376340
11
96.184100
21
70.823340
0
LINE
8
Layer 1
10
96.184100
20
70.823340
11
95.662312
21
67.697741
0
LINE
8
Layer 1
10
95.662312
20
67.697741
11
94.755414
21
64.639051
0
LINE
8
Layer 1
10
94.755414
20
64.639051
11
93.518628
21
61.732668
0
LINE
8
Layer 1
10
93.518628
20
61.732668
11
92.007174
21
59.063991
0
LINE
8
Layer 1
10
92.007174
20
59.063991
11
90.276273
21
56.718421
0
LINE
8
Layer 1
10
90.276273
20
56.718421
11
88.381146
21
54.781356
0
LINE
8
Layer 1
10
88.381146
20
54.781356
11
86.377015
21
53.338196
0
LINE
8
Layer 1
10
86.377015
20
53.338196
11
84.319100
21
52.474340
0
LINE
8
Layer 1
10
84.319100
20
52.474340
11
83.611080
21
52.287340
0
LINE
8
Layer 1
10
83.611080
20
52.287340
11
82.549060
21
52.252940
0
LINE
8
Layer 1
10
82.549060
20
52.252940
11
81.487040
21
52.218540
0
LINE
8
Layer 1
10
81.487040
20
52.218540
11
80.911780
21
52.346840
0
LINE
8
Layer 1
10
80.911780
20
52.346840
11
80.912660
21
52.347100
0
LINE
8
Layer 1
10
83.036700
20
53.164640
11
85.379117
21
54.255412
0
LINE
8
Layer 1
10
85.379117
20
54.255412
11
87.740245
21
55.880150
0
LINE
8
Layer 1
10
87.740245
20
55.880150
11
89.896548
21
57.860463
0
LINE
8
Layer 1
10
89.896548
20
57.860463
11
91.624490
21
60.017960
0
LINE
8
Layer 1
10
91.624490
20
60.017960
11
92.764797
21
62.115987
0
LINE
8
Layer 1
10
92.764797
20
62.115987
11
93.861237
21
64.721399
0
LINE
8
Layer 1
10
93.861237
20
64.721399
11
94.707384
21
67.284921
0
LINE
8
Layer 1
10
94.707384
20
67.284921
11
95.096810
21
69.257280
0
LINE
8
Layer 1
10
95.096810
20
69.257280
11
95.117210
21
69.587340
0
LINE
8
Layer 1
10
95.117210
20
69.587340
11
95.016150
21
69.623340
0
LINE
8
Layer 1
10
95.016150
20
69.623340
11
94.194410
21
69.168550
0
LINE
8
Layer 1
10
94.194410
20
69.168550
11
92.689235
21
68.308125
0
LINE
8
Layer 1
10
92.689235
20
68.308125
11
91.245980
21
67.966940
0
LINE
8
Layer 1
10
91.245980
20
67.966940
11
90.560250
21
67.888740
0
LINE
8
Layer 1
10
90.560250
20
67.888740
11
89.789520
21
67.976340
0
LINE
8
Layer 1
10
89.789520
20
67.976340
11
89.018790
21
68.063940
0
LINE
8
Layer 1
10
89.018790
20
68.063940
11
88.244470
21
68.323370
0
LINE
8
Layer 1
10
88.244470
20
68.323370
11
86.035941
21
69.335131
0
LINE
8
Layer 1
10
86.035941
20
69.335131
11
83.877490
21
70.856240
0
LINE
8
Layer 1
10
83.877490
20
70.856240
11
82.650850
21
71.833070
0
LINE
8
Layer 1
10
82.650850
20
71.833070
11
82.132230
21
72.217530
0
LINE
8
Layer 1
10
82.132230
20
72.217530
11
81.868600
21
72.217400
0
LINE
8
Layer 1
10
81.868600
20
72.217400
11
81.605800
21
72.217400
0
LINE
8
Layer 1
10
81.605800
20
72.217400
11
80.351640
21
70.956250
0
LINE
8
Layer 1
10
80.351640
20
70.956250
11
79.097480
21
69.695100
0
LINE
8
Layer 1
10
79.097480
20
69.695100
11
78.315320
21
69.215060
0
LINE
8
Layer 1
10
78.315320
20
69.215060
11
77.188568
21
68.615223
0
LINE
8
Layer 1
10
77.188568
20
68.615223
11
75.989450
21
68.147251
0
LINE
8
Layer 1
10
75.989450
20
68.147251
11
74.754917
21
67.823169
0
LINE
8
Layer 1
10
74.754917
20
67.823169
11
73.521920
21
67.655000
0
LINE
8
Layer 1
10
73.521920
20
67.655000
11
72.725404
21
67.598700
0
LINE
8
Layer 1
10
72.725404
20
67.598700
11
72.017390
21
67.691500
0
LINE
8
Layer 1
10
72.017390
20
67.691500
11
70.401260
21
68.062900
0
LINE
8
Layer 1
10
70.401260
20
68.062900
11
69.660880
21
68.265602
0
LINE
8
Layer 1
10
69.660880
20
68.265602
11
69.305058
21
68.232025
0
LINE
8
Layer 1
10
69.305058
20
68.232025
11
69.249517
21
67.883988
0
LINE
8
Layer 1
10
69.249517
20
67.883988
11
69.409982
21
67.143310
0
LINE
8
Layer 1
10
69.409982
20
67.143310
11
70.290085
21
64.296748
0
LINE
8
Layer 1
10
70.290085
20
64.296748
11
71.436256
21
61.746240
0
LINE
8
Layer 1
10
71.436256
20
61.746240
11
72.850584
21
59.487857
0
LINE
8
Layer 1
10
72.850584
20
59.487857
11
74.535162
21
57.517670
0
LINE
8
Layer 1
10
74.535162
20
57.517670
11
75.557452
21
56.491450
0
LINE
8
Layer 1
10
75.557452
20
56.491450
11
76.503409
21
55.791890
0
LINE
8
Layer 1
10
76.503409
20
55.791890
11
79.165227
21
54.081376
0
LINE
8
Layer 1
10
79.165227
20
54.081376
11
81.354319
21
53.061200
0
LINE
8
Layer 1
10
81.354319
20
53.061200
11
81.841079
21
52.928950
0
LINE
8
Layer 1
10
81.841079
20
52.928950
11
82.239339
21
52.979350
0
LINE
8
Layer 1
10
82.239339
20
52.979350
11
83.035849
21
53.164580
0
LINE
8
Layer 1
10
83.035849
20
53.164580
11
83.036700
21
53.164640
0
LINE
8
Layer 1
10
47.087700
20
78.950400
11
45.901475
21
79.207600
0
LINE
8
Layer 1
10
45.901475
20
79.207600
11
44.809412
21
79.616862
0
LINE
8
Layer 1
10
44.809412
20
79.616862
11
43.812487
21
80.177286
0
LINE
8
Layer 1
10
43.812487
20
80.177286
11
42.911676
21
80.887973
0
LINE
8
Layer 1
10
42.911676
20
80.887973
11
42.107955
21
81.748022
0
LINE
8
Layer 1
10
42.107955
20
81.748022
11
41.402300
21
82.756537
0
LINE
8
Layer 1
10
41.402300
20
82.756537
11
40.795686
21
83.912616
0
LINE
8
Layer 1
10
40.795686
20
83.912616
11
40.289090
21
85.215360
0
LINE
8
Layer 1
10
40.289090
20
85.215360
11
39.947657
21
86.244890
0
LINE
8
Layer 1
10
39.947657
20
86.244890
11
39.748407
21
87.395420
0
LINE
8
Layer 1
10
39.748407
20
87.395420
11
39.549158
21
88.545940
0
LINE
8
Layer 1
10
39.549158
20
88.545940
11
39.547858
21
90.315970
0
LINE
8
Layer 1
10
39.547858
20
90.315970
11
39.546558
21
92.086010
0
LINE
8
Layer 1
10
39.546558
20
92.086010
11
39.702297
21
93.143600
0
LINE
8
Layer 1
10
39.702297
20
93.143600
11
40.410643
21
96.284721
0
LINE
8
Layer 1
10
40.410643
20
96.284721
11
41.541110
21
99.098499
0
LINE
8
Layer 1
10
41.541110
20
99.098499
11
43.048716
21
101.496077
0
LINE
8
Layer 1
10
43.048716
20
101.496077
11
43.929888
21
102.511024
0
LINE
8
Layer 1
10
43.929888
20
102.511024
11
44.888477
21
103.388600
0
LINE
8
Layer 1
10
44.888477
20
103.388600
11
45.637610
21
103.994560
0
LINE
8
Layer 1
10
45.637610
20
103.994560
11
46.614261
21
104.475480
0
LINE
8
Layer 1
10
46.614261
20
104.475480
11
47.590912
21
104.956410
0
LINE
8
Layer 1
10
47.590912
20
104.956410
11
48.343177
21
105.156520
0
LINE
8
Layer 1
10
48.343177
20
105.156520
11
49.095442
21
105.356640
0
LINE
8
Layer 1
10
49.095442
20
105.356640
11
50.732722
21
105.353640
0
LINE
8
Layer 1
10
50.732722
20
105.353640
11
52.370002
21
105.350640
0
LINE
8
Layer 1
10
52.370002
20
105.350640
11
53.078016
21
105.155100
0
LINE
8
Layer 1
10
53.078016
20
105.155100
11
54.614120
21
104.567919
0
LINE
8
Layer 1
10
54.614120
20
104.567919
11
55.971304
21
103.705440
0
LINE
8
Layer 1
10
55.971304
20
103.705440
11
57.148361
21
102.569724
0
LINE
8
Layer 1
10
57.148361
20
102.569724
11
58.144080
21
101.162831
0
LINE
8
Layer 1
10
58.144080
20
101.162831
11
58.957252
21
99.486822
0
LINE
8
Layer 1
10
58.957252
20
99.486822
11
59.586668
21
97.543756
0
LINE
8
Layer 1
10
59.586668
20
97.543756
11
60.031119
21
95.335696
0
LINE
8
Layer 1
10
60.031119
20
95.335696
11
60.289396
21
92.864700
0
LINE
8
Layer 1
10
60.289396
20
92.864700
11
60.380166
21
91.431520
0
LINE
8
Layer 1
10
60.380166
20
91.431520
11
60.291956
21
90.209650
0
LINE
8
Layer 1
10
60.291956
20
90.209650
11
59.995602
21
87.952083
0
LINE
8
Layer 1
10
59.995602
20
87.952083
11
59.453006
21
85.921759
0
LINE
8
Layer 1
10
59.453006
20
85.921759
11
58.670949
21
84.127237
0
LINE
8
Layer 1
10
58.670949
20
84.127237
11
57.656211
21
82.577078
0
LINE
8
Layer 1
10
57.656211
20
82.577078
11
56.415574
21
81.279839
0
LINE
8
Layer 1
10
56.415574
20
81.279839
11
54.955817
21
80.244082
0
LINE
8
Layer 1
10
54.955817
20
80.244082
11
53.283721
21
79.478366
0
LINE
8
Layer 1
10
53.283721
20
79.478366
11
51.406066
21
78.991250
0
LINE
8
Layer 1
10
51.406066
20
78.991250
11
50.621036
21
78.854360
0
LINE
8
Layer 1
10
50.621036
20
78.854360
11
49.105976
21
78.865160
0
LINE
8
Layer 1
10
49.105976
20
78.865160
11
47.087686
21
78.949760
0
LINE
8
Layer 1
10
47.087686
20
78.949760
11
47.087700
21
78.950400
0
LINE
8
Layer 1
10
50.960670
20
79.702280
11
53.260232
21
80.413857
0
LINE
8
Layer 1
10
53.260232
20
80.413857
11
55.201122
21
81.534104
0
LINE
8
Layer 1
10
55.201122
20
81.534104
11
56.776150
21
83.048268
0
LINE
8
Layer 1
10
56.776150
20
83.048268
11
57.978122
21
84.941596
0
LINE
8
Layer 1
10
57.978122
20
84.941596
11
58.799848
21
87.199335
0
LINE
8
Layer 1
10
58.799848
20
87.199335
11
59.234134
21
89.806730
0
LINE
8
Layer 1
10
59.234134
20
89.806730
11
59.273789
21
92.749030
0
LINE
8
Layer 1
10
59.273789
20
92.749030
11
58.911620
21
96.011480
0
LINE
8
Layer 1
10
58.911620
20
96.011480
11
58.580185
21
97.604159
0
LINE
8
Layer 1
10
58.580185
20
97.604159
11
58.139770
21
99.014897
0
LINE
8
Layer 1
10
58.139770
20
99.014897
11
57.584091
21
100.252122
0
LINE
8
Layer 1
10
57.584091
20
100.252122
11
56.906864
21
101.324261
0
LINE
8
Layer 1
10
56.906864
20
101.324261
11
56.101805
21
102.239741
0
LINE
8
Layer 1
10
56.101805
20
102.239741
11
55.162629
21
103.006987
0
LINE
8
Layer 1
10
55.162629
20
103.006987
11
54.083052
21
103.634428
0
LINE
8
Layer 1
10
54.083052
20
103.634428
11
52.856790
21
104.130490
0
LINE
8
Layer 1
10
52.856790
20
104.130490
11
52.104525
21
104.380830
0
LINE
8
Layer 1
10
52.104525
20
104.380830
11
50.555745
21
104.379830
0
LINE
8
Layer 1
10
50.555745
20
104.379830
11
49.006965
21
104.378830
0
LINE
8
Layer 1
10
49.006965
20
104.378830
11
48.210449
21
104.134120
0
LINE
8
Layer 1
10
48.210449
20
104.134120
11
46.749266
21
103.561683
0
LINE
8
Layer 1
10
46.749266
20
103.561683
11
45.444291
21
102.787301
0
LINE
8
Layer 1
10
45.444291
20
102.787301
11
44.291575
21
101.805446
0
LINE
8
Layer 1
10
44.291575
20
101.805446
11
43.287164
21
100.610590
0
LINE
8
Layer 1
10
43.287164
20
100.610590
11
42.427108
21
99.197207
0
LINE
8
Layer 1
10
42.427108
20
99.197207
11
41.707454
21
97.559769
0
LINE
8
Layer 1
10
41.707454
20
97.559769
11
41.124252
21
95.692749
0
LINE
8
Layer 1
10
41.124252
20
95.692749
11
40.673549
21
93.590620
0
LINE
8
Layer 1
10
40.673549
20
93.590620
11
40.519867
21
92.705600
0
LINE
8
Layer 1
10
40.519867
20
92.705600
11
40.516767
21
90.714310
0
LINE
8
Layer 1
10
40.516767
20
90.714310
11
40.513667
21
88.723020
0
LINE
8
Layer 1
10
40.513667
20
88.723020
11
40.663408
21
87.926510
0
LINE
8
Layer 1
10
40.663408
20
87.926510
11
41.220180
21
85.818978
0
LINE
8
Layer 1
10
41.220180
20
85.818978
11
42.033708
21
83.981482
0
LINE
8
Layer 1
10
42.033708
20
83.981482
11
43.079952
21
82.433220
0
LINE
8
Layer 1
10
43.079952
20
82.433220
11
44.334875
21
81.193391
0
LINE
8
Layer 1
10
44.334875
20
81.193391
11
45.774441
21
80.281193
0
LINE
8
Layer 1
10
45.774441
20
80.281193
11
47.374610
21
79.715823
0
LINE
8
Layer 1
10
47.374610
20
79.715823
11
49.111345
21
79.516479
0
LINE
8
Layer 1
10
49.111345
20
79.516479
11
50.960608
21
79.702360
0
LINE
8
Layer 1
10
50.960608
20
79.702360
11
50.960670
21
79.702280
0
LINE
8
Layer 1
10
113.206670
20
79.126870
11
111.277033
21
79.500231
0
LINE
8
Layer 1
10
111.277033
20
79.500231
11
109.470626
21
80.183320
0
LINE
8
Layer 1
10
109.470626
20
80.183320
11
107.812326
21
81.151936
0
LINE
8
Layer 1
10
107.812326
20
81.151936
11
106.327011
21
82.381881
0
LINE
8
Layer 1
10
106.327011
20
82.381881
11
105.039560
21
83.848956
0
LINE
8
Layer 1
10
105.039560
20
83.848956
11
103.974851
21
85.528962
0
LINE
8
Layer 1
10
103.974851
20
85.528962
11
103.157762
21
87.397700
0
LINE
8
Layer 1
10
103.157762
20
87.397700
11
102.613170
21
89.430970
0
LINE
8
Layer 1
10
102.613170
20
89.430970
11
102.461980
21
90.227480
0
LINE
8
Layer 1
10
102.461980
20
90.227480
11
102.465980
21
92.351520
0
LINE
8
Layer 1
10
102.465980
20
92.351520
11
102.469980
21
94.475560
0
LINE
8
Layer 1
10
102.469980
20
94.475560
11
102.673710
21
95.670340
0
LINE
8
Layer 1
10
102.673710
20
95.670340
11
103.179780
21
97.908469
0
LINE
8
Layer 1
10
103.179780
20
97.908469
11
103.887451
21
99.906079
0
LINE
8
Layer 1
10
103.887451
20
99.906079
11
104.784981
21
101.649639
0
LINE
8
Layer 1
10
104.784981
20
101.649639
11
105.860630
21
103.125619
0
LINE
8
Layer 1
10
105.860630
20
103.125619
11
107.102655
21
104.320489
0
LINE
8
Layer 1
10
107.102655
20
104.320489
11
108.499314
21
105.220720
0
LINE
8
Layer 1
10
108.499314
20
105.220720
11
110.038867
21
105.812780
0
LINE
8
Layer 1
10
110.038867
20
105.812780
11
111.709570
21
106.083140
0
LINE
8
Layer 1
10
111.709570
20
106.083140
11
112.550330
21
106.134140
0
LINE
8
Layer 1
10
112.550330
20
106.134140
11
113.360100
21
105.992630
0
LINE
8
Layer 1
10
113.360100
20
105.992630
11
115.097619
21
105.504861
0
LINE
8
Layer 1
10
115.097619
20
105.504861
11
116.705206
21
104.683413
0
LINE
8
Layer 1
10
116.705206
20
104.683413
11
118.166911
21
103.548872
0
LINE
8
Layer 1
10
118.166911
20
103.548872
11
119.466784
21
102.121825
0
LINE
8
Layer 1
10
119.466784
20
102.121825
11
120.588874
21
100.422860
0
LINE
8
Layer 1
10
120.588874
20
100.422860
11
121.517232
21
98.472565
0
LINE
8
Layer 1
10
121.517232
20
98.472565
11
122.235907
21
96.291526
0
LINE
8
Layer 1
10
122.235907
20
96.291526
11
122.728950
21
93.900330
0
LINE
8
Layer 1
10
122.728950
20
93.900330
11
122.882220
21
92.882560
0
LINE
8
Layer 1
10
122.882220
20
92.882560
11
122.926820
21
91.145180
0
LINE
8
Layer 1
10
122.926820
20
91.145180
11
122.971420
21
89.407780
0
LINE
8
Layer 1
10
122.971420
20
89.407780
11
122.868890
21
88.538430
0
LINE
8
Layer 1
10
122.868890
20
88.538430
11
122.527001
21
86.594903
0
LINE
8
Layer 1
10
122.527001
20
86.594903
11
121.988312
21
84.846815
0
LINE
8
Layer 1
10
121.988312
20
84.846815
11
121.262466
21
83.305952
0
LINE
8
Layer 1
10
121.262466
20
83.305952
11
120.359109
21
81.984100
0
LINE
8
Layer 1
10
120.359109
20
81.984100
11
119.287884
21
80.893043
0
LINE
8
Layer 1
10
119.287884
20
80.893043
11
118.058436
21
80.044567
0
LINE
8
Layer 1
10
118.058436
20
80.044567
11
116.680410
21
79.450458
0
LINE
8
Layer 1
10
116.680410
20
79.450458
11
115.163450
21
79.122500
0
LINE
8
Layer 1
10
115.163450
20
79.122500
11
114.241363
21
79.048300
0
LINE
8
Layer 1
10
114.241363
20
79.048300
11
113.205770
21
79.126500
0
LINE
8
Layer 1
10
113.205770
20
79.126500
11
113.206670
21
79.126870
0
LINE
8
Layer 1
10
115.487510
20
80.366600
11
116.885690
21
80.694690
0
LINE
8
Layer 1
10
116.885690
20
80.694690
11
117.591580
21
80.927210
0
LINE
8
Layer 1
10
117.591580
20
80.927210
11
118.229210
21
81.353680
0
LINE
8
Layer 1
10
118.229210
20
81.353680
11
119.460808
21
82.451387
0
LINE
8
Layer 1
10
119.460808
20
82.451387
11
120.473276
21
83.936227
0
LINE
8
Layer 1
10
120.473276
20
83.936227
11
121.248686
21
85.774877
0
LINE
8
Layer 1
10
121.248686
20
85.774877
11
121.769110
21
87.934010
0
LINE
8
Layer 1
10
121.769110
20
87.934010
11
121.931050
21
88.899940
0
LINE
8
Layer 1
10
121.931050
20
88.899940
11
121.929050
21
90.758480
0
LINE
8
Layer 1
10
121.929050
20
90.758480
11
121.927050
21
92.617020
0
LINE
8
Layer 1
10
121.927050
20
92.617020
11
121.770450
21
93.634790
0
LINE
8
Layer 1
10
121.770450
20
93.634790
11
121.069153
21
96.721584
0
LINE
8
Layer 1
10
121.069153
20
96.721584
11
119.990626
21
99.461776
0
LINE
8
Layer 1
10
119.990626
20
99.461776
11
118.583031
21
101.757798
0
LINE
8
Layer 1
10
118.583031
20
101.757798
11
117.770884
21
102.708754
0
LINE
8
Layer 1
10
117.770884
20
102.708754
11
116.894530
21
103.512080
0
LINE
8
Layer 1
10
116.894530
20
103.512080
11
116.180310
21
104.083690
0
LINE
8
Layer 1
10
116.180310
20
104.083690
11
115.383790
21
104.473270
0
LINE
8
Layer 1
10
115.383790
20
104.473270
11
113.842840
21
105.055300
0
LINE
8
Layer 1
10
113.842840
20
105.055300
11
113.098410
21
105.247760
0
LINE
8
Layer 1
10
113.098410
20
105.247760
11
112.243000
21
105.248000
0
LINE
8
Layer 1
10
112.243000
20
105.248000
11
111.388000
21
105.248000
0
LINE
8
Layer 1
10
111.388000
20
105.248000
11
110.704390
21
105.060450
0
LINE
8
Layer 1
10
110.704390
20
105.060450
11
109.459518
21
104.586687
0
LINE
8
Layer 1
10
109.459518
20
104.586687
11
108.290505
21
103.877240
0
LINE
8
Layer 1
10
108.290505
20
103.877240
11
107.208731
21
102.947198
0
LINE
8
Layer 1
10
107.208731
20
102.947198
11
106.225577
21
101.811651
0
LINE
8
Layer 1
10
106.225577
20
101.811651
11
105.352423
21
100.485690
0
LINE
8
Layer 1
10
105.352423
20
100.485690
11
104.600649
21
98.984402
0
LINE
8
Layer 1
10
104.600649
20
98.984402
11
103.981635
21
97.322879
0
LINE
8
Layer 1
10
103.981635
20
97.322879
11
103.506760
21
95.516210
0
LINE
8
Layer 1
10
103.506760
20
95.516210
11
103.266400
21
94.387290
0
LINE
8
Layer 1
10
103.266400
20
94.387290
11
103.264400
21
92.263250
0
LINE
8
Layer 1
10
103.264400
20
92.263250
11
103.262400
21
90.139210
0
LINE
8
Layer 1
10
103.262400
20
90.139210
11
103.459940
21
89.237520
0
LINE
8
Layer 1
10
103.459940
20
89.237520
11
104.117923
21
87.107922
0
LINE
8
Layer 1
10
104.117923
20
87.107922
11
105.086751
21
85.218857
0
LINE
8
Layer 1
10
105.086751
20
85.218857
11
106.331774
21
83.595881
0
LINE
8
Layer 1
10
106.331774
20
83.595881
11
107.818341
21
82.264551
0
LINE
8
Layer 1
10
107.818341
20
82.264551
11
109.511802
21
81.250425
0
LINE
8
Layer 1
10
109.511802
20
81.250425
11
111.377506
21
80.579060
0
LINE
8
Layer 1
10
111.377506
20
80.579060
11
113.380802
21
80.276013
0
LINE
8
Layer 1
10
113.380802
20
80.276013
11
115.487040
21
80.366840
0
LINE
8
Layer 1
10
115.487040
20
80.366840
11
115.487510
21
80.366600
0
LINE
8
Layer 1
10
148.062910
20
109.985500
11
147.600470
21
110.734290
0
LINE
8
Layer 1
10
147.600470
20
110.734290
11
147.275760
21
111.328200
0
LINE
8
Layer 1
10
147.275760
20
111.328200
11
147.304060
21
111.575060
0
LINE
8
Layer 1
10
147.304060
20
111.575060
11
147.332360
21
111.821910
0
LINE
8
Layer 1
10
147.332360
20
111.821910
11
147.888480
21
112.101310
0
LINE
8
Layer 1
10
147.888480
20
112.101310
11
149.026435
21
112.876998
0
LINE
8
Layer 1
10
149.026435
20
112.876998
11
150.397996
21
114.172644
0
LINE
8
Layer 1
10
150.397996
20
114.172644
11
151.988431
21
115.972850
0
LINE
8
Layer 1
10
151.988431
20
115.972850
11
153.783010
21
118.262220
0
LINE
8
Layer 1
10
153.783010
20
118.262220
11
156.536000
21
121.645600
0
LINE
8
Layer 1
10
156.536000
20
121.645600
11
160.490537
21
126.277225
0
LINE
8
Layer 1
10
160.490537
20
126.277225
11
163.715966
21
130.326352
0
LINE
8
Layer 1
10
163.715966
20
130.326352
11
165.953812
21
133.453479
0
LINE
8
Layer 1
10
165.953812
20
133.453479
11
166.945600
21
135.319100
0
LINE
8
Layer 1
10
166.945600
20
135.319100
11
167.068250
21
135.805860
0
LINE
8
Layer 1
10
167.068250
20
135.805860
11
167.057250
21
136.912130
0
LINE
8
Layer 1
10
167.057250
20
136.912130
11
167.046250
21
138.018400
0
LINE
8
Layer 1
10
167.046250
20
138.018400
11
166.465070
21
140.761950
0
LINE
8
Layer 1
10
166.465070
20
140.761950
11
165.523340
21
145.496790
0
LINE
8
Layer 1
10
165.523340
20
145.496790
11
164.918552
21
148.269719
0
LINE
8
Layer 1
10
164.918552
20
148.269719
11
164.165951
21
150.683007
0
LINE
8
Layer 1
10
164.165951
20
150.683007
11
163.250607
21
152.756796
0
LINE
8
Layer 1
10
163.250607
20
152.756796
11
162.157595
21
154.511227
0
LINE
8
Layer 1
10
162.157595
20
154.511227
11
160.871986
21
155.966441
0
LINE
8
Layer 1
10
160.871986
20
155.966441
11
159.378854
21
157.142579
0
LINE
8
Layer 1
10
159.378854
20
157.142579
11
157.663271
21
158.059782
0
LINE
8
Layer 1
10
157.663271
20
158.059782
11
155.710310
21
158.738190
0
LINE
8
Layer 1
10
155.710310
20
158.738190
11
154.865940
21
158.968222
0
LINE
8
Layer 1
10
154.865940
20
158.968222
11
154.414600
21
158.930792
0
LINE
8
Layer 1
10
154.414600
20
158.930792
11
153.963250
21
158.893362
0
LINE
8
Layer 1
10
153.963250
20
158.893362
11
153.340340
21
158.490397
0
LINE
8
Layer 1
10
153.340340
20
158.490397
11
151.013288
21
156.603441
0
LINE
8
Layer 1
10
151.013288
20
156.603441
11
144.544630
21
150.597787
0
LINE
8
Layer 1
10
144.544630
20
150.597787
11
139.234530
21
145.502027
0
LINE
8
Layer 1
10
139.234530
20
145.502027
11
137.508750
21
143.768377
0
LINE
8
Layer 1
10
137.508750
20
143.768377
11
137.197460
21
143.195357
0
LINE
8
Layer 1
10
137.197460
20
143.195357
11
136.886160
21
142.622337
0
LINE
8
Layer 1
10
136.886160
20
142.622337
11
136.732550
21
142.592757
0
LINE
8
Layer 1
10
136.732550
20
142.592757
11
136.562755
21
142.652270
0
LINE
8
Layer 1
10
136.562755
20
142.652270
11
136.403700
21
143.172634
0
LINE
8
Layer 1
10
136.403700
20
143.172634
11
135.912570
21
144.124888
0
LINE
8
Layer 1
10
135.912570
20
144.124888
11
135.535180
21
144.924864
0
LINE
8
Layer 1
10
135.535180
20
144.924864
11
135.735849
21
144.987650
0
LINE
8
Layer 1
10
135.735849
20
144.987650
11
136.206260
21
144.850763
0
LINE
8
Layer 1
10
136.206260
20
144.850763
11
136.673800
21
144.673504
0
LINE
8
Layer 1
10
136.673800
20
144.673504
11
136.892020
21
144.790291
0
LINE
8
Layer 1
10
136.892020
20
144.790291
11
138.548520
21
146.358381
0
LINE
8
Layer 1
10
138.548520
20
146.358381
11
143.215912
21
150.916342
0
LINE
8
Layer 1
10
143.215912
20
150.916342
11
147.823988
21
155.163432
0
LINE
8
Layer 1
10
147.823988
20
155.163432
11
151.691330
21
158.490672
0
LINE
8
Layer 1
10
151.691330
20
158.490672
11
154.136520
21
160.289081
0
LINE
8
Layer 1
10
154.136520
20
160.289081
11
154.754155
21
160.521175
0
LINE
8
Layer 1
10
154.754155
20
160.521175
11
155.362220
21
160.245871
0
LINE
8
Layer 1
10
155.362220
20
160.245871
11
157.443520
21
159.130721
0
LINE
8
Layer 1
10
157.443520
20
159.130721
11
159.997560
21
157.691601
0
LINE
8
Layer 1
10
159.997560
20
157.691601
11
160.936650
21
157.071383
0
LINE
8
Layer 1
10
160.936650
20
157.071383
11
161.881180
21
156.158842
0
LINE
8
Layer 1
10
161.881180
20
156.158842
11
163.467003
21
154.342575
0
LINE
8
Layer 1
10
163.467003
20
154.342575
11
164.649051
21
152.277044
0
LINE
8
Layer 1
10
164.649051
20
152.277044
11
165.511331
21
149.774537
0
LINE
8
Layer 1
10
165.511331
20
149.774537
11
166.137850
21
146.647342
0
LINE
8
Layer 1
10
166.137850
20
146.647342
11
166.415860
21
144.833052
0
LINE
8
Layer 1
10
166.415860
20
144.833052
11
167.257170
21
141.160232
0
LINE
8
Layer 1
10
167.257170
20
141.160232
11
168.247150
21
137.182472
0
LINE
8
Layer 1
10
168.247150
20
137.182472
11
168.395820
21
136.877536
0
LINE
8
Layer 1
10
168.395820
20
136.877536
11
168.661330
21
136.794456
0
LINE
8
Layer 1
10
168.661330
20
136.794456
11
169.046120
21
136.616739
0
LINE
8
Layer 1
10
169.046120
20
136.616739
11
169.165400
21
136.522099
0
LINE
8
Layer 1
10
169.165400
20
136.522099
11
169.117000
21
136.224033
0
LINE
8
Layer 1
10
169.117000
20
136.224033
11
169.068600
21
135.925967
0
LINE
8
Layer 1
10
169.068600
20
135.925967
11
168.218510
21
134.639087
0
LINE
8
Layer 1
10
168.218510
20
134.639087
11
164.922589
21
129.962607
0
LINE
8
Layer 1
10
164.922589
20
129.962607
11
160.649860
21
124.300687
0
LINE
8
Layer 1
10
160.649860
20
124.300687
11
157.760748
21
120.499409
0
LINE
8
Layer 1
10
157.760748
20
120.499409
11
156.018790
21
117.928657
0
LINE
8
Layer 1
10
156.018790
20
117.928657
11
155.766560
21
117.524417
0
LINE
8
Layer 1
10
155.766560
20
117.524417
11
155.310780
21
117.229327
0
LINE
8
Layer 1
10
155.310780
20
117.229327
11
154.855000
21
116.934227
0
LINE
8
Layer 1
10
154.855000
20
116.934227
11
153.128290
21
115.174597
0
LINE
8
Layer 1
10
153.128290
20
115.174597
11
150.006973
21
111.862279
0
LINE
8
Layer 1
10
150.006973
20
111.862279
11
148.656720
21
110.118287
0
LINE
8
Layer 1
10
148.656720
20
110.118287
11
148.536160
21
109.830657
0
LINE
8
Layer 1
10
148.536160
20
109.830657
11
148.368000
21
109.831000
0
LINE
8
Layer 1
10
148.368000
20
109.831000
11
148.062470
21
109.985880
0
LINE
8
Layer 1
10
148.062470
20
109.985880
11
148.062910
21
109.985500
 0 
ENDSEC
 0 
EOF