<?xml version="1.0" encoding="UTF-8" standalone="no"?>
<!-- Created with Inkscape (http://www.inkscape.org/) -->

<svg
   width="181.29402mm"
   height="188.06621mm"
   viewBox="0 0 181.29402 188.06621"
   version="1.1"
   id="svg5"
   xml:space="preserve"
   inkscape:version="1.2.1 (9c6d41e410, 2022-07-14, custom)"
   sodipodi:docname="a5.svg"
   xmlns:inkscape="http://www.inkscape.org/namespaces/inkscape"
   xmlns:sodipodi="http://sodipodi.sourceforge.net/DTD/sodipodi-0.dtd"
   xmlns="http://www.w3.org/2000/svg"
   xmlns:svg="http://www.w3.org/2000/svg"><sodipodi:namedview
     id="namedview7"
     pagecolor="#ffffff"
     bordercolor="#666666"
     borderopacity="1.0"
     inkscape:showpageshadow="2"
     inkscape:pageopacity="0.0"
     inkscape:pagecheckerboard="0"
     inkscape:deskcolor="#d1d1d1"
     inkscape:document-units="mm"
     showgrid="false"
     inkscape:zoom="0.76765115"
     inkscape:cx="260.53501"
     inkscape:cy="463.10098"
     inkscape:window-width="1594"
     inkscape:window-height="1372"
     inkscape:window-x="2882"
     inkscape:window-y="36"
     inkscape:window-maximized="0"
     inkscape:current-layer="layer1" /><defs
     id="defs2" /><g
     inkscape:label="Layer 1"
     inkscape:groupmode="layer"
     id="layer1"
     transform="translate(-21.318471,-38.725899)"><path
       style="fill:#fe6603;stroke-width:0.0885017"
       d="m 137.1221,226.51478 c -0.18301,-0.18541 -0.12867,-0.31939 0.25375,-0.62565 l 0.36437,-0.29179 0.32967,-0.70802 c 0.18133,-0.38941 0.71474,-1.38371 1.18536,-2.20955 0.95106,-1.66892 1.31624,-2.52924 1.57306,-3.70591 l 0.17305,-0.79289 0.0754,-1.55767 0.0754,-1.55767 0.12009,-0.34537 c 0.066,-0.18996 0.18905,-0.38841 0.27332,-0.44101 l 0.15322,-0.0956 0.12408,0.13126 0.12408,0.13125 0.10003,1.19477 c 0.10807,1.2908 0.42053,2.96326 0.68617,3.67282 l 0.16567,0.44251 0.35303,0.17468 0.35305,0.17468 0.66376,-0.006 0.66376,-0.006 0.70402,-0.19543 c 0.88517,-0.24571 1.72392,-0.68374 2.44909,-1.27902 1.23116,-1.01065 1.4164,-1.00942 1.92959,0.0128 0.10495,0.20906 0.33101,0.5353 0.50237,0.72496 l 0.31155,0.34485 0.38958,0.14879 0.38958,0.14878 0.52721,-0.0381 0.5272,-0.0381 0.41927,-0.26036 0.41926,-0.26035 0.27348,-0.4159 c 0.15042,-0.22874 0.35313,-0.54392 0.45048,-0.70039 0.0974,-0.15648 0.24411,-0.32592 0.32612,-0.37653 l 0.1491,-0.092 0.62508,0.20493 0.62507,0.20493 0.32798,-0.0615 c 0.80174,-0.1504 1.45457,-0.65606 1.66502,-1.28966 0.0763,-0.22979 0.21911,-0.49051 0.3173,-0.57937 l 0.17853,-0.16156 0.14969,0.0949 0.1497,0.0949 0.005,0.7603 0.005,0.7603 0.15548,0.17181 0.15548,0.17181 0.0759,0.53702 c 0.11592,0.82009 0.22977,0.89292 0.76164,0.48724 l 0.30558,-0.23307 0.4629,-0.0173 0.46291,-0.0173 0.30093,-0.157 c 0.1655,-0.0864 0.56376,-0.42448 0.88501,-0.7514 l 0.5841,-0.59438 0.31179,-0.56912 0.3118,-0.56911 h 0.17496 0.17497 v 0.53678 0.53678 l -0.35832,0.43674 c -0.19708,0.2402 -0.64368,0.84053 -0.99247,1.33407 -0.65312,0.92421 -1.09991,1.35327 -1.64725,1.58197 l -0.31472,0.1315 h -0.56259 -0.56261 l -0.65051,-0.22126 -0.65052,-0.22125 -0.80314,8.8e-4 c -0.44172,0 -1.14166,0.039 -1.5554,0.0859 -1.38182,0.15637 -2.68526,0.26372 -4.32784,0.35646 l -1.62853,0.0919 -0.62826,0.14283 c -0.34555,0.0785 -0.96678,0.27331 -1.38053,0.4328 -0.93666,0.36106 -1.77748,0.53674 -3.14181,0.65646 -2.28158,0.20022 -2.92752,0.28651 -3.46471,0.46285 l -0.55763,0.18306 -0.35979,0.30797 c -0.4298,0.36789 -0.69264,0.86341 -1.00665,1.89777 l -0.23341,0.76889 -0.23839,0.1875 -0.23838,0.18751 -0.21751,-0.0546 -0.2175,-0.0546 -0.18459,0.22642 -0.18458,0.22643 -0.2655,0.0503 -0.26551,0.0503 -0.11063,-0.11209 z m -59.149142,-0.24792 -0.28045,-0.28045 0.05666,-0.41579 0.05666,-0.41579 0.305916,-0.44251 c 0.336317,-0.48649 0.723295,-0.8238 1.274956,-1.11135 l 0.360868,-0.18809 0.642513,-0.0807 0.642514,-0.0807 0.485498,-0.24313 0.485499,-0.24312 0.665789,-0.66829 c 2.969462,-2.98061 5.835107,-9.40512 6.418071,-14.38873 l 0.133085,-1.13771 v -1.50562 -1.50562 l -0.129759,-1.10572 c -0.07137,-0.60816 -0.247521,-1.74646 -0.391455,-2.52957 -0.509852,-2.77397 -0.550371,-3.64575 -0.184826,-3.97656 l 0.175515,-0.15883 0.351487,0.10531 0.351488,0.10531 0.252182,0.37325 c 0.717439,1.06191 1.088653,2.84105 1.275087,6.11119 l 0.105119,1.84384 -0.107461,2.00598 c -0.212923,3.97461 -0.653687,6.3176 -1.625712,8.64185 -0.243873,0.58313 -0.463905,1.18657 -0.488958,1.34095 l -0.04555,0.28069 0.244729,0.16036 c 0.1346,0.0882 0.527477,0.21311 0.873059,0.2776 l 0.628331,0.11725 3.407317,0.0486 c 1.874025,0.0267 6.97172,0.005 11.32822,-0.0477 l 7.92091,-0.0962 0.61436,-0.0944 c 1.08446,-0.16673 1.10495,-0.21131 0.52521,-1.1429 -0.70576,-1.13409 -0.87705,-1.71245 -1.10139,-3.71871 -0.0572,-0.5111 -0.14317,-0.97832 -0.19116,-1.03827 l -0.0872,-0.109 -0.18721,0.13113 -0.18721,0.13112 h -0.38898 -0.38898 l -0.33002,-0.33188 -0.33001,-0.33188 -0.18382,-0.49413 c -0.50976,-1.37032 -0.49752,-3.89721 0.0295,-6.09925 l 0.22241,-0.92927 0.34534,-0.714 0.34532,-0.71399 0.40157,-0.37015 c 0.22086,-0.20358 0.45865,-0.37015 0.52843,-0.37015 0.0698,0 0.22501,-0.11666 0.34499,-0.25924 l 0.21813,-0.25923 0.0597,-0.3983 c 0.0329,-0.21906 0.14025,-0.50067 0.23867,-0.62578 l 0.17894,-0.22749 h 0.33971 0.33972 l 0.22836,0.27139 c 0.1256,0.14927 0.29456,0.49775 0.37546,0.77439 l 0.14711,0.503 -0.003,0.75227 -0.003,0.75226 -0.14679,0.35077 c -0.19152,0.45763 -0.38774,0.667 -0.6251,0.667 -0.61633,0 -0.94739,1.10912 -0.51805,1.73557 0.29007,0.42321 0.58167,1.31636 0.87329,2.67475 0.34328,1.59906 0.63646,2.53627 1.05331,3.36719 0.47813,0.95307 0.61687,1.36169 0.84891,2.50033 0.68293,3.35124 2.9968,6.60743 6.95308,9.78476 1.69812,1.36378 2.36928,1.98636 2.54853,2.36411 l 0.14263,0.30057 0.44254,0.10616 0.44255,0.10617 v 0.17095 c 0,0.26732 -0.21028,0.29281 -1.57123,0.19047 l -1.27127,-0.0956 -0.17178,-0.15546 c -0.0945,-0.0855 -0.17178,-0.20007 -0.17178,-0.25458 0,-0.12572 -0.9895,-1.08826 -2.30104,-2.23834 -0.55978,-0.49086 -1.65499,-1.49599 -2.4338,-2.23364 -2.05365,-1.94507 -2.568,-2.2352 -4.46934,-2.52095 l -0.92927,-0.13967 -2.6993,-0.0984 -2.69931,-0.0984 -9.823685,0.10104 -9.823693,0.10102 -0.752265,0.09 c -1.041314,0.12465 -1.75422,0.31636 -2.1514,0.57856 l -0.337114,0.22253 -0.341264,0.54842 c -0.760008,1.22135 -0.982242,1.54424 -1.402977,2.03841 -0.550007,0.646 -1.404848,1.37409 -2.087656,1.77811 l -0.523546,0.30977 -0.405722,0.057 c -0.745909,0.10486 -1.688997,0.87194 -1.688997,1.37379 0,0.0873 -0.08961,0.26061 -0.199129,0.38507 l -0.199129,0.22628 -0.284085,0.0545 -0.284085,0.0545 z m -13.046314,-0.18302 c -0.03017,-0.0488 -0.02844,-0.26493 0.0038,-0.48025 l 0.05871,-0.39148 -0.248696,-0.45693 c -0.483094,-0.8876 -1.774263,-1.83138 -3.156471,-2.30723 l -0.728307,-0.25073 -1.503557,-0.22468 c -0.826957,-0.12357 -1.757983,-0.30935 -2.068948,-0.41283 l -0.565389,-0.18815 -0.630356,-0.59207 c -0.346696,-0.32564 -0.755982,-0.67913 -0.909523,-0.78555 l -0.279168,-0.19347 h -0.279786 c -0.352484,0 -0.51024,0.0844 -1.330172,0.71143 -0.848085,0.64859 -1.323753,0.88487 -1.901344,0.94448 l -0.462729,0.0478 -0.300367,-0.0997 -0.300368,-0.0997 -0.575262,-0.53886 c -1.008226,-0.94441 -1.340435,-1.03301 -2.297769,-0.61283 -1.873922,0.82247 -3.774747,0.6724 -5.023654,-0.39662 l -0.36744,-0.31451 -0.221431,-0.46236 c -0.121787,-0.2543 -0.247679,-0.68654 -0.27976,-0.96054 l -0.05833,-0.49818 0.105855,-0.0654 0.105855,-0.0654 0.110093,0.1211 c 0.06055,0.0666 0.181099,0.31446 0.267886,0.55078 0.212258,0.57801 0.57958,0.97478 1.169722,1.26351 l 0.490559,0.24001 0.687243,0.0398 0.687243,0.0398 0.475552,-0.15717 0.475553,-0.15717 0.619512,-0.59497 c 0.340732,-0.32724 0.75324,-0.66285 0.916684,-0.7458 0.163444,-0.0829 0.536214,-0.32679 0.828377,-0.54187 l 0.531206,-0.39105 h 0.30221 0.302211 l 0.08631,0.22701 c 0.04747,0.12486 0.08631,0.41723 0.08631,0.6497 0,0.9175 0.418568,1.71059 1.089274,2.06393 l 0.371005,0.19545 0.575262,-0.002 0.575261,-0.002 0.486759,-0.22593 c 0.62772,-0.29135 1.209387,-0.81585 1.569283,-1.41505 l 0.286009,-0.47617 0.179443,-0.70162 c 0.09869,-0.38589 0.203018,-1.02237 0.23183,-1.4144 l 0.05239,-0.71279 -0.258921,-0.66376 c -0.142408,-0.36507 -0.296574,-0.78324 -0.342592,-0.92927 l -0.08367,-0.26551 -0.516341,-0.046 -0.516341,-0.0461 -0.220217,-0.25602 -0.220215,-0.25601 0.05348,-0.26739 c 0.07809,-0.39043 0.287648,-0.57531 0.831218,-0.73333 l 0.483185,-0.14047 0.510355,0.0369 0.510356,0.0369 0.329101,0.25101 0.329101,0.25102 0.229391,0.49622 0.229391,0.49623 0.05257,1.72579 0.05257,1.72578 0.224936,0.62854 c 0.513188,1.43402 1.460993,2.38237 2.869653,2.8713 l 0.523938,0.18186 0.708014,0.0461 0.708014,0.0461 0.309756,-0.16115 0.309756,-0.16114 0.120163,-0.35401 0.120164,-0.35401 0.07575,-2.21254 c 0.04166,-1.2169 0.14219,-3.54671 0.223395,-5.17735 0.0812,-1.63065 0.131376,-3.36433 0.111492,-3.85265 l -0.03615,-0.88783 -0.210747,-0.29597 -0.210746,-0.29597 -0.362162,-0.15985 c -0.199189,-0.0879 -0.820159,-0.22345 -1.379932,-0.30119 -2.436581,-0.33838 -4.004304,-0.59549 -4.911847,-0.80559 -0.535436,-0.12394 -1.2523,-0.28683 -1.593032,-0.36197 l -0.619512,-0.13661 -0.708014,0.0473 -0.708014,0.0473 -0.708014,0.2247 c -2.091004,0.66361 -4.141943,2.48994 -6.298409,5.60861 -1.040963,1.50544 -1.892141,2.57301 -2.504019,3.14061 -0.326954,0.3033 -0.645776,0.64791 -0.708494,0.76579 l -0.114031,0.21435 -0.07182,0.97058 c -0.0395,0.53382 -0.11409,1.01285 -0.165746,1.06451 l -0.09392,0.0939 -0.110627,-0.11063 -0.110627,-0.11063 0.0031,-1.25672 0.0031,-1.25673 0.296559,-0.86545 c 1.326706,-3.87176 6.364667,-9.22148 9.658056,-10.2557 l 0.659399,-0.20707 1.194774,0.008 1.194773,0.008 0.575262,0.18032 c 0.316393,0.0992 0.993432,0.34149 1.504529,0.53848 0.511098,0.19699 1.327526,0.44337 1.814286,0.5475 l 0.885017,0.18934 1.513872,0.0499 1.513872,0.0499 0.689485,-0.15339 0.689484,-0.1534 0.20174,-0.20174 c 0.701541,-0.70154 0.923068,-3.94812 1.197172,-17.54508 0.05615,-2.78556 0.08055,-5.99154 0.05421,-7.1244 l -0.04789,-2.05973 -0.136034,-0.59914 c -0.07482,-0.32953 -0.265358,-0.84726 -0.423419,-1.15052 l -0.287384,-0.55139 -5.406857,-5.44285 -5.406857,-5.44286 -0.8944,-1.07482 c -1.547733,-1.85994 -2.302132,-3.14364 -2.697018,-4.58929 l -0.193395,-0.70802 8.9e-5,-1.68153 8.8e-5,-1.68153 0.190377,-1.77004 c 0.393385,-3.6575 0.448987,-5.14298 0.548246,-14.64704 0.117162,-11.21825 0.260213,-13.13947 1.193243,-16.02562 0.504592,-1.56086 0.588561,-2.61739 0.299314,-3.76609 l -0.103478,-0.41095 -0.602478,-0.91412 c -0.776585,-1.17838 -4.193974,-5.96005 -6.128793,-8.5756 -3.997003,-5.40327 -4.649265,-6.34049 -8.068741,-11.593727 -3.183892,-4.891321 -3.404198,-5.269209 -3.404198,-5.839196 v -0.286222 l 0.29643,-0.388859 c 0.592673,-0.77747 0.714979,-1.174135 1.379482,-4.473949 0.483179,-2.399385 0.727787,-3.242401 1.097318,-3.78179 0.129706,-0.189327 0.23652,-0.388456 0.237363,-0.442509 0.04197,-2.68918 1.698306,-6.81459 3.930342,-9.789218 l 0.763692,-1.01777 0.101026,-0.394023 0.101026,-0.394024 0.385814,-0.374968 0.385815,-0.37497 0.506316,-0.188299 c 0.993375,-0.369436 2.106836,-1.295286 2.330959,-1.938205 l 0.09157,-0.262668 0.457923,-0.349157 c 0.643333,-0.49053 0.965704,-0.635533 1.412912,-0.635533 h 0.388518 l 0.527841,0.263766 c 1.019914,0.509657 2.607818,1.971905 6.545237,6.027296 l 1.768729,1.821723 0.481772,0.324444 c 0.264974,0.178445 0.573161,0.324444 0.68486,0.324444 h 0.203087 l 0.05221,0.136049 0.05221,0.136049 -0.158924,0.175609 -0.158925,0.17561 -0.0983,0.54355 -0.0983,0.543551 -0.144894,0.0914 -0.144894,0.0914 -0.226576,-0.103236 C 56.29586,76.253251 56.22014,76.160606 54.739075,74.170584 52.175626,70.726224 49.440302,68.01512 47.671455,67.165543 L 47.054447,66.869454 H 46.628208 46.20197 l -1.480104,1.526655 c -3.158921,3.258272 -3.632571,3.79724 -4.504062,5.125181 -1.098049,1.673162 -1.685804,3.117236 -2.421821,5.950252 -0.24162,0.930019 -0.636355,2.268418 -0.87719,2.974219 l -0.437881,1.283276 -0.353761,1.770035 c -0.415907,2.080985 -0.803307,4.663671 -0.803817,5.358826 l -3.54e-4,0.491232 0.779442,1.278803 c 2.447018,4.014732 10.508173,15.476727 12.933346,18.389667 l 0.467092,0.56104 0.08835,-0.0884 0.08835,-0.0884 -0.417736,-1.00369 c -0.229762,-0.55203 -0.561713,-1.40195 -0.737675,-1.88871 l -0.319933,-0.88502 -0.0018,-0.92927 -0.0018,-0.92927 0.23513,-0.4562 c 0.129322,-0.25091 0.414726,-0.67669 0.634233,-0.94619 0.468452,-0.57513 0.867617,-1.23387 1.806917,-2.98196 l 0.687659,-1.27976 h 0.176207 0.176207 l -0.0047,0.35401 c -0.0026,0.1947 -0.09937,0.87174 -0.21504,1.50453 l -0.210305,1.15052 -0.0023,1.90279 -0.0023,1.90278 0.151056,0.97352 c 0.321908,2.07462 0.858812,3.52545 1.61653,4.36821 0.773586,0.86042 0.893073,0.71978 2.21362,-2.60547 2.412036,-6.07371 4.180359,-8.69171 7.367923,-10.908196 1.039033,-0.722496 5.341721,-3.266205 6.247361,-3.693383 3.443971,-1.624473 10.440854,-3.120755 15.49526,-3.313658 2.534228,-0.09672 3.28061,-0.143815 5.08885,-0.321103 0.754478,-0.07397 1.909425,-0.136171 2.566551,-0.138218 l 1.194773,-0.0037 1.770035,0.317768 c 2.306955,0.414158 4.455751,0.718728 6.593387,0.934542 1.61092,0.162639 2.30656,0.213217 6.23937,0.453651 3.58625,0.219246 6.76615,0.740004 7.83929,1.283802 l 0.42253,0.214117 0.0615,0.193774 0.0615,0.193774 -0.59131,0.528561 -0.59132,0.528561 -0.25933,0.452138 c -0.71102,1.239659 0.44988,0.564315 1.42185,-0.827143 l 0.21357,-0.305762 0.003,-0.269499 0.003,-0.269499 0.2246,-0.02619 0.2246,-0.02619 1.10293,0.409304 c 0.6066,0.225117 1.50118,0.601709 1.98794,0.836872 l 0.88502,0.427568 0.26302,0.276685 0.26302,0.276686 -0.0951,0.151658 -0.0951,0.15166 -0.43344,0.02833 c -0.23839,0.01558 -0.78307,-0.03936 -1.21038,-0.122102 l -0.77695,-0.150436 -0.63908,0.04153 -0.63909,0.04153 -0.52754,0.257576 -0.52755,0.257577 -0.81664,0.779633 c -1.73649,1.657793 -3.53091,4.347912 -8.30557,12.451382 -3.65033,6.19528 -5.00182,8.37443 -6.28467,10.13345 l -0.38726,0.53101 -0.27948,0.79651 c -0.15372,0.43809 -0.51448,1.28541 -0.801697,1.88294 -0.750584,1.56154 -0.755622,1.55416 0.628317,0.92049 8.44941,-3.86879 16.05081,-9.13107 19.26987,-13.34011 0.44464,-0.58138 0.92361,-1.19339 1.06439,-1.36003 l 0.25595,-0.30299 0.15954,0.0612 0.15954,0.0612 -0.0457,0.34107 c -0.0658,0.49012 -0.70546,2.04664 -2.15005,5.23132 -2.76519,6.096 -5.44667,13.45046 -5.33306,14.62691 l 0.0276,0.28563 h 0.12766 c 0.38804,0 3.6332,-4.24532 10.99334,-14.38153 3.82317,-5.26518 5.35194,-7.56118 6.10949,-9.17561 l 0.33958,-0.72369 0.17345,-0.78084 c 0.0954,-0.42946 0.21894,-1.01843 0.27451,-1.30881 l 0.10105,-0.52797 0.30263,-0.30263 0.30263,-0.30263 0.44776,0.053 0.44776,0.053 0.67604,0.36465 c 0.37183,0.20056 1.1971,0.75769 1.83393,1.23805 l 1.15789,0.8734 1.01189,1.04492 c 3.32689,3.43547 9.42734,11.83967 11.10014,15.29196 0.63684,1.31427 0.6769,1.65944 0.22098,1.90345 l -0.17418,0.0932 -0.2636,-0.13631 -0.2636,-0.13631 -0.34134,-0.50802 c -0.18773,-0.2794 -0.67502,-1.06556 -1.08286,-1.74703 -4.29773,-7.18113 -10.632,-14.38153 -12.65158,-14.38153 h -0.24034 l -0.34516,0.2524 c -1.24596,0.91111 -3.44297,4.06285 -6.67762,9.57943 -2.07322,3.53581 -3.58598,5.84206 -5.45154,8.31103 -1.25733,1.66401 -1.82028,2.34139 -3.87286,4.66016 -0.72578,0.81989 -2.19751,2.54609 -3.27052,3.836 -2.14692,2.5809 -2.76077,3.26285 -3.27771,3.64136 l -0.34516,0.25272 h -0.29337 -0.29336 l -0.10349,-0.19338 -0.10348,-0.19336 0.0519,-0.89078 c 0.0591,-1.01369 0.18333,-1.64138 1.03451,-5.22736 0.97654,-4.11412 1.292,-5.85671 1.21918,-6.73478 l -0.0405,-0.48863 -0.18717,-0.18717 -0.18717,-0.18717 -0.69623,0.22939 c -1.68843,0.55627 -5.00441,2.24438 -8.7998,4.47982 -2.73444,1.61054 -3.746417,2.1527 -4.495732,2.40856 l -0.575262,0.19642 -1.150522,0.005 -1.150523,0.005 -0.331607,-0.11304 C 94.85695,130.717 94.647865,130.5807 94.5747,130.47624 l -0.133027,-0.18992 0.0011,-0.40069 0.0011,-0.4007 0.290143,-0.66376 c 0.359798,-0.82312 0.856643,-1.67009 3.114953,-5.3101 2.791001,-4.49862 4.878991,-8.03586 7.235441,-12.2575 1.19549,-2.14174 3.01723,-5.36763 4.04832,-7.16864 1.03109,-1.80101 2.16899,-3.87195 2.52866,-4.602089 l 0.65396,-1.327526 0.1833,-0.708014 0.18329,-0.708014 -0.0569,-0.398258 -0.0569,-0.398258 -0.37125,-0.356673 -0.37126,-0.356672 -0.51299,-0.196312 c -1.33861,-0.512302 -6.20159,-1.087821 -12.268766,-1.452016 l -1.902787,-0.114218 -4.734843,0.0013 -4.734843,0.0013 -1.637283,0.111243 c -3.77418,0.256431 -7.070296,0.662936 -9.148284,1.128244 -3.116987,0.697962 -7.586701,2.573374 -11.516873,4.832273 -0.632787,0.3637 -1.619088,0.91422 -2.191779,1.22337 -1.674819,0.90412 -1.96459,1.22925 -3.327056,3.73305 -0.441379,0.81113 -1.069581,1.90634 -1.396005,2.4338 -0.753026,1.21682 -0.97312,1.71105 -1.489436,3.34461 -0.230082,0.72796 -0.788272,2.24134 -1.240422,3.36307 -1.181153,2.9303 -1.465116,3.86172 -2.348607,7.70362 -1.004528,4.36823 -1.338881,6.26222 -1.507661,8.54042 l -0.09507,1.28327 -0.08409,8.67317 c -0.04625,4.77025 -0.104592,8.91213 -0.129655,9.20418 -0.02506,0.29206 -0.08513,1.04875 -0.133493,1.68154 -0.04836,0.63279 -0.190383,2.0655 -0.315608,3.18383 l -0.227684,2.0333 0.03378,0.71025 0.03378,0.71025 0.357552,0.87995 c 0.196655,0.48398 0.403234,0.89518 0.459066,0.91379 l 0.101512,0.0339 -0.05477,-1.97582 -0.05477,-1.97581 0.107551,-0.91839 c 0.450238,-3.84464 3.586878,-6.84556 7.14754,-6.83829 l 0.901826,0.002 0.601342,0.15082 c 0.741665,0.18599 1.490127,0.5027 2.283835,0.96638 l 0.605974,0.35401 0.897667,0.85588 0.897668,0.85589 0.556856,0.7814 c 1.345126,1.88753 2.156131,4.16506 2.405468,6.75526 l 0.09797,1.01777 -0.06015,0.97352 c -0.208942,3.38177 -2.171865,6.92292 -4.557125,8.22114 l -0.453271,0.2467 -0.734196,0.0669 c -1.455146,0.13262 -1.261923,0.62853 1.244136,3.19309 5.217888,5.3397 9.116311,7.262 23.394492,11.53569 3.619364,1.08334 8.433198,1.96626 13.142512,2.41053 l 1.59303,0.15027 2.38955,0.006 2.38955,0.006 0.84076,-0.11115 c 8.03254,-1.06186 25.61681,-7.69728 32.5896,-12.29768 0.52263,-0.34481 1.03442,-0.65365 1.13731,-0.68631 l 0.18708,-0.0594 0.0908,0.0908 0.0908,0.0908 -0.0559,0.22292 c -0.10054,0.40058 -1.12596,1.66958 -2.30572,2.85345 l -1.15659,1.16062 -0.90046,0.6661 c -2.37229,1.75491 -4.74147,2.91369 -9.764,4.77561 -7.66406,2.84118 -13.82111,4.37866 -20.0014,4.99454 l -1.54878,0.15435 -3.05331,8.9e-4 -3.053313,8.8e-4 -1.548781,-0.15194 c -5.422357,-0.53196 -9.643273,-1.51011 -18.408363,-4.26593 -4.237983,-1.33246 -7.053289,-2.34538 -9.496985,-3.41692 -0.788139,-0.34559 -1.742493,-0.75078 -2.120785,-0.90042 l -0.687807,-0.27207 -0.241462,0.0832 -0.241462,0.0832 -0.150391,0.3093 c -0.08271,0.17011 -0.194935,0.56817 -0.24938,0.88456 l -0.09899,0.57526 -0.07742,5.88537 c -0.125034,9.50525 -0.462707,15.78298 -0.98065,18.23136 -0.76791,3.63 -1.080685,6.67538 -1.081662,10.53171 l -6.19e-4,2.5223 0.154789,1.14456 c 0.08513,0.62952 0.231886,1.39417 0.326113,1.69925 l 0.171322,0.55468 0.573069,0.94506 c 0.315188,0.51978 0.573069,0.99378 0.573069,1.05334 0,0.0596 0.219041,0.55458 0.486759,1.10008 0.506006,1.03102 0.563949,1.2497 0.373098,1.40809 -0.252528,0.20958 -1.946184,0.36832 -2.054792,0.19259 z m -3.093868,-58.36856 c 0.761639,-0.19445 1.547909,-0.60285 2.278749,-1.18362 l 0.63879,-0.50763 0.501725,-0.65795 c 0.826539,-1.0839 1.386367,-2.35267 1.723608,-3.9063 l 0.159373,-0.73422 -0.004,-1.54878 -0.004,-1.54879 -0.193483,-0.90169 c -0.978489,-4.56005 -4.104745,-7.79773 -7.851582,-8.13143 l -0.615685,-0.0548 -0.663763,0.14037 c -2.435378,0.515 -4.258723,2.78134 -4.830086,6.00361 l -0.145389,0.81994 -0.0037,1.19478 -0.0037,1.19477 0.154918,0.88502 c 0.951879,5.43793 5.31628,9.84102 8.858222,8.93676 z m 100.603504,46.18356 c -0.33004,-0.27248 -0.80178,-0.58892 -1.04833,-0.7032 -0.53194,-0.24658 -0.73964,-0.45689 -1.03751,-1.05057 -0.72703,-1.44902 -2.26091,-3.40122 -4.17432,-5.31268 l -1.42005,-1.4186 -1.21954,-0.9267 -1.21955,-0.92669 -0.0454,-0.177 c -0.025,-0.0974 0.0972,-0.69474 0.2715,-1.32753 1.07427,-3.89953 1.60377,-9.00518 1.27648,-12.30849 l -0.0958,-0.96677 -0.39422,-1.54878 c -1.25233,-4.92009 -3.36314,-9.60663 -6.8941,-15.30669 -1.01433,-1.63746 -1.10254,-1.68601 -1.84312,-1.01465 -0.29972,0.2717 -0.8156,0.67424 -1.14642,0.89454 l -0.60148,0.40055 -0.28033,0.0126 -0.28033,0.0126 -0.03,-0.14532 -0.03,-0.14531 0.54715,-0.82821 c 0.30093,-0.45551 0.64116,-1.02732 0.75604,-1.2707 l 0.2089,-0.44251 3e-5,-0.44251 3e-5,-0.44251 -0.26131,-0.45562 c -0.14372,-0.25059 -0.80076,-1.02146 -1.46008,-1.71305 l -1.19876,-1.25744 -0.47642,-0.72074 c -0.86775,-1.31275 -1.33896,-2.44261 -1.64498,-3.94428 l -0.17839,-0.87535 v -1.24411 -1.24411 l 0.16856,-0.86951 c 1.17159,-6.0438 6.61061,-10.69065 10.35551,-8.84729 l 0.56763,0.27941 0.73994,0.70041 0.73994,0.70041 0.53727,0.80322 c 0.2955,0.44178 0.73297,1.19321 0.97216,1.66985 0.2392,0.47665 0.48066,0.86663 0.53658,0.86663 h 0.10168 l -0.0576,-1.70366 c -0.0317,-0.93701 -0.15571,-2.8586 -0.27557,-4.27021 -0.27403,-3.22727 -0.4245,-5.82327 -0.3873,-6.68188 l 0.0288,-0.66376 0.19424,-0.0276 0.19423,-0.0276 0.0916,0.34013 c 0.0504,0.18707 0.14938,0.41855 0.22,0.5144 l 0.12841,0.17427 0.39148,-0.21235 0.39148,-0.21234 0.10144,0.0627 c 0.19477,0.12038 0.0984,0.45684 -0.30149,1.053 l -0.40293,0.60062 -0.0479,0.41621 -0.0479,0.41621 0.2281,2.5223 c 0.3556,3.93197 0.43491,5.68576 0.44025,9.73519 l 0.005,3.76133 -0.111,0.83598 -0.111,0.83599 -0.22805,0.41901 c -0.81078,1.48965 -4.16451,5.39101 -5.97218,6.94734 -0.46972,0.4044 -0.94407,0.88097 -1.05411,1.05902 l -0.20008,0.32374 -0.0405,0.42175 -0.0405,0.42176 0.15547,0.47433 c 0.22283,0.67988 0.59346,1.39164 1.75836,3.37673 1.73924,2.96384 3.25702,5.904 4.24822,8.22942 l 0.40669,0.95412 0.53955,1.92218 c 0.59761,2.12912 0.73215,2.75262 0.93038,4.31173 l 0.13503,1.06202 0.0501,2.61097 0.0501,2.61096 -0.10232,1.04789 c -0.0563,0.57634 -0.21834,1.61174 -0.36014,2.30088 -0.64837,3.15102 -0.63553,3.88752 0.0873,5.00584 l 0.35643,0.55148 1.65747,1.70027 c 1.94236,1.99254 3.09754,3.34802 4.31064,5.05812 0.48342,0.68146 1.12126,1.49789 1.41742,1.81429 1.07932,1.15303 1.45776,1.77283 1.15368,1.88951 l -0.13007,0.0499 z m -15.76506,-46.91777 0.4113,-0.20015 0.75869,-0.77089 c 2.75766,-2.80202 4.83507,-7.27687 4.83507,-10.41501 v -0.72652 l -0.173,-0.67644 c -0.77072,-3.01347 -2.77899,-5.05538 -5.16054,-5.24698 l -0.64032,-0.0515 -0.66377,0.13845 -0.66376,0.13846 -0.82645,0.41531 -0.82644,0.4153 -0.7071,0.66519 c -1.63955,1.54236 -2.63701,3.39948 -3.21628,5.9882 l -0.23766,1.06202 0.003,0.97352 0.003,0.97351 0.13092,0.67152 c 0.59825,3.06856 2.70909,5.9377 4.95662,6.73722 l 0.45418,0.16157 0.57526,-0.0263 0.57526,-0.0263 0.41132,-0.20015 z m -6.19817,40.82004 c -1.07189,-1.36269 -1.63685,-7.1132 -1.75131,-17.82573 l -0.0515,-4.82334 0.10035,-1.80019 c 0.20977,-3.76314 0.60893,-4.44596 1.38981,-2.37744 0.36672,0.97144 0.75048,1.68975 1.49642,2.80097 1.59079,2.36976 2.49195,5.0247 3.02068,8.89931 l 0.157,1.15052 0.003,2.30104 0.003,2.30105 -0.1584,1.01777 c -0.43085,2.76859 -1.05797,4.27344 -2.39907,5.75677 -0.32798,0.36278 -0.69629,0.82885 -0.81844,1.0357 l -0.2221,0.3761 -0.0477,0.55317 c -0.0766,0.88785 -0.34031,1.11955 -0.72201,0.6343 z m 0.9046,-4.11504 c 1.08797,-1.20225 1.75964,-3.12033 2.01197,-5.74553 l 0.10632,-1.10627 -0.0554,-1.32753 c -0.15435,-3.70116 -1.39083,-8.00706 -2.87813,-10.02282 l -0.27753,-0.37613 h -0.16958 -0.16959 l -0.0977,0.29592 c -0.51538,1.56161 -0.17648,15.09803 0.45014,17.97969 0.21407,0.98445 0.41217,1.03999 1.07941,0.30267 z m -39.14736,-29.24106 c -2.897353,-0.64622 -7.120573,-3.74831 -9.038095,-6.63877 -1.566905,-2.36194 -3.773504,-8.22111 -4.339191,-11.52183 l -0.108924,-0.63556 0.103577,-0.22733 0.103577,-0.22732 h 0.183296 c 0.295245,0 0.662207,0.23062 1.528658,0.96073 1.378111,1.16124 2.189341,1.62934 3.33644,1.92524 l 0.575261,0.14838 0.752265,-0.003 0.752265,-0.003 0.560274,-0.14658 c 1.796706,-0.47007 3.594477,-1.82098 5.374637,-4.03871 1.19018,-1.48273 1.05006,-1.49817 2.82676,0.31163 l 1.32753,1.35226 0.75018,0.5523 c 0.88096,0.64861 2.00468,1.23239 2.92745,1.52086 l 0.65895,0.206 1.01777,9.7e-4 1.01777,9.7e-4 0.64851,-0.21243 c 0.91531,-0.29984 1.59344,-0.76713 2.7231,-1.87648 l 0.98205,-0.9644 h 0.23703 0.23704 l 0.0945,0.24338 0.0945,0.24338 -0.0549,0.553 c -0.82887,8.34823 -6.3546,16.89367 -11.86498,18.34899 l -0.70802,0.187 -1.06202,0.0344 -1.06202,0.0344 -0.57526,-0.1283 z m 2.12404,-0.81754 c 3.0114,-1.0191 6.66879,-3.93782 8.58779,-6.85332 1.45791,-2.21499 3.34931,-7.24774 3.47232,-9.23932 l 0.0204,-0.33006 -0.10106,-0.036 c -0.0556,-0.0198 -0.42537,0.18488 -0.82174,0.45479 -1.2047,0.8203 -1.82629,1.07363 -2.94843,1.20161 l -0.68573,0.0782 -0.77073,-0.0876 -0.77073,-0.0876 -0.77432,-0.25943 c -1.46516,-0.49087 -2.96859,-1.36287 -4.36698,-2.53287 -0.38941,-0.32582 -0.94139,-0.76539 -1.22664,-0.97683 l -0.51862,-0.38446 h -0.26278 -0.26279 l -1.25416,1.26115 -1.25416,1.26115 -0.78216,0.48004 c -1.437675,0.88235 -3.166851,1.44512 -4.793395,1.56006 l -0.796516,0.0563 -0.708014,-0.0928 c -0.389408,-0.051 -1.116665,-0.21815 -1.616128,-0.3714 -1.281,-0.39304 -1.31178,-0.36449 -0.991278,0.91959 0.997023,3.99453 2.697981,7.18911 5.125182,9.62564 l 1.022294,1.02622 0.945957,0.69956 c 1.601417,1.1843 3.879788,2.46684 4.850908,2.73069 l 0.48676,0.13225 0.39826,-0.0504 c 0.21904,-0.0277 0.57747,-0.1111 0.79651,-0.18523 z M 68.406159,147.84165 c -3.287951,-0.48232 -5.581906,-2.59622 -6.798608,-6.26496 l -0.341433,-1.02953 -0.19925,-1.15053 -0.199249,-1.15052 -0.0013,-1.77003 -0.0013,-1.77004 0.155739,-1.05759 c 0.643055,-4.3669 2.53172,-8.09783 5.18618,-10.24496 l 0.749133,-0.60596 0.976651,-0.48092 0.976651,-0.48093 0.752265,-0.20011 0.752265,-0.20012 1.637282,0.003 1.637282,0.003 0.708014,0.19554 c 4.33376,1.19692 6.771947,5.35233 7.211375,12.29036 l 0.09077,1.43318 -0.08821,1.22187 c -0.455929,6.31556 -3.610763,10.29853 -8.885891,11.21844 l -0.78503,0.13689 -1.515063,-0.0108 c -0.833284,-0.006 -1.741513,-0.044 -2.018286,-0.0846 z m 3.872968,-0.75188 c 6.603999,-1.33953 9.458887,-7.19558 7.950946,-16.30924 -0.744108,-4.49722 -2.583627,-6.96386 -6.054835,-8.11901 l -0.752265,-0.25034 -1.548781,0.001 -1.54878,10e-4 -0.796516,0.24471 c -4.108284,1.26215 -6.508184,4.61943 -7.536895,10.54352 l -0.153682,0.88502 -0.0031,1.99129 -0.0031,1.99129 0.149741,0.79651 c 1.121022,5.96307 5.237159,9.25053 10.297241,8.22415 z m 62.245973,0.57541 c -5.28789,-0.56115 -9.5267,-4.68418 -10.59345,-10.30409 l -0.15119,-0.79651 0.004,-2.12404 0.004,-2.12404 0.20373,-1.19478 c 1.07028,-6.27701 4.41622,-10.13284 9.03586,-10.41284 l 0.84076,-0.051 0.80977,0.14151 c 4.79245,0.83751 8.36909,5.45387 9.36885,12.09233 l 0.15327,1.01777 0.0446,1.73738 0.0446,1.7374 -0.10253,0.86935 c -0.64073,5.43285 -3.48354,8.90672 -7.70544,9.41593 -0.82721,0.0998 -0.97913,0.0994 -1.95768,-0.004 z m 2.28084,-1.23973 c 0.38076,-0.0526 1.00995,-0.20021 1.39818,-0.32809 l 0.70589,-0.23252 0.63763,-0.42647 c 1.78025,-1.19071 3.02396,-3.50264 3.5399,-6.58033 l 0.16194,-0.96593 -0.002,-1.85854 -0.002,-1.85854 -0.1566,-1.01777 c -0.66217,-4.30343 -2.45872,-7.94277 -4.87592,-9.87729 l -0.71422,-0.57161 -0.79652,-0.38958 c -0.43808,-0.21426 -1.13151,-0.47618 -1.54095,-0.58203 l -0.74443,-0.19246 h -0.85523 -0.85523 l -0.68361,0.18755 c -3.41069,0.93571 -6.1336,4.54634 -7.19763,9.54424 l -0.24036,1.12892 -0.002,2.12404 -0.002,2.12404 0.19754,0.90169 c 1.30936,5.97692 6.30401,9.66077 12.0271,8.87068 z m 32.57538,-29.61889 c -0.0757,-0.0852 -0.28385,-0.42214 -0.46244,-0.74879 l -0.32471,-0.59391 0.0283,-0.24686 0.0283,-0.24685 0.55612,-0.2794 c 1.35499,-0.68077 3.37221,-2.78915 5.89453,-6.16091 0.70021,-0.93601 1.93906,-2.45854 2.75299,-3.38338 5.64391,-6.412943 10.03279,-12.177942 10.4096,-13.67352 l 0.12265,-0.48676 -0.011,-1.106272 -0.011,-1.106272 -0.58118,-2.743554 c -0.31965,-1.508955 -0.74342,-3.639634 -0.94173,-4.734843 -1.42895,-7.891901 -4.27536,-11.732751 -9.81303,-13.241382 l -0.84437,-0.230032 -0.45134,0.03743 -0.45135,0.03743 -0.62291,0.402965 c -1.07104,0.692843 -2.20253,1.708169 -8.79571,7.892612 -1.97137,1.849165 -4.36092,4.14226 -5.3101,5.095765 l -1.72578,1.733647 -0.31129,0.57302 -0.3113,0.57302 -0.15361,0.02958 c -0.16353,0.03149 -0.17964,0.0031 -0.32885,-0.579877 -0.0528,-0.206319 -0.27381,-0.634833 -0.49113,-0.952254 -0.58753,-0.85818 -0.51674,-1.033132 0.29369,-0.725875 l 0.46754,0.177259 0.21822,-0.116787 c 0.12002,-0.06423 0.86544,-0.769874 1.6565,-1.568092 5.95988,-6.013868 13.57871,-12.822655 15.58803,-13.930697 0.57693,-0.318151 0.66153,-0.315169 1.2257,0.04321 0.2565,0.162932 1.19308,0.664749 2.0813,1.115147 0.88823,0.450397 2.03754,1.098003 2.55404,1.439122 l 0.93909,0.620218 0.94453,0.912541 c 2.42095,2.338938 3.54115,4.842018 4.25667,9.511504 l 0.27801,1.814286 0.84131,3.672822 c 0.46272,2.020053 0.90821,3.810044 0.98998,3.977759 l 0.14867,0.304936 0.26551,0.08308 c 0.14603,0.04569 0.31918,0.125667 0.38479,0.177717 l 0.11928,0.09464 -0.0484,0.298066 -0.0484,0.298066 -0.85009,1.28688 c -1.57261,2.380665 -4.69363,6.643825 -7.56865,10.338445 -2.55264,3.28033 -3.60797,4.7324 -4.63107,6.37203 l -0.25223,0.40424 -0.45578,0.29509 -0.45578,0.2951 -1.72671,1.75963 c -2.59213,2.64154 -4.24086,4.50587 -4.47157,5.05631 l -0.12056,0.28763 h -0.16781 c -0.0923,0 -0.22978,-0.0697 -0.30553,-0.15488 z"
       id="path536" /></g></svg>
